<svg xmlns="http://www.w3.org/2000/svg" xmlns:xlink="http://www.w3.org/1999/xlink" width="466" height="443" viewBox="0 0 466 443">
  <defs>
    <polygon id="4c-lg-on-black-a" points="163.142 251.083 0 251.072 81.56 0"/>
    <polygon id="4c-lg-on-black-c" points="264.453 0 214.029 155.154 .448 0"/>
    <polygon id="4c-lg-on-black-e" points="11.948 111.884 143.939 16 225.532 267.062"/>
    <polygon id="4c-lg-on-black-g" points="81.582 .5 213.56 96.402 0 251.583"/>
    <polygon id="4c-lg-on-black-i" points="50.403 155.178 0 .017 263.987 0"/>
  </defs>
  <g fill="none" fill-rule="evenodd">
    <g transform="translate(302 14)">
      <mask id="4c-lg-on-black-b" fill="#fff">
        <use xlink:href="#4c-lg-on-black-a"/>
      </mask>
      <g fill="#81AEFC" mask="url(#4c-lg-on-black-b)">
        <polygon points="0 0 166 0 166 274 0 274" transform="translate(-2 -14)"/>
      </g>
    </g>
    <g transform="translate(100)">
      <mask id="4c-lg-on-black-d" fill="#fff">
        <use xlink:href="#4c-lg-on-black-c"/>
      </mask>
      <g fill="#345D96" mask="url(#4c-lg-on-black-d)">
        <polygon points="0 0 294 0 294 155 0 155" transform="translate(-11)"/>
      </g>
    </g>
    <g transform="translate(-5 175)">
      <mask id="4c-lg-on-black-f" fill="#fff">
        <use xlink:href="#4c-lg-on-black-e"/>
      </mask>
      <g fill="#EE601D" mask="url(#4c-lg-on-black-f)">
        <polygon points="0 0 238 0 238 276 0 276"/>
      </g>
    </g>
    <g transform="translate(0 13)">
      <mask id="4c-lg-on-black-h" fill="#fff">
        <use xlink:href="#4c-lg-on-black-g"/>
      </mask>
      <g fill="#F6BD9C" mask="url(#4c-lg-on-black-h)">
        <polygon points="0 0 226 0 226 287 0 287" transform="translate(-5 -13)"/>
      </g>
    </g>
    <g transform="translate(194 287)">
      <mask id="4c-lg-on-black-j" fill="#fff">
        <use xlink:href="#4c-lg-on-black-i"/>
      </mask>
      <g fill="#E6E6E6" mask="url(#4c-lg-on-black-j)">
        <polygon points="0 0 351 0 351 252 0 252" transform="translate(-45 -74)"/>
      </g>
    </g>
  </g>
</svg>
