<svg width="69" height="69" viewBox="0 0 69 69" fill="none" xmlns="http://www.w3.org/2000/svg">
<circle cx="34.5" cy="34.5" r="34.5" fill="#00A91C"/>
<path d="M41.8974 44.98C41.1135 44.0586 39.7251 43.9349 38.8036 44.7188C37.1813 46.0938 35.1188 46.8501 32.9876 46.8501C28.0099 46.8501 23.9676 42.8077 23.9676 37.8301C23.9676 36.0287 24.4899 34.2962 25.4939 32.8113C26.1676 31.8077 25.9064 30.4327 24.8889 29.7587C23.8854 29.085 22.5104 29.3462 21.8363 30.3636C20.3514 32.5774 19.5537 35.1623 19.5537 37.8435C19.5537 45.2409 25.5761 51.2635 32.9737 51.2635C36.15 51.2635 39.2161 50.1359 41.6362 48.0872C42.5714 47.2901 42.6813 45.9013 41.8974 44.9799V44.98Z" fill="#212121"/>
<path d="M49.3499 45.8052L45.72 34.3786C45.4588 33.5536 44.6887 33.0036 43.8361 33.0036H32.3002V29.25H39.9864C41.0864 29.25 41.9663 28.3701 41.9663 27.2701C41.9663 26.1701 41.0864 25.2902 39.9864 25.2902H32.3002V21C33.6752 20.2576 34.6101 18.8138 34.6101 17.15C34.6101 14.7161 32.644 12.75 30.2101 12.75C27.7762 12.75 25.8101 14.7161 25.8101 17.15C25.8101 18.9098 26.8551 20.4089 28.34 21.1237L28.3538 34.9837C28.3538 36.0698 29.2475 36.9636 30.3337 36.9636H42.3929L45.583 47.0011C45.8442 47.8399 46.6281 48.3761 47.4669 48.3761C47.6594 48.3761 47.8656 48.3485 48.0719 48.2797C49.1031 47.9501 49.6805 46.8363 49.3505 45.805L49.3499 45.8052Z" fill="#212121"/>
</svg>
