<svg width="69" height="69" viewBox="0 0 69 69" fill="none" xmlns="http://www.w3.org/2000/svg">
<circle cx="34.5" cy="34.5" r="34.5" fill="#00A91C"/>
<path d="M41.8974 41.98C41.1135 41.0586 39.7251 40.9349 38.8036 41.7188C37.1813 43.0938 35.1188 43.8501 32.9876 43.8501C28.0099 43.8501 23.9676 39.8077 23.9676 34.8301C23.9676 33.0287 24.4899 31.2962 25.4939 29.8113C26.1676 28.8077 25.9064 27.4327 24.8889 26.7587C23.8854 26.085 22.5104 26.3462 21.8363 27.3636C20.3514 29.5774 19.5537 32.1623 19.5537 34.8435C19.5537 42.2409 25.5761 48.2635 32.9737 48.2635C36.15 48.2635 39.2161 47.1359 41.6362 45.0872C42.5714 44.2901 42.6813 42.9013 41.8974 41.9799V41.98Z" fill="white"/>
<path d="M49.3499 42.8052L45.72 31.3786C45.4588 30.5536 44.6887 30.0036 43.8361 30.0036H32.3002V26.25H39.9864C41.0864 26.25 41.9663 25.3701 41.9663 24.2701C41.9663 23.1701 41.0864 22.2902 39.9864 22.2902H32.3002V18C33.6752 17.2576 34.6101 15.8138 34.6101 14.15C34.6101 11.7161 32.644 9.75 30.2101 9.75C27.7762 9.75 25.8101 11.7161 25.8101 14.15C25.8101 15.9098 26.8551 17.4089 28.34 18.1237L28.3538 31.9837C28.3538 33.0698 29.2475 33.9636 30.3337 33.9636H42.3929L45.583 44.0011C45.8442 44.8399 46.6281 45.3761 47.4669 45.3761C47.6594 45.3761 47.8656 45.3485 48.0719 45.2797C49.1031 44.9501 49.6805 43.8363 49.3505 42.805L49.3499 42.8052Z" fill="white"/>
</svg>
