<svg width="69" height="69" viewBox="0 0 69 69" fill="none" xmlns="http://www.w3.org/2000/svg">
<circle cx="34.5" cy="34.5" r="34.5" fill="#005EA2"/>
<path d="M35.5517 13.2493C35.5517 14.0541 34.8993 14.7063 34.0947 14.7063C33.2901 14.7063 32.6377 14.0541 32.6377 13.2493C32.6377 12.4447 33.2901 11.7925 34.0947 11.7925C34.8993 11.7925 35.5517 12.4447 35.5517 13.2493Z" fill="white"/>
<path d="M36.4725 10.6567V15.0105H35.7091L32.4431 15.0089L32.0762 15.0105H31.7176L31.7178 10.6567C31.7178 9.78109 30.5748 9.78109 30.5772 10.6567V15.104C30.5772 16.071 31.147 17.0191 32.2789 17.0191H32.2805L32.2789 28.8331C32.2789 29.2841 32.6452 29.6504 33.0951 29.6504C33.5472 29.6504 33.9124 29.2841 33.9124 28.8331L33.913 21.9806H34.2777L34.275 28.8331C34.275 29.2841 34.6402 29.6504 35.0912 29.6504C35.5433 29.6504 35.9075 29.2841 35.9075 28.8331L35.912 17.0191C37.0444 17.0191 37.6137 16.0709 37.6137 15.104L37.6133 10.6567C37.615 9.78159 36.4725 9.78159 36.4725 10.6567H36.4725Z" fill="white"/>
<path d="M20.5585 49.945C20.5585 50.8302 19.841 51.5478 18.9558 51.5478C18.0706 51.5478 17.353 50.8302 17.353 49.945C17.353 49.0599 18.0706 48.3423 18.9558 48.3423C19.841 48.3423 20.5585 49.0599 20.5585 49.945Z" fill="white"/>
<path d="M15.1521 49.6028L18.231 46.5239L18.484 46.7779L18.7706 47.0638L21.8604 50.157L22.1222 50.4156L22.3752 50.6696L19.2963 53.7485C18.6775 54.3673 19.485 55.1753 20.1032 54.5554L23.2481 51.4105C23.9317 50.7257 24.199 49.6532 23.3989 48.8529L23.3978 48.8518L31.7527 40.4992C32.0718 40.1801 32.0718 39.6625 31.7533 39.3437C31.4337 39.0241 30.9161 39.0241 30.5967 39.3431L25.7512 44.1891L24.7112 43.148L29.5585 38.3043C29.8776 37.9853 29.8792 37.4684 29.5585 37.1488C29.239 36.8292 28.7226 36.8303 28.4036 37.1499L20.0473 45.5012C19.2475 44.7009 18.174 44.9676 17.4903 45.6519L14.3453 48.7963C13.725 49.4151 14.5329 50.2223 15.1522 49.6031L15.1521 49.6028Z" fill="white"/>
<path d="M34.0948 54.7935C33.2896 54.7935 32.6372 55.4462 32.6372 56.251C32.6372 57.054 33.2894 57.7064 34.0948 57.7064C34.8994 57.7064 35.5517 57.0542 35.5517 56.251C35.5523 55.4457 34.8994 54.7935 34.0948 54.7935ZM34.0948 57.4296C33.4436 57.4296 32.9138 56.9016 32.9138 56.251C32.9138 55.5982 33.4434 55.0701 34.0948 55.0701C34.7459 55.0701 35.2751 55.5986 35.2751 56.251C35.2757 56.9016 34.7459 57.4296 34.0948 57.4296Z" fill="white"/>
<path d="M31.1461 59.5007C31.4315 59.5007 31.7176 59.2812 31.7176 58.8446V54.4897H32.4805L35.7465 54.4918L36.1139 54.4897H36.472V58.8446C36.472 59.2812 36.7579 59.5007 37.0429 59.5007C37.3288 59.5007 37.6133 59.2812 37.6123 58.8446L37.6119 54.3962C37.6119 53.4287 37.0426 52.4811 35.9107 52.4811H35.9091L35.9107 40.6685C35.9107 40.2164 35.5444 39.8501 35.0945 39.8501C34.6424 39.8501 34.2772 40.2164 34.2772 40.6685L34.2763 47.5196H33.9121L33.9148 40.6685C33.9148 40.2164 33.549 39.8501 33.0985 39.8501C32.6465 39.8501 32.2818 40.2164 32.2818 40.6685L32.2779 52.4811C31.146 52.4811 30.5767 53.4293 30.5767 54.3962V58.8446C30.5758 59.2812 30.8608 59.5007 31.1462 59.5007H31.1461ZM30.8531 54.3963C30.8531 53.6076 31.299 52.7579 32.2782 52.7579L32.5546 52.7577V52.4811L32.5586 40.6685C32.5586 40.3688 32.8006 40.1267 33.0987 40.1267C33.3963 40.1267 33.6383 40.3688 33.6383 40.6685L33.6356 47.5197L33.6351 47.7963H34.553V47.5197L34.5541 40.6685C34.5541 40.3688 34.7967 40.1267 35.0948 40.1267C35.3923 40.1267 35.6344 40.3688 35.6344 40.6685L35.6322 52.4811L35.6338 52.7577H35.911C36.8899 52.7577 37.3361 53.608 37.3361 54.3961V58.8444C37.3361 58.9737 37.3014 59.0793 37.235 59.1458C37.1843 59.1952 37.1155 59.2244 37.0425 59.2244C36.9071 59.2244 36.7482 59.1248 36.7482 58.8448L36.7478 54.4897V54.2131H36.1109L35.7457 54.2153L32.4797 54.2131H31.4409V58.8446C31.4409 59.1251 31.282 59.2241 31.1461 59.2241C31.0728 59.2241 31.0046 59.1949 30.9541 59.1455C30.8875 59.0789 30.853 58.974 30.853 58.8442L30.8531 54.3963Z" fill="white"/>
<path d="M54.2294 34.3042C54.2294 35.1088 53.577 35.761 52.7724 35.761C51.9678 35.761 51.3154 35.1088 51.3154 34.3042C51.3154 33.4994 51.9678 32.8472 52.7724 32.8472C53.577 32.8472 54.2294 33.4994 54.2294 34.3042Z" fill="white"/>
<path d="M54.5319 36.6816H51.0103V35.9187L51.0119 32.6522L51.0103 32.2859V31.9273H54.5319C55.4076 31.9273 55.4076 30.7848 54.5319 30.7866H50.9163C49.9493 30.7866 49.0017 31.356 49.0017 32.4884V32.49L39.9565 32.4884C39.5044 32.4884 39.1392 32.8547 39.1392 33.3035C39.1392 33.7572 39.5044 34.1219 39.9565 34.1208L44.0408 34.1224V34.4866L39.9565 34.4839C39.5055 34.4844 39.1392 34.8491 39.1392 35.299C39.1392 35.7517 39.5055 36.1163 39.9565 36.1163L49.0017 36.1203C49.0017 37.2521 49.9499 37.8209 50.9163 37.8226L54.5319 37.821C55.4069 37.8238 55.4069 36.6816 54.5319 36.6816V36.6816Z" fill="white"/>
<path d="M16.8749 34.8056C16.8749 34.001 16.2227 33.3486 15.4174 33.3486C14.6139 33.3486 13.9614 34.0008 13.9614 34.8056C13.9614 35.6107 14.6136 36.2632 15.4174 36.2632C16.2225 36.2632 16.8749 35.611 16.8749 34.8056ZM14.2656 34.8056C14.2656 34.1699 14.7827 33.6528 15.4179 33.6528C16.0532 33.6528 16.5702 34.1699 16.5702 34.8056C16.5702 35.4408 16.0532 35.9584 15.4179 35.9584C14.7827 35.9584 14.2656 35.4408 14.2656 34.8056Z" fill="white"/>
<path d="M13 31.8571C13 32.142 13.2184 32.4286 13.6561 32.4286H17.1794V33.1915L17.1778 36.4575L17.1794 36.8249V37.1835H13.6561C13.2184 37.1835 13 37.4684 13 37.7545C13 38.0398 13.2184 38.3249 13.6561 38.3238H17.2729C18.2399 38.3238 19.188 37.7545 19.188 36.622V36.6204L28.2332 36.622C28.6842 36.622 29.0505 36.2563 29.0505 35.8058C29.0505 35.3537 28.6842 34.9885 28.2332 34.9885L22.4866 34.9873V34.6231L28.2332 34.6258C28.6842 34.6258 29.0505 34.2605 29.0505 33.8095C29.0505 33.3575 28.6842 32.9933 28.2332 32.9933L19.188 32.9893C19.188 31.8575 18.2398 31.2876 17.2729 31.2876H13.6561C13.2184 31.2869 13.0002 31.5717 13.0002 31.8571L13 31.8571ZM17.2729 31.5914C18.0743 31.5914 18.8828 32.0238 18.8828 32.989V33.2932H19.1881L28.2333 33.2971C28.5165 33.2971 28.7464 33.527 28.7464 33.8092C28.7464 34.0913 28.5165 34.3207 28.2333 34.3207L22.4867 34.318H22.1825V35.2916H22.4867L28.2333 35.2926C28.5165 35.2926 28.7464 35.5225 28.7464 35.8057C28.7464 36.0884 28.5165 36.3172 28.2333 36.3172L19.1881 36.3156L18.8828 36.3172V36.6225C18.8828 37.5877 18.0738 38.019 17.2729 38.019H13.6562C13.533 38.0195 13.4362 37.9871 13.3746 37.9261C13.3289 37.8815 13.3042 37.821 13.3042 37.7546C13.3042 37.6253 13.3966 37.4878 13.6562 37.4878H17.4836V36.8229L17.482 36.4576L17.4836 33.1916V32.1235H13.6562C13.3966 32.1235 13.3042 31.986 13.3042 31.8578C13.3042 31.7917 13.3289 31.7307 13.3746 31.685C13.4356 31.624 13.533 31.5926 13.6562 31.5926H17.2729V31.5914Z" fill="white"/>
<path d="M19.812 20.7799C20.0963 20.4956 20.2383 20.1232 20.2394 19.7497L20.9659 19.0226L19.7021 18.6056L19.6899 18.6183C19.1174 18.1591 18.282 18.1883 17.7517 18.7195C17.2198 19.2509 17.1908 20.0852 17.6505 20.6567L17.6412 20.6665L18.0537 21.9343L18.7813 21.2067C19.1548 21.2067 19.5277 21.0642 19.812 20.7799H19.812Z" fill="white"/>
<path d="M22.5802 18.5731L19.4363 15.4287C18.8181 14.8078 18.0096 15.6156 18.6295 16.2351L21.7084 19.314L21.4548 19.5675L21.1689 19.8529L18.859 22.1612L18.6005 22.4218L18.347 22.6754L15.2681 19.5965C14.6493 18.9772 13.8403 19.7846 14.4624 20.4028L17.6063 23.5472C18.2911 24.2315 19.363 24.4993 20.1638 23.6985L20.166 23.6975L22.2648 25.7979L24.3966 29.451L25.1556 28.692L28.5172 32.0547C28.8368 32.3732 29.3538 32.3732 29.6722 32.0547C29.9928 31.734 29.9907 31.2175 29.6722 30.8986L26.3111 27.536L26.5686 27.2785L29.9286 30.6433C30.2481 30.9618 30.7652 30.9618 31.0835 30.6433C31.4042 30.3226 31.402 29.8079 31.0835 29.4872L27.7225 26.1235L28.4837 25.3622L24.8328 23.2326L22.7329 21.13C23.5318 20.3297 23.265 19.2573 22.5804 18.573L22.5802 18.5731Z" fill="white"/>
<path d="M43.8594 49.6517L46.6134 52.4049C46.9224 52.7146 47.2789 52.669 47.4814 52.467C47.6831 52.2647 47.7301 51.9077 47.4203 51.598L44.7324 48.9112L44.9865 48.6577L45.4688 48.1748L47.7787 45.8681L48.2324 45.411L48.4859 45.1575L51.1738 47.8454C51.4828 48.1544 51.8409 48.1077 52.0428 47.9054C52.2435 47.7041 52.2908 47.3471 51.9807 47.0379L49.2262 44.2834C48.5437 43.6009 47.2742 43.5283 46.4741 44.3291L46.6896 44.5452C47.387 43.8468 48.4732 43.9612 49.0112 44.4995L51.7662 47.254C51.853 47.3398 51.8992 47.4311 51.8992 47.5181C51.8992 47.5818 51.8734 47.6429 51.8265 47.6886C51.7346 47.7804 51.5724 47.8128 51.3898 47.6297L48.7019 44.9418L48.4858 44.7262L48.2703 44.9418L48.0168 45.1969L47.5631 45.6524L45.2532 47.9607L44.7714 48.4419L44.5179 48.696L44.3018 48.9115L44.5168 49.1271L47.2047 51.8139C47.3878 51.9981 47.356 52.1603 47.2657 52.2516C47.2179 52.2978 47.158 52.3236 47.0942 52.3236C47.0074 52.3236 46.9172 52.2769 46.8291 52.19L44.0759 49.4368C43.5083 48.8704 43.2421 47.9925 43.9246 47.3101L44.1401 47.094L43.9246 46.8784L42.6067 45.5589L42.5727 45.5249L42.5286 45.5039L39.8407 44.1493L40.3034 43.6856L40.5179 43.4701L40.3044 43.254L36.9434 39.8913C36.7432 39.6917 36.7432 39.3671 36.9434 39.1669C37.1414 38.9689 37.4658 38.9689 37.6662 39.1686L41.0272 42.5312L41.2428 42.7473L41.4589 42.5312L42.1073 41.8817L42.3229 41.6672L42.1073 41.4511L38.7468 38.0884C38.5461 37.8888 38.5461 37.5642 38.7468 37.3635C38.9465 37.1639 39.2711 37.1639 39.4712 37.3635L42.8317 40.7267L43.0478 40.9423L43.2629 40.7267L43.7248 40.2636L45.0817 42.9547L45.1021 42.9987L45.1361 43.0327L46.454 44.3512L46.6701 44.1351L45.3522 42.8172L43.8067 39.7521L43.0478 40.5111L39.6867 37.1489C39.3682 36.8299 38.8495 36.8299 38.5307 37.1489C38.2111 37.468 38.2122 37.9856 38.5307 38.305L41.8917 41.6677L41.2427 42.3161L37.8817 38.9535C37.5637 38.6349 37.0463 38.6328 36.7278 38.9518C36.4076 39.272 36.4093 39.7885 36.7278 40.1079L40.0888 43.4706L39.327 44.2318L42.3905 45.7751L43.7084 47.0946C42.909 47.8951 43.1763 48.968 43.8593 49.6518L43.8594 49.6517Z" fill="white"/>
<path d="M46.9339 49.4242L46.9466 49.4109C47.5192 49.8696 48.354 49.8404 48.8843 49.3092C49.4144 48.7778 49.4447 47.9441 48.986 47.3726L48.9948 47.3627L47.8871 46.1836L45.7598 48.3127L46.9339 49.4242ZM47.8815 46.6224L48.6516 47.4419L48.7479 47.5629C49.118 48.0227 49.0834 48.6805 48.6699 49.0948C48.2552 49.5089 47.598 49.542 47.138 49.1728L47.0401 49.1046L46.1965 48.3072L47.8815 46.6224Z" fill="white"/>
<path d="M47.3968 21.5312C47.9577 22.0921 48.8604 22.0966 49.4306 21.5522C49.6408 21.4747 49.8386 21.3558 50.0077 21.1859C50.6331 20.561 50.6331 19.5457 50.0071 18.9198C49.3812 18.2934 48.3664 18.2939 47.7411 18.9198C47.5722 19.0876 47.4534 19.2861 47.3748 19.4956C46.8303 20.0683 46.8359 20.9709 47.3968 21.5312L47.3968 21.5312ZM49.7921 19.1355C50.2991 19.642 50.2991 20.4649 49.7932 20.9703C49.6644 21.1001 49.5065 21.1991 49.3252 21.2678L49.2673 21.2888L49.2217 21.3328C48.7641 21.7679 48.0585 21.7602 47.6123 21.3158C47.1669 20.8704 47.1592 20.1635 47.5943 19.707L47.6383 19.6613L47.6603 19.603C47.728 19.4214 47.8275 19.2642 47.9568 19.1355C48.4622 18.629 49.2862 18.629 49.7921 19.1355L49.7921 19.1355Z" fill="white"/>
<path d="M49.7107 24.4079L52.2672 21.8509C52.4883 21.6304 52.5345 21.4092 52.5345 21.2624C52.5356 20.7201 51.8173 20.2569 51.2463 20.8284L48.8616 23.2116L45.715 20.0639L48.0987 17.6813C48.6707 17.1093 48.2071 16.391 47.6637 16.3921C47.5174 16.3921 47.2952 16.4388 47.0773 16.6589L44.5203 19.2169C43.845 19.8922 43.4973 20.9946 44.2663 21.8801L43.2674 22.8805L37.5135 27.0732L38.2913 27.8514L36.9954 29.1478C36.6169 29.5263 36.6169 30.1406 36.9943 30.5184C37.3728 30.8961 37.9871 30.8961 38.3649 30.5184L39.6613 29.2225L39.703 29.2631L38.4068 30.5595C38.0283 30.938 38.0283 31.5523 38.4057 31.9301C38.7829 32.3078 39.3984 32.3078 39.7762 31.929L41.0726 30.6331L41.8514 31.413L46.0281 25.682L47.0495 24.6624C47.9334 25.4303 49.0361 25.0832 49.7109 24.4078L49.7107 24.4079ZM45.7986 25.4859L41.8178 30.9465L41.0742 30.2024L39.5617 31.7149C39.3016 31.9745 38.8809 31.9735 38.6218 31.7149C38.3627 31.4553 38.3627 31.0341 38.6218 30.775L40.1343 29.2641L39.6629 28.7922L38.1504 30.3041C37.8908 30.5637 37.47 30.5637 37.2104 30.3041C36.9514 30.0445 36.9508 29.6232 37.2104 29.3642L38.7229 27.8533L37.9815 27.1113L43.4655 23.1122L44.5859 21.9923L44.6921 21.8834L44.5848 21.7746C43.8325 21.0228 44.136 20.0327 44.7361 19.4331L47.292 16.8761C47.4086 16.7601 47.5373 16.6985 47.6655 16.6985C47.9745 16.6958 48.2551 17.0956 47.8834 17.4675L45.2852 20.0657L48.8618 23.6428L51.4611 21.0441C51.8335 20.6741 52.2306 20.9533 52.2306 21.2631C52.2306 21.3907 52.1684 21.5187 52.0524 21.6349L49.4954 24.193C48.8942 24.7931 47.9065 25.0966 47.1529 24.3437L47.0462 24.237L45.7986 25.4859Z" fill="white"/>
</svg>
