<svg width="69" height="69" viewBox="0 0 69 69" fill="none" xmlns="http://www.w3.org/2000/svg">
<circle cx="34.5" cy="34.5" r="34.5" fill="#E41D3D"/>
<path d="M13 42.6245V43.9995H32.4284L28.2187 51.2155C28.0944 51.4285 28.0934 51.6906 28.2165 51.9043C28.3399 52.1182 28.5667 52.2495 28.8129 52.2495H38.4379C38.684 52.2495 38.9114 52.1182 39.0339 51.9046C39.1564 51.6906 39.1554 51.4288 39.0317 51.2158L34.8224 43.9995H54.2507V42.6245H52.8757V37.812C52.8757 37.4327 52.5676 37.1245 52.1882 37.1245H50.8132V34.659L51.2994 34.1729C51.4286 34.0446 51.5007 33.8693 51.5007 33.687V30.937C51.5007 30.2047 51.1143 29.5641 50.5376 29.1983C50.7079 28.8978 50.8132 28.5562 50.8132 28.187C50.8132 27.0499 49.8879 26.1245 48.7507 26.1245C47.6135 26.1245 46.6882 27.0499 46.6882 28.187C46.6882 28.5562 46.7935 28.8978 46.9638 29.1983C46.3871 29.5642 46.0007 30.2047 46.0007 30.937V33.687C46.0007 33.8693 46.0728 34.0446 46.202 34.1732L46.6882 34.659V37.1245H43.9382V34.659L44.4243 34.1729C44.5536 34.0446 44.6257 33.8693 44.6257 33.687V30.937C44.6257 30.2047 44.2393 29.5641 43.6626 29.1983C43.8329 28.8978 43.9382 28.5562 43.9382 28.187C43.9382 27.0499 43.0128 26.1245 41.8757 26.1245C40.7385 26.1245 39.8132 27.0499 39.8132 28.187C39.8132 28.5562 39.9184 28.8978 40.0888 29.1983C39.5121 29.5642 39.1256 30.2047 39.1256 30.937V33.687C39.1256 33.8693 39.1978 34.0446 39.327 34.1732L39.8131 34.659V37.1245H38.4381C38.0588 37.1245 37.7506 37.4327 37.7506 37.812V42.6245H29.5006V38.2368L30.4954 37.739C30.7286 37.6229 30.8756 37.3851 30.8756 37.1245V33.687C30.8756 32.312 30.0589 31.1316 28.8886 30.5822C29.2655 30.1114 29.5006 29.5227 29.5006 28.8745C29.5006 27.358 28.2671 26.1245 26.7506 26.1245C25.2341 26.1245 24.0006 27.358 24.0006 28.8745C24.0006 29.5227 24.2357 30.1114 24.6126 30.5822C23.4423 31.1316 22.6256 32.312 22.6256 33.687V37.1245C22.6256 37.3851 22.7727 37.623 23.0059 37.7399L24.0006 38.2368V42.6245H19.8756V38.2368L20.8703 37.739C21.1036 37.6229 21.2506 37.3851 21.2506 37.1245V33.687C21.2506 32.312 20.4339 31.1316 19.2636 30.5822C19.6405 30.1114 19.8756 29.5227 19.8756 28.8745C19.8756 27.358 18.6421 26.1245 17.1256 26.1245C15.6091 26.1245 14.3756 27.358 14.3756 28.8745C14.3756 29.5227 14.6107 30.1114 14.9876 30.5822C13.8173 31.1316 13.0006 32.312 13.0006 33.687V37.1245C13.0006 37.3851 13.1476 37.623 13.3809 37.7399L14.3756 38.2368V42.6245L13 42.6245ZM30.0091 50.8745L33.6247 44.6766L37.2402 50.8745H30.0091ZM51.5 42.6245H46V38.4995H51.5V42.6245ZM48.75 27.4995C49.1287 27.4995 49.4375 27.8083 49.4375 28.187C49.4375 28.5658 49.1287 28.8745 48.75 28.8745C48.3713 28.8745 48.0625 28.5658 48.0625 28.187C48.0625 27.8083 48.3713 27.4995 48.75 27.4995ZM47.8612 33.8883L47.375 33.4025V30.937C47.375 30.5583 47.6838 30.2495 48.0625 30.2495H49.4375C49.8163 30.2495 50.125 30.5583 50.125 30.937V33.4025L49.6389 33.8886C49.5097 34.0169 49.4375 34.1922 49.4375 34.3745V37.1245H48.0625V34.3745C48.0625 34.1922 47.9904 34.0169 47.8612 33.8883ZM41.875 27.4995C42.2537 27.4995 42.5625 27.8083 42.5625 28.187C42.5625 28.5658 42.2537 28.8745 41.875 28.8745C41.4963 28.8745 41.1875 28.5658 41.1875 28.187C41.1875 27.8083 41.4963 27.4995 41.875 27.4995ZM40.9862 33.8883L40.5 33.4025V30.937C40.5 30.5583 40.8088 30.2495 41.1875 30.2495H42.5625C42.9413 30.2495 43.25 30.5583 43.25 30.937V33.4025L42.7639 33.8886C42.6347 34.0169 42.5625 34.1922 42.5625 34.3745V37.1245H41.1875V34.3745C41.1875 34.1922 41.1154 34.0169 40.9862 33.8883ZM39.125 38.4995H44.625V42.6245H39.125V38.4995ZM26.75 27.4995C27.5084 27.4995 28.125 28.1161 28.125 28.8745C28.125 29.6329 27.5084 30.2495 26.75 30.2495C25.9916 30.2495 25.375 29.6329 25.375 28.8745C25.375 28.1161 25.9916 27.4995 26.75 27.4995ZM24.9947 37.1968L24 36.6999V33.6872C24 32.55 24.9253 31.6247 26.0625 31.6247H27.4375C28.5747 31.6247 29.5 32.55 29.5 33.6872V36.6999L28.5053 37.1977C28.272 37.3138 28.125 37.5516 28.125 37.8122V42.6247H25.375V37.8122C25.375 37.5516 25.228 37.3138 24.9947 37.1968H24.9947ZM17.125 27.4995C17.8834 27.4995 18.5 28.1161 18.5 28.8745C18.5 29.6329 17.8834 30.2495 17.125 30.2495C16.3666 30.2495 15.75 29.6329 15.75 28.8745C15.75 28.1161 16.3666 27.4995 17.125 27.4995ZM15.3697 37.1968L14.375 36.6999V33.6872C14.375 32.55 15.3003 31.6247 16.4375 31.6247H17.8125C18.9497 31.6247 19.875 32.55 19.875 33.6872V36.6999L18.8803 37.1977C18.647 37.3138 18.5 37.5516 18.5 37.8122V42.6247H15.75V37.8122C15.75 37.5516 15.603 37.3138 15.3697 37.1968H15.3697Z" fill="white"/>
<path d="M33.6318 24.7493C34.1468 24.7493 34.661 24.6916 35.1609 24.5774L34.8549 23.2368C34.4556 23.3283 34.0444 23.3743 33.6324 23.3743L33.6327 24.7493L33.6318 24.7493Z" fill="white"/>
<path d="M37.9152 23.2473L37.0564 22.1733C36.7347 22.4311 36.3839 22.6518 36.0156 22.8298L36.6138 24.068C37.0748 23.8452 37.5122 23.5689 37.9151 23.2473L37.9152 23.2473Z" fill="white"/>
<path d="M37.8929 12.4844L37.0391 13.5617C37.3616 13.8173 37.655 14.1089 37.9129 14.4293L38.9846 13.5672C38.6621 13.1679 38.295 12.8035 37.8929 12.4844Z" fill="white"/>
<path d="M26.75 17.8746V17.8878L28.125 17.8746C28.125 17.4649 28.1698 17.0573 28.2591 16.6619L26.9179 16.3608C26.8065 16.8544 26.75 17.3639 26.75 17.8746H26.75Z" fill="white"/>
<path d="M32.3846 12.5153C32.7833 12.4232 33.1946 12.3756 33.6076 12.375L33.6036 11C33.088 11.0012 32.5737 11.0605 32.0752 11.1753L32.3846 12.5153Z" fill="white"/>
<path d="M39.8209 20.8559L38.5822 20.2593C38.4041 20.6291 38.1835 20.9799 37.9263 21.3016L39.0008 22.1588C39.3225 21.7564 39.5975 21.3185 39.8209 20.8559L39.8209 20.8559Z" fill="white"/>
<path d="M40.3224 16.3172C40.2061 15.816 40.033 15.3286 39.808 14.8667L38.5718 15.4689C38.7513 15.8381 38.8894 16.2279 38.9831 16.6288L40.3224 16.3172Z" fill="white"/>
<path d="M29.3451 23.255L30.2017 22.1798C29.88 21.9233 29.5863 21.6311 29.3291 21.3101L28.2559 22.1695C28.5778 22.5703 28.9437 22.9355 29.3451 23.255V23.255Z" fill="white"/>
<path d="M30.6234 11.687C30.1621 11.9111 29.7241 12.1882 29.3232 12.5099L30.1838 13.5822C30.5049 13.3244 30.8548 13.1031 31.224 12.9236L30.6234 11.687Z" fill="white"/>
<path d="M35.9938 12.9093L36.587 11.669C36.123 11.4468 35.6328 11.2771 35.131 11.165L34.8306 12.5069C35.232 12.5971 35.6234 12.7325 35.9938 12.9093H35.9938Z" fill="white"/>
<path d="M28.6719 20.2692C28.4923 19.8994 28.3548 19.5096 28.2634 19.1094L26.9233 19.416C27.0381 19.9172 27.21 20.4061 27.435 20.8692L28.6719 20.2692Z" fill="white"/>
<path d="M40.5 17.8547L40.2726 17.8525L39.125 17.8746C39.125 18.2878 39.079 18.6996 38.9888 19.0983L40.3294 19.4022C40.4429 18.9046 40.5 18.3902 40.5 17.8547V17.8547Z" fill="white"/>
<path d="M29.3162 14.456L28.2402 13.6006C27.9191 14.0036 27.6447 14.4428 27.4229 14.9056L28.6631 15.4995C28.8405 15.1296 29.0596 14.7782 29.3162 14.456L29.3162 14.456Z" fill="white"/>
<path d="M32.1037 24.5805L32.407 23.2393C32.0061 23.1494 31.6157 23.0125 31.245 22.8345L30.6489 24.0732C31.113 24.2967 31.6025 24.467 32.1038 24.5806L32.1037 24.5805Z" fill="white"/>
<path d="M30.875 15.812H36.375V17.187H30.875V15.812Z" fill="white"/>
<path d="M30.875 18.562H36.375V19.937H30.875V18.562Z" fill="white"/>
</svg>
