<svg width="816" height="464" viewBox="0 0 816 464" fill="none" xmlns="http://www.w3.org/2000/svg">
<mask id="mask0_1261_8044" style="mask-type:alpha" maskUnits="userSpaceOnUse" x="0" y="0" width="816" height="464">
<rect width="816" height="464" fill="#EFEFEF"/>
</mask>
<g mask="url(#mask0_1261_8044)">
<path fill-rule="evenodd" clip-rule="evenodd" d="M751.661 253.044C826.147 311.054 833.353 439.635 767.424 547.556C706.938 646.568 565.329 657.898 462.722 726.017C382.792 779.081 328.947 870.421 242.846 895.814C134.968 927.628 11.7824 939.199 -40.4936 874.421C-92.9389 809.432 -34.8029 693.968 -0.282462 594.536C32.4239 500.329 56.3156 393.252 149.61 326.85C240.548 262.124 334.839 298.558 432.357 286.604C543.506 272.978 681.226 198.189 751.661 253.044Z" fill="#8991DC"/>
</g>
<path fill-rule="evenodd" clip-rule="evenodd" d="M412.501 238.923H414.014C417.392 238.923 420.272 243.347 420.82 249.373L435.95 415.999H428.58" fill="#6C3D21"/>
<path fill-rule="evenodd" clip-rule="evenodd" d="M328.167 124.488C324.441 120.114 321.919 114.755 322.341 108.749C323.555 91.4455 347.642 95.2521 352.327 103.985C357.013 112.719 356.456 134.872 350.401 136.433C347.986 137.055 342.841 135.53 337.605 132.374L340.892 155.625H321.486L328.167 124.488Z" fill="#B28B67"/>
<path fill-rule="evenodd" clip-rule="evenodd" d="M338.575 110.66C339.318 121.007 341.283 126.181 344.47 126.181C349.251 126.181 353.307 123.146 355.405 123.146C356.934 123.146 356.593 125.06 355.579 126.479C354.743 127.649 350.67 128.777 350.67 130.592C350.67 132.407 353.888 131.003 353.888 132.079C353.888 133.86 354.453 137.207 351.363 137.207C348.236 137.207 339.27 136.067 337.734 131.426C336.742 128.431 336.101 122.224 335.81 112.805C335.62 112.783 335.427 112.771 335.231 112.771C332.552 112.771 330.38 114.943 330.38 117.623C330.38 118.983 330.94 120.212 331.842 121.093C330.719 122.678 329.461 124.333 328.019 126.041C322.604 122.792 318.585 113.28 323.88 104.143C325.343 99.6663 328.656 97.2754 332.569 96.1652C335.739 94.8394 339.029 94.6899 341.807 95.4847C347.252 95.9517 352.114 97.612 353.491 98.598C353.491 103.753 352.493 105.282 343.961 105.147C341.865 106.254 340.254 108.161 338.575 110.66Z" fill="#C6C6C6"/>
<path fill-rule="evenodd" clip-rule="evenodd" d="M315.018 222.736L344.332 325.607L365.72 401.429H381.32L358.592 222.736H315.018Z" fill="#191847"/>
<path fill-rule="evenodd" clip-rule="evenodd" d="M307.178 222.736C306.5 275.757 304.188 304.676 303.476 309.493C302.764 314.311 291.999 344.956 271.182 401.429H287.343C313.844 347.252 328.638 316.607 331.724 309.493C334.811 302.379 344.335 273.46 358.68 222.736H307.178Z" fill="#2F3676"/>
<path fill-rule="evenodd" clip-rule="evenodd" d="M269.738 415.983L270.547 399.003H287.527C295.578 404.663 306.089 409.245 319.061 412.749V415.983H288.335L277.824 414.366V415.983H269.738Z" fill="#191847"/>
<path fill-rule="evenodd" clip-rule="evenodd" d="M363.532 415.983L364.34 399.003H381.32C389.371 404.663 399.883 409.245 412.854 412.749V415.983H382.129L371.617 414.366V415.983H363.532Z" fill="#191847"/>
<path fill-rule="evenodd" clip-rule="evenodd" d="M383.227 209.484L407.635 230.176C414.481 232.547 420.148 235.298 424.634 238.428C425.669 239.513 426.863 241.647 422.301 240.974C417.739 240.3 412.91 239.797 412.168 241.317C411.426 242.837 414.07 244.902 412.644 246.924C411.692 248.271 407.91 244.461 401.296 235.493L376.556 223.146L383.227 209.484ZM272.703 200.53L287.024 202.61C271.652 235.962 263.41 253.601 262.3 255.526C259.802 259.858 262.74 267.402 263.888 271.395C258.084 273.071 259.938 264.104 252.599 266.34C245.9 268.382 240.372 273.01 233.738 267.507C232.922 266.83 232.235 264.618 234.828 263.328C241.287 260.117 250.77 254.24 252.244 252.074C254.254 249.12 261.074 231.939 272.703 200.53Z" fill="#B28B67"/>
<path fill-rule="evenodd" clip-rule="evenodd" d="M332.559 142.148L341.433 139.214C353.471 169.284 371.423 198.379 401.418 222.955L394.001 235.751C367.639 220.223 342.685 208.16 332.559 184.859C329.161 177.038 332.282 151.499 332.559 142.148Z" fill="#005EA2"/>
<path fill-rule="evenodd" clip-rule="evenodd" d="M302.081 226.779C327.5 229.474 347.509 229.474 362.105 226.779C363.914 226.445 364.199 223.417 363.36 221.362C350.3 189.362 341.345 161.44 341.345 139.213C338.948 140.421 334.754 140.603 328.763 139.757C312.662 162.662 305.26 188.943 302.081 226.779Z" fill="#465281"/>
<path fill-rule="evenodd" clip-rule="evenodd" d="M324.76 137.837H331.47C333.033 147.026 337.961 271.462 353.174 312.168H270.858C272.643 274.878 286.72 230.084 300.981 192.6C288.371 204.139 277.38 223.691 268.009 251.256L252.59 247.298C264.055 197.898 287.625 161.588 323.302 138.37C323.379 138.191 323.456 138.014 323.533 137.837H324.127C324.345 137.697 324.564 137.557 324.784 137.417L324.76 137.837Z" fill="#005EA2"/>
<path fill-rule="evenodd" clip-rule="evenodd" d="M464.073 115.54C460.045 111.84 457.041 107.069 456.742 101.346C455.882 84.8574 479.081 85.6595 484.521 93.3671C489.961 101.075 492.004 122.069 486.464 124.246C484.255 125.114 479.218 124.271 473.905 121.896L479.707 143.482L461.373 145.733L464.073 115.54Z" fill="#915B3C"/>
<path fill-rule="evenodd" clip-rule="evenodd" d="M472.903 85.1402C470.438 85.0407 463.898 85.5671 462.699 85.7146C461.932 85.8087 461.122 86.0859 460.582 85.4376C460.139 84.9068 460.156 83.915 459.963 83.2596C459.738 82.4982 459.461 81.7535 459.182 81.0109C458.388 78.8981 457.336 76.9242 455.983 75.116C453.443 71.7237 450.028 69.2416 445.955 68.0533C441.457 66.7414 436.571 66.9144 432.022 67.8512C427.153 68.8535 422.901 71.0234 418.445 73.1212C414.199 75.1202 409.636 76.2623 404.921 76.1196C400.17 75.9759 396.337 73.8814 392.11 71.9658C387.782 70.0047 382.984 68.9636 378.27 69.9172C373.87 70.8074 370 73.1446 366.628 76.0462C363.472 78.761 360.974 81.8677 359.85 85.9467C358.64 90.3344 359.205 94.9184 362.49 98.2614C367.253 103.107 375.045 103.555 381.37 102.639C385.028 102.109 388.548 100.997 391.861 99.3539C396.28 97.1624 399.933 93.9191 403.979 91.1548C405.878 89.8576 407.868 88.7393 409.989 87.8495C412.047 86.9857 414.113 86.4517 416.201 87.5025C418.41 88.6142 420.404 89.7278 422.845 90.2938C425.186 90.8369 427.616 91.0031 430.001 90.6915C434.642 90.0852 439.043 88.0757 443.435 86.5523C447.017 85.3102 450.857 84.0391 454.701 84.3384C456.305 84.4633 458.671 84.8372 459.436 86.3944C450.134 89.2869 447.842 101.512 451.585 109.82C453.605 114.305 462.976 118.686 466.058 115.82C468.011 114.004 466.459 112.125 465.452 110.883C463.523 108.504 462.565 105.261 465.329 103.101C467.713 101.237 470.87 104.58 470.921 104.569C471.622 104.427 477.311 100.219 480.903 94.6564C485.089 94.3925 485.383 91.5753 484.115 89.4565C482.848 87.3377 476.309 85.2782 472.903 85.1402Z" fill="#A9AEB1"/>
<path fill-rule="evenodd" clip-rule="evenodd" d="M467.65 208.659L495.843 305.81L509.103 378.752H522.413L509.127 208.659H467.65Z" fill="#784931"/>
<path fill-rule="evenodd" clip-rule="evenodd" d="M454.98 208.659C456.947 259.128 456.171 286.656 455.731 291.241C455.29 295.826 452.791 326.536 435.758 380.291H449.602C472.158 328.722 480.033 298.013 482.62 291.241C485.207 284.469 492.848 256.942 504.003 208.659H454.98Z" fill="#915B3C"/>
<path fill-rule="evenodd" clip-rule="evenodd" d="M467.045 208.659C474.378 242.089 487.062 295.451 505.096 368.746H524.562C526 293.516 519.884 244.002 509.291 208.659H467.045Z" fill="#69A1AC"/>
<path fill-rule="evenodd" clip-rule="evenodd" d="M454.882 208.659C456.808 259.128 451.815 308.85 436.349 369.532H457.119C479.717 318.733 495.914 269.257 506.984 208.659H454.882Z" fill="#71AEBA"/>
<path fill-rule="evenodd" clip-rule="evenodd" d="M433.785 390.297L434.549 377.982C439.021 379.29 444.622 378.777 451.353 376.443C458.59 381.569 467.701 385.07 478.685 386.944C479.523 387.087 480.086 387.883 479.943 388.721C479.934 388.775 479.922 388.829 479.907 388.882L478.851 392.606H451.353H435.313L433.785 390.297Z" fill="#191847"/>
<path fill-rule="evenodd" clip-rule="evenodd" d="M506.132 390.297L506.896 377.982C511.368 379.29 516.97 378.777 523.7 376.443C530.937 381.569 540.048 385.07 551.032 386.944C551.87 387.087 552.433 387.883 552.29 388.721C552.281 388.775 552.269 388.829 552.254 388.882L551.198 392.606H523.7H507.66L506.132 390.297Z" fill="#191847"/>
<path fill-rule="evenodd" clip-rule="evenodd" d="M531.209 191.187L558.517 204.678C565.386 205.291 571.253 206.527 576.117 208.384C577.323 209.148 578.917 210.845 574.549 211.273C570.18 211.702 565.604 212.349 565.269 213.924C564.933 215.499 567.852 216.797 566.999 218.992C566.431 220.456 562.06 217.808 553.886 211.048L528.194 205.341L531.209 191.187ZM438.487 208.168L454.337 205.438C450.124 238.734 447.798 256.416 447.36 258.486C446.372 263.142 451.251 269.107 453.465 272.384C448.704 275.609 447.744 266.945 441.758 271.129C436.294 274.948 432.651 280.763 425.026 277.733C424.089 277.36 422.816 275.559 424.784 273.63C429.687 268.822 436.543 260.713 437.241 258.318C438.192 255.053 438.607 238.336 438.487 208.168Z" fill="#915B3C"/>
<path fill-rule="evenodd" clip-rule="evenodd" d="M471.781 133.768L478.137 131.488C506.158 148.207 523.263 186.803 556.84 202.926L551.234 213.084C498.394 215.799 476.897 168.833 471.781 133.768Z" fill="#7B82C6"/>
<path fill-rule="evenodd" clip-rule="evenodd" d="M457.733 221.171C484.012 216.537 503.343 213.129 515.725 210.945C518.375 210.478 517.201 206.74 516.477 204.876C508.127 183.372 486.633 162.393 481.04 130.672L463.85 130.999C453.937 155.691 453.984 183.932 457.733 221.171Z" fill="#DDE3E9"/>
<path fill-rule="evenodd" clip-rule="evenodd" d="M446.82 156.555C444.267 156.285 442.056 154.995 440.186 152.686C432.127 142.732 433.264 136.269 439.446 133.12C445.628 129.971 452.18 133.057 462.59 131.221C463.157 131.121 463.681 131.065 464.165 131.053L469.454 130.429C493.457 178.699 503.591 211.942 499.856 230.156L454.212 238.204C452.619 244.987 450.967 250.749 449.255 255.49L436.818 257.683C428.974 220.042 432.308 186.333 446.82 156.555Z" fill="#8991DC"/>
<path fill-rule="evenodd" clip-rule="evenodd" d="M459.54 210.3C463.093 222.058 466.964 230.364 471.151 235.217L454.212 238.204C456.069 230.292 457.845 220.991 459.54 210.3L459.54 210.3Z" fill="black" fill-opacity="0.1"/>
<path fill-rule="evenodd" clip-rule="evenodd" d="M691.444 185.12L664.071 254.401L645.712 312.973H638.462L666.529 185.12L691.444 185.12Z" fill="#E8C5AD"/>
<path fill-rule="evenodd" clip-rule="evenodd" d="M696.969 185.389C697.26 209.735 701.511 242.513 702.19 244.03C702.643 245.042 718.273 257.908 749.081 282.628L744.088 287.972C707.738 266.777 688.722 254.767 687.04 251.94C684.516 247.699 676.302 208.68 669.707 185.389H696.969Z" fill="#E8C5AD"/>
<path fill-rule="evenodd" clip-rule="evenodd" d="M749.748 280.845C751.425 281.438 752.581 282 753.214 282.531C753.984 283.178 755.001 284.249 756.264 285.746C755.514 286.64 748.774 294.672 736.045 309.842C733.449 308.732 732.635 307.432 733.602 305.945C734.569 304.457 735.36 303.211 735.976 302.207L740.381 286.818C740.465 286.522 740.774 286.351 741.07 286.436C741.075 286.437 741.08 286.439 741.085 286.44L743.436 287.186C745.066 286.426 746.209 285.655 746.865 284.874C747.397 284.24 747.876 283.149 748.301 281.601L748.301 281.601C748.465 281.007 749.079 280.658 749.672 280.821C749.698 280.828 749.723 280.836 749.748 280.845Z" fill="#E4E4E4"/>
<path fill-rule="evenodd" clip-rule="evenodd" d="M648.694 310.538C649.317 312.204 649.629 313.45 649.629 314.277C649.629 315.282 649.462 316.75 649.127 318.679C647.96 318.679 637.475 318.679 617.672 318.679C616.854 315.977 617.326 314.518 619.087 314.303C620.848 314.087 622.311 313.893 623.476 313.719L638.096 307.201C638.378 307.076 638.707 307.202 638.833 307.484C638.835 307.488 638.837 307.493 638.839 307.498L639.779 309.778C641.409 310.538 642.734 310.919 643.753 310.919C644.581 310.919 645.725 310.584 647.184 309.915L647.184 309.915C647.744 309.659 648.406 309.905 648.663 310.465C648.674 310.489 648.684 310.513 648.694 310.538Z" fill="#E4E4E4"/>
<path fill-rule="evenodd" clip-rule="evenodd" d="M673.053 307.209L638.585 303.468L664.13 185.389H695.002L673.053 307.209Z" fill="#2B44FF"/>
<path fill-rule="evenodd" clip-rule="evenodd" d="M741.951 274.008L719.342 300.769C695.528 274.76 681.644 257.79 677.691 249.857C673.738 241.924 670.184 220.435 667.03 185.389H701.786C703.509 216.221 704.671 232.354 705.271 233.789C705.87 235.224 718.097 248.63 741.951 274.008Z" fill="#1F28CF"/>
<path fill-rule="evenodd" clip-rule="evenodd" d="M687.69 113.687C690.321 110.599 692.101 106.815 691.804 102.575C690.947 90.3568 673.939 93.0445 670.631 99.211C667.322 105.378 667.715 121.019 671.991 122.122C673.696 122.561 677.329 121.484 681.026 119.256L678.705 135.673H692.407L687.69 113.687Z" fill="#E8C5AD"/>
<path fill-rule="evenodd" clip-rule="evenodd" d="M688.743 116.438C690.463 108.787 695.362 103.571 694.614 100.152C694.115 97.8721 692.786 96.4544 690.625 95.8988C689.508 91.379 685.905 89.4566 679.815 90.1315C670.681 91.1439 665.107 94.9371 667.514 103.284C669.727 103.284 672.399 102.484 676.093 103.855C677.265 104.29 678.104 105.639 678.608 107.903H680.278C681.898 105.217 683.496 104.23 685.071 104.941C686.646 105.653 687.004 107.383 686.145 110.13L686.967 116.438H688.743Z" fill="#15A4A6"/>
<path fill-rule="evenodd" clip-rule="evenodd" d="M642.673 178.473L626.875 193.885C622.278 195.846 618.511 198.011 615.575 200.381C614.915 201.177 614.196 202.703 617.303 202.02C620.409 201.337 623.708 200.759 624.291 201.769C624.875 202.779 623.155 204.327 624.234 205.65C624.953 206.531 627.373 203.727 631.492 197.238L647.92 187.553L642.673 178.473ZM719.927 164.525L707.715 164.571C717.016 194.705 721.954 210.483 722.527 211.905C723.818 215.103 721.087 219.974 719.919 222.591C723.723 224.293 723.317 217.99 728.115 220.222C732.495 222.26 735.826 225.951 740.886 222.829C741.508 222.446 742.19 221 740.543 219.871C736.439 217.057 730.526 212.133 729.727 210.512C728.638 208.302 725.371 192.973 719.927 164.525Z" fill="#E8C5AD"/>
<path fill-rule="evenodd" clip-rule="evenodd" d="M682.714 129.882L677.892 129.055C670.295 155.909 631.262 174.214 628.866 184.253C627.987 187.934 630.637 189.795 629.268 190.917L635.537 195.505C636.598 194.267 638.863 196.532 643.594 194.948C648.324 193.363 682.714 161.68 682.714 129.882Z" fill="#191847"/>
<path fill-rule="evenodd" clip-rule="evenodd" d="M675.084 131.182C675.64 166.735 655.088 175.804 659.666 190.067C663.446 201.844 699.63 214.505 705.892 202.96C708.426 198.287 709.576 192.635 709.707 186.49C711.307 191.211 712.573 195.275 713.504 198.683C715.11 204.561 721.337 205.495 721.337 207.76L729.54 205.495C728.984 202.419 732.851 200.921 731.814 194.048C727.168 163.253 714.685 140.931 694.365 127.082L694.154 124.075C694.068 122.846 693.002 121.92 691.773 122.006L676.752 123.056C675.523 123.142 674.596 124.208 674.682 125.437L675.084 131.182Z" fill="#2F3676"/>
</svg>
