<svg width="756" height="354" viewBox="0 0 756 354" fill="none" xmlns="http://www.w3.org/2000/svg">
<mask id="mask0_1235_8278" style="mask-type:alpha" maskUnits="userSpaceOnUse" x="0" y="0" width="756" height="354">
<rect width="756" height="354" fill="#EFEFEF"/>
</mask>
<g mask="url(#mask0_1235_8278)">
<path fill-rule="evenodd" clip-rule="evenodd" d="M232.317 778.185C193.9 705.705 84.2789 697.635 46.5797 624.789C1.59087 537.858 -28.2943 430.98 6.54948 341.939C41.8624 251.699 133.139 189.338 226.521 164.962C313.039 142.378 397.871 216.457 487.924 216.282C590.742 216.082 714.155 85.4456 783.997 163.88C861.632 251.066 721.75 383.809 739.1 498.36C750.56 574.019 845.401 613.334 863.367 687.899C887.074 786.295 933.328 922.246 855.867 982.997C774.172 1047.07 651.715 913.575 549.31 934.203C448.569 954.497 390.288 1142.05 296.197 1095.74C197.357 1047.09 284.216 876.102 232.317 778.185Z" fill="#028017"/>
</g>
<path fill-rule="evenodd" clip-rule="evenodd" d="M598.285 29.9755C601.594 26.0922 603.833 21.3331 603.459 16.0003C602.38 0.63528 580.992 4.0154 576.831 11.7704C572.671 19.5253 573.165 39.1964 578.542 40.5825C580.687 41.1352 585.255 39.7812 589.904 36.9788L586.986 57.6248H604.217L598.285 29.9755Z" fill="#B28B67"/>
<mask id="mask1_1235_8278" style="mask-type:alpha" maskUnits="userSpaceOnUse" x="577" y="0" width="44" height="38">
<path d="M577.957 8.76318C578.107 7.82614 577.809 7.36624 581.576 4.72637C585.344 2.0865 591.427 -1.027 597.553 0.328012C605.504 2.0865 608.662 7.3312 611.728 9.88095C614.492 12.1796 617.266 12.4476 618.909 15.2998C620.553 18.152 621.427 26.3576 619.998 29.6199C618.027 34.1201 614.139 35.332 611.301 36.6286C606.434 38.8521 599.554 36.5037 599.388 36.1147C598.099 33.1056 591.16 24.617 586.986 21.0506C583.917 18.4281 577.248 13.1611 577.957 8.76318Z" fill="white"/>
</mask>
<g mask="url(#mask1_1235_8278)">
<path d="M577.957 8.76318C578.107 7.82614 577.809 7.36624 581.576 4.72637C585.344 2.0865 591.427 -1.027 597.553 0.328012C605.504 2.0865 608.662 7.3312 611.728 9.88095C614.492 12.1796 617.266 12.4476 618.909 15.2998C620.553 18.152 621.427 26.3576 619.998 29.6199C618.027 34.1201 614.139 35.332 611.301 36.6286C606.434 38.8521 599.554 36.5037 599.388 36.1147C598.099 33.1056 591.16 24.617 586.986 21.0506C583.917 18.4281 577.248 13.1611 577.957 8.76318Z" fill="#E41D3D"/>
<path fill-rule="evenodd" clip-rule="evenodd" d="M611.787 8.08423C610.494 16.2546 607.101 23.7271 601.608 30.5017C608.014 25.5318 612.234 18.5826 614.269 9.65409L611.787 8.08423ZM614.988 11.2018C612.868 19.9798 607.363 28.2743 598.473 36.0854C608.759 29.8765 615.221 21.8641 617.859 12.0482L614.988 11.2018Z" fill="black" fill-opacity="0.2"/>
</g>
<path fill-rule="evenodd" clip-rule="evenodd" d="M608.518 117.233L555.168 206.425L515.171 281.829H506.555L573.572 117.233L608.518 117.233Z" fill="#997659"/>
<path fill-rule="evenodd" clip-rule="evenodd" d="M520.438 278.349C521.241 280.493 521.643 282.097 521.643 283.162C521.643 284.456 521.427 286.346 520.996 288.83C519.494 288.83 505.995 288.83 480.5 288.83C479.448 285.351 480.055 283.473 482.323 283.195C484.59 282.918 486.473 282.667 487.973 282.444L506.795 274.053C507.157 273.891 507.581 274.054 507.743 274.416C507.746 274.422 507.748 274.429 507.751 274.435L508.961 277.37C511.06 278.349 512.765 278.839 514.077 278.839C515.144 278.839 516.616 278.408 518.495 277.547L518.495 277.547C519.216 277.216 520.068 277.533 520.398 278.254C520.413 278.285 520.426 278.317 520.438 278.349Z" fill="#E4E4E4"/>
<path fill-rule="evenodd" clip-rule="evenodd" d="M526.279 269.755L509.665 264.729C516.944 242.969 525.865 219.022 536.429 192.889C546.993 166.757 558.339 141.538 570.465 117.233H617.389C603.907 147.977 589.614 175.913 574.51 201.039C559.407 226.165 543.329 249.07 526.279 269.755Z" fill="#DB9701"/>
<path fill-rule="evenodd" clip-rule="evenodd" d="M612.024 117.233C617.059 148.576 626.771 188.62 627.687 189.855C628.298 190.679 650.295 198.05 693.677 211.968L691.816 219.565C640.083 212.101 612.824 206.31 610.039 202.192C605.862 196.015 585.005 147.218 576.927 117.233H612.024Z" fill="#B28B67"/>
<path fill-rule="evenodd" clip-rule="evenodd" d="M678.428 205.401L675.15 217.636C636.457 221.03 612.748 218.578 604.025 210.28C595.302 201.982 585.36 170.966 574.2 117.233H618.945C626.016 161.233 629.969 184.157 630.804 186.004C631.639 187.851 647.514 194.317 678.428 205.401Z" fill="#F0A500"/>
<path fill-rule="evenodd" clip-rule="evenodd" d="M691.553 208.803C693.804 208.384 695.454 208.268 696.502 208.452C697.777 208.677 699.6 209.218 701.971 210.074C701.711 211.553 699.367 224.846 694.939 249.954C691.331 250.386 689.586 249.462 689.707 247.181C689.827 244.9 689.908 243.001 689.948 241.486L684.953 221.493C684.857 221.108 685.091 220.718 685.476 220.622C685.482 220.621 685.489 220.619 685.495 220.618L688.596 219.936C689.925 218.039 690.703 216.444 690.931 215.152C691.116 214.102 690.948 212.577 690.426 210.578L690.426 210.578C690.226 209.81 690.685 209.026 691.453 208.826C691.486 208.817 691.519 208.809 691.553 208.803Z" fill="#E4E4E4"/>
<path fill-rule="evenodd" clip-rule="evenodd" d="M606.299 43.4784C606.131 42.9326 605.961 42.3853 605.788 41.8364L605.151 42.1364C605.051 42.0337 604.951 41.9337 604.85 41.8364L584.753 44.9438C584.753 56.2454 575.761 66.8195 570.073 75.9174C561.23 90.0602 545.495 105.736 555.584 126.747C564.674 145.679 588.352 148.753 626.619 135.97C626.619 125.773 618.238 115.522 617.971 103.123C617.716 91.3203 615.509 55.5588 606.299 43.4784Z" fill="#FFBE2E"/>
<path fill-rule="evenodd" clip-rule="evenodd" d="M581.335 121.379C579.991 114.443 579.119 109.813 578.719 107.488C568.013 119.586 561.828 125.706 560.164 125.846C557.034 126.11 554.722 123.335 554.064 124.115C552.975 127.346 556.049 135.433 561.924 136.609C564.73 137.171 569.071 131.385 570.86 129.335C571.564 128.529 575.055 125.877 581.335 121.379ZM562.841 84.3997C560.066 84.3997 558.575 85.5471 556.934 87.862C555.293 90.1769 553.74 101.095 556.375 101.095C559.009 101.095 570.048 96.8742 570.048 94.0368C570.048 91.1995 562.516 89.998 562.516 87.862C562.516 85.726 565.617 84.3997 562.841 84.3997Z" fill="#B28B67"/>
<path fill-rule="evenodd" clip-rule="evenodd" d="M586.938 131.934C587.103 132.524 587.271 133.125 587.442 133.738C618.887 111.761 618.902 85.1278 609.55 55.2759C616.599 84.6644 613.727 109.451 586.938 131.934Z" fill="black" fill-opacity="0.2"/>
<path fill-rule="evenodd" clip-rule="evenodd" d="M248.836 68.4594C244.97 64.0904 242.353 58.7361 242.791 52.7364C244.051 35.4498 269.046 39.2527 273.908 47.9775C278.77 56.7023 278.192 78.8335 271.908 80.3928C269.402 81.0147 264.064 79.4913 258.631 76.3385L262.041 99.5664H241.904L248.836 68.4594Z" fill="#B28B67"/>
<path fill-rule="evenodd" clip-rule="evenodd" d="M259.637 54.6457C260.408 64.9828 262.447 70.1514 265.754 70.1514C270.715 70.1514 274.925 67.1193 277.101 67.1193C278.688 67.1193 278.334 69.0311 277.282 70.4485C276.414 71.6179 272.188 72.7451 272.188 74.5581C272.188 76.3711 275.527 74.9685 275.527 76.0437C275.527 77.8223 276.114 81.1664 272.908 81.1664C269.663 81.1664 260.358 80.0279 258.764 75.3912C257.735 72.3989 257.07 66.1981 256.768 56.7889C256.571 56.7664 256.371 56.7548 256.168 56.7548C253.387 56.7548 251.133 58.9247 251.133 61.6014C251.133 62.9603 251.714 64.1885 252.65 65.0686C251.485 66.6515 250.18 68.305 248.684 70.0113C243.064 66.7652 238.894 57.2629 244.388 48.1346C245.907 43.6627 249.345 41.2741 253.405 40.1651C256.694 38.8405 260.109 38.6911 262.991 39.4852C268.641 39.9518 273.686 41.6104 275.116 42.5954C275.116 47.7451 274.079 49.273 265.227 49.1383C263.051 50.2443 261.379 52.1488 259.637 54.6457Z" fill="#191847"/>
<path fill-rule="evenodd" clip-rule="evenodd" d="M341.652 181.229C347.676 173.363 362.735 178.57 362.726 185.082C362.702 202.179 346.496 283.344 345.65 288.468C344.804 293.593 335.739 295.269 335.211 288.866C334.372 278.678 332.811 243.36 334.372 226.929C334.828 222.13 335.309 217.491 335.794 213.145C327.276 227.875 314.325 248.696 296.939 275.607L287.276 271.357C294.864 247.288 301.086 230.297 305.942 220.382C314.257 203.405 322.053 188.867 325.335 183.746C329.669 176.982 336.699 177.88 341.652 181.229Z" fill="#B28B67"/>
<path fill-rule="evenodd" clip-rule="evenodd" d="M287.967 257.99L321.132 182.353C329.078 170.048 351.354 184.856 348.644 191.993C342.493 208.195 311.209 260.647 309.376 265.474L287.967 257.99Z" fill="#1F28CF"/>
<path fill-rule="evenodd" clip-rule="evenodd" d="M363.565 190.987C363.565 212.426 353.804 262.822 353.797 267.543L330.151 266.775C334.284 222.959 336.028 200.903 335.38 200.606C333.924 199.938 275.686 208.366 258.219 209.002C233.032 209.92 222.613 195.044 221.767 166.814H270.555C312.274 171.608 339.693 174.943 352.812 176.817C361.237 178.021 363.565 185.081 363.565 190.987Z" fill="#2B44FF"/>
<path fill-rule="evenodd" clip-rule="evenodd" d="M311.306 253.807L316.682 255.072C323.825 256.754 328.121 263.767 326.278 270.737L324.61 277.046C322.766 284.016 315.482 288.302 308.339 286.62L302.963 285.355C295.82 283.673 291.524 276.66 293.367 269.69L295.036 263.381C296.879 256.411 304.163 252.125 311.306 253.807ZM305.673 260.048C303.888 259.627 302.067 260.699 301.606 262.441L298.699 273.432C298.238 275.174 299.312 276.928 301.098 277.348L313.972 280.379C315.758 280.8 317.579 279.728 318.04 277.986L320.946 266.995C321.407 265.253 320.333 263.499 318.547 263.079L305.673 260.048Z" fill="#C5CFD6"/>
<path fill-rule="evenodd" clip-rule="evenodd" d="M333.929 276.793C332.99 279.205 332.521 281.01 332.521 282.208C332.521 283.664 332.773 285.79 333.277 288.584C335.032 288.584 350.807 288.584 380.6 288.584C381.83 284.67 381.12 282.557 378.471 282.245C375.821 281.933 373.62 281.651 371.867 281.4L349.872 271.96C349.449 271.778 348.953 271.961 348.764 272.368C348.761 272.375 348.758 272.382 348.755 272.39L347.341 275.691C344.888 276.793 342.895 277.344 341.361 277.344C340.116 277.344 338.395 276.86 336.199 275.891L336.2 275.891C335.357 275.519 334.361 275.875 333.975 276.686C333.958 276.721 333.943 276.756 333.929 276.793Z" fill="#E4E4E4"/>
<path d="M374.892 288.584H336.296C334.675 288.584 333.36 289.85 333.36 291.412C333.36 292.973 334.675 294.239 336.296 294.239H374.892C376.514 294.239 377.829 292.973 377.829 291.412C377.829 289.85 376.514 288.584 374.892 288.584Z" fill="#2F3676"/>
<path fill-rule="evenodd" clip-rule="evenodd" d="M219.251 171.458H309.028C313.662 171.458 317.418 175.075 317.418 179.536V219.116H214.217C212.363 219.116 210.86 217.67 210.86 215.885V179.536C210.86 175.075 214.617 171.458 219.251 171.458Z" fill="#2F3676"/>
<path fill-rule="evenodd" clip-rule="evenodd" d="M309.027 171.458H310.868C314.977 171.458 318.482 174.323 319.147 178.227L337.555 286.161H328.589" fill="#2F3676"/>
<path d="M333.359 302.316C341.7 302.316 348.462 295.807 348.462 287.777C348.462 279.747 341.7 273.237 333.359 273.237C325.018 273.237 318.257 279.747 318.257 287.777C318.257 295.807 325.018 302.316 333.359 302.316Z" fill="#191847"/>
<path fill-rule="evenodd" clip-rule="evenodd" d="M221.767 300.701C186.549 300.701 158 273.216 158 239.311C158 205.406 186.549 177.92 221.767 177.92C256.984 177.92 285.534 205.406 285.534 239.311C285.534 273.216 256.984 300.701 221.767 300.701ZM221.767 289.392C250.497 289.392 273.787 266.97 273.787 239.311C273.787 211.651 250.497 189.229 221.767 189.229C193.037 189.229 169.747 211.651 169.747 239.311C169.747 266.97 193.037 289.392 221.767 289.392Z" fill="#191847"/>
<path d="M225.124 185.998H218.411V292.623H225.124V185.998Z" fill="#191847"/>
<path d="M262.111 202.755L259.738 200.47C259.083 199.84 258.02 199.84 257.365 200.47L181.424 273.581C180.768 274.212 180.768 275.235 181.424 275.866L183.797 278.151C184.452 278.782 185.515 278.782 186.17 278.151L262.111 205.04C262.766 204.409 262.766 203.386 262.111 202.755Z" fill="#191847"/>
<path d="M277.144 240.926V237.695C277.144 236.803 276.392 236.079 275.466 236.079H168.069C167.142 236.079 166.391 236.803 166.391 237.695V240.926C166.391 241.818 167.142 242.541 168.069 242.541H275.466C276.392 242.541 277.144 241.818 277.144 240.926Z" fill="#191847"/>
<path d="M259.737 278.15L262.111 275.866C262.766 275.235 262.766 274.212 262.111 273.581L186.169 200.47C185.514 199.839 184.452 199.839 183.796 200.47L181.423 202.755C180.768 203.386 180.768 204.409 181.423 205.04L257.364 278.15C258.02 278.781 259.082 278.781 259.737 278.15Z" fill="#191847"/>
<path fill-rule="evenodd" clip-rule="evenodd" d="M306.327 156.281L333.091 175.202C340.35 177.088 346.414 179.434 351.285 182.24C352.435 183.25 353.825 185.293 349.054 184.94C344.283 184.587 339.248 184.422 338.59 185.989C337.931 187.555 340.819 189.429 339.488 191.543C338.601 192.952 334.409 189.418 326.914 180.942L300.41 170.361L306.327 156.281ZM203.567 156.934L221.101 157C210.275 190.647 204.43 208.5 203.567 210.558C201.626 215.19 205.734 222.245 207.491 226.036C201.769 228.501 202.378 219.372 195.16 222.605C188.571 225.556 183.559 230.903 175.947 226.381C175.011 225.826 173.985 223.732 176.463 222.096C182.637 218.021 191.533 210.889 192.735 208.541C194.374 205.339 197.985 188.137 203.567 156.934Z" fill="#B28B67"/>
<path fill-rule="evenodd" clip-rule="evenodd" d="M253.395 86.1025L260.65 84.9045C287.569 107.292 298.626 150.301 331.622 173.085L323.68 182.563C266.438 175.739 252.25 123.278 253.395 86.1025Z" fill="#E87613"/>
<path fill-rule="evenodd" clip-rule="evenodd" d="M221.767 173.881C250.858 173.881 272.257 173.881 285.963 173.881C288.897 173.881 288.344 169.803 287.92 167.746C283.026 143.997 263.922 118.397 263.922 84.5911L245.405 81.7957C230.088 105.51 224.792 134.708 221.767 173.881Z" fill="#DDE3E9"/>
<path fill-rule="evenodd" clip-rule="evenodd" d="M222.284 105.106C219.594 104.362 217.465 102.626 215.895 99.8987C209.126 88.1415 211.571 81.6684 218.804 79.5406C226.037 77.4128 232.487 81.7957 244.011 81.7957C244.638 81.7957 245.212 81.8335 245.733 81.9091L251.53 82.2276C268.162 136.494 272.749 172.699 265.291 190.844H214.763C211.77 197.565 208.905 203.219 206.169 207.807H192.401C191.106 167.473 201.066 133.24 222.284 105.106Z" fill="#FF9B21"/>
<path fill-rule="evenodd" clip-rule="evenodd" d="M225.766 162.974C227.355 175.775 229.937 185.065 233.514 190.844H214.763C218.255 183.005 221.923 173.715 225.766 162.974V162.974Z" fill="black" fill-opacity="0.1"/>
</svg>
