<svg width="812" height="464" viewBox="0 0 812 464" fill="none" xmlns="http://www.w3.org/2000/svg">
<mask id="mask0_1259_7981" style="mask-type:alpha" maskUnits="userSpaceOnUse" x="0" y="0" width="812" height="464">
<rect width="812" height="464" fill="#EFEFEF"/>
</mask>
<g mask="url(#mask0_1259_7981)">
<path fill-rule="evenodd" clip-rule="evenodd" d="M234.317 889.268C195.9 816.789 86.2789 808.718 48.5797 735.872C3.59087 648.941 -26.2943 542.063 8.54948 453.022C43.8624 362.782 135.139 300.421 228.521 276.045C315.039 253.461 399.871 327.54 489.924 327.365C592.742 327.166 716.155 196.529 785.997 274.963C863.632 362.149 723.75 494.892 741.1 609.443C752.56 685.102 847.401 724.417 865.367 798.982C889.074 897.378 935.328 1033.33 857.867 1094.08C776.172 1158.15 653.715 1024.66 551.31 1045.29C450.569 1065.58 392.288 1253.13 298.197 1206.82C199.357 1158.17 286.216 987.186 234.317 889.268Z" fill="#028017"/>
</g>
<path fill-rule="evenodd" clip-rule="evenodd" d="M620.285 139.976C623.594 136.092 625.833 131.333 625.459 126C624.38 110.635 602.992 114.015 598.831 121.77C594.671 129.525 595.165 149.196 600.542 150.582C602.687 151.135 607.255 149.781 611.904 146.979L608.986 167.625H626.217L620.285 139.976Z" fill="#B28B67"/>
<mask id="mask1_1259_7981" style="mask-type:alpha" maskUnits="userSpaceOnUse" x="599" y="110" width="44" height="38">
<path d="M599.957 118.763C600.108 117.826 599.809 117.366 603.576 114.726C607.344 112.087 613.427 108.973 619.553 110.328C627.504 112.087 630.662 117.331 633.729 119.881C636.492 122.18 639.266 122.448 640.909 125.3C642.553 128.152 643.427 136.358 641.998 139.62C640.027 144.12 636.139 145.332 633.301 146.629C628.434 148.852 621.555 146.504 621.388 146.115C620.099 143.106 613.16 134.617 608.986 131.051C605.917 128.428 599.248 123.161 599.957 118.763Z" fill="white"/>
</mask>
<g mask="url(#mask1_1259_7981)">
<path d="M599.957 118.763C600.108 117.826 599.809 117.366 603.576 114.726C607.344 112.087 613.427 108.973 619.553 110.328C627.504 112.087 630.662 117.331 633.729 119.881C636.492 122.18 639.266 122.448 640.909 125.3C642.553 128.152 643.427 136.358 641.998 139.62C640.027 144.12 636.139 145.332 633.301 146.629C628.434 148.852 621.555 146.504 621.388 146.115C620.099 143.106 613.16 134.617 608.986 131.051C605.917 128.428 599.248 123.161 599.957 118.763Z" fill="#E41D3D"/>
<path fill-rule="evenodd" clip-rule="evenodd" d="M633.787 118.084C632.495 126.255 629.102 133.727 623.608 140.502C630.014 135.532 634.234 128.583 636.269 119.654L633.787 118.084ZM636.988 121.202C634.868 129.98 629.363 138.274 620.473 146.085C630.76 139.876 637.222 131.864 639.859 122.048L636.988 121.202Z" fill="black" fill-opacity="0.2"/>
</g>
<path fill-rule="evenodd" clip-rule="evenodd" d="M630.518 227.233L577.168 316.425L537.17 391.829H528.555L595.572 227.233L630.518 227.233Z" fill="#997659"/>
<path fill-rule="evenodd" clip-rule="evenodd" d="M542.438 388.349C543.241 390.493 543.643 392.097 543.643 393.162C543.643 394.456 543.427 396.346 542.996 398.83C541.494 398.83 527.995 398.83 502.5 398.83C501.448 395.351 502.055 393.473 504.323 393.195C506.59 392.918 508.473 392.667 509.973 392.444L528.795 384.053C529.157 383.891 529.581 384.054 529.743 384.416C529.746 384.422 529.748 384.429 529.751 384.435L530.961 387.37C533.06 388.349 534.765 388.839 536.077 388.839C537.144 388.839 538.616 388.408 540.495 387.547L540.495 387.547C541.216 387.216 542.068 387.533 542.398 388.254C542.413 388.285 542.426 388.317 542.438 388.349Z" fill="#E4E4E4"/>
<path fill-rule="evenodd" clip-rule="evenodd" d="M548.279 379.755L531.665 374.729C538.944 352.969 547.865 329.022 558.429 302.889C568.993 276.757 580.339 251.538 592.465 227.233H639.389C625.907 257.977 611.614 285.913 596.51 311.039C581.407 336.165 565.329 359.07 548.279 379.755Z" fill="#DB9701"/>
<path fill-rule="evenodd" clip-rule="evenodd" d="M634.024 227.233C639.059 258.576 648.771 298.62 649.687 299.855C650.298 300.679 672.295 308.05 715.677 321.968L713.816 329.565C662.083 322.101 634.824 316.31 632.039 312.192C627.862 306.015 607.005 257.218 598.927 227.233H634.024Z" fill="#B28B67"/>
<path fill-rule="evenodd" clip-rule="evenodd" d="M700.428 315.401L697.15 327.636C658.457 331.03 634.748 328.578 626.025 320.28C617.302 311.982 607.36 280.966 596.199 227.233H640.944C648.015 271.233 651.969 294.157 652.804 296.004C653.639 297.851 669.514 304.317 700.428 315.401Z" fill="#F0A500"/>
<path fill-rule="evenodd" clip-rule="evenodd" d="M713.553 318.803C715.804 318.384 717.454 318.268 718.502 318.452C719.777 318.677 721.6 319.218 723.971 320.074C723.711 321.553 721.367 334.846 716.94 359.954C713.331 360.386 711.587 359.462 711.707 357.181C711.828 354.9 711.908 353.001 711.948 351.486L706.953 331.493C706.857 331.108 707.091 330.718 707.476 330.622C707.482 330.621 707.489 330.619 707.496 330.618L710.596 329.936C711.925 328.039 712.703 326.444 712.931 325.152C713.116 324.102 712.948 322.577 712.426 320.578L712.426 320.578C712.226 319.81 712.685 319.026 713.453 318.826C713.486 318.817 713.519 318.809 713.553 318.803Z" fill="#E4E4E4"/>
<path fill-rule="evenodd" clip-rule="evenodd" d="M628.299 153.478C628.131 152.933 627.961 152.385 627.788 151.836L627.151 152.136C627.051 152.034 626.951 151.934 626.85 151.836L606.754 154.944C606.754 166.245 597.761 176.819 592.073 185.917C583.23 200.06 567.495 215.736 577.584 236.747C586.674 255.679 610.353 258.753 648.619 245.97C648.619 235.773 640.238 225.522 639.971 213.123C639.716 201.32 637.509 165.559 628.299 153.478Z" fill="#FFBE2E"/>
<path fill-rule="evenodd" clip-rule="evenodd" d="M603.335 231.379C601.991 224.443 601.119 219.813 600.72 217.488C590.013 229.586 583.828 235.706 582.164 235.846C579.035 236.11 576.722 233.335 576.064 234.115C574.976 237.346 578.049 245.433 583.924 246.609C586.73 247.171 591.071 241.385 592.86 239.335C593.564 238.529 597.055 235.877 603.335 231.379ZM584.841 194.4C582.066 194.4 580.575 195.547 578.934 197.862C577.293 200.177 575.74 211.095 578.375 211.095C581.01 211.095 592.048 206.874 592.048 204.037C592.048 201.2 584.516 199.998 584.516 197.862C584.516 195.726 587.617 194.4 584.841 194.4Z" fill="#B28B67"/>
<path fill-rule="evenodd" clip-rule="evenodd" d="M608.938 241.934C609.103 242.524 609.271 243.125 609.442 243.738C640.887 221.761 640.902 195.128 631.55 165.276C638.599 194.664 635.727 219.451 608.938 241.934Z" fill="black" fill-opacity="0.2"/>
<path fill-rule="evenodd" clip-rule="evenodd" d="M270.837 178.459C266.97 174.09 264.354 168.736 264.791 162.736C266.051 145.45 291.046 149.253 295.908 157.977C300.77 166.702 300.192 188.833 293.908 190.393C291.402 191.015 286.064 189.491 280.631 186.339L284.041 209.566H263.904L270.837 178.459Z" fill="#B28B67"/>
<path fill-rule="evenodd" clip-rule="evenodd" d="M281.637 164.646C282.408 174.983 284.447 180.151 287.754 180.151C292.715 180.151 296.925 177.119 299.101 177.119C300.688 177.119 300.334 179.031 299.282 180.449C298.414 181.618 294.188 182.745 294.188 184.558C294.188 186.371 297.527 184.968 297.527 186.044C297.527 187.822 298.114 191.166 294.908 191.166C291.663 191.166 282.358 190.028 280.764 185.391C279.735 182.399 279.07 176.198 278.768 166.789C278.571 166.766 278.371 166.755 278.168 166.755C275.387 166.755 273.133 168.925 273.133 171.601C273.133 172.96 273.714 174.189 274.65 175.069C273.485 176.651 272.18 178.305 270.684 180.011C265.064 176.765 260.894 167.263 266.388 158.135C267.907 153.663 271.345 151.274 275.405 150.165C278.694 148.84 282.109 148.691 284.991 149.485C290.641 149.952 295.686 151.61 297.116 152.595C297.116 157.745 296.079 159.273 287.227 159.138C285.051 160.244 283.379 162.149 281.637 164.646Z" fill="#191847"/>
<path fill-rule="evenodd" clip-rule="evenodd" d="M363.652 291.229C369.676 283.363 384.735 288.57 384.726 295.082C384.702 312.179 368.496 393.344 367.65 398.468C366.804 403.593 357.739 405.269 357.211 398.866C356.372 388.678 354.811 353.36 356.372 336.929C356.828 332.13 357.309 327.491 357.794 323.145C349.276 337.875 336.325 358.696 318.939 385.607L309.276 381.357C316.864 357.288 323.086 340.297 327.942 330.382C336.257 313.405 344.053 298.867 347.335 293.746C351.669 286.982 358.699 287.88 363.652 291.229Z" fill="#B28B67"/>
<path fill-rule="evenodd" clip-rule="evenodd" d="M309.967 367.99L343.132 292.353C351.078 280.048 373.354 294.856 370.644 301.993C364.493 318.195 333.209 370.647 331.376 375.474L309.967 367.99Z" fill="#1F28CF"/>
<path fill-rule="evenodd" clip-rule="evenodd" d="M385.565 300.987C385.565 322.426 375.804 372.822 375.797 377.543L352.151 376.775C356.284 332.959 358.028 310.903 357.38 310.606C355.924 309.938 297.686 318.366 280.219 319.002C255.032 319.92 244.613 305.044 243.767 276.814H292.555C334.274 281.608 361.693 284.943 374.812 286.817C383.237 288.021 385.565 295.081 385.565 300.987Z" fill="#2B44FF"/>
<path fill-rule="evenodd" clip-rule="evenodd" d="M333.306 363.807L338.682 365.072C345.825 366.754 350.121 373.767 348.278 380.737L346.61 387.046C344.767 394.016 337.482 398.302 330.339 396.62L324.963 395.355C317.82 393.673 313.524 386.66 315.367 379.69L317.036 373.381C318.879 366.411 326.164 362.125 333.306 363.807ZM327.673 370.048C325.888 369.627 324.067 370.699 323.606 372.441L320.699 383.432C320.238 385.174 321.312 386.928 323.098 387.348L335.972 390.379C337.758 390.8 339.579 389.728 340.04 387.986L342.946 376.995C343.407 375.253 342.333 373.499 340.547 373.079L327.673 370.048Z" fill="#C5CFD6"/>
<path fill-rule="evenodd" clip-rule="evenodd" d="M355.929 386.793C354.99 389.205 354.521 391.01 354.521 392.208C354.521 393.664 354.773 395.79 355.277 398.584C357.032 398.584 372.807 398.584 402.6 398.584C403.83 394.67 403.12 392.557 400.471 392.245C397.821 391.933 395.62 391.651 393.868 391.4L371.872 381.96C371.449 381.778 370.953 381.961 370.764 382.368C370.761 382.375 370.758 382.382 370.755 382.39L369.341 385.691C366.888 386.793 364.895 387.344 363.362 387.344C362.116 387.344 360.395 386.86 358.2 385.891L358.2 385.891C357.357 385.519 356.361 385.875 355.975 386.686C355.958 386.721 355.943 386.756 355.929 386.793Z" fill="#E4E4E4"/>
<path d="M396.892 398.584H358.296C356.675 398.584 355.36 399.85 355.36 401.412C355.36 402.973 356.675 404.239 358.296 404.239H396.892C398.514 404.239 399.829 402.973 399.829 401.412C399.829 399.85 398.514 398.584 396.892 398.584Z" fill="#2F3676"/>
<path fill-rule="evenodd" clip-rule="evenodd" d="M241.251 281.458H331.028C335.662 281.458 339.418 285.075 339.418 289.536V329.116H236.216C234.363 329.116 232.86 327.67 232.86 325.885V289.536C232.86 285.075 236.617 281.458 241.251 281.458Z" fill="#2F3676"/>
<path fill-rule="evenodd" clip-rule="evenodd" d="M331.027 281.458H332.868C336.977 281.458 340.482 284.323 341.147 288.227L359.555 396.161H350.589" fill="#2F3676"/>
<path d="M355.359 412.316C363.7 412.316 370.462 405.807 370.462 397.777C370.462 389.747 363.7 383.237 355.359 383.237C347.018 383.237 340.257 389.747 340.257 397.777C340.257 405.807 347.018 412.316 355.359 412.316Z" fill="#191847"/>
<path fill-rule="evenodd" clip-rule="evenodd" d="M243.767 410.701C208.549 410.701 180 383.216 180 349.311C180 315.406 208.549 287.92 243.767 287.92C278.984 287.92 307.534 315.406 307.534 349.311C307.534 383.216 278.984 410.701 243.767 410.701ZM243.767 399.392C272.497 399.392 295.787 376.97 295.787 349.311C295.787 321.651 272.497 299.229 243.767 299.229C215.037 299.229 191.747 321.651 191.747 349.311C191.747 376.97 215.037 399.392 243.767 399.392Z" fill="#191847"/>
<path d="M247.124 295.998H240.411V402.623H247.124V295.998Z" fill="#191847"/>
<path d="M284.111 312.755L281.738 310.47C281.083 309.84 280.02 309.84 279.365 310.47L203.424 383.581C202.768 384.212 202.768 385.235 203.424 385.866L205.797 388.151C206.452 388.782 207.515 388.782 208.17 388.151L284.111 315.04C284.766 314.409 284.766 313.386 284.111 312.755Z" fill="#191847"/>
<path d="M299.144 350.926V347.695C299.144 346.803 298.393 346.079 297.466 346.079H190.069C189.142 346.079 188.391 346.803 188.391 347.695V350.926C188.391 351.818 189.142 352.541 190.069 352.541H297.466C298.393 352.541 299.144 351.818 299.144 350.926Z" fill="#191847"/>
<path d="M281.737 388.15L284.111 385.866C284.766 385.235 284.766 384.212 284.111 383.581L208.169 310.47C207.514 309.839 206.452 309.839 205.796 310.47L203.423 312.755C202.768 313.386 202.768 314.409 203.423 315.04L279.364 388.15C280.02 388.781 281.082 388.781 281.737 388.15Z" fill="#191847"/>
<path fill-rule="evenodd" clip-rule="evenodd" d="M328.327 266.281L355.091 285.202C362.35 287.088 368.414 289.434 373.285 292.24C374.435 293.25 375.825 295.293 371.054 294.94C366.283 294.587 361.248 294.422 360.59 295.989C359.931 297.555 362.819 299.429 361.488 301.543C360.601 302.952 356.409 299.418 348.914 290.942L322.41 280.361L328.327 266.281ZM225.567 266.934L243.101 267C232.275 300.647 226.43 318.5 225.567 320.558C223.626 325.19 227.734 332.245 229.491 336.036C223.769 338.501 224.378 329.372 217.16 332.605C210.571 335.556 205.559 340.903 197.947 336.381C197.011 335.826 195.985 333.732 198.463 332.096C204.637 328.021 213.533 320.889 214.735 318.541C216.374 315.339 219.985 298.137 225.567 266.934Z" fill="#B28B67"/>
<path fill-rule="evenodd" clip-rule="evenodd" d="M275.395 196.103L282.65 194.904C309.57 217.292 320.626 260.301 353.622 283.085L345.681 292.563C288.438 285.739 274.25 233.278 275.395 196.103Z" fill="#E87613"/>
<path fill-rule="evenodd" clip-rule="evenodd" d="M243.767 283.881C272.858 283.881 294.257 283.881 307.963 283.881C310.897 283.881 310.344 279.803 309.92 277.746C305.026 253.997 285.922 228.397 285.922 194.591L267.405 191.796C252.088 215.51 246.792 244.708 243.767 283.881Z" fill="#DDE3E9"/>
<path fill-rule="evenodd" clip-rule="evenodd" d="M244.284 215.106C241.594 214.362 239.465 212.626 237.895 209.899C231.127 198.142 233.571 191.668 240.804 189.541C248.037 187.413 254.487 191.796 266.011 191.796C266.638 191.796 267.212 191.833 267.733 191.909L273.53 192.228C290.162 246.494 294.749 282.699 287.291 300.844H236.763C233.77 307.565 230.905 313.219 228.169 317.807H214.402C213.106 277.473 223.067 243.24 244.284 215.106Z" fill="#FF9B21"/>
<path fill-rule="evenodd" clip-rule="evenodd" d="M247.766 272.974C249.355 285.775 251.938 295.065 255.514 300.844H236.763C240.255 293.005 243.923 283.715 247.766 272.974V272.974Z" fill="black" fill-opacity="0.1"/>
</svg>
