<svg width="837" height="366" viewBox="0 0 837 366" fill="none" xmlns="http://www.w3.org/2000/svg">
<mask id="mask0_1233_8165" style="mask-type:alpha" maskUnits="userSpaceOnUse" x="0" y="0" width="837" height="366">
<rect width="837" height="366" fill="#387FB3"/>
</mask>
<g mask="url(#mask0_1233_8165)">
<path fill-rule="evenodd" clip-rule="evenodd" d="M18.5003 197C52.3737 139.396 291.539 231.692 389.628 221.333C471.264 212.712 522.991 161.312 616.005 184.788C716.807 210.229 819.749 273.534 858.307 339.622C894.035 400.859 816.676 435.171 790.757 484.308C768.704 526.115 773.398 578.145 719.931 601.95C649.713 633.213 560.589 667.145 457.647 632.618C354.031 597.864 147.887 538.122 87 471.5C22.7287 401.175 -15.1094 254.155 18.5003 197Z" fill="#387FB3"/>
</g>
<path fill-rule="evenodd" clip-rule="evenodd" d="M680.573 48.493C683.497 45.8075 685.677 42.3443 685.894 38.1903C686.518 26.2215 669.679 26.8038 665.731 32.3985C661.782 37.9932 660.298 53.2323 664.32 54.8126C665.923 55.4428 669.58 54.8303 673.436 53.1069L669.225 68.7752L682.533 70.4093L680.573 48.493Z" fill="#915B3C"/>
<path fill-rule="evenodd" clip-rule="evenodd" d="M674.163 26.4269C675.953 26.3547 680.7 26.7368 681.571 26.8438C682.127 26.9122 682.715 27.1134 683.107 26.6428C683.428 26.2575 683.416 25.5376 683.557 25.0618C683.719 24.5091 683.921 23.9686 684.123 23.4296C684.7 21.896 685.463 20.4632 686.445 19.1507C688.289 16.6883 690.768 14.8866 693.724 14.0241C696.989 13.0718 700.536 13.1974 703.838 13.8773C707.372 14.6049 710.459 16.18 713.693 17.7027C716.775 19.1537 720.087 19.9827 723.51 19.8791C726.958 19.7748 729.74 18.2545 732.809 16.864C735.95 15.4405 739.433 14.6848 742.854 15.377C746.049 16.0232 748.857 17.7197 751.306 19.8259C753.596 21.7965 755.409 24.0515 756.225 27.0123C757.103 30.1973 756.694 33.5246 754.309 35.9512C750.852 39.4686 745.196 39.7935 740.605 39.1285C737.949 38.744 735.394 37.9369 732.989 36.7442C729.782 35.1535 727.13 32.7993 724.193 30.7927C722.815 29.8511 721.37 29.0394 719.831 28.3935C718.337 27.7665 716.838 27.3789 715.322 28.1417C713.718 28.9486 712.271 29.7569 710.499 30.1678C708.8 30.562 707.036 30.6826 705.305 30.4564C701.936 30.0164 698.742 28.5577 695.553 27.4519C692.953 26.5503 690.166 25.6277 687.376 25.8449C686.212 25.9356 684.494 26.207 683.939 27.3373C690.691 29.4369 692.355 38.3107 689.638 44.3414C688.171 47.5965 681.369 50.7768 679.132 48.6962C677.715 47.3781 678.841 46.0145 679.572 45.1127C680.972 43.3859 681.668 41.0323 679.662 39.464C677.931 38.1114 675.639 40.5375 675.602 40.53C675.093 40.4265 670.964 37.372 668.356 33.3344C665.318 33.1429 665.105 31.098 666.025 29.56C666.945 28.022 671.691 26.5271 674.163 26.4269Z" fill="#A9AEB1"/>
<path fill-rule="evenodd" clip-rule="evenodd" d="M677.976 116.085L657.512 186.604L647.887 239.551H638.225L647.869 116.085H677.976Z" fill="#784931"/>
<path fill-rule="evenodd" clip-rule="evenodd" d="M687.173 116.085C685.745 152.72 686.309 172.701 686.628 176.029C686.948 179.357 688.762 201.649 701.125 240.668H691.077C674.704 203.236 668.988 180.944 667.11 176.029C665.232 171.114 659.686 151.133 651.589 116.085H687.173Z" fill="#915B3C"/>
<path fill-rule="evenodd" clip-rule="evenodd" d="M678.416 116.085C673.093 140.351 663.886 179.085 650.796 232.288H636.665C635.622 177.68 640.061 141.74 647.75 116.085H678.416Z" fill="#69A1AC"/>
<path fill-rule="evenodd" clip-rule="evenodd" d="M687.244 116.085C685.846 152.72 689.47 188.811 700.697 232.858H685.62C669.217 195.985 657.46 160.071 649.425 116.085H687.244Z" fill="#71AEBA"/>
<path fill-rule="evenodd" clip-rule="evenodd" d="M702.558 247.931L702.003 238.992C698.757 239.941 694.691 239.569 689.806 237.875C684.553 241.596 677.94 244.137 669.967 245.497C669.358 245.601 668.949 246.178 669.053 246.787C669.06 246.826 669.069 246.865 669.08 246.903L669.846 249.607H689.806H701.449L702.558 247.931Z" fill="#191847"/>
<path fill-rule="evenodd" clip-rule="evenodd" d="M650.043 247.931L649.489 238.992C646.242 239.941 642.177 239.569 637.291 237.875C632.038 241.596 625.425 244.137 617.452 245.497C616.844 245.601 616.435 246.178 616.539 246.787C616.545 246.826 616.554 246.865 616.565 246.903L617.331 249.607H637.291H648.934L650.043 247.931Z" fill="#191847"/>
<path fill-rule="evenodd" clip-rule="evenodd" d="M631.841 103.403L612.019 113.196C607.033 113.641 602.774 114.538 599.244 115.886C598.368 116.441 597.211 117.672 600.382 117.983C603.553 118.294 606.874 118.764 607.118 119.907C607.361 121.05 605.243 121.993 605.862 123.586C606.274 124.649 609.447 122.726 615.38 117.82L634.03 113.677L631.841 103.403ZM699.145 115.729L687.639 113.747C690.698 137.916 692.386 150.751 692.705 152.253C693.421 155.633 689.88 159.963 688.273 162.342C691.729 164.682 692.425 158.394 696.77 161.431C700.736 164.202 703.381 168.424 708.915 166.224C709.596 165.954 710.52 164.646 709.091 163.246C705.533 159.756 700.556 153.87 700.05 152.132C699.359 149.762 699.058 137.627 699.145 115.729Z" fill="#915B3C"/>
<path fill-rule="evenodd" clip-rule="evenodd" d="M674.978 61.7239L670.364 60.069C650.024 72.205 637.609 100.221 613.236 111.924L617.305 119.297C655.66 121.268 671.264 87.177 674.978 61.7239Z" fill="#7B82C6"/>
<path fill-rule="evenodd" clip-rule="evenodd" d="M685.175 125.168C666.099 121.804 652.068 119.33 643.08 117.745C641.157 117.406 642.009 114.692 642.534 113.34C648.595 97.7302 664.197 82.5027 668.257 59.4773L680.735 59.7143C687.93 77.6375 687.896 98.1367 685.175 125.168Z" fill="#DDE3E9"/>
<path fill-rule="evenodd" clip-rule="evenodd" d="M693.096 78.2646C694.949 78.0686 696.554 77.1326 697.911 75.4564C703.761 68.2311 702.936 63.5395 698.449 61.254C693.961 58.9684 689.205 61.2078 681.649 59.8754C681.238 59.803 680.857 59.7623 680.506 59.7536L676.667 59.3003C659.243 94.3385 651.887 118.468 654.599 131.689L687.731 137.531C688.887 142.455 690.086 146.637 691.329 150.079L700.357 151.67C706.05 124.348 703.63 99.8796 693.096 78.2646Z" fill="#8991DC"/>
<path fill-rule="evenodd" clip-rule="evenodd" d="M683.863 117.276C681.284 125.811 678.474 131.84 675.435 135.363L687.731 137.531C686.382 131.788 685.093 125.036 683.863 117.276L683.863 117.276Z" fill="black" fill-opacity="0.1"/>
<path fill-rule="evenodd" clip-rule="evenodd" d="M586.609 61.962C577.608 61.962 574.334 51.1857 569.22 45.2719C565.561 41.0407 559.317 42.3024 557.468 36.3789C552.82 21.4836 565.261 11 581.49 11C597.719 11 608.661 20.1944 611.024 34.0161C613.387 47.8378 602.838 61.962 586.609 61.962Z" fill="#191847"/>
<path fill-rule="evenodd" clip-rule="evenodd" d="M585.615 52.3403C589.244 48.0805 591.7 42.86 591.29 37.0103C590.107 20.1557 566.645 23.8635 562.081 32.3702C557.517 40.877 558.059 62.4551 563.958 63.9755C566.31 64.5819 571.321 63.0966 576.421 60.0225L573.22 82.67H592.122L585.615 52.3403Z" fill="#915B3C"/>
<path fill-rule="evenodd" clip-rule="evenodd" d="M577.646 41.4975C578.333 41.1342 579.12 40.9278 579.956 40.9278C582.634 40.9278 584.805 43.0435 584.805 45.6533C584.805 46.7185 584.443 47.7014 583.833 48.4917C584.982 50.3854 585.766 52.375 586.023 54.4205C590.005 54.4205 604.539 39.3526 590.061 25.1761C575.583 10.9997 554.66 31.2373 560.947 32.4176C564.562 33.0962 571.842 36.5472 577.646 41.4975V41.4975Z" fill="#191847"/>
<path fill-rule="evenodd" clip-rule="evenodd" d="M598.422 148.039L568.785 244.931L554.428 327.331H543.171L558.342 148.039H598.422Z" fill="#915B3C"/>
<path fill-rule="evenodd" clip-rule="evenodd" d="M609.025 148.039C607.012 201.238 609.381 228.679 609.831 233.512C610.282 238.345 616.451 269.685 631.057 328.953L619.062 324.834C595.979 270.476 588.114 242.225 585.466 235.087C582.819 227.949 575.788 198.933 564.372 148.039H609.025Z" fill="#915B3C"/>
<path fill-rule="evenodd" clip-rule="evenodd" d="M630.966 324.774C631.847 327.126 632.288 328.886 632.288 330.054C632.288 331.474 632.051 333.547 631.578 336.271C629.93 336.271 615.123 336.271 587.157 336.271C586.003 332.455 586.669 330.395 589.156 330.091C591.643 329.786 593.709 329.512 595.354 329.266L616.001 320.062C616.398 319.885 616.864 320.063 617.041 320.461C617.044 320.468 617.047 320.474 617.049 320.481L618.377 323.701C620.679 324.775 622.55 325.312 623.989 325.312C625.159 325.312 626.774 324.84 628.835 323.895L628.835 323.895C629.626 323.532 630.56 323.88 630.923 324.67C630.939 324.704 630.953 324.739 630.966 324.774Z" fill="#E4E4E4"/>
<path fill-rule="evenodd" clip-rule="evenodd" d="M556.933 324.774C557.815 327.126 558.255 328.886 558.255 330.054C558.255 331.474 558.019 333.547 557.545 336.271C555.898 336.271 541.091 336.271 513.124 336.271C511.97 332.455 512.636 330.395 515.123 330.091C517.61 329.786 519.676 329.512 521.321 329.266L541.968 320.062C542.365 319.885 542.831 320.063 543.008 320.461C543.011 320.468 543.014 320.474 543.017 320.481L544.344 323.701C546.646 324.775 548.517 325.312 549.957 325.312C551.126 325.312 552.741 324.84 554.802 323.895L554.802 323.895C555.593 323.532 556.528 323.88 556.89 324.67C556.906 324.704 556.92 324.739 556.933 324.774Z" fill="#E4E4E4"/>
<path fill-rule="evenodd" clip-rule="evenodd" d="M602.36 148.039L589.759 197.404H551.269L557.008 148.039H602.36Z" fill="#69A1AC"/>
<path fill-rule="evenodd" clip-rule="evenodd" d="M609.448 148.039C613.595 160.468 614.382 176.923 611.811 197.404H572.534L561.734 148.039H609.448Z" fill="#89C5CC"/>
<path fill-rule="evenodd" clip-rule="evenodd" d="M529.08 135.534L506.77 157.299C500.278 160.068 494.959 163.126 490.813 166.472C489.881 167.597 488.866 169.752 493.253 168.787C497.64 167.823 502.297 167.006 503.122 168.433C503.947 169.859 501.517 172.045 503.041 173.913C504.057 175.157 507.473 171.198 513.29 162.034L536.49 148.356L529.08 135.534ZM628.108 138.604L611.65 138.669C621.812 171.474 627.298 188.881 628.108 190.888C629.931 195.405 626.074 202.283 624.425 205.979C629.796 208.383 629.224 199.482 636 202.634C642.184 205.511 646.889 210.725 654.034 206.316C654.913 205.774 655.876 203.733 653.55 202.138C647.755 198.165 639.404 191.21 638.276 188.921C636.737 185.8 633.348 169.027 628.108 138.604Z" fill="#915B3C"/>
<path fill-rule="evenodd" clip-rule="evenodd" d="M581.336 69.5425L574.525 68.3744C562.8 97.6648 542.329 124.279 513.113 148.216L535.19 175.039C564.404 140.955 582.411 105.789 581.336 69.5425Z" fill="#1B393A"/>
<path fill-rule="evenodd" clip-rule="evenodd" d="M611.023 155.127H550.379C564.429 120.966 571.454 91.9465 571.454 68.0686L589.747 65.343C604.124 88.4652 608.184 116.933 611.023 155.127Z" fill="#DDE3E9"/>
<path fill-rule="evenodd" clip-rule="evenodd" d="M590.135 65.3559C590.132 65.3516 590.13 65.3473 590.127 65.343H588.933C587.504 65.3922 585.328 65.4809 582.404 65.609L577.984 78.2412C577.516 93.6428 574.786 124.681 569.792 171.356H609.546C609.441 174.58 609.27 177.834 609.03 181.118H638.589C634.167 131.235 618.021 92.6437 590.149 65.343L590.135 65.3559Z" fill="#1B393A"/>
<path fill-rule="evenodd" clip-rule="evenodd" d="M606.92 130.108C605.789 150.203 602.956 164.056 598.422 171.667H609.536C610.022 157.209 609.15 143.356 606.92 130.108V130.108Z" fill="black" fill-opacity="0.1"/>
<path fill-rule="evenodd" clip-rule="evenodd" d="M600.697 147.252L581.095 138.139V147.252H600.697Z" fill="white" fill-opacity="0.2"/>
<path fill-rule="evenodd" clip-rule="evenodd" d="M377.472 143.786L418.85 248.514L446.602 337.053H457.56L415.133 143.786L377.472 143.786Z" fill="#E8C5AD"/>
<path fill-rule="evenodd" clip-rule="evenodd" d="M369.12 144.194C368.679 180.996 362.254 230.544 361.227 232.838C360.543 234.367 336.916 253.816 290.346 291.183L297.894 299.261C352.842 267.222 381.587 249.067 384.13 244.794C387.944 238.384 400.361 179.401 410.33 144.194H369.12Z" fill="#E8C5AD"/>
<path fill-rule="evenodd" clip-rule="evenodd" d="M289.337 288.488C286.802 289.383 285.056 290.233 284.098 291.036C282.934 292.014 281.397 293.634 279.489 295.896C280.622 297.247 290.81 309.389 310.052 332.321C313.976 330.642 315.207 328.678 313.745 326.429C312.283 324.18 311.087 322.297 310.156 320.78L303.498 297.517C303.37 297.069 302.903 296.81 302.455 296.938C302.448 296.94 302.44 296.943 302.433 296.945L298.88 298.072C296.415 296.923 294.687 295.759 293.697 294.578C292.892 293.619 292.168 291.97 291.525 289.63L291.525 289.63C291.278 288.732 290.35 288.205 289.452 288.451C289.413 288.462 289.375 288.474 289.337 288.488Z" fill="#E4E4E4"/>
<path fill-rule="evenodd" clip-rule="evenodd" d="M442.095 333.373C441.152 335.89 440.68 337.774 440.68 339.024C440.68 340.544 440.933 342.763 441.44 345.679C443.204 345.679 459.053 345.679 488.989 345.679C490.224 341.594 489.511 339.389 486.849 339.063C484.187 338.738 481.975 338.443 480.214 338.181L458.114 328.329C457.689 328.139 457.19 328.33 457.001 328.755C456.998 328.763 456.995 328.77 456.991 328.777L455.571 332.223C453.106 333.373 451.104 333.948 449.563 333.948C448.311 333.948 446.582 333.443 444.376 332.431L444.376 332.431C443.53 332.043 442.529 332.415 442.141 333.261C442.124 333.298 442.109 333.335 442.095 333.373Z" fill="#E4E4E4"/>
<path fill-rule="evenodd" clip-rule="evenodd" d="M405.272 328.34L457.376 322.686L418.761 144.194H372.094L405.272 328.34Z" fill="#2B44FF"/>
<path fill-rule="evenodd" clip-rule="evenodd" d="M301.125 278.152L335.301 318.606C371.299 279.29 392.286 253.637 398.261 241.645C404.237 229.654 409.609 197.17 414.377 144.194H361.838C359.234 190.8 357.478 215.187 356.571 217.356C355.665 219.525 337.182 239.79 301.125 278.152Z" fill="#1F28CF"/>
<path fill-rule="evenodd" clip-rule="evenodd" d="M383.146 35.8064C379.17 31.1386 376.478 25.4181 376.928 19.0082C378.224 0.539299 403.933 4.60221 408.934 13.9237C413.935 23.2452 413.341 46.8899 406.877 48.5559C404.3 49.2203 398.809 47.5928 393.22 44.2244L396.728 69.0409H376.016L383.146 35.8064Z" fill="#E8C5AD"/>
<path fill-rule="evenodd" clip-rule="evenodd" d="M381.555 39.9639C378.955 28.3987 371.549 20.515 372.68 15.3458C373.434 11.8997 375.444 9.75667 378.709 8.91675C380.398 2.08461 385.845 -0.821372 395.05 0.198817C408.857 1.7291 417.285 7.46312 413.645 20.0804C410.3 20.0804 406.261 18.8706 400.677 20.9435C398.905 21.6012 397.637 23.6408 396.875 27.0623H394.351C391.902 23.0019 389.487 21.5098 387.106 22.586C384.725 23.6623 384.184 26.2764 385.483 30.4285L384.239 39.9639H381.555Z" fill="#15A4A6"/>
<path fill-rule="evenodd" clip-rule="evenodd" d="M451.196 133.739L475.078 157.037C482.026 160 487.72 163.273 492.158 166.855C493.156 168.059 494.242 170.366 489.546 169.333C484.851 168.301 479.865 167.427 478.982 168.954C478.1 170.481 480.7 172.821 479.069 174.82C477.982 176.152 474.325 171.914 468.098 162.105L443.264 147.464L451.196 133.739ZM334.416 112.654L352.876 112.724C338.816 158.276 331.353 182.127 330.486 184.275C328.535 189.11 332.663 196.472 334.428 200.429C328.679 203.002 329.291 193.474 322.039 196.848C315.418 199.928 310.383 205.509 302.734 200.789C301.794 200.209 300.763 198.024 303.253 196.317C309.456 192.064 318.394 184.62 319.602 182.17C321.249 178.829 326.187 155.657 334.416 112.654Z" fill="#E8C5AD"/>
<path fill-rule="evenodd" clip-rule="evenodd" d="M390.668 60.2866L397.957 59.0363C409.441 99.63 468.444 127.3 472.066 142.475C473.395 148.04 469.389 150.854 471.458 152.549L461.983 159.485C460.378 157.613 456.954 161.037 449.803 158.642C442.653 156.247 390.668 108.353 390.668 60.2866Z" fill="#191847"/>
<path fill-rule="evenodd" clip-rule="evenodd" d="M402.93 65.6837C402.09 119.427 433.157 133.136 426.237 154.695C420.523 172.499 365.825 191.638 356.36 174.186C352.529 167.122 350.791 158.578 350.594 149.289C348.174 156.425 346.261 162.569 344.854 167.72C342.426 176.605 333.014 178.018 333.014 181.441L320.613 178.018C321.454 173.367 315.608 171.103 317.175 160.713C324.199 114.163 343.069 80.4204 373.785 59.485L374.103 54.9405C374.233 53.0827 375.845 51.6819 377.702 51.8118L400.409 53.3996C402.267 53.5295 403.668 55.1409 403.538 56.9988L402.93 65.6837Z" fill="#2F3676"/>
<path fill-rule="evenodd" clip-rule="evenodd" d="M132.707 207.027C145.154 210.509 155.893 212.25 164.924 212.25C173.955 212.25 182.343 209.569 190.089 204.207C177.908 200.634 167.877 198.847 159.995 198.847C152.113 198.847 143.017 201.574 132.707 207.027Z" fill="#1F28CF"/>
<path fill-rule="evenodd" clip-rule="evenodd" d="M175.699 217.268C175.579 217.087 175.478 216.891 175.398 216.678C173.734 212.278 147.084 164.811 144.429 156.133H174.433C176.451 162.731 185.537 204.138 186.816 212.399C190.85 225.431 199.156 267.634 200.217 270.558C201.332 273.634 195.056 276.838 193.383 273.057C190.722 267.04 184.381 250.392 181.557 240.227C178.91 230.698 176.755 222.124 175.699 217.268Z" fill="#915B3C"/>
<path fill-rule="evenodd" clip-rule="evenodd" d="M151.152 223.063C138.968 226.142 94.4025 231.709 91.3442 232.583C88.1981 233.481 85.4397 226.996 89.3283 225.591C95.5159 223.356 112.565 218.192 122.903 216.085C131.217 214.389 138.804 213.006 143.898 212.196C143.467 197.888 141.494 163.549 142.787 156.133H169.335C168.095 163.245 157.614 215.137 155.666 220.331C155.047 222.186 153.203 223.005 151.152 223.063Z" fill="#915B3C"/>
<path fill-rule="evenodd" clip-rule="evenodd" d="M89.6106 223.865C87.9838 223.562 86.7915 223.478 86.0339 223.611C85.1125 223.774 83.7949 224.164 82.0813 224.783C82.2697 225.852 83.9637 235.459 87.1631 253.603C89.7711 253.916 91.0315 253.248 90.9444 251.599C90.8573 249.951 90.7992 248.579 90.7701 247.484L94.3799 233.035C94.4494 232.757 94.2803 232.476 94.0023 232.406C93.9975 232.405 93.9927 232.404 93.988 232.403L91.7474 231.91C90.7871 230.539 90.2246 229.387 90.0599 228.453C89.9261 227.694 90.0478 226.592 90.4249 225.147L90.4249 225.147C90.5697 224.593 90.2375 224.026 89.6829 223.881C89.659 223.875 89.6349 223.869 89.6106 223.865Z" fill="#E4E4E4"/>
<path fill-rule="evenodd" clip-rule="evenodd" d="M191.479 272.567C190.898 274.117 190.608 275.276 190.608 276.046C190.608 276.981 190.764 278.347 191.076 280.142C192.161 280.142 201.916 280.142 220.341 280.142C221.101 277.627 220.662 276.27 219.024 276.07C217.385 275.869 216.024 275.688 214.94 275.527L201.338 269.463C201.077 269.346 200.77 269.464 200.653 269.725C200.651 269.73 200.649 269.734 200.647 269.739L199.773 271.86C198.256 272.568 197.024 272.921 196.075 272.921C195.305 272.921 194.241 272.61 192.883 271.988L192.883 271.988C192.362 271.749 191.746 271.978 191.507 272.499C191.497 272.521 191.488 272.544 191.479 272.567Z" fill="#E4E4E4"/>
<path fill-rule="evenodd" clip-rule="evenodd" d="M142.872 156.133C154.571 152.786 165.64 152.786 176.08 156.133C179.712 172.704 188.537 179.281 190.089 204.688C172.448 213.453 150.655 198.436 132.495 206.984C127.306 195.028 134.571 166.232 142.872 156.133Z" fill="#2B44FF"/>
<g clip-path="url(#clip0_1233_8165)">
<path fill-rule="evenodd" clip-rule="evenodd" d="M158.51 89.4839C156.191 86.7539 154.622 83.4083 154.885 79.6595C155.64 68.858 170.627 71.2342 173.542 76.6859C176.457 82.1375 176.11 95.9661 172.343 96.9404C170.84 97.329 167.64 96.3772 164.382 94.4071L166.427 108.921H154.353L158.51 89.4839Z" fill="#915B3C"/>
<path fill-rule="evenodd" clip-rule="evenodd" d="M149.621 76.0639C149.231 75.6762 149.018 75.1228 148.834 74.5973C148.643 74.0514 148.457 73.4999 148.33 72.9317C148.077 71.7965 148.074 70.4909 148.882 69.6094C149.529 68.9025 150.5 68.5854 151.397 68.5165C151.994 68.4706 152.608 68.5545 153.18 68.7433C153.748 68.9307 154.238 69.304 154.788 69.5358C154.81 68.3124 155.018 67.0323 155.637 65.9877C156.232 64.9826 157.181 64.4186 158.262 64.2694C159.372 64.1162 160.467 64.3767 161.46 64.9155C161.709 65.0505 161.955 65.1919 162.191 65.3519C162.388 65.4859 162.594 65.6473 162.825 65.7017C163.083 65.7626 163.211 65.6129 163.379 65.424C163.576 65.2024 163.798 65.0072 164.032 64.8342C165.069 64.0693 166.43 63.7548 167.632 64.2133C168.185 64.4245 168.724 64.7833 169.099 65.2776C169.434 65.7183 169.673 66.4173 170.135 66.7243C170.331 66.8546 170.47 66.682 170.648 66.5543C170.916 66.3626 171.172 66.151 171.444 65.9645C171.825 65.7024 172.238 65.5064 172.68 65.4038C173.327 65.2535 174.221 65.2888 174.406 66.1391C174.476 66.4586 174.422 66.8002 174.4 67.122C174.369 67.5639 174.337 68.0057 174.299 68.447C174.27 68.782 174.233 69.1056 174.17 69.4346C174.136 69.61 174.031 69.9369 174.106 70.1126C174.2 70.3321 174.632 70.2073 174.817 70.2149C175.182 70.23 175.548 70.2942 175.885 70.4506C176.147 70.5719 176.422 70.7502 176.532 71.0508C176.6 71.2355 176.582 71.4252 176.55 71.6152C176.512 71.8432 176.555 71.9641 176.584 72.1942C177.074 71.9521 178.772 71.4143 178.986 72.2953C179.057 72.5886 178.895 72.9201 178.771 73.1675C178.555 73.6014 178.27 73.9981 177.98 74.3763C177.374 75.1654 176.651 75.8459 175.872 76.428C176.784 76.8347 177.022 78.0345 176.233 78.7494C175.884 79.065 175.415 79.1352 174.975 79.115C174.815 79.1076 174.583 79.0456 174.456 79.0737C174.388 79.0888 174.315 79.1468 174.22 79.1533C173.6 79.1959 172.899 79.0459 172.292 78.9077C171.211 78.6615 170.188 78.1477 169.352 77.3651C169.138 77.1644 168.961 77.0488 168.672 77.0518C168.419 77.0543 168.171 77.1239 167.919 77.1303C167.25 77.1474 166.648 76.8196 166.027 76.6013C165.989 77.4426 165.75 78.3692 165.407 79.1261C165.127 79.7433 164.543 79.833 163.969 79.8871C162.134 80.0604 160.292 79.867 158.454 79.8696C160.233 80.273 162.071 80.4393 163.835 80.9141C164.632 81.1286 164.023 81.6676 163.682 82.0412C163.121 82.6564 162.704 83.4187 162.415 84.2218C161.544 83.0836 160.006 82.3337 158.643 82.6834C157.137 83.0696 156.077 85.1127 157.04 86.5815C157.599 87.4341 158.609 87.7633 159.448 88.1296C158.793 88.8131 158.635 89.8227 158.24 90.6731C158.046 91.0924 157.773 91.5666 157.338 91.7127C157.177 91.7668 156.988 91.7715 156.861 91.9031C156.704 92.0661 156.666 92.2483 156.465 92.3883C155.664 92.9474 154.412 92.9043 153.702 92.1747C153.059 91.5149 153.226 90.4708 153.763 89.8018C152.909 89.4446 151.353 88.9852 151.692 87.6502C149.841 87.5269 145.348 84.5154 147.832 82.3148C146.469 81.5418 145.216 79.6527 146.092 77.9874C146.766 76.7051 148.334 76.1319 149.621 76.0639Z" fill="#191847"/>
</g>
<path fill-rule="evenodd" clip-rule="evenodd" d="M193.203 135.54L213.689 132.745C217.787 130.466 221.557 128.923 224.999 128.116C225.968 128.087 227.509 128.44 225.213 130.353C222.918 132.267 220.589 134.384 220.998 135.405C221.407 136.426 223.542 136.046 223.895 137.617C224.131 138.664 220.666 138.835 213.501 138.128L196.878 144.718L193.203 135.54ZM128.848 140.281L140.21 140.324C127.751 168.36 121.255 183.04 120.722 184.362C119.521 187.338 122.062 191.869 123.148 194.304C119.609 195.888 119.987 190.024 115.523 192.1C111.448 193.996 108.349 197.431 103.641 194.526C103.062 194.169 102.428 192.824 103.961 191.774C107.778 189.156 113.28 184.574 114.023 183.066C115.037 181.01 119.978 166.748 128.848 140.281Z" fill="#915B3C"/>
<path fill-rule="evenodd" clip-rule="evenodd" d="M159.969 104.247L168.865 104.839C171.056 124.66 182.99 137.18 209.709 132.942L213.258 158.467C188.286 161.695 166.385 151.697 161.896 124.627C160.734 117.619 159.817 110.326 159.969 104.247Z" fill="#C51935"/>
<path fill-rule="evenodd" clip-rule="evenodd" d="M155.58 101.66L169.059 104.747C169.059 127.93 176.444 142.72 180.231 159.765H143.83C143.317 165.655 143.002 171.708 142.838 177.925H115.582C121.758 145.062 134.794 119.638 154.691 101.652H155.573L155.58 101.66Z" fill="#E41D3D"/>
<path fill-rule="evenodd" clip-rule="evenodd" d="M149.573 126.692C148.635 141.138 149.186 152.162 151.228 159.765H143.83C144.845 148.098 146.638 137.073 149.573 126.692V126.692Z" fill="black" fill-opacity="0.1"/>
<defs>
<clipPath id="clip0_1233_8165">
<rect width="33.2025" height="44.921" fill="white" transform="translate(145.801 64)"/>
</clipPath>
</defs>
</svg>
