<svg width="862" height="464" viewBox="0 0 862 464" fill="none" xmlns="http://www.w3.org/2000/svg">
<mask id="mask0_1258_7924" style="mask-type:alpha" maskUnits="userSpaceOnUse" x="0" y="0" width="862" height="464">
<rect width="862" height="464" fill="#387FB3"/>
</mask>
<g mask="url(#mask0_1258_7924)">
<path fill-rule="evenodd" clip-rule="evenodd" d="M13.5003 295C47.3737 237.396 286.539 329.692 384.628 319.333C466.264 310.712 517.991 259.312 611.005 282.788C711.807 308.229 814.749 371.534 853.307 437.622C889.035 498.859 811.676 533.171 785.757 582.308C763.704 624.115 768.398 676.145 714.931 699.95C644.713 731.213 555.589 765.145 452.647 730.618C349.031 695.864 142.887 636.122 82 569.5C17.7287 499.175 -20.1094 352.155 13.5003 295Z" fill="#387FB3"/>
</g>
<path fill-rule="evenodd" clip-rule="evenodd" d="M705.573 146.493C708.497 143.808 710.677 140.344 710.894 136.19C711.518 124.222 694.679 124.804 690.731 130.398C686.782 135.993 685.298 151.232 689.32 152.813C690.923 153.443 694.58 152.83 698.436 151.107L694.225 166.775L707.533 168.409L705.573 146.493Z" fill="#915B3C"/>
<path fill-rule="evenodd" clip-rule="evenodd" d="M699.163 124.427C700.953 124.355 705.7 124.737 706.571 124.844C707.127 124.912 707.715 125.113 708.107 124.643C708.428 124.257 708.416 123.538 708.557 123.062C708.719 122.509 708.921 121.969 709.123 121.43C709.7 119.896 710.463 118.463 711.445 117.151C713.289 114.688 715.768 112.887 718.724 112.024C721.989 111.072 725.536 111.197 728.838 111.877C732.372 112.605 735.459 114.18 738.693 115.703C741.775 117.154 745.087 117.983 748.51 117.879C751.958 117.775 754.74 116.254 757.809 114.864C760.95 113.44 764.433 112.685 767.854 113.377C771.049 114.023 773.857 115.72 776.306 117.826C778.596 119.796 780.409 122.052 781.225 125.012C782.103 128.197 781.694 131.525 779.309 133.951C775.852 137.469 770.196 137.793 765.605 137.128C762.949 136.744 760.394 135.937 757.989 134.744C754.782 133.153 752.13 130.799 749.193 128.793C747.815 127.851 746.37 127.039 744.831 126.393C743.337 125.766 741.838 125.379 740.322 126.142C738.718 126.949 737.271 127.757 735.499 128.168C733.8 128.562 732.036 128.683 730.305 128.456C726.936 128.016 723.742 126.558 720.553 125.452C717.953 124.55 715.166 123.628 712.376 123.845C711.212 123.936 709.494 124.207 708.939 125.337C715.691 127.437 717.355 136.311 714.638 142.341C713.171 145.596 706.369 148.777 704.132 146.696C702.715 145.378 703.841 144.014 704.572 143.113C705.972 141.386 706.668 139.032 704.662 137.464C702.931 136.111 700.639 138.537 700.602 138.53C700.093 138.426 695.964 135.372 693.356 131.334C690.318 131.143 690.105 129.098 691.025 127.56C691.945 126.022 696.691 124.527 699.163 124.427Z" fill="#A9AEB1"/>
<path fill-rule="evenodd" clip-rule="evenodd" d="M702.976 214.086L682.512 284.604L672.887 337.551H663.226L672.869 214.086H702.976Z" fill="#784931"/>
<path fill-rule="evenodd" clip-rule="evenodd" d="M712.173 214.086C710.745 250.72 711.309 270.701 711.628 274.029C711.948 277.358 713.762 299.649 726.125 338.668H716.077C699.704 301.236 693.988 278.945 692.11 274.029C690.232 269.114 684.686 249.133 676.589 214.086H712.173Z" fill="#915B3C"/>
<path fill-rule="evenodd" clip-rule="evenodd" d="M703.416 214.086C698.093 238.351 688.886 277.085 675.796 330.288H661.665C660.622 275.681 665.061 239.74 672.75 214.086H703.416Z" fill="#69A1AC"/>
<path fill-rule="evenodd" clip-rule="evenodd" d="M712.244 214.086C710.846 250.72 714.47 286.811 725.697 330.858H710.62C694.217 293.985 682.46 258.071 674.425 214.086H712.244Z" fill="#71AEBA"/>
<path fill-rule="evenodd" clip-rule="evenodd" d="M727.558 345.931L727.003 336.992C723.757 337.941 719.691 337.569 714.806 335.875C709.553 339.596 702.94 342.137 694.967 343.497C694.358 343.601 693.949 344.178 694.053 344.787C694.06 344.826 694.069 344.865 694.08 344.903L694.846 347.607H714.806H726.449L727.558 345.931Z" fill="#191847"/>
<path fill-rule="evenodd" clip-rule="evenodd" d="M675.043 345.931L674.489 336.992C671.242 337.941 667.177 337.569 662.291 335.875C657.038 339.596 650.425 342.137 642.452 343.497C641.844 343.601 641.435 344.178 641.539 344.787C641.545 344.826 641.554 344.865 641.565 344.903L642.331 347.607H662.291H673.934L675.043 345.931Z" fill="#191847"/>
<path fill-rule="evenodd" clip-rule="evenodd" d="M656.841 201.403L637.019 211.196C632.033 211.641 627.774 212.538 624.244 213.886C623.368 214.44 622.211 215.672 625.382 215.983C628.553 216.294 631.874 216.764 632.118 217.907C632.361 219.05 630.243 219.992 630.862 221.586C631.274 222.649 634.447 220.726 640.38 215.819L659.03 211.677L656.841 201.403ZM724.145 213.729L712.639 211.747C715.698 235.916 717.386 248.751 717.705 250.253C718.421 253.633 714.88 257.963 713.273 260.342C716.729 262.682 717.425 256.394 721.77 259.43C725.736 262.202 728.381 266.424 733.915 264.224C734.596 263.953 735.52 262.646 734.091 261.246C730.533 257.756 725.556 251.87 725.05 250.131C724.359 247.761 724.058 235.627 724.145 213.729Z" fill="#915B3C"/>
<path fill-rule="evenodd" clip-rule="evenodd" d="M699.978 159.724L695.364 158.069C675.024 170.205 662.609 198.221 638.236 209.924L642.305 217.297C680.66 219.268 696.264 185.177 699.978 159.724Z" fill="#7B82C6"/>
<path fill-rule="evenodd" clip-rule="evenodd" d="M710.175 223.168C691.099 219.804 677.068 217.33 668.08 215.745C666.157 215.406 667.009 212.692 667.534 211.34C673.595 195.73 689.197 180.503 693.257 157.477L705.735 157.714C712.93 175.638 712.896 196.137 710.175 223.168Z" fill="#DDE3E9"/>
<path fill-rule="evenodd" clip-rule="evenodd" d="M718.096 176.265C719.949 176.069 721.554 175.133 722.911 173.456C728.761 166.231 727.936 161.539 723.449 159.254C718.961 156.968 714.205 159.208 706.649 157.875C706.238 157.803 705.857 157.762 705.506 157.754L701.667 157.3C684.243 192.338 676.887 216.468 679.599 229.689L712.731 235.531C713.887 240.455 715.086 244.637 716.329 248.079L725.357 249.67C731.05 222.348 728.63 197.88 718.096 176.265Z" fill="#8991DC"/>
<path fill-rule="evenodd" clip-rule="evenodd" d="M708.863 215.277C706.284 223.811 703.474 229.84 700.435 233.363L712.731 235.531C711.382 229.788 710.093 223.036 708.863 215.277L708.863 215.277Z" fill="black" fill-opacity="0.1"/>
<path fill-rule="evenodd" clip-rule="evenodd" d="M611.609 159.962C602.608 159.962 599.334 149.186 594.22 143.272C590.562 139.041 584.317 140.303 582.469 134.379C577.821 119.484 590.261 109 606.49 109C622.719 109 633.661 118.195 636.024 132.016C638.387 145.838 627.838 159.962 611.609 159.962Z" fill="#191847"/>
<path fill-rule="evenodd" clip-rule="evenodd" d="M610.615 150.34C614.244 146.081 616.7 140.86 616.29 135.01C615.107 118.156 591.645 121.864 587.081 130.37C582.517 138.877 583.059 160.455 588.958 161.976C591.31 162.582 596.321 161.097 601.421 158.023L598.22 180.67H617.122L610.615 150.34Z" fill="#915B3C"/>
<path fill-rule="evenodd" clip-rule="evenodd" d="M602.646 139.498C603.333 139.134 604.12 138.928 604.956 138.928C607.634 138.928 609.805 141.044 609.805 143.654C609.805 144.719 609.444 145.702 608.834 146.492C609.982 148.386 610.767 150.375 611.024 152.421C615.006 152.421 629.539 137.353 615.061 123.176C600.583 109 579.66 129.238 585.947 130.418C589.562 131.096 596.842 134.547 602.646 139.498V139.498Z" fill="#191847"/>
<path fill-rule="evenodd" clip-rule="evenodd" d="M623.423 246.039L593.785 342.931L579.428 425.331H568.171L583.342 246.039H623.423Z" fill="#915B3C"/>
<path fill-rule="evenodd" clip-rule="evenodd" d="M634.025 246.039C632.012 299.238 634.381 326.679 634.832 331.512C635.282 336.346 641.452 367.685 656.057 426.954L644.062 422.834C620.979 368.476 613.114 340.225 610.466 333.087C607.819 325.95 600.788 296.934 589.373 246.039H634.025Z" fill="#915B3C"/>
<path fill-rule="evenodd" clip-rule="evenodd" d="M655.966 422.774C656.848 425.127 657.288 426.886 657.288 428.054C657.288 429.474 657.051 431.547 656.578 434.272C654.931 434.272 640.124 434.272 612.157 434.272C611.003 430.455 611.669 428.395 614.156 428.091C616.643 427.787 618.709 427.512 620.354 427.267L641.001 418.062C641.398 417.885 641.864 418.064 642.041 418.461C642.044 418.468 642.047 418.475 642.05 418.482L643.377 421.701C645.679 422.775 647.55 423.312 648.99 423.312C650.159 423.312 651.774 422.84 653.835 421.895L653.835 421.895C654.626 421.533 655.561 421.88 655.923 422.671C655.939 422.705 655.953 422.739 655.966 422.774Z" fill="#E4E4E4"/>
<path fill-rule="evenodd" clip-rule="evenodd" d="M581.934 422.774C582.815 425.127 583.255 426.886 583.255 428.054C583.255 429.474 583.019 431.547 582.546 434.272C580.898 434.272 566.091 434.272 538.125 434.272C536.97 430.455 537.637 428.395 540.124 428.091C542.611 427.787 544.677 427.512 546.322 427.267L566.968 418.062C567.365 417.885 567.831 418.064 568.008 418.461C568.011 418.468 568.014 418.475 568.017 418.482L569.344 421.701C571.647 422.775 573.517 423.312 574.957 423.312C576.126 423.312 577.742 422.84 579.802 421.895L579.802 421.895C580.593 421.533 581.528 421.88 581.891 422.671C581.906 422.705 581.921 422.739 581.934 422.774Z" fill="#E4E4E4"/>
<path fill-rule="evenodd" clip-rule="evenodd" d="M627.36 246.039L614.759 295.405H576.269L582.008 246.039H627.36Z" fill="#69A1AC"/>
<path fill-rule="evenodd" clip-rule="evenodd" d="M634.449 246.039C638.595 258.468 639.383 274.923 636.811 295.405H597.534L586.734 246.039H634.449Z" fill="#89C5CC"/>
<path fill-rule="evenodd" clip-rule="evenodd" d="M554.08 233.535L531.77 255.3C525.278 258.069 519.959 261.126 515.813 264.472C514.881 265.597 513.866 267.752 518.253 266.787C522.64 265.823 527.298 265.006 528.122 266.433C528.947 267.86 526.517 270.046 528.041 271.913C529.057 273.158 532.473 269.198 538.291 260.035L561.491 246.356L554.08 233.535ZM653.108 236.604L636.65 236.669C646.812 269.475 652.298 286.881 653.108 288.888C654.931 293.405 651.074 300.283 649.425 303.98C654.796 306.383 654.224 297.482 661 300.634C667.184 303.512 671.889 308.725 679.035 304.316C679.913 303.774 680.876 301.733 678.55 300.138C672.755 296.165 664.404 289.211 663.276 286.922C661.737 283.8 658.348 267.028 653.108 236.604Z" fill="#915B3C"/>
<path fill-rule="evenodd" clip-rule="evenodd" d="M606.336 167.543L599.526 166.375C587.8 195.665 567.329 222.279 538.113 246.217L560.19 273.039C589.404 238.955 607.411 203.789 606.336 167.543Z" fill="#1B393A"/>
<path fill-rule="evenodd" clip-rule="evenodd" d="M636.023 253.128H575.38C589.429 218.966 596.454 189.947 596.454 166.069L614.747 163.343C629.124 186.465 633.184 214.933 636.023 253.128Z" fill="#DDE3E9"/>
<path fill-rule="evenodd" clip-rule="evenodd" d="M615.135 163.356C615.132 163.352 615.13 163.347 615.128 163.343H613.934C612.505 163.392 610.328 163.481 607.405 163.609L602.984 176.241C602.517 191.643 599.786 222.681 594.793 269.356H634.546C634.442 272.58 634.27 275.834 634.03 279.118H663.589C659.167 229.235 643.021 190.644 615.149 163.343L615.135 163.356Z" fill="#1B393A"/>
<path fill-rule="evenodd" clip-rule="evenodd" d="M631.92 228.109C630.789 248.204 627.956 262.056 623.422 269.667H634.536C635.022 255.209 634.151 241.356 631.92 228.109V228.109Z" fill="black" fill-opacity="0.1"/>
<path fill-rule="evenodd" clip-rule="evenodd" d="M625.697 245.252L606.095 236.139V245.252H625.697Z" fill="white" fill-opacity="0.2"/>
<path fill-rule="evenodd" clip-rule="evenodd" d="M402.472 241.786L443.85 346.514L471.602 435.053H482.56L440.133 241.786L402.472 241.786Z" fill="#E8C5AD"/>
<path fill-rule="evenodd" clip-rule="evenodd" d="M394.12 242.194C393.679 278.996 387.253 328.544 386.227 330.838C385.542 332.367 361.915 351.816 315.346 389.184L322.894 397.261C377.841 365.223 406.587 347.067 409.129 342.794C412.944 336.384 425.361 277.402 435.33 242.194H394.12Z" fill="#E8C5AD"/>
<path fill-rule="evenodd" clip-rule="evenodd" d="M314.337 386.488C311.802 387.383 310.056 388.233 309.098 389.036C307.934 390.014 306.397 391.634 304.489 393.896C305.622 395.247 315.81 407.389 335.052 430.321C338.976 428.642 340.207 426.678 338.745 424.429C337.283 422.18 336.087 420.297 335.156 418.78L328.498 395.517C328.37 395.069 327.903 394.81 327.455 394.938C327.448 394.94 327.44 394.943 327.433 394.945L323.88 396.072C321.415 394.923 319.687 393.759 318.697 392.578C317.892 391.619 317.168 389.97 316.525 387.63L316.525 387.63C316.278 386.732 315.35 386.205 314.452 386.451C314.413 386.462 314.375 386.474 314.337 386.488Z" fill="#E4E4E4"/>
<path fill-rule="evenodd" clip-rule="evenodd" d="M467.095 431.373C466.152 433.891 465.68 435.774 465.68 437.024C465.68 438.545 465.933 440.763 466.44 443.679C468.204 443.679 484.053 443.679 513.989 443.679C515.224 439.595 514.511 437.389 511.849 437.064C509.187 436.738 506.975 436.444 505.214 436.181L483.114 426.329C482.689 426.139 482.19 426.33 482.001 426.756C481.998 426.763 481.995 426.77 481.991 426.778L480.571 430.224C478.106 431.373 476.104 431.948 474.563 431.948C473.311 431.948 471.582 431.443 469.376 430.432L469.376 430.432C468.53 430.044 467.529 430.415 467.141 431.262C467.124 431.298 467.109 431.335 467.095 431.373Z" fill="#E4E4E4"/>
<path fill-rule="evenodd" clip-rule="evenodd" d="M430.272 426.341L482.376 420.686L443.761 242.194H397.094L430.272 426.341Z" fill="#2B44FF"/>
<path fill-rule="evenodd" clip-rule="evenodd" d="M326.125 376.153L360.301 416.606C396.299 377.29 417.286 351.637 423.261 339.645C429.237 327.654 434.609 295.17 439.377 242.194H386.838C384.234 288.8 382.478 313.188 381.571 315.356C380.665 317.525 362.182 337.791 326.125 376.153Z" fill="#1F28CF"/>
<path fill-rule="evenodd" clip-rule="evenodd" d="M408.146 133.807C404.17 129.139 401.478 123.418 401.928 117.008C403.224 98.5395 428.933 102.602 433.934 111.924C438.935 121.245 438.341 144.89 431.877 146.556C429.3 147.221 423.809 145.593 418.22 142.225L421.728 167.041H401.016L408.146 133.807Z" fill="#E8C5AD"/>
<path fill-rule="evenodd" clip-rule="evenodd" d="M406.555 137.964C403.955 126.399 396.549 118.515 397.68 113.346C398.434 109.9 400.444 107.757 403.709 106.917C405.398 100.085 410.845 97.1787 420.05 98.1989C433.857 99.7292 442.285 105.463 438.645 118.081C435.3 118.081 431.261 116.871 425.677 118.944C423.905 119.601 422.637 121.641 421.875 125.062H419.351C416.902 121.002 414.487 119.51 412.106 120.586C409.725 121.662 409.184 124.277 410.483 128.429L409.239 137.964H406.555Z" fill="#15A4A6"/>
<path fill-rule="evenodd" clip-rule="evenodd" d="M476.196 231.739L500.077 255.037C507.026 258.001 512.719 261.273 517.158 264.855C518.156 266.059 519.242 268.366 514.546 267.333C509.85 266.301 504.864 265.427 503.982 266.954C503.099 268.481 505.7 270.821 504.069 272.82C502.981 274.152 499.324 269.914 493.098 260.105L468.264 245.464L476.196 231.739ZM359.416 210.654L377.876 210.724C363.816 256.276 356.353 280.127 355.486 282.275C353.535 287.11 357.663 294.472 359.428 298.429C353.679 301.002 354.291 291.474 347.038 294.848C340.418 297.928 335.382 303.509 327.734 298.789C326.793 298.209 325.763 296.025 328.253 294.317C334.456 290.064 343.394 282.62 344.602 280.17C346.249 276.829 351.187 253.657 359.416 210.654Z" fill="#E8C5AD"/>
<path fill-rule="evenodd" clip-rule="evenodd" d="M415.668 158.287L422.957 157.037C434.441 197.63 493.444 225.301 497.066 240.476C498.395 246.041 494.389 248.854 496.458 250.549L486.983 257.485C485.378 255.613 481.954 259.038 474.803 256.642C467.653 254.247 415.668 206.353 415.668 158.287Z" fill="#191847"/>
<path fill-rule="evenodd" clip-rule="evenodd" d="M427.93 163.684C427.09 217.427 458.157 231.136 451.237 252.696C445.523 270.499 390.825 289.638 381.36 272.186C377.529 265.122 375.791 256.578 375.593 247.289C373.174 254.426 371.261 260.569 369.854 265.72C367.426 274.605 358.013 276.018 358.013 279.441L345.613 276.018C346.454 271.367 340.608 269.103 342.175 258.714C349.198 212.163 368.068 178.421 398.785 157.485L399.103 152.941C399.233 151.083 400.844 149.682 402.702 149.812L425.409 151.4C427.267 151.53 428.667 153.141 428.537 154.999L427.93 163.684Z" fill="#2F3676"/>
<path fill-rule="evenodd" clip-rule="evenodd" d="M157.707 305.027C170.154 308.509 180.893 310.25 189.924 310.25C198.955 310.25 207.344 307.569 215.089 302.207C202.909 298.634 192.877 296.847 184.995 296.847C177.113 296.847 168.017 299.574 157.707 305.027Z" fill="#1F28CF"/>
<path fill-rule="evenodd" clip-rule="evenodd" d="M200.699 315.268C200.579 315.087 200.478 314.891 200.398 314.679C198.734 310.279 172.084 262.811 169.429 254.133H199.433C201.452 260.731 210.537 302.138 211.816 310.399C215.85 323.431 224.156 365.635 225.217 368.558C226.332 371.634 220.056 374.838 218.383 371.057C215.722 365.04 209.381 348.393 206.558 338.228C203.911 328.698 201.755 320.125 200.699 315.268Z" fill="#915B3C"/>
<path fill-rule="evenodd" clip-rule="evenodd" d="M176.152 321.063C163.968 324.143 119.402 329.71 116.344 330.583C113.198 331.481 110.44 324.996 114.328 323.592C120.516 321.356 137.565 316.192 147.902 314.085C156.217 312.39 163.804 311.006 168.898 310.196C168.467 295.888 166.494 261.549 167.787 254.133H194.335C193.095 261.245 182.614 313.137 180.666 318.331C180.047 320.186 178.203 321.005 176.152 321.063Z" fill="#915B3C"/>
<path fill-rule="evenodd" clip-rule="evenodd" d="M114.611 321.865C112.984 321.562 111.792 321.478 111.034 321.611C110.113 321.774 108.795 322.165 107.081 322.783C107.27 323.852 108.964 333.459 112.163 351.604C114.771 351.916 116.032 351.248 115.945 349.6C115.857 347.951 115.799 346.579 115.77 345.484L119.38 331.036C119.449 330.757 119.28 330.476 119.002 330.406C118.998 330.405 118.993 330.404 118.988 330.403L116.748 329.91C115.787 328.539 115.225 327.387 115.06 326.453C114.926 325.694 115.048 324.592 115.425 323.147L115.425 323.147C115.57 322.593 115.238 322.026 114.683 321.881C114.659 321.875 114.635 321.869 114.611 321.865Z" fill="#E4E4E4"/>
<path fill-rule="evenodd" clip-rule="evenodd" d="M216.479 370.567C215.898 372.117 215.608 373.276 215.608 374.046C215.608 374.981 215.764 376.347 216.076 378.142C217.161 378.142 226.916 378.142 245.341 378.142C246.101 375.627 245.662 374.27 244.024 374.07C242.385 373.869 241.024 373.688 239.94 373.527L226.338 367.463C226.077 367.346 225.77 367.464 225.653 367.725C225.651 367.73 225.649 367.734 225.647 367.739L224.773 369.86C223.256 370.568 222.024 370.921 221.075 370.921C220.305 370.921 219.241 370.61 217.883 369.988L217.883 369.988C217.362 369.749 216.746 369.978 216.507 370.499C216.497 370.521 216.488 370.544 216.479 370.567Z" fill="#E4E4E4"/>
<path fill-rule="evenodd" clip-rule="evenodd" d="M167.872 254.133C179.571 250.786 190.64 250.786 201.08 254.133C204.712 270.704 213.537 277.281 215.089 302.688C197.448 311.453 175.655 296.436 157.495 304.984C152.307 293.028 159.571 264.232 167.872 254.133Z" fill="#2B44FF"/>
<g clip-path="url(#clip0_1258_7924)">
<path fill-rule="evenodd" clip-rule="evenodd" d="M183.509 187.484C181.191 184.754 179.622 181.408 179.885 177.66C180.64 166.858 195.626 169.234 198.542 174.686C201.457 180.138 201.11 193.966 197.343 194.941C195.84 195.329 192.639 194.377 189.382 192.407L191.427 206.921H179.353L183.509 187.484Z" fill="#915B3C"/>
<path fill-rule="evenodd" clip-rule="evenodd" d="M174.621 174.064C174.231 173.676 174.018 173.123 173.834 172.597C173.643 172.052 173.457 171.5 173.33 170.932C173.077 169.797 173.074 168.491 173.882 167.61C174.529 166.903 175.5 166.586 176.397 166.517C176.994 166.471 177.608 166.555 178.18 166.743C178.748 166.931 179.238 167.304 179.788 167.536C179.81 166.312 180.018 165.032 180.637 163.988C181.232 162.983 182.181 162.419 183.262 162.269C184.372 162.116 185.467 162.377 186.46 162.916C186.709 163.051 186.955 163.192 187.191 163.352C187.388 163.486 187.594 163.647 187.825 163.702C188.083 163.763 188.211 163.613 188.379 163.424C188.576 163.202 188.798 163.007 189.032 162.834C190.069 162.069 191.43 161.755 192.632 162.213C193.185 162.425 193.724 162.783 194.099 163.278C194.434 163.718 194.673 164.417 195.135 164.724C195.331 164.855 195.47 164.682 195.648 164.554C195.916 164.363 196.172 164.151 196.444 163.965C196.825 163.703 197.238 163.506 197.68 163.404C198.327 163.254 199.221 163.289 199.406 164.139C199.476 164.459 199.422 164.8 199.4 165.122C199.369 165.564 199.337 166.006 199.299 166.447C199.27 166.782 199.233 167.106 199.17 167.435C199.136 167.61 199.031 167.937 199.106 168.113C199.2 168.332 199.632 168.207 199.817 168.215C200.182 168.23 200.548 168.294 200.885 168.451C201.147 168.572 201.422 168.75 201.532 169.051C201.6 169.236 201.582 169.425 201.55 169.615C201.512 169.843 201.555 169.964 201.584 170.194C202.074 169.952 203.772 169.414 203.986 170.295C204.057 170.589 203.895 170.92 203.771 171.168C203.555 171.602 203.27 171.998 202.98 172.376C202.374 173.165 201.651 173.846 200.872 174.428C201.784 174.835 202.022 176.035 201.233 176.749C200.884 177.065 200.415 177.135 199.975 177.115C199.815 177.108 199.583 177.046 199.456 177.074C199.388 177.089 199.315 177.147 199.22 177.153C198.6 177.196 197.899 177.046 197.292 176.908C196.211 176.662 195.188 176.148 194.352 175.365C194.138 175.164 193.961 175.049 193.672 175.052C193.419 175.054 193.171 175.124 192.919 175.13C192.25 175.148 191.648 174.82 191.027 174.601C190.989 175.443 190.75 176.369 190.407 177.126C190.127 177.743 189.543 177.833 188.969 177.887C187.134 178.061 185.292 177.867 183.454 177.87C185.233 178.273 187.071 178.439 188.835 178.914C189.632 179.129 189.023 179.668 188.682 180.041C188.121 180.657 187.704 181.419 187.415 182.222C186.544 181.084 185.006 180.334 183.643 180.683C182.137 181.07 181.077 183.113 182.04 184.582C182.599 185.434 183.609 185.763 184.448 186.13C183.793 186.813 183.635 187.823 183.24 188.673C183.046 189.093 182.773 189.567 182.338 189.713C182.177 189.767 181.988 189.772 181.861 189.903C181.704 190.066 181.666 190.248 181.465 190.388C180.664 190.948 179.412 190.904 178.702 190.175C178.059 189.515 178.226 188.471 178.763 187.802C177.909 187.445 176.353 186.985 176.692 185.65C174.841 185.527 170.348 182.515 172.832 180.315C171.469 179.542 170.216 177.653 171.092 175.988C171.766 174.705 173.334 174.132 174.621 174.064Z" fill="#191847"/>
</g>
<path fill-rule="evenodd" clip-rule="evenodd" d="M218.203 233.54L238.689 230.745C242.787 228.466 246.557 226.923 249.999 226.116C250.968 226.087 252.509 226.439 250.213 228.353C247.918 230.267 245.589 232.384 245.997 233.405C246.406 234.426 248.541 234.046 248.895 235.617C249.131 236.664 245.666 236.834 238.501 236.128L221.878 242.718L218.203 233.54ZM153.848 238.281L165.21 238.324C152.751 266.36 146.255 281.04 145.721 282.362C144.521 285.337 147.061 289.869 148.148 292.304C144.609 293.888 144.986 288.023 140.522 290.1C136.448 291.996 133.348 295.431 128.641 292.526C128.062 292.169 127.428 290.824 128.96 289.773C132.778 287.156 138.279 282.574 139.023 281.066C140.037 279.01 144.978 264.748 153.848 238.281Z" fill="#915B3C"/>
<path fill-rule="evenodd" clip-rule="evenodd" d="M184.969 202.246L193.865 202.839C196.056 222.66 207.99 235.18 234.708 230.942L238.258 256.467C213.285 259.694 191.384 249.696 186.896 222.627C185.734 215.619 184.816 208.326 184.969 202.246Z" fill="#C51935"/>
<path fill-rule="evenodd" clip-rule="evenodd" d="M180.58 199.66L194.059 202.747C194.059 225.93 201.443 240.72 205.231 257.765H168.829C168.317 263.655 168.002 269.708 167.838 275.925H140.581C146.758 243.062 159.794 217.638 179.69 199.652H180.573L180.58 199.66Z" fill="#E41D3D"/>
<path fill-rule="evenodd" clip-rule="evenodd" d="M174.573 224.692C173.635 239.138 174.186 250.162 176.228 257.765H168.829C169.845 246.098 171.638 235.073 174.573 224.692V224.692Z" fill="black" fill-opacity="0.1"/>
<defs>
<clipPath id="clip0_1258_7924">
<rect width="33.2025" height="44.921" fill="white" transform="translate(170.801 162)"/>
</clipPath>
</defs>
</svg>
