<svg width="779" height="464" viewBox="0 0 779 464" fill="none" xmlns="http://www.w3.org/2000/svg">
<mask id="mask0_1262_8143" style="mask-type:alpha" maskUnits="userSpaceOnUse" x="0" y="0" width="779" height="464">
<rect width="779" height="464" fill="#EFEFEF"/>
</mask>
<g mask="url(#mask0_1262_8143)">
<path fill-rule="evenodd" clip-rule="evenodd" d="M682.69 675.35C633.624 737.86 564.091 789.202 484.473 790.99C415.125 792.547 381.115 705.799 315.346 683.597C209.466 647.853 57.6959 721.146 -2.0207 626.759C-59.3913 536.08 12.7767 403.302 93.4884 332.932C162.437 272.818 267.042 329.663 357.221 313.549C432.692 300.062 494.216 228.625 568.463 248.055C658.754 271.685 749.613 332.492 773.685 422.54C797.765 512.616 740.176 602.114 682.69 675.35Z" fill="#5742C4"/>
</g>
<path fill-rule="evenodd" clip-rule="evenodd" d="M224.288 140.974C222.086 136.323 221.111 131.118 222.755 126.07C227.492 111.527 246.979 120.615 249.055 129.236C251.13 137.858 245.906 156.718 240.467 156.592C238.298 156.542 234.288 153.99 230.552 150.018L228.332 170.749L211.974 166.057L224.288 140.974Z" fill="#E3B995"/>
<path fill-rule="evenodd" clip-rule="evenodd" d="M246.643 123.118C246.325 122.783 245.66 122.078 245.306 121.79C245.222 121.721 244.683 121.055 244.664 121.056C244.122 121.084 242.519 121.301 242.259 121.811C242.229 121.847 242.201 121.88 242.174 121.909C241.875 122.228 241.59 122.562 241.312 122.903C240.704 123.651 240.139 124.454 239.591 125.254C238.525 126.812 237.531 128.434 236.58 130.073C235.612 131.742 234.716 133.454 233.772 135.137C232.413 137.559 230.874 139.861 229.521 142.283C228.657 143.83 227.985 145.453 227.67 147.21C227.666 147.231 227.662 147.252 227.658 147.274C227.657 147.282 227.656 147.291 227.655 147.3C227.608 147.571 227.57 147.844 227.541 148.122C227.517 148.359 227.493 148.597 227.471 148.836C228.431 147.728 229.273 146.445 230.127 145.244C230.21 145.126 230.292 145.007 230.372 144.887C230.607 144.661 230.845 144.438 231.084 144.216C232.593 142.819 234.104 141.43 235.576 139.99C238.224 137.399 240.871 134.737 243.801 132.501C244.666 131.84 245.543 131.197 246.402 130.528C246.891 130.147 247.372 129.755 247.844 129.351C248.181 129.062 249.57 128.116 249.369 127.251C249.267 126.808 247.468 123.988 246.643 123.118Z" fill="#D94496"/>
<path fill-rule="evenodd" clip-rule="evenodd" d="M245.506 122.143C245.839 122.372 245.855 121.55 245.57 121.178C244.251 119.453 238.12 117.204 232.399 116.792C228.567 116.516 223.854 117.214 220.331 118.839C217.156 120.305 214.464 123.342 212.677 126.511C210.8 129.838 209.712 133.556 209.33 137.411C209.246 138.257 209.309 139.105 209.253 139.941C209.19 140.883 209.056 141.769 209.125 142.722C209.167 143.306 209.335 143.915 209.351 144.494C209.368 145.155 209.123 145.692 208.842 146.278C208.385 147.235 207.88 148.175 207.28 149.041C206.378 150.342 205.385 151.518 204.598 152.911C203.551 154.764 199.639 160.649 200.857 162.909L232.531 172.002C232.287 169.56 230.544 166.267 230.652 163.759C230.716 162.281 231.342 159.194 231.34 159.074C231.878 153.863 231.082 151.073 230.427 149.955C229.771 148.836 228.675 148.236 228.803 147.466C229.334 144.283 231.296 141.65 232.915 139.001C234.844 135.844 236.51 132.52 238.469 129.384C239.336 127.995 243.778 120.954 245.506 122.143Z" fill="#61DED5"/>
<path fill-rule="evenodd" clip-rule="evenodd" d="M233.587 122.525C231.421 126.043 230.647 128.031 229.583 133.382L228.996 133.213C229.145 127.919 231.296 123.511 232.848 122.313L233.587 122.525ZM215.018 127.884C215.872 134.028 216.076 137.57 221.195 143.811L220.628 144.016C215.331 138.678 214.593 133.91 214.491 127.979L215.018 127.884ZM225.594 124.913C224.651 133.016 223.829 137.563 226.972 147.623L226.366 147.636C222.793 138.637 223.452 132.317 225.058 124.805L225.594 124.913ZM213.946 146.446L214.576 145.99C220.614 149.959 218.804 154.06 225.975 160.795L225.178 161.022C218.701 155.914 218.639 148.921 213.946 146.446Z" fill="black" fill-opacity="0.2"/>
<path fill-rule="evenodd" clip-rule="evenodd" d="M191.642 230.296C192.894 248.083 273.561 300.451 274.032 301.921C274.241 302.574 265.872 323.217 248.923 363.85L255.975 366.701C281.971 323.668 294.301 299.859 292.966 295.274C291.054 288.709 270.191 267.113 230.377 230.485L191.642 230.296Z" fill="#E3B995"/>
<path fill-rule="evenodd" clip-rule="evenodd" d="M250.78 354.673L262.292 359.035C286.569 330.527 296.084 307.005 294.349 295.02C293.192 287.03 272.402 265.47 231.977 230.34L190.817 230.34C192.221 271.532 266.99 302.078 267.99 303.833C268.99 305.588 259.148 322.78 250.78 354.673Z" fill="#A0CAA3"/>
<path fill-rule="evenodd" clip-rule="evenodd" d="M246.24 362.39C244.817 364.106 243.934 365.46 243.592 366.452C243.175 367.658 242.763 369.493 242.357 371.957C243.727 372.482 256.038 377.2 279.291 386.111C281.371 383.238 281.422 381.277 279.443 380.226C277.464 379.175 275.827 378.284 274.532 377.551L260.066 363.158C259.788 362.881 259.349 362.884 259.085 363.165C259.08 363.17 259.076 363.175 259.071 363.18L257.023 365.49C254.793 365.668 253.08 365.528 251.883 365.07C250.911 364.697 249.707 363.781 248.271 362.323L248.271 362.323C247.719 361.763 246.84 361.76 246.307 362.316C246.284 362.34 246.261 362.365 246.24 362.39Z" fill="#E4E4E4"/>
<path fill-rule="evenodd" clip-rule="evenodd" d="M200.917 230.296L164.982 320.084L129.663 395.993H137.996L229.163 230.296H200.917Z" fill="#E3B995"/>
<path fill-rule="evenodd" clip-rule="evenodd" d="M129.165 392.488C128.388 394.647 128 396.262 128 397.334C128 398.637 128.209 400.539 128.626 403.039C130.079 403.039 143.135 403.039 167.794 403.039C168.812 399.537 168.224 397.647 166.031 397.367C163.839 397.088 162.017 396.836 160.566 396.611L142.361 388.164C142.011 388.001 141.6 388.165 141.444 388.53C141.442 388.536 141.439 388.542 141.436 388.549L140.266 391.503C138.236 392.489 136.586 392.982 135.317 392.982C134.286 392.982 132.862 392.548 131.045 391.681L131.045 391.681C130.348 391.349 129.523 391.667 129.203 392.393C129.19 392.424 129.177 392.456 129.165 392.488Z" fill="#E4E4E4"/>
<path fill-rule="evenodd" clip-rule="evenodd" d="M132.853 380.223L151.369 383.837C165.685 361.931 225.599 272.11 232.168 230.296H190.948C169.011 260.523 146.499 357.955 132.853 380.223Z" fill="#B5E2B8"/>
<path fill-rule="evenodd" clip-rule="evenodd" d="M260.397 227.711L276.604 250.819C281.847 254.357 286.026 257.961 289.141 261.631C289.786 262.789 290.351 264.882 286.674 263.302C282.997 261.722 279.063 260.229 278.134 261.369C277.205 262.51 278.997 264.862 277.394 266.282C276.326 267.228 273.937 263.129 270.227 253.985L252.05 237.96L260.397 227.711ZM173.724 214.247L188.044 216.999C174.345 244.663 166.995 259.326 165.993 260.988C163.738 264.727 166.079 271.508 166.968 275.082C161.936 276.352 163.751 268.488 157.385 270.197C151.575 271.757 146.708 275.648 141.139 270.537C140.454 269.908 139.918 267.926 142.179 266.881C147.811 264.277 156.11 259.427 157.431 257.566C159.232 255.027 164.663 240.587 173.724 214.247Z" fill="#E3B995"/>
<path fill-rule="evenodd" clip-rule="evenodd" d="M224.788 159.193L230.912 159.264C236.811 187.571 250.749 214.911 272.726 241.283L249.455 261.796C228.986 226.288 218.47 191.654 224.788 159.193Z" fill="#42C7C9"/>
<path fill-rule="evenodd" clip-rule="evenodd" d="M186.332 231.488L239.397 241.482C232.18 208.418 230.345 181.139 233.893 159.647L218.291 154.179C202.275 172.622 194.492 197.577 186.332 231.488Z" fill="#DDE3E9"/>
<path fill-rule="evenodd" clip-rule="evenodd" d="M218.065 154.28C218.068 154.277 218.071 154.273 218.074 154.27L219.119 154.467C220.363 154.746 222.256 155.185 224.798 155.782L226.79 167.886C224.909 181.833 222.684 210.233 220.115 253.088L185.302 246.534C184.913 249.454 184.58 252.412 184.301 255.409L158.416 250.536C169.706 206.345 189.586 174.256 218.055 154.266L218.065 154.28L218.065 154.28Z" fill="#42C7C9"/>
<path fill-rule="evenodd" clip-rule="evenodd" d="M193.617 209.876C191.607 228.192 192.03 241.158 194.886 248.773L185.093 246.938C186.828 233.813 189.669 221.46 193.617 209.876L193.617 209.876Z" fill="black" fill-opacity="0.1"/>
<path fill-rule="evenodd" clip-rule="evenodd" d="M196.504 226.259L214.921 221.319L213.573 229.469L196.504 226.259Z" fill="white" fill-opacity="0.2"/>
<path fill-rule="evenodd" clip-rule="evenodd" d="M532.424 257.817C522.605 260.563 514.135 261.936 507.011 261.936C499.888 261.936 493.271 259.822 487.161 255.593C496.769 252.774 504.682 251.365 510.899 251.365C517.116 251.365 524.291 253.516 532.424 257.817Z" fill="#1F28CF"/>
<path fill-rule="evenodd" clip-rule="evenodd" d="M498.512 265.895C498.606 265.752 498.686 265.598 498.75 265.43C500.062 261.959 521.083 224.518 523.177 217.673H499.511C497.918 222.877 490.752 255.538 489.743 262.055C486.561 272.334 480.009 305.623 479.173 307.929C478.293 310.355 483.244 312.883 484.563 309.9C486.662 305.154 491.664 292.023 493.891 284.005C495.979 276.488 497.679 269.726 498.512 265.895Z" fill="#915B3C"/>
<path fill-rule="evenodd" clip-rule="evenodd" d="M517.874 270.466C527.485 272.895 562.638 277.286 565.05 277.975C567.531 278.683 569.707 273.568 566.64 272.46C561.759 270.697 548.311 266.624 540.157 264.962C533.599 263.624 527.614 262.533 523.596 261.894C523.937 250.608 525.493 223.523 524.473 217.673H503.532C504.51 223.282 512.778 264.214 514.314 268.311C514.802 269.774 516.257 270.42 517.874 270.466Z" fill="#915B3C"/>
<path fill-rule="evenodd" clip-rule="evenodd" d="M566.417 271.098C567.701 270.86 568.641 270.793 569.239 270.899C569.965 271.027 571.005 271.335 572.356 271.823C572.208 272.666 570.872 280.244 568.348 294.556C566.291 294.802 565.297 294.275 565.365 292.975C565.434 291.675 565.48 290.593 565.503 289.729L562.655 278.332C562.601 278.113 562.734 277.891 562.953 277.836C562.957 277.835 562.961 277.834 562.965 277.833L564.732 277.444C565.489 276.363 565.933 275.454 566.063 274.717C566.168 274.119 566.072 273.25 565.775 272.11L565.775 272.11C565.661 271.673 565.923 271.225 566.36 271.111C566.379 271.106 566.398 271.102 566.417 271.098Z" fill="#E4E4E4"/>
<path fill-rule="evenodd" clip-rule="evenodd" d="M486.065 309.514C486.523 310.736 486.752 311.651 486.752 312.258C486.752 312.996 486.629 314.073 486.383 315.489C485.527 315.489 477.832 315.489 463.299 315.489C462.7 313.505 463.046 312.435 464.338 312.277C465.631 312.119 466.704 311.976 467.559 311.848L478.288 307.065C478.495 306.973 478.737 307.066 478.829 307.273C478.83 307.276 478.832 307.28 478.833 307.283L479.523 308.956C480.719 309.514 481.692 309.793 482.44 309.793C483.047 309.793 483.887 309.548 484.958 309.057L484.958 309.057C485.368 308.869 485.854 309.049 486.043 309.46C486.051 309.478 486.058 309.496 486.065 309.514Z" fill="#E4E4E4"/>
<path fill-rule="evenodd" clip-rule="evenodd" d="M524.405 217.672C515.177 215.032 506.446 215.032 498.211 217.672C495.347 230.744 488.385 235.932 487.161 255.972C501.076 262.886 518.266 251.041 532.59 257.783C536.683 248.352 530.953 225.639 524.405 217.672Z" fill="#2B44FF"/>
<g clip-path="url(#clip0_1262_8143)">
<path fill-rule="evenodd" clip-rule="evenodd" d="M512.071 165.101C513.9 162.948 515.137 160.309 514.93 157.352C514.334 148.832 502.513 150.706 500.214 155.006C497.915 159.306 498.188 170.214 501.16 170.983C502.345 171.289 504.869 170.538 507.439 168.985L505.826 180.433H515.35L512.071 165.101Z" fill="#915B3C"/>
<path fill-rule="evenodd" clip-rule="evenodd" d="M519.082 154.516C519.39 154.21 519.558 153.773 519.703 153.359C519.854 152.928 520 152.493 520.1 152.045C520.3 151.15 520.302 150.12 519.665 149.425C519.155 148.867 518.388 148.617 517.681 148.563C517.21 148.526 516.726 148.593 516.275 148.741C515.827 148.889 515.44 149.184 515.006 149.367C514.99 148.402 514.825 147.392 514.337 146.568C513.867 145.775 513.119 145.33 512.266 145.212C511.391 145.092 510.527 145.297 509.744 145.722C509.547 145.829 509.353 145.94 509.167 146.066C509.011 146.172 508.85 146.299 508.667 146.342C508.463 146.39 508.362 146.272 508.23 146.123C508.075 145.948 507.9 145.794 507.715 145.658C506.897 145.055 505.823 144.807 504.876 145.168C504.439 145.335 504.014 145.618 503.718 146.008C503.454 146.355 503.265 146.907 502.901 147.149C502.746 147.252 502.637 147.115 502.496 147.015C502.285 146.864 502.083 146.697 501.869 146.55C501.568 146.343 501.242 146.188 500.894 146.107C500.383 145.989 499.678 146.017 499.532 146.687C499.477 146.939 499.519 147.209 499.537 147.463C499.561 147.811 499.586 148.16 499.617 148.508C499.64 148.772 499.668 149.027 499.718 149.287C499.745 149.425 499.828 149.683 499.769 149.821C499.695 149.995 499.354 149.896 499.208 149.902C498.92 149.914 498.631 149.965 498.365 150.088C498.159 150.184 497.942 150.324 497.855 150.562C497.802 150.707 497.816 150.857 497.841 151.007C497.871 151.187 497.837 151.282 497.814 151.463C497.427 151.272 496.088 150.848 495.92 151.543C495.864 151.775 495.991 152.036 496.089 152.231C496.26 152.573 496.484 152.886 496.713 153.185C497.191 153.807 497.762 154.344 498.376 154.803C497.656 155.124 497.469 156.07 498.091 156.634C498.366 156.883 498.736 156.938 499.083 156.922C499.21 156.917 499.393 156.868 499.493 156.89C499.547 156.902 499.604 156.948 499.679 156.953C500.168 156.986 500.721 156.868 501.199 156.759C502.052 156.565 502.859 156.159 503.518 155.542C503.687 155.384 503.827 155.293 504.055 155.295C504.254 155.297 504.45 155.352 504.649 155.357C505.176 155.37 505.652 155.112 506.141 154.94C506.171 155.603 506.36 156.334 506.63 156.931C506.851 157.418 507.312 157.489 507.764 157.531C509.212 157.668 510.665 157.516 512.115 157.518C510.711 157.836 509.261 157.967 507.871 158.342C507.242 158.511 507.722 158.936 507.991 159.231C508.433 159.716 508.763 160.317 508.991 160.951C509.677 160.053 510.891 159.461 511.966 159.737C513.153 160.042 513.99 161.653 513.23 162.812C512.789 163.484 511.993 163.744 511.33 164.033C511.847 164.572 511.972 165.369 512.283 166.039C512.437 166.37 512.652 166.744 512.995 166.859C513.122 166.902 513.271 166.906 513.371 167.009C513.495 167.138 513.525 167.282 513.683 167.392C514.316 167.833 515.303 167.799 515.863 167.224C516.37 166.703 516.238 165.88 515.815 165.352C516.489 165.07 517.716 164.708 517.449 163.655C518.908 163.558 522.453 161.182 520.493 159.446C521.569 158.837 522.557 157.347 521.866 156.033C521.334 155.022 520.097 154.569 519.082 154.516Z" fill="#191847"/>
</g>
<path fill-rule="evenodd" clip-rule="evenodd" d="M484.705 201.429L468.546 199.225C465.313 197.427 462.34 196.21 459.625 195.573C458.861 195.551 457.645 195.829 459.456 197.338C461.267 198.848 463.104 200.517 462.781 201.323C462.459 202.128 460.775 201.829 460.496 203.068C460.31 203.894 463.043 204.028 468.694 203.47L481.806 208.669L484.705 201.429ZM535.467 205.169L526.505 205.203C536.332 227.317 541.456 238.896 541.877 239.939C542.824 242.286 540.82 245.861 539.963 247.782C542.754 249.031 542.457 244.405 545.978 246.043C549.192 247.538 551.637 250.248 555.35 247.957C555.807 247.675 556.307 246.614 555.098 245.785C552.087 243.721 547.747 240.107 547.161 238.917C546.361 237.295 542.464 226.046 535.467 205.169Z" fill="#915B3C"/>
<path fill-rule="evenodd" clip-rule="evenodd" d="M510.919 176.746L503.902 177.213C502.174 192.848 492.761 202.723 471.686 199.38L468.886 219.514C488.584 222.06 505.859 214.174 509.4 192.821C510.316 187.294 511.04 181.541 510.919 176.746Z" fill="#C51935"/>
<path fill-rule="evenodd" clip-rule="evenodd" d="M514.381 174.706L503.75 177.141C503.75 195.427 497.925 207.093 494.937 220.538H523.65C524.054 225.183 524.303 229.958 524.432 234.862H545.932C541.06 208.941 530.777 188.886 515.083 174.699H514.387L514.381 174.706Z" fill="#E41D3D"/>
<path fill-rule="evenodd" clip-rule="evenodd" d="M519.12 194.45C519.86 205.845 519.425 214.541 517.814 220.538H523.65C522.849 211.335 521.435 202.639 519.12 194.45V194.45Z" fill="black" fill-opacity="0.1"/>
<path fill-rule="evenodd" clip-rule="evenodd" d="M332.105 204.073C329.111 200.559 327.085 196.253 327.424 191.427C328.399 177.523 347.754 180.582 351.519 187.599C355.284 194.617 354.837 212.417 349.971 213.672C348.03 214.172 343.897 212.946 339.689 210.411L342.33 229.093H326.737L332.105 204.073Z" fill="#B28B67"/>
<path fill-rule="evenodd" clip-rule="evenodd" d="M358.427 177.871C358.104 176.736 357.235 175.764 356.065 175.476C355.781 175.406 355.488 175.378 355.196 175.389C355.091 175.394 355.062 175.424 355.013 175.35C354.977 175.296 354.976 175.163 354.961 175.1C354.914 174.901 354.856 174.705 354.784 174.514C354.539 173.863 354.128 173.287 353.632 172.801C352.704 171.893 351.45 171.266 350.147 171.153C349.434 171.09 348.726 171.206 348.052 171.438C347.703 171.558 347.365 171.708 347.035 171.873C346.936 171.923 346.614 172.167 346.514 172.151C346.404 172.133 346.183 171.86 346.094 171.791C344.989 170.943 343.624 170.61 342.247 170.62C340.693 170.632 339.196 170.709 337.9 171.657C337.626 171.857 337.364 172.077 337.115 172.308C336.984 172.43 336.858 172.556 336.737 172.688C336.663 172.767 336.592 172.848 336.524 172.931C336.408 173.073 336.426 173.119 336.264 173.021C335.64 172.642 334.917 172.464 334.189 172.554C333.757 172.607 333.336 172.737 332.937 172.908C332.801 172.966 332.486 173.198 332.341 173.2C332.197 173.202 331.887 172.987 331.739 172.933C330.939 172.637 330.077 172.565 329.236 172.701C328.369 172.842 327.517 173.188 326.782 173.666C326.428 173.896 326.12 174.151 325.872 174.493C325.765 174.641 325.669 174.797 325.547 174.934C325.476 175.014 325.336 175.096 325.298 175.198C325.321 175.137 324.349 174.762 324.258 174.738C323.769 174.611 323.272 174.637 322.794 174.794C321.895 175.09 321.122 175.754 320.486 176.434C320.16 176.783 319.874 177.17 319.632 177.581C319.515 177.778 319.409 177.981 319.312 178.188C319.265 178.288 319.234 178.414 319.172 178.504C319.092 178.621 319.038 178.623 318.893 178.674C318.157 178.931 317.486 179.368 316.975 179.957C316.459 180.554 316.123 181.289 315.983 182.062C315.975 182.108 315.97 182.297 315.943 182.321C315.906 182.355 315.758 182.34 315.702 182.347C315.509 182.37 315.316 182.403 315.126 182.448C314.776 182.531 314.435 182.653 314.113 182.813C312.856 183.434 311.958 184.6 311.518 185.911C311.057 187.288 311.065 188.865 311.616 190.215C311.705 190.433 311.811 190.645 311.936 190.846C312.012 190.969 312.037 190.969 311.987 191.098C311.932 191.241 311.831 191.381 311.765 191.521C311.551 191.979 311.401 192.464 311.306 192.96C311.151 193.773 311.074 194.628 311.227 195.447C311.298 195.828 311.422 196.2 311.612 196.539C311.708 196.712 311.821 196.876 311.948 197.027C312.014 197.106 312.084 197.181 312.158 197.253C312.2 197.294 312.255 197.33 312.291 197.376C312.378 197.488 312.396 197.396 312.351 197.561C312.288 197.791 312.146 198.018 312.059 198.241C311.969 198.472 311.887 198.706 311.813 198.942C311.662 199.42 311.535 199.907 311.455 200.402C311.303 201.353 311.329 202.366 311.779 203.238C311.971 203.611 312.247 203.939 312.582 204.193C312.745 204.318 312.923 204.425 313.109 204.514C313.204 204.559 313.327 204.579 313.37 204.671C313.417 204.77 313.347 204.968 313.332 205.079C313.193 206.046 313.124 207.061 313.411 208.009C313.676 208.881 314.259 209.652 315.016 210.162C316.484 211.152 318.463 211.096 320.005 210.304C320.407 210.097 320.784 209.841 321.119 209.538C321.974 210.689 323.732 210.652 324.981 210.324C326.537 209.916 327.785 208.834 328.505 207.413C329.488 208.61 331.553 208.222 332.235 206.923C332.402 206.605 332.501 206.254 332.549 205.9C332.575 205.713 332.559 205.525 332.578 205.34C332.603 205.105 332.76 204.876 332.85 204.648C333.027 204.204 333.136 203.745 333.141 203.267C333.143 203.017 333.112 202.773 333.088 202.525C333.067 202.302 333.128 202.094 333.164 201.874C332.765 201.94 332.278 201.832 331.902 201.716C331.533 201.603 331.188 201.304 330.927 201.031C330.323 200.397 329.953 199.565 329.701 198.738C329.146 196.922 329.374 194.743 331.2 193.746C332.051 193.282 334.601 193.283 335.614 193.513C336.68 193.754 337.888 196.105 337.947 196.326C337.984 196.463 337.966 196.633 338.091 196.724C338.367 196.924 338.823 196.576 339.027 196.405C339.378 196.108 339.629 195.714 339.846 195.315C340.319 194.444 340.701 193.511 340.97 192.558C341.178 191.823 341.311 191.066 341.582 190.35C341.852 189.637 342.278 189.001 342.94 188.597C343.661 188.158 344.486 187.927 345.277 187.651C346.061 187.378 346.832 187.044 347.439 186.463C347.573 186.336 347.703 186.2 347.81 186.05C347.895 185.931 347.979 185.705 348.108 185.629C348.309 185.512 348.603 185.817 348.777 185.927C349.635 186.472 350.35 187.232 350.928 188.062C351.502 188.887 351.973 189.682 352.355 190.604C352.639 191.288 352.817 192.163 353.316 192.724C353.539 192.974 355.196 193.125 355.733 192.907C356.269 192.688 356.871 192.121 357.051 191.766C357.236 191.402 357.28 191.002 357.201 190.604C357.154 190.369 357.06 190.151 357.008 189.92C356.964 189.727 356.925 189.544 356.831 189.367C356.652 189.032 356.348 188.79 355.98 188.69C356.363 188.337 356.68 187.915 356.899 187.444C357.127 186.954 357.32 186.358 357.374 185.821C357.419 185.384 357.35 184.932 357.111 184.556C356.86 184.163 356.416 183.906 356.032 183.66C356.619 183.201 357.121 182.642 357.535 182.024C358.338 180.821 358.835 179.305 358.427 177.871Z" fill="#582346"/>
<path fill-rule="evenodd" clip-rule="evenodd" d="M321.546 283.034L352.785 365.694L374.681 426.619H387.166L357.068 283.034L321.546 283.034Z" fill="#758D9B"/>
<path fill-rule="evenodd" clip-rule="evenodd" d="M313.825 283.034C313.486 311.396 313.731 349.581 312.94 351.349C312.412 352.528 296.006 365.957 263.722 391.637L270.157 402.58C308.486 377.862 328.631 363.857 330.59 360.563C333.53 355.624 348.297 310.167 355.98 283.034H313.825Z" fill="#586E7A"/>
<path fill-rule="evenodd" clip-rule="evenodd" d="M252.401 399.001L263.27 390.728L272.04 401.18C272.715 409.059 275.323 417.896 279.866 427.69L277.876 429.36L262.006 410.448L257.572 403.142L256.577 403.978L252.401 399.001Z" fill="#191847"/>
<path fill-rule="evenodd" clip-rule="evenodd" d="M373.523 438.313L374.172 424.669H387.816C394.286 429.217 402.732 432.899 413.155 435.714V438.313H388.466L380.02 437.014V438.313H373.523Z" fill="#191847"/>
<path fill-rule="evenodd" clip-rule="evenodd" d="M377.419 257.239L403.071 253.74C408.203 250.886 412.923 248.953 417.233 247.943C418.446 247.908 420.376 248.349 417.501 250.745C414.627 253.141 411.711 255.792 412.223 257.07C412.735 258.349 415.408 257.874 415.851 259.84C416.146 261.152 411.808 261.365 402.836 260.48L382.021 268.732L377.419 257.239ZM296.836 263.177L311.063 263.23C295.463 298.336 287.328 316.717 286.66 318.373C285.157 322.099 288.338 327.773 289.699 330.822C285.268 332.805 285.74 325.462 280.15 328.063C275.048 330.436 271.167 334.737 265.273 331.1C264.548 330.653 263.754 328.969 265.673 327.653C270.453 324.376 277.342 318.639 278.273 316.75C279.542 314.175 285.73 296.317 296.836 263.177Z" fill="#997659"/>
<path fill-rule="evenodd" clip-rule="evenodd" d="M335.805 218.055L346.944 218.797C349.687 243.617 364.63 259.294 398.087 253.986L402.532 285.948C371.262 289.99 343.838 277.47 338.217 243.574C336.762 234.8 335.613 225.668 335.805 218.055Z" fill="#343434"/>
<path fill-rule="evenodd" clip-rule="evenodd" d="M330.309 214.817L347.187 218.682C347.187 247.71 356.434 266.231 361.176 287.573H315.595C314.953 294.948 314.559 302.528 314.354 310.313H280.224C287.958 269.163 304.282 237.328 329.195 214.806H330.301L330.309 214.817Z" fill="#343434"/>
<path fill-rule="evenodd" clip-rule="evenodd" d="M322.787 246.16C321.612 264.249 322.303 278.053 324.859 287.573H315.595C316.867 272.964 319.112 259.16 322.787 246.16L322.787 246.16Z" fill="black" fill-opacity="0.1"/>
<path fill-rule="evenodd" clip-rule="evenodd" d="M607.489 174.293C610.599 170.778 612.705 166.471 612.353 161.643C611.339 147.735 591.229 150.795 587.317 157.815C583.406 164.834 583.87 182.64 588.926 183.895C590.942 184.395 595.237 183.169 599.609 180.633L596.865 199.321H613.066L607.489 174.293Z" fill="#B28B67"/>
<path fill-rule="evenodd" clip-rule="evenodd" d="M598.798 163.179C598.178 171.496 596.538 175.655 593.877 175.655C589.885 175.655 586.499 173.215 584.748 173.215C583.471 173.215 583.756 174.753 584.602 175.894C585.3 176.834 588.7 177.741 588.7 179.2C588.7 180.659 586.014 179.53 586.014 180.395C586.014 181.826 585.542 184.517 588.122 184.517C590.733 184.517 598.218 183.601 599.501 179.87C600.329 177.463 600.864 172.474 601.107 164.904C601.265 164.885 601.426 164.876 601.59 164.876C603.827 164.876 605.64 166.622 605.64 168.776C605.64 169.869 605.173 170.857 604.42 171.565C605.357 172.839 606.408 174.169 607.611 175.542C612.133 172.93 615.488 165.285 611.067 157.941C609.846 154.343 607.079 152.421 603.813 151.529C601.166 150.463 598.419 150.343 596.1 150.982C591.555 151.357 587.495 152.692 586.345 153.484C586.345 157.627 587.179 158.857 594.301 158.748C596.052 159.638 597.397 161.17 598.798 163.179Z" fill="#191847"/>
<path fill-rule="evenodd" clip-rule="evenodd" d="M532.813 265.023C527.966 258.695 515.851 262.884 515.858 268.123C515.877 281.879 528.916 347.181 529.597 351.304C530.277 355.427 537.57 356.775 537.995 351.624C538.671 343.427 539.926 315.011 538.67 301.792C538.303 297.93 537.916 294.198 537.526 290.701C544.379 302.553 554.799 319.305 568.787 340.956L576.562 337.536C570.457 318.172 565.451 304.501 561.544 296.524C554.854 282.865 548.581 271.169 545.941 267.048C542.454 261.606 536.798 262.328 532.813 265.023Z" fill="#B28B67"/>
<path fill-rule="evenodd" clip-rule="evenodd" d="M576.006 326.782L549.322 265.927C542.93 256.028 525.008 267.942 527.187 273.683C532.137 286.719 557.307 328.92 558.781 332.803L576.006 326.782Z" fill="#1F28CF"/>
<path fill-rule="evenodd" clip-rule="evenodd" d="M515.183 272.874C515.183 290.123 523.036 330.669 523.042 334.468L542.066 333.85C538.741 298.598 537.338 280.852 537.859 280.613C539.031 280.076 585.887 286.856 599.94 287.368C620.204 288.107 628.587 276.138 629.268 253.425H590.015C556.45 257.283 534.39 259.965 523.834 261.474C517.056 262.442 515.183 268.122 515.183 272.874Z" fill="#2B44FF"/>
<path fill-rule="evenodd" clip-rule="evenodd" d="M557.227 323.417L552.902 324.435C547.155 325.788 543.699 331.431 545.181 337.038L546.524 342.115C548.007 347.722 553.868 351.171 559.614 349.818L563.94 348.799C569.687 347.446 573.143 341.804 571.66 336.196L570.318 331.12C568.835 325.513 562.974 322.064 557.227 323.417ZM561.759 328.438C563.196 328.1 564.661 328.962 565.032 330.364L567.37 339.207C567.741 340.609 566.877 342.019 565.44 342.358L555.082 344.796C553.646 345.135 552.181 344.272 551.81 342.871L549.471 334.028C549.101 332.626 549.965 331.215 551.401 330.877L561.759 328.438Z" fill="#C5CFD6"/>
<path fill-rule="evenodd" clip-rule="evenodd" d="M539.027 341.91C539.782 343.851 540.16 345.303 540.16 346.266C540.16 347.438 539.957 349.149 539.551 351.397C538.139 351.397 525.448 351.397 501.477 351.397C500.488 348.248 501.059 346.548 503.19 346.297C505.322 346.046 507.093 345.819 508.503 345.617L526.2 338.021C526.54 337.875 526.939 338.022 527.091 338.35C527.094 338.356 527.096 338.362 527.099 338.367L528.236 341.024C530.21 341.91 531.813 342.353 533.047 342.353C534.049 342.353 535.434 341.964 537.2 341.184L537.2 341.184C537.878 340.885 538.679 341.171 538.99 341.824C539.003 341.852 539.016 341.881 539.027 341.91Z" fill="#E4E4E4"/>
<path d="M506.069 351.397H537.122C538.426 351.397 539.484 352.415 539.484 353.672C539.484 354.928 538.426 355.946 537.122 355.946H506.069C504.764 355.946 503.706 354.928 503.706 353.672C503.706 352.415 504.764 351.397 506.069 351.397Z" fill="#2F3676"/>
<path fill-rule="evenodd" clip-rule="evenodd" d="M631.292 257.162H559.061C555.333 257.162 552.311 260.072 552.311 263.661V295.506H635.343C636.834 295.506 638.043 294.342 638.043 292.906V263.661C638.043 260.072 635.021 257.162 631.292 257.162Z" fill="#2F3676"/>
<path fill-rule="evenodd" clip-rule="evenodd" d="M559.061 257.162H557.58C554.274 257.162 551.455 259.467 550.919 262.608L536.109 349.447H543.323" fill="#2F3676"/>
<path d="M539.485 362.445C532.774 362.445 527.334 357.208 527.334 350.747C527.334 344.286 532.774 339.049 539.485 339.049C546.196 339.049 551.636 344.286 551.636 350.747C551.636 357.208 546.196 362.445 539.485 362.445Z" fill="#191847"/>
<path fill-rule="evenodd" clip-rule="evenodd" d="M629.268 361.145C657.603 361.145 680.572 339.031 680.572 311.753C680.572 284.474 657.603 262.361 629.268 262.361C600.933 262.361 577.964 284.474 577.964 311.753C577.964 339.031 600.933 361.145 629.268 361.145ZM629.268 352.047C606.153 352.047 587.414 334.006 587.414 311.753C587.414 289.499 606.153 271.459 629.268 271.459C652.383 271.459 671.121 289.499 671.121 311.753C671.121 334.006 652.383 352.047 629.268 352.047Z" fill="#191847"/>
<path d="M626.567 268.86H631.968V354.646H626.567V268.86Z" fill="#191847"/>
<path d="M596.808 282.342L598.718 280.504C599.245 279.996 600.1 279.996 600.627 280.504L661.726 339.326C662.253 339.834 662.253 340.656 661.726 341.164L659.817 343.002C659.29 343.51 658.435 343.51 657.908 343.002L596.808 284.18C596.281 283.673 596.281 282.85 596.808 282.342Z" fill="#191847"/>
<path d="M584.714 313.053V310.453C584.714 309.736 585.318 309.154 586.064 309.154H672.471C673.217 309.154 673.821 309.736 673.821 310.453V313.053C673.821 313.771 673.217 314.353 672.471 314.353H586.064C585.318 314.353 584.714 313.771 584.714 313.053Z" fill="#191847"/>
<path d="M598.718 343.003L596.809 341.164C596.281 340.657 596.281 339.834 596.809 339.326L657.908 280.504C658.435 279.997 659.29 279.997 659.817 280.504L661.727 282.342C662.254 282.85 662.254 283.673 661.727 284.181L600.627 343.003C600.1 343.51 599.245 343.51 598.718 343.003Z" fill="#191847"/>
<path fill-rule="evenodd" clip-rule="evenodd" d="M561.234 244.951L539.701 260.174C533.86 261.691 528.981 263.579 525.063 265.837C524.137 266.649 523.018 268.293 526.857 268.009C530.696 267.725 534.747 267.592 535.276 268.853C535.806 270.113 533.483 271.62 534.554 273.321C535.267 274.455 538.64 271.612 544.67 264.792L565.994 256.279L561.234 244.951ZM643.91 245.476L629.803 245.53C638.514 272.6 643.216 286.964 643.91 288.62C645.472 292.347 642.167 298.023 640.753 301.073C645.357 303.057 644.867 295.712 650.674 298.313C655.975 300.687 660.008 304.989 666.132 301.351C666.885 300.904 667.71 299.22 665.717 297.903C660.75 294.625 653.592 288.886 652.625 286.997C651.306 284.421 648.401 270.581 643.91 245.476Z" fill="#B28B67"/>
<path fill-rule="evenodd" clip-rule="evenodd" d="M603.821 188.488L597.984 187.524C576.326 205.537 567.43 240.14 540.882 258.471L547.272 266.096C593.327 260.606 604.742 218.398 603.821 188.488Z" fill="#E87613"/>
<path fill-rule="evenodd" clip-rule="evenodd" d="M629.268 259.111C605.862 259.111 588.646 259.111 577.618 259.111C575.258 259.111 575.703 255.83 576.044 254.175C579.981 235.068 595.352 214.471 595.352 187.272L610.25 185.023C622.573 204.103 626.834 227.594 629.268 259.111Z" fill="#DDE3E9"/>
<path fill-rule="evenodd" clip-rule="evenodd" d="M628.852 203.777C631.016 203.179 632.729 201.782 633.992 199.588C639.438 190.128 637.471 184.92 631.652 183.208C625.832 181.496 620.643 185.023 611.371 185.023C610.867 185.023 610.405 185.053 609.985 185.114L605.322 185.37C591.94 229.031 588.25 258.16 594.25 272.759H634.902C637.311 278.166 639.616 282.715 641.817 286.407H652.894C653.936 253.956 645.922 226.412 628.852 203.777Z" fill="#FF9B21"/>
<path fill-rule="evenodd" clip-rule="evenodd" d="M626.051 250.336C624.772 260.635 622.694 268.109 619.817 272.759H634.903C632.093 266.452 629.142 258.978 626.051 250.336V250.336Z" fill="black" fill-opacity="0.1"/>
<defs>
<clipPath id="clip0_1262_8143">
<rect width="26.1895" height="35.4329" fill="white" transform="matrix(-1 0 0 1 522.095 145)"/>
</clipPath>
</defs>
</svg>
