<svg width="767" height="421" viewBox="0 0 767 421" fill="none" xmlns="http://www.w3.org/2000/svg">
<mask id="mask0_1235_8341" style="mask-type:alpha" maskUnits="userSpaceOnUse" x="0" y="0" width="767" height="421">
<rect width="767" height="421" fill="#EFEFEF"/>
</mask>
<g mask="url(#mask0_1235_8341)">
<path fill-rule="evenodd" clip-rule="evenodd" d="M16.6875 526.992C-29.9806 444.923 12.4908 323.345 114.654 248.805C208.383 180.417 343.576 224.055 464.425 200.312C558.566 181.815 643.226 117.98 732.497 127.414C844.345 139.234 962.605 175.61 986.162 255.448C1009.8 335.545 911.952 420.034 842.058 498.731C775.837 573.292 712.844 663.115 601.256 688.831C492.487 713.898 419.273 644.199 324.586 617.985C216.664 588.107 60.8174 604.597 16.6875 526.992Z" fill="#71767A"/>
</g>
<path fill-rule="evenodd" clip-rule="evenodd" d="M351.501 181.924H353.014C356.392 181.924 359.272 186.347 359.82 192.374L374.95 359H367.58" fill="#6C3D21"/>
<path fill-rule="evenodd" clip-rule="evenodd" d="M267.167 67.4886C263.441 63.1152 260.919 57.7557 261.341 51.7501C262.555 34.4465 286.642 38.253 291.327 46.9864C296.013 55.7198 295.456 77.8728 289.401 79.4337C286.986 80.0562 281.841 78.5314 276.605 75.3754L279.892 98.6263H260.486L267.167 67.4886Z" fill="#B28B67"/>
<path fill-rule="evenodd" clip-rule="evenodd" d="M277.575 53.6611C278.318 64.0084 280.283 69.1821 283.47 69.1821C288.251 69.1821 292.307 66.1471 294.405 66.1471C295.934 66.1471 295.593 68.0607 294.579 69.4795C293.743 70.6501 289.67 71.7784 289.67 73.5931C289.67 75.4079 292.888 74.0039 292.888 75.0802C292.888 76.8606 293.453 80.2079 290.363 80.2079C287.236 80.2079 278.27 79.0683 276.733 74.4271C275.742 71.4318 275.101 65.2249 274.81 55.8065C274.62 55.7839 274.427 55.7723 274.231 55.7723C271.552 55.7723 269.38 57.9444 269.38 60.6237C269.38 61.9839 269.94 63.2133 270.842 64.0942C269.719 65.6787 268.461 67.3339 267.019 69.0418C261.604 65.7926 257.585 56.2809 262.88 47.1436C264.343 42.6673 267.656 40.2764 271.569 39.1662C274.739 37.8403 278.029 37.6908 280.807 38.4857C286.252 38.9527 291.113 40.613 292.491 41.599C292.491 46.7537 291.493 48.2832 282.961 48.1483C280.865 49.2554 279.254 51.1618 277.575 53.6611Z" fill="#C6C6C6"/>
<path fill-rule="evenodd" clip-rule="evenodd" d="M254.018 165.737L283.332 268.608L304.72 344.43H320.32L297.592 165.737H254.018Z" fill="#191847"/>
<path fill-rule="evenodd" clip-rule="evenodd" d="M246.178 165.737C245.5 218.758 243.188 247.677 242.476 252.494C241.764 257.311 231 287.957 210.182 344.43H226.343C252.844 290.253 267.638 259.608 270.725 252.494C273.811 245.38 283.335 216.461 297.68 165.737H246.178Z" fill="#2F3676"/>
<path fill-rule="evenodd" clip-rule="evenodd" d="M208.738 358.984L209.547 342.004H226.527C234.578 347.664 245.089 352.246 258.061 355.749V358.984H227.335L216.824 357.367V358.984H208.738Z" fill="#191847"/>
<path fill-rule="evenodd" clip-rule="evenodd" d="M302.532 358.984L303.34 342.004H320.32C328.372 347.664 338.883 352.246 351.854 355.749V358.984H321.129L310.617 357.367V358.984H302.532Z" fill="#191847"/>
<path fill-rule="evenodd" clip-rule="evenodd" d="M322.227 152.485L346.635 173.177C353.481 175.548 359.148 178.299 363.634 181.429C364.669 182.514 365.863 184.648 361.301 183.975C356.739 183.301 351.91 182.798 351.168 184.318C350.426 185.838 353.071 187.903 351.644 189.925C350.692 191.272 346.91 187.462 340.296 178.494L315.556 166.147L322.227 152.485ZM211.703 143.531L226.024 145.611C210.652 178.963 202.41 196.602 201.3 198.527C198.802 202.859 201.74 210.403 202.888 214.396C197.084 216.072 198.938 207.105 191.599 209.341C184.9 211.383 179.372 216.011 172.738 210.508C171.922 209.831 171.235 207.619 173.828 206.329C180.287 203.118 189.77 197.241 191.244 195.075C193.254 192.121 200.074 174.94 211.703 143.531Z" fill="#B28B67"/>
<path fill-rule="evenodd" clip-rule="evenodd" d="M271.559 85.1491L280.433 82.2145C292.471 112.285 310.423 141.38 340.418 165.955L333.001 178.752C306.639 163.224 281.685 151.161 271.559 127.86C268.161 120.039 271.282 94.5001 271.559 85.1491Z" fill="#005EA2"/>
<path fill-rule="evenodd" clip-rule="evenodd" d="M241.081 169.78C266.5 172.475 286.509 172.475 301.105 169.78C302.914 169.446 303.199 166.418 302.36 164.363C289.3 132.363 280.345 104.441 280.345 82.2144C277.948 83.4225 273.755 83.6035 267.763 82.7575C251.662 105.663 244.26 131.944 241.081 169.78Z" fill="#465281"/>
<path fill-rule="evenodd" clip-rule="evenodd" d="M263.76 80.8378H270.47C272.033 90.0271 276.961 214.463 292.174 255.169H209.858C211.643 217.879 225.72 173.085 239.981 135.601C227.371 147.14 216.38 166.692 207.009 194.257L191.59 190.299C203.055 140.899 226.625 104.589 262.302 81.3707C262.38 81.1922 262.456 81.0146 262.533 80.8378H263.127C263.345 80.6976 263.564 80.5578 263.784 80.4185L263.76 80.8378V80.8378Z" fill="#005EA2"/>
<path fill-rule="evenodd" clip-rule="evenodd" d="M403.073 58.5408C399.045 54.8411 396.041 50.0701 395.743 44.3473C394.882 27.8583 418.081 28.6605 423.521 36.3681C428.961 44.0757 431.004 65.0699 425.464 67.2471C423.255 68.1153 418.218 67.2715 412.905 64.8972L418.707 86.4828L400.373 88.7339L403.073 58.5408Z" fill="#915B3C"/>
<path fill-rule="evenodd" clip-rule="evenodd" d="M411.903 28.1412C409.438 28.0416 402.898 28.5681 401.699 28.7156C400.932 28.8097 400.122 29.0869 399.582 28.4386C399.139 27.9078 399.156 26.9159 398.963 26.2605C398.738 25.4991 398.461 24.7544 398.182 24.0119C397.388 21.899 396.336 19.9252 394.983 18.117C392.443 14.7247 389.028 12.2426 384.955 11.0543C380.457 9.74234 375.571 9.91539 371.022 10.8521C366.153 11.8545 361.901 14.0244 357.445 16.1222C353.199 18.1212 348.636 19.2632 343.921 19.1205C339.17 18.9768 335.337 16.8824 331.11 14.9668C326.782 13.0056 321.984 11.9646 317.27 12.9182C312.87 13.8084 309 16.1456 305.628 19.0472C302.472 21.762 299.974 24.8687 298.85 28.9477C297.64 33.3354 298.205 37.9194 301.49 41.2624C306.253 46.1082 314.045 46.5557 320.37 45.6396C324.028 45.1099 327.548 43.998 330.861 42.3548C335.28 40.1634 338.933 36.9201 342.979 34.1558C344.878 32.8586 346.868 31.7403 348.989 30.8504C351.047 29.9866 353.113 29.4527 355.201 30.5035C357.41 31.6152 359.404 32.7288 361.845 33.2948C364.186 33.8378 366.616 34.0041 369.001 33.6924C373.642 33.0862 378.043 31.0767 382.435 29.5533C386.017 28.3112 389.857 27.0401 393.701 27.3393C395.305 27.4643 397.671 27.8382 398.436 29.3953C389.134 32.2878 386.842 44.513 390.585 52.8213C392.605 57.3056 401.976 61.687 405.058 58.8207C407.011 57.0048 405.459 55.1261 404.452 53.8839C402.523 51.5049 401.565 48.2624 404.329 46.1018C406.713 44.2384 409.87 47.5807 409.921 47.5704C410.622 47.4277 416.311 43.2197 419.903 37.6574C424.089 37.3935 424.383 34.5763 423.115 32.4575C421.848 30.3386 415.309 28.2791 411.903 28.1412Z" fill="#A9AEB1"/>
<path fill-rule="evenodd" clip-rule="evenodd" d="M406.65 151.66L434.843 248.811L448.103 321.753H461.413L448.127 151.66H406.65Z" fill="#784931"/>
<path fill-rule="evenodd" clip-rule="evenodd" d="M393.98 151.66C395.947 202.129 395.171 229.657 394.731 234.242C394.29 238.827 391.791 269.537 374.758 323.292H388.601C411.158 271.723 419.033 241.014 421.62 234.242C424.207 227.47 431.848 199.943 443.003 151.66H393.98Z" fill="#915B3C"/>
<path fill-rule="evenodd" clip-rule="evenodd" d="M406.045 151.66C413.378 185.09 426.062 238.452 444.096 311.747H463.562C465 236.517 458.884 187.003 448.292 151.66H406.045Z" fill="#69A1AC"/>
<path fill-rule="evenodd" clip-rule="evenodd" d="M393.882 151.66C395.808 202.129 390.815 251.851 375.349 312.533H396.119C418.717 261.734 434.914 212.257 445.984 151.66H393.882Z" fill="#71AEBA"/>
<path fill-rule="evenodd" clip-rule="evenodd" d="M372.785 333.298L373.549 320.983C378.021 322.291 383.622 321.778 390.353 319.444C397.59 324.57 406.701 328.071 417.684 329.945C418.522 330.088 419.086 330.884 418.943 331.722C418.934 331.776 418.921 331.83 418.906 331.883L417.85 335.607H390.353H374.313L372.785 333.298Z" fill="#191847"/>
<path fill-rule="evenodd" clip-rule="evenodd" d="M445.132 333.298L445.896 320.983C450.368 322.291 455.97 321.778 462.7 319.444C469.937 324.57 479.048 328.071 490.032 329.945C490.87 330.088 491.433 330.884 491.29 331.722C491.281 331.776 491.269 331.83 491.254 331.883L490.198 335.607H462.7H446.66L445.132 333.298Z" fill="#191847"/>
<path fill-rule="evenodd" clip-rule="evenodd" d="M470.209 134.188L497.517 147.679C504.386 148.292 510.253 149.528 515.117 151.385C516.323 152.149 517.917 153.845 513.549 154.274C509.18 154.703 504.604 155.35 504.269 156.925C503.933 158.5 506.852 159.798 505.999 161.993C505.431 163.457 501.06 160.809 492.886 154.049L467.194 148.342L470.209 134.188ZM377.487 151.169L393.337 148.439C389.124 181.735 386.798 199.417 386.36 201.487C385.372 206.142 390.251 212.108 392.465 215.385C387.704 218.61 386.744 209.946 380.758 214.13C375.294 217.949 371.651 223.764 364.026 220.734C363.089 220.361 361.816 218.56 363.784 216.631C368.687 211.823 375.543 203.714 376.241 201.319C377.192 198.054 377.607 181.337 377.487 151.169Z" fill="#915B3C"/>
<path fill-rule="evenodd" clip-rule="evenodd" d="M410.781 76.7685L417.136 74.4887C445.158 91.2079 462.263 129.804 495.84 145.927L490.234 156.085C437.394 158.8 415.897 111.834 410.781 76.7685Z" fill="#7B82C6"/>
<path fill-rule="evenodd" clip-rule="evenodd" d="M396.733 164.172C423.012 159.538 442.343 156.13 454.725 153.946C457.375 153.479 456.201 149.741 455.478 147.877C447.127 126.373 425.633 105.394 420.04 73.6733L402.85 73.9998C392.938 98.6919 392.984 126.933 396.733 164.172Z" fill="#DDE3E9"/>
<path fill-rule="evenodd" clip-rule="evenodd" d="M385.82 99.5559C383.267 99.286 381.056 97.9964 379.186 95.6873C371.127 85.7332 372.264 79.2698 378.446 76.1211C384.628 72.9725 391.18 76.0576 401.59 74.222C402.157 74.1221 402.681 74.0662 403.165 74.0541L408.454 73.4296C432.457 121.7 442.591 154.943 438.856 173.157L393.212 181.205C391.619 187.988 389.967 193.75 388.255 198.491L375.817 200.684C367.973 163.043 371.308 129.334 385.82 99.5559Z" fill="#8991DC"/>
<path fill-rule="evenodd" clip-rule="evenodd" d="M398.54 153.301C402.093 165.059 405.964 173.365 410.151 178.218L393.212 181.205C395.069 173.293 396.845 163.992 398.54 153.301L398.54 153.301Z" fill="black" fill-opacity="0.1"/>
<path fill-rule="evenodd" clip-rule="evenodd" d="M639.444 131.12L612.071 200.401L593.712 258.973H586.462L614.529 131.12L639.444 131.12Z" fill="#E8C5AD"/>
<path fill-rule="evenodd" clip-rule="evenodd" d="M644.969 131.389C645.26 155.735 649.511 188.513 650.19 190.03C650.643 191.042 666.273 203.908 697.081 228.628L692.088 233.972C655.738 212.777 636.722 200.767 635.04 197.94C632.516 193.699 624.302 154.68 617.707 131.389H644.969Z" fill="#E8C5AD"/>
<path fill-rule="evenodd" clip-rule="evenodd" d="M697.749 226.845C699.426 227.438 700.581 228 701.214 228.531C701.985 229.178 703.001 230.249 704.264 231.746C703.514 232.64 696.774 240.672 684.045 255.842C681.449 254.732 680.635 253.432 681.602 251.945C682.569 250.457 683.36 249.211 683.976 248.207L688.381 232.818C688.466 232.522 688.774 232.351 689.07 232.436C689.076 232.437 689.081 232.439 689.086 232.44L691.436 233.186C693.067 232.426 694.21 231.655 694.865 230.874C695.397 230.24 695.876 229.149 696.302 227.601L696.302 227.601C696.465 227.007 697.079 226.658 697.673 226.821C697.698 226.828 697.724 226.836 697.749 226.845Z" fill="#E4E4E4"/>
<path fill-rule="evenodd" clip-rule="evenodd" d="M596.694 256.538C597.318 258.204 597.63 259.45 597.63 260.277C597.63 261.282 597.462 262.75 597.127 264.679C595.96 264.679 585.475 264.679 565.672 264.679C564.854 261.977 565.326 260.518 567.087 260.303C568.848 260.087 570.311 259.893 571.476 259.719L586.096 253.201C586.378 253.076 586.707 253.202 586.833 253.484C586.835 253.488 586.837 253.493 586.839 253.498L587.779 255.778C589.409 256.538 590.734 256.919 591.753 256.919C592.582 256.919 593.725 256.584 595.184 255.915L595.184 255.915C595.744 255.659 596.406 255.905 596.663 256.465C596.674 256.489 596.684 256.513 596.694 256.538Z" fill="#E4E4E4"/>
<path fill-rule="evenodd" clip-rule="evenodd" d="M621.053 253.209L586.585 249.468L612.13 131.389H643.002L621.053 253.209Z" fill="#2B44FF"/>
<path fill-rule="evenodd" clip-rule="evenodd" d="M689.951 220.008L667.342 246.769C643.528 220.76 629.644 203.79 625.691 195.857C621.738 187.924 618.184 166.435 615.03 131.389H649.786C651.509 162.221 652.671 178.354 653.271 179.789C653.87 181.224 666.097 194.63 689.951 220.008Z" fill="#1F28CF"/>
<path fill-rule="evenodd" clip-rule="evenodd" d="M635.69 59.6872C638.321 56.5993 640.102 52.815 639.804 48.5746C638.947 36.3568 621.939 39.0445 618.631 45.211C615.323 51.3775 615.716 67.0194 619.991 68.1215C621.697 68.561 625.329 67.4844 629.026 65.256L626.706 81.673H640.407L635.69 59.6872Z" fill="#E8C5AD"/>
<path fill-rule="evenodd" clip-rule="evenodd" d="M636.743 62.4376C638.463 54.7867 643.362 49.5714 642.614 46.1518C642.115 43.8721 640.786 42.4544 638.626 41.8988C637.508 37.379 633.905 35.4566 627.816 36.1315C618.682 37.1439 613.107 40.9371 615.514 49.2839C617.727 49.2839 620.399 48.4836 624.093 49.8549C625.266 50.29 626.104 51.6392 626.609 53.9027H628.278C629.898 51.2166 631.496 50.2295 633.071 50.9415C634.646 51.6534 635.004 53.3828 634.145 56.1296L634.967 62.4376H636.743Z" fill="#15A4A6"/>
<path fill-rule="evenodd" clip-rule="evenodd" d="M590.673 124.473L574.875 139.885C570.278 141.846 566.512 144.011 563.576 146.381C562.915 147.177 562.196 148.703 565.303 148.02C568.41 147.337 571.708 146.759 572.292 147.769C572.876 148.779 571.155 150.327 572.234 151.65C572.954 152.531 575.373 149.727 579.492 143.238L595.92 133.553L590.673 124.473ZM667.927 110.525L655.715 110.571C665.016 140.705 669.954 156.483 670.527 157.905C671.818 161.103 669.087 165.974 667.919 168.591C671.723 170.293 671.317 163.99 676.115 166.222C680.495 168.26 683.826 171.951 688.886 168.829C689.508 168.446 690.19 167 688.543 165.871C684.439 163.057 678.526 158.133 677.727 156.512C676.638 154.302 673.371 138.973 667.927 110.525Z" fill="#E8C5AD"/>
<path fill-rule="evenodd" clip-rule="evenodd" d="M630.714 75.8819L625.892 75.0548C618.295 101.909 579.262 120.214 576.866 130.253C575.988 133.934 578.637 135.795 577.268 136.917L583.537 141.505C584.598 140.267 586.863 142.532 591.594 140.948C596.324 139.363 630.714 107.68 630.714 75.8819Z" fill="#191847"/>
<path fill-rule="evenodd" clip-rule="evenodd" d="M622.602 79.4523C623.158 115.005 602.606 124.074 607.184 138.337C610.964 150.114 647.149 162.775 653.41 151.23C655.945 146.557 657.095 140.905 657.225 134.76C658.825 139.481 660.091 143.545 661.022 146.953C662.628 152.831 668.855 153.765 668.855 156.03L677.058 153.765C676.502 150.689 680.369 149.191 679.332 142.318C674.686 111.523 662.203 89.2011 641.883 75.3516L641.673 72.3453C641.587 71.1163 640.521 70.1896 639.292 70.2755L624.27 71.3259C623.041 71.4119 622.115 72.4779 622.201 73.7069L622.602 79.4523Z" fill="#2F3676"/>
</svg>
