<svg width="773" height="346" viewBox="0 0 773 346" fill="none" xmlns="http://www.w3.org/2000/svg">
<mask id="mask0_1236_8439" style="mask-type:alpha" maskUnits="userSpaceOnUse" x="0" y="0" width="773" height="346">
<rect width="773" height="346" fill="#EFEFEF"/>
</mask>
<g mask="url(#mask0_1236_8439)">
<path fill-rule="evenodd" clip-rule="evenodd" d="M13.9283 182.161C51.1631 115.57 334.529 215.969 448.769 202.02C543.846 190.411 602.206 130.53 711.9 155.376C830.779 182.302 953.713 252.477 1001.5 327.215C1045.77 396.467 956.751 437.36 928.467 494.099C904.402 542.375 912.023 601.765 850.498 630.131C769.696 667.384 666.904 708.095 545.15 670.825C422.6 633.311 179.171 569.425 105.262 494.556C27.2452 415.525 -23.0167 248.233 13.9283 182.161Z" fill="#5742C5"/>
</g>
<path fill-rule="evenodd" clip-rule="evenodd" d="M230.238 27.8326C228.22 23.5707 227.326 18.8006 228.833 14.1752C233.174 0.847819 251.032 9.17619 252.934 17.0767C254.836 24.9772 250.049 42.2606 245.064 42.1452C243.076 42.0992 239.402 39.7611 235.978 36.1211L233.944 55.1187L218.954 50.8188L230.238 27.8326Z" fill="#E3B995"/>
<path fill-rule="evenodd" clip-rule="evenodd" d="M250.724 11.4702C250.432 11.163 249.823 10.5169 249.499 10.2529C249.422 10.1898 248.928 9.57887 248.91 9.57971C248.414 9.60541 246.945 9.80451 246.706 10.272C246.679 10.3048 246.653 10.3354 246.628 10.3617C246.354 10.6544 246.093 10.9603 245.839 11.2727C245.281 11.9585 244.764 12.6941 244.262 13.4273C243.284 14.855 242.373 16.3417 241.502 17.8437C240.615 19.3727 239.794 20.9415 238.929 22.4841C237.684 24.7038 236.274 26.8129 235.033 29.0329C234.241 30.4504 233.626 31.9378 233.337 33.5479C233.334 33.5672 233.33 33.5861 233.327 33.6059C233.325 33.6139 233.324 33.622 233.323 33.6301C233.28 33.8781 233.245 34.129 233.219 34.383C233.197 34.6004 233.175 34.8186 233.155 35.0373C234.034 34.0221 234.806 32.8469 235.588 31.7457C235.665 31.6379 235.74 31.5286 235.813 31.4186C236.028 31.2115 236.246 31.0071 236.466 30.8041C237.848 29.524 239.233 28.2508 240.582 26.9307C243.009 24.5565 245.434 22.1172 248.12 20.068C248.912 19.4629 249.716 18.8737 250.503 18.2601C250.951 17.9109 251.392 17.5517 251.824 17.1814C252.133 16.9167 253.406 16.0497 253.222 15.2569C253.128 14.8512 251.48 12.267 250.724 11.4702Z" fill="#D94496"/>
<path fill-rule="evenodd" clip-rule="evenodd" d="M249.682 10.5763C249.987 10.7861 250.002 10.0333 249.741 9.69202C248.532 8.11097 242.914 6.05037 237.671 5.67253C234.159 5.41941 229.84 6.05925 226.612 7.54878C223.702 8.89162 221.235 11.6754 219.597 14.5791C217.878 17.6281 216.881 21.0351 216.531 24.5674C216.454 25.3433 216.511 26.1202 216.46 26.8864C216.402 27.7494 216.28 28.5612 216.343 29.435C216.381 29.97 216.535 30.5276 216.549 31.0586C216.566 31.6645 216.34 32.156 216.083 32.6938C215.665 33.5702 215.202 34.4319 214.652 35.2259C213.825 36.418 212.915 37.4954 212.194 38.7718C211.235 40.47 207.65 45.8633 208.766 47.9344L237.791 56.2671C237.568 54.0288 235.971 51.0117 236.07 48.7128C236.128 47.3586 236.702 44.5294 236.7 44.42C237.194 39.6447 236.464 37.0874 235.863 36.0627C235.262 35.038 234.258 34.4877 234.375 33.7823C234.862 30.8649 236.66 28.452 238.143 26.0247C239.911 23.1317 241.438 20.0853 243.233 17.2118C244.028 15.9393 248.098 9.48691 249.682 10.5763Z" fill="#61DED5"/>
<path fill-rule="evenodd" clip-rule="evenodd" d="M238.759 10.9259C236.775 14.1504 236.066 15.9719 235.091 20.8754L234.552 20.721C234.689 15.869 236.66 11.8296 238.082 10.7318L238.759 10.9259ZM221.743 15.8373C222.525 21.4676 222.712 24.7134 227.403 30.4328L226.884 30.6201C222.03 25.7285 221.354 21.3595 221.26 15.924L221.743 15.8373ZM231.434 13.1144C230.571 20.5399 229.818 24.707 232.697 33.9258L232.142 33.9382C228.868 25.6914 229.472 19.8998 230.944 13.0159L231.434 13.1144ZM220.761 32.8475L221.338 32.4296C226.872 36.0668 225.212 39.8253 231.784 45.9971L231.053 46.2052C225.118 41.5237 225.062 35.1156 220.761 32.8475Z" fill="black" fill-opacity="0.2"/>
<path fill-rule="evenodd" clip-rule="evenodd" d="M200.321 109.687C201.469 125.987 275.392 173.977 275.823 175.324C276.015 175.922 268.345 194.839 252.814 232.075L259.276 234.688C283.098 195.253 294.397 173.434 293.174 169.232C291.422 163.216 272.303 143.426 235.818 109.861L200.321 109.687Z" fill="#E3B995"/>
<path fill-rule="evenodd" clip-rule="evenodd" d="M254.515 223.666L265.065 227.663C287.311 201.538 296.032 179.983 294.442 169C293.382 161.678 274.329 141.921 237.284 109.727L199.565 109.727C200.852 147.476 269.37 175.468 270.286 177.076C271.202 178.685 262.183 194.44 254.515 223.666Z" fill="#A0CAA3"/>
<path fill-rule="evenodd" clip-rule="evenodd" d="M250.355 230.738C249.051 232.311 248.242 233.551 247.928 234.46C247.546 235.565 247.169 237.246 246.796 239.504C248.052 239.986 259.334 244.309 280.642 252.475C282.548 249.843 282.595 248.045 280.782 247.082C278.969 246.119 277.468 245.302 276.281 244.631L263.025 231.441C262.77 231.188 262.367 231.19 262.125 231.448C262.121 231.452 262.117 231.457 262.113 231.461L260.236 233.578C258.193 233.742 256.623 233.614 255.526 233.193C254.635 232.852 253.531 232.013 252.215 230.676L252.215 230.676C251.71 230.163 250.905 230.16 250.416 230.67C250.395 230.692 250.374 230.714 250.355 230.738Z" fill="#E4E4E4"/>
<path fill-rule="evenodd" clip-rule="evenodd" d="M208.821 109.687L175.89 191.969L143.524 261.531H151.161L234.705 109.687H208.821Z" fill="#E3B995"/>
<path fill-rule="evenodd" clip-rule="evenodd" d="M143.068 258.319C142.356 260.298 142 261.778 142 262.76C142 263.954 142.191 265.697 142.574 267.989C143.905 267.989 155.869 267.989 178.467 267.989C179.4 264.779 178.861 263.046 176.852 262.791C174.842 262.535 173.173 262.304 171.844 262.097L155.161 254.357C154.84 254.208 154.463 254.358 154.32 254.692C154.318 254.698 154.315 254.703 154.313 254.709L153.241 257.417C151.38 258.32 149.869 258.772 148.705 258.772C147.76 258.772 146.455 258.374 144.79 257.58L144.79 257.58C144.151 257.275 143.396 257.567 143.103 258.232C143.09 258.261 143.079 258.29 143.068 258.319Z" fill="#E4E4E4"/>
<path fill-rule="evenodd" clip-rule="evenodd" d="M146.447 247.08L163.415 250.392C176.534 230.317 231.439 148.005 237.459 109.687H199.685C179.582 137.387 158.953 226.674 146.447 247.08Z" fill="#B5E2B8"/>
<path fill-rule="evenodd" clip-rule="evenodd" d="M263.328 107.318L278.18 128.495C282.984 131.737 286.814 135.039 289.669 138.402C290.26 139.464 290.778 141.381 287.409 139.933C284.039 138.485 280.433 137.118 279.582 138.163C278.731 139.208 280.373 141.363 278.904 142.664C277.925 143.532 275.736 139.776 272.336 131.396L255.679 116.711L263.328 107.318ZM183.901 94.9804L197.024 97.5019C184.471 122.853 177.735 136.29 176.817 137.813C174.751 141.24 176.896 147.453 177.711 150.729C173.099 151.892 174.762 144.686 168.929 146.252C163.604 147.682 159.144 151.247 154.04 146.564C153.413 145.988 152.921 144.171 154.993 143.214C160.155 140.828 167.76 136.383 168.971 134.677C170.621 132.35 175.598 119.118 183.901 94.9804Z" fill="#E3B995"/>
<path fill-rule="evenodd" clip-rule="evenodd" d="M230.696 44.5286L236.309 44.5935C241.714 70.5348 254.487 95.5888 274.626 119.756L253.301 138.554C234.544 106.015 224.907 74.2764 230.696 44.5286Z" fill="#42C7C9"/>
<path fill-rule="evenodd" clip-rule="evenodd" d="M195.455 110.78L244.084 119.938C237.47 89.6381 235.789 64.6404 239.04 44.9446L224.743 39.9339C210.065 56.8352 202.933 79.7041 195.455 110.78Z" fill="#DDE3E9"/>
<path fill-rule="evenodd" clip-rule="evenodd" d="M224.536 40.0266C224.538 40.0234 224.541 40.0202 224.543 40.017L225.502 40.1974C226.642 40.4539 228.376 40.8558 230.705 41.4033L232.531 52.4954C230.807 65.2757 228.768 91.3017 226.414 130.573L194.511 124.567C194.155 127.243 193.85 129.954 193.594 132.701L169.873 128.235C180.22 87.739 198.437 58.332 224.526 40.0137L224.536 40.0266L224.536 40.0266Z" fill="#42C7C9"/>
<path fill-rule="evenodd" clip-rule="evenodd" d="M202.131 90.9743C200.289 107.76 200.677 119.641 203.294 126.62L194.32 124.938C195.91 112.911 198.513 101.59 202.131 90.9743L202.131 90.9743Z" fill="black" fill-opacity="0.1"/>
<path fill-rule="evenodd" clip-rule="evenodd" d="M204.777 105.988L221.654 101.461L220.419 108.929L204.777 105.988Z" fill="white" fill-opacity="0.2"/>
<path fill-rule="evenodd" clip-rule="evenodd" d="M542.094 150.884C533.314 153.34 525.739 154.568 519.369 154.568C512.999 154.568 507.083 152.677 501.619 148.895C510.211 146.375 517.286 145.114 522.846 145.114C528.406 145.114 534.821 147.038 542.094 150.884Z" fill="#1F28CF"/>
<path fill-rule="evenodd" clip-rule="evenodd" d="M511.769 158.107C511.854 157.98 511.925 157.842 511.982 157.692C513.155 154.588 531.953 121.107 533.825 114.986H512.662C511.238 119.64 504.83 148.846 503.928 154.674C501.082 163.865 495.223 193.634 494.475 195.696C493.689 197.865 498.116 200.125 499.296 197.458C501.173 193.214 505.645 181.472 507.637 174.302C509.504 167.58 511.024 161.533 511.769 158.107Z" fill="#915B3C"/>
<path fill-rule="evenodd" clip-rule="evenodd" d="M529.083 162.195C537.677 164.367 569.112 168.294 571.269 168.91C573.488 169.543 575.434 164.969 572.691 163.979C568.327 162.402 556.301 158.759 549.009 157.273C543.145 156.077 537.793 155.102 534.2 154.53C534.505 144.438 535.896 120.217 534.984 114.986H516.258C517.133 120.002 524.526 156.604 525.9 160.268C526.336 161.576 527.637 162.154 529.083 162.195Z" fill="#915B3C"/>
<path fill-rule="evenodd" clip-rule="evenodd" d="M572.492 162.761C573.639 162.547 574.48 162.488 575.015 162.582C575.665 162.696 576.594 162.972 577.803 163.408C577.67 164.162 576.475 170.938 574.218 183.737C572.379 183.957 571.49 183.486 571.551 182.323C571.613 181.16 571.654 180.193 571.674 179.42L569.128 169.229C569.079 169.033 569.198 168.834 569.394 168.785C569.398 168.784 569.401 168.784 569.404 168.783L570.985 168.435C571.662 167.468 572.059 166.656 572.175 165.997C572.269 165.462 572.184 164.684 571.918 163.665L571.918 163.665C571.815 163.274 572.05 162.874 572.441 162.772C572.458 162.768 572.475 162.764 572.492 162.761Z" fill="#E4E4E4"/>
<path fill-rule="evenodd" clip-rule="evenodd" d="M500.639 197.113C501.048 198.206 501.253 199.024 501.253 199.566C501.253 200.226 501.143 201.189 500.923 202.455C500.158 202.455 493.277 202.455 480.281 202.455C479.745 200.682 480.055 199.725 481.21 199.583C482.366 199.442 483.326 199.314 484.09 199.2L493.685 194.923C493.869 194.841 494.086 194.924 494.168 195.108C494.169 195.112 494.171 195.115 494.172 195.118L494.789 196.614C495.859 197.113 496.728 197.363 497.397 197.363C497.94 197.363 498.691 197.143 499.649 196.704L499.649 196.704C500.016 196.536 500.45 196.697 500.619 197.065C500.626 197.08 500.633 197.097 500.639 197.113Z" fill="#E4E4E4"/>
<path fill-rule="evenodd" clip-rule="evenodd" d="M534.923 114.986C526.672 112.625 518.864 112.625 511.5 114.986C508.939 126.674 502.714 131.313 501.619 149.234C514.062 155.417 529.434 144.824 542.243 150.854C545.903 142.42 540.779 122.109 534.923 114.986Z" fill="#2B44FF"/>
<g clip-path="url(#clip0_1236_8439)">
<path fill-rule="evenodd" clip-rule="evenodd" d="M523.894 67.9752C525.529 66.0496 526.636 63.6898 526.451 61.0455C525.918 53.4267 515.347 55.1028 513.291 58.9481C511.235 62.7934 511.479 72.5474 514.137 73.2347C515.197 73.5087 517.454 72.8374 519.752 71.4478L518.31 81.6851H526.826L523.894 67.9752Z" fill="#915B3C"/>
<path fill-rule="evenodd" clip-rule="evenodd" d="M530.164 58.5093C530.439 58.2358 530.589 57.8455 530.719 57.4748C530.853 57.0898 530.984 56.7008 531.074 56.3C531.253 55.4992 531.254 54.5784 530.685 53.9566C530.228 53.458 529.543 53.2343 528.911 53.1857C528.49 53.1533 528.057 53.2125 527.653 53.3457C527.252 53.4778 526.907 53.7412 526.519 53.9047C526.504 53.0417 526.356 52.1388 525.92 51.402C525.5 50.6931 524.831 50.2952 524.068 50.19C523.286 50.082 522.513 50.2657 521.813 50.6458C521.637 50.741 521.464 50.8407 521.297 50.9536C521.158 51.0481 521.013 51.1619 520.85 51.2003C520.668 51.2432 520.578 51.1377 520.459 51.0044C520.32 50.8481 520.164 50.7104 519.999 50.5884C519.267 50.0489 518.307 49.827 517.46 50.1504C517.069 50.2994 516.689 50.5525 516.424 50.9012C516.188 51.212 516.02 51.705 515.694 51.9216C515.555 52.0135 515.458 51.8917 515.332 51.8017C515.143 51.6665 514.962 51.5172 514.771 51.3856C514.502 51.2008 514.211 51.0625 513.899 50.9901C513.442 50.8842 512.812 50.909 512.681 51.5088C512.632 51.7341 512.67 51.9751 512.686 52.2021C512.707 52.5138 512.73 52.8254 512.757 53.1367C512.777 53.373 512.803 53.6012 512.848 53.8333C512.871 53.957 512.946 54.1876 512.893 54.3115C512.827 54.4664 512.522 54.3783 512.391 54.3837C512.134 54.3944 511.876 54.4396 511.638 54.55C511.453 54.6355 511.26 54.7612 511.182 54.9733C511.134 55.1035 511.146 55.2373 511.169 55.3714C511.196 55.5322 511.165 55.6175 511.145 55.7798C510.799 55.609 509.602 55.2297 509.451 55.8511C509.401 56.058 509.515 56.2918 509.602 56.4663C509.755 56.7724 509.956 57.0521 510.16 57.3189C510.588 57.8755 511.098 58.3555 511.647 58.7661C511.004 59.053 510.836 59.8993 511.393 60.4035C511.639 60.6261 511.969 60.6756 512.28 60.6614C512.393 60.6562 512.557 60.6124 512.646 60.6322C512.694 60.6429 512.746 60.6838 512.812 60.6884C513.25 60.7184 513.744 60.6126 514.172 60.5152C514.935 60.3415 515.656 59.9791 516.246 59.4271C516.397 59.2855 516.522 59.204 516.726 59.2061C516.904 59.2079 517.079 59.2569 517.257 59.2615C517.729 59.2735 518.154 59.0423 518.592 58.8884C518.618 59.4818 518.787 60.1353 519.029 60.6692C519.226 61.1045 519.638 61.1678 520.043 61.206C521.338 61.3282 522.637 61.1918 523.933 61.1936C522.678 61.4782 521.382 61.5955 520.138 61.9304C519.576 62.0817 520.005 62.4619 520.245 62.7254C520.641 63.1593 520.935 63.697 521.14 64.2635C521.753 63.4607 522.838 62.9317 523.8 63.1783C524.862 63.4508 525.61 64.8918 524.93 65.9279C524.536 66.5293 523.824 66.7614 523.232 67.0198C523.694 67.502 523.806 68.2141 524.084 68.8139C524.221 69.1097 524.414 69.4441 524.72 69.5472C524.834 69.5854 524.967 69.5886 525.057 69.6815C525.168 69.7964 525.194 69.9249 525.336 70.0237C525.901 70.4181 526.784 70.3877 527.285 69.8731C527.738 69.4077 527.621 68.6712 527.242 68.1993C527.845 67.9474 528.942 67.6233 528.703 66.6817C530.008 66.5947 533.178 64.4705 531.426 62.9183C532.387 62.3731 533.27 61.0406 532.653 59.866C532.177 58.9616 531.071 58.5573 530.164 58.5093Z" fill="#191847"/>
</g>
<path fill-rule="evenodd" clip-rule="evenodd" d="M499.423 100.46L484.973 98.4893C482.082 96.8815 479.423 95.7931 476.995 95.224C476.312 95.204 475.225 95.4524 476.844 96.8022C478.463 98.152 480.106 99.6451 479.818 100.365C479.529 101.086 478.024 100.818 477.774 101.926C477.608 102.664 480.052 102.784 485.105 102.286L496.83 106.934L499.423 100.46ZM544.816 103.805L536.802 103.835C545.589 123.611 550.171 133.965 550.548 134.897C551.395 136.996 549.602 140.192 548.836 141.91C551.332 143.027 551.066 138.891 554.215 140.356C557.089 141.693 559.275 144.115 562.595 142.067C563.004 141.815 563.451 140.866 562.37 140.125C559.677 138.279 555.797 135.047 555.273 133.983C554.558 132.533 551.072 122.473 544.816 103.805Z" fill="#915B3C"/>
<path fill-rule="evenodd" clip-rule="evenodd" d="M522.864 78.3878L516.589 78.8058C515.044 92.7867 506.627 101.618 487.781 98.628L485.277 116.632C502.891 118.909 518.339 111.857 521.505 92.763C522.325 87.8202 522.972 82.6763 522.864 78.3878Z" fill="#C51935"/>
<path fill-rule="evenodd" clip-rule="evenodd" d="M525.96 76.5637L516.453 78.741C516.453 95.0928 511.244 105.525 508.572 117.548H534.248C534.61 121.702 534.832 125.972 534.948 130.357H554.173C549.817 107.177 540.621 89.2442 526.587 76.5579H525.965L525.96 76.5637Z" fill="#E41D3D"/>
<path fill-rule="evenodd" clip-rule="evenodd" d="M530.198 94.22C530.859 104.409 530.47 112.185 529.03 117.548H534.249C533.532 109.318 532.268 101.542 530.198 94.22V94.22Z" fill="black" fill-opacity="0.1"/>
<path fill-rule="evenodd" clip-rule="evenodd" d="M329.041 85.6568C326.298 82.4365 324.441 78.49 324.751 74.0678C325.645 61.3262 343.382 64.1292 346.832 70.5601C350.282 76.9909 349.872 93.3033 345.413 94.4527C343.635 94.911 339.847 93.7882 335.991 91.4643L338.411 108.585H324.122L329.041 85.6568Z" fill="#B28B67"/>
<path fill-rule="evenodd" clip-rule="evenodd" d="M353.162 61.645C352.866 60.6049 352.07 59.7143 350.998 59.4501C350.737 59.386 350.469 59.3602 350.201 59.371C350.105 59.3748 350.078 59.4025 350.033 59.3353C350 59.2856 349.999 59.164 349.986 59.1055C349.943 58.9236 349.89 58.7439 349.824 58.569C349.6 57.9722 349.222 57.444 348.768 56.9991C347.917 56.1667 346.768 55.5923 345.574 55.4883C344.921 55.4315 344.272 55.5376 343.655 55.7502C343.335 55.8602 343.025 55.9972 342.723 56.1487C342.632 56.1943 342.337 56.4176 342.246 56.4031C342.145 56.3872 341.942 56.1367 341.86 56.0738C340.847 55.2966 339.596 54.9911 338.335 55.0002C336.91 55.0109 335.539 55.0821 334.351 55.9503C334.1 56.1341 333.86 56.3353 333.632 56.5472C333.512 56.6588 333.396 56.7745 333.285 56.895C333.218 56.9678 333.153 57.0421 333.09 57.1185C332.984 57.2481 333.001 57.2907 332.852 57.2003C332.28 56.853 331.618 56.6906 330.951 56.7725C330.555 56.8213 330.169 56.9402 329.803 57.0968C329.678 57.1501 329.39 57.3626 329.257 57.3647C329.125 57.3668 328.841 57.1697 328.705 57.1196C327.972 56.849 327.182 56.7823 326.412 56.9073C325.617 57.0364 324.836 57.3535 324.163 57.7917C323.839 58.0024 323.556 58.236 323.329 58.5494C323.231 58.6847 323.143 58.8279 323.031 58.9534C322.966 59.0268 322.838 59.1022 322.803 59.1952C322.824 59.1395 321.934 58.7964 321.85 58.7744C321.402 58.6576 320.946 58.6813 320.508 58.8255C319.684 59.0966 318.976 59.7047 318.393 60.3282C318.094 60.6484 317.832 61.0024 317.61 61.3795C317.504 61.5601 317.406 61.7459 317.317 61.9357C317.274 62.0276 317.245 62.1426 317.189 62.2254C317.115 62.3321 317.066 62.3342 316.933 62.3807C316.259 62.6169 315.644 63.0168 315.176 63.5571C314.703 64.1038 314.395 64.777 314.266 65.4859C314.259 65.5277 314.254 65.7007 314.23 65.7233C314.196 65.7545 314.061 65.7407 314.01 65.7467C313.832 65.7676 313.655 65.7986 313.481 65.8398C313.161 65.9157 312.848 66.0275 312.553 66.1736C311.401 66.7433 310.578 67.8114 310.175 69.0133C309.752 70.2746 309.76 71.7196 310.265 72.9574C310.347 73.1573 310.444 73.3514 310.558 73.5349C310.628 73.6476 310.651 73.6479 310.605 73.7661C310.554 73.8977 310.462 74.0255 310.402 74.154C310.205 74.5734 310.068 75.0183 309.981 75.4726C309.839 76.2179 309.768 77.0011 309.909 77.7521C309.974 78.1008 310.087 78.4417 310.261 78.7522C310.349 78.9106 310.452 79.0608 310.569 79.1997C310.63 79.2718 310.694 79.3407 310.761 79.4067C310.8 79.4444 310.85 79.4774 310.883 79.5195C310.963 79.6222 310.98 79.5378 310.939 79.6886C310.881 79.8994 310.75 80.1073 310.67 80.3124C310.588 80.5238 310.513 80.7381 310.445 80.9545C310.307 81.3926 310.191 81.8387 310.118 82.2925C309.978 83.1637 310.002 84.092 310.414 84.8915C310.59 85.2335 310.843 85.5335 311.15 85.7669C311.3 85.8811 311.462 85.9795 311.633 86.0603C311.72 86.1019 311.832 86.1198 311.872 86.2045C311.915 86.2956 311.851 86.4765 311.837 86.5784C311.71 87.4645 311.647 88.3948 311.91 89.2632C312.153 90.0629 312.687 90.7691 313.38 91.2366C314.726 92.1435 316.539 92.0924 317.953 91.3664C318.321 91.1771 318.666 90.9421 318.973 90.6649C319.757 91.719 321.368 91.6857 322.512 91.3853C323.938 91.0111 325.082 90.0197 325.742 88.717C326.643 89.8143 328.535 89.4583 329.16 88.2679C329.313 87.9766 329.403 87.6555 329.448 87.3305C329.472 87.1597 329.457 86.9873 329.474 86.8178C329.497 86.6018 329.641 86.3919 329.724 86.183C329.885 85.7763 329.986 85.3563 329.99 84.9177C329.992 84.6887 329.963 84.4655 329.942 84.2383C329.922 84.0338 329.979 83.8433 330.011 83.6414C329.645 83.7017 329.2 83.603 328.855 83.497C328.517 83.393 328.2 83.1189 327.962 82.8686C327.408 82.2874 327.069 81.5256 326.838 80.7673C326.33 79.103 326.538 77.1063 328.212 76.1929C328.992 75.7674 331.328 75.7688 332.257 75.9791C333.233 76.2002 334.34 78.3551 334.395 78.5576C334.428 78.683 334.411 78.8381 334.527 78.9216C334.78 79.1053 335.197 78.7866 335.384 78.6293C335.706 78.3578 335.936 77.9966 336.135 77.6305C336.568 76.8328 336.918 75.9774 337.165 75.1042C337.355 74.431 337.477 73.7368 337.726 73.0807C337.973 72.4279 338.363 71.8444 338.97 71.4746C339.63 71.0723 340.387 70.8604 341.112 70.6076C341.83 70.357 342.536 70.0508 343.093 69.5191C343.215 69.4022 343.334 69.278 343.433 69.1404C343.511 69.0317 343.588 68.8237 343.706 68.7548C343.89 68.6476 344.159 68.9263 344.319 69.0275C345.105 69.5268 345.761 70.2232 346.29 70.984C346.816 71.7405 347.247 72.4685 347.598 73.3134C347.858 73.94 348.021 74.7424 348.478 75.2559C348.683 75.4852 350.201 75.6239 350.693 75.4237C351.185 75.2236 351.736 74.7038 351.901 74.378C352.07 74.0446 352.111 73.6784 352.038 73.3134C351.996 73.0986 351.909 72.8981 351.862 72.6872C351.822 72.51 351.786 72.3425 351.699 72.1802C351.536 71.8727 351.257 71.6516 350.92 71.5592C351.27 71.2361 351.561 70.8496 351.762 70.4175C351.97 69.9686 352.147 69.4228 352.198 68.9301C352.238 68.5299 352.175 68.1154 351.956 67.7715C351.727 67.4107 351.319 67.1754 350.967 66.9504C351.505 66.5294 351.966 66.0175 352.344 65.4507C353.081 64.3484 353.536 62.9591 353.162 61.645Z" fill="#582346"/>
<path fill-rule="evenodd" clip-rule="evenodd" d="M319.365 158.016L347.992 233.765L368.057 289.596H379.499L351.917 158.016L319.365 158.016Z" fill="#758D9B"/>
<path fill-rule="evenodd" clip-rule="evenodd" d="M312.289 158.016C311.978 184.007 312.203 219 311.478 220.62C310.995 221.7 295.96 234.007 266.375 257.539L272.272 267.567C307.397 244.916 325.857 232.082 327.653 229.064C330.346 224.537 343.879 182.881 350.92 158.016H312.289Z" fill="#586E7A"/>
<path fill-rule="evenodd" clip-rule="evenodd" d="M256 264.287L265.961 256.707L273.998 266.285C274.616 273.505 277.007 281.603 281.17 290.578L279.345 292.109L264.802 274.777L260.739 268.083L259.827 268.848L256 264.287Z" fill="#191847"/>
<path fill-rule="evenodd" clip-rule="evenodd" d="M366.996 300.313L367.591 287.81H380.094C386.023 291.978 393.763 295.352 403.314 297.932V300.313H380.69L372.949 299.122V300.313H366.996Z" fill="#191847"/>
<path fill-rule="evenodd" clip-rule="evenodd" d="M370.566 134.378L394.074 131.171C398.776 128.555 403.103 126.785 407.052 125.859C408.164 125.826 409.932 126.231 407.298 128.426C404.664 130.622 401.991 133.051 402.46 134.223C402.93 135.395 405.379 134.959 405.785 136.762C406.056 137.963 402.08 138.159 393.858 137.347L374.784 144.91L370.566 134.378ZM296.72 139.819L309.758 139.868C295.462 172.039 288.008 188.883 287.396 190.4C286.018 193.815 288.933 199.015 290.18 201.809C286.119 203.626 286.552 196.897 281.43 199.28C276.754 201.455 273.198 205.396 267.796 202.063C267.132 201.654 266.404 200.111 268.163 198.905C272.543 195.901 278.856 190.644 279.709 188.914C280.872 186.554 286.543 170.189 296.72 139.819Z" fill="#997659"/>
<path fill-rule="evenodd" clip-rule="evenodd" d="M332.431 98.4695L342.639 99.1495C345.153 121.894 358.847 136.26 389.506 131.397L393.579 160.687C364.924 164.39 339.793 152.918 334.642 121.855C333.309 113.814 332.256 105.446 332.431 98.4695Z" fill="#343434"/>
<path fill-rule="evenodd" clip-rule="evenodd" d="M327.395 95.5019L342.861 99.0441C342.861 125.645 351.335 142.618 355.682 162.176H313.911C313.323 168.934 312.962 175.88 312.773 183.014H281.497C288.585 145.305 303.544 116.131 326.374 95.4924H327.387L327.395 95.5019Z" fill="#343434"/>
<path fill-rule="evenodd" clip-rule="evenodd" d="M320.502 124.225C319.425 140.802 320.058 153.452 322.401 162.176H313.912C315.077 148.788 317.134 136.138 320.502 124.225L320.502 124.225Z" fill="black" fill-opacity="0.1"/>
<path fill-rule="evenodd" clip-rule="evenodd" d="M609.219 76.195C612.001 73.0517 613.883 69.1995 613.569 64.883C612.662 52.446 594.679 55.182 591.181 61.4591C587.683 67.7363 588.099 83.6587 592.62 84.7806C594.423 85.2281 598.264 84.1321 602.173 81.8637L599.719 98.5753H614.207L609.219 76.195Z" fill="#B28B67"/>
<path fill-rule="evenodd" clip-rule="evenodd" d="M601.448 66.2564C600.893 73.6936 599.426 77.4122 597.047 77.4122C593.478 77.4122 590.449 75.2307 588.883 75.2307C587.742 75.2307 587.997 76.6061 588.753 77.6259C589.378 78.4673 592.418 79.2782 592.418 80.5826C592.418 81.887 590.016 80.8778 590.016 81.6514C590.016 82.9311 589.594 85.337 591.901 85.337C594.235 85.337 600.929 84.5179 602.076 81.182C602.817 79.0291 603.295 74.5679 603.512 67.7984C603.654 67.7822 603.798 67.7739 603.944 67.7739C605.945 67.7739 607.566 69.335 607.566 71.2608C607.566 72.2384 607.148 73.1221 606.475 73.7553C607.313 74.8941 608.252 76.0838 609.329 77.3113C613.372 74.976 616.372 68.1394 612.419 61.5719C611.327 58.3546 608.853 56.6362 605.932 55.8382C603.565 54.8852 601.109 54.7778 599.035 55.3491C594.97 55.6848 591.341 56.8781 590.312 57.5868C590.312 61.2918 591.058 62.391 597.427 62.2941C598.992 63.0898 600.195 64.46 601.448 66.2564Z" fill="#191847"/>
<path fill-rule="evenodd" clip-rule="evenodd" d="M542.442 157.328C538.108 151.669 527.274 155.415 527.28 160.1C527.297 172.4 538.957 230.795 539.566 234.482C540.175 238.169 546.696 239.375 547.076 234.769C547.68 227.439 548.803 202.029 547.679 190.207C547.351 186.754 547.005 183.417 546.657 180.29C552.785 190.888 562.103 205.868 574.611 225.229L581.563 222.171C576.104 204.855 571.627 192.63 568.134 185.497C562.151 173.283 556.542 162.823 554.182 159.139C551.063 154.272 546.005 154.918 542.442 157.328Z" fill="#B28B67"/>
<path fill-rule="evenodd" clip-rule="evenodd" d="M581.066 212.555L557.205 158.136C551.489 149.284 535.462 159.938 537.411 165.072C541.837 176.729 564.345 214.466 565.663 217.939L581.066 212.555Z" fill="#1F28CF"/>
<path fill-rule="evenodd" clip-rule="evenodd" d="M526.677 164.348C526.677 179.773 533.7 216.03 533.704 219.427L550.717 218.875C547.743 187.351 546.489 171.482 546.954 171.269C548.002 170.788 589.902 176.852 602.469 177.31C620.59 177.97 628.086 167.267 628.694 146.957H593.593C563.579 150.406 543.852 152.805 534.413 154.154C528.351 155.02 526.677 160.099 526.677 164.348Z" fill="#2B44FF"/>
<path fill-rule="evenodd" clip-rule="evenodd" d="M564.274 209.545L560.406 210.456C555.267 211.666 552.176 216.711 553.502 221.726L554.703 226.265C556.029 231.279 561.27 234.363 566.409 233.153L570.277 232.243C575.415 231.033 578.506 225.987 577.18 220.973L575.98 216.433C574.654 211.419 569.413 208.335 564.274 209.545ZM568.327 214.035C569.611 213.733 570.922 214.504 571.253 215.757L573.344 223.665C573.676 224.918 572.903 226.18 571.618 226.482L562.356 228.663C561.071 228.966 559.761 228.195 559.43 226.941L557.338 219.034C557.007 217.78 557.78 216.519 559.064 216.216L568.327 214.035Z" fill="#C5CFD6"/>
<path fill-rule="evenodd" clip-rule="evenodd" d="M547.999 226.082C548.674 227.817 549.012 229.116 549.012 229.978C549.012 231.026 548.83 232.555 548.468 234.566C547.205 234.566 535.856 234.566 514.42 234.566C513.536 231.75 514.046 230.229 515.953 230.005C517.859 229.78 519.442 229.577 520.703 229.397L536.528 222.605C536.833 222.474 537.19 222.606 537.325 222.899C537.328 222.904 537.33 222.909 537.332 222.914L538.349 225.29C540.114 226.082 541.548 226.479 542.651 226.479C543.548 226.479 544.786 226.13 546.365 225.433L546.365 225.433C546.971 225.165 547.688 225.422 547.966 226.005C547.978 226.03 547.989 226.056 547.999 226.082Z" fill="#E4E4E4"/>
<path d="M518.527 234.566H546.295C547.462 234.566 548.408 235.476 548.408 236.6C548.408 237.723 547.462 238.634 546.295 238.634H518.527C517.36 238.634 516.414 237.723 516.414 236.6C516.414 235.476 517.36 234.566 518.527 234.566Z" fill="#2F3676"/>
<path fill-rule="evenodd" clip-rule="evenodd" d="M630.505 150.298H565.914C562.58 150.298 559.877 152.9 559.877 156.11V184.586H634.127C635.46 184.586 636.542 183.546 636.542 182.262V156.11C636.542 152.9 633.839 150.298 630.505 150.298Z" fill="#2F3676"/>
<path fill-rule="evenodd" clip-rule="evenodd" d="M565.914 150.298H564.59C561.633 150.298 559.112 152.359 558.633 155.168L545.39 232.822H551.84" fill="#2F3676"/>
<path d="M548.409 244.445C542.408 244.445 537.543 239.762 537.543 233.984C537.543 228.207 542.408 223.524 548.409 223.524C554.41 223.524 559.274 228.207 559.274 233.984C559.274 239.762 554.41 244.445 548.409 244.445Z" fill="#191847"/>
<path fill-rule="evenodd" clip-rule="evenodd" d="M628.695 243.283C654.032 243.283 674.572 223.508 674.572 199.115C674.572 174.722 654.032 154.947 628.695 154.947C603.357 154.947 582.817 174.722 582.817 199.115C582.817 223.508 603.357 243.283 628.695 243.283ZM628.695 235.147C608.024 235.147 591.268 219.015 591.268 199.115C591.268 179.215 608.024 163.083 628.695 163.083C649.365 163.083 666.121 179.215 666.121 199.115C666.121 219.015 649.365 235.147 628.695 235.147Z" fill="#191847"/>
<path d="M626.28 160.759H631.109V237.471H626.28V160.759Z" fill="#191847"/>
<path d="M599.668 172.815L601.376 171.171C601.847 170.717 602.612 170.717 603.083 171.171L657.72 223.771C658.191 224.225 658.191 224.961 657.72 225.415L656.012 227.059C655.541 227.513 654.776 227.513 654.305 227.059L599.668 174.459C599.197 174.005 599.197 173.269 599.668 172.815Z" fill="#191847"/>
<path d="M588.853 200.277V197.953C588.853 197.311 589.394 196.791 590.06 196.791H667.328C667.995 196.791 668.535 197.311 668.535 197.953V200.277C668.535 200.919 667.995 201.44 667.328 201.44H590.06C589.394 201.44 588.853 200.919 588.853 200.277Z" fill="#191847"/>
<path d="M601.376 227.059L599.669 225.415C599.197 224.961 599.197 224.226 599.669 223.772L654.305 171.171C654.777 170.717 655.541 170.717 656.013 171.171L657.72 172.815C658.191 173.269 658.191 174.005 657.72 174.459L603.083 227.059C602.612 227.513 601.848 227.513 601.376 227.059Z" fill="#191847"/>
<path fill-rule="evenodd" clip-rule="evenodd" d="M567.857 139.379L548.601 152.992C543.378 154.348 539.015 156.036 535.511 158.056C534.684 158.782 533.683 160.252 537.116 159.998C540.549 159.744 544.171 159.625 544.645 160.752C545.118 161.88 543.041 163.228 543.999 164.748C544.637 165.762 547.652 163.22 553.045 157.121L572.113 149.509L567.857 139.379ZM641.788 139.849L629.173 139.896C636.962 164.104 641.167 176.948 641.788 178.429C643.185 181.762 640.229 186.837 638.965 189.565C643.082 191.339 642.643 184.77 647.837 187.096C652.577 189.22 656.183 193.067 661.66 189.813C662.333 189.413 663.071 187.907 661.288 186.73C656.847 183.798 650.446 178.667 649.581 176.978C648.402 174.674 645.804 162.298 641.788 139.849Z" fill="#B28B67"/>
<path fill-rule="evenodd" clip-rule="evenodd" d="M605.939 88.8884L600.719 88.0265C581.352 104.133 573.397 135.077 549.658 151.469L555.372 158.288C596.555 153.378 606.763 115.635 605.939 88.8884Z" fill="#E87613"/>
<path fill-rule="evenodd" clip-rule="evenodd" d="M628.694 152.042C607.765 152.042 592.369 152.042 582.508 152.042C580.397 152.042 580.795 149.108 581.1 147.627C584.621 130.541 598.366 112.123 598.366 87.801L611.688 85.7898C622.708 102.852 626.518 123.858 628.694 152.042Z" fill="#DDE3E9"/>
<path fill-rule="evenodd" clip-rule="evenodd" d="M628.323 102.561C630.257 102.025 631.79 100.776 632.919 98.814C637.789 90.3552 636.03 85.698 630.826 84.1671C625.623 82.6363 620.982 85.7896 612.691 85.7896C612.24 85.7896 611.827 85.8168 611.452 85.8712L607.281 86.1003C595.315 125.143 592.015 151.191 597.381 164.246H633.733C635.887 169.081 637.948 173.149 639.916 176.45H649.822C650.754 147.431 643.588 122.801 628.323 102.561Z" fill="#FF9B21"/>
<path fill-rule="evenodd" clip-rule="evenodd" d="M625.817 144.195C624.674 153.404 622.816 160.088 620.243 164.246H633.733C631.221 158.606 628.582 151.922 625.817 144.195V144.195Z" fill="black" fill-opacity="0.1"/>
<defs>
<clipPath id="clip0_1236_8439">
<rect width="23.4194" height="31.685" fill="white" transform="matrix(-1 0 0 1 532.858 50)"/>
</clipPath>
</defs>
</svg>
