<svg width="912" height="565" viewBox="0 0 912 565" fill="none" xmlns="http://www.w3.org/2000/svg">
<mask id="mask0_1107_7863" style="mask-type:alpha" maskUnits="userSpaceOnUse" x="0" y="0" width="912" height="565">
<rect width="912" height="565" fill="white"/>
</mask>
<g mask="url(#mask0_1107_7863)">
<path d="M258.766 526.419C452.946 544.806 630.965 526.419 740.642 487.565C850.318 448.71 906.288 398.508 936.644 333.534C967 268.56 940.783 147.503 740.642 229.06C540.5 310.616 536.198 324.71 330.066 325.159C123.935 325.609 7.46846 352.708 0.466747 401.134C-6.53497 449.56 64.587 508.033 258.766 526.419Z" fill="#387FB3"/>
<path fill-rule="evenodd" clip-rule="evenodd" d="M463.213 62.0107C469.12 55.3353 473.119 47.1546 472.45 37.9879C470.526 11.576 432.336 17.3862 424.907 30.7167C417.479 44.0472 418.361 77.861 427.962 80.2436C431.791 81.1937 439.948 78.8662 448.249 74.049L443.038 109.539H473.805L463.213 62.0107Z" fill="#B28B67"/>
<path fill-rule="evenodd" clip-rule="evenodd" d="M446.711 40.9049C445.533 56.6988 442.418 64.5958 437.365 64.5958C429.785 64.5958 423.354 59.9632 420.028 59.9632C417.603 59.9632 418.145 62.8841 419.752 65.0497C421.078 66.8365 427.535 68.5587 427.535 71.3287C427.535 74.0987 422.433 71.9557 422.433 73.5985C422.433 76.316 421.537 81.4254 426.436 81.4254C431.394 81.4254 445.609 79.6859 448.045 72.6016C449.617 68.0296 450.634 58.5556 451.095 44.1795C451.396 44.1451 451.702 44.1274 452.012 44.1274C456.26 44.1274 459.704 47.4428 459.704 51.5325C459.704 53.6086 458.816 55.4852 457.387 56.8298C459.166 59.2483 461.161 61.7747 463.447 64.3817C472.033 59.4221 478.405 44.9037 470.01 30.9566C467.69 24.1242 462.437 20.4748 456.233 18.7802C451.208 16.7564 445.991 16.5282 441.587 17.7415C432.955 18.4543 425.246 20.9885 423.062 22.4935C423.062 30.3616 424.645 32.6961 438.171 32.4903C441.495 34.1801 444.05 37.09 446.711 40.9049Z" fill="#191847"/>
<path fill-rule="evenodd" clip-rule="evenodd" d="M321.403 234.309C312.198 222.291 289.191 230.246 289.205 240.195C289.241 266.317 314.002 390.328 315.295 398.158C316.588 405.987 330.437 408.549 331.243 398.766C332.526 383.199 334.911 329.238 332.525 304.133C331.828 296.8 331.094 289.712 330.354 283.072C343.367 305.579 363.155 337.391 389.719 378.507L404.482 372.013C392.889 335.24 383.382 309.279 375.963 294.13C363.259 268.192 351.347 245.979 346.334 238.155C339.711 227.819 328.97 229.191 321.403 234.309Z" fill="#B28B67"/>
<path fill-rule="evenodd" clip-rule="evenodd" d="M403.426 351.592L352.754 236.026C340.615 217.226 306.579 239.852 310.719 250.755C320.118 275.51 367.916 355.651 370.716 363.026L403.426 351.592Z" fill="#1F28CF"/>
<path fill-rule="evenodd" clip-rule="evenodd" d="M287.922 249.218C287.922 281.975 302.836 358.973 302.846 366.186L338.974 365.013C332.659 298.068 329.996 264.368 330.985 263.915C333.209 262.894 422.191 275.771 448.878 276.744C487.36 278.146 503.28 255.417 504.572 212.285H430.029C366.289 219.61 324.396 224.704 304.351 227.568C291.478 229.408 287.922 240.195 287.922 249.218Z" fill="#2B44FF"/>
<path fill-rule="evenodd" clip-rule="evenodd" d="M367.766 345.199L359.553 347.133C348.639 349.703 342.075 360.418 344.891 371.066L347.441 380.707C350.257 391.355 361.386 397.904 372.3 395.335L380.514 393.401C391.427 390.831 397.991 380.116 395.175 369.467L392.626 359.827C389.81 349.179 378.68 342.63 367.766 345.199ZM376.373 354.735C379.101 354.092 381.884 355.73 382.588 358.392L387.029 375.185C387.733 377.847 386.092 380.525 383.363 381.168L363.693 385.799C360.965 386.441 358.183 384.804 357.479 382.142L353.038 365.349C352.334 362.687 353.975 360.008 356.703 359.366L376.373 354.735Z" fill="#C5CFD6"/>
<path fill-rule="evenodd" clip-rule="evenodd" d="M333.202 380.319C334.636 384.005 335.354 386.763 335.354 388.593C335.354 390.818 334.968 394.066 334.198 398.336C331.516 398.336 307.415 398.336 261.894 398.336C260.015 392.355 261.099 389.127 265.148 388.65C269.196 388.173 272.559 387.743 275.236 387.358L308.843 372.935C309.489 372.657 310.247 372.937 310.536 373.56C310.541 373.57 310.545 373.581 310.55 373.592L312.71 378.637C316.458 380.32 319.503 381.162 321.846 381.162C323.75 381.162 326.379 380.421 329.733 378.941L329.733 378.941C331.02 378.373 332.542 378.917 333.132 380.156C333.157 380.21 333.181 380.264 333.202 380.319Z" fill="#E4E4E4"/>
<path d="M270.615 398.336H329.585C332.063 398.336 334.072 400.27 334.072 402.655C334.072 405.041 332.063 406.975 329.585 406.975H270.615C268.137 406.975 266.128 405.041 266.128 402.655C266.128 400.27 268.137 398.336 270.615 398.336Z" fill="#2F3676"/>
<path fill-rule="evenodd" clip-rule="evenodd" d="M508.417 219.38H371.248C364.168 219.38 358.429 224.906 358.429 231.722V292.196H516.109C518.941 292.196 521.237 289.986 521.237 287.26V231.722C521.237 224.906 515.497 219.38 508.417 219.38Z" fill="#2F3676"/>
<path fill-rule="evenodd" clip-rule="evenodd" d="M371.249 219.38H368.437C362.158 219.38 356.804 223.758 355.787 229.722L327.663 394.633H341.361" fill="#2F3676"/>
<path d="M334.072 419.317C321.328 419.317 310.997 409.371 310.997 397.101C310.997 384.832 321.328 374.886 334.072 374.886C346.816 374.886 357.147 384.832 357.147 397.101C357.147 409.371 346.816 419.317 334.072 419.317Z" fill="#191847"/>
<path fill-rule="evenodd" clip-rule="evenodd" d="M504.572 416.848C558.38 416.848 602 374.854 602 323.051C602 271.248 558.38 229.254 504.572 229.254C450.764 229.254 407.144 271.248 407.144 323.051C407.144 374.854 450.764 416.848 504.572 416.848ZM504.572 399.57C460.676 399.57 425.091 365.311 425.091 323.051C425.091 280.791 460.676 246.532 504.572 246.532C548.468 246.532 584.053 280.791 584.053 323.051C584.053 365.311 548.468 399.57 504.572 399.57Z" fill="#191847"/>
<path d="M499.444 241.595H509.699V404.506H499.444V241.595Z" fill="#191847"/>
<path d="M442.932 267.198L446.558 263.708C447.559 262.744 449.182 262.744 450.184 263.708L566.213 375.412C567.214 376.376 567.214 377.939 566.213 378.903L562.587 382.394C561.585 383.358 559.962 383.358 558.961 382.394L442.932 270.689C441.93 269.725 441.93 268.162 442.932 267.198Z" fill="#191847"/>
<path d="M419.963 325.519V320.582C419.963 319.219 421.111 318.114 422.527 318.114H586.617C588.033 318.114 589.181 319.219 589.181 320.582V325.519C589.181 326.882 588.033 327.987 586.617 327.987H422.527C421.111 327.987 419.963 326.882 419.963 325.519Z" fill="#191847"/>
<path d="M446.558 382.394L442.932 378.903C441.931 377.939 441.931 376.376 442.932 375.412L558.961 263.708C559.962 262.744 561.586 262.744 562.587 263.708L566.213 267.198C567.214 268.162 567.214 269.725 566.213 270.689L450.184 382.394C449.183 383.358 447.559 383.358 446.558 382.394Z" fill="#191847"/>
<path fill-rule="evenodd" clip-rule="evenodd" d="M375.374 196.192L334.482 225.1C323.391 227.982 314.125 231.566 306.684 235.854C304.926 237.396 302.802 240.519 310.092 239.979C317.381 239.44 325.074 239.188 326.08 241.581C327.086 243.975 322.675 246.838 324.708 250.068C326.063 252.221 332.467 246.822 343.92 233.87L384.414 217.704L375.374 196.192ZM532.379 197.189L505.589 197.291C522.131 248.699 531.061 275.975 532.379 279.121C535.345 286.198 529.068 296.977 526.384 302.77C535.127 306.536 534.195 292.587 545.224 297.527C555.291 302.036 562.949 310.206 574.579 303.297C576.009 302.447 577.576 299.249 573.79 296.75C564.358 290.523 550.765 279.626 548.929 276.039C546.424 271.147 540.908 244.864 532.379 197.189Z" fill="#B28B67"/>
<path fill-rule="evenodd" clip-rule="evenodd" d="M456.247 88.9673L445.162 87.1368C404.033 121.342 387.14 187.056 336.725 221.867L348.859 236.347C436.319 225.922 457.997 145.767 456.247 88.9673Z" fill="#E87613"/>
<path fill-rule="evenodd" clip-rule="evenodd" d="M504.571 223.082C460.124 223.082 427.429 223.082 406.487 223.082C402.005 223.082 402.85 216.852 403.498 213.708C410.975 177.423 440.164 138.309 440.164 86.6577L468.456 82.3866C491.858 118.62 499.95 163.231 504.571 223.082Z" fill="#DDE3E9"/>
<path fill-rule="evenodd" clip-rule="evenodd" d="M503.782 118.002C507.891 116.865 511.145 114.213 513.544 110.046C523.885 92.0824 520.151 82.1921 509.1 78.9411C498.048 75.6902 488.193 82.3866 470.586 82.3866C469.628 82.3866 468.751 82.4444 467.955 82.56L459.098 83.0466C433.686 165.959 426.678 221.277 438.073 249H515.273C519.847 259.268 524.224 267.908 528.403 274.918H549.439C551.419 213.292 536.2 160.987 503.782 118.002Z" fill="#FF9B21"/>
<path fill-rule="evenodd" clip-rule="evenodd" d="M498.462 206.418C496.034 225.975 492.088 240.169 486.623 249H515.272C509.937 237.023 504.333 222.829 498.462 206.418V206.418Z" fill="black" fill-opacity="0.1"/>
</g>
</svg>
