<svg width="69" height="69" viewBox="0 0 69 69" fill="none" xmlns="http://www.w3.org/2000/svg">
<circle cx="34.5" cy="34.5" r="34.5" fill="#FFBE2E"/>
<path d="M19.9319 13.1992C18.0618 13.1992 16.5316 14.7296 16.5316 16.5996C16.5316 18.4696 18.0619 20.0052 19.9319 20.0052C21.802 20.0052 23.339 18.4699 23.339 16.5996C23.339 14.7292 21.802 13.1992 19.9319 13.1992V13.1992ZM19.9319 14.964C20.8483 14.964 21.5727 15.6831 21.5727 16.5996C21.5727 17.516 20.8484 18.2404 19.9319 18.2404C19.0154 18.2404 18.2963 17.516 18.2963 16.5996C18.2963 15.6831 19.0155 14.964 19.9319 14.964ZM35.7342 15.5637L35.5067 17.3147C36.0583 17.3755 36.608 17.4623 37.1543 17.5492L37.5782 15.8359C36.976 15.6819 36.3489 15.645 35.7342 15.5637V15.5637ZM32.0149 15.5705C31.6782 15.6003 31.3391 15.6174 31.0049 15.669C30.7241 15.712 30.4487 15.7869 30.1707 15.8449L30.5359 17.5716C30.5359 17.5716 31.038 17.4529 31.2925 17.4151C31.588 17.3706 32.1835 17.3307 32.1835 17.3307L32.0149 15.5705ZM41.042 16.9062L40.4232 18.5608C40.9444 18.7468 41.4247 19.0381 41.9158 19.2916L42.7171 17.7147C42.1898 17.3746 41.6083 17.1564 41.042 16.9063V16.9062ZM26.6084 16.9258L25.0125 17.6738L25.7623 19.2765L27.3582 18.5267L26.6084 16.9258ZM45.7995 19.8041L44.6586 21.1509C45.1273 21.4686 45.5011 21.8734 45.8909 22.273L47.1732 21.0613C46.7702 20.5813 46.2774 20.2056 45.7998 19.8032L45.7995 19.8041ZM16.6487 20.8916C15.312 20.8907 14.2065 21.9977 14.2065 23.3347V27.34C14.2065 28.3841 15.1826 28.8979 16.1143 29.2426V33.0067C16.1143 33.9682 16.9176 34.7663 17.8791 34.7663H21.9897C22.9512 34.7663 23.7493 33.9683 23.7493 33.0067V29.2478C24.6851 28.9053 25.6571 28.3863 25.6571 27.34V23.3347C25.6571 21.999 24.5586 20.8907 23.222 20.8907L16.6487 20.8916ZM16.6487 22.6582H23.2217C23.6108 22.6582 23.892 22.9448 23.892 23.3355V27.3409C23.6363 27.9559 23.4641 28.0038 22.8699 28.0112C22.3825 28.0127 21.9873 28.4096 21.9894 28.8969V33.0005L17.8791 33.0008V28.8972C17.881 28.4098 17.4878 28.013 17.0001 28.0115C16.3568 28.0769 16.188 27.6647 15.9713 27.3412V23.3359C15.9713 22.9467 16.2595 22.6585 16.6486 22.6585L16.6487 22.6582ZM49.5112 23.9543L47.9929 24.8453L48.8857 26.3704L50.404 25.4776L49.5112 23.9543ZM49.0751 30.5137C47.205 30.5137 45.6677 32.049 45.668 33.9193C45.668 35.7897 47.205 37.3264 49.0751 37.3264C50.9451 37.3264 52.4754 35.7894 52.4754 33.9193C52.4754 32.049 50.9451 30.5137 49.0751 30.5137ZM49.0751 32.2785C49.9915 32.2785 50.7088 33.0029 50.7088 33.9193C50.7088 34.8358 49.9915 35.562 49.0751 35.562C48.1586 35.562 47.4328 34.8358 47.4328 33.9193C47.4328 33.0029 48.1586 32.2785 49.0751 32.2785ZM45.7849 38.2125C44.4482 38.2125 43.3479 39.3128 43.3479 40.6495V44.6548C43.3479 45.7023 44.3209 46.2272 45.2576 46.5697V50.3218C45.2576 51.2833 46.0538 52.0866 47.0156 52.0866H51.1262C52.0877 52.0866 52.891 51.2833 52.891 50.3218V46.5629C53.8222 46.2176 54.7936 45.6983 54.7936 44.6551V40.6498C54.7936 39.3141 53.6951 38.2128 52.3585 38.2128L45.7849 38.2125ZM17.672 39.0587L16.0174 39.6775L16.6361 41.3321L18.2908 40.7133L17.672 39.0587ZM45.7849 39.9773H52.3582C52.7473 39.9773 53.0285 40.259 53.0285 40.6494V44.6548C52.7728 45.2726 52.6013 45.3245 52.0046 45.3321C51.5197 45.3337 51.1274 45.7262 51.1256 46.2112V50.3217H47.022V46.2112C46.712 45.4777 46.491 45.342 45.7845 45.3321C45.3953 45.3321 45.1142 45.0443 45.1142 44.6548V40.6494C45.1142 40.2603 45.3953 39.9773 45.7845 39.9773H45.7849ZM19.8602 43.5998L18.4334 44.6286C18.8183 45.1731 19.1995 45.6863 19.5466 46.147C19.9477 45.7108 20.4007 45.3493 20.8685 44.9938C20.5223 44.5365 20.1954 44.0651 19.8602 43.5995V43.5998ZM23.2797 47.2933L22.1714 48.6667C22.6321 49.1164 23.1487 49.4524 23.6897 49.7817L24.5946 48.2702C24.1115 48.009 23.7058 47.6352 23.2794 47.2929L23.2797 47.2933ZM43.6352 47.9449L42.1236 48.8635L43.0354 50.3732L44.547 49.4565L43.6352 47.9449ZM27.6176 49.8269L26.9264 51.4487C27.4991 51.7559 28.0905 51.8907 28.7118 52.0604L29.1737 50.3542C28.6259 50.2526 28.1259 50.0433 27.6173 49.8269L27.6176 49.8269ZM39.1267 50.1922L37.4273 50.6679L37.9031 52.3673L39.6025 51.8916L39.1267 50.1922ZM32.5157 50.9867L32.2882 52.7377C32.9076 52.8402 33.5377 52.7868 34.1632 52.7841L34.1564 51.0193C33.6074 51.0536 33.0608 51.0125 32.5156 50.9858L32.5157 50.9867Z" fill="#424242"/>
</svg>
