<svg id="Layer_1" data-name="Layer 1" xmlns="http://www.w3.org/2000/svg" xmlns:xlink="http://www.w3.org/1999/xlink" viewBox="0 0 600 600"><defs><style>.cls-1,.cls-10,.cls-12,.cls-14,.cls-15,.cls-16,.cls-17,.cls-21,.cls-23,.cls-5,.cls-6,.cls-7,.cls-8,.cls-9{fill-rule:evenodd;}.cls-2{fill:#e6e6e6;stroke-width:2px;}.cls-2,.cls-4{stroke:#000;stroke-linecap:round;stroke-dasharray:12 12;}.cls-3{mask:url(#mask);}.cls-4{fill:url(#linear-gradient);}.cls-5{fill:#b28b67;}.cls-13,.cls-6{fill:#191847;}.cls-7{fill:#1f28cf;}.cls-8{fill:#2b44ff;}.cls-9{fill:#c5cfd6;}.cls-10{fill:#e4e4e4;}.cls-11,.cls-12{fill:#2f3676;}.cls-14{fill:#e87613;}.cls-15{fill:#dde3e9;}.cls-16{fill:#ff9b21;}.cls-17{fill-opacity:0.1;}.cls-18{fill:#565c65;}.cls-19{opacity:0.05;}.cls-20{fill:#015fa2;}.cls-21{fill-opacity:0.05;}.cls-22{fill:#f0f0f0;}.cls-23{fill-opacity:0.08;}</style><mask id="mask" x="-39.74" y="-359.69" width="1714.71" height="1247.64" maskUnits="userSpaceOnUse"><g id="mask0_459_4789" data-name="mask0 459 4789"><path class="cls-1" d="M-14.23,118.45c-96.62,335.28,89.6,671.63,416.46,752.22C845.65,980,1675,534.94,1675,534.94S1195.16-232.89,751.75-342.22C424.89-422.81,82.39-216.83-14.23,118.45ZM788.14,316.28c-34.45,119.56-157,193.27-273.56,164.53S331.39,331.72,365.84,212.16,522.85,18.9,639.4,47.63,822.59,196.73,788.14,316.28Z"/></g></mask><linearGradient id="linear-gradient" x1="200.11" y1="6.46" x2="407.77" y2="616.94" gradientTransform="matrix(1, 0, 0, -1, 0, 602)" gradientUnits="userSpaceOnUse"><stop offset="0.09" stop-color="#005ea2"/><stop offset="1" stop-color="#005ea2" stop-opacity="0.09"/></linearGradient></defs><circle class="cls-2" cx="300.33" cy="300.93" r="295.67"/><g class="cls-3"><circle class="cls-4" cx="300.33" cy="300.93" r="295.93"/></g><path class="cls-5" d="M315.16,150.71c4-4.36,6.74-9.71,6.28-15.7-1.31-17.26-27.28-13.46-32.33-4.75s-4.46,30.81,2.07,32.37c2.61.62,8.16-.9,13.8-4l-3.54,23.19h20.93Z"/><path class="cls-6" d="M303.94,136.92q-1.2,15.48-6.36,15.48c-5.16,0-9.53-3-11.79-3-1.65,0-1.28,1.91-.19,3.33.9,1.16,5.29,2.29,5.29,4.1s-3.47.41-3.47,1.48c0,1.78-.61,5.12,2.73,5.12s13-1.14,14.69-5.77q1.61-4.49,2.08-18.57c.2,0,.41,0,.62,0a5,5,0,0,1,5.23,4.84,4.64,4.64,0,0,1-1.57,3.46c1.21,1.59,2.57,3.24,4.12,4.94,5.84-3.24,10.17-12.73,4.46-21.84-1.57-4.47-5.15-6.85-9.37-8a16.36,16.36,0,0,0-10-.68c-5.87.46-11.11,2.12-12.6,3.1,0,5.15,1.08,6.67,10.28,6.54C300.39,132.52,302.13,134.42,303.94,136.92Z"/><path class="cls-5" d="M218.7,263.31c-6.26-7.85-21.91-2.65-21.9,3.85,0,17.07,16.87,98.12,17.75,103.23s10.3,6.79,10.85.4c.87-10.17,2.49-45.44.87-61.84-.48-4.8-1-9.43-1.48-13.77q13.28,22.07,40.38,62.37l10-4.24q-11.82-36.06-19.4-50.9c-8.64-17-16.74-31.47-20.15-36.58C231.16,259.07,223.85,260,218.7,263.31Z"/><path class="cls-7" d="M274.49,340,240,264.44c-8.26-12.29-31.41,2.5-28.59,9.62,6.39,16.18,38.9,68.56,40.81,73.37Z"/><path class="cls-8" d="M195.93,273.06c0,21.4,10.14,71.72,10.15,76.44l24.58-.77q-6.45-65.62-5.44-66.07c1.51-.66,62,7.75,80.19,8.39,26.18.91,37-13.94,37.88-42.13h-50.7q-65,7.19-85.49,10C198.35,260.11,195.93,267.16,195.93,273.06Z"/><path class="cls-9" d="M250.1,335.69l-5.54,1.23c-7.37,1.63-11.75,8.64-9.79,15.64l1.78,6.34c2,7,9.54,11.37,16.91,9.74l5.55-1.23c7.37-1.62,11.75-8.63,9.78-15.64L267,345.43C265,338.42,257.47,334.06,250.1,335.69ZM256,342a3.6,3.6,0,0,1,4.23,2.44l3.1,11a3.14,3.14,0,0,1-2.45,3.92l-13.28,2.93a3.6,3.6,0,0,1-4.23-2.43l-3.1-11a3.15,3.15,0,0,1,2.45-3.91Z"/><path class="cls-10" d="M226.73,358.73a16.48,16.48,0,0,1,1.46,5.41,37.78,37.78,0,0,1-.78,6.37H178.23q-1.92-5.86,2.21-6.33t6.86-.84l22.86-9.43a.9.9,0,0,1,1.15.41v0l1.47,3.3a16.67,16.67,0,0,0,6.22,1.65,14.89,14.89,0,0,0,5.36-1.45h0a1.79,1.79,0,0,1,2.31.79A.93.93,0,0,1,226.73,358.73Z"/><path class="cls-11" d="M184.16,370.51h40.11a2.83,2.83,0,1,1,0,5.65H184.16a2.83,2.83,0,1,1,0-5.65Z"/><path class="cls-12" d="M345.91,253.56h-93.3c-4.82,0-8.72,3.61-8.72,8.06v39.53H351.14a3.37,3.37,0,0,0,3.49-3.23v-36.3C354.63,257.17,350.72,253.56,345.91,253.56Z"/><path class="cls-12" d="M252.61,253.56H250.7a8.54,8.54,0,0,0-8.61,6.76L223,368.09h9.32"/><path class="cls-13" d="M227.32,384.22c-8.67,0-15.69-6.5-15.69-14.52s7-14.51,15.69-14.51,15.7,6.5,15.7,14.51S236,384.22,227.32,384.22Z"/><path class="cls-6" d="M343.29,382.61c36.6,0,66.27-27.45,66.27-61.3S379.89,260,343.29,260,277,287.46,277,321.31,306.69,382.61,343.29,382.61Zm0-11.29c-29.85,0-54.06-22.39-54.06-50s24.21-50,54.06-50,54.07,22.39,54.07,50S373.15,371.32,343.29,371.32Z"/><path class="cls-13" d="M339.81,268.08h7V374.55h-7Z"/><path class="cls-13" d="M301.37,284.81l2.46-2.28a1.85,1.85,0,0,1,2.47,0l78.92,73a1.53,1.53,0,0,1,0,2.28l-2.47,2.28a1.84,1.84,0,0,1-2.46,0l-78.92-73A1.51,1.51,0,0,1,301.37,284.81Z"/><path class="cls-13" d="M285.74,322.92V319.7a1.69,1.69,0,0,1,1.75-1.62H399.1a1.69,1.69,0,0,1,1.74,1.62v3.22a1.69,1.69,0,0,1-1.74,1.62H287.49A1.69,1.69,0,0,1,285.74,322.92Z"/><path class="cls-13" d="M303.83,360.09l-2.46-2.28a1.53,1.53,0,0,1,0-2.28l78.92-73a1.84,1.84,0,0,1,2.46,0l2.47,2.28a1.53,1.53,0,0,1,0,2.28l-78.92,73A1.85,1.85,0,0,1,303.83,360.09Z"/><path class="cls-5" d="M255.41,238.4,227.6,257.3a78.49,78.49,0,0,0-18.91,7c-1.19,1-2.64,3.05,2.32,2.7s10.19-.52,10.87,1.05-2.31,3.43-.93,5.54Q222.33,275.72,234,263l27.54-10.57Zm106.8.65-18.22.07q16.88,50.4,18.22,53.48c2,4.63-2.25,11.67-4.08,15.46,5.95,2.46,5.31-6.66,12.81-3.43,6.85,2.95,12.06,8.29,20,3.77,1-.56,2-2.65-.53-4.28-6.42-4.07-15.67-11.19-16.92-13.53Q370.91,285.79,362.21,239.05Z"/><path class="cls-14" d="M310.42,168.33l-7.54-1.2c-28,22.36-39.46,65.3-73.75,88.05l8.25,9.47C296.87,257.83,311.61,205.45,310.42,168.33Z"/><path class="cls-15" d="M343.29,256H276.58c-3.05,0-2.48-4.07-2-6.13,5.09-23.71,24.94-49.28,24.94-83L318.73,164C334.65,187.71,340.15,216.86,343.29,256Z"/><path class="cls-16" d="M342.76,187.3a10.84,10.84,0,0,0,6.64-5.2c7-11.74,4.49-18.2-3-20.32S332.15,164,320.18,164a12.28,12.28,0,0,0-1.79.11l-6,.32q-25.92,81.29-14.3,108.46h52.51a160.91,160.91,0,0,0,8.93,16.93h14.31Q375.84,229.45,342.76,187.3Z"/><path class="cls-17" d="M339.14,245.09q-2.47,19.17-8.06,27.82h19.49Q345.13,261.18,339.14,245.09Z"/><path class="cls-18" d="M63,218.68v11.07h2.23V218.68Zm4.42,11.07H69.7v-5.07c0-.77.74-1.16,1.48-1.16a1.22,1.22,0,0,1,1.31,1.29v4.94h2.24v-5.22A2.79,2.79,0,0,0,69.66,223v-1.11h-2.2ZM81,223.39v-1.56H79.28v-2.38H77.69l-.57,2.39H75.77v1.55h1.29v4.31c0,1.27.53,2.14,2.62,2.14a3.45,3.45,0,0,0,1.39-.2v-1.37H80c-.49,0-.7-.08-.7-.66l0-4.22Zm3.23,2.92h5.32v-.61c0-2.37-1.27-4-3.69-4s-3.84,1.83-3.84,4.21a3.76,3.76,0,0,0,4,4,3.43,3.43,0,0,0,3.56-2.66h-2a1.52,1.52,0,0,1-1.61,1C84.89,228.29,84.26,227.52,84.27,226.31Zm0-1.33a1.64,1.64,0,0,1,1.62-1.73A1.56,1.56,0,0,1,87.5,225Zm10.5,7.39c2.82,0,4.22-1.07,4.22-2.56,0-1.25-.95-2.13-2.89-2.26l-1.64-.1c-.94-.06-1.39-.09-1.39-.35s.19-.3.79-.33a7,7,0,0,0,.78,0c2.36,0,3.58-1.24,3.58-2.61a2.66,2.66,0,0,0-.17-.84l1.37-.22V221.4c-.67.28-1.85.75-2.33.93a4,4,0,0,0-2.3-.61c-2.15,0-3.75.91-3.75,2.47a2.59,2.59,0,0,0,1.6,2.29c-1.09.19-1.62.71-1.62,1.27,0,.75.72,1,1,1.18-.15.09-1.54.42-1.54,1.49S92,232.37,94.77,232.37Zm-.06-6.81a1.27,1.27,0,0,1-1.42-1.3,1.41,1.41,0,0,1,2.82,0A1.26,1.26,0,0,1,94.71,225.56Zm.42,5.56c-1.7,0-2.48-.29-2.48-1a1,1,0,0,1,1.19-.9l1.82.12c.78.06,1.2.38,1.2.85S96.37,231.12,95.13,231.12Zm5.59-1.37H103v-4.33c0-1.06.67-1.77,2.43-1.62a1.21,1.21,0,0,1,.34.06v-2.13a1,1,0,0,0-.35,0,2.62,2.62,0,0,0-2.51,2v-1.87h-2.15Zm8.5.15a2.4,2.4,0,0,0,2.45-1.51l.19,1.36h1.86v-5.56c0-1.56-.92-2.51-3.34-2.51-2,0-3.41.8-3.5,2.51h1.86a1.5,1.5,0,0,1,1.53-1c.9,0,1.31.4,1.31,1.13v.47l-1,0c-2.8,0-4,.95-4,2.68A2.41,2.41,0,0,0,109.22,229.9Zm.75-1.47a1.18,1.18,0,0,1-1.31-1.17c0-1,1-1.29,2.12-1.31h.8v1.17A1.59,1.59,0,0,1,110,228.43Zm8.09,1.46a3.08,3.08,0,0,0,.93-.19v-1.38l-.37,0a.9.9,0,0,1-.9-1v-8.88h-2.18v9.15C115.54,228.67,115.72,229.89,118.06,229.89Zm10.74-6.5v-1.56H127v-2.38h-1.59l-.57,2.39h-1.35v1.55h1.28v4.31c0,1.27.54,2.14,2.63,2.14a3.35,3.35,0,0,0,1.38-.2v-1.37h-1.06c-.49,0-.7-.08-.7-.66l0-4.22Zm4.79,6.51c2.41,0,3.83-1.68,3.83-4.06,0-2.53-1.49-4.16-3.82-4.16s-3.84,1.67-3.84,4.16S131.26,229.9,133.59,229.9Zm0-1.66c-1.26,0-1.65-1.24-1.65-2.48s.46-2.43,1.65-2.43,1.63,1.18,1.63,2.43S134.77,228.24,133.6,228.24Zm7.89,4h2.22l.49-3.66a2.17,2.17,0,0,0,2,1.34c1.82,0,3.37-1.3,3.76-4.17s-.69-4-2.41-4A3.35,3.35,0,0,0,145,223l.15-1.14h-2.23Zm4.41-3.95c-1.11,0-1.49-1.2-1.31-2.52s.87-2.44,2-2.44,1.53.92,1.32,2.44C147.66,227.5,146.83,228.27,145.9,228.27Zm5,1.48h2.22l.61-4.33c.15-1.06.89-1.77,2.61-1.62a1.07,1.07,0,0,1,.31.06l.3-2.13a.87.87,0,0,0-.33,0,3.06,3.06,0,0,0-2.74,2l.26-1.87h-2.13Zm9.45.15a4.35,4.35,0,0,0,4.32-4.06c.37-2.53-.83-4.16-3.12-4.16s-4,1.67-4.34,4.16S158.13,229.9,160.4,229.9Zm.27-1.66c-1.22,0-1.41-1.24-1.24-2.48s.78-2.43,1.93-2.43,1.4,1.18,1.22,2.43S161.78,228.24,160.67,228.24Zm6.88,1.51h1.58l4.07-7.91h-2l-2.38,5h-.06l-.91-5h-2Zm7-9.05h2.16l.28-2H174.8Zm-1.25,9.05h2.12l1.11-7.91h-2.12Zm4.1,0h2.21l.77-5.12a1.48,1.48,0,0,1,1.57-1.11,1,1,0,0,1,1.07,1.23l-.75,5h2.22l.78-5.27a2.22,2.22,0,0,0-2.28-2.71,2.9,2.9,0,0,0-2.38,1.09l.13-1h-2.15Zm12.28,2.62c2.72,0,4.18-1,4.38-2.44s-.67-2.25-2.6-2.38c-.63,0-1.22-.06-1.59-.1-.74-.06-1.17-.15-1.19-.42s.24-.25.86-.25l.77,0c2.27,0,3.59-1.18,3.77-2.5a2.71,2.71,0,0,0-.06-.89l1.39-.28.2-1.74-2.45,1a3.45,3.45,0,0,0-2.18-.62c-2.22,0-3.71.94-3.91,2.36a2.3,2.3,0,0,0,1.24,2.36c-1.15.22-1.68.69-1.75,1.2a1.25,1.25,0,0,0,.78,1.25c-.21.1-1.55.39-1.7,1.42C185.44,231.53,186.84,232.37,189.65,232.37Zm.68-6.81c-.79,0-1.2-.45-1.1-1.18a1.66,1.66,0,0,1,1.66-1.49,1,1,0,0,1,1.08,1.26A1.58,1.58,0,0,1,190.33,225.56Zm-.33,5.56c-1.61,0-2.29-.28-2.21-.89a1.24,1.24,0,0,1,1.34-1l1.74.12c.75.05,1.07.32,1,.74C191.8,230.75,191.24,231.12,190,231.12Zm-126,19c1.24,0,2.19-.46,3-2.48l3.21-8H68l-1.92,5.15-1.89-5.15H62l3.08,7.58-.14.44c-.1.23-.27.84-1.64.75l-.79,0v1.43A3,3,0,0,0,64,250.13Zm10.6-2.37c2.41,0,3.83-1.68,3.83-4.06,0-2.54-1.49-4.16-3.82-4.16s-3.83,1.66-3.83,4.16S72.27,247.76,74.59,247.76Zm0-1.66c-1.25,0-1.65-1.24-1.65-2.48s.46-2.43,1.65-2.43,1.63,1.18,1.63,2.43S75.77,246.1,74.6,246.1Zm8.2,1.66A2.15,2.15,0,0,0,85.14,246l.26,1.57h1.68V239.7H84.87v5.15a1.26,1.26,0,0,1-1.43,1.29c-.93,0-1.42-.52-1.42-1.26V239.7H79.79v5.47A2.79,2.79,0,0,0,82.8,247.76Zm6.23-.15h2.24v-4.33c0-1.07.67-1.77,2.43-1.62a1.21,1.21,0,0,1,.34.06v-2.13a1,1,0,0,0-.35-.05,2.62,2.62,0,0,0-2.51,2V239.7H89ZM101,236.55H98.79v2H101Zm0,3.15H98.82v7.91H101Zm4.92,8.06A2.44,2.44,0,0,0,108.4,246l.25,1.62h1.63V236.24H108v4.53a2.68,2.68,0,0,0-2.38-1.23c-2,0-3.15,1.59-3.15,4.07S103.74,247.76,105.87,247.76Zm.49-1.61c-1,0-1.68-.81-1.68-2.57s.72-2.42,1.69-2.42,1.65.8,1.66,2.42C108,245.44,107.48,246.15,106.36,246.15Zm7.72-2h5.32v-.6c0-2.37-1.27-4-3.69-4s-3.84,1.82-3.84,4.2a3.75,3.75,0,0,0,3.95,4,3.44,3.44,0,0,0,3.57-2.66h-2a1.52,1.52,0,0,1-1.61,1.05C114.7,246.15,114.07,245.37,114.08,244.16Zm0-1.33a1.64,1.64,0,0,1,1.62-1.73,1.56,1.56,0,0,1,1.61,1.73Zm6.93,4.78h2.23v-5.07c0-.77.74-1.16,1.48-1.16a1.21,1.21,0,0,1,1.31,1.28v5h2.24v-5.22a2.79,2.79,0,0,0-5.07-1.58V239.7H121Zm13.58-6.36v-1.56h-1.76v-2.38h-1.6l-.56,2.39h-1.36v1.55h1.29v4.31c0,1.27.53,2.13,2.62,2.13a3.64,3.64,0,0,0,1.39-.19v-1.38h-1.06c-.49,0-.71-.07-.71-.65v-4.22Zm3.76-4.7h-2.17v2h2.17Zm0,3.15H136.2v7.91h2.14Zm6.69,1.55v-1.56h-1.76v-2.38h-1.59l-.56,2.39h-1.36v1.55h1.29v4.31c0,1.27.53,2.13,2.62,2.13a3.68,3.68,0,0,0,1.39-.19v-1.38H144c-.49,0-.7-.07-.7-.65l0-4.22Zm2.84,8.88c1.23,0,2.19-.46,3-2.48l3.21-8H151.9L150,244.85l-1.9-5.15h-2.21l3.07,7.58-.14.44c-.09.23-.27.84-1.64.75l-.79,0v1.43A3,3,0,0,0,147.87,250.13Z"/><g class="cls-19"><path class="cls-1" d="M181.11,112.81a2.54,2.54,0,0,1-1.18-.29c-9.84-4.69-18.34-6.68-28.54-6.68a62.45,62.45,0,0,0-28.53,6.68,2.72,2.72,0,0,1-3.49-1,2.31,2.31,0,0,1,1-3.22,69.88,69.88,0,0,1,61.89,0,2.24,2.24,0,0,1,1.07,3.18A2.54,2.54,0,0,1,181.11,112.81Zm-73.32,24.88a2.85,2.85,0,0,1-1.48-.43,2.26,2.26,0,0,1-.62-3.32,51.88,51.88,0,0,1,19.22-15.49c16.08-7.68,36.68-7.73,52.82,0a52.2,52.2,0,0,1,19.21,15.4,2.26,2.26,0,0,1-.61,3.32,2.69,2.69,0,0,1-3.59-.57,47.2,47.2,0,0,0-17.37-13.93c-14.7-7-33.51-7-48.16,0a47.72,47.72,0,0,0-17.42,14A2.28,2.28,0,0,1,107.79,137.69Zm32,57.2a2.52,2.52,0,0,1-1.8-.71,48.81,48.81,0,0,1-10.3-12.51,39.62,39.62,0,0,1-5.38-20.57c0-14.08,13-25.55,29-25.55s29,11.47,29,25.55a2.57,2.57,0,0,1-5.12,0c0-11.47-10.71-20.81-23.88-20.81s-23.87,9.34-23.87,20.81a34.93,34.93,0,0,0,4.76,18.24,45.49,45.49,0,0,0,9.48,11.47,2.32,2.32,0,0,1,0,3.37A3,3,0,0,1,139.82,194.89Zm36.73-8.77a29.18,29.18,0,0,1-15.88-4.22c-7.64-4.78-12.2-12.56-12.2-20.8a2.57,2.57,0,0,1,5.13,0c0,6.68,3.69,13,9.94,16.87a23.76,23.76,0,0,0,13,3.36,36.7,36.7,0,0,0,5.33-.47,2.55,2.55,0,0,1,3,1.94,2.38,2.38,0,0,1-2.1,2.75A37.94,37.94,0,0,1,176.55,186.12Zm-10.3,9.76a3,3,0,0,1-.66-.09c-8.15-2.09-13.48-4.88-19.06-9.95a33.32,33.32,0,0,1-11.12-24.74c0-7.68,7.07-13.93,15.78-13.93S167,153.42,167,161.1c0,5.07,4.76,9.19,10.66,9.19s10.65-4.12,10.65-9.19c0-17.87-16.65-32.37-37.14-32.37-14.55,0-27.87,7.49-33.87,19.1a28.54,28.54,0,0,0-3,13.27,44,44,0,0,0,3.43,17.11,2.27,2.27,0,0,1-1.48,3,2.61,2.61,0,0,1-3.28-1.37,49.33,49.33,0,0,1-3.74-18.77,33.46,33.46,0,0,1,3.48-15.36c6.81-13.22,21.93-21.8,38.48-21.8,23.31,0,42.27,16.64,42.27,37.11,0,7.68-7.07,13.93-15.78,13.93s-15.78-6.25-15.78-13.93c0-5.07-4.77-9.19-10.66-9.19s-10.66,4.12-10.66,9.19a28.73,28.73,0,0,0,9.58,21.37c4.87,4.46,9.53,6.92,16.76,8.77a2.34,2.34,0,0,1,1.79,2.89A2.47,2.47,0,0,1,166.25,195.88Z"/></g><path class="cls-20" d="M88,160.74l-2.89.4v2.28H96.88v-2.25l-3-.43v-21l3-.47v-2.42H85v2.42l2.93.47Zm19.36,3.08a7.34,7.34,0,0,0,5.82-2.86v.93c0,1.64.75,2,2.29,2a25.87,25.87,0,0,0,4.46-.53v-2.25H118V135l-1.07-.82h-.14l-7.79.71V137l3.47.53v5.75a10.74,10.74,0,0,0-2.25-.25c-7.07,0-10.68,5.11-10.68,10.9C99.56,160.89,103,163.82,107.31,163.82Zm2-3.15c-2.22,0-3.9-2.14-3.83-7.28,0-5.93,2-7.9,4.54-7.9a3.55,3.55,0,0,1,2.43.75v13A4,4,0,0,1,109.35,160.67Zm22.1,3.15c3.32,0,6.57-1.68,7.64-2.9l-.92-2.1a10.73,10.73,0,0,1-5.15,1.53c-3.28,0-5-2.32-5.25-6.39h11.29a16.37,16.37,0,0,0,.32-3.64c-.11-4.58-2.71-7.26-7.71-7.26-5.86,0-9.72,3.86-9.72,10.43C122,159.57,124.7,163.82,131.45,163.82Zm-3.71-12.18c.14-5,1.5-6.15,3.39-6.15,2.11,0,2.79,1.83,2.79,4.65,0,.5,0,1,0,1.5Zm16.31,9.14-2,.36v2.28h9.75v-2.28l-2-.36V148a6.71,6.71,0,0,1,3.86-1.57c2.21,0,2.78,1.21,2.78,4.57v9.79l-1.82.32v2.28h9.61V161.1l-2-.28V151c0-5.72-1.5-7.86-5.75-7.86a11,11,0,0,0-7.21,2.86l0-.86v-1.32l-.93-.75h-.1l-6.32.75v2.72l2.14.67Zm28.66,3a12.41,12.41,0,0,0,6.86-2l-.75-2.14a10.86,10.86,0,0,1-3.25.57c-1.54,0-1.68-.29-1.68-4v-9.61H179v-2.93h-5.21l-.18-5.32h-3.22a37.3,37.3,0,0,1-1.18,3.65,4,4,0,0,1-1.1,1.71c-.61.29-1.5.61-2.22.89v2h2.22v12.83C168.14,162.35,169.6,163.74,172.71,163.74Zm12.86-23.39h0a3.18,3.18,0,0,0,3.46-3.36,2.8,2.8,0,0,0-3.1-2.85,3.18,3.18,0,0,0-3.36,3.35A2.82,2.82,0,0,0,185.57,140.35Zm-2.1,20.43-2.29.36v2.28h10.21v-2.28l-2.25-.32v-17l-1-.75H188l-7,.82v2.65l2.43.67Zm16.41,3a12.41,12.41,0,0,0,6.86-2l-.75-2.14a10.86,10.86,0,0,1-3.25.57c-1.54,0-1.68-.29-1.68-4v-9.61h5.14v-2.93H201l-.18-5.32h-3.22a37.3,37.3,0,0,1-1.18,3.65,4,4,0,0,1-1.1,1.71c-.61.29-1.5.61-2.22.89v2h2.22v12.83C195.31,162.35,196.77,163.74,199.88,163.74Zm12,8.58c4.18,0,6.14-2.93,8.18-8.43.32-.72,3.71-10.47,6.07-17.68l1.72-.39v-2.26h-8v2.26l2.18.39-2.79,9.61-.93,3.78-1.14-3.75-3-9.61,2.5-.42v-2.26H206.31v2.26l1.58.42,6.71,17.18h2c-1.18,3.22-2.47,4.82-4.93,4.82a6,6,0,0,1-2.54-.5V172A9.12,9.12,0,0,0,211.85,172.32Z"/><path class="cls-18" d="M188,72.1c-3.12,0-5,2.11-5,5.59s1.93,5.78,5,5.78a4.11,4.11,0,0,0,4.51-4h-2.35a2.31,2.31,0,0,1-2.23,2.14c-1.55,0-2.49-1.15-2.49-3.91s.94-3.78,2.49-3.78a2.17,2.17,0,0,1,2.23,2h2.35A4.31,4.31,0,0,0,188,72.1Zm9.67,11.37c2.42,0,3.83-1.68,3.83-4.06,0-2.54-1.48-4.16-3.82-4.16s-3.83,1.66-3.83,4.16S195.31,83.47,197.63,83.47Zm0-1.66c-1.25,0-1.65-1.24-1.65-2.48s.47-2.43,1.65-2.43,1.63,1.18,1.63,2.43S198.81,81.81,197.64,81.81ZM203,83.32h2.23V79c0-1.07.68-1.77,2.44-1.62a1.2,1.2,0,0,1,.33.06V75.3a.94.94,0,0,0-.34,0,2.6,2.6,0,0,0-2.51,2V75.4H203Zm8.18-3.45h5.32v-.6c0-2.37-1.27-4-3.69-4S209,77.07,209,79.45a3.76,3.76,0,0,0,4,4,3.44,3.44,0,0,0,3.56-2.66h-2a1.52,1.52,0,0,1-1.61,1C211.79,81.86,211.16,81.08,211.17,79.87Zm0-1.33a1.64,1.64,0,0,1,1.62-1.73,1.56,1.56,0,0,1,1.61,1.73ZM226.33,77V75.4h-1.76V73H223l-.57,2.38h-1.36V77h1.29v4.31c0,1.27.54,2.13,2.63,2.13a3.61,3.61,0,0,0,1.38-.19V81.83h-1.06c-.49,0-.71-.07-.71-.65V77Zm4.79,6.51c2.41,0,3.82-1.68,3.82-4.06,0-2.54-1.48-4.16-3.81-4.16s-3.84,1.66-3.84,4.16S228.79,83.47,231.12,83.47Zm0-1.66c-1.26,0-1.66-1.24-1.66-2.48s.47-2.43,1.66-2.43,1.63,1.18,1.63,2.43S232.3,81.81,231.13,81.81Zm11.1,1.66A2.41,2.41,0,0,0,244.68,82l.19,1.36h1.87V77.75c0-1.55-.93-2.5-3.35-2.5-2,0-3.41.8-3.5,2.51h1.86a1.51,1.51,0,0,1,1.53-1c.9,0,1.31.4,1.31,1.12v.48h-1c-2.8,0-4,.95-4,2.68A2.41,2.41,0,0,0,242.23,83.47ZM243,82a1.18,1.18,0,0,1-1.31-1.17c0-1,1-1.29,2.11-1.31h.8v1.17A1.58,1.58,0,0,1,243,82Zm9,3.78h2.24V82.13a2.61,2.61,0,0,0,2.25,1.34c1.87,0,3.26-1.3,3.26-4.17s-1.27-4-3-4a2.93,2.93,0,0,0-2.46,1.3V75.4H252Zm3.95-4c-1.16,0-1.71-1.19-1.71-2.51s.55-2.45,1.71-2.45,1.71.92,1.71,2.45C257.66,81.07,256.91,81.83,256,81.83Zm7.24-2h5.32v-.6c0-2.37-1.27-4-3.69-4S261,77.07,261,79.45a3.75,3.75,0,0,0,3.95,4,3.44,3.44,0,0,0,3.57-2.66h-2a1.52,1.52,0,0,1-1.61,1C263.81,81.86,263.18,81.08,263.19,79.87Zm0-1.33a1.64,1.64,0,0,1,1.62-1.73,1.56,1.56,0,0,1,1.61,1.73Zm6.93,4.78h2.23V79c0-1.07.68-1.77,2.44-1.62a1.2,1.2,0,0,1,.33.06V75.3a.94.94,0,0,0-.34,0,2.6,2.6,0,0,0-2.51,2V75.4h-2.15Zm9.46.15c2,0,3.34-.89,3.34-2.48a2.41,2.41,0,0,0-2.14-2.31l-1.28-.29c-.87-.17-1.26-.39-1.26-.8,0-.56.56-.84,1.32-.84a1.27,1.27,0,0,1,1.4,1h1.86c0-1.56-1.28-2.46-3.22-2.46-2.17,0-3.33,1.08-3.33,2.5s.94,2,2.34,2.27l1.39.29c.72.14,1,.38,1,.8,0,.57-.58.83-1.43.83A1.54,1.54,0,0,1,278,80.82H276C276.31,82.7,277.93,83.47,279.58,83.47Zm8.34,0c2.41,0,3.83-1.68,3.83-4.06,0-2.54-1.49-4.16-3.82-4.16s-3.84,1.66-3.84,4.16S285.59,83.47,287.92,83.47Zm0-1.66c-1.26,0-1.66-1.24-1.66-2.48s.47-2.43,1.66-2.43,1.63,1.18,1.63,2.43S289.1,81.81,287.93,81.81Zm5.34,1.51h2.24V78.25c0-.77.74-1.16,1.47-1.16a1.22,1.22,0,0,1,1.32,1.28v4.95h2.23V78.1a2.78,2.78,0,0,0-5.06-1.58V75.4h-2.2Zm8.45-6.77h.83l1.53-2.41V72.25h-2.25v2.14l.78.08Zm6.39,6.92c2,0,3.34-.89,3.34-2.48a2.4,2.4,0,0,0-2.13-2.31L308,78.39c-.86-.17-1.25-.39-1.25-.8,0-.56.55-.84,1.32-.84a1.26,1.26,0,0,1,1.39,1h1.87c0-1.56-1.29-2.46-3.23-2.46-2.17,0-3.33,1.08-3.32,2.5s.93,2,2.33,2.27l1.4.29c.72.14,1,.38,1,.8,0,.57-.58.83-1.43.83a1.56,1.56,0,0,1-1.62-1.12h-1.93C304.85,82.7,306.46,83.47,308.11,83.47Zm10.41-11.21h-2.17v2h2.17Zm0,3.14h-2.14v7.92h2.14Zm4.91,8.07A2.45,2.45,0,0,0,326,81.7l.25,1.62h1.62V72h-2.24v4.53a2.7,2.7,0,0,0-2.39-1.23c-2,0-3.14,1.59-3.14,4.07S321.3,83.47,323.42,83.47Zm.49-1.61c-1,0-1.67-.81-1.67-2.57s.72-2.42,1.69-2.42,1.64.8,1.66,2.42C325.59,81.15,325,81.86,323.91,81.86Zm7.72-2H337v-.6c0-2.37-1.27-4-3.69-4s-3.84,1.82-3.84,4.2a3.76,3.76,0,0,0,4,4A3.44,3.44,0,0,0,337,80.81h-2a1.51,1.51,0,0,1-1.6,1C332.25,81.86,331.63,81.08,331.63,79.87Zm0-1.33a1.65,1.65,0,0,1,1.63-1.73,1.56,1.56,0,0,1,1.6,1.73Zm6.93,4.78h2.24V78.25c0-.77.74-1.16,1.48-1.16a1.21,1.21,0,0,1,1.31,1.28v4.95h2.24V78.1a2.79,2.79,0,0,0-5.07-1.58V75.4h-2.2ZM352.14,77V75.4h-1.76V73h-1.59l-.57,2.38h-1.35V77h1.29v4.31c0,1.27.53,2.13,2.62,2.13a3.72,3.72,0,0,0,1.39-.19V81.83H351.1c-.49,0-.7-.07-.7-.65l0-4.22Zm3.77-4.7h-2.17v2h2.17Zm0,3.14h-2.13v7.92h2.13Zm6.7,1.56V75.4h-1.76V73h-1.59l-.57,2.38h-1.35V77h1.28v4.31c0,1.27.54,2.13,2.63,2.13a3.72,3.72,0,0,0,1.39-.19V81.83h-1.07c-.49,0-.7-.07-.7-.65l0-4.22Zm2.83,8.88c1.24,0,2.19-.46,3-2.48l3.21-8h-2.19l-1.92,5.16-1.89-5.16h-2.22L366.51,83l-.14.44c-.1.23-.27.84-1.64.75l-.79,0v1.43A3,3,0,0,0,365.42,85.84Z"/><path class="cls-21" d="M458.07,275.84c0-5,4.44-9.12,9.86-9.12s9.86,4.1,9.86,9.12-4.43,9.13-9.86,9.13S458.07,280.86,458.07,275.84Zm23.57,16.33a36.92,36.92,0,0,0-27.42,0,9.19,9.19,0,0,0-6,8.44v2.6h39.46v-2.6A9.19,9.19,0,0,0,481.64,292.17Zm45.48-7.2c5.42,0,9.86-4.11,9.86-9.13s-4.44-9.12-9.86-9.12-9.87,4.1-9.87,9.12S521.69,285,527.12,285Zm13.71,7.2a36.92,36.92,0,0,0-27.42,0,9.18,9.18,0,0,0-6,8.44v2.6h39.46v-2.6A9.19,9.19,0,0,0,540.83,292.17Zm6,38.42-19.73-18.25V326H467.93V312.34L448.2,330.59l19.73,18.25V335.15h59.19v13.69Z"/><path class="cls-18" d="M402.33,208.32H410v-1.9h-5.45v-2.75h4.66v-1.85h-4.64v-2.68h5.35v-1.88h-7.6Zm12.54.15c2,0,3.34-.89,3.34-2.47a2.41,2.41,0,0,0-2.13-2.32l-1.29-.29c-.86-.17-1.25-.39-1.25-.8,0-.56.55-.83,1.32-.83a1.25,1.25,0,0,1,1.39,1h1.87c0-1.55-1.29-2.45-3.23-2.45-2.17,0-3.33,1.07-3.32,2.5s.93,2,2.33,2.26l1.4.29c.71.14,1,.38,1,.81s-.58.82-1.43.82a1.56,1.56,0,0,1-1.62-1.11h-1.93C411.61,207.7,413.22,208.47,414.87,208.47Zm8,0c2,0,3.33-.89,3.33-2.47a2.41,2.41,0,0,0-2.13-2.32l-1.29-.29c-.86-.17-1.25-.39-1.25-.8,0-.56.56-.83,1.32-.83a1.25,1.25,0,0,1,1.39,1h1.87c0-1.55-1.28-2.45-3.23-2.45-2.16,0-3.33,1.07-3.32,2.5s.93,2,2.34,2.26l1.39.29c.72.14,1,.38,1,.81s-.58.82-1.43.82a1.56,1.56,0,0,1-1.62-1.11h-1.92C419.62,207.7,421.23,208.47,422.89,208.47Zm6.78-3.59H435v-.61c0-2.37-1.27-4-3.68-4s-3.85,1.82-3.85,4.2a3.76,3.76,0,0,0,4,4,3.44,3.44,0,0,0,3.57-2.66h-2a1.51,1.51,0,0,1-1.6,1.05C430.29,206.86,429.66,206.09,429.67,204.88Zm0-1.33a1.63,1.63,0,0,1,1.62-1.73,1.56,1.56,0,0,1,1.61,1.73Zm6.92,4.77h2.24v-5.06c0-.78.74-1.17,1.48-1.17a1.22,1.22,0,0,1,1.31,1.29v4.94h2.24V203.1a2.79,2.79,0,0,0-5.07-1.57v-1.12h-2.2ZM450.18,202V200.4h-1.76V198h-1.6l-.56,2.39H444.9V202h1.29v4.31c0,1.27.53,2.14,2.62,2.14a3.45,3.45,0,0,0,1.39-.2v-1.37h-1.06c-.49,0-.71-.08-.71-.66V202Zm3.76-4.7h-2.17v2h2.17Zm0,3.15h-2.14v7.91h2.14Zm4.27,8.06a2.41,2.41,0,0,0,2.45-1.51l.18,1.36h1.87v-5.56c0-1.56-.92-2.5-3.34-2.5-2,0-3.41.79-3.5,2.51h1.86a1.49,1.49,0,0,1,1.53-1c.9,0,1.31.4,1.31,1.13v.47l-1,0c-2.79,0-4,1-4,2.68A2.41,2.41,0,0,0,458.2,208.47ZM459,207a1.18,1.18,0,0,1-1.3-1.18c0-1,1-1.29,2.11-1.3l.8,0v1.17A1.6,1.6,0,0,1,459,207Zm8.09,1.45a2.91,2.91,0,0,0,.94-.19v-1.38l-.38,0a.89.89,0,0,1-.89-1V197h-2.19v9.15C464.52,207.24,464.7,208.46,467,208.46Zm10.74-6.5V200.4H476V198h-1.59l-.56,2.39h-1.36V202h1.28v4.31c0,1.27.54,2.14,2.63,2.14a3.35,3.35,0,0,0,1.38-.2v-1.37h-1.06c-.49,0-.7-.08-.7-.66l0-4.22Zm4.79,6.51c2.41,0,3.83-1.68,3.83-4.06,0-2.53-1.49-4.15-3.82-4.15s-3.84,1.66-3.84,4.15S480.24,208.47,482.57,208.47Zm0-1.66c-1.26,0-1.65-1.24-1.65-2.48s.46-2.43,1.65-2.43,1.63,1.18,1.63,2.43S483.75,206.81,482.58,206.81Zm15.09,4,1.43-10.38h-2.22l-.17,1.14a2.44,2.44,0,0,0-2.22-1.29c-1.79,0-3.16,1.37-3.52,4-.43,3,.87,4.17,2.62,4.17a3,3,0,0,0,2.36-1.33l-.51,3.65Zm-3.32-3.95c-1,0-1.54-.86-1.31-2.52s1.06-2.44,2-2.44c1.12,0,1.51,1.05,1.32,2.44S495.47,206.84,494.35,206.84Zm8.4,1.63a2.46,2.46,0,0,0,2.53-1.72l0,1.57H507l1.12-7.91h-2.21l-.73,5.15a1.43,1.43,0,0,1-1.54,1.29c-.9,0-1.29-.52-1.19-1.25l.74-5.19h-2.23l-.77,5.47A2.34,2.34,0,0,0,502.75,208.47Zm8.41,0a2.7,2.7,0,0,0,2.57-1.49v1.34h1.84l.83-5.56c.21-1.5-.54-2.5-2.9-2.5-1.93,0-3.47.87-3.8,2.51h1.83a1.77,1.77,0,0,1,1.64-1c.79,0,1.2.39,1.09,1.13l-.07.47-1,0c-2.73,0-4.08,1-4.33,2.68A2,2,0,0,0,511.16,208.47Zm.95-1.46a1,1,0,0,1-1.08-1.18c.15-1,1.17-1.29,2.22-1.3l.77,0-.18,1.17A1.85,1.85,0,0,1,512.11,207Zm7.77,1.45a3.08,3.08,0,0,0,.94-.19l.19-1.38-.34,0c-.67-.08-.8-.46-.72-1l1.32-8.88H519.1l-1.36,9.15C517.58,207.24,517.58,208.46,519.88,208.46Zm3.71-9.18h2.16l.29-2h-2.16Zm-1.25,9h2.12l1.12-7.91h-2.13Zm4.86,0h2.19l1-6.36H532l.23-1.55h-1.65l.1-.77c.1-.64.32-.9.87-.9h1l.21-1.48h-1.78a2.22,2.22,0,0,0-2.4,2l-.17,1.14H527l-.24,1.55h1.42Zm6.13,2.53c1.21,0,2.21-.46,3.34-2.48l4.27-8h-2.16l-2.61,5.16-1-5.16h-2.19L534.8,208l-.2.44c-.12.23-.37.84-1.7.76l-.76,0-.21,1.42A2.51,2.51,0,0,0,533.33,210.85Zm8.93-11.57h2.16l.28-2h-2.15Zm-1.25,9h2.12l1.11-7.91h-2.12Zm4.1,0h2.21l.77-5.12a1.47,1.47,0,0,1,1.57-1.11,1,1,0,0,1,1.06,1.23l-.74,5h2.21l.79-5.27a2.23,2.23,0,0,0-2.29-2.71,2.89,2.89,0,0,0-2.37,1.09l.13-1H546.3Zm12.28,2.62c2.72,0,4.18-1,4.38-2.44s-.67-2.24-2.6-2.37c-.63,0-1.22-.07-1.59-.1-.74-.07-1.17-.16-1.19-.43s.24-.25.87-.25l.76,0c2.27,0,3.59-1.19,3.77-2.51a2.71,2.71,0,0,0-.06-.89l1.39-.28.2-1.74-2.45.95a3.45,3.45,0,0,0-2.18-.62c-2.22,0-3.71.94-3.91,2.36A2.32,2.32,0,0,0,556,205c-1.15.21-1.68.68-1.75,1.19a1.25,1.25,0,0,0,.78,1.25c-.21.1-1.55.39-1.7,1.42C553.18,210.1,554.58,210.94,557.39,210.94Zm.68-6.81c-.79,0-1.2-.45-1.1-1.18a1.66,1.66,0,0,1,1.66-1.49,1,1,0,0,1,1.08,1.26A1.58,1.58,0,0,1,558.07,204.13Zm-.33,5.56c-1.61,0-2.29-.28-2.21-.89a1.24,1.24,0,0,1,1.34-1l1.74.12c.75.05,1.07.32,1,.74C559.54,209.32,559,209.69,557.74,209.69Zm-150.89,8.58h-1.72v-.77c0-.64.18-.9.75-.9h1v-1.49H405.1a1.91,1.91,0,0,0-2.16,2v1.14h-1.46v1.55h1.46v6.36h2.24v-6.36h1.67Zm4.68,8.06c2.41,0,3.82-1.68,3.82-4.06,0-2.53-1.48-4.16-3.82-4.16s-3.83,1.66-3.83,4.16S409.2,226.33,411.53,226.33Zm0-1.66c-1.25,0-1.65-1.24-1.65-2.48s.47-2.43,1.65-2.43,1.63,1.18,1.63,2.43S412.7,224.67,411.53,224.67Zm5.35,1.51h2.23v-4.33c0-1.07.68-1.77,2.44-1.62a1.2,1.2,0,0,1,.33.06v-2.13a.94.94,0,0,0-.34,0,2.6,2.6,0,0,0-2.51,2v-1.87h-2.15Zm5.53.28H424l3.86-11.35h-1.55Zm6.61-.28h2.23v-4.33c0-1.07.67-1.77,2.43-1.62a1.21,1.21,0,0,1,.34.06v-2.13a.94.94,0,0,0-.34,0,2.6,2.6,0,0,0-2.51,2v-1.87H429Zm8.18-3.44h5.32v-.61c0-2.37-1.27-4-3.69-4s-3.84,1.82-3.84,4.2a3.75,3.75,0,0,0,3.95,4,3.44,3.44,0,0,0,3.57-2.66h-2a1.52,1.52,0,0,1-1.61,1.05C437.82,224.72,437.19,223.94,437.2,222.74Zm0-1.34a1.64,1.64,0,0,1,1.62-1.73,1.56,1.56,0,0,1,1.61,1.73Zm10.37-3.29c-2.3,0-3.82,1.69-3.82,4.14a3.74,3.74,0,0,0,3.82,4.08,3.12,3.12,0,0,0,3.32-2.91h-1.82a1.51,1.51,0,0,1-1.43,1.33c-1.14,0-1.81-1-1.81-2.51s.72-2.43,1.76-2.43a1.47,1.47,0,0,1,1.46,1.34h1.86A3.18,3.18,0,0,0,447.57,218.11Zm6.79,4.63h5.32v-.61c0-2.37-1.27-4-3.69-4s-3.84,1.82-3.84,4.2a3.75,3.75,0,0,0,4,4,3.44,3.44,0,0,0,3.57-2.66h-2a1.52,1.52,0,0,1-1.61,1.05C455,224.72,454.35,223.94,454.36,222.74Zm0-1.34a1.64,1.64,0,0,1,1.62-1.73,1.56,1.56,0,0,1,1.61,1.73Zm9.1-6.28h-2.17v2h2.17Zm0,3.15h-2.14v7.91h2.14Zm8.73,0h-2l-1.71,5h-.06l-1.73-5h-2l3,7.91h1.62Zm3.33-3.15h-2.18v2h2.18Zm0,3.15h-2.13v7.91h2.13Zm2,7.91h2.24v-5.07c0-.77.74-1.16,1.47-1.16a1.22,1.22,0,0,1,1.32,1.29v4.94h2.23V221a2.78,2.78,0,0,0-5.06-1.58v-1.11h-2.2Zm12.75,2.62c2.81,0,4.22-1.07,4.22-2.56,0-1.25-.95-2.13-2.89-2.26l-1.64-.1c-.94-.06-1.39-.1-1.39-.35s.19-.3.79-.33a7,7,0,0,0,.78,0c2.36,0,3.58-1.24,3.58-2.61a2.61,2.61,0,0,0-.17-.84l1.37-.22v-1.73c-.67.28-1.85.75-2.33.93a4,4,0,0,0-2.3-.62c-2.15,0-3.75.92-3.75,2.48a2.57,2.57,0,0,0,1.6,2.28c-1.1.2-1.62.72-1.62,1.28,0,.75.72,1,1,1.18-.16.08-1.54.41-1.54,1.49S487.39,228.8,490.21,228.8Zm-.06-6.81a1.27,1.27,0,0,1-1.42-1.3,1.41,1.41,0,0,1,2.82,0A1.26,1.26,0,0,1,490.15,222Zm.42,5.56c-1.7,0-2.48-.29-2.48-1a1,1,0,0,1,1.19-.9l1.82.12c.78.06,1.2.38,1.2.85S491.81,227.55,490.57,227.55Zm12.23-1.22c2,0,3.34-.89,3.34-2.48a2.41,2.41,0,0,0-2.14-2.31l-1.29-.29c-.86-.17-1.25-.39-1.25-.8s.56-.84,1.32-.84a1.27,1.27,0,0,1,1.4,1H506c0-1.55-1.28-2.46-3.22-2.46-2.17,0-3.34,1.08-3.33,2.51s.94,2,2.34,2.26l1.39.29c.72.14,1,.38,1,.81s-.58.82-1.43.82a1.54,1.54,0,0,1-1.61-1.12h-1.93C499.53,225.56,501.15,226.33,502.8,226.33Zm7.8,0a2.14,2.14,0,0,0,2.34-1.72l.26,1.57h1.68v-7.91h-2.21v5.15a1.26,1.26,0,0,1-1.43,1.29c-.93,0-1.42-.52-1.42-1.26v-5.18h-2.23v5.47A2.79,2.79,0,0,0,510.6,226.33Zm6.24,2.31h2.23V225a2.59,2.59,0,0,0,2.25,1.34c1.87,0,3.27-1.3,3.27-4.17s-1.28-4-3.05-4a2.91,2.91,0,0,0-2.45,1.3v-1.14h-2.24Zm3.95-3.95c-1.17,0-1.72-1.19-1.72-2.51s.55-2.44,1.72-2.44,1.71.91,1.71,2.44C522.5,223.93,521.75,224.69,520.79,224.69Zm5.34,3.95h2.24V225a2.59,2.59,0,0,0,2.25,1.34c1.87,0,3.26-1.3,3.26-4.17s-1.27-4-3-4a2.93,2.93,0,0,0-2.46,1.3v-1.14h-2.24Zm4-3.95c-1.16,0-1.71-1.19-1.71-2.51s.55-2.44,1.71-2.44,1.72.91,1.72,2.44C531.8,223.93,531.05,224.69,530.08,224.69Zm8.8,1.64c2.41,0,3.83-1.68,3.83-4.06,0-2.53-1.49-4.16-3.82-4.16s-3.83,1.66-3.83,4.16S536.56,226.33,538.88,226.33Zm0-1.66c-1.26,0-1.66-1.24-1.66-2.48s.47-2.43,1.66-2.43,1.63,1.18,1.63,2.43S540.06,224.67,538.89,224.67Zm5.34,1.51h2.24v-4.33c0-1.07.67-1.77,2.43-1.62a1.21,1.21,0,0,1,.34.06v-2.13a1,1,0,0,0-.35,0,2.62,2.62,0,0,0-2.51,2v-1.87h-2.15Zm11-6.36v-1.56h-1.76v-2.38h-1.59l-.57,2.39H550v1.55h1.29v4.31c0,1.27.53,2.13,2.62,2.13a3.72,3.72,0,0,0,1.39-.19v-1.38H554.2c-.49,0-.7-.07-.7-.65l0-4.22ZM404.4,244.19a2.43,2.43,0,0,0,2.46-1.52L407,244h1.87v-5.57c0-1.55-.93-2.5-3.35-2.5-2,0-3.41.8-3.49,2.51h1.85a1.51,1.51,0,0,1,1.54-1c.89,0,1.3.4,1.3,1.12v.48h-1c-2.79,0-4,.95-4,2.68A2.41,2.41,0,0,0,404.4,244.19Zm.76-1.47a1.19,1.19,0,0,1-1.31-1.17c0-1,1-1.29,2.11-1.31h.8v1.17A1.58,1.58,0,0,1,405.16,242.72Zm5.56,1.32H413V239c0-.77.75-1.16,1.48-1.16a1.22,1.22,0,0,1,1.32,1.28V244H418v-5.22a2.78,2.78,0,0,0-5.06-1.58v-1.12h-2.2Zm12.07.15a2.43,2.43,0,0,0,2.53-1.78l.25,1.63h1.62V232.66H425v4.54a2.68,2.68,0,0,0-2.39-1.23c-2,0-3.14,1.58-3.14,4.06S420.66,244.19,422.79,244.19Zm.48-1.61c-1,0-1.67-.82-1.67-2.58s.72-2.41,1.69-2.41,1.65.8,1.66,2.41C425,241.87,424.4,242.58,423.27,242.58Zm12.47,1.61c2,0,3.34-.9,3.34-2.48a2.41,2.41,0,0,0-2.14-2.31l-1.28-.29c-.87-.17-1.26-.39-1.26-.81s.56-.83,1.33-.83a1.25,1.25,0,0,1,1.39,1H439c0-1.56-1.29-2.46-3.23-2.46-2.17,0-3.33,1.08-3.32,2.5s.93,2,2.33,2.27l1.39.29c.72.14,1,.37,1,.8s-.59.83-1.44.83a1.56,1.56,0,0,1-1.61-1.12h-1.93C432.47,243.42,434.09,244.19,435.74,244.19Zm6.78-3.6h5.32V240c0-2.37-1.27-4-3.69-4s-3.84,1.82-3.84,4.2a3.76,3.76,0,0,0,4,4,3.44,3.44,0,0,0,3.56-2.66h-2a1.52,1.52,0,0,1-1.61,1.05C443.14,242.58,442.51,241.8,442.52,240.59Zm0-1.33a1.64,1.64,0,0,1,1.62-1.73,1.56,1.56,0,0,1,1.61,1.73Zm6.93,4.78h2.24v-4.33c0-1.07.67-1.77,2.43-1.62a1.74,1.74,0,0,1,.34,0V236a1,1,0,0,0-.35-.05,2.61,2.61,0,0,0-2.51,2v-1.88h-2.15Zm13.3-7.92h-2l-1.71,5h-.06l-1.73-5h-2l3,7.92h1.62Zm3.33-3.14h-2.17v2h2.17Zm0,3.14h-2.13V244h2.13Zm5.37-.15c-2.3,0-3.82,1.68-3.82,4.14a3.74,3.74,0,0,0,3.82,4.08,3.11,3.11,0,0,0,3.31-2.92h-1.81a1.53,1.53,0,0,1-1.44,1.34c-1.13,0-1.8-1-1.8-2.51s.71-2.43,1.75-2.43a1.49,1.49,0,0,1,1.47,1.34h1.85A3.17,3.17,0,0,0,471.43,236Zm6.79,4.62h5.31V240c0-2.37-1.27-4-3.68-4s-3.85,1.82-3.85,4.2a3.76,3.76,0,0,0,4,4,3.44,3.44,0,0,0,3.57-2.66h-2a1.51,1.51,0,0,1-1.6,1.05C478.84,242.58,478.21,241.8,478.22,240.59Zm0-1.33a1.64,1.64,0,0,1,1.62-1.73,1.56,1.56,0,0,1,1.61,1.73Zm10.08,4.93c2,0,3.34-.9,3.34-2.48a2.41,2.41,0,0,0-2.14-2.31l-1.29-.29c-.86-.17-1.25-.39-1.25-.81s.56-.83,1.32-.83a1.27,1.27,0,0,1,1.4,1h1.86c0-1.56-1.28-2.46-3.23-2.46-2.16,0-3.33,1.08-3.32,2.5s.94,2,2.34,2.27l1.39.29c.72.14,1,.37,1,.8s-.58.83-1.43.83a1.55,1.55,0,0,1-1.61-1.12h-1.93C485,243.42,486.65,244.19,488.3,244.19Z"/><path class="cls-22" d="M89.57,425.67h7.68v-1.89H91.8V421h4.66v-1.85H91.81v-2.68h5.35v-1.88h-7.6Zm9.34,0h2.24v-5.06c0-.78.74-1.17,1.47-1.17a1.22,1.22,0,0,1,1.32,1.29v4.94h2.24v-5.21a2.57,2.57,0,0,0-2.77-2.77,2.54,2.54,0,0,0-2.3,1.19v-1.12h-2.2Zm12.19.16c2,0,3.33-.9,3.33-2.48A2.4,2.4,0,0,0,112.3,421l-1.29-.29c-.86-.17-1.25-.4-1.25-.81s.55-.83,1.32-.83a1.25,1.25,0,0,1,1.39.95h1.87c0-1.55-1.29-2.45-3.23-2.45-2.17,0-3.33,1.07-3.32,2.5s.93,2,2.33,2.26l1.4.29c.72.14,1,.38,1,.81s-.58.83-1.43.83a1.57,1.57,0,0,1-1.62-1.12h-1.93C107.83,425.05,109.44,425.83,111.1,425.83Zm7.8,0a2.13,2.13,0,0,0,2.33-1.73l.26,1.57h1.69v-7.91H121v5.15a1.27,1.27,0,0,1-1.44,1.3,1.24,1.24,0,0,1-1.41-1.26v-5.19h-2.24v5.47A2.8,2.8,0,0,0,118.9,425.83Zm6.23-.16h2.24v-4.33c0-1.06.67-1.77,2.43-1.61a1.27,1.27,0,0,1,.34,0v-2.13a1,1,0,0,0-.35,0,2.6,2.6,0,0,0-2.51,2v-1.87h-2.15Zm8.18-3.44h5.32v-.61c0-2.37-1.27-4-3.69-4s-3.84,1.82-3.84,4.2a3.76,3.76,0,0,0,4,4,3.45,3.45,0,0,0,3.57-2.67h-2a1.51,1.51,0,0,1-1.6,1C133.93,424.21,133.31,423.44,133.31,422.23Zm0-1.33a1.65,1.65,0,0,1,1.63-1.73,1.55,1.55,0,0,1,1.6,1.73Zm10.09,4.93c2,0,3.33-.9,3.33-2.48A2.4,2.4,0,0,0,144.6,421l-1.29-.29c-.86-.17-1.25-.4-1.25-.81s.56-.83,1.32-.83a1.25,1.25,0,0,1,1.39.95h1.87c0-1.55-1.28-2.45-3.23-2.45-2.16,0-3.33,1.07-3.32,2.5s.93,2,2.33,2.26l1.4.29c.72.14,1,.38,1,.81s-.58.83-1.43.83a1.57,1.57,0,0,1-1.62-1.12h-1.92C140.13,425.05,141.74,425.83,143.4,425.83Zm8.34,2.31H154v-3.65a2.62,2.62,0,0,0,2.25,1.34c1.88,0,3.27-1.3,3.27-4.18s-1.28-4-3.05-4A2.92,2.92,0,0,0,154,418.9v-1.14h-2.24Zm3.95-3.95c-1.17,0-1.72-1.19-1.72-2.52s.55-2.44,1.72-2.44,1.71.92,1.71,2.44C157.4,423.42,156.65,424.19,155.69,424.19Zm5.35,1.48h2.23v-4.33c0-1.06.67-1.77,2.43-1.61a1.21,1.21,0,0,1,.34,0v-2.13a1,1,0,0,0-.34,0,2.6,2.6,0,0,0-2.51,2v-1.87H161Zm8.18-3.44h5.32v-.61c0-2.37-1.27-4-3.69-4s-3.84,1.82-3.84,4.2a3.75,3.75,0,0,0,4,4,3.45,3.45,0,0,0,3.57-2.67h-2a1.52,1.52,0,0,1-1.61,1C169.84,424.21,169.21,423.44,169.22,422.23Zm0-1.33a1.64,1.64,0,0,1,1.62-1.73,1.56,1.56,0,0,1,1.61,1.73Zm11.5-3.14H179V417c0-.65.17-.91.74-.91h1.05l0-1.48H179a1.9,1.9,0,0,0-2.16,2v1.14h-1.46v1.55h1.46v6.36h2.24v-6.36h1.67Zm3.12,4.47h5.32v-.61c0-2.37-1.27-4-3.69-4s-3.84,1.82-3.84,4.2a3.75,3.75,0,0,0,4,4,3.45,3.45,0,0,0,3.57-2.67h-2a1.52,1.52,0,0,1-1.61,1C184.46,424.21,183.83,423.44,183.84,422.23Zm0-1.33a1.64,1.64,0,0,1,1.62-1.73,1.56,1.56,0,0,1,1.61,1.73Zm6.93,4.77H193v-4.33c0-1.06.67-1.77,2.44-1.61a1.2,1.2,0,0,1,.33,0v-2.13a1,1,0,0,0-.34,0,2.6,2.6,0,0,0-2.51,2v-1.87h-2.15Zm6.3,0h2.24v-4.33c0-1.06.67-1.77,2.43-1.61a1.21,1.21,0,0,1,.34,0v-2.13a1,1,0,0,0-.34,0,2.6,2.6,0,0,0-2.51,2v-1.87h-2.16Zm8.19-3.44h5.32v-.61c0-2.37-1.27-4-3.69-4s-3.84,1.82-3.84,4.2a3.75,3.75,0,0,0,3.95,4,3.45,3.45,0,0,0,3.57-2.67h-2a1.52,1.52,0,0,1-1.61,1C205.88,424.21,205.25,423.44,205.26,422.23Zm0-1.33a1.64,1.64,0,0,1,1.62-1.73,1.56,1.56,0,0,1,1.61,1.73Zm9.92,4.93a2.44,2.44,0,0,0,2.53-1.78l.26,1.62h1.62V414.3h-2.24v4.53a2.72,2.72,0,0,0-2.39-1.22c-2,0-3.15,1.58-3.15,4.06S213.05,425.83,215.18,425.83Zm.49-1.61c-1,0-1.68-.82-1.68-2.58s.72-2.41,1.69-2.41,1.65.8,1.67,2.41C217.35,423.51,216.79,424.22,215.67,424.22Zm5.05,1.74h1.56l3.87-11.35h-1.56Zm8.5-3.73h5.32v-.61c0-2.37-1.27-4-3.69-4s-3.84,1.82-3.84,4.2a3.76,3.76,0,0,0,4,4,3.45,3.45,0,0,0,3.57-2.67h-2a1.52,1.52,0,0,1-1.61,1C229.84,424.21,229.21,423.44,229.22,422.23Zm0-1.33a1.64,1.64,0,0,1,1.62-1.73,1.56,1.56,0,0,1,1.61,1.73Zm11.5-3.14H239V417c0-.65.17-.91.74-.91h1.05l0-1.48H239a1.9,1.9,0,0,0-2.16,2v1.14h-1.46v1.55h1.46v6.36h2.24v-6.36h1.67Zm5.94,0h-1.72V417c0-.65.18-.91.74-.91h1v-1.48H244.9a1.89,1.89,0,0,0-2.15,2v1.14h-1.47v1.55h1.47v6.36H245v-6.36h1.67Zm3.11,4.47h5.32v-.61c0-2.37-1.27-4-3.69-4s-3.84,1.82-3.84,4.2a3.76,3.76,0,0,0,4,4,3.44,3.44,0,0,0,3.56-2.67h-2a1.52,1.52,0,0,1-1.61,1C250.39,424.21,249.77,423.44,249.77,422.23Zm0-1.33a1.65,1.65,0,0,1,1.63-1.73,1.56,1.56,0,0,1,1.6,1.73Zm10.38-3.29c-2.31,0-3.82,1.68-3.82,4.14a3.74,3.74,0,0,0,3.82,4.08,3.11,3.11,0,0,0,3.31-2.92h-1.81a1.52,1.52,0,0,1-1.44,1.33c-1.14,0-1.8-1-1.8-2.51s.71-2.42,1.75-2.42a1.47,1.47,0,0,1,1.46,1.33h1.86A3.16,3.16,0,0,0,260.15,417.61Zm9.46,1.7v-1.56h-1.76v-2.38h-1.59l-.57,2.39h-1.35v1.55h1.28v4.31c0,1.27.54,2.14,2.63,2.14a3.61,3.61,0,0,0,1.38-.19v-1.38h-1.06c-.49,0-.71-.08-.71-.66v-4.22Zm3.76-4.7H271.2v2h2.17Zm0,3.15h-2.14v7.91h2.14Zm8.73,0h-2l-1.71,5h-.06l-1.73-5h-2l3,7.91h1.62Zm2.81,4.47h5.32v-.61c0-2.37-1.27-4-3.69-4s-3.84,1.82-3.84,4.2a3.76,3.76,0,0,0,4,4,3.44,3.44,0,0,0,3.56-2.67h-2a1.52,1.52,0,0,1-1.61,1C285.52,424.21,284.89,423.44,284.9,422.23Zm0-1.33a1.64,1.64,0,0,1,1.62-1.73,1.56,1.56,0,0,1,1.61,1.73ZM92.73,435.47c-2.3,0-3.82,1.68-3.82,4.13a3.75,3.75,0,0,0,3.82,4.09A3.11,3.11,0,0,0,96,440.77H94.23a1.52,1.52,0,0,1-1.44,1.33c-1.13,0-1.8-1-1.8-2.51s.71-2.43,1.76-2.43a1.48,1.48,0,0,1,1.46,1.34h1.86A3.18,3.18,0,0,0,92.73,435.47Zm8.35,8.22c2.41,0,3.83-1.69,3.83-4.07,0-2.53-1.49-4.15-3.82-4.15s-3.84,1.65-3.84,4.15S98.75,443.69,101.08,443.69Zm0-1.67c-1.26,0-1.66-1.24-1.66-2.48s.47-2.43,1.66-2.43,1.63,1.18,1.63,2.43S102.26,442,101.09,442Zm5.34,1.51h2.24v-5.06a1.24,1.24,0,0,1,1.33-1.18,1.17,1.17,0,0,1,1.25,1.1v5.14h2.23v-5.06a1.22,1.22,0,0,1,1.34-1.18,1.19,1.19,0,0,1,1.27,1.3v4.94h2.23v-5.22a2.52,2.52,0,0,0-2.58-2.84,3,3,0,0,0-2.4,1.27,2.58,2.58,0,0,0-2.22-1.27,2.87,2.87,0,0,0-2.5,1.27v-1.12h-2.19Zm13.71,0h2.23v-5.06a1.24,1.24,0,0,1,1.34-1.18,1.17,1.17,0,0,1,1.25,1.1v5.14h2.23v-5.06a1.22,1.22,0,0,1,1.34-1.18,1.19,1.19,0,0,1,1.27,1.3v4.94H132v-5.22a2.53,2.53,0,0,0-2.58-2.84,3,3,0,0,0-2.4,1.27,2.59,2.59,0,0,0-2.22-1.27,2.85,2.85,0,0,0-2.5,1.27v-1.12h-2.19Zm16.62.16A2.14,2.14,0,0,0,139.1,442l.26,1.57H141v-7.91h-2.21v5.15a1.26,1.26,0,0,1-1.43,1.29c-.93,0-1.42-.52-1.42-1.25v-5.19h-2.23v5.47A2.8,2.8,0,0,0,136.76,443.69Zm6.23-.16h2.24v-5.06c0-.78.74-1.17,1.48-1.17a1.22,1.22,0,0,1,1.31,1.29v4.94h2.24v-5.22a2.79,2.79,0,0,0-5.07-1.57v-1.12H143Zm11.25-11.06h-2.17v2h2.17Zm0,3.15h-2.14v7.91h2.14Zm5.36-.15c-2.3,0-3.82,1.68-3.82,4.13a3.75,3.75,0,0,0,3.82,4.09,3.12,3.12,0,0,0,3.32-2.92h-1.82a1.51,1.51,0,0,1-1.44,1.33c-1.13,0-1.8-1-1.8-2.51s.72-2.43,1.76-2.43a1.47,1.47,0,0,1,1.46,1.34h1.86A3.17,3.17,0,0,0,159.59,435.47Zm7.23,8.22a2.42,2.42,0,0,0,2.46-1.52l.18,1.36h1.87V438c0-1.56-.93-2.5-3.34-2.5-2,0-3.42.79-3.5,2.51h1.86a1.49,1.49,0,0,1,1.53-1c.89,0,1.31.4,1.31,1.13v.47l-1,0c-2.79,0-4,1-4,2.68A2.42,2.42,0,0,0,166.82,443.69Zm.76-1.47a1.19,1.19,0,0,1-1.31-1.18c0-1,1-1.29,2.11-1.3l.81,0v1.17A1.6,1.6,0,0,1,167.58,442.22Zm10.07-5.05v-1.56h-1.76v-2.38H174.3l-.57,2.39h-1.35v1.55h1.28v4.31c0,1.27.54,2.14,2.63,2.14a3.61,3.61,0,0,0,1.38-.19v-1.38h-1.06c-.49,0-.71-.08-.71-.66v-4.22Zm3.77-4.7h-2.18v2h2.18Zm0,3.15h-2.13v7.91h2.13Zm5.37,8.07c2.42,0,3.83-1.69,3.83-4.07,0-2.53-1.48-4.15-3.82-4.15s-3.83,1.65-3.83,4.15S184.45,443.69,186.77,443.69Zm0-1.67c-1.25,0-1.65-1.24-1.65-2.48s.47-2.43,1.65-2.43,1.63,1.18,1.63,2.43S188,442,186.78,442Zm5.35,1.51h2.23v-5.06c0-.78.74-1.17,1.48-1.17a1.22,1.22,0,0,1,1.32,1.29v4.94h2.23v-5.22a2.79,2.79,0,0,0-5.07-1.57v-1.12h-2.19Zm12.18.16c2,0,3.34-.9,3.34-2.48a2.42,2.42,0,0,0-2.14-2.32l-1.28-.29c-.87-.16-1.26-.39-1.26-.8,0-.56.56-.83,1.32-.83a1.27,1.27,0,0,1,1.4.95h1.86c0-1.55-1.28-2.45-3.23-2.45-2.16,0-3.32,1.07-3.32,2.5s.94,2,2.34,2.26l1.39.29c.72.14,1,.38,1,.81s-.58.82-1.43.82a1.54,1.54,0,0,1-1.61-1.11h-1.93C201,442.91,202.66,443.69,204.31,443.69Zm19.26-8.07h-2l-1.47,4.9H220l-1.47-4.9H217l-1.45,4.9h-.06l-1.51-4.9h-2l2.56,7.91h1.73l1.48-4.79,1.47,4.79H221Zm3.39-3.15h-2.17v2H227Zm0,3.15h-2.14v7.91H227Zm6.69,1.55v-1.56h-1.76v-2.38h-1.59l-.56,2.39h-1.36v1.55h1.29v4.31c0,1.27.53,2.14,2.62,2.14a3.72,3.72,0,0,0,1.39-.19v-1.38H232.6c-.49,0-.7-.08-.7-.66l0-4.22Zm1.6,6.36h2.23v-5c0-.78.72-1.18,1.46-1.18s1.32.39,1.32,1.11v5.12h2.24v-5.45a2.52,2.52,0,0,0-2.76-2.51,2.58,2.58,0,0,0-2.27,1.19v-4.6h-2.22ZM247.76,446H250v-3.66a2.6,2.6,0,0,0,2.25,1.35c1.87,0,3.27-1.31,3.27-4.18s-1.28-4-3.05-4a2.92,2.92,0,0,0-2.46,1.29v-1.14h-2.24Zm4-3.95c-1.16,0-1.71-1.2-1.71-2.52s.55-2.44,1.71-2.44,1.72.92,1.72,2.44C253.43,441.28,252.68,442.05,251.71,442.05Zm5.35,1.48h2.23V439.2c0-1.07.68-1.77,2.44-1.62a1.28,1.28,0,0,1,.34.06v-2.13a1,1,0,0,0-.35,0,2.6,2.6,0,0,0-2.51,2v-1.87h-2.15Zm9.74.16c2.42,0,3.83-1.69,3.83-4.07,0-2.53-1.48-4.15-3.82-4.15s-3.83,1.65-3.83,4.15S264.48,443.69,266.8,443.69Zm0-1.67c-1.25,0-1.65-1.24-1.65-2.48s.47-2.43,1.65-2.43,1.63,1.18,1.63,2.43S268,442,266.81,442Zm9.91-6.4H275v-.77c0-.64.18-.9.74-.9h1.05v-1.48H275a1.89,1.89,0,0,0-2.15,2v1.14h-1.47v1.55h1.47v6.36h2.24v-6.36h1.67Zm3.44-3.15H278v2h2.17Zm0,3.15H278v7.91h2.14Zm4.49,8.05a2.81,2.81,0,0,0,.93-.19V442.1l-.37,0a.9.9,0,0,1-.9-1v-8.88h-2.19v9.15C282.11,442.45,282.3,443.67,284.64,443.67Zm3.94-3.58h5.32v-.61c0-2.37-1.27-4-3.69-4s-3.84,1.82-3.84,4.2a3.76,3.76,0,0,0,3.95,4,3.45,3.45,0,0,0,3.57-2.67h-2a1.52,1.52,0,0,1-1.61,1.05C289.2,442.07,288.57,441.3,288.58,440.09Zm0-1.33A1.63,1.63,0,0,1,290.2,437a1.56,1.56,0,0,1,1.61,1.73Zm8.82,1.33h5.32v-.61c0-2.37-1.27-4-3.69-4s-3.85,1.82-3.85,4.2a3.76,3.76,0,0,0,4,4,3.45,3.45,0,0,0,3.57-2.67h-2a1.52,1.52,0,0,1-1.61,1.05C298,442.07,297.39,441.3,297.4,440.09Zm0-1.33A1.63,1.63,0,0,1,299,437a1.56,1.56,0,0,1,1.61,1.73Z"/><path class="cls-23" d="M335.25,507.82h9.66c0-22.28-19.45-40.35-43.44-40.35v9C320.15,476.44,335.25,490.47,335.25,507.82Zm-33.78-13.45v-9c13.32,0,24.13,10.05,24.13,22.42H316C316,500.38,309.48,494.37,301.47,494.37ZM354.56,463c0-5,4.29-9,9.65-9s9.65,4,9.65,9-4.29,9-9.65,9S354.56,468,354.56,463Zm-21.48,2.25h9.65c1.16,6.36,7,11.21,14.24,11.21h14.48a7,7,0,0,1,7.24,6.72v11.21h-29V484.24C340.76,481.59,334.05,474.24,333.08,465.23Zm-36.43,56c-5.36,0-9.65-4-9.65-9s4.29-9,9.65-9,9.65,4,9.65,9S302,521.27,296.65,521.27Zm-7.24,4.48h14.48c7.19,0,13.07-4.84,14.23-11.21h9.65c-1,9-7.67,16.37-16.65,19v10.14H282.17V532.48A7,7,0,0,1,289.41,525.75Z"/><path class="cls-22" d="M188,510.28c3.76,0,5-1,7-1.14l.58-4.85-2.86-.27-1.36,3.22c-.51.48-1.2.93-3,.93-3.58,0-5.33-4.09-5.33-9.63,0-6.11,2.14-9.12,5.18-9.12a4.43,4.43,0,0,1,2.92.72l1,4.55h3.07l.37-6.6a64,64,0,0,0-7-.75c-6.38,0-11.14,4.37-11.14,11.62C177.35,505.79,180.91,510.28,188,510.28Zm9.46-8.64c0,5.42,3,8.64,8,8.64,4.49,0,8.46-2.74,8.46-8.85,0-5.42-3-8.64-8.07-8.64C201.41,492.79,197.44,495.68,197.44,501.64Zm8.3,6.59c-2.25,0-3.16-2.41-3.16-6.92s1.09-6.47,3.1-6.47c2.26,0,3.07,2.41,3.07,6.92S207.73,508.23,205.74,508.23ZM216.26,510h8.13V508l-1.66-.3V497a5.36,5.36,0,0,1,3.22-1.33c1.87,0,2.29,1,2.29,3.85v8.22l-1.53.3V510h8.12V508l-1.74-.3V499.5a14,14,0,0,0-.18-2.64,5.05,5.05,0,0,1,3-1.21c1.89,0,2.44,1.05,2.44,3.94v8.13l-1.42.3V510H245V508l-1.84-.3v-8.25c0-4.63-1.38-6.59-5-6.59a8.89,8.89,0,0,0-5.75,2.23c-.69-1.51-1.95-2.23-4.15-2.23a10.34,10.34,0,0,0-6,2.41v-1.41l-.57-.91-.27-.15-5.33.63v2.29l1.81.57v11.41l-1.63.3ZM247,510h8.13V508l-1.66-.3V497a5.36,5.36,0,0,1,3.22-1.33c1.87,0,2.29,1,2.29,3.85v8.22l-1.53.3V510h8.12V508l-1.74-.3V499.5a14,14,0,0,0-.18-2.64,5.05,5.05,0,0,1,3-1.21c1.89,0,2.43,1.05,2.43,3.94v8.13l-1.41.3V510h8.07V508l-1.84-.3v-8.25c0-4.63-1.38-6.59-5-6.59a8.89,8.89,0,0,0-5.75,2.23c-.69-1.51-1.95-2.23-4.15-2.23a10.34,10.34,0,0,0-6,2.41v-1.41l-.57-.91-.27-.15-5.33.63v2.29l1.81.57v11.41L247,508Zm44.26.3a18.25,18.25,0,0,0,3.8-.45v-1.87h-1.63V493.27l-.72-.42h-.09l-5.84.39v1.84l1.93.45v10.9a4.46,4.46,0,0,1-3,1.2c-1.72,0-2.29-.93-2.29-3.61V493.27l-.66-.42h0l-5.51.39v1.87l1.44.42v8.37c0,4.57,1.51,6.38,5.42,6.38a7,7,0,0,0,5.12-2.53v.72C289.26,509.62,289.83,510.25,291.27,510.25Zm7.43-2.53L297,508V510h8.22V508l-1.68-.3V497a5.58,5.58,0,0,1,3.25-1.33c1.86,0,2.34,1,2.34,3.85v8.25l-1.53.27V510h8.1v-2l-1.72-.24V499.5c0-4.81-1.26-6.62-4.85-6.62a9.3,9.3,0,0,0-6.08,2.41l0-.72v-1.12l-.78-.63h-.09l-5.33.63v2.29l1.81.57Zm22.71-17.22h0a2.67,2.67,0,0,0,2.92-2.83,2.37,2.37,0,0,0-2.62-2.41,2.69,2.69,0,0,0-2.83,2.83A2.38,2.38,0,0,0,321.41,490.5Zm-1.78,17.22-1.92.3V510h8.61V508l-1.9-.27v-14.3l-.87-.63h-.06l-5.9.69v2.23l2,.57Zm8.39-6c0,4.94,2.38,8.58,7.86,8.58a8.67,8.67,0,0,0,6-2.32l-.76-1.71a7.84,7.84,0,0,1-4.15,1.14c-2.32,0-3.85-2.2-3.82-6.56s1.32-5.93,3.16-5.93c.69,0,1.41.18,1.53.75l.78,3.43h2.95l.19-5.39a18.42,18.42,0,0,0-5.09-.9C331.45,492.79,328,496.34,328,501.7Zm15.7,3.55a4.78,4.78,0,0,0,5.08,5,6.47,6.47,0,0,0,5-2.35v.73c0,1.32.33,1.65,1.84,1.65a23.88,23.88,0,0,0,3.91-.45V508H358v-9c0-4.4-1.5-6.17-6.26-6.17a13.56,13.56,0,0,0-7.37,2.32l1,2.11a11.63,11.63,0,0,1,5.15-1.3c2.53,0,3,.94,3,3.07v.61C347.45,499.69,343.72,501.55,343.72,505.25ZM351,507.6c-1.41,0-2.32-1.05-2.32-2.92,0-1.63,1.36-3.07,4.79-3.07v4.82A4.2,4.2,0,0,1,351,507.6Zm15.3,2.62a10.38,10.38,0,0,0,5.78-1.72l-.63-1.8a9.19,9.19,0,0,1-2.74.48c-1.29,0-1.41-.24-1.41-3.4v-8.1h4.33v-2.47h-4.39l-.15-4.48h-2.71c-.27.93-.67,2.28-1,3.07a3.42,3.42,0,0,1-.93,1.44c-.51.24-1.26.51-1.87.75v1.69h1.87v10.81C362.48,509,363.71,510.22,366.33,510.22Zm10.85-19.72h0a2.68,2.68,0,0,0,2.92-2.83,2.38,2.38,0,0,0-2.62-2.41,2.69,2.69,0,0,0-2.83,2.83A2.38,2.38,0,0,0,377.18,490.5Zm-1.78,17.22-1.93.3V510h8.61V508l-1.89-.27v-14.3l-.88-.63h-.06l-5.9.69v2.23l2,.57Zm8.42-6.08c0,5.42,3,8.64,8,8.64,4.49,0,8.46-2.74,8.46-8.85,0-5.42-3-8.64-8.07-8.64C387.79,492.79,383.82,495.68,383.82,501.64Zm8.3,6.59c-2.25,0-3.16-2.41-3.16-6.92s1.09-6.47,3.1-6.47c2.26,0,3.07,2.41,3.07,6.92S394.11,508.23,392.12,508.23Zm12.14-.51-1.68.3V510h8.22V508l-1.69-.3V497a5.6,5.6,0,0,1,3.25-1.33c1.87,0,2.35,1,2.35,3.85v8.25l-1.54.27V510h8.1v-2l-1.71-.24V499.5c0-4.81-1.27-6.62-4.85-6.62a9.26,9.26,0,0,0-6.08,2.41l0-.72v-1.12l-.78-.63h-.09l-5.33.63v2.29l1.8.57Z"/><path class="cls-18" d="M443.81,315.69c7,0,9.1-4.05,9.1-7.2,0-3.92-3.5-5.78-6.11-7-3.05-1.51-5.72-2.7-5.72-5.18,0-1.7,1.06-3.05,3.63-3.05a4.52,4.52,0,0,1,2.86.77l.71,4h2.86l.19-5.69c-.93-.06-3.18-1.12-6.84-1.12-5.79,0-8.43,3.08-8.43,6.52,0,4.44,3.64,6.46,6.11,7.62,3.28,1.51,5.43,2.6,5.43,4.85,0,2-1.28,3.35-4.05,3.35a5.05,5.05,0,0,1-3.66-1.13l-.77-4.08h-2.93l-.26,6C437,314.34,439.89,315.69,443.81,315.69Zm25.76,0a19.46,19.46,0,0,0,4.05-.48v-2h-1.73V297.53l-.77-.45H471l-6.24.42v2l2.06.48v11.64a4.75,4.75,0,0,1-3.15,1.28c-1.84,0-2.44-1-2.44-3.85V297.53l-.71-.45h0l-5.88.42v2l1.54.45v8.94c0,4.88,1.6,6.81,5.78,6.81a7.44,7.44,0,0,0,5.47-2.7v.77C467.42,315,468,315.66,469.57,315.66Zm24.16-9.83c0-6.3-3.15-8.81-7-8.81a6.55,6.55,0,0,0-5,2.44v-1.73l-.84-.68h-.06l-5.63.68v2.44l2,.61v20l-2,.39v2H485v-2l-2.82-.39V318l-.1-2.64a6.41,6.41,0,0,0,2.12.35C490.45,315.69,493.73,311,493.73,305.83Zm-8.84-5.92c2,0,3.54,1.87,3.51,6.46,0,5.37-1.87,7.23-4.12,7.23a3,3,0,0,1-2.15-.67V301.1A3.76,3.76,0,0,1,484.89,299.91Zm29.34,5.92c0-6.3-3.15-8.81-7-8.81a6.55,6.55,0,0,0-5,2.44v-1.73l-.84-.68h-.06l-5.63.68v2.44l2,.61v20l-2,.39v2h9.8v-2l-2.82-.39V318l-.1-2.64a6.41,6.41,0,0,0,2.12.35C511,315.69,514.23,311,514.23,305.83Zm-8.84-5.92c2,0,3.53,1.87,3.5,6.46,0,5.37-1.86,7.23-4.11,7.23a3,3,0,0,1-2.15-.67V301.1A3.76,3.76,0,0,1,505.39,299.91Zm11,6.56c0,5.78,3.25,9.22,8.58,9.22,4.79,0,9-2.92,9-9.45,0-5.78-3.21-9.22-8.61-9.22C520.58,297,516.34,300.1,516.34,306.47Zm8.87,7c-2.41,0-3.37-2.57-3.37-7.4s1.15-6.91,3.31-6.91c2.41,0,3.28,2.58,3.28,7.4S527.33,313.51,525.21,313.51Zm11.2,1.83h10.64v-2.06l-3.6-.29V302.87a6.86,6.86,0,0,1,3.72-1,4.06,4.06,0,0,1,2.58.77v-5.37a3.08,3.08,0,0,0-1.29-.22,6.77,6.77,0,0,0-5.79,4.11h-.09l.09-2.67v-.73l-.89-.68h-.1l-5.24.68v2.44l2,.61V313l-2,.29Zm20.72.29a11.18,11.18,0,0,0,6.17-1.83l-.68-1.93a9.91,9.91,0,0,1-2.92.51c-1.38,0-1.52-.25-1.52-3.63V300.1h4.64v-2.63h-4.7l-.16-4.79h-2.89c-.29,1-.71,2.44-1.06,3.28a3.6,3.6,0,0,1-1,1.54c-.55.26-1.35.55-2,.8v1.8h2v11.54C553,314.38,554.33,315.63,557.13,315.63Z"/></svg>