<svg xmlns="http://www.w3.org/2000/svg" xmlns:xlink="http://www.w3.org/1999/xlink" width="599" height="178" viewBox="0 0 599 178">
  <defs>
    <linearGradient id="continuous-v-token-a" x1="-2.408%" y1="0%" y2="0%">
      <stop offset="0%" stop-color="#FFF"/>
      <stop offset="100%"/>
    </linearGradient>
    <rect id="continuous-v-token-c" width="40" height="24" rx="2"/>
    <filter id="continuous-v-token-b" width="317.5%" height="462.5%" x="-108.8%" y="-131.2%" filterUnits="objectBoundingBox">
      <feOffset dy="12" in="SourceAlpha" result="shadowOffsetOuter1"/>
      <feGaussianBlur in="shadowOffsetOuter1" result="shadowBlurOuter1" stdDeviation="12.5"/>
      <feColorMatrix in="shadowBlurOuter1" values="0 0 0 0 0   0 0 0 0 0   0 0 0 0 0  0 0 0 0 0"/>
    </filter>
    <rect id="continuous-v-token-d" width="40" height="24" rx="2"/>
    <path id="continuous-v-token-f" d="M0,-3.55271368e-15 L40,-3.55271368e-15 L40,24 L0,24 L0,-3.55271368e-15 Z M2,2 L2,22 L38,22 L38,2 L2,2 Z"/>
    <rect id="continuous-v-token-i" width="40" height="24" rx="2"/>
    <filter id="continuous-v-token-h" width="317.5%" height="462.5%" x="-108.8%" y="-131.2%" filterUnits="objectBoundingBox">
      <feOffset dy="12" in="SourceAlpha" result="shadowOffsetOuter1"/>
      <feGaussianBlur in="shadowOffsetOuter1" result="shadowBlurOuter1" stdDeviation="12.5"/>
      <feColorMatrix in="shadowBlurOuter1" values="0 0 0 0 0   0 0 0 0 0   0 0 0 0 0  0 0 0 0 0"/>
    </filter>
    <rect id="continuous-v-token-j" width="40" height="24" rx="2"/>
    <path id="continuous-v-token-l" d="M0,-3.55271368e-15 L40,-3.55271368e-15 L40,24 L0,24 L0,-3.55271368e-15 Z M2,2 L2,22 L38,22 L38,2 L2,2 Z"/>
    <rect id="continuous-v-token-o" width="40" height="24" rx="2"/>
    <filter id="continuous-v-token-n" width="317.5%" height="462.5%" x="-108.8%" y="-131.2%" filterUnits="objectBoundingBox">
      <feOffset dy="12" in="SourceAlpha" result="shadowOffsetOuter1"/>
      <feGaussianBlur in="shadowOffsetOuter1" result="shadowBlurOuter1" stdDeviation="12.5"/>
      <feColorMatrix in="shadowBlurOuter1" values="0 0 0 0 0   0 0 0 0 0   0 0 0 0 0  0 0 0 0 0"/>
    </filter>
    <rect id="continuous-v-token-p" width="40" height="24" rx="2"/>
    <path id="continuous-v-token-r" d="M0,-3.55271368e-15 L40,-3.55271368e-15 L40,24 L0,24 L0,-3.55271368e-15 Z M2,2 L2,22 L38,22 L38,2 L2,2 Z"/>
    <rect id="continuous-v-token-u" width="40" height="24" rx="2"/>
    <filter id="continuous-v-token-t" width="317.5%" height="462.5%" x="-108.8%" y="-131.2%" filterUnits="objectBoundingBox">
      <feOffset dy="12" in="SourceAlpha" result="shadowOffsetOuter1"/>
      <feGaussianBlur in="shadowOffsetOuter1" result="shadowBlurOuter1" stdDeviation="12.5"/>
      <feColorMatrix in="shadowBlurOuter1" values="0 0 0 0 0   0 0 0 0 0   0 0 0 0 0  0 0 0 0 0"/>
    </filter>
    <rect id="continuous-v-token-v" width="40" height="24" rx="2"/>
    <path id="continuous-v-token-x" d="M0,-3.55271368e-15 L40,-3.55271368e-15 L40,24 L0,24 L0,-3.55271368e-15 Z M2,2 L2,22 L38,22 L38,2 L2,2 Z"/>
    <rect id="continuous-v-token-A" width="40" height="24" rx="2"/>
    <filter id="continuous-v-token-z" width="317.5%" height="462.5%" x="-108.8%" y="-131.2%" filterUnits="objectBoundingBox">
      <feOffset dy="12" in="SourceAlpha" result="shadowOffsetOuter1"/>
      <feGaussianBlur in="shadowOffsetOuter1" result="shadowBlurOuter1" stdDeviation="12.5"/>
      <feColorMatrix in="shadowBlurOuter1" values="0 0 0 0 0   0 0 0 0 0   0 0 0 0 0  0 0 0 0 0"/>
    </filter>
    <rect id="continuous-v-token-B" width="40" height="24" rx="2"/>
    <path id="continuous-v-token-D" d="M0,-3.55271368e-15 L40,-3.55271368e-15 L40,24 L0,24 L0,-3.55271368e-15 Z M2,2 L2,22 L38,22 L38,2 L2,2 Z"/>
  </defs>
  <g fill="none" fill-rule="evenodd" transform="translate(0 -3)">
    <path stroke="#0076D6" stroke-linecap="square" d="M11 134L24 168.5M195.5 134L195.5 168.5M300.5 134L300.5 168.5M405.5 134L405.5 168.5M591.5 134L579.529297 168.5"/>
    <rect width="599" height="8" y="44" fill="url(#continuous-v-token-a)" rx="4"/>
    <rect width="599" height="2" y="133" fill="#F0F0F0" rx="1"/>
    <g stroke-linejoin="square">
      <circle cx="11" cy="133" r="6.5" fill="#F9F9F9" stroke="#FFF" stroke-width="3"/>
      <circle cx="11" cy="133" r="7" stroke="#0076D6" stroke-width="2"/>
    </g>
    <g stroke-linejoin="square" transform="translate(187 125)">
      <circle cx="8" cy="8" r="6.5" fill="#ABABAB" stroke="#FFF" stroke-width="3"/>
      <circle cx="8" cy="8" r="7" stroke="#0076D6" stroke-width="2"/>
      <circle cx="113" cy="8" r="6.5" fill="#7D7D7D" stroke="#FFF" stroke-width="3"/>
      <circle cx="113" cy="8" r="7" stroke="#0076D6" stroke-width="2"/>
      <circle cx="218" cy="8" r="6.5" fill="#545454" stroke="#FFF" stroke-width="3"/>
      <circle cx="218" cy="8" r="7" stroke="#0076D6" stroke-width="2"/>
    </g>
    <g stroke-linejoin="square">
      <circle cx="591" cy="133" r="6.5" fill="#030303" stroke="#FFF" stroke-width="3"/>
      <circle cx="591" cy="133" r="7" stroke="#0076D6" stroke-width="2"/>
    </g>
    <path fill="#222" d="M6.488 3.204C8.408 3.204 9.764 4.416 9.932 6L8.396 6.036C8.216 5.088 7.58 4.428 6.452 4.428 5.096 4.428 4.292 5.4 4.292 7.632 4.292 9.84 5.084 10.896 6.5 10.896 7.484 10.896 8.18 10.212 8.384 9.24L9.908 9.3C9.716 10.848 8.672 12.12 6.524 12.12 4.136 12.12 2.696 10.344 2.696 7.62 2.696 4.884 4.112 3.204 6.488 3.204zM16.0091428 12.12C13.5971428 12.12 12.1211428 10.476 12.1211428 7.692 12.1211428 4.872 13.6451428 3.204 16.0091428 3.204 18.3731428 3.204 19.8851428 4.872 19.8851428 7.68 19.8851428 10.464 18.3971428 12.12 16.0091428 12.12zM16.0211428 10.896C17.4371428 10.896 18.2891428 9.948 18.2891428 7.704 18.2891428 5.424 17.4251428 4.428 16.0091428 4.428 14.5931428 4.428 13.7171428 5.424 13.7171428 7.704 13.7171428 9.936 14.5931428 10.896 16.0211428 10.896zM28.1582856 3.324L29.6222856 3.324 29.6222856 12 28.3142856 12 23.9462856 5.64 23.9462856 12 22.4822856 12 22.4822856 3.324 23.9102856 3.324 28.1582856 9.516 28.1582856 3.324zM31.7034284 4.644L31.7034284 3.324 38.4714284 3.324 38.4714284 4.644 35.8794284 4.644 35.8794284 12 34.4154284 12 34.4154284 4.644 31.7034284 4.644zM40.5885712 3.324L42.0525712 3.324 42.0525712 12 40.5885712 12 40.5885712 3.324zM50.673714 3.324L52.137714 3.324 52.137714 12 50.829714 12 46.461714 5.64 46.461714 12 44.997714 12 44.997714 3.324 46.425714 3.324 50.673714 9.516 50.673714 3.324zM61.6708568 8.832C61.6708568 10.884 60.7228568 12.12 58.3348568 12.12 55.9228568 12.12 54.9988568 10.884 54.9988568 8.748L54.9988568 3.324 56.4988568 3.324 56.4988568 8.892C56.4988568 10.248 57.1948568 10.872 58.3348568 10.872 59.4748568 10.872 60.1948568 10.248 60.1948568 8.892L60.1948568 3.324 61.6708568 3.324 61.6708568 8.832zM68.0839996 12.12C65.6719996 12.12 64.1959996 10.476 64.1959996 7.692 64.1959996 4.872 65.7199996 3.204 68.0839996 3.204 70.4479996 3.204 71.9599996 4.872 71.9599996 7.68 71.9599996 10.464 70.4719996 12.12 68.0839996 12.12zM68.0959996 10.896C69.5119996 10.896 70.3639996 9.948 70.3639996 7.704 70.3639996 5.424 69.4999996 4.428 68.0839996 4.428 66.6679996 4.428 65.7919996 5.424 65.7919996 7.704 65.7919996 9.936 66.6679996 10.896 68.0959996 10.896zM81.0851424 8.832C81.0851424 10.884 80.1371424 12.12 77.7491424 12.12 75.3371424 12.12 74.4131424 10.884 74.4131424 8.748L74.4131424 3.324 75.9131424 3.324 75.9131424 8.892C75.9131424 10.248 76.6091424 10.872 77.7491424 10.872 78.8891424 10.872 79.6091424 10.248 79.6091424 8.892L79.6091424 3.324 81.0851424 3.324 81.0851424 8.832zM87.3062853 12.12C85.5902853 12.12 83.9102853 11.316 83.7062853 9.66L85.2302853 9.612C85.4222853 10.488 86.2622853 10.956 87.2942853 10.956 88.3982853 10.956 89.2622853 10.512 89.2622853 9.708 89.2622853 9 88.6622853 8.616 87.7502853 8.412L86.1182853 8.076C84.7982853 7.8 83.9822853 7.08 83.9702853 5.808 83.9582853 4.236 85.3742853 3.216 87.2582853 3.216 89.3102853 3.216 90.5222853 4.428 90.6542853 5.748L89.1782853 5.796C89.0342853 4.776 88.2662853 4.404 87.2822853 4.404 86.3102853 4.404 85.5422853 4.872 85.5422853 5.652 85.5422853 6.216 85.8422853 6.54 86.8862853 6.78L88.4822853 7.128C90.4622853 7.524 90.7742853 8.772 90.7742853 9.696 90.7742853 11.052 89.4182853 12.12 87.3062853 12.12zM103.744571 3.324L100.708571 12 99.0165709 12 96.0285709 3.324 97.4325709 3.324 99.8685709 10.32 102.328571 3.324 103.744571 3.324zM104.421714 12L107.541714 3.324 109.125714 3.324 112.245714 12 110.769714 12 110.001714 9.828 106.689714 9.828 105.897714 12 104.421714 12zM107.025714 8.52L109.641714 8.52 108.345714 4.74 107.025714 8.52zM114.542856 3.324L116.030856 3.324 116.030856 10.74 119.942856 10.74 119.942856 12 114.542856 12 114.542856 3.324zM128.695999 8.832C128.695999 10.884 127.747999 12.12 125.359999 12.12 122.947999 12.12 122.023999 10.884 122.023999 8.748L122.023999 3.324 123.523999 3.324 123.523999 8.892C123.523999 10.248 124.219999 10.872 125.359999 10.872 126.499999 10.872 127.219999 10.248 127.219999 8.892L127.219999 3.324 128.695999 3.324 128.695999 8.832zM131.581142 12L131.581142 3.324 137.317142 3.324 137.317142 4.572 133.057142 4.572 133.057142 7.008 136.825142 7.008 136.825142 8.244 133.045142 8.244 133.045142 10.728 137.413142 10.74 137.413142 12 131.581142 12zM143.274285 12.12C141.558285 12.12 139.878285 11.316 139.674285 9.66L141.198285 9.612C141.390285 10.488 142.230285 10.956 143.262285 10.956 144.366285 10.956 145.230285 10.512 145.230285 9.708 145.230285 9 144.630285 8.616 143.718285 8.412L142.086285 8.076C140.766285 7.8 139.950285 7.08 139.938285 5.808 139.926285 4.236 141.342285 3.216 143.226285 3.216 145.278285 3.216 146.490285 4.428 146.622285 5.748L145.146285 5.796C145.002285 4.776 144.234285 4.404 143.250285 4.404 142.278285 4.404 141.510285 4.872 141.510285 5.652 141.510285 6.216 141.810285 6.54 142.854285 6.78L144.450285 7.128C146.430285 7.524 146.742285 8.772 146.742285 9.696 146.742285 11.052 145.386285 12.12 143.274285 12.12zM6.26 109.12C4.544 109.12 2.864 108.316 2.66 106.66L4.184 106.612C4.376 107.488 5.216 107.956 6.248 107.956 7.352 107.956 8.216 107.512 8.216 106.708 8.216 106 7.616 105.616 6.704 105.412L5.072 105.076C3.752 104.8 2.936 104.08 2.924 102.808 2.912 101.236 4.328 100.216 6.212 100.216 8.264 100.216 9.476 101.428 9.608 102.748L8.132 102.796C7.988 101.776 7.22 101.404 6.236 101.404 5.264 101.404 4.496 101.872 4.496 102.652 4.496 103.216 4.796 103.54 5.84 103.78L7.436 104.128C9.416 104.524 9.728 105.772 9.728 106.696 9.728 108.052 8.372 109.12 6.26 109.12zM11.3891428 101.644L11.3891428 100.324 18.1571428 100.324 18.1571428 101.644 15.5651428 101.644 15.5651428 109 14.1011428 109 14.1011428 101.644 11.3891428 101.644zM27.1622856 100.324L24.1862856 105.328 24.1862856 109 22.7222856 109 22.7222856 105.328 19.7342856 100.324 21.3182856 100.324 23.4662856 104.056 25.5662856 100.324 27.1622856 100.324zM29.1834284 100.324L30.6714284 100.324 30.6714284 107.74 34.5834284 107.74 34.5834284 109 29.1834284 109 29.1834284 100.324zM36.8685712 109L36.8685712 100.324 42.6045712 100.324 42.6045712 101.572 38.3445712 101.572 38.3445712 104.008 42.1125712 104.008 42.1125712 105.244 38.3325712 105.244 38.3325712 107.728 42.7005712 107.74 42.7005712 109 36.8685712 109zM48.1468568 101.644L48.1468568 100.324 54.9148568 100.324 54.9148568 101.644 52.3228568 101.644 52.3228568 109 50.8588568 109 50.8588568 101.644 48.1468568 101.644zM60.5599996 109.12C58.1479996 109.12 56.6719996 107.476 56.6719996 104.692 56.6719996 101.872 58.1959996 100.204 60.5599996 100.204 62.9239996 100.204 64.4359996 101.872 64.4359996 104.68 64.4359996 107.464 62.9479996 109.12 60.5599996 109.12zM60.5719996 107.896C61.9879996 107.896 62.8399996 106.948 62.8399996 104.704 62.8399996 102.424 61.9759996 101.428 60.5599996 101.428 59.1439996 101.428 58.2679996 102.424 58.2679996 104.704 58.2679996 106.936 59.1439996 107.896 60.5719996 107.896zM74.0411424 109L72.4211424 109 69.9371424 104.764 68.5571424 106.396 68.5571424 109 67.0331424 109 67.0331424 100.324 68.5571424 100.324 68.5571424 104.536 72.0491424 100.324 73.7411424 100.324 71.0051424 103.684 74.0411424 109zM76.3262853 109L76.3262853 100.324 82.0622853 100.324 82.0622853 101.572 77.8022853 101.572 77.8022853 104.008 81.5702853 104.008 81.5702853 105.244 77.7902853 105.244 77.7902853 107.728 82.1582853 107.74 82.1582853 109 76.3262853 109zM90.4914281 100.324L91.9554281 100.324 91.9554281 109 90.6474281 109 86.2794281 102.64 86.2794281 109 84.8154281 109 84.8154281 100.324 86.2434281 100.324 90.4914281 106.516 90.4914281 100.324zM98.1045709 109.12C96.3885709 109.12 94.7085709 108.316 94.5045709 106.66L96.0285709 106.612C96.2205709 107.488 97.0605709 107.956 98.0925709 107.956 99.1965709 107.956 100.060571 107.512 100.060571 106.708 100.060571 106 99.4605709 105.616 98.5485709 105.412L96.9165709 105.076C95.5965709 104.8 94.7805709 104.08 94.7685709 102.808 94.7565709 101.236 96.1725709 100.216 98.0565709 100.216 100.108571 100.216 101.320571 101.428 101.452571 102.748L99.9765709 102.796C99.8325709 101.776 99.0645709 101.404 98.0805709 101.404 97.1085709 101.404 96.3405709 101.872 96.3405709 102.652 96.3405709 103.216 96.6405709 103.54 97.6845709 103.78L99.2805709 104.128C101.260571 104.524 101.572571 105.772 101.572571 106.696 101.572571 108.052 100.216571 109.12 98.1045709 109.12z"/>
    <path fill="#0076D6" fill-rule="nonzero" d="M585,27.5 L3.996094,27.5 L2.996094,27.5 L2.996094,25.5 L3.996094,25.5 L585,25.5 L585,19.5 L599,26.5 L585,33.5 L585,27.5 Z"/>
    <g transform="translate(3 156)">
      <g transform="translate(0 .5)">
        <use fill="#000" filter="url(#continuous-v-token-b)" href="#continuous-v-token-c"/>
        <use fill="#FFF" href="#continuous-v-token-c"/>
        <mask id="continuous-v-token-e" fill="#fff">
          <use href="#continuous-v-token-d"/>
        </mask>
        <g fill="#FFF" mask="url(#continuous-v-token-e)">
          <polygon points="0 0 40 0 40 24 0 24"/>
        </g>
        <g mask="url(#continuous-v-token-e)">
          <mask id="continuous-v-token-g" fill="#fff">
            <use href="#continuous-v-token-f"/>
          </mask>
          <use fill="#E44608" href="#continuous-v-token-f"/>
          <g fill="#0076D6" mask="url(#continuous-v-token-g)">
            <polygon points="0 0 40 0 40 24 0 24"/>
          </g>
        </g>
      </g>
      <polygon fill="#0076D6" points="20.564 17.5 20.564 9.895 18.823 10.441 18.823 9.323 21.267 8.101 22.177 8.101 22.177 17.5"/>
    </g>
    <g transform="translate(175 156)">
      <g transform="translate(0 .5)">
        <use fill="#000" filter="url(#continuous-v-token-h)" href="#continuous-v-token-i"/>
        <use fill="#FFF" href="#continuous-v-token-i"/>
        <mask id="continuous-v-token-k" fill="#fff">
          <use href="#continuous-v-token-j"/>
        </mask>
        <g fill="#FFF" mask="url(#continuous-v-token-k)">
          <polygon points="0 0 40 0 40 24 0 24"/>
        </g>
        <g mask="url(#continuous-v-token-k)">
          <mask id="continuous-v-token-m" fill="#fff">
            <use href="#continuous-v-token-l"/>
          </mask>
          <use fill="#E44608" href="#continuous-v-token-l"/>
          <g fill="#0076D6" mask="url(#continuous-v-token-m)">
            <polygon points="0 0 40 0 40 24 0 24"/>
          </g>
        </g>
      </g>
      <path fill="#0076D6" d="M17.6135,17.5 L17.6135,16.252 L20.6035,13.483 C22.1245,12.105 22.5665,11.559 22.5665,10.74 C22.5665,9.752 21.7605,9.31 20.9545,9.31 C20.1615,9.31 19.3685,9.674 18.9785,10.662 L17.5355,10.493 C17.8605,8.972 19.0305,7.971 21.0065,7.971 C22.9305,7.971 24.2305,9.011 24.2305,10.74 C24.2175,11.793 23.7105,12.482 22.3845,13.782 L19.9535,16.148 L24.3215,16.148 L24.3215,17.5 L17.6135,17.5 Z"/>
    </g>
    <g transform="translate(280 156)">
      <g transform="translate(0 .5)">
        <use fill="#000" filter="url(#continuous-v-token-n)" href="#continuous-v-token-o"/>
        <use fill="#FFF" href="#continuous-v-token-o"/>
        <mask id="continuous-v-token-q" fill="#fff">
          <use href="#continuous-v-token-p"/>
        </mask>
        <g fill="#FFF" mask="url(#continuous-v-token-q)">
          <polygon points="0 0 40 0 40 24 0 24"/>
        </g>
        <g mask="url(#continuous-v-token-q)">
          <mask id="continuous-v-token-s" fill="#fff">
            <use href="#continuous-v-token-r"/>
          </mask>
          <use fill="#E44608" href="#continuous-v-token-r"/>
          <g fill="#0076D6" mask="url(#continuous-v-token-s)">
            <polygon points="0 0 40 0 40 24 0 24"/>
          </g>
        </g>
      </g>
      <path fill="#0076D6" d="M17.399,10.246 C17.685,8.569 19.336,7.971 21,7.971 C22.963,7.971 24.419,8.985 24.419,10.389 C24.419,11.416 23.795,12.079 22.651,12.482 C23.782,12.781 24.718,13.587 24.718,14.835 C24.718,16.551 22.95,17.63 20.922,17.63 C19.011,17.63 17.633,17.11 17.217,15.316 L18.673,15.147 C19.128,16.057 19.999,16.33 20.844,16.33 C22.144,16.33 22.95,15.693 22.95,14.848 C22.95,13.899 22.014,13.288 20.948,13.288 L19.674,13.275 L19.674,12.001 L20.753,11.962 C21.897,11.936 22.716,11.325 22.716,10.506 C22.716,9.765 21.91,9.232 20.961,9.232 C20.025,9.232 19.193,9.479 18.842,10.415 L17.399,10.246 Z"/>
    </g>
    <g transform="translate(385 156)">
      <g transform="translate(0 .5)">
        <use fill="#000" filter="url(#continuous-v-token-t)" href="#continuous-v-token-u"/>
        <use fill="#FFF" href="#continuous-v-token-u"/>
        <mask id="continuous-v-token-w" fill="#fff">
          <use href="#continuous-v-token-v"/>
        </mask>
        <g fill="#FFF" mask="url(#continuous-v-token-w)">
          <polygon points="0 0 40 0 40 24 0 24"/>
        </g>
        <g mask="url(#continuous-v-token-w)">
          <mask id="continuous-v-token-y" fill="#fff">
            <use href="#continuous-v-token-x"/>
          </mask>
          <use fill="#E44608" href="#continuous-v-token-x"/>
          <g fill="#0076D6" mask="url(#continuous-v-token-y)">
            <polygon points="0 0 40 0 40 24 0 24"/>
          </g>
        </g>
      </g>
      <path fill="#0076D6" d="M21.6695,8.101 L23.2685,8.101 L23.2685,13.886 L24.6985,13.886 L24.6985,15.277 L23.2685,15.277 L23.2685,17.5 L21.6825,17.5 L21.6825,15.277 L17.3795,15.277 L17.3795,13.886 L21.6695,8.101 Z M19.0305,13.886 L21.6695,13.886 L21.6695,10.337 L19.0305,13.886 Z"/>
    </g>
    <g transform="translate(559 156)">
      <g transform="translate(0 .5)">
        <use fill="#000" filter="url(#continuous-v-token-z)" href="#continuous-v-token-A"/>
        <use fill="#FFF" href="#continuous-v-token-A"/>
        <mask id="continuous-v-token-C" fill="#fff">
          <use href="#continuous-v-token-B"/>
        </mask>
        <g fill="#FFF" mask="url(#continuous-v-token-C)">
          <polygon points="0 0 40 0 40 24 0 24"/>
        </g>
        <g mask="url(#continuous-v-token-C)">
          <mask id="continuous-v-token-E" fill="#fff">
            <use href="#continuous-v-token-D"/>
          </mask>
          <use fill="#E44608" href="#continuous-v-token-D"/>
          <g fill="#0076D6" mask="url(#continuous-v-token-E)">
            <polygon points="0 0 40 0 40 24 0 24"/>
          </g>
        </g>
      </g>
      <path fill="#0076D6" d="M18.218,8.101 L24.12,8.101 L24.029,9.427 L19.505,9.427 L19.284,12.04 C19.986,11.741 20.545,11.481 21.403,11.481 C23.21,11.481 24.653,12.456 24.653,14.432 C24.653,16.447 23.145,17.63 20.948,17.63 C19.388,17.63 18.036,16.993 17.256,15.966 L18.439,15.108 C19.102,15.823 19.661,16.343 20.753,16.343 C22.131,16.343 22.924,15.55 22.924,14.484 C22.924,13.405 22.144,12.781 21.026,12.781 C20.311,12.781 19.752,13.067 19.167,13.392 C19.011,13.47 19.024,13.444 18.894,13.379 L17.815,12.768 L18.218,8.101 Z"/>
    </g>
  </g>
</svg>
