<svg xmlns="http://www.w3.org/2000/svg" width="2234" height="493" viewBox="0 0 2234 493">
  <g fill="none" fill-rule="evenodd" transform="translate(2 -31)">
    <path fill="#DFE7F5" d="M26.2 417L131.4 127.8 171.4 127.8 275.8 417 239.8 417 211 336.6 91.8 336.6 62.2 417 26.2 417zM100.6 304.2L201.4 304.2 151.4 162.6 100.6 304.2zM376.6 419.4C333.4 419.4 325.4 393.4 325.4 364.2L325.4 119.8 359.8 119.8 359.8 361C359.8 382.6 369 392.6 383 393.4L394.6 393.8 394.6 416.2C388.6 418.2 381.4 419.4 376.6 419.4zM537.4 485.4C470.6 485.4 435.4 463.8 435.4 430.6 435.4 401 469 389 474.2 385.4 467 381 453.4 375 453.4 359.4 453.4 346.6 465.4 335 489.4 329.8 462.2 315.8 451 297.4 451 272.6 451 231 487 207 540.2 207 567 207 583.8 213.4 599.8 225L651.8 203.4 651.8 236.6 615.4 243.8C619 251 622.2 264.6 622.2 272.2 622.2 307.4 595 337.4 537 337.4 533.8 337.4 528.6 337.4 525 337 495.8 337.8 486.6 344.6 486.6 351.4 486.6 359.4 497 361.4 526.2 363.4 537 364.2 552.6 365 571.4 366.2 617.8 369 638.6 390.2 638.6 421.8 638.6 461 602.6 485.4 537.4 485.4zM537.8 314.6C571.4 314.6 588.6 299.8 588.6 273 588.6 245.8 571 229 537.8 229 505 229 486.2 245.8 486.2 273 486.2 299.4 505 314.6 537.8 314.6zM543.8 462.6C585 462.6 604.2 451 604.2 427 604.2 409.4 593.4 398.6 565.8 396.6L507 393C491.4 391.8 470.2 407 470.2 426.6 470.2 450.6 496.2 462.6 543.8 462.6zM789.074219 392.582031L879.585938 135.367188 923.28125 135.367188 1014.52734 392.582031 1037.84375 396.988281 1037.84375 417 937.050781 417 937.050781 396.988281 966.976562 392.582031 949.535156 338.972656 841.582031 338.972656 824.875 392.582031 856.269531 396.988281 856.269531 417 765.941406 417 765.757812 396.988281 789.074219 392.582031zM942.007812 315.65625L902.71875 195.035156 894.640625 164.191406 886.5625 195.402344 848.925781 315.65625 942.007812 315.65625zM1075.29688 393.867188L1075.29688 137.753906 1045.1875 134.082031 1045.1875 116.640625 1107.79297 108.746094 1108.16016 108.746094 1117.15625 114.988281 1117.15625 393.867188 1148.36719 396.988281 1148.36719 417 1045.55469 417 1045.55469 396.988281 1075.29688 393.867188zM1265.13281 342.644531C1255.0963 342.644531 1245.73312 341.604177 1237.04297 339.523438 1233.61587 342.583349 1230.92319 346.102194 1228.96484 350.080078 1227.0065 354.057963 1226.02734 358.127583 1226.02734 362.289062 1226.02734 368.408885 1227.46548 373.090479 1230.3418 376.333984 1233.21811 379.57749 1237.56312 381.811192 1243.37695 383.035156 1249.19078 384.259121 1257.17703 384.871094 1267.33594 384.871094L1307.35938 384.871094C1355.21639 384.871094 1379.14453 403.230285 1379.14453 439.949219 1379.14453 454.147206 1374.09575 467.24343 1363.99805 479.238281 1353.90034 491.233133 1340.40633 500.749314 1323.51562 507.787109 1306.62492 514.824905 1288.51051 518.34375 1269.17188 518.34375L1268.98828 518.34375C1236.18603 518.34375 1212.38028 513.35617 1197.57031 503.380859 1182.76034 493.405549 1175.35547 479.29957 1175.35547 461.0625 1175.35547 449.679631 1178.69072 439.367885 1185.36133 430.126953 1192.03193 420.886022 1200.07938 413.87893 1209.50391 409.105469 1197.63145 402.373664 1191.69531 392.092517 1191.69531 378.261719 1191.69531 369.081985 1194.3268 360.606159 1199.58984 352.833984 1204.85289 345.06181 1211.76819 338.789086 1220.33594 334.015625 1208.09629 328.385389 1198.70251 320.39914 1192.1543 310.056641 1185.60609 299.714141 1182.33203 287.627673 1182.33203 273.796875 1182.33203 259.354094 1186.43225 246.74745 1194.63281 235.976562 1202.83337 225.205675 1213.6041 216.974638 1226.94531 211.283203 1240.28653 205.591768 1254.5455 202.684896 1269.72266 202.5625L1269.90625 202.5625C1283.12507 202.5625 1294.99734 204.061834 1305.52344 207.060547 1316.04953 210.05926 1324.92314 214.496064 1332.14453 220.371094 1335.81642 216.087218 1341.32418 211.986999 1348.66797 208.070312 1356.01176 204.153626 1364.64058 202.195312 1374.55469 202.195312L1384.46875 202.195312 1384.46875 237.8125 1345.91406 237.8125C1350.19794 246.747441 1352.33984 256.600207 1352.33984 267.371094 1352.33984 282.058667 1348.54561 295.124292 1340.95703 306.568359 1333.36845 318.012427 1322.96491 326.886036 1309.74609 333.189453 1296.52728 339.49287 1281.71753 342.644531 1265.31641 342.644531L1265.13281 342.644531zM1267.33594 224.042969C1254.11712 224.042969 1243.86657 227.623011 1236.58398 234.783203 1229.3014 241.943395 1225.66016 253.662679 1225.66016 269.941406 1225.66016 285.363358 1229.1178 297.694615 1236.0332 306.935547 1242.9486 316.176478 1253.99472 320.796875 1269.17188 320.796875L1269.35547 320.796875C1283.30866 320.796875 1293.43682 316.635458 1299.74023 308.3125 1306.04365 299.989542 1309.19531 287.811278 1309.19531 271.777344 1309.19531 255.37622 1305.79886 243.320351 1299.00586 235.609375 1292.21286 227.898399 1281.71752 224.042969 1267.51953 224.042969L1267.33594 224.042969zM1228.23047 415.53125C1220.3971 425.200569 1216.48047 436.76686 1216.48047 450.230469 1216.48047 464.918042 1220.82548 476.055952 1229.51562 483.644531 1238.20577 491.233111 1252.46474 495.027344 1272.29297 495.027344L1272.66016 495.027344C1283.67584 495.027344 1294.20177 493.313819 1304.23828 489.886719 1314.27479 486.459618 1322.41403 481.380242 1328.65625 474.648438 1334.89847 467.916633 1338.01953 459.899786 1338.01953 450.597656 1338.01953 442.641887 1336.82618 436.369164 1334.43945 431.779297 1332.05272 427.18943 1327.67712 423.731782 1321.3125 421.40625 1314.94788 419.080718 1305.70709 417.917969 1293.58984 417.917969L1256.6875 417.917969C1246.65099 417.917969 1237.16541 417.122404 1228.23047 415.53125zM1690.456 303.792L1677.312 261.392C1672.22397 245.845256 1667.41869 230.36941 1662.896 214.964 1658.37331 199.55859 1653.85069 183.800081 1649.328 167.688L1647.632 167.688C1643.39198 183.800081 1639.01069 199.55859 1634.488 214.964 1629.96531 230.36941 1625.16003 245.845256 1620.072 261.392L1606.928 303.792 1690.456 303.792zM1699.36 332.2L1598.024 332.2 1571.312 417 1535.272 417 1629.4 138.856 1669.256 138.856 1763.384 417 1725.648 417 1699.36 332.2zM1799.424 115.112L1834.192 115.112 1834.192 377.992C1834.192 383.645362 1835.18132 387.602655 1837.16 389.864 1839.13868 392.125345 1841.39999 393.256 1843.944 393.256L1847.124 393.256C1848.11334 393.256 1849.59732 392.973336 1851.576 392.408L1856.24 418.696C1853.97866 419.826672 1851.29335 420.674664 1848.184 421.24 1845.07465 421.805336 1841.11736 422.088 1836.312 422.088 1823.0266 422.088 1813.55736 418.130706 1807.904 410.216 1802.25064 402.301294 1799.424 390.712076 1799.424 375.448L1799.424 115.112zM1922.384 451.768C1922.384 462.792055 1927.68395 471.554634 1938.284 478.056 1948.88405 484.557366 1963.51191 487.808 1982.168 487.808 1992.06138 487.808 2001.03596 486.606679 2009.092 484.204 2017.14804 481.801321 2024.00264 478.692019 2029.656 474.876 2035.30936 471.059981 2039.69065 466.608025 2042.8 461.52 2045.90935 456.431975 2047.464 451.202694 2047.464 445.832 2047.464 436.221285 2043.9307 429.578685 2036.864 425.904 2029.7973 422.229315 2019.48007 420.392 2005.912 420.392L1970.296 420.392C1966.33865 420.392 1962.02802 420.180002 1957.364 419.756 1952.69998 419.331998 1948.10669 418.41334 1943.584 417 1936.23463 422.370694 1930.86402 428.02397 1927.472 433.96 1924.07998 439.89603 1922.384 445.83197 1922.384 451.768zM1891.856 456.432C1891.856 447.66929 1894.54131 439.330706 1899.912 431.416 1905.28269 423.501294 1912.63195 416.293366 1921.96 409.792L1921.96 408.096C1916.87197 404.986651 1912.56135 400.676028 1909.028 395.164 1905.49465 389.651972 1903.728 382.797374 1903.728 374.6 1903.728 365.83729 1906.13064 358.205366 1910.936 351.704 1915.74136 345.202634 1920.82931 340.114685 1926.2 336.44L1926.2 334.744C1919.41597 329.090638 1913.26803 321.529381 1907.756 312.06 1902.24397 302.590619 1899.488 291.637396 1899.488 279.2 1899.488 267.893277 1901.53731 257.717379 1905.636 248.672 1909.73469 239.626621 1915.3173 231.924032 1922.384 225.564 1929.4507 219.203968 1937.71862 214.328017 1947.188 210.936 1956.65738 207.543983 1966.62128 205.848 1977.08 205.848 1982.73336 205.848 1988.03331 206.342662 1992.98 207.332 1997.92669 208.321338 2002.37865 209.52266 2006.336 210.936L2077.992 210.936 2077.992 237.648 2035.592 237.648C2040.39736 242.453357 2044.42532 248.53063 2047.676 255.88 2050.92668 263.22937 2052.552 271.28529 2052.552 280.048 2052.552 291.072055 2050.57335 301.035955 2046.616 309.94 2042.65865 318.844045 2037.28803 326.334636 2030.504 332.412 2023.71997 338.489364 2015.73471 343.223983 2006.548 346.616 1997.36129 350.008017 1987.53872 351.704 1977.08 351.704 1971.99197 351.704 1966.76269 351.068006 1961.392 349.796 1956.02131 348.523994 1950.93336 346.757345 1946.128 344.496 1942.45331 347.605349 1939.34401 351.067981 1936.8 354.884 1934.25599 358.700019 1932.984 363.434638 1932.984 369.088 1932.984 375.589366 1935.52797 380.959979 1940.616 385.2 1945.70403 389.440021 1955.3146 391.56 1969.448 391.56L2009.304 391.56C2033.33079 391.56 2051.35061 395.446628 2063.364 403.22 2075.37739 410.993372 2081.384 423.501247 2081.384 440.744 2081.384 450.354715 2078.98136 459.470624 2074.176 468.092 2069.37064 476.713376 2062.44538 484.274634 2053.4 490.776 2044.35462 497.277366 2033.4014 502.435981 2020.54 506.252 2007.6786 510.068019 1993.19208 511.976 1977.08 511.976 1964.35994 511.976 1952.77072 510.774679 1942.312 508.372 1931.85328 505.969321 1922.8787 502.365357 1915.388 497.56 1907.8973 492.754643 1902.10269 486.960034 1898.004 480.176 1893.90531 473.391966 1891.856 465.477379 1891.856 456.432zM1977.08 328.384C1983.01603 328.384 1988.59864 327.253345 1993.828 324.992 1999.05736 322.730655 2003.72131 319.480021 2007.82 315.24 2011.91869 310.999979 2015.09866 305.841364 2017.36 299.764 2019.62134 293.686636 2020.752 286.832038 2020.752 279.2 2020.752 263.935924 2016.51204 252.134708 2008.032 243.796 1999.55196 235.457292 1989.23473 231.288 1977.08 231.288 1964.92527 231.288 1954.60804 235.457292 1946.128 243.796 1937.64796 252.134708 1933.408 263.935924 1933.408 279.2 1933.408 286.832038 1934.53866 293.686636 1936.8 299.764 1939.06134 305.841364 1942.24131 310.999979 1946.34 315.24 1950.43869 319.480021 1955.10264 322.730655 1960.332 324.992 1965.56136 327.253345 1971.14397 328.384 1977.08 328.384z"/>
    <rect width="705" height="400" y="122" stroke="#3E76C2" stroke-width="4"/>
    <g stroke="#3E76C2" stroke-width="4" transform="translate(763 122)">
      <rect width="705" height="400"/>
      <path d="M0,296.5 L705,296.5"/>
    </g>
    <rect width="705" height="400" x="1525" y="122" stroke="#3E76C2" stroke-width="4"/>
    <path stroke="#3E76C2" stroke-width="4" d="M0 418.5L705 418.5M1525 418.5L2230 418.5"/>
    <path fill="#171717" d="M5.936 67L5.936 32.296 18.704 32.296C26.288 32.296 32 36.328 32 43.672 32 50.584 27.104 54.616 19.616 54.616L12.992 54.616 12.992 67 5.936 67zM12.944 49.192L19.424 49.192C22.928 49.192 25.424 46.648 25.424 43.288 25.424 39.832 22.736 37.672 19.328 37.672L12.944 37.672 12.944 49.192zM45.44 67.48C41.408 67.432 36.224 64.84 36.224 59.32L36.224 42.136 43.232 42.136 43.232 58.456C43.232 61.144 45.296 62.392 47.504 62.392 50 62.392 51.92 60.856 51.92 58.312L51.92 42.136 59.024 42.136 58.88 67 53.6 67 52.832 61.912C51.968 66.52 48.272 67.48 45.44 67.48zM78.656 67.48C74.96 67.48 71.984 65.608 70.88 63.448L70.16 67 65.12 67 65.12 31.336 72.128 31.336 72.128 45.784C73.472 43.528 76.208 41.704 79.52 41.704 85.952 41.704 89.36 46.888 89.36 54.472 89.36 62.392 85.52 67.48 78.656 67.48zM76.88 62.44C79.952 62.44 82.208 60.232 82.208 54.376 82.208 48.856 80.144 46.792 77.12 46.792 74.576 46.792 72.752 48.568 72.128 52.216L72.128 55.672C72.128 60.04 74.288 62.44 76.88 62.44zM102.08 67.432C94.736 67.432 94.112 63.592 94.112 60.04L94.112 31.336 101.024 31.336 101.024 59.176C101.024 61 101.648 62.2 103.808 62.44L104.96 62.488 104.96 66.856C104 67.192 102.992 67.432 102.08 67.432zM116.864 31.336L116.864 38.2 109.712 38.2 109.712 31.336 116.864 31.336zM116.816 42.184L116.816 67 109.808 67 109.808 42.184 116.816 42.184zM133.616 41.704C139.712 41.704 143.6 45.832 144.032 51.208L138.176 51.256C137.696 49.048 136.352 47.032 133.712 47.032 130.304 47.032 128.144 49.816 128.144 54.616 128.144 59.512 130.4 62.488 133.808 62.488 136.496 62.488 137.888 60.184 138.272 58.312L143.936 58.312C143.552 63.592 139.52 67.48 133.616 67.48 126.608 67.48 121.616 62.296 121.616 54.712 121.616 47.032 126.56 41.704 133.616 41.704zM173.168 67.48C166.16 67.48 159.104 64.216 158.336 57.256L165.632 57.112C166.304 60.232 169.28 61.96 173.12 61.96 177.056 61.96 180.272 60.568 180.272 57.592 180.272 55 177.68 53.8 174.272 53.128L168.128 51.928C162.8 50.92 159.44 47.848 159.392 42.472 159.296 35.944 165.296 31.864 173.024 31.864 181.328 31.864 186.512 36.856 187.088 42.28L179.984 42.376C179.504 38.776 176.816 37.432 173.12 37.432 169.328 37.432 166.88 39.16 166.88 41.656 166.88 43.72 167.984 44.872 171.776 45.688L177.776 46.936C186.416 48.568 187.472 53.992 187.472 57.592 187.472 63.16 181.712 67.48 173.168 67.48zM200.288 67.48C195.536 67.48 191.888 64.744 191.888 59.896 191.888 54.472 195.824 51.592 204.608 51.496L207.68 51.448 207.68 49.96C207.68 47.608 206.192 46.408 203.552 46.408 201.536 46.456 199.424 47.368 198.704 49.576L192.896 49.576C193.136 44.44 197.696 41.704 203.888 41.704 211.472 41.704 214.4 44.824 214.4 49.528L214.4 67 208.544 67 207.968 62.776C206.288 66.376 203.744 67.48 200.288 67.48zM202.64 62.872C205.184 62.872 207.68 60.856 207.68 58.696L207.68 55.048 205.184 55.096C201.68 55.144 198.56 56.152 198.56 59.176 198.56 61.528 200.336 62.872 202.64 62.872zM220.592 67L220.592 42.184 227.504 42.184 227.504 45.4C228.992 43.576 230.768 41.944 234.704 41.944 239.264 41.944 243.392 45.256 243.392 50.44L243.392 67 236.384 67 236.384 51.304C236.384 48.856 234.56 47.464 232.256 47.464 229.904 47.464 227.6 48.664 227.6 50.92L227.6 67 220.592 67zM259.088 67.48C253.952 67.48 248.72 65.224 247.856 59.512L253.76 59.512C254.528 62.008 256.688 62.68 259.184 62.68 262.016 62.68 263.648 61.672 263.648 60.088 263.648 58.648 262.304 58.024 260.288 57.544L255.92 56.632C251.552 55.72 248.672 53.656 248.624 49.576 248.576 44.872 252.848 41.704 259.136 41.704 265.376 41.704 269.36 44.968 269.312 49.384L263.456 49.384C263.072 47.272 261.2 46.312 258.944 46.312 256.928 46.312 254.768 46.936 254.768 49.048 254.768 50.344 256.016 51.016 258.752 51.544L262.784 52.456C268.4 53.848 269.6 57.448 269.6 59.704 269.6 64.792 264.896 67.48 259.088 67.48zM759.936 67L759.936 32.296 770.112 32.296 778.032 57.016 786.048 32.296 796.224 32.296 796.224 67 789.12 67 789.12 40.456 780.816 67 775.296 67 766.992 40.6 766.992 67 759.936 67zM808.8 56.2C808.752 60.04 810.72 62.392 814.032 62.392 816.432 62.392 818.208 61.48 819.072 59.128L825.36 59.128C824.4 64.504 819.408 67.48 814.224 67.48 806.88 67.48 801.84 62.584 801.84 54.856 801.84 47.416 806.256 41.704 813.84 41.704 821.424 41.704 825.408 46.84 825.408 54.28L825.408 56.2 808.8 56.2zM808.752 52.024L818.88 52.024C818.88 49 817.2 46.6 813.84 46.6 810.624 46.6 808.752 49.288 808.752 52.024zM830.352 67L830.352 42.184 837.12 42.184 837.12 48.28C838.512 44.68 841.632 41.704 845.808 41.704L845.856 48.328C839.712 47.848 837.36 50.872 837.36 53.704L837.36 67 830.352 67zM849.84 67L849.84 42.184 856.608 42.184 856.608 48.28C858 44.68 861.12 41.704 865.296 41.704L865.344 48.328C859.2 47.848 856.848 50.872 856.848 53.704L856.848 67 849.84 67zM876.576 31.336L876.576 38.2 869.424 38.2 869.424 31.336 876.576 31.336zM876.528 42.184L876.528 67 869.52 67 869.52 42.184 876.528 42.184zM916.848 42.184L908.688 67 903.12 67 898.512 51.976 893.856 67 888.48 67 880.416 42.184 886.608 42.184 891.36 57.592 891.552 57.592 896.112 42.184 901.104 42.184 905.76 57.592 905.904 57.592 910.512 42.184 916.848 42.184zM925.584 56.2C925.536 60.04 927.504 62.392 930.816 62.392 933.216 62.392 934.992 61.48 935.856 59.128L942.144 59.128C941.184 64.504 936.192 67.48 931.008 67.48 923.664 67.48 918.624 62.584 918.624 54.856 918.624 47.416 923.04 41.704 930.624 41.704 938.208 41.704 942.192 46.84 942.192 54.28L942.192 56.2 925.584 56.2zM925.536 52.024L935.664 52.024C935.664 49 933.984 46.6 930.624 46.6 927.408 46.6 925.536 49.288 925.536 52.024zM954.048 67.48C949.296 67.48 945.648 64.744 945.648 59.896 945.648 54.472 949.584 51.592 958.368 51.496L961.44 51.448 961.44 49.96C961.44 47.608 959.952 46.408 957.312 46.408 955.296 46.456 953.184 47.368 952.464 49.576L946.656 49.576C946.896 44.44 951.456 41.704 957.648 41.704 965.232 41.704 968.16 44.824 968.16 49.528L968.16 67 962.304 67 961.728 62.776C960.048 66.376 957.504 67.48 954.048 67.48zM956.4 62.872C958.944 62.872 961.44 60.856 961.44 58.696L961.44 55.048 958.944 55.096C955.44 55.144 952.32 56.152 952.32 59.176 952.32 61.528 954.096 62.872 956.4 62.872zM988.56 47.032L983.04 47.032 983.088 60.184C983.088 62.056 983.856 62.44 985.008 62.44L988.704 62.44 988.704 66.664C988.032 66.952 986.736 67.288 984.336 67.288 977.808 67.288 976.08 64.552 976.08 60.568L976.08 47.032 972.048 47.032 972.048 42.184 976.32 42.184 977.28 34.696 983.04 34.696 983.04 42.136 988.56 42.136 988.56 47.032zM993.84 67L993.84 31.336 1000.8 31.336 1000.8 45.448C1002 43.72 1004.016 42.04 1007.952 42.04 1012.704 42.04 1016.592 45.16 1016.592 49.816L1016.592 67 1009.584 67 1009.584 50.824C1009.584 48.712 1007.712 47.464 1005.456 47.464 1003.104 47.464 1000.848 48.712 1000.848 51.016L1000.848 67 993.84 67zM1028.112 56.2C1028.064 60.04 1030.032 62.392 1033.344 62.392 1035.744 62.392 1037.52 61.48 1038.384 59.128L1044.672 59.128C1043.712 64.504 1038.72 67.48 1033.536 67.48 1026.192 67.48 1021.152 62.584 1021.152 54.856 1021.152 47.416 1025.568 41.704 1033.152 41.704 1040.736 41.704 1044.72 46.84 1044.72 54.28L1044.72 56.2 1028.112 56.2zM1028.064 52.024L1038.192 52.024C1038.192 49 1036.512 46.6 1033.152 46.6 1029.936 46.6 1028.064 49.288 1028.064 52.024zM1049.664 67L1049.664 42.184 1056.432 42.184 1056.432 48.28C1057.824 44.68 1060.944 41.704 1065.12 41.704L1065.168 48.328C1059.024 47.848 1056.672 50.872 1056.672 53.704L1056.672 67 1049.664 67zM1535.232 67.48C1528.224 67.48 1521.168 64.216 1520.4 57.256L1527.696 57.112C1528.368 60.232 1531.344 61.96 1535.184 61.96 1539.12 61.96 1542.336 60.568 1542.336 57.592 1542.336 55 1539.744 53.8 1536.336 53.128L1530.192 51.928C1524.864 50.92 1521.504 47.848 1521.456 42.472 1521.36 35.944 1527.36 31.864 1535.088 31.864 1543.392 31.864 1548.576 36.856 1549.152 42.28L1542.048 42.376C1541.568 38.776 1538.88 37.432 1535.184 37.432 1531.392 37.432 1528.944 39.16 1528.944 41.656 1528.944 43.72 1530.048 44.872 1533.84 45.688L1539.84 46.936C1548.48 48.568 1549.536 53.992 1549.536 57.592 1549.536 63.16 1543.776 67.48 1535.232 67.48zM1565.856 67.48C1558.416 67.48 1553.856 62.248 1553.856 54.76 1553.856 46.984 1558.704 41.704 1565.904 41.704 1573.392 41.704 1577.856 47.176 1577.856 54.712 1577.856 62.2 1573.296 67.48 1565.856 67.48zM1565.904 62.248C1569.792 62.248 1571.04 58.36 1571.04 54.52 1571.04 50.584 1569.744 46.84 1565.904 46.84 1562.016 46.84 1560.72 50.584 1560.72 54.52 1560.72 58.36 1562.016 62.248 1565.904 62.248zM1591.488 67.48C1587.456 67.432 1582.272 64.84 1582.272 59.32L1582.272 42.136 1589.28 42.136 1589.28 58.456C1589.28 61.144 1591.344 62.392 1593.552 62.392 1596.048 62.392 1597.968 60.856 1597.968 58.312L1597.968 42.136 1605.072 42.136 1604.928 67 1599.648 67 1598.88 61.912C1598.016 66.52 1594.32 67.48 1591.488 67.48zM1610.88 67L1610.88 42.184 1617.648 42.184 1617.648 48.28C1619.04 44.68 1622.16 41.704 1626.336 41.704L1626.384 48.328C1620.24 47.848 1617.888 50.872 1617.888 53.704L1617.888 67 1610.88 67zM1640.976 41.704C1647.072 41.704 1650.96 45.832 1651.392 51.208L1645.536 51.256C1645.056 49.048 1643.712 47.032 1641.072 47.032 1637.664 47.032 1635.504 49.816 1635.504 54.616 1635.504 59.512 1637.76 62.488 1641.168 62.488 1643.856 62.488 1645.248 60.184 1645.632 58.312L1651.296 58.312C1650.912 63.592 1646.88 67.48 1640.976 67.48 1633.968 67.48 1628.976 62.296 1628.976 54.712 1628.976 47.032 1633.92 41.704 1640.976 41.704zM1661.568 56.2C1661.52 60.04 1663.488 62.392 1666.8 62.392 1669.2 62.392 1670.976 61.48 1671.84 59.128L1678.128 59.128C1677.168 64.504 1672.176 67.48 1666.992 67.48 1659.648 67.48 1654.608 62.584 1654.608 54.856 1654.608 47.416 1659.024 41.704 1666.608 41.704 1674.192 41.704 1678.176 46.84 1678.176 54.28L1678.176 56.2 1661.568 56.2zM1661.52 52.024L1671.648 52.024C1671.648 49 1669.968 46.6 1666.608 46.6 1663.392 46.6 1661.52 49.288 1661.52 52.024zM1708.032 67.48C1701.024 67.48 1693.968 64.216 1693.2 57.256L1700.496 57.112C1701.168 60.232 1704.144 61.96 1707.984 61.96 1711.92 61.96 1715.136 60.568 1715.136 57.592 1715.136 55 1712.544 53.8 1709.136 53.128L1702.992 51.928C1697.664 50.92 1694.304 47.848 1694.256 42.472 1694.16 35.944 1700.16 31.864 1707.888 31.864 1716.192 31.864 1721.376 36.856 1721.952 42.28L1714.848 42.376C1714.368 38.776 1711.68 37.432 1707.984 37.432 1704.192 37.432 1701.744 39.16 1701.744 41.656 1701.744 43.72 1702.848 44.872 1706.64 45.688L1712.64 46.936C1721.28 48.568 1722.336 53.992 1722.336 57.592 1722.336 63.16 1716.576 67.48 1708.032 67.48zM1735.152 67.48C1730.4 67.48 1726.752 64.744 1726.752 59.896 1726.752 54.472 1730.688 51.592 1739.472 51.496L1742.544 51.448 1742.544 49.96C1742.544 47.608 1741.056 46.408 1738.416 46.408 1736.4 46.456 1734.288 47.368 1733.568 49.576L1727.76 49.576C1728 44.44 1732.56 41.704 1738.752 41.704 1746.336 41.704 1749.264 44.824 1749.264 49.528L1749.264 67 1743.408 67 1742.832 62.776C1741.152 66.376 1738.608 67.48 1735.152 67.48zM1737.504 62.872C1740.048 62.872 1742.544 60.856 1742.544 58.696L1742.544 55.048 1740.048 55.096C1736.544 55.144 1733.424 56.152 1733.424 59.176 1733.424 61.528 1735.2 62.872 1737.504 62.872zM1755.456 67L1755.456 42.184 1762.368 42.184 1762.368 45.4C1763.856 43.576 1765.632 41.944 1769.568 41.944 1774.128 41.944 1778.256 45.256 1778.256 50.44L1778.256 67 1771.248 67 1771.248 51.304C1771.248 48.856 1769.424 47.464 1767.12 47.464 1764.768 47.464 1762.464 48.664 1762.464 50.92L1762.464 67 1755.456 67zM1793.952 67.48C1788.816 67.48 1783.584 65.224 1782.72 59.512L1788.624 59.512C1789.392 62.008 1791.552 62.68 1794.048 62.68 1796.88 62.68 1798.512 61.672 1798.512 60.088 1798.512 58.648 1797.168 58.024 1795.152 57.544L1790.784 56.632C1786.416 55.72 1783.536 53.656 1783.488 49.576 1783.44 44.872 1787.712 41.704 1794 41.704 1800.24 41.704 1804.224 44.968 1804.176 49.384L1798.32 49.384C1797.936 47.272 1796.064 46.312 1793.808 46.312 1791.792 46.312 1789.632 46.936 1789.632 49.048 1789.632 50.344 1790.88 51.016 1793.616 51.544L1797.648 52.456C1803.264 53.848 1804.464 57.448 1804.464 59.704 1804.464 64.792 1799.76 67.48 1793.952 67.48zM1820.4 67L1820.4 32.296 1833.168 32.296C1840.752 32.296 1846.464 36.328 1846.464 43.672 1846.464 50.584 1841.568 54.616 1834.08 54.616L1827.456 54.616 1827.456 67 1820.4 67zM1827.408 49.192L1833.888 49.192C1837.392 49.192 1839.888 46.648 1839.888 43.288 1839.888 39.832 1837.2 37.672 1833.792 37.672L1827.408 37.672 1827.408 49.192zM1851.168 67L1851.168 42.184 1857.936 42.184 1857.936 48.28C1859.328 44.68 1862.448 41.704 1866.624 41.704L1866.672 48.328C1860.528 47.848 1858.176 50.872 1858.176 53.704L1858.176 67 1851.168 67zM1881.168 67.48C1873.728 67.48 1869.168 62.248 1869.168 54.76 1869.168 46.984 1874.016 41.704 1881.216 41.704 1888.704 41.704 1893.168 47.176 1893.168 54.712 1893.168 62.2 1888.608 67.48 1881.168 67.48zM1881.216 62.248C1885.104 62.248 1886.352 58.36 1886.352 54.52 1886.352 50.584 1885.056 46.84 1881.216 46.84 1877.328 46.84 1876.032 50.584 1876.032 54.52 1876.032 58.36 1877.328 62.248 1881.216 62.248z"/>
  </g>
</svg>
