<svg xmlns="http://www.w3.org/2000/svg" width="2234" height="494" viewBox="0 0 2234 494">
  <g fill="none" fill-rule="evenodd" transform="translate(2)">
    <path fill="#DFE7F5" d="M26.2 386L131.4 96.8 171.4 96.8 275.8 386 239.8 386 211 305.6 91.8 305.6 62.2 386 26.2 386zM100.6 273.2L201.4 273.2 151.4 131.6 100.6 273.2zM376.6 388.4C333.4 388.4 325.4 362.4 325.4 333.2L325.4 88.8 359.8 88.8 359.8 330C359.8 351.6 369 361.6 383 362.4L394.6 362.8 394.6 385.2C388.6 387.2 381.4 388.4 376.6 388.4zM537.4 454.4C470.6 454.4 435.4 432.8 435.4 399.6 435.4 370 469 358 474.2 354.4 467 350 453.4 344 453.4 328.4 453.4 315.6 465.4 304 489.4 298.8 462.2 284.8 451 266.4 451 241.6 451 200 487 176 540.2 176 567 176 583.8 182.4 599.8 194L651.8 172.4 651.8 205.6 615.4 212.8C619 220 622.2 233.6 622.2 241.2 622.2 276.4 595 306.4 537 306.4 533.8 306.4 528.6 306.4 525 306 495.8 306.8 486.6 313.6 486.6 320.4 486.6 328.4 497 330.4 526.2 332.4 537 333.2 552.6 334 571.4 335.2 617.8 338 638.6 359.2 638.6 390.8 638.6 430 602.6 454.4 537.4 454.4zM537.8 283.6C571.4 283.6 588.6 268.8 588.6 242 588.6 214.8 571 198 537.8 198 505 198 486.2 214.8 486.2 242 486.2 268.4 505 283.6 537.8 283.6zM543.8 431.6C585 431.6 604.2 420 604.2 396 604.2 378.4 593.4 367.6 565.8 365.6L507 362C491.4 360.8 470.2 376 470.2 395.6 470.2 419.6 496.2 431.6 543.8 431.6zM790.164062 360.023438L886.453125 86.390625 932.9375 86.390625 1030.00781 360.023438 1054.8125 364.710938 1054.8125 386 947.585938 386 947.585938 364.710938 979.421875 360.023438 960.867188 302.992188 846.023438 302.992188 828.25 360.023438 861.648438 364.710938 861.648438 386 765.554688 386 765.359375 364.710938 790.164062 360.023438zM952.859375 278.1875L911.0625 149.867188 902.46875 117.054688 893.875 150.257812 853.835938 278.1875 952.859375 278.1875zM1094.65625 361.390625L1094.65625 88.9296875 1062.625 85.0234375 1062.625 66.46875 1129.22656 58.0703125 1129.61719 58.0703125 1139.1875 64.7109375 1139.1875 361.390625 1172.39062 364.710938 1172.39062 386 1063.01562 386 1063.01562 364.710938 1094.65625 361.390625zM1296.60938 306.898438C1285.93224 306.898438 1275.9714 305.791678 1266.72656 303.578125 1263.08071 306.83335 1260.21616 310.576802 1258.13281 314.808594 1256.04947 319.040386 1255.00781 323.36977 1255.00781 327.796875 1255.00781 334.307324 1256.53775 339.287743 1259.59766 342.738281 1262.65757 346.188819 1267.27992 348.565098 1273.46484 349.867188 1279.64977 351.169277 1288.14578 351.820312 1298.95312 351.820312L1341.53125 351.820312C1392.44296 351.820312 1417.89844 371.351367 1417.89844 410.414062 1417.89844 425.518305 1412.5274 439.450457 1401.78516 452.210938 1391.04292 464.971418 1376.68759 475.095015 1358.71875 482.582031 1340.74991 490.069048 1321.47927 493.8125 1300.90625 493.8125L1300.71094 493.8125C1265.81493 493.8125 1240.48966 488.506563 1224.73438 477.894531 1208.97909 467.282499 1201.10156 452.276139 1201.10156 432.875 1201.10156 420.765564 1204.6497 409.795622 1211.74609 399.964844 1218.84248 390.134065 1227.4036 382.679713 1237.42969 377.601562 1224.79942 370.440068 1218.48438 359.502678 1218.48438 344.789062 1218.48438 335.023389 1221.28383 326.006552 1226.88281 317.738281 1232.4818 309.470011 1239.8385 302.7969 1248.95312 297.71875 1235.93223 291.729137 1225.93884 283.233128 1218.97266 272.230469 1212.00648 261.22781 1208.52344 248.369865 1208.52344 233.65625 1208.52344 218.29159 1212.88537 204.880266 1221.60938 193.421875 1230.33338 181.963484 1241.7916 173.207062 1255.98438 167.152344 1270.17715 161.097626 1285.34627 158.005209 1301.49219 157.875L1301.6875 157.875C1315.75007 157.875 1328.38015 159.470036 1339.57812 162.660156 1350.7761 165.850276 1360.21611 170.570281 1367.89844 176.820312 1371.80471 172.262998 1377.66402 167.901063 1385.47656 163.734375 1393.2891 159.567688 1402.4687 157.484375 1413.01562 157.484375L1423.5625 157.484375 1423.5625 195.375 1382.54688 195.375C1387.10419 204.880256 1389.38281 215.361922 1389.38281 226.820312 1389.38281 242.445391 1385.34639 256.344991 1377.27344 268.519531 1369.20048 280.694071 1358.13288 290.134081 1344.07031 296.839844 1330.00774 303.545606 1314.25269 306.898438 1296.80469 306.898438L1296.60938 306.898438zM1298.95312 180.726562C1284.89055 180.726562 1273.98572 184.535118 1266.23828 192.152344 1258.49085 199.769569 1254.61719 212.236893 1254.61719 229.554688 1254.61719 245.96102 1258.29554 259.079378 1265.65234 268.910156 1273.00915 278.740935 1284.76034 283.65625 1300.90625 283.65625L1301.10156 283.65625C1315.94539 283.65625 1326.72002 279.229211 1333.42578 270.375 1340.13154 261.520789 1343.48438 248.565189 1343.48438 231.507812 1343.48438 214.059809 1339.87113 201.234416 1332.64453 193.03125 1325.41793 184.828084 1314.25268 180.726562 1299.14844 180.726562L1298.95312 180.726562zM1257.35156 384.4375C1249.01819 394.72401 1244.85156 407.028574 1244.85156 421.351562 1244.85156 436.976641 1249.47391 448.82548 1258.71875 456.898438 1267.96359 464.971395 1283.13271 469.007812 1304.22656 469.007812L1304.61719 469.007812C1316.336 469.007812 1327.5338 467.184914 1338.21094 463.539062 1348.88807 459.893211 1357.54684 454.489619 1364.1875 447.328125 1370.82816 440.166631 1374.14844 431.63807 1374.14844 421.742188 1374.14844 413.278604 1372.87892 406.605493 1370.33984 401.722656 1367.80077 396.839819 1363.14587 393.161471 1356.375 390.6875 1349.60413 388.213529 1339.7735 386.976562 1326.88281 386.976562L1287.625 386.976562C1276.94786 386.976562 1266.85682 386.130217 1257.35156 384.4375zM1681.6 279.2L1669.2 239.2C1664.39998 224.53326 1659.86669 209.933406 1655.6 195.4 1651.33331 180.866594 1647.06669 166.000076 1642.8 150.8L1641.2 150.8C1637.19998 166.000076 1633.06669 180.866594 1628.8 195.4 1624.53331 209.933406 1620.00002 224.53326 1615.2 239.2L1602.8 279.2 1681.6 279.2zM1690 306L1594.4 306 1569.2 386 1535.2 386 1624 123.6 1661.6 123.6 1750.4 386 1714.8 386 1690 306zM1784.4 101.2L1817.2 101.2 1817.2 349.2C1817.2 354.53336 1818.13332 358.266656 1820 360.4 1821.86668 362.533344 1823.99999 363.6 1826.4 363.6L1829.4 363.6C1830.33334 363.6 1831.73332 363.333336 1833.6 362.8L1838 387.6C1835.86666 388.666672 1833.33335 389.466664 1830.4 390 1827.46665 390.533336 1823.73336 390.8 1819.2 390.8 1806.6666 390.8 1797.73336 387.066704 1792.4 379.6 1787.06664 372.133296 1784.4 361.200072 1784.4 346.8L1784.4 101.2zM1900.4 418.8C1900.4 429.200052 1905.39995 437.466636 1915.4 443.6 1925.40005 449.733364 1939.19991 452.8 1956.8 452.8 1966.13338 452.8 1974.59996 451.666678 1982.2 449.4 1989.80004 447.133322 1996.26664 444.200018 2001.6 440.6 2006.93336 436.999982 2011.06665 432.800024 2014 428 2016.93335 423.199976 2018.4 418.266692 2018.4 413.2 2018.4 404.133288 2015.0667 397.866684 2008.4 394.4 2001.7333 390.933316 1992.00006 389.2 1979.2 389.2L1945.6 389.2C1941.86665 389.2 1937.80002 389.000002 1933.4 388.6 1928.99998 388.199998 1924.66669 387.33334 1920.4 386 1913.46663 391.066692 1908.40002 396.399972 1905.2 402 1901.99998 407.600028 1900.4 413.199972 1900.4 418.8zM1871.6 423.2C1871.6 414.933292 1874.13331 407.066704 1879.2 399.6 1884.26669 392.133296 1891.19996 385.333364 1900 379.2L1900 377.6C1895.19998 374.666652 1891.13335 370.600026 1887.8 365.4 1884.46665 360.199974 1882.8 353.733372 1882.8 346 1882.8 337.733292 1885.06664 330.533364 1889.6 324.4 1894.13336 318.266636 1898.93331 313.466684 1904 310L1904 308.4C1897.59997 303.06664 1891.80003 295.933378 1886.6 287 1881.39997 278.066622 1878.8 267.733392 1878.8 256 1878.8 245.33328 1880.73331 235.733376 1884.6 227.2 1888.46669 218.666624 1893.7333 211.40003 1900.4 205.4 1907.0667 199.39997 1914.86662 194.800016 1923.8 191.6 1932.73338 188.399984 1942.13328 186.8 1952 186.8 1957.33336 186.8 1962.33331 187.266662 1967 188.2 1971.66669 189.133338 1975.86665 190.26666 1979.6 191.6L2047.2 191.6 2047.2 216.8 2007.2 216.8C2011.73336 221.333356 2015.53332 227.066632 2018.6 234 2021.66668 240.933368 2023.2 248.533292 2023.2 256.8 2023.2 267.200052 2021.33335 276.599958 2017.6 285 2013.86665 293.400042 2008.80003 300.466638 2002.4 306.2 1995.99997 311.933362 1988.46671 316.399984 1979.8 319.6 1971.13329 322.800016 1961.86672 324.4 1952 324.4 1947.19998 324.4 1942.26669 323.800006 1937.2 322.6 1932.13331 321.399994 1927.33336 319.733344 1922.8 317.6 1919.33332 320.533348 1916.40001 323.799982 1914 327.4 1911.59999 331.000018 1910.4 335.46664 1910.4 340.8 1910.4 346.933364 1912.79998 351.99998 1917.6 356 1922.40002 360.00002 1931.4666 362 1944.8 362L1982.4 362C2005.06678 362 2022.06661 365.66663 2033.4 373 2044.73339 380.33337 2050.4 392.133252 2050.4 408.4 2050.4 417.466712 2048.13336 426.066626 2043.6 434.2 2039.06664 442.333374 2032.53338 449.466636 2024 455.6 2015.46662 461.733364 2005.13339 466.599982 1993 470.2 1980.86661 473.800018 1967.20008 475.6 1952 475.6 1939.99994 475.6 1929.06672 474.466678 1919.2 472.2 1909.33328 469.933322 1900.8667 466.533356 1893.8 462 1886.7333 457.466644 1881.26669 452.000032 1877.4 445.6 1873.53331 439.199968 1871.6 431.733376 1871.6 423.2zM1952 302.4C1957.60003 302.4 1962.86664 301.333344 1967.8 299.2 1972.73336 297.066656 1977.13331 294.00002 1981 290 1984.86669 285.99998 1987.86666 281.133362 1990 275.4 1992.13334 269.666638 1993.2 263.200036 1993.2 256 1993.2 241.599928 1989.20004 230.466706 1981.2 222.6 1973.19996 214.733294 1963.46672 210.8 1952 210.8 1940.53328 210.8 1930.80004 214.733294 1922.8 222.6 1914.79996 230.466706 1910.8 241.599928 1910.8 256 1910.8 263.200036 1911.86666 269.666638 1914 275.4 1916.13334 281.133362 1919.13331 285.99998 1923 290 1926.86669 294.00002 1931.26664 297.066656 1936.2 299.2 1941.13336 301.333344 1946.39997 302.4 1952 302.4z"/>
    <rect width="705" height="400" y="91" stroke="#3E76C2" stroke-width="4"/>
    <rect width="705" height="400" x="763" y="91" stroke="#3E76C2" stroke-width="4"/>
    <rect width="705" height="400" x="1525" y="91" stroke="#3E76C2" stroke-width="4"/>
    <path stroke="#3E76C2" stroke-width="4" d="M0 387.5L705 387.5M763 387.5L1468 387.5M1525 387.5L2230 387.5"/>
    <path fill="#171717" d="M5.936 36L5.936 1.296 18.704 1.296C26.288 1.296 32 5.328 32 12.672 32 19.584 27.104 23.616 19.616 23.616L12.992 23.616 12.992 36 5.936 36zM12.944 18.192L19.424 18.192C22.928 18.192 25.424 15.648 25.424 12.288 25.424 8.832 22.736 6.672 19.328 6.672L12.944 6.672 12.944 18.192zM45.44 36.48C41.408 36.432 36.224 33.84 36.224 28.32L36.224 11.136 43.232 11.136 43.232 27.456C43.232 30.144 45.296 31.392 47.504 31.392 50 31.392 51.92 29.856 51.92 27.312L51.92 11.136 59.024 11.136 58.88 36 53.6 36 52.832 30.912C51.968 35.52 48.272 36.48 45.44 36.48zM78.656 36.48C74.96 36.48 71.984 34.608 70.88 32.448L70.16 36 65.12 36 65.12.336 72.128.336 72.128 14.784C73.472 12.528 76.208 10.704 79.52 10.704 85.952 10.704 89.36 15.888 89.36 23.472 89.36 31.392 85.52 36.48 78.656 36.48zM76.88 31.44C79.952 31.44 82.208 29.232 82.208 23.376 82.208 17.856 80.144 15.792 77.12 15.792 74.576 15.792 72.752 17.568 72.128 21.216L72.128 24.672C72.128 29.04 74.288 31.44 76.88 31.44zM102.08 36.432C94.736 36.432 94.112 32.592 94.112 29.04L94.112.336 101.024.336 101.024 28.176C101.024 30 101.648 31.2 103.808 31.44L104.96 31.488 104.96 35.856C104 36.192 102.992 36.432 102.08 36.432zM116.864.336L116.864 7.2 109.712 7.2 109.712.336 116.864.336zM116.816 11.184L116.816 36 109.808 36 109.808 11.184 116.816 11.184zM133.616 10.704C139.712 10.704 143.6 14.832 144.032 20.208L138.176 20.256C137.696 18.048 136.352 16.032 133.712 16.032 130.304 16.032 128.144 18.816 128.144 23.616 128.144 28.512 130.4 31.488 133.808 31.488 136.496 31.488 137.888 29.184 138.272 27.312L143.936 27.312C143.552 32.592 139.52 36.48 133.616 36.48 126.608 36.48 121.616 31.296 121.616 23.712 121.616 16.032 126.56 10.704 133.616 10.704zM173.168 36.48C166.16 36.48 159.104 33.216 158.336 26.256L165.632 26.112C166.304 29.232 169.28 30.96 173.12 30.96 177.056 30.96 180.272 29.568 180.272 26.592 180.272 24 177.68 22.8 174.272 22.128L168.128 20.928C162.8 19.92 159.44 16.848 159.392 11.472 159.296 4.944 165.296.864 173.024.864 181.328.864 186.512 5.856 187.088 11.28L179.984 11.376C179.504 7.776 176.816 6.432 173.12 6.432 169.328 6.432 166.88 8.16 166.88 10.656 166.88 12.72 167.984 13.872 171.776 14.688L177.776 15.936C186.416 17.568 187.472 22.992 187.472 26.592 187.472 32.16 181.712 36.48 173.168 36.48zM200.288 36.48C195.536 36.48 191.888 33.744 191.888 28.896 191.888 23.472 195.824 20.592 204.608 20.496L207.68 20.448 207.68 18.96C207.68 16.608 206.192 15.408 203.552 15.408 201.536 15.456 199.424 16.368 198.704 18.576L192.896 18.576C193.136 13.44 197.696 10.704 203.888 10.704 211.472 10.704 214.4 13.824 214.4 18.528L214.4 36 208.544 36 207.968 31.776C206.288 35.376 203.744 36.48 200.288 36.48zM202.64 31.872C205.184 31.872 207.68 29.856 207.68 27.696L207.68 24.048 205.184 24.096C201.68 24.144 198.56 25.152 198.56 28.176 198.56 30.528 200.336 31.872 202.64 31.872zM220.592 36L220.592 11.184 227.504 11.184 227.504 14.4C228.992 12.576 230.768 10.944 234.704 10.944 239.264 10.944 243.392 14.256 243.392 19.44L243.392 36 236.384 36 236.384 20.304C236.384 17.856 234.56 16.464 232.256 16.464 229.904 16.464 227.6 17.664 227.6 19.92L227.6 36 220.592 36zM259.088 36.48C253.952 36.48 248.72 34.224 247.856 28.512L253.76 28.512C254.528 31.008 256.688 31.68 259.184 31.68 262.016 31.68 263.648 30.672 263.648 29.088 263.648 27.648 262.304 27.024 260.288 26.544L255.92 25.632C251.552 24.72 248.672 22.656 248.624 18.576 248.576 13.872 252.848 10.704 259.136 10.704 265.376 10.704 269.36 13.968 269.312 18.384L263.456 18.384C263.072 16.272 261.2 15.312 258.944 15.312 256.928 15.312 254.768 15.936 254.768 18.048 254.768 19.344 256.016 20.016 258.752 20.544L262.784 21.456C268.4 22.848 269.6 26.448 269.6 28.704 269.6 33.792 264.896 36.48 259.088 36.48zM759.936 36L759.936 1.296 770.112 1.296 778.032 26.016 786.048 1.296 796.224 1.296 796.224 36 789.12 36 789.12 9.456 780.816 36 775.296 36 766.992 9.6 766.992 36 759.936 36zM808.8 25.2C808.752 29.04 810.72 31.392 814.032 31.392 816.432 31.392 818.208 30.48 819.072 28.128L825.36 28.128C824.4 33.504 819.408 36.48 814.224 36.48 806.88 36.48 801.84 31.584 801.84 23.856 801.84 16.416 806.256 10.704 813.84 10.704 821.424 10.704 825.408 15.84 825.408 23.28L825.408 25.2 808.8 25.2zM808.752 21.024L818.88 21.024C818.88 18 817.2 15.6 813.84 15.6 810.624 15.6 808.752 18.288 808.752 21.024zM830.352 36L830.352 11.184 837.12 11.184 837.12 17.28C838.512 13.68 841.632 10.704 845.808 10.704L845.856 17.328C839.712 16.848 837.36 19.872 837.36 22.704L837.36 36 830.352 36zM849.84 36L849.84 11.184 856.608 11.184 856.608 17.28C858 13.68 861.12 10.704 865.296 10.704L865.344 17.328C859.2 16.848 856.848 19.872 856.848 22.704L856.848 36 849.84 36zM876.576.336L876.576 7.2 869.424 7.2 869.424.336 876.576.336zM876.528 11.184L876.528 36 869.52 36 869.52 11.184 876.528 11.184zM916.848 11.184L908.688 36 903.12 36 898.512 20.976 893.856 36 888.48 36 880.416 11.184 886.608 11.184 891.36 26.592 891.552 26.592 896.112 11.184 901.104 11.184 905.76 26.592 905.904 26.592 910.512 11.184 916.848 11.184zM925.584 25.2C925.536 29.04 927.504 31.392 930.816 31.392 933.216 31.392 934.992 30.48 935.856 28.128L942.144 28.128C941.184 33.504 936.192 36.48 931.008 36.48 923.664 36.48 918.624 31.584 918.624 23.856 918.624 16.416 923.04 10.704 930.624 10.704 938.208 10.704 942.192 15.84 942.192 23.28L942.192 25.2 925.584 25.2zM925.536 21.024L935.664 21.024C935.664 18 933.984 15.6 930.624 15.6 927.408 15.6 925.536 18.288 925.536 21.024zM954.048 36.48C949.296 36.48 945.648 33.744 945.648 28.896 945.648 23.472 949.584 20.592 958.368 20.496L961.44 20.448 961.44 18.96C961.44 16.608 959.952 15.408 957.312 15.408 955.296 15.456 953.184 16.368 952.464 18.576L946.656 18.576C946.896 13.44 951.456 10.704 957.648 10.704 965.232 10.704 968.16 13.824 968.16 18.528L968.16 36 962.304 36 961.728 31.776C960.048 35.376 957.504 36.48 954.048 36.48zM956.4 31.872C958.944 31.872 961.44 29.856 961.44 27.696L961.44 24.048 958.944 24.096C955.44 24.144 952.32 25.152 952.32 28.176 952.32 30.528 954.096 31.872 956.4 31.872zM988.56 16.032L983.04 16.032 983.088 29.184C983.088 31.056 983.856 31.44 985.008 31.44L988.704 31.44 988.704 35.664C988.032 35.952 986.736 36.288 984.336 36.288 977.808 36.288 976.08 33.552 976.08 29.568L976.08 16.032 972.048 16.032 972.048 11.184 976.32 11.184 977.28 3.696 983.04 3.696 983.04 11.136 988.56 11.136 988.56 16.032zM993.84 36L993.84.336 1000.8.336 1000.8 14.448C1002 12.72 1004.016 11.04 1007.952 11.04 1012.704 11.04 1016.592 14.16 1016.592 18.816L1016.592 36 1009.584 36 1009.584 19.824C1009.584 17.712 1007.712 16.464 1005.456 16.464 1003.104 16.464 1000.848 17.712 1000.848 20.016L1000.848 36 993.84 36zM1028.112 25.2C1028.064 29.04 1030.032 31.392 1033.344 31.392 1035.744 31.392 1037.52 30.48 1038.384 28.128L1044.672 28.128C1043.712 33.504 1038.72 36.48 1033.536 36.48 1026.192 36.48 1021.152 31.584 1021.152 23.856 1021.152 16.416 1025.568 10.704 1033.152 10.704 1040.736 10.704 1044.72 15.84 1044.72 23.28L1044.72 25.2 1028.112 25.2zM1028.064 21.024L1038.192 21.024C1038.192 18 1036.512 15.6 1033.152 15.6 1029.936 15.6 1028.064 18.288 1028.064 21.024zM1049.664 36L1049.664 11.184 1056.432 11.184 1056.432 17.28C1057.824 13.68 1060.944 10.704 1065.12 10.704L1065.168 17.328C1059.024 16.848 1056.672 19.872 1056.672 22.704L1056.672 36 1049.664 36zM1535.232 36.48C1528.224 36.48 1521.168 33.216 1520.4 26.256L1527.696 26.112C1528.368 29.232 1531.344 30.96 1535.184 30.96 1539.12 30.96 1542.336 29.568 1542.336 26.592 1542.336 24 1539.744 22.8 1536.336 22.128L1530.192 20.928C1524.864 19.92 1521.504 16.848 1521.456 11.472 1521.36 4.944 1527.36.864 1535.088.864 1543.392.864 1548.576 5.856 1549.152 11.28L1542.048 11.376C1541.568 7.776 1538.88 6.432 1535.184 6.432 1531.392 6.432 1528.944 8.16 1528.944 10.656 1528.944 12.72 1530.048 13.872 1533.84 14.688L1539.84 15.936C1548.48 17.568 1549.536 22.992 1549.536 26.592 1549.536 32.16 1543.776 36.48 1535.232 36.48zM1565.856 36.48C1558.416 36.48 1553.856 31.248 1553.856 23.76 1553.856 15.984 1558.704 10.704 1565.904 10.704 1573.392 10.704 1577.856 16.176 1577.856 23.712 1577.856 31.2 1573.296 36.48 1565.856 36.48zM1565.904 31.248C1569.792 31.248 1571.04 27.36 1571.04 23.52 1571.04 19.584 1569.744 15.84 1565.904 15.84 1562.016 15.84 1560.72 19.584 1560.72 23.52 1560.72 27.36 1562.016 31.248 1565.904 31.248zM1591.488 36.48C1587.456 36.432 1582.272 33.84 1582.272 28.32L1582.272 11.136 1589.28 11.136 1589.28 27.456C1589.28 30.144 1591.344 31.392 1593.552 31.392 1596.048 31.392 1597.968 29.856 1597.968 27.312L1597.968 11.136 1605.072 11.136 1604.928 36 1599.648 36 1598.88 30.912C1598.016 35.52 1594.32 36.48 1591.488 36.48zM1610.88 36L1610.88 11.184 1617.648 11.184 1617.648 17.28C1619.04 13.68 1622.16 10.704 1626.336 10.704L1626.384 17.328C1620.24 16.848 1617.888 19.872 1617.888 22.704L1617.888 36 1610.88 36zM1640.976 10.704C1647.072 10.704 1650.96 14.832 1651.392 20.208L1645.536 20.256C1645.056 18.048 1643.712 16.032 1641.072 16.032 1637.664 16.032 1635.504 18.816 1635.504 23.616 1635.504 28.512 1637.76 31.488 1641.168 31.488 1643.856 31.488 1645.248 29.184 1645.632 27.312L1651.296 27.312C1650.912 32.592 1646.88 36.48 1640.976 36.48 1633.968 36.48 1628.976 31.296 1628.976 23.712 1628.976 16.032 1633.92 10.704 1640.976 10.704zM1661.568 25.2C1661.52 29.04 1663.488 31.392 1666.8 31.392 1669.2 31.392 1670.976 30.48 1671.84 28.128L1678.128 28.128C1677.168 33.504 1672.176 36.48 1666.992 36.48 1659.648 36.48 1654.608 31.584 1654.608 23.856 1654.608 16.416 1659.024 10.704 1666.608 10.704 1674.192 10.704 1678.176 15.84 1678.176 23.28L1678.176 25.2 1661.568 25.2zM1661.52 21.024L1671.648 21.024C1671.648 18 1669.968 15.6 1666.608 15.6 1663.392 15.6 1661.52 18.288 1661.52 21.024zM1708.032 36.48C1701.024 36.48 1693.968 33.216 1693.2 26.256L1700.496 26.112C1701.168 29.232 1704.144 30.96 1707.984 30.96 1711.92 30.96 1715.136 29.568 1715.136 26.592 1715.136 24 1712.544 22.8 1709.136 22.128L1702.992 20.928C1697.664 19.92 1694.304 16.848 1694.256 11.472 1694.16 4.944 1700.16.864 1707.888.864 1716.192.864 1721.376 5.856 1721.952 11.28L1714.848 11.376C1714.368 7.776 1711.68 6.432 1707.984 6.432 1704.192 6.432 1701.744 8.16 1701.744 10.656 1701.744 12.72 1702.848 13.872 1706.64 14.688L1712.64 15.936C1721.28 17.568 1722.336 22.992 1722.336 26.592 1722.336 32.16 1716.576 36.48 1708.032 36.48zM1735.152 36.48C1730.4 36.48 1726.752 33.744 1726.752 28.896 1726.752 23.472 1730.688 20.592 1739.472 20.496L1742.544 20.448 1742.544 18.96C1742.544 16.608 1741.056 15.408 1738.416 15.408 1736.4 15.456 1734.288 16.368 1733.568 18.576L1727.76 18.576C1728 13.44 1732.56 10.704 1738.752 10.704 1746.336 10.704 1749.264 13.824 1749.264 18.528L1749.264 36 1743.408 36 1742.832 31.776C1741.152 35.376 1738.608 36.48 1735.152 36.48zM1737.504 31.872C1740.048 31.872 1742.544 29.856 1742.544 27.696L1742.544 24.048 1740.048 24.096C1736.544 24.144 1733.424 25.152 1733.424 28.176 1733.424 30.528 1735.2 31.872 1737.504 31.872zM1755.456 36L1755.456 11.184 1762.368 11.184 1762.368 14.4C1763.856 12.576 1765.632 10.944 1769.568 10.944 1774.128 10.944 1778.256 14.256 1778.256 19.44L1778.256 36 1771.248 36 1771.248 20.304C1771.248 17.856 1769.424 16.464 1767.12 16.464 1764.768 16.464 1762.464 17.664 1762.464 19.92L1762.464 36 1755.456 36zM1793.952 36.48C1788.816 36.48 1783.584 34.224 1782.72 28.512L1788.624 28.512C1789.392 31.008 1791.552 31.68 1794.048 31.68 1796.88 31.68 1798.512 30.672 1798.512 29.088 1798.512 27.648 1797.168 27.024 1795.152 26.544L1790.784 25.632C1786.416 24.72 1783.536 22.656 1783.488 18.576 1783.44 13.872 1787.712 10.704 1794 10.704 1800.24 10.704 1804.224 13.968 1804.176 18.384L1798.32 18.384C1797.936 16.272 1796.064 15.312 1793.808 15.312 1791.792 15.312 1789.632 15.936 1789.632 18.048 1789.632 19.344 1790.88 20.016 1793.616 20.544L1797.648 21.456C1803.264 22.848 1804.464 26.448 1804.464 28.704 1804.464 33.792 1799.76 36.48 1793.952 36.48zM1820.4 36L1820.4 1.296 1833.168 1.296C1840.752 1.296 1846.464 5.328 1846.464 12.672 1846.464 19.584 1841.568 23.616 1834.08 23.616L1827.456 23.616 1827.456 36 1820.4 36zM1827.408 18.192L1833.888 18.192C1837.392 18.192 1839.888 15.648 1839.888 12.288 1839.888 8.832 1837.2 6.672 1833.792 6.672L1827.408 6.672 1827.408 18.192zM1851.168 36L1851.168 11.184 1857.936 11.184 1857.936 17.28C1859.328 13.68 1862.448 10.704 1866.624 10.704L1866.672 17.328C1860.528 16.848 1858.176 19.872 1858.176 22.704L1858.176 36 1851.168 36zM1881.168 36.48C1873.728 36.48 1869.168 31.248 1869.168 23.76 1869.168 15.984 1874.016 10.704 1881.216 10.704 1888.704 10.704 1893.168 16.176 1893.168 23.712 1893.168 31.2 1888.608 36.48 1881.168 36.48zM1881.216 31.248C1885.104 31.248 1886.352 27.36 1886.352 23.52 1886.352 19.584 1885.056 15.84 1881.216 15.84 1877.328 15.84 1876.032 19.584 1876.032 23.52 1876.032 27.36 1877.328 31.248 1881.216 31.248z"/>
  </g>
</svg>
