<svg width="900" height="180" viewBox="0 0 900 180" fill="none" xmlns="http://www.w3.org/2000/svg">
  <circle cx="90" cy="90" r="90" fill="#000000"/>
  <path d="M122.396 85.0197V97.3806C122.396 98.3111 121.642 99.0662 120.71 99.0662H97.8618V121.914C97.8618 122.846 97.1067 123.6 96.1762 123.6H83.8154C82.8854 123.6 82.1298 122.846 82.1298 121.914V99.0662H59.2813C58.35 99.0662 57.5957 98.3111 57.5957 97.3806V85.0197C57.5957 84.089 58.35 83.3341 59.2813 83.3341H82.1298V60.4856C82.1298 59.554 82.8852 58.8 83.8154 58.8H96.1762C97.1067 58.8 97.8618 59.554 97.8618 60.4856V83.3341H120.71C121.642 83.3341 122.396 84.089 122.396 85.0197Z" fill="#FFFFFF"/>
  <circle cx="450" cy="90" r="90" fill="#a9aeb1"/>
  <path fill-rule="evenodd" clip-rule="evenodd" d="M426.49 108.977L426.489 108.978L439.628 122.117L439.629 122.116L439.63 122.117L452.769 108.978L452.768 108.977L487.406 74.3389L474.267 61.2L439.629 95.838L425.938 82.1466L412.799 95.2856L426.49 108.977Z" fill="#2E2E2E"/>
  <circle cx="630" cy="90" r="90" fill="#dfe1e2"/>
  <path d="M663.602 117.6L600.65 117.6L663.602 54.6477L663.602 117.6Z" fill="#2E2E2E"/>
  <path d="M595.199 112.153L595.199 49.2004L626.675 80.6765L595.199 112.153Z" fill="#2E2E2E"/>
  <circle cx="810" cy="90" r="90" fill="#FFFFFF"/>
  <path d="M828.665 79.5251L828.665 101.478L798.405 101.478L798.405 79.5251L828.665 79.5251Z" fill="#2E2E2E"/>
  <path d="M773.998 103.853L795.951 103.853L795.951 125.806L773.998 125.806L773.998 103.853Z" fill="#2E2E2E"/>
  <path d="M844.687 55.2L844.687 125.806L822.733 125.806L822.733 55.2L844.687 55.2Z" fill="#2E2E2E"/>
  <circle cx="270" cy="90" r="90" fill="#71767a"/>
  <path fill-rule="evenodd" clip-rule="evenodd" d="M273.355 77.3082L241.203 109.461L251.744 120.002L283.894 87.8525V105.769H298.803V62.3999H283.894L255.43 62.3999V77.3082H273.355Z" fill="#2E2E2E"/>
</svg>
