<svg width="1400" height="144" viewBox="0 0 1400 144" fill="none" xmlns="http://www.w3.org/2000/svg">
<circle cx="16" cy="36" r="36" fill="#E41D3D"/>
<path d="M28.96 34.0079V38.9522C28.96 39.3244 28.6585 39.6265 28.2858 39.6265H19.1465V48.7658C19.1465 49.1385 18.8445 49.44 18.4723 49.44H13.5279C13.1559 49.44 12.8537 49.1384 12.8537 48.7658V39.6265H3.71427C3.34177 39.6265 3.04004 39.3244 3.04004 38.9522V34.0079C3.04004 33.6356 3.34177 33.3336 3.71427 33.3336H12.8537V24.1943C12.8537 23.8216 13.1558 23.52 13.5279 23.52H18.4723C18.8445 23.52 19.1465 23.8216 19.1465 24.1943V33.3336H28.2858C28.6585 33.3336 28.96 33.6356 28.96 34.0079Z" fill="#2E2E2E"/>
<circle cx="94" cy="108" r="36" fill="#E41D3D"/>
<path d="M106.96 106.008V110.952C106.96 111.324 106.658 111.626 106.286 111.626H97.1465V120.766C97.1465 121.139 96.8445 121.44 96.4723 121.44H91.5279C91.1559 121.44 90.8537 121.138 90.8537 120.766V111.626H81.7143C81.3418 111.626 81.04 111.324 81.04 110.952V106.008C81.04 105.636 81.3418 105.334 81.7143 105.334H90.8537V96.1943C90.8537 95.8216 91.1558 95.52 91.5279 95.52H96.4723C96.8445 95.52 97.1465 95.8216 97.1465 96.1943V105.334H106.286C106.659 105.334 106.96 105.636 106.96 106.008Z" fill="#2E2E2E"/>
<circle cx="736" cy="36" r="36" fill="#E41D3D"/>
<path d="M748.96 34.0079V38.9522C748.96 39.3244 748.658 39.6265 748.286 39.6265H739.146V48.7658C739.146 49.1385 738.844 49.44 738.472 49.44H733.528C733.156 49.44 732.854 49.1384 732.854 48.7658V39.6265H723.714C723.342 39.6265 723.04 39.3244 723.04 38.9522V34.0079C723.04 33.6356 723.342 33.3336 723.714 33.3336H732.854V24.1943C732.854 23.8216 733.156 23.52 733.528 23.52H738.472C738.844 23.52 739.146 23.8216 739.146 24.1943V33.3336H748.286C748.659 33.3336 748.96 33.6356 748.96 34.0079Z" fill="#2E2E2E"/>
<circle cx="814" cy="108" r="36" fill="#E41D3D"/>
<path d="M826.96 106.008V110.952C826.96 111.324 826.658 111.626 826.286 111.626H817.146V120.766C817.146 121.139 816.844 121.44 816.472 121.44H811.528C811.156 121.44 810.854 121.138 810.854 120.766V111.626H801.714C801.342 111.626 801.04 111.324 801.04 110.952V106.008C801.04 105.636 801.342 105.334 801.714 105.334H810.854V96.1943C810.854 95.8216 811.156 95.52 811.528 95.52H816.472C816.844 95.52 817.146 95.8216 817.146 96.1943V105.334H826.286C826.659 105.334 826.96 105.636 826.96 106.008Z" fill="#2E2E2E"/>
<circle cx="454" cy="108" r="36" fill="#E41D3D"/>
<path d="M466.96 106.008V110.952C466.96 111.324 466.658 111.626 466.286 111.626H457.146V120.766C457.146 121.139 456.844 121.44 456.472 121.44H451.528C451.156 121.44 450.854 121.138 450.854 120.766V111.626H441.714C441.342 111.626 441.04 111.324 441.04 110.952V106.008C441.04 105.636 441.342 105.334 441.714 105.334H450.854V96.1943C450.854 95.8216 451.156 95.52 451.528 95.52H456.472C456.844 95.52 457.146 95.8216 457.146 96.1943V105.334H466.286C466.659 105.334 466.96 105.636 466.96 106.008Z" fill="#2E2E2E"/>
<circle cx="1096" cy="36" r="36" fill="#E41D3D"/>
<path d="M1108.96 34.0079V38.9522C1108.96 39.3244 1108.66 39.6265 1108.29 39.6265H1099.15V48.7658C1099.15 49.1385 1098.84 49.44 1098.47 49.44H1093.53C1093.16 49.44 1092.85 49.1384 1092.85 48.7658V39.6265H1083.71C1083.34 39.6265 1083.04 39.3244 1083.04 38.9522V34.0079C1083.04 33.6356 1083.34 33.3336 1083.71 33.3336H1092.85V24.1943C1092.85 23.8216 1093.16 23.52 1093.53 23.52H1098.47C1098.84 23.52 1099.15 23.8216 1099.15 24.1943V33.3336H1108.29C1108.66 33.3336 1108.96 33.6356 1108.96 34.0079Z" fill="#2E2E2E"/>
<circle cx="1174" cy="108" r="36" fill="#E41D3D"/>
<path d="M1186.96 106.008V110.952C1186.96 111.324 1186.66 111.626 1186.29 111.626H1177.15V120.766C1177.15 121.139 1176.84 121.44 1176.47 121.44H1171.53C1171.16 121.44 1170.85 121.138 1170.85 120.766V111.626H1161.71C1161.34 111.626 1161.04 111.324 1161.04 110.952V106.008C1161.04 105.636 1161.34 105.334 1161.71 105.334H1170.85V96.1943C1170.85 95.8216 1171.16 95.52 1171.53 95.52H1176.47C1176.84 95.52 1177.15 95.8216 1177.15 96.1943V105.334H1186.29C1186.66 105.334 1186.96 105.636 1186.96 106.008Z" fill="#2E2E2E"/>
<circle cx="160" cy="36" r="36" fill="#74D7AD"/>
<path fill-rule="evenodd" clip-rule="evenodd" d="M150.597 43.5911L150.597 43.5912L155.853 48.8468L155.853 48.8467L155.853 48.8469L161.108 43.5913L161.108 43.5911L174.964 29.7356L169.708 24.48L155.853 38.3356L150.376 32.8587L145.12 38.1143L150.597 43.5911Z" fill="#2E2E2E"/>
<circle cx="238" cy="108" r="36" fill="#74D7AD"/>
<path fill-rule="evenodd" clip-rule="evenodd" d="M228.597 115.591L228.597 115.591L233.853 120.847L233.853 120.847L233.853 120.847L239.108 115.591L239.108 115.591L252.964 101.736L247.708 96.48L233.853 110.336L228.376 104.859L223.12 110.114L228.597 115.591Z" fill="#2E2E2E"/>
<circle cx="880" cy="36" r="36" fill="#74D7AD"/>
<path fill-rule="evenodd" clip-rule="evenodd" d="M870.597 43.5911L870.597 43.5912L875.852 48.8468L875.852 48.8467L875.853 48.8469L881.108 43.5913L881.108 43.5911L894.964 29.7356L889.708 24.48L875.852 38.3356L870.376 32.8587L865.12 38.1143L870.597 43.5911Z" fill="#2E2E2E"/>
<circle cx="958" cy="108" r="36" fill="#74D7AD"/>
<path fill-rule="evenodd" clip-rule="evenodd" d="M948.597 115.591L948.597 115.591L953.852 120.847L953.852 120.847L953.853 120.847L959.108 115.591L959.108 115.591L972.964 101.736L967.708 96.48L953.852 110.336L948.376 104.859L943.12 110.114L948.597 115.591Z" fill="#2E2E2E"/>
<circle cx="598" cy="108" r="36" fill="#74D7AD"/>
<path fill-rule="evenodd" clip-rule="evenodd" d="M588.597 115.591L588.597 115.591L593.853 120.847L593.853 120.847L593.853 120.847L599.108 115.591L599.108 115.591L612.964 101.736L607.708 96.48L593.853 110.336L588.376 104.859L583.12 110.114L588.597 115.591Z" fill="#2E2E2E"/>
<circle cx="1240" cy="36" r="36" fill="#74D7AD"/>
<path fill-rule="evenodd" clip-rule="evenodd" d="M1230.6 43.5911L1230.6 43.5912L1235.85 48.8468L1235.85 48.8467L1235.85 48.8469L1241.11 43.5913L1241.11 43.5911L1254.96 29.7356L1249.71 24.48L1235.85 38.3356L1230.38 32.8587L1225.12 38.1143L1230.6 43.5911Z" fill="#2E2E2E"/>
<circle cx="1318" cy="108" r="36" fill="#74D7AD"/>
<path fill-rule="evenodd" clip-rule="evenodd" d="M1308.6 115.591L1308.6 115.591L1313.85 120.847L1313.85 120.847L1313.85 120.847L1319.11 115.591L1319.11 115.591L1332.96 101.736L1327.71 96.48L1313.85 110.336L1308.38 104.859L1303.12 110.114L1308.6 115.591Z" fill="#2E2E2E"/>
<circle cx="232" cy="36" r="36" fill="#F2B600"/>
<path d="M245.44 47.0398L220.259 47.0398L245.44 21.8589L245.44 47.0398Z" fill="#2E2E2E"/>
<path d="M218.08 44.8608L218.08 19.68L230.67 32.2704L218.08 44.8608Z" fill="#2E2E2E"/>
<circle cx="310" cy="108" r="36" fill="#F2B600"/>
<path d="M323.44 119.04L298.259 119.04L323.44 93.8589L323.44 119.04Z" fill="#2E2E2E"/>
<path d="M296.08 116.861L296.08 91.68L308.67 104.27L296.08 116.861Z" fill="#2E2E2E"/>
<circle cx="952" cy="36" r="36" fill="#F2B600"/>
<path d="M965.44 47.0398L940.259 47.0398L965.44 21.8589L965.44 47.0398Z" fill="#2E2E2E"/>
<path d="M938.08 44.8608L938.08 19.68L950.671 32.2704L938.08 44.8608Z" fill="#2E2E2E"/>
<circle cx="1030" cy="108" r="36" fill="#F2B600"/>
<path d="M1043.44 119.04L1018.26 119.04L1043.44 93.8589L1043.44 119.04Z" fill="#2E2E2E"/>
<path d="M1016.08 116.861L1016.08 91.68L1028.67 104.27L1016.08 116.861Z" fill="#2E2E2E"/>
<circle cx="670" cy="108" r="36" fill="#F2B600"/>
<path d="M683.44 119.04L658.259 119.04L683.44 93.8589L683.44 119.04Z" fill="#2E2E2E"/>
<path d="M656.08 116.861L656.08 91.68L668.671 104.27L656.08 116.861Z" fill="#2E2E2E"/>
<circle cx="1312" cy="36" r="36" fill="#F2B600"/>
<path d="M1325.44 47.0398L1300.26 47.0398L1325.44 21.8589L1325.44 47.0398Z" fill="#2E2E2E"/>
<path d="M1298.08 44.8608L1298.08 19.68L1310.67 32.2704L1298.08 44.8608Z" fill="#2E2E2E"/>
<circle cx="1390" cy="108" r="36" fill="#F2B600"/>
<path d="M1403.44 119.04L1378.26 119.04L1403.44 93.8589L1403.44 119.04Z" fill="#2E2E2E"/>
<path d="M1376.08 116.861L1376.08 91.68L1388.67 104.27L1376.08 116.861Z" fill="#2E2E2E"/>
<circle cx="382" cy="108" r="36" fill="#F8A897"/>
<path d="M389.467 103.81L389.467 112.591L377.363 112.591L377.363 103.81L389.467 103.81Z" fill="#2E2E2E"/>
<path d="M367.6 113.541L376.382 113.541L376.382 122.322L367.6 122.322L367.6 113.541Z" fill="#2E2E2E"/>
<path d="M395.875 94.08L395.875 122.322L387.094 122.322L387.094 94.08L395.875 94.08Z" fill="#2E2E2E"/>
<circle cx="1024" cy="36" r="36" fill="#F8A897"/>
<path d="M1031.47 31.8101L1031.47 40.5913L1019.36 40.5913L1019.36 31.8101L1031.47 31.8101Z" fill="#2E2E2E"/>
<path d="M1009.6 41.5411L1018.38 41.5411L1018.38 50.3223L1009.6 50.3223L1009.6 41.5411Z" fill="#2E2E2E"/>
<path d="M1037.88 22.08L1037.88 50.3223L1029.09 50.3223L1029.09 22.08L1037.88 22.08Z" fill="#2E2E2E"/>
<circle cx="1102" cy="108" r="36" fill="#F8A897"/>
<path d="M1109.47 103.81L1109.47 112.591L1097.36 112.591L1097.36 103.81L1109.47 103.81Z" fill="#2E2E2E"/>
<path d="M1087.6 113.541L1096.38 113.541L1096.38 122.322L1087.6 122.322L1087.6 113.541Z" fill="#2E2E2E"/>
<path d="M1115.88 94.08L1115.88 122.322L1107.09 122.322L1107.09 94.08L1115.88 94.08Z" fill="#2E2E2E"/>
<circle cx="664" cy="36" r="36" fill="#F8A897"/>
<path d="M671.467 31.8101L671.467 40.5913L659.363 40.5913L659.363 31.8101L671.467 31.8101Z" fill="#2E2E2E"/>
<path d="M649.6 41.5411L658.382 41.5411L658.382 50.3223L649.6 50.3223L649.6 41.5411Z" fill="#2E2E2E"/>
<path d="M677.875 22.08L677.875 50.3223L669.094 50.3223L669.094 22.08L677.875 22.08Z" fill="#2E2E2E"/>
<circle cx="742" cy="108" r="36" fill="#F8A897"/>
<path d="M749.467 103.81L749.467 112.591L737.363 112.591L737.363 103.81L749.467 103.81Z" fill="#2E2E2E"/>
<path d="M727.6 113.541L736.382 113.541L736.382 122.322L727.6 122.322L727.6 113.541Z" fill="#2E2E2E"/>
<path d="M755.875 94.08L755.875 122.322L747.094 122.322L747.094 94.08L755.875 94.08Z" fill="#2E2E2E"/>
<circle cx="1384" cy="36" r="36" fill="#F8A897"/>
<path d="M1391.47 31.8101L1391.47 40.5913L1379.36 40.5913L1379.36 31.8101L1391.47 31.8101Z" fill="#2E2E2E"/>
<path d="M1369.6 41.5411L1378.38 41.5411L1378.38 50.3223L1369.6 50.3223L1369.6 41.5411Z" fill="#2E2E2E"/>
<path d="M1397.88 22.08L1397.88 50.3223L1389.09 50.3223L1389.09 22.08L1397.88 22.08Z" fill="#2E2E2E"/>
<circle cx="22" cy="108" r="36" fill="#F8A897"/>
<path d="M29.467 103.81L29.467 112.591L17.3632 112.591L17.3632 103.81L29.467 103.81Z" fill="#2E2E2E"/>
<path d="M7.60034 113.541L16.3816 113.541L16.3816 122.322L7.60034 122.322L7.60034 113.541Z" fill="#2E2E2E"/>
<path d="M35.8752 94.08L35.8752 122.322L27.094 122.322L27.094 94.08L35.8752 94.08Z" fill="#2E2E2E"/>
<circle cx="88" cy="36" r="36" fill="#2672DE"/>
<path fill-rule="evenodd" clip-rule="evenodd" d="M82.1715 24.96H93.5565H99.5193H99.5198L99.5198 42.3077H93.5565V35.1406L80.6962 48.0009L76.4795 43.7843L89.3405 30.9233H82.1715V24.96Z" fill="#2E2E2E"/>
<circle cx="166" cy="108" r="36" fill="#2672DE"/>
<path fill-rule="evenodd" clip-rule="evenodd" d="M160.172 96.96H171.557H177.519H177.52L177.52 114.308H171.557V107.141L158.696 120.001L154.479 115.784L167.34 102.923H160.172V96.96Z" fill="#2E2E2E"/>
<circle cx="808" cy="36" r="36" fill="#2672DE"/>
<path fill-rule="evenodd" clip-rule="evenodd" d="M802.172 24.96H813.557H819.519H819.52L819.52 42.3077H813.557V35.1406L800.696 48.0009L796.479 43.7843L809.34 30.9233H802.172V24.96Z" fill="#2E2E2E"/>
<circle cx="886" cy="108" r="36" fill="#2672DE"/>
<path fill-rule="evenodd" clip-rule="evenodd" d="M880.172 96.96H891.557H897.519H897.52L897.52 114.308H891.557V107.141L878.696 120.001L874.479 115.784L887.34 102.923H880.172V96.96Z" fill="#2E2E2E"/>
<circle cx="376" cy="36" r="36" fill="#E41D3D"/>
<path d="M388.96 34.0079V38.9522C388.96 39.3244 388.658 39.6265 388.286 39.6265H379.146V48.7658C379.146 49.1385 378.844 49.44 378.472 49.44H373.528C373.156 49.44 372.854 49.1384 372.854 48.7658V39.6265H363.714C363.342 39.6265 363.04 39.3244 363.04 38.9522V34.0079C363.04 33.6356 363.342 33.3336 363.714 33.3336H372.854V24.1943C372.854 23.8216 373.156 23.52 373.528 23.52H378.472C378.844 23.52 379.146 23.8216 379.146 24.1943V33.3336H388.286C388.659 33.3336 388.96 33.6356 388.96 34.0079Z" fill="#2E2E2E"/>
<circle cx="520" cy="36" r="36" fill="#74D7AD"/>
<path fill-rule="evenodd" clip-rule="evenodd" d="M510.597 43.5911L510.597 43.5912L515.853 48.8468L515.853 48.8467L515.853 48.8469L521.108 43.5913L521.108 43.5911L534.964 29.7356L529.708 24.48L515.853 38.3356L510.376 32.8587L505.12 38.1143L510.597 43.5911Z" fill="#2E2E2E"/>
<circle cx="592" cy="36" r="36" fill="#F2B600"/>
<path d="M605.44 47.0398L580.259 47.0398L605.44 21.8589L605.44 47.0398Z" fill="#2E2E2E"/>
<path d="M578.08 44.8608L578.08 19.68L590.67 32.2704L578.08 44.8608Z" fill="#2E2E2E"/>
<circle cx="448" cy="36" r="36" fill="#2672DE"/>
<path fill-rule="evenodd" clip-rule="evenodd" d="M442.172 24.96H453.557H459.519H459.52L459.52 42.3077H453.557V35.1406L440.696 48.0009L436.479 43.7843L449.34 30.9233H442.172V24.96Z" fill="#2E2E2E"/>
<circle cx="304" cy="36" r="36" fill="#F8A897"/>
<path d="M311.467 31.8101L311.467 40.5913L299.363 40.5913L299.363 31.8101L311.467 31.8101Z" fill="#2E2E2E"/>
<path d="M289.6 41.5411L298.382 41.5411L298.382 50.3223L289.6 50.3223L289.6 41.5411Z" fill="#2E2E2E"/>
<path d="M317.875 22.08L317.875 50.3223L309.094 50.3223L309.094 22.08L317.875 22.08Z" fill="#2E2E2E"/>
<circle cx="526" cy="108" r="36" fill="#2672DE"/>
<path fill-rule="evenodd" clip-rule="evenodd" d="M520.172 96.96H531.557H537.519H537.52L537.52 114.308H531.557V107.141L518.696 120.001L514.479 115.784L527.34 102.923H520.172V96.96Z" fill="#2E2E2E"/>
<circle cx="1168" cy="36" r="36" fill="#2672DE"/>
<path fill-rule="evenodd" clip-rule="evenodd" d="M1162.17 24.96H1173.56H1179.52H1179.52L1179.52 42.3077H1173.56V35.1406L1160.7 48.0009L1156.48 43.7843L1169.34 30.9233H1162.17V24.96Z" fill="#2E2E2E"/>
<circle cx="1246" cy="108" r="36" fill="#2672DE"/>
<path fill-rule="evenodd" clip-rule="evenodd" d="M1240.17 96.96H1251.56H1257.52H1257.52L1257.52 114.308H1251.56V107.141L1238.7 120.001L1234.48 115.784L1247.34 102.923H1240.17V96.96Z" fill="#2E2E2E"/>
</svg>
