<svg width="360" height="96" viewBox="0 0 360 96" fill="none" xmlns="http://www.w3.org/2000/svg">
<circle cx="74" cy="24" r="24" fill="#E41D3D"/>
<path d="M82.6401 22.672V25.9682C82.6401 26.2163 82.4391 26.4177 82.1906 26.4177H76.0977V32.5106C76.0977 32.759 75.8964 32.9601 75.6483 32.9601H72.352C72.104 32.9601 71.9025 32.759 71.9025 32.5106V26.4177H65.8096C65.5613 26.4177 65.3601 26.2163 65.3601 25.9682V22.672C65.3601 22.4238 65.5613 22.2225 65.8096 22.2225H71.9025V16.1295C71.9025 15.8811 72.104 15.6801 72.352 15.6801H75.6483C75.8964 15.6801 76.0977 15.8811 76.0977 16.1295V22.2225H82.1906C82.4391 22.2225 82.6401 22.4238 82.6401 22.672Z" fill="#2E2E2E"/>
<circle cx="170" cy="24" r="24" fill="#74D7AD"/>
<path fill-rule="evenodd" clip-rule="evenodd" d="M163.731 29.0607L163.731 29.0609L167.235 32.5646L167.235 32.5644L167.235 32.5647L170.739 29.0609L170.739 29.0607L179.976 19.8238L176.472 16.3201L167.235 25.5569L163.584 21.9059L160.08 25.4096L163.731 29.0607Z" fill="#2E2E2E"/>
<circle cx="218" cy="24" r="24" fill="#F2B600"/>
<path d="M226.96 31.36L210.173 31.36L226.96 14.5728L226.96 31.36Z" fill="#2E2E2E"/>
<path d="M208.721 29.9073L208.721 13.1201L217.114 21.5137L208.721 29.9073Z" fill="#2E2E2E"/>
<circle cx="122" cy="24" r="24" fill="#2672DE"/>
<path fill-rule="evenodd" clip-rule="evenodd" d="M118.115 16.6399H129.68V16.6399L129.68 16.6399V28.2051H125.705V23.4269L117.131 32.0006L114.32 29.1895L122.894 20.6154H118.115V16.6399Z" fill="#2E2E2E"/>
<circle cx="266" cy="24" r="24" fill="#F8A897"/>
<path d="M270.979 21.2067L270.979 27.0608L262.909 27.0608L262.909 21.2067L270.979 21.2067Z" fill="#2E2E2E"/>
<path d="M256.4 27.6941L262.255 27.6941L262.255 33.5482L256.4 33.5482L256.4 27.6941Z" fill="#2E2E2E"/>
<path d="M275.251 14.72L275.251 33.5482L269.397 33.5482L269.397 14.72L275.251 14.72Z" fill="#2E2E2E"/>
<circle cx="74" cy="24" r="24" fill="#E41D3D"/>
<path d="M82.6401 22.672V25.9682C82.6401 26.2163 82.4391 26.4177 82.1906 26.4177H76.0977V32.5106C76.0977 32.759 75.8964 32.9601 75.6483 32.9601H72.352C72.104 32.9601 71.9025 32.759 71.9025 32.5106V26.4177H65.8096C65.5613 26.4177 65.3601 26.2163 65.3601 25.9682V22.672C65.3601 22.4238 65.5613 22.2225 65.8096 22.2225H71.9025V16.1295C71.9025 15.8811 72.104 15.6801 72.352 15.6801H75.6483C75.8964 15.6801 76.0977 15.8811 76.0977 16.1295V22.2225H82.1906C82.4391 22.2225 82.6401 22.4238 82.6401 22.672Z" fill="#2E2E2E"/>
<circle cx="170" cy="24" r="24" fill="#74D7AD"/>
<path fill-rule="evenodd" clip-rule="evenodd" d="M163.731 29.0607L163.731 29.0609L167.235 32.5646L167.235 32.5644L167.235 32.5647L170.739 29.0609L170.739 29.0607L179.976 19.8238L176.472 16.3201L167.235 25.5569L163.584 21.9059L160.08 25.4096L163.731 29.0607Z" fill="#2E2E2E"/>
<circle cx="218" cy="24" r="24" fill="#F2B600"/>
<path d="M226.96 31.36L210.173 31.36L226.96 14.5728L226.96 31.36Z" fill="#2E2E2E"/>
<path d="M208.721 29.9073L208.721 13.1201L217.114 21.5137L208.721 29.9073Z" fill="#2E2E2E"/>
<circle cx="122" cy="24" r="24" fill="#2672DE"/>
<path fill-rule="evenodd" clip-rule="evenodd" d="M118.115 16.6399H129.68V16.6399L129.68 16.6399V28.2051H125.705V23.4269L117.131 32.0006L114.32 29.1895L122.894 20.6154H118.115V16.6399Z" fill="#2E2E2E"/>
<circle cx="266" cy="24" r="24" fill="#F8A897"/>
<path d="M270.979 21.2067L270.979 27.0608L262.909 27.0608L262.909 21.2067L270.979 21.2067Z" fill="#2E2E2E"/>
<path d="M256.4 27.6941L262.255 27.6941L262.255 33.5482L256.4 33.5482L256.4 27.6941Z" fill="#2E2E2E"/>
<path d="M275.251 14.72L275.251 33.5482L269.397 33.5482L269.397 14.72L275.251 14.72Z" fill="#2E2E2E"/>
<circle cx="-22" cy="24" r="24" fill="#F2B600"/>
<circle cx="26" cy="24" r="24" fill="#F8A897"/>
<path d="M30.9785 21.2067L30.9785 27.0608L22.9093 27.0608L22.9093 21.2067L30.9785 21.2067Z" fill="#2E2E2E"/>
<path d="M16.4004 27.6941L22.2545 27.6941L22.2545 33.5482L16.4004 33.5482L16.4004 27.6941Z" fill="#2E2E2E"/>
<path d="M35.2507 14.72L35.2507 33.5482L29.3966 33.5482L29.3966 14.72L35.2507 14.72Z" fill="#2E2E2E"/>
<circle cx="20" cy="72" r="24" fill="#E41D3D"/>
<path d="M28.6401 70.672V73.9682C28.6401 74.2163 28.4391 74.4177 28.1906 74.4177H22.0977V80.5106C22.0977 80.759 21.8964 80.9601 21.6483 80.9601H18.352C18.104 80.9601 17.9025 80.759 17.9025 80.5106V74.4177H11.8096C11.5613 74.4177 11.3601 74.2163 11.3601 73.9682V70.672C11.3601 70.4238 11.5613 70.2225 11.8096 70.2225H17.9025V64.1295C17.9025 63.8811 18.104 63.6801 18.352 63.6801H21.6483C21.8964 63.6801 22.0977 63.8811 22.0977 64.1295V70.2225H28.1906C28.4391 70.2225 28.6401 70.4238 28.6401 70.672Z" fill="#2E2E2E"/>
<circle cx="116" cy="72" r="24" fill="#74D7AD"/>
<path fill-rule="evenodd" clip-rule="evenodd" d="M109.731 77.0607L109.731 77.0609L113.235 80.5646L113.235 80.5644L113.235 80.5646L116.739 77.0609L116.739 77.0607L125.976 67.8238L122.472 64.3201L113.235 73.5569L109.584 69.9058L106.08 73.4096L109.731 77.0607Z" fill="#2E2E2E"/>
<circle cx="164" cy="72" r="24" fill="#F2B600"/>
<path d="M172.96 79.36L156.173 79.36L172.96 62.5728L172.96 79.36Z" fill="#2E2E2E"/>
<path d="M154.721 77.9073L154.721 61.1201L163.114 69.5137L154.721 77.9073Z" fill="#2E2E2E"/>
<circle cx="68" cy="72" r="24" fill="#2672DE"/>
<path fill-rule="evenodd" clip-rule="evenodd" d="M64.115 64.6399H75.6802V64.6399L75.6804 64.6399V76.2051H71.7048V71.4269L63.1312 80.0006L60.3201 77.1895L68.8941 68.6154H64.115V64.6399Z" fill="#2E2E2E"/>
<circle cx="212" cy="72" r="24" fill="#F8A897"/>
<path d="M216.979 69.2067L216.979 75.0608L208.909 75.0608L208.909 69.2067L216.979 69.2067Z" fill="#2E2E2E"/>
<path d="M202.4 75.6941L208.255 75.6941L208.255 81.5482L202.4 81.5482L202.4 75.6941Z" fill="#2E2E2E"/>
<path d="M221.251 62.72L221.251 81.5482L215.397 81.5482L215.397 62.72L221.251 62.72Z" fill="#2E2E2E"/>
<circle cx="260" cy="72" r="24" fill="#E41D3D"/>
<path d="M268.64 70.672V73.9682C268.64 74.2163 268.439 74.4177 268.191 74.4177H262.098V80.5106C262.098 80.759 261.896 80.9601 261.648 80.9601H258.352C258.104 80.9601 257.903 80.759 257.903 80.5106V74.4177H251.81C251.561 74.4177 251.36 74.2163 251.36 73.9682V70.672C251.36 70.4238 251.561 70.2225 251.81 70.2225H257.903V64.1295C257.903 63.8811 258.104 63.6801 258.352 63.6801H261.648C261.896 63.6801 262.098 63.8811 262.098 64.1295V70.2225H268.191C268.439 70.2225 268.64 70.4238 268.64 70.672Z" fill="#2E2E2E"/>
<circle cx="356" cy="72" r="24" fill="#74D7AD"/>
<path fill-rule="evenodd" clip-rule="evenodd" d="M349.731 77.0606L349.731 77.0609L353.235 80.5646L353.235 80.5644L353.235 80.5646L356.739 77.0609L356.739 77.0607L365.976 67.8238L362.472 64.3201L353.235 73.5569L349.584 69.9058L346.08 73.4096L349.731 77.0606Z" fill="#2E2E2E"/>
<circle cx="308" cy="72" r="24" fill="#2672DE"/>
<path fill-rule="evenodd" clip-rule="evenodd" d="M304.115 64.6399H315.68V64.6399L315.68 64.6399V76.2051H311.705V71.4269L303.131 80.0006L300.32 77.1895L308.894 68.6154H304.115V64.6399Z" fill="#2E2E2E"/>
<circle cx="314" cy="24" r="24" fill="#E41D3D"/>
<path d="M322.64 22.672V25.9682C322.64 26.2163 322.439 26.4177 322.191 26.4177H316.098V32.5106C316.098 32.759 315.896 32.9601 315.648 32.9601H312.352C312.104 32.9601 311.903 32.759 311.903 32.5106V26.4177H305.81C305.561 26.4177 305.36 26.2163 305.36 25.9682V22.672C305.36 22.4238 305.561 22.2225 305.81 22.2225H311.903V16.1295C311.903 15.8811 312.104 15.6801 312.352 15.6801H315.648C315.896 15.6801 316.098 15.8811 316.098 16.1295V22.2225H322.191C322.439 22.2225 322.64 22.4238 322.64 22.672Z" fill="#2E2E2E"/>
<circle cx="362" cy="24" r="24" fill="#2672DE"/>
<path fill-rule="evenodd" clip-rule="evenodd" d="M358.115 16.6399H369.68V16.6399L369.68 16.6399V28.2051H365.705V23.4269L357.131 32.0006L354.32 29.1895L362.894 20.6154H358.115V16.6399Z" fill="#2E2E2E"/>
</svg>
