<svg width="60" height="60" viewBox="0 0 60 60" fill="none" xmlns="http://www.w3.org/2000/svg">
<circle cx="30" cy="30" r="30" fill="#2672DE"/>
<path d="M30 29.1875C32.5808 29.1875 34.8608 29.805 36.7133 30.6125C38.4233 31.3725 39.5 33.0825 39.5 34.935V37.5H20.5V34.9508C20.5 33.0825 21.5767 31.3725 23.2867 30.6283C25.1392 29.805 27.4192 29.1875 30 29.1875ZM17.3333 29.5833C19.075 29.5833 20.5 28.1583 20.5 26.4167C20.5 24.675 19.075 23.25 17.3333 23.25C15.5917 23.25 14.1667 24.675 14.1667 26.4167C14.1667 28.1583 15.5917 29.5833 17.3333 29.5833ZM19.1225 31.325C18.5367 31.23 17.9508 31.1667 17.3333 31.1667C15.7658 31.1667 14.2775 31.4992 12.9317 32.085C11.76 32.5917 11 33.7317 11 35.0142V37.5H18.125V34.9508C18.125 33.6367 18.4892 32.4017 19.1225 31.325ZM42.6667 29.5833C44.4083 29.5833 45.8333 28.1583 45.8333 26.4167C45.8333 24.675 44.4083 23.25 42.6667 23.25C40.925 23.25 39.5 24.675 39.5 26.4167C39.5 28.1583 40.925 29.5833 42.6667 29.5833ZM49 35.0142C49 33.7317 48.24 32.5917 47.0683 32.085C45.7225 31.4992 44.2342 31.1667 42.6667 31.1667C42.0492 31.1667 41.4633 31.23 40.8775 31.325C41.5108 32.4017 41.875 33.6367 41.875 34.9508V37.5H49V35.0142ZM30 18.5C32.6283 18.5 34.75 20.6217 34.75 23.25C34.75 25.8783 32.6283 28 30 28C27.3717 28 25.25 25.8783 25.25 23.25C25.25 20.6217 27.3717 18.5 30 18.5Z" fill="white"/>
</svg>
