<svg width="1200" height="180" viewBox="0 0 1180 180" fill="none" xmlns="http://www.w3.org/2000/svg">
<path fill-rule="evenodd" clip-rule="evenodd" d="M50.3704 0L29.6296 0V29.6296L0 29.6296L0 50.3704H29.6296V80H50.3704L50.3704 50.3704L80 50.3704V29.6296L50.3704 29.6296V0Z" fill="#EAECE9"/>
<path fill-rule="evenodd" clip-rule="evenodd" d="M50.3704 100H29.6296V129.63L0 129.63L0 150.37H29.6296V180H50.3704L50.3704 150.37H80V129.63L50.3704 129.63V100Z" fill="#EAECE9"/>
<path fill-rule="evenodd" clip-rule="evenodd" d="M450.37 0L429.63 0V29.6296L400 29.6296V50.3704H429.63V80H450.37V50.3704L480 50.3704V29.6296L450.37 29.6296V0Z" fill="#EAECE9"/>
<path fill-rule="evenodd" clip-rule="evenodd" d="M450.37 100H429.63V129.63L400 129.63V150.37H429.63V180H450.37V150.37H480V129.63L450.37 129.63V100Z" fill="#EAECE9"/>
<path fill-rule="evenodd" clip-rule="evenodd" d="M850.37 0L829.63 0V29.6296L800 29.6296V50.3704H829.63V80H850.37V50.3704L880 50.3704V29.6296L850.37 29.6296V0Z" fill="#2E2E2E"/>
<path fill-rule="evenodd" clip-rule="evenodd" d="M850.37 100H829.63V129.63L800 129.63V150.37H829.63V180H850.37V150.37H880V129.63L850.37 129.63V100Z" fill="#EAECE9"/>
<path fill-rule="evenodd" clip-rule="evenodd" d="M250.37 0L229.63 0V29.6296L200 29.6296V50.3704H229.63V80H250.37V50.3704L280 50.3704V29.6296L250.37 29.6296V0Z" fill="#EAECE9"/>
<path fill-rule="evenodd" clip-rule="evenodd" d="M250.37 100H229.63V129.63L200 129.63V150.37H229.63V180H250.37V150.37H280V129.63L250.37 129.63V100Z" fill="#2E2E2E"/>
<path fill-rule="evenodd" clip-rule="evenodd" d="M650.37 0L629.63 0V29.6296L600 29.6296V50.3704H629.63V80H650.37V50.3704L680 50.3704V29.6296L650.37 29.6296V0Z" fill="#2E2E2E"/>
<path fill-rule="evenodd" clip-rule="evenodd" d="M650.37 100H629.63V129.63L600 129.63V150.37H629.63V180H650.37V150.37H680V129.63L650.37 129.63V100Z" fill="#EAECE9"/>
<path fill-rule="evenodd" clip-rule="evenodd" d="M1050.37 0L1029.63 0V29.6296L1000 29.6296V50.3704H1029.63V80H1050.37V50.3704L1080 50.3704V29.6296L1050.37 29.6296V0Z" fill="#EAECE9"/>
<path fill-rule="evenodd" clip-rule="evenodd" d="M1050.37 100H1029.63V129.63L1000 129.63V150.37H1029.63V180H1050.37V150.37H1080V129.63L1050.37 129.63V100Z" fill="#EAECE9"/>
<path fill-rule="evenodd" clip-rule="evenodd" d="M150.37 0L129.63 0V29.6296L100 29.6296V50.3704H129.63V80H150.37V50.3704L180 50.3704V29.6296L150.37 29.6296V0Z" fill="#EAECE9"/>
<path fill-rule="evenodd" clip-rule="evenodd" d="M150.37 100H129.63V129.63L100 129.63V150.37H129.63V180H150.37V150.37H180V129.63L150.37 129.63V100Z" fill="#2E2E2E"/>
<path fill-rule="evenodd" clip-rule="evenodd" d="M550.37 0L529.63 0V29.6296L500 29.6296V50.3704H529.63V80H550.37V50.3704L580 50.3704V29.6296L550.37 29.6296V0Z" fill="#EAECE9"/>
<path fill-rule="evenodd" clip-rule="evenodd" d="M550.37 100H529.63V129.63L500 129.63V150.37H529.63V180H550.37V150.37H580V129.63L550.37 129.63V100Z" fill="#EAECE9"/>
<path fill-rule="evenodd" clip-rule="evenodd" d="M950.37 0L929.63 0V29.6296L900 29.6296V50.3704H929.63V80H950.37V50.3704L980 50.3704V29.6296L950.37 29.6296V0Z" fill="#2E2E2E"/>
<path fill-rule="evenodd" clip-rule="evenodd" d="M950.37 100H929.63V129.63L900 129.63V150.37H929.63V180H950.37V150.37H980V129.63L950.37 129.63V100Z" fill="#EAECE9"/>
<path fill-rule="evenodd" clip-rule="evenodd" d="M350.37 0L329.63 0V29.6296L300 29.6296V50.3704H329.63V80H350.37V50.3704L380 50.3704V29.6296L350.37 29.6296V0Z" fill="#EAECE9"/>
<path fill-rule="evenodd" clip-rule="evenodd" d="M350.37 100H329.63V129.63L300 129.63V150.37H329.63V180H350.37V150.37H380V129.63L350.37 129.63V100Z" fill="#2E2E2E"/>
<path fill-rule="evenodd" clip-rule="evenodd" d="M750.37 0L729.63 0V29.6296L700 29.6296V50.3704H729.63V80H750.37V50.3704L780 50.3704V29.6296L750.37 29.6296V0Z" fill="#2E2E2E"/>
<path fill-rule="evenodd" clip-rule="evenodd" d="M750.37 100H729.63V129.63L700 129.63V150.37H729.63V180H750.37V150.37H780V129.63L750.37 129.63V100Z" fill="#EAECE9"/>
<path fill-rule="evenodd" clip-rule="evenodd" d="M1150.37 0L1129.63 0V29.6296L1100 29.6296V50.3704H1129.63V80H1150.37V50.3704L1180 50.3704V29.6296L1150.37 29.6296V0Z" fill="#EAECE9"/>
<path fill-rule="evenodd" clip-rule="evenodd" d="M1150.37 100H1129.63V129.63L1100 129.63V150.37H1129.63V180H1150.37V150.37H1180V129.63L1150.37 129.63V100Z" fill="#EAECE9"/>
</svg>
