<svg width="1120" height="157" viewBox="0 0 1095 157" fill="none" xmlns="http://www.w3.org/2000/svg">
<path d="M1095 157L965 157L1095 27L1095 157Z" fill="#2E2E2E"/>
<path d="M178 157L308 157L178 27L178 157Z" fill="#EAECE9"/>
<path d="M941 -2.89673e-05L1071 -3.05176e-05L941 130L941 -2.89673e-05Z" fill="#2E2E2E"/>
<path d="M753 157L883 157L753 27L753 157Z" fill="#2E2E2E"/>
<path d="M901 -2.89673e-05L771 -3.05176e-05L901 130L901 -2.89673e-05Z" fill="#EAECE9"/>
<path d="M-1.1365e-05 157L130 157L0 27L-1.1365e-05 157Z" fill="#2E2E2E"/>
<path d="M328 -2.89673e-05L198 -3.05176e-05L328 130L328 -2.89673e-05Z" fill="#2E2E2E"/>
<path d="M718 157L588 157L718 27L718 157Z" fill="#2E2E2E"/>
<path d="M540 157L383 157L540 -1.37254e-05L540 157Z" fill="#2E2E2E"/>
<path d="M540 1.87221e-06L697 0L540 157L540 1.87221e-06Z" fill="#EAECE9"/>
<path d="M364 -2.89673e-05L494 -3.05176e-05L364 130L364 -2.89673e-05Z" fill="#2E2E2E"/>
<path d="M148 -2.89673e-05L18 -3.05176e-05L148 130L148 -2.89673e-05Z" fill="#2E2E2E"/>
</svg>
