<svg width="1188" height="187" viewBox="0 0 1188 187" fill="none" xmlns="http://www.w3.org/2000/svg">
<rect x="58.0359" y="187" width="191.036" height="88.7914" transform="rotate(-180 58.0359 187)" fill="#2E2E2E"/>
<path d="M355.83 89.6487H263.238V2.50342H355.83V89.6487Z" fill="#2E2E2E"/>
<path d="M453.56 90.1365H362.078V2.69044H453.56V90.1365Z" fill="#2E2E2E"/>
<path d="M156.245 90.1365H66.1084V1.34512H156.245V90.1365Z" fill="#EAECE9"/>
<path d="M58.0359 90.1365H-33.4461V1.34512H58.0359V90.1365Z" fill="#2E2E2E"/>
<path d="M355.352 187H263.87V98.2089H355.352V187Z" fill="#EAECE9"/>
<path d="M255.951 187H164.469V98.2089H255.951V187Z" fill="#2E2E2E"/>
<rect x="1338.78" y="185.655" width="189.691" height="88.7914" transform="rotate(-180 1338.78 185.655)" fill="#EAECE9"/>
<rect x="850.432" y="187" width="189.691" height="90.1367" transform="rotate(-180 850.432 187)" fill="#2E2E2E"/>
<path d="M651.323 187H461.632V0.000270545H651.323V187Z" fill="#2E2E2E"/>
<path d="M1141.02 185.655H1048.19V88.7915H1141.02V185.655Z" fill="#2E2E2E"/>
<path d="M1041.47 185.655H948.641V96.8634H1041.47V185.655Z" fill="#2E2E2E"/>
<path d="M1235.19 90.1365H948.639V2.69044H1235.19V90.1365Z" fill="#2E2E2E"/>
<path d="M941.912 90.1365H750.876V1.34512H941.912V90.1365Z" fill="#2E2E2E"/>
</svg>
