<svg width="1597" height="224" viewBox="0 0 1597 224" fill="none" xmlns="http://www.w3.org/2000/svg">
<ellipse cx="1165.39" cy="128" rx="96.5" ry="96" fill="#EAECE9"/>
<path fill-rule="evenodd" clip-rule="evenodd" d="M391.638 71.1871L391.638 71.1874L411.214 90.7639L411.215 90.7637L411.215 90.7643L430.792 71.1877L430.791 71.1871L482.402 19.5765L462.825 0L411.215 51.6106L390.814 31.2099L371.237 50.7864L391.638 71.1871Z" fill="#2E2E2E"/>
<path fill-rule="evenodd" clip-rule="evenodd" d="M886.632 71.1871L886.632 71.1874L906.209 90.7639L906.209 90.7637L906.21 90.7643L925.786 71.1877L925.785 71.1871L977.396 19.5765L957.82 0L906.209 51.6106L885.808 31.2099L866.232 50.7864L886.632 71.1871Z" fill="#2E2E2E"/>
<path fill-rule="evenodd" clip-rule="evenodd" d="M1381.63 71.1871L1381.63 71.1874L1401.2 90.7639L1401.2 90.7637L1401.2 90.7643L1420.78 71.1877L1420.78 71.1871L1472.39 19.5765L1452.81 0L1401.2 51.6106L1380.8 31.2099L1361.22 50.7864L1381.63 71.1871Z" fill="#EAECE9"/>
<path fill-rule="evenodd" clip-rule="evenodd" d="M639.135 71.1871L639.135 71.1874L658.711 90.7639L658.712 90.7637L658.712 90.7643L678.289 71.1877L678.288 71.1871L729.899 19.5765L710.322 0L658.712 51.6106L638.311 31.2099L618.734 50.7864L639.135 71.1871Z" fill="#2E2E2E"/>
<path fill-rule="evenodd" clip-rule="evenodd" d="M1134.13 71.1871L1134.13 71.1874L1153.71 90.7639L1153.71 90.7637L1153.71 90.7643L1173.28 71.1877L1173.28 71.1871L1224.89 19.5765L1205.32 0L1153.71 51.6106L1133.31 31.2099L1113.73 50.7864L1134.13 71.1871Z" fill="#2E2E2E"/>
<path fill-rule="evenodd" clip-rule="evenodd" d="M20.4007 71.1871L20.4005 71.1874L39.977 90.7639L39.9772 90.7637L39.9778 90.7643L59.5544 71.1877L59.5538 71.1871L111.164 19.5765L91.5879 0L39.9772 51.6106L19.5765 31.2099L0 50.7864L20.4007 71.1871Z" fill="#2E2E2E"/>
<path fill-rule="evenodd" clip-rule="evenodd" d="M515.386 71.1871L515.386 71.1874L534.963 90.7639L534.963 90.7637L534.963 90.7643L554.54 71.1877L554.539 71.1871L606.15 19.5765L586.573 0L534.963 51.6106L514.562 31.2099L494.986 50.7864L515.386 71.1871Z" fill="#EAECE9"/>
<path fill-rule="evenodd" clip-rule="evenodd" d="M1010.38 71.1871L1010.38 71.1874L1029.96 90.7639L1029.96 90.7637L1029.96 90.7643L1049.53 71.1877L1049.53 71.1871L1101.14 19.5765L1081.57 0L1029.96 51.6106L1009.56 31.2099L989.98 50.7864L1010.38 71.1871Z" fill="#2E2E2E"/>
<path fill-rule="evenodd" clip-rule="evenodd" d="M1505.37 71.1871L1505.37 71.1874L1524.95 90.7639L1524.95 90.7637L1524.95 90.7643L1544.53 71.1877L1544.53 71.1871L1596.14 19.5765L1576.56 0L1524.95 51.6106L1504.55 31.2099L1484.97 50.7864L1505.37 71.1871Z" fill="#2E2E2E"/>
<path fill-rule="evenodd" clip-rule="evenodd" d="M762.884 71.1871L762.884 71.1874L782.46 90.7639L782.46 90.7637L782.461 90.7643L802.038 71.1877L802.037 71.1871L853.648 19.5765L834.071 0L782.46 51.6106L762.06 31.2099L742.483 50.7864L762.884 71.1871Z" fill="#2E2E2E"/>
<path fill-rule="evenodd" clip-rule="evenodd" d="M1257.88 71.1871L1257.88 71.1874L1277.45 90.7639L1277.45 90.7637L1277.45 90.7643L1297.03 71.1877L1297.03 71.1871L1348.64 19.5765L1329.06 0L1277.45 51.6106L1257.05 31.2099L1237.48 50.7864L1257.88 71.1871Z" fill="#2E2E2E"/>
<path fill-rule="evenodd" clip-rule="evenodd" d="M144.15 71.1871L144.15 71.1874L163.726 90.7639L163.726 90.7637L163.727 90.7643L183.303 71.1877L183.303 71.1871L234.913 19.5765L215.337 0L163.726 51.6106L143.326 31.2099L123.749 50.7864L144.15 71.1871Z" fill="#2E2E2E"/>
<path fill-rule="evenodd" clip-rule="evenodd" d="M391.638 154.401L391.638 154.401L411.214 173.977L411.215 173.977L411.215 173.978L430.792 154.401L430.791 154.401L482.402 102.79L462.825 83.2134L411.215 134.824L390.814 114.423L371.237 134L391.638 154.401Z" fill="#2E2E2E"/>
<path fill-rule="evenodd" clip-rule="evenodd" d="M886.632 154.401L886.632 154.401L906.209 173.977L906.209 173.977L906.21 173.978L925.786 154.401L925.785 154.401L977.396 102.79L957.82 83.2134L906.209 134.824L885.808 114.423L866.232 134L886.632 154.401Z" fill="#2E2E2E"/>
<path fill-rule="evenodd" clip-rule="evenodd" d="M1381.63 154.401L1381.63 154.401L1401.2 173.977L1401.2 173.977L1401.2 173.978L1420.78 154.401L1420.78 154.401L1472.39 102.79L1452.81 83.2134L1401.2 134.824L1380.8 114.423L1361.22 134L1381.63 154.401Z" fill="#2E2E2E"/>
<path fill-rule="evenodd" clip-rule="evenodd" d="M639.135 154.401L639.135 154.401L658.711 173.977L658.712 173.977L658.712 173.978L678.289 154.401L678.288 154.401L729.899 102.79L710.322 83.2134L658.712 134.824L638.311 114.423L618.734 134L639.135 154.401Z" fill="#2E2E2E"/>
<path fill-rule="evenodd" clip-rule="evenodd" d="M1134.13 154.401L1134.13 154.401L1153.71 173.977L1153.71 173.977L1153.71 173.978L1173.28 154.401L1173.28 154.401L1224.89 102.79L1205.32 83.2134L1153.71 134.824L1133.31 114.423L1113.73 134L1134.13 154.401Z" fill="#74D7AD"/>
<path fill-rule="evenodd" clip-rule="evenodd" d="M20.4007 154.401L20.4005 154.401L39.977 173.977L39.9772 173.977L39.9778 173.978L59.5544 154.401L59.5538 154.401L111.164 102.79L91.5879 83.2134L39.9772 134.824L19.5765 114.423L0 134L20.4007 154.401Z" fill="#2E2E2E"/>
<path fill-rule="evenodd" clip-rule="evenodd" d="M515.386 154.401L515.386 154.401L534.963 173.977L534.963 173.977L534.963 173.978L554.54 154.401L554.539 154.401L606.15 102.79L586.573 83.2134L534.963 134.824L514.562 114.423L494.986 134L515.386 154.401Z" fill="#2E2E2E"/>
<path fill-rule="evenodd" clip-rule="evenodd" d="M1010.38 154.401L1010.38 154.401L1029.96 173.977L1029.96 173.977L1029.96 173.978L1049.53 154.401L1049.53 154.401L1101.14 102.79L1081.57 83.2134L1029.96 134.824L1009.56 114.423L989.98 134L1010.38 154.401Z" fill="#2E2E2E"/>
<path fill-rule="evenodd" clip-rule="evenodd" d="M1505.37 154.401L1505.37 154.401L1524.95 173.977L1524.95 173.977L1524.95 173.978L1544.53 154.401L1544.53 154.401L1596.14 102.79L1576.56 83.2134L1524.95 134.824L1504.55 114.423L1484.97 134L1505.37 154.401Z" fill="#EAECE9"/>
<path fill-rule="evenodd" clip-rule="evenodd" d="M762.884 154.401L762.884 154.401L782.46 173.977L782.46 173.977L782.461 173.978L802.038 154.401L802.037 154.401L853.648 102.79L834.071 83.2134L782.46 134.824L762.06 114.423L742.483 134L762.884 154.401Z" fill="#2E2E2E"/>
<path fill-rule="evenodd" clip-rule="evenodd" d="M1257.88 154.401L1257.88 154.401L1277.45 173.977L1277.45 173.977L1277.45 173.978L1297.03 154.401L1297.03 154.401L1348.64 102.79L1329.06 83.2134L1277.45 134.824L1257.05 114.423L1237.48 134L1257.88 154.401Z" fill="#2E2E2E"/>
<path fill-rule="evenodd" clip-rule="evenodd" d="M144.15 154.401L144.15 154.401L163.726 173.977L163.726 173.977L163.727 173.978L183.303 154.401L183.303 154.401L234.913 102.79L215.337 83.2134L163.726 134.824L143.326 114.423L123.749 134L144.15 154.401Z" fill="#2E2E2E"/>
<path fill-rule="evenodd" clip-rule="evenodd" d="M267.898 71.1871L267.898 71.1874L287.474 90.7639L287.474 90.7637L287.475 90.7643L307.051 71.1877L307.051 71.1871L358.661 19.5765L339.085 0L287.474 51.6106L267.074 31.2099L247.497 50.7864L267.898 71.1871Z" fill="#2E2E2E"/>
<path fill-rule="evenodd" clip-rule="evenodd" d="M267.898 154.401L267.898 154.401L287.474 173.977L287.474 173.977L287.475 173.978L307.051 154.401L307.051 154.401L358.661 102.79L339.085 83.2134L287.474 134.824L267.074 114.423L247.497 134L267.898 154.401Z" fill="#2E2E2E"/>
<mask id="mask0" mask-type="alpha" maskUnits="userSpaceOnUse" x="1068" y="31" width="195" height="194">
<ellipse cx="1165.3" cy="127.731" rx="96.8989" ry="96.2697" fill="#74D7AD"/>
</mask>
<g mask="url(#mask0)">
<path fill-rule="evenodd" clip-rule="evenodd" d="M1134.13 71.1873L1134.13 71.1876L1153.71 90.7641L1153.71 90.7639L1153.71 90.7645L1173.28 71.1879L1173.28 71.1873L1224.89 19.5767L1205.32 0.000183105L1153.71 51.6108L1133.31 31.2101L1113.73 50.7866L1134.13 71.1873Z" fill="#74D7AD"/>
<path fill-rule="evenodd" clip-rule="evenodd" d="M1010.38 154.4L1010.38 154.401L1029.96 173.977L1029.96 173.977L1029.96 173.978L1049.53 154.401L1049.53 154.4L1101.14 102.79L1081.57 83.2133L1029.96 134.824L1009.56 114.423L989.98 134L1010.38 154.4Z" fill="#74D7AD"/>
<path fill-rule="evenodd" clip-rule="evenodd" d="M1257.88 154.401L1257.88 154.401L1277.45 173.978L1277.45 173.978L1277.46 173.978L1297.03 154.402L1297.03 154.401L1348.64 102.791L1329.07 83.2141L1277.45 134.825L1257.05 114.424L1237.48 134L1257.88 154.401Z" fill="#74D7AD"/>
</g>
</svg>
