<svg width="360" height="145" viewBox="0 0 360 145" fill="none" xmlns="http://www.w3.org/2000/svg">
<circle cx="36" cy="36" r="36" fill="black"/>
<path fill-rule="evenodd" clip-rule="evenodd" d="M39.3704 23.5H32.6296V33.1296H23V39.8704H32.6296V49.5H39.3704V39.8704H49V33.1296H39.3704V23.5Z" fill="#EAECE9"/>
<circle cx="108" cy="108" r="36" fill="black"/>
<path fill-rule="evenodd" clip-rule="evenodd" d="M111.37 95.5H104.63V105.13H95V111.87H104.63V121.5H111.37V111.87H121V105.13H111.37V95.5Z" fill="#EAECE9"/>
<circle cx="180" cy="36" r="36" fill="#EAECE9"/>
<path fill-rule="evenodd" clip-rule="evenodd" d="M170.597 43.5911L170.597 43.5912L175.853 48.8468L175.853 48.8467L175.853 48.8469L181.108 43.5913L181.108 43.5911L194.964 29.7356L189.708 24.48L175.853 38.3356L170.376 32.8587L165.12 38.1143L170.597 43.5911Z" fill="#2E2E2E"/>
<circle cx="252" cy="108" r="36" fill="#EAECE9"/>
<path fill-rule="evenodd" clip-rule="evenodd" d="M242.597 115.591L242.597 115.591L247.853 120.847L247.853 120.847L247.853 120.847L253.108 115.591L253.108 115.591L266.964 101.736L261.708 96.48L247.853 110.336L242.376 104.859L237.12 110.114L242.597 115.591Z" fill="#2E2E2E"/>
<circle cx="252" cy="36" r="36" fill="#EAECE9"/>
<path d="M265.44 47.0398L240.259 47.0398L265.44 21.8589L265.44 47.0398Z" fill="#2E2E2E"/>
<path d="M238.08 44.8608L238.08 19.68L250.671 32.2704L238.08 44.8608Z" fill="#2E2E2E"/>
<circle cx="324" cy="108" r="36" fill="#EAECE9"/>
<path d="M337.44 119.04L312.259 119.04L337.44 93.859L337.44 119.04Z" fill="#2E2E2E"/>
<path d="M310.08 116.861L310.08 91.6801L322.671 104.271L310.08 116.861Z" fill="#2E2E2E"/>
<circle cx="324" cy="36" r="36" fill="white"/>
<path d="M331.468 31.8101L331.468 40.5913L319.364 40.5913L319.364 31.8101L331.468 31.8101Z" fill="#2E2E2E"/>
<path d="M309.601 41.5411L318.382 41.5411L318.382 50.3223L309.601 50.3223L309.601 41.5411Z" fill="#2E2E2E"/>
<path d="M337.876 22.08L337.876 50.3223L329.095 50.3223L329.095 22.08L337.876 22.08Z" fill="#2E2E2E"/>
<circle cx="36" cy="109" r="36" fill="white"/>
<path d="M43.4678 104.81L43.4678 113.591L31.3639 113.591L31.3639 104.81L43.4678 104.81Z" fill="#2E2E2E"/>
<path d="M21.6006 114.541L30.3818 114.541L30.3818 123.322L21.6006 123.322L21.6006 114.541Z" fill="#2E2E2E"/>
<path d="M49.876 95.08L49.876 123.322L41.0948 123.322L41.0948 95.08L49.876 95.08Z" fill="#2E2E2E"/>
<circle cx="108" cy="36" r="36" fill="#757575"/>
<path fill-rule="evenodd" clip-rule="evenodd" d="M102.172 24.96H113.557H119.519H119.52L119.52 42.3077H113.557V35.1406L100.696 48.0009L96.4795 43.7843L109.34 30.9233H102.172V24.96Z" fill="#2E2E2E"/>
<circle cx="180" cy="108" r="36" fill="#757575"/>
<path fill-rule="evenodd" clip-rule="evenodd" d="M174.172 96.96H185.557H191.519H191.52L191.52 114.308H185.557V107.141L172.696 120.001L168.479 115.784L181.34 102.923H174.172V96.96Z" fill="#2E2E2E"/>
</svg>
