<svg width="1401" height="692" viewBox="0 0 1401 692" fill="none" xmlns="http://www.w3.org/2000/svg">
<g opacity=".5">
<rect width="113.721" height="113.721" fill="#73746f"/>
<rect x="1169" y="578" width="113.721" height="113.721" fill="#73746f"/>
<rect x="295.38" y="292.426" width="113.721" height="113.721" fill="#73746f"/>
<rect x="877.278" y="438.639" width="113.721" height="113.721" fill="#73746f"/>
<rect x="584.853" y="436.639" width="113.721" height="113.721" fill="#73746f"/>
<rect x="292.426" width="113.721" height="113.721" fill="#73746f"/>
<rect x="1031.43" y="578" width="113.721" height="113.721" fill="#73746f"/>
<rect x="292.426" y="146.213" width="113.721" height="113.721" fill="#73746f"/>
<rect x="584.853" y="146.213" width="113.721" height="113.721" fill="#73746f"/>
<rect x="146.213" width="113.721" height="113.721" fill="#73746f"/>
<rect x="1315.21" y="578" width="113.721" height="113.721" fill="#73746f"/>
<rect x="146.213" y="146.213" width="113.721" height="113.721" fill="#73746f"/>
<rect x="441.593" y="292.426" width="113.721" height="113.721" fill="#73746f"/>
<rect x="438.64" width="113.721" height="113.721" fill="#73746f"/>
<rect x="731.065" y="146.213" width="113.721" height="113.721" fill="#73746f"/>
<rect x="731.065" y="292.426" width="113.721" height="113.721" fill="#73746f"/>
<rect x="1169.21" y="292.426" width="113.721" height="113.721" fill="#73746f"/>
<rect x="1169.21" y="435" width="113.721" height="113.721" fill="#73746f"/>
<rect x="584.853" y="292.426" width="113.721" height="113.721" fill="#73746f"/>
<rect x="1023" y="292.426" width="113.721" height="113.721" fill="#73746f"/>
<rect x="1023" y="435" width="113.721" height="113.721" fill="#73746f"/>
<rect x="731.064" y="438.639" width="113.721" height="113.721" fill="#73746f"/>
<rect x="877.278" y="292.426" width="113.721" height="113.721" fill="#73746f"/>
<rect x="1315.43" y="292.426" width="113.721" height="113.721" fill="#73746f"/>
<rect x="1315.43" y="435" width="113.721" height="113.721" fill="#73746f"/>
</g>
</svg>
