<svg width="605" height="186" viewBox="0 0 591 186" fill="none" xmlns="http://www.w3.org/2000/svg">
<path fill-rule="evenodd" clip-rule="evenodd" d="M21 0H63H85V22V64H63V37.5599L15.5563 85.0036L0 69.4472L47.4472 22H21V0Z" fill="#2E2E2E"/>
<path fill-rule="evenodd" clip-rule="evenodd" d="M21 100H63H85V122V164H63V137.56L15.5563 185.004L0 169.447L47.4472 122H21V100Z" fill="#2E2E2E"/>
<path fill-rule="evenodd" clip-rule="evenodd" d="M121 0H163H185V22V64H163V37.5599L115.556 85.0036L100 69.4472L147.447 22H121V0Z" fill="#2E2E2E"/>
<path fill-rule="evenodd" clip-rule="evenodd" d="M121 100H163H185V122V164H163V137.56L115.556 185.004L100 169.447L147.447 122H121V100Z" fill="#2E2E2E"/>
<path fill-rule="evenodd" clip-rule="evenodd" d="M221 0H263H285V22V64H263V37.5599L215.556 85.0036L200 69.4472L247.447 22H221V0Z" fill="#2E2E2E"/>
<path fill-rule="evenodd" clip-rule="evenodd" d="M221 100H263H285V122V164H263V137.56L215.556 185.004L200 169.447L247.447 122H221V100Z" fill="#2E2E2E"/>
<path fill-rule="evenodd" clip-rule="evenodd" d="M321 0H363H385V22V64H363V37.5599L315.556 85.0036L300 69.4472L347.447 22H321V0Z" fill="#2E2E2E"/>
<path fill-rule="evenodd" clip-rule="evenodd" d="M321 100H363H385V122V164H363V137.56L315.556 185.004L300 169.447L347.447 122H321V100Z" fill="#2E2E2E"/>
<path fill-rule="evenodd" clip-rule="evenodd" d="M421 0H469H491V22V64H469V37.5599L421.556 85.0036L406 69.4472L453.447 22H427V0Z" fill="#2E2E2E"/>
<path fill-rule="evenodd" clip-rule="evenodd" d="M421 100H469H491V122V164H469V137.56L421.556 185.004L406 169.447L453.447 122H427V100Z" fill="#EAECE9"/>
<path fill-rule="evenodd" clip-rule="evenodd" d="M521 0H569H591V22V64H569V37.5599L521.556 85.0036L506 69.4472L553.447 22H527V0Z" fill="#EAECE9"/>
<path fill-rule="evenodd" clip-rule="evenodd" d="M521 100H569H591V122V164H569V137.56L521.556 185.004L506 169.447L553.447 122H527V100Z" fill="#2E2E2E"/>
</svg>
