<svg width="412" height="412" viewBox="0 0 412 412" fill="none" xmlns="http://www.w3.org/2000/svg">
<mask id="mask0" mask-type="alpha" maskUnits="userSpaceOnUse" x="0" y="0" width="412" height="412">
<circle cx="206" cy="206" r="206" fill="black"/>
</mask>
<g mask="url(#mask0)">
<circle cx="281.457" cy="153.722" r="51.7733" fill="#F8A897"/>
<path d="M292.199 147.696L292.199 160.325L274.792 160.325L274.792 147.696L292.199 147.696Z" fill="#2E2E2E"/>
<path d="M260.742 161.691L273.371 161.691L273.371 174.32L260.742 174.32L260.742 161.691Z" fill="#2E2E2E"/>
<path d="M301.414 133.703L301.414 174.319L288.785 174.319L288.785 133.703L301.414 133.703Z" fill="#2E2E2E"/>
<circle cx="385" cy="153.722" r="51.7733" fill="#F2B600"/>
<path d="M404.339 169.599L368.125 169.599L404.339 133.385L404.339 169.599Z" fill="#2E2E2E"/>
<path d="M364.983 166.466L364.983 130.252L383.09 148.359L364.983 166.466Z" fill="#2E2E2E"/>
<circle cx="177.906" cy="153.722" r="51.7733" fill="#74D7AD"/>
<path fill-rule="evenodd" clip-rule="evenodd" d="M164.395 164.639L164.395 164.64L171.953 172.198L171.954 172.197L171.955 172.198L179.513 164.64L179.512 164.639L199.438 144.713L191.879 137.155L171.954 157.081L164.078 149.205L156.52 156.763L164.395 164.639Z" fill="#2E2E2E"/>
<circle cx="74.3593" cy="153.722" r="51.7733" fill="#E41D3D"/>
<path d="M93.0034 150.857V157.967C93.0034 158.503 92.5697 158.937 92.0337 158.937H78.89V172.081C78.89 172.617 78.4557 173.05 77.9204 173.05H70.8097C70.2747 173.05 69.84 172.617 69.84 172.081V158.937H56.6962C56.1605 158.937 55.7266 158.503 55.7266 157.967V150.857C55.7266 150.321 56.1605 149.887 56.6962 149.887H69.84V136.743C69.84 136.207 70.2746 135.773 70.8097 135.773H77.9204C78.4557 135.773 78.89 136.207 78.89 136.743V149.887H92.0337C92.5698 149.887 93.0034 150.321 93.0034 150.857Z" fill="#EAECE9"/>
<circle cx="-29.1876" cy="153.722" r="51.7733" fill="#2672DE"/>
<circle cx="211.562" cy="358.227" r="51.7733" fill="#F8A897"/>
<path d="M222.301 352.201L222.301 364.829L204.894 364.829L204.894 352.201L222.301 352.201Z" fill="#2E2E2E"/>
<path d="M190.844 366.196L203.472 366.196L203.472 378.824L190.844 378.824L190.844 366.196Z" fill="#2E2E2E"/>
<path d="M231.516 338.207L231.516 378.824L218.887 378.824L218.887 338.207L231.516 338.207Z" fill="#2E2E2E"/>
<circle cx="315.105" cy="358.227" r="51.7733" fill="#F2B600"/>
<path d="M334.444 374.104L298.23 374.104L334.444 337.89L334.444 374.104Z" fill="#2E2E2E"/>
<path d="M295.088 370.97L295.088 334.756L313.195 352.863L295.088 370.97Z" fill="#2E2E2E"/>
<circle cx="108.012" cy="358.227" r="51.7733" fill="#74D7AD"/>
<path fill-rule="evenodd" clip-rule="evenodd" d="M94.5007 369.144L94.5 369.144L102.058 376.703L102.059 376.702L102.06 376.703L109.618 369.145L109.617 369.144L129.543 349.218L121.985 341.66L102.059 361.585L94.1833 353.71L86.625 361.268L94.5007 369.144Z" fill="#2E2E2E"/>
<circle cx="4.46476" cy="358.227" r="51.7733" fill="#E41D3D"/>
<path d="M23.1128 355.361V362.472C23.1128 363.007 22.679 363.442 22.1431 363.442H8.9994V376.585C8.9994 377.121 8.56504 377.555 8.02975 377.555H0.91904C0.384072 377.555 -0.0506077 377.121 -0.0506077 376.585V363.442H-13.1944C-13.7301 363.442 -14.1641 363.007 -14.1641 362.472V355.361C-14.1641 354.826 -13.7301 354.392 -13.1944 354.392H-0.0506077V341.248C-0.0506077 340.712 0.383965 340.278 0.91904 340.278H8.02975C8.56504 340.278 8.9994 340.712 8.9994 341.248V354.392H22.1431C22.6791 354.392 23.1128 354.826 23.1128 355.361Z" fill="#EAECE9"/>
<circle cx="418.656" cy="358.227" r="51.7733" fill="#2672DE"/>
<path fill-rule="evenodd" clip-rule="evenodd" d="M420.578 350.925L402.082 369.421L408.146 375.485L426.652 356.979V367.298H435.228V342.349H426.652V342.349H410.273V350.925H420.578Z" fill="#EAECE9"/>
<circle cx="57.5351" cy="51.4695" r="51.7733" fill="#F8A897"/>
<path d="M68.2773 45.4437L68.2773 58.0724L50.8702 58.0724L50.8702 45.4437L68.2773 45.4437Z" fill="#2E2E2E"/>
<path d="M36.8203 59.4387L49.449 59.4387L49.449 72.0674L36.8203 72.0674L36.8203 59.4387Z" fill="#2E2E2E"/>
<path d="M77.4922 31.4504L77.4922 72.067L64.8635 72.067L64.8635 31.4504L77.4922 31.4504Z" fill="#2E2E2E"/>
<circle cx="161.082" cy="51.4696" r="51.7733" fill="#F2B600"/>
<path d="M180.417 67.3466L144.203 67.3466L180.417 31.1327L180.417 67.3466Z" fill="#2E2E2E"/>
<path d="M141.061 64.2132L141.061 27.9993L159.168 46.1063L141.061 64.2132Z" fill="#2E2E2E"/>
<circle cx="-46.0118" cy="51.4695" r="51.7733" fill="#74D7AD"/>
<circle cx="368.172" cy="51.4695" r="51.7733" fill="#E41D3D"/>
<path d="M386.82 48.6042V55.7149C386.82 56.2502 386.386 56.6846 385.85 56.6846H372.706V69.8283C372.706 70.3643 372.272 70.7979 371.737 70.7979H364.626C364.091 70.7979 363.656 70.3642 363.656 69.8283V56.6846H350.513C349.977 56.6846 349.543 56.2502 349.543 55.7149V48.6042C349.543 48.0688 349.977 47.6346 350.513 47.6346H363.656V34.4908C363.656 33.9548 364.091 33.5211 364.626 33.5211H371.737C372.272 33.5211 372.706 33.9548 372.706 34.4908V47.6346H385.85C386.386 47.6346 386.82 48.0688 386.82 48.6042Z" fill="#EAECE9"/>
<circle cx="264.629" cy="51.4695" r="51.7733" fill="#2672DE"/>
<path fill-rule="evenodd" clip-rule="evenodd" d="M266.547 44.168L248.051 62.664L254.115 68.7282L272.621 50.2221V60.5405H281.197V35.5918H272.621V35.5919H256.242V44.168H266.547Z" fill="#EAECE9"/>
<circle cx="-12.3595" cy="255.974" r="51.7733" fill="#F8A897"/>
<path d="M7.60156 235.955L7.60156 276.572L-5.02714 276.572L-5.02714 235.955L7.60156 235.955Z" fill="#2E2E2E"/>
<circle cx="91.1874" cy="255.974" r="51.7733" fill="#F2B600"/>
<path d="M110.522 271.851L74.3086 271.851L110.522 235.637L110.522 271.851Z" fill="#2E2E2E"/>
<path d="M71.1665 268.718L71.1665 232.504L89.2734 250.611L71.1665 268.718Z" fill="#2E2E2E"/>
<circle cx="401.824" cy="255.974" r="51.7733" fill="#74D7AD"/>
<path fill-rule="evenodd" clip-rule="evenodd" d="M388.313 266.891L388.312 266.892L395.871 274.45L395.872 274.45L395.873 274.451L403.431 266.892L403.43 266.891L423.356 246.966L415.797 239.407L395.872 259.333L387.996 251.457L380.438 259.016L388.313 266.891Z" fill="#2E2E2E"/>
<circle cx="298.281" cy="255.974" r="51.7733" fill="#E41D3D"/>
<path d="M316.925 253.109V260.22C316.925 260.755 316.492 261.189 315.956 261.189H302.812V274.333C302.812 274.869 302.378 275.303 301.842 275.303H294.732C294.197 275.303 293.762 274.869 293.762 274.333V261.189H280.618C280.082 261.189 279.648 260.755 279.648 260.22V253.109C279.648 252.574 280.082 252.139 280.618 252.139H293.762V238.995C293.762 238.46 294.196 238.026 294.732 238.026H301.842C302.378 238.026 302.812 238.46 302.812 238.995V252.139H315.956C316.492 252.139 316.925 252.574 316.925 253.109Z" fill="#EAECE9"/>
<circle cx="194.734" cy="255.974" r="51.7733" fill="#2672DE"/>
<path fill-rule="evenodd" clip-rule="evenodd" d="M196.652 248.673L178.156 267.169L184.22 273.233L202.727 254.727V265.045H211.303V240.097H202.727V240.097H186.348V248.673H196.652Z" fill="#EAECE9"/>
</g>
</svg>
