<svg width="66" height="66" viewBox="0 0 66 66" fill="none" xmlns="http://www.w3.org/2000/svg">
<path d="M65.3957 27.0197V39.3806C65.3957 40.3111 64.6417 41.0662 63.7101 41.0662H40.8618V63.9145C40.8618 64.8463 40.1067 65.6 39.1762 65.6H26.8154C25.8854 65.6 25.1298 64.8461 25.1298 63.9145V41.0662H2.28129C1.35003 41.0662 0.595703 40.3111 0.595703 39.3806V27.0197C0.595703 26.089 1.35003 25.3341 2.28129 25.3341H25.1298V2.48563C25.1298 1.554 25.8852 0.800049 26.8154 0.800049H39.1762C40.1067 0.800049 40.8618 1.554 40.8618 2.48563V25.3341H63.7101C64.6419 25.3341 65.3957 26.089 65.3957 27.0197Z" fill="#E41D3D"/>
</svg>
