<svg width="150" height="150" viewBox="0 0 150 150" fill="none" xmlns="http://www.w3.org/2000/svg">
<circle cx="75" cy="75" r="75" fill="#E41D3D"/>
<path d="M102 70.8497V81.1504C102 81.9259 101.372 82.5551 100.595 82.5551H81.5551V101.595C81.5551 102.372 80.9259 103 80.1504 103H69.8497C69.0747 103 68.4451 102.372 68.4451 101.595V82.5551H49.4047C48.6286 82.5551 48 81.9259 48 81.1504V70.8497C48 70.0741 48.6286 69.4451 49.4047 69.4451H68.4451V50.4047C68.4451 49.6283 69.0746 49 69.8497 49H80.1504C80.9259 49 81.5551 49.6283 81.5551 50.4047V69.4451H100.595C101.372 69.4451 102 70.0741 102 70.8497Z" fill="#ffffff"/>
</svg>
