<svg xmlns="http://www.w3.org/2000/svg" viewBox="0 0 70 70"><title>get-started</title><g id="Layer_2" data-name="Layer 2"><g id="Layer_1-2" data-name="Layer 1"><circle cx="35" cy="35" r="35" fill="#e31c3d"/><polygon points="47.06 25.48 23.97 25.48 27.75 21.51 43.32 21.52 47.06 25.48" fill="#e94964" stroke="#fff" stroke-linecap="round" stroke-linejoin="round"/><polyline points="26.49 28.01 23.97 30.48 47.06 30.48 44.56 28.01" fill="none" stroke="#fff" stroke-linecap="round" stroke-linejoin="round"/><polyline points="26.49 33.01 23.97 35.48 47.06 35.48 44.56 33.01" fill="none" stroke="#fff" stroke-linecap="round" stroke-linejoin="round"/><rect x="18.5" y="39.5" width="5" height="9" fill="none" stroke="#fff" stroke-linecap="round" stroke-linejoin="round"/><path d="M30.45,44l7.22,2.27c2,.62,2.83-2.58.87-3.19l-6.87-2.17c-2.11-.66-5.53-.36-8.16,0v5.76c1.47-.42,3-.68,3.77-.33a18.6,18.6,0,0,0,8.2,2c3.23,0,2.59,0,10.72-4,1.84-.9.62-4-1.32-3L39.51,44" fill="#e94964" stroke="#fff" stroke-linecap="round" stroke-linejoin="round"/></g></g></svg>