<svg width="40" height="40" viewBox="0 0 40 40" xmlns="http://www.w3.org/2000/svg">
  <title>
    icon-slack
  </title>
  <g fill="none" fill-rule="evenodd">
    <circle fill="#00BFE7" cx="20" cy="20" r="20"/>
    <g fill-rule="nonzero" fill="#FFF">
      <path d="M18.295 19.13l2.65-.886.856 2.558-2.648.888z"/>
      <path d="M18.295 19.13l2.65-.886.856 2.558-2.648.888z"/>
      <path d="M29.143 17.222c-2.048-6.825-5-8.412-11.826-6.365-6.825 2.048-8.412 5-6.365 11.826 2.048 6.825 5 8.412 11.826 6.365 6.825-2.048 8.412-5 6.365-11.826zm-3.445 4.43l-1.285.427.444 1.333c.175.54-.11 1.127-.65 1.3-.112.033-.24.065-.35.05-.413-.017-.81-.287-.952-.7l-.445-1.333-2.65.89.444 1.332c.175.54-.11 1.127-.65 1.302-.112.032-.24.063-.35.048-.413-.016-.81-.286-.952-.7l-.445-1.332-1.286.428c-.11.032-.237.064-.348.048-.412-.016-.81-.286-.952-.698-.175-.54.11-1.127.65-1.302l1.286-.43-.857-2.554-1.287.428c-.11.032-.238.064-.35.048-.41-.016-.808-.286-.95-.698-.176-.54.11-1.127.65-1.302l1.285-.428-.444-1.334c-.175-.54.11-1.127.65-1.3.54-.176 1.128.11 1.302.65l.445 1.333 2.652-.89-.445-1.333c-.174-.54.11-1.127.65-1.302.54-.175 1.128.11 1.303.65l.444 1.334 1.286-.43c.54-.174 1.127.112 1.3.65.176.54-.11 1.128-.65 1.303l-1.285.428.857 2.557 1.286-.43c.54-.173 1.127.113 1.3.652.176.54-.11 1.126-.65 1.3z"/>
    </g>
  </g>
</svg>