<?xml version="1.0" encoding="UTF-8"?>
<svg width="40px" height="40px" viewBox="0 0 40 40" version="1.1" xmlns="http://www.w3.org/2000/svg" xmlns:xlink="http://www.w3.org/1999/xlink">
    <!-- Generator: Sketch 43.2 (39069) - http://www.bohemiancoding.com/sketch -->
    <title>icon-slack</title>
    <desc>Created with Sketch.</desc>
    <defs></defs>
    <g id="Page-1" stroke="none" stroke-width="1" fill="none" fill-rule="evenodd">
        <g id="WDS-home-Copy" transform="translate(-526.000000, -1306.000000)">
            <g id="icon-slack" transform="translate(526.000000, 1306.000000)">
                <circle id="Oval-2-Copy" fill="#00BFE7" cx="20" cy="20" r="20"></circle>
                <g id="Slack_Mark_Monochrome_White" transform="translate(10.000000, 10.000000)" fill-rule="nonzero" fill="#FFFFFF">
                    <rect id="Rectangle-path" transform="translate(10.047340, 9.967568) rotate(-18.518296) translate(-10.047340, -9.967568) " x="8.65054711" y="8.61839361" width="2.79358514" height="2.69834928"></rect>
                    <g id="Group">
                        <rect id="Rectangle-path" transform="translate(10.047340, 9.967568) rotate(-18.518296) translate(-10.047340, -9.967568) " x="8.65054711" y="8.61839361" width="2.79358514" height="2.69834928"></rect>
                        <path d="M19.1428571,7.22222222 C17.0952381,0.396825397 14.1428571,-1.19047619 7.31746032,0.857142857 C0.492063492,2.9047619 -1.0952381,5.85714286 0.952380952,12.6825397 C3,19.5079365 5.95238095,21.0952381 12.7777778,19.047619 C19.6031746,17 21.1904762,14.047619 19.1428571,7.22222222 Z M15.6984127,11.6507937 L14.4126984,12.0793651 L14.8571429,13.4126984 C15.031746,13.952381 14.7460317,14.5396825 14.2063492,14.7142857 C14.0952381,14.7460317 13.968254,14.7777778 13.8571429,14.7619048 C13.4444444,14.7460317 13.047619,14.4761905 12.9047619,14.0634921 L12.4603175,12.7301587 L9.80952381,13.6190476 L10.2539683,14.952381 C10.4285714,15.4920635 10.1428571,16.0793651 9.6031746,16.2539683 C9.49206349,16.2857143 9.36507937,16.3174603 9.25396825,16.3015873 C8.84126984,16.2857143 8.44444444,16.015873 8.3015873,15.6031746 L7.85714286,14.2698413 L6.57142857,14.6984127 C6.46031746,14.7301587 6.33333333,14.7619048 6.22222222,14.7460317 C5.80952381,14.7301587 5.41269841,14.4603175 5.26984127,14.047619 C5.0952381,13.5079365 5.38095238,12.9206349 5.92063492,12.7460317 L7.20634921,12.3174603 L6.34920635,9.76190476 L5.06349206,10.1904762 C4.95238095,10.2222222 4.82539683,10.2539683 4.71428571,10.2380952 C4.3015873,10.2222222 3.9047619,9.95238095 3.76190476,9.53968254 C3.58730159,9 3.87301587,8.41269841 4.41269841,8.23809524 L5.6984127,7.80952381 L5.25396825,6.47619048 C5.07936508,5.93650794 5.36507937,5.34920635 5.9047619,5.17460317 C6.44444444,5 7.03174603,5.28571429 7.20634921,5.82539683 L7.65079365,7.15873016 L10.3015873,6.26984127 L9.85714286,4.93650794 C9.68253968,4.3968254 9.96825397,3.80952381 10.5079365,3.63492063 C11.047619,3.46031746 11.6349206,3.74603175 11.8095238,4.28571429 L12.2539683,5.61904762 L13.5396825,5.19047619 C14.0793651,5.01587302 14.6666667,5.3015873 14.8412698,5.84126984 C15.015873,6.38095238 14.7301587,6.96825397 14.1904762,7.14285714 L12.9047619,7.57142857 L13.7619048,10.1269841 L15.047619,9.6984127 C15.5873016,9.52380952 16.1746032,9.80952381 16.3492063,10.3492063 C16.5238095,10.8888889 16.2380952,11.4761905 15.6984127,11.6507937 Z" id="Shape"></path>
                    </g>
                </g>
            </g>
        </g>
    </g>
</svg>