<svg width="40" height="40" viewBox="0 0 40 40" xmlns="http://www.w3.org/2000/svg">
  <title>
    icon-question
  </title>
  <g fill="none" fill-rule="evenodd">
    <circle fill="#00BFE7" cx="20" cy="20" r="20"/>
    <path d="M28.66 14.98c-.895-1.532-2.108-2.745-3.64-3.64C23.488 10.448 21.815 10 20 10c-1.814 0-3.487.447-5.02 1.34-1.53.895-2.744 2.108-3.64 3.64C10.448 16.513 10 18.186 10 20c0 1.814.447 3.487 1.34 5.02.895 1.53 2.108 2.745 3.64 3.64C16.514 29.552 18.187 30 20 30c1.814 0 3.488-.447 5.02-1.34 1.532-.895 2.745-2.108 3.64-3.64C29.552 23.487 30 21.814 30 20c0-1.814-.447-3.488-1.34-5.02zm-6.993 11.27c0 .12-.04.22-.117.3-.078.077-.178.116-.3.116h-2.5c-.12 0-.22-.04-.3-.117-.077-.08-.116-.18-.116-.3v-2.5c0-.122.04-.222.117-.3.08-.078.18-.117.3-.117h2.5c.122 0 .222.04.3.117.078.078.117.178.117.3v2.5zm3.17-7.695c-.108.32-.23.584-.364.788-.135.203-.328.412-.58.624-.25.213-.45.365-.6.456-.146.09-.36.215-.636.37-.287.166-.523.38-.71.646-.186.264-.28.478-.28.643 0 .122-.04.222-.117.3-.078.078-.178.117-.3.117h-2.5c-.12 0-.22-.04-.3-.117-.077-.078-.116-.178-.116-.3v-.47c0-.58.228-1.125.683-1.633.456-.508.958-.883 1.504-1.126.418-.19.713-.386.887-.586.174-.2.26-.465.26-.794 0-.287-.163-.543-.488-.77-.327-.224-.698-.337-1.114-.337-.452 0-.825.104-1.12.312-.287.208-.66.607-1.12 1.197-.078.104-.187.157-.326.157-.104 0-.186-.026-.247-.078l-1.72-1.302c-.198-.157-.233-.34-.103-.547 1.11-1.85 2.722-2.774 4.83-2.774.756 0 1.494.178 2.215.534.72.356 1.32.86 1.803 1.51.482.652.723 1.36.723 2.123 0 .382-.054.733-.162 1.055z" fill="#FFF"/>
  </g>
</svg>