<?xml version="1.0" encoding="UTF-8"?>
<svg width="40px" height="40px" viewBox="0 0 40 40" version="1.1" xmlns="http://www.w3.org/2000/svg" xmlns:xlink="http://www.w3.org/1999/xlink">
    <!-- Generator: Sketch 43.2 (39069) - http://www.bohemiancoding.com/sketch -->
    <title>icon-question</title>
    <desc>Created with Sketch.</desc>
    <defs></defs>
    <g id="Page-1" stroke="none" stroke-width="1" fill="none" fill-rule="evenodd">
        <g id="WDS-home-Copy" transform="translate(-283.000000, -1306.000000)">
            <g id="icon-question" transform="translate(283.000000, 1306.000000)">
                <circle id="Oval-2" fill="#00BFE7" cx="20" cy="20" r="20"></circle>
                <g id="question23" fill="#000000" transform="translate(10.000000, 10.000000)">
                    <path d="M18.6591232,4.98042224 C17.764939,3.44840261 16.551917,2.23538061 15.0198974,1.3411964 C13.4875581,0.447012194 11.8147385,0 10.0003196,0 C8.18606064,0 6.5127615,0.447012194 4.98074188,1.3411964 C3.44856243,2.23522079 2.23554043,3.4482428 1.34135622,4.98042224 C0.447012194,6.51260168 0,8.18590082 0,10 C0,11.814259 0.447172013,13.4872385 1.3411964,15.0195778 C2.23538061,16.5514376 3.44840261,17.7646194 4.98058206,18.6588036 C6.5127615,19.5529878 8.18590082,20 10.0001598,20 C11.8144188,20 13.487718,19.5529878 15.0197376,18.6588036 C16.5517572,17.7647792 17.7647792,16.5515974 18.6589634,15.0195778 C19.5529878,13.4873983 20,11.8140992 20,10 C20,8.185741 19.5529878,6.51244187 18.6591232,4.98042224 L18.6591232,4.98042224 Z M11.6670662,16.25002 C11.6670662,16.371482 11.6277509,16.4713685 11.5497595,16.5493599 C11.4719279,16.6273513 11.3720414,16.666347 11.2505793,16.666347 L8.75037957,16.666347 C8.62891755,16.666347 8.52903102,16.6273513 8.4508798,16.5493599 C8.37272858,16.4713685 8.33373288,16.371482 8.33373288,16.25002 L8.33373288,13.7498202 C8.33373288,13.6283582 8.37272858,13.5284717 8.4508798,13.4503204 C8.52903102,13.3724889 8.62891755,13.3334932 8.75037957,13.3334932 L11.2505793,13.3334932 C11.3720414,13.3334932 11.4719279,13.3724889 11.5497595,13.4503204 C11.6277509,13.5284717 11.6670662,13.6283582 11.6670662,13.7498202 L11.6670662,16.25002 L11.6670662,16.25002 Z M14.8375445,8.55460197 C14.7290278,8.87583705 14.6075658,9.13857857 14.4729987,9.34250691 C14.3384315,9.54643525 14.145211,9.7548385 13.8933372,9.96739704 C13.6419428,10.1801154 13.4421697,10.3321027 13.2943376,10.4233591 C13.146985,10.5142958 12.9341069,10.6381551 12.6565022,10.7942977 C12.3701076,10.9592303 12.1337361,11.1740263 11.9472279,11.4388455 C11.76056,11.7035048 11.667226,11.9184606 11.667226,12.0832334 C11.667226,12.2048553 11.6279107,12.3047418 11.5499193,12.3827332 C11.4720877,12.4608844 11.3722012,12.4998801 11.2507392,12.4998801 L8.75053939,12.4998801 C8.62907737,12.4998801 8.52919084,12.4608844 8.45103962,12.3827332 C8.3728884,12.3047418 8.3338927,12.2048553 8.3338927,12.0832334 L8.3338927,11.6143261 C8.3338927,11.0327468 8.56163398,10.4879257 9.01743619,9.98018251 C9.4732384,9.47227949 9.97458887,9.09686596 10.5214876,8.8537821 C10.9379745,8.66295888 11.2331591,8.46750092 11.406722,8.26788768 C11.5806044,8.06827444 11.6673858,7.80329546 11.6673858,7.47359 C11.6673858,7.18703553 11.504371,6.93100638 11.1788209,6.70518291 C10.8532707,6.47951927 10.4824919,6.36668744 10.0656854,6.36668744 C9.61419827,6.36668744 9.2410222,6.47088907 8.94583753,6.67929232 C8.65928305,6.88753576 8.28610698,7.28692206 7.82598968,7.87713158 C7.74783846,7.98133321 7.63932173,8.03359384 7.5004395,8.03359384 C7.39623787,8.03359384 7.31377156,8.00754343 7.25304055,7.95560244 L5.53435298,6.65356155 C5.33473974,6.49725911 5.30005913,6.31506608 5.43015135,6.10666283 C6.541369,4.25772323 8.15153985,3.33317351 10.2608237,3.33317351 C11.0162855,3.33317351 11.7541673,3.51121126 12.4746288,3.86712694 C13.1950904,4.22288281 13.7961676,4.72647073 14.27818,5.37757108 C14.7595531,6.02851161 15.0007192,6.73602787 15.0007192,7.49996005 C15.0002397,7.88192613 14.9457416,8.2333669 14.8375445,8.55460197 L14.8375445,8.55460197 Z" id="Shape" fill="#FFFFFF"></path>
                </g>
            </g>
        </g>
    </g>
</svg>