<?xml version="1.0" encoding="UTF-8"?>
<svg width="40px" height="40px" viewBox="0 0 40 40" version="1.1" xmlns="http://www.w3.org/2000/svg" xmlns:xlink="http://www.w3.org/1999/xlink">
    <!-- Generator: Sketch 43.2 (39069) - http://www.bohemiancoding.com/sketch -->
    <title>icon-envelope</title>
    <desc>Created with Sketch.</desc>
    <defs></defs>
    <g id="Page-1" stroke="none" stroke-width="1" fill="none" fill-rule="evenodd">
        <g id="WDS-home-Copy" transform="translate(-770.000000, -1306.000000)">
            <g id="icon-envelope" transform="translate(770.000000, 1306.000000)">
                <circle id="Oval-2-Copy-2" fill="#00BFE7" cx="20" cy="20" r="20"></circle>
                <g id="envelope4" fill="#000000" transform="translate(10.000000, 12.000000)">
                    <g id="Group" fill="none">
                        <path d="M1.91958904,4.96593103 C2.17260274,5.14565517 2.93520548,5.67958621 4.20753425,6.56731034 C5.47986301,7.45503448 6.45452055,8.13862069 7.13164384,8.61793103 C7.2060274,8.67048276 7.36410959,8.78468966 7.60589041,8.96068966 C7.84767123,9.13682759 8.04863014,9.27931034 8.20849315,9.38786207 C8.36849315,9.49641379 8.56191781,9.6182069 8.78890411,9.75296552 C9.01589041,9.88772414 9.22986301,9.98896552 9.43068493,10.0561379 C9.63164384,10.1237241 9.81767123,10.1572414 9.98876712,10.1572414 L10,10.1572414 L10.0112329,10.1572414 C10.1823288,10.1572414 10.3683562,10.1237241 10.5693151,10.0561379 C10.770137,9.98896552 10.9842466,9.88758621 11.2110959,9.75296552 C11.4379452,9.61806897 11.6313699,9.49641379 11.7913699,9.38786207 C11.9513699,9.27931034 12.1521918,9.13682759 12.3939726,8.96068966 C12.6357534,8.78455172 12.7939726,8.67048276 12.8683562,8.61793103 C13.5527397,8.13848276 15.2939726,6.92110345 18.0915068,4.96565517 C18.6346575,4.58372414 19.0883562,4.12289655 19.4530137,3.58344828 C19.8178082,3.04427586 20,2.47862069 20,1.88675862 C20,1.39227586 19.8231507,0.968965517 19.469726,0.616827586 C19.1163014,0.264689655 18.6976712,0.0886896552 18.2142466,0.0886896552 L1.78561644,0.0886896552 C1.21273973,0.0886896552 0.771917808,0.283448276 0.463150685,0.672965517 C0.154383562,1.06262069 0,1.54965517 0,2.13393103 C0,2.60593103 0.204657534,3.11737931 0.613835616,3.668 C1.0230137,4.21862069 1.45835616,4.65131034 1.91958904,4.96593103 L1.91958904,4.96593103 Z" id="Shape" fill="#FFFFFF"></path>
                        <path d="M18.8838356,6.16827586 C16.4435616,7.83131034 14.5906849,9.12372414 13.3260274,10.0452414 C12.9019178,10.3598621 12.5578082,10.6053793 12.2935616,10.7812414 C12.0294521,10.9573793 11.6779452,11.1371034 11.2389041,11.3206897 C10.8,11.5042759 10.3908219,11.596 10.0113699,11.596 L10,11.596 L9.98876712,11.596 C9.60931507,11.596 9.2,11.5042759 8.76109589,11.3206897 C8.32219178,11.1371034 7.97054795,10.9573793 7.70643836,10.7812414 C7.44232877,10.6053793 7.09821918,10.3598621 6.67410959,10.0452414 C5.66958904,9.30358621 3.82068493,8.01117241 1.12726027,6.16827586 C0.703150685,5.88372414 0.32739726,5.55765517 0,5.19062069 L0,14.1131034 C0,14.6077241 0.174794521,15.0308966 0.524520548,15.3830345 C0.874246575,15.7353103 1.29465753,15.9113103 1.78575342,15.9113103 L18.2143836,15.9113103 C18.7053425,15.9113103 19.1257534,15.7353103 19.4754795,15.3830345 C19.8253425,15.0307586 20,14.6077241 20,14.1131034 L20,5.19062069 C19.68,5.55006897 19.3080822,5.87613793 18.8838356,6.16827586 L18.8838356,6.16827586 Z" id="Shape" fill="#FFFFFF"></path>
                    </g>
                </g>
            </g>
        </g>
    </g>
</svg>