<svg width="40" height="40" viewBox="0 0 40 40" xmlns="http://www.w3.org/2000/svg">
  <title>
    icon-envelope
  </title>
  <g fill="none" fill-rule="evenodd">
    <circle fill="#00BFE7" cx="20" cy="20" r="20"/>
    <g fill="#FFF">
      <path d="M11.92 16.966c.253.18 1.015.714 2.288 1.6 1.272.89 2.247 1.573 2.924 2.052.074.052.232.167.474.343.242.177.443.32.602.428.16.108.354.23.58.365.228.135.442.236.643.303.202.068.388.1.56.1h.02c.172 0 .358-.032.56-.1.2-.067.414-.168.64-.303.228-.135.42-.257.58-.365.16-.11.362-.25.604-.427.242-.175.4-.29.474-.342l5.224-3.652c.543-.382.996-.843 1.36-1.383.366-.54.548-1.104.548-1.696 0-.495-.177-.918-.53-1.27-.354-.352-.772-.528-1.256-.528H11.786c-.573 0-1.014.193-1.323.583-.31.39-.463.877-.463 1.46 0 .473.205.984.614 1.535.41.55.844.983 1.306 1.298z"/>
      <path d="M28.884 18.168c-2.44 1.663-4.293 2.956-5.558 3.877-.424.315-.768.56-1.032.736-.265.177-.616.357-1.055.54-.44.184-.85.276-1.23.276h-.02c-.38 0-.79-.092-1.23-.275-.438-.183-.79-.363-1.054-.54-.264-.175-.608-.42-1.032-.735-1.004-.74-2.853-2.034-5.547-3.877-.424-.284-.8-.61-1.127-.977v8.923c0 .495.175.918.525 1.27.35.352.77.528 1.26.528h16.43c.49 0 .91-.175 1.26-.527.35-.352.525-.775.525-1.27V17.19c-.32.36-.692.686-1.116.978z"/>
    </g>
  </g>
</svg>