<?xml version="1.0" encoding="UTF-8"?>
<svg xmlns="http://www.w3.org/2000/svg" width="40" height="40" viewBox="0 0 40 40">
  <g fill="none" fill-rule="evenodd">
    <circle cx="20" cy="20" r="20" fill="#00BDE3" fill-rule="nonzero"/>
    <path fill="#FFF" d="M13.0423453,23.1661238 C13.0423453,24.5537459 11.9087948,25.6872964 10.5211726,25.6872964 C9.13355049,25.6872964 8,24.5537459 8,23.1661238 C8,21.7785016 9.13355049,20.6449511 10.5211726,20.6449511 L13.0423453,20.6449511 L13.0423453,23.1661238 Z M14.3127036,23.1661238 C14.3127036,21.7785016 15.4462541,20.6449511 16.8338762,20.6449511 C18.2214984,20.6449511 19.3550489,21.7785016 19.3550489,23.1661238 L19.3550489,29.4788274 C19.3550489,30.8664495 18.2214984,32 16.8338762,32 C15.4462541,32 14.3127036,30.8664495 14.3127036,29.4788274 C14.3127036,29.4788274 14.3127036,23.1661238 14.3127036,23.1661238 Z M16.8338762,13.0423453 C15.4462541,13.0423453 14.3127036,11.9087948 14.3127036,10.5211726 C14.3127036,9.13355049 15.4462541,8 16.8338762,8 C18.2214984,8 19.3550489,9.13355049 19.3550489,10.5211726 L19.3550489,13.0423453 L16.8338762,13.0423453 Z M16.8338762,14.3127036 C18.2214984,14.3127036 19.3550489,15.4462541 19.3550489,16.8338762 C19.3550489,18.2214984 18.2214984,19.3550489 16.8338762,19.3550489 L10.5211726,19.3550489 C9.13355049,19.3550489 8,18.2214984 8,16.8338762 C8,15.4462541 9.13355049,14.3127036 10.5211726,14.3127036 C10.5211726,14.3127036 16.8338762,14.3127036 16.8338762,14.3127036 Z M26.9576547,16.8338762 C26.9576547,15.4462541 28.0912052,14.3127036 29.4788274,14.3127036 C30.8664495,14.3127036 32,15.4462541 32,16.8338762 C32,18.2214984 30.8664495,19.3550489 29.4788274,19.3550489 L26.9576547,19.3550489 L26.9576547,16.8338762 Z M25.6872964,16.8338762 C25.6872964,18.2214984 24.5537459,19.3550489 23.1661238,19.3550489 C21.7785016,19.3550489 20.6449511,18.2214984 20.6449511,16.8338762 L20.6449511,10.5211726 C20.6449511,9.13355049 21.7785016,8 23.1661238,8 C24.5537459,8 25.6872964,9.13355049 25.6872964,10.5211726 L25.6872964,16.8338762 Z M23.1661238,26.9576547 C24.5537459,26.9576547 25.6872964,28.0912052 25.6872964,29.4788274 C25.6872964,30.8664495 24.5537459,32 23.1661238,32 C21.7785016,32 20.6449511,30.8664495 20.6449511,29.4788274 L20.6449511,26.9576547 L23.1661238,26.9576547 Z M23.1661238,25.6872964 C21.7785016,25.6872964 20.6449511,24.5537459 20.6449511,23.1661238 C20.6449511,21.7785016 21.7785016,20.6449511 23.1661238,20.6449511 L29.4788274,20.6449511 C30.8664495,20.6449511 32,21.7785016 32,23.1661238 C32,24.5537459 30.8664495,25.6872964 29.4788274,25.6872964 L23.1661238,25.6872964 Z"/>
  </g>
</svg>
