<svg width="40" height="40" xmlns="http://www.w3.org/2000/svg">
  <title>Twitter Icon</title>
  <g fill-rule="nonzero" fill="none">
    <circle fill="#00BDE3" cx="20" cy="20" r="20"/>
    <path d="M31.852 12.444a9.69 9.69 0 01-2.797.753c1.053-.632 1.765-1.524 2.136-2.677a9.536 9.536 0 01-3.084 1.173c-.962-1.023-2.145-1.535-3.55-1.535-1.343 0-2.489.474-3.436 1.422-.948.947-1.422 2.093-1.422 3.436 0 .361.04.732.12 1.114a13.54 13.54 0 01-5.587-1.497 13.776 13.776 0 01-4.43-3.588 4.759 4.759 0 00-.661 2.452c0 .832.195 1.604.586 2.317a4.853 4.853 0 001.58 1.73 4.822 4.822 0 01-2.196-.618v.06c0 1.174.368 2.204 1.105 3.092a4.778 4.778 0 002.79 1.677c-.42.11-.847.166-1.278.166-.28 0-.587-.025-.918-.075a4.751 4.751 0 001.715 2.399c.833.627 1.775.95 2.828.97-1.765 1.384-3.775 2.076-6.031 2.076-.432 0-.823-.02-1.174-.06 2.256 1.454 4.743 2.18 7.46 2.18 1.726 0 3.345-.273 4.86-.82 1.513-.546 2.807-1.277 3.88-2.195a14.688 14.688 0 002.775-3.166 14.103 14.103 0 001.737-3.738 13.801 13.801 0 00.556-4.535 10.16 10.16 0 002.437-2.511" fill="#FFF"/>
  </g>
</svg>
