<svg xmlns="http://www.w3.org/2000/svg" viewBox="0 0 70 70"><title>new</title><g id="Layer_2" data-name="Layer 2"><g id="Layer_1-2" data-name="Layer 1"><circle cx="35" cy="35" r="35" fill="#e31c3d"/><path d="M26.1,40.06l5.41,7.72a.69.69,0,0,1-.35,1L30,49.28c-.37.17-.69,0-1-.35l-5.51-7.68" fill="none" stroke="#fff" stroke-linecap="round" stroke-linejoin="round"/><polygon points="24.02 35.62 24.01 35.61 21.39 36.86 17.86 37.75 20.54 43.44 23.56 41.25 26.11 40.06 26.1 40.06 46.41 37.3 39.09 21.74 24.02 35.62" fill="#e94964" stroke="#fff" stroke-linecap="round" stroke-linejoin="round"/><path d="M51.45,33.7a10,10,0,0,0-6.21-13.2" fill="none" stroke="#fff" stroke-linecap="round" stroke-linejoin="round"/><path d="M44.77,25.16a4.35,4.35,0,0,1,2.79,5.93" fill="none" stroke="#fff" stroke-linecap="round" stroke-linejoin="round"/><line x1="24.01" y1="35.62" x2="26.1" y2="40.06" fill="none" stroke="#fff" stroke-linecap="round" stroke-linejoin="round"/><line x1="21.39" y1="36.86" x2="23.56" y2="41.25" fill="none" stroke="#fff" stroke-linecap="round" stroke-linejoin="round"/></g></g></svg>