<?xml version="1.0" encoding="UTF-8"?>
<svg xmlns="http://www.w3.org/2000/svg" width="70" height="70" viewBox="0 0 70 70">
  <g fill="none">
    <circle cx="35" cy="35" r="35" fill="#D83933"/>
    <g transform="translate(18 16)">
      <polygon fill="#E9695F" stroke="#FFF" points="33.764 20.642 33.764 28.852 26.586 32.98 26.586 24.77 32.442 21.393"/>
      <polygon fill="#FFF" points="24.981 15.575 24.981 22.894 24.556 22.659 18.606 19.235"/>
      <polygon fill="#E9695F" points="32.961 19.235 31.639 19.985 26.586 22.894 26.586 15.575"/>
      <polygon fill="#FFF" points="33.764 10.556 33.764 17.827 27.436 14.168"/>
      <polygon fill="#E9695F" points="32.961 9.148 26.586 12.807 26.586 5.489"/>
      <polygon fill="#E9695F" stroke="#FFF" points="24.178 4.081 21.533 5.63 17 8.21 11.428 5.02 9.822 4.081 17 0"/>
      <polygon fill="#FFF" points="24.981 5.489 24.981 12.807 18.606 9.148 22.336 7.037"/>
      <polygon fill="#E9695F" points="24.178 14.168 17.803 17.827 17.803 10.556"/>
      <polygon fill="#FFF" points="16.197 10.556 16.197 17.827 9.822 14.168"/>
      <polygon fill="#E9695F" points="15.394 9.148 9.067 12.76 9.019 12.807 9.019 5.489 9.067 5.536 10.625 6.427"/>
      <polygon fill="#FFF" points="7.414 5.489 7.414 12.807 1.039 9.148 1.039 9.148"/>
      <polygon fill="#E9695F" points="6.564 14.168 .236 17.827 .236 10.556"/>
      <polygon fill="#E9695F" points="15.394 19.235 14.356 19.798 11.947 21.205 11.806 21.252 9.067 22.847 9.019 22.894 9.019 22.894 9.019 15.575 9.067 15.622"/>
      <polygon fill="#FFF" points="7.414 15.575 7.414 22.894 4.297 21.111 1.039 19.235"/>
      <polygon fill="#E9695F" stroke="#FFF" points="7.414 24.77 7.414 32.98 .236 28.852 .236 20.642 3.494 22.519"/>
      <polygon fill="#E9695F" points="15.394 29.321 9.019 32.98 9.019 25.662 9.067 25.709"/>
      <polygon fill="#FFF" points="16.197 20.642 16.197 27.914 9.822 24.301 9.822 24.254 10.342 23.973"/>
      <polygon fill="#E9695F" points="24.178 24.301 17.803 27.914 17.803 20.642 23.753 24.02"/>
      <polygon fill="#FFF" points="24.981 25.662 24.981 32.98 18.606 29.321"/>
      <polygon fill="#E9695F" points="24.178 34.388 18.983 37.343 17.803 38 17.803 30.728"/>
      <polygon fill="#FFF" points="16.197 30.728 16.197 38 9.822 34.388"/>
    </g>
  </g>
</svg>
