<?xml version="1.0" encoding="UTF-8"?>
<svg xmlns="http://www.w3.org/2000/svg" width="492" height="288" viewBox="0 0 492 288">
  <defs>
    <linearGradient id="accessible-color-system--alt-a" x1="0%" x2="100%" y1="98.25%" y2="98.25%">
      <stop offset="0%" stop-color="#E1E7F1"/>
      <stop offset="100%" stop-color="#805039"/>
    </linearGradient>
    <linearGradient id="accessible-color-system--alt-b" x1="0%" x2="100%" y1="98.25%" y2="98.25%">
      <stop offset="0%" stop-color="#E1E7F1"/>
      <stop offset="100%" stop-color="#332D29"/>
    </linearGradient>
    <linearGradient id="accessible-color-system--alt-c" x1="2.669%" x2="100%" y1="98.25%" y2="98.25%">
      <stop offset="0%" stop-color="#E1E7F1"/>
      <stop offset="68.342%" stop-color="#E3837A"/>
      <stop offset="100%" stop-color="#E52207"/>
    </linearGradient>
    <linearGradient id="accessible-color-system--alt-d" x1="0%" x2="100%" y1="98.25%" y2="98.25%">
      <stop offset="0%" stop-color="#E1E7F1"/>
      <stop offset="100%" stop-color="#0050D8"/>
    </linearGradient>
    <linearGradient id="accessible-color-system--alt-e" x1="0%" x2="100%" y1="98.25%" y2="98.25%">
      <stop offset="0%" stop-color="#E1E7F1"/>
      <stop offset="100%" stop-color="#2672DE"/>
    </linearGradient>
    <linearGradient id="accessible-color-system--alt-f" x1="0%" x2="100%" y1="98.25%" y2="98.25%">
      <stop offset="0%" stop-color="#E1E7F1"/>
      <stop offset="100%" stop-color="#162E51"/>
    </linearGradient>
  </defs>
  <g fill="none" fill-rule="evenodd">
    <rect width="492" height="288" fill="#F0F0F0"/>
    <g transform="translate(106 17)">
      <path stroke="#DBDEE1" stroke-dasharray="1.134 2.268" stroke-linecap="round" stroke-width="1.134" d="M1.13306452.981113979L1.13306452 118.570418M64.5846774 34.8308625L64.5846774 118.570418M128.03629 34.8308625L128.03629 118.570418M192.620968 34.8308625L192.620968 118.570418M32.858871 34.8308625L32.858871 118.570418M96.3104839 34.8308625L96.3104839 118.570418M159.762097 34.8308625L159.762097 118.570418M224.346774 34.8308625L224.346774 118.570418M254.939516 34.8308625L254.939516 114.210083" transform="translate(12.464 127)"/>
      <path stroke="#DBDEE1" stroke-dasharray="1.134 2.268" stroke-linecap="round" stroke-width="1.134" d="M1.13306452.813005391L1.13306452 84.5525606M64.5846774.813005391L64.5846774 84.5525606M128.03629.813005391L128.03629 84.5525606M192.620968.813005391L192.620968 84.5525606M32.858871.813005391L32.858871 84.5525606M96.3104839.813005391L96.3104839 84.5525606M159.762097.813005391L159.762097 84.5525606M224.346774.813005391L224.346774 84.5525606M254.939516.813005391L254.939516 84.5525606" transform="translate(12.464 9.071)"/>
      <rect width="27.194" height="27.214" x="158.629" y="30.616" fill="#0050D8" rx="2.268"/>
      <rect width="27.194" height="27.214" x="222.081" y="226.786" fill="#332D29" rx="2.268"/>
      <g transform="translate(126.903 165.554)">
        <rect width="27.194" height="27.214" fill="#D63E04" rx="2.268"/>
        <path fill="#E1E7F1" fill-rule="nonzero" d="M2.37377016,19.2767857 L6.4822621,7.79916071 L8.92514919,7.79916071 L13.0177782,19.2767857 L10.7176573,19.2767857 L9.78174597,16.6097857 L5.65739113,16.6097857 L4.68975403,19.2767857 L2.37377016,19.2767857 Z M6.16500403,14.5936607 L9.22654435,14.5936607 L7.70370565,10.0375357 L6.16500403,14.5936607 Z M14.1916331,19.2767857 L18.300125,7.79916071 L20.7430121,7.79916071 L24.8356411,19.2767857 L22.5355202,19.2767857 L21.5996089,16.6097857 L17.475254,16.6097857 L16.5076169,19.2767857 L14.1916331,19.2767857 Z M17.9828669,14.5936607 L21.0444073,14.5936607 L19.5215685,10.0375357 L17.9828669,14.5936607 Z"/>
      </g>
      <g transform="translate(158.629 196.17)">
        <rect width="27.194" height="27.214" fill="#805039" rx="2.268"/>
        <path fill="#E1E7F1" fill-rule="nonzero" d="M5.9202621,18.1428571 L8.88889113,9.94455357 L10.0446169,9.94455357 L13.0019153,18.1428571 L11.9708266,18.1428571 L11.1550202,15.8863393 L7.7784879,15.8863393 L6.95135081,18.1428571 L5.9202621,18.1428571 Z M8.03909274,14.9451786 L10.8830847,14.9451786 L9.46675403,10.95375 L8.03909274,14.9451786 Z M14.2029637,18.1428571 L17.1715927,9.94455357 L18.3273185,9.94455357 L21.2846169,18.1428571 L20.2535282,18.1428571 L19.4377218,15.8863393 L16.0611895,15.8863393 L15.2340524,18.1428571 L14.2029637,18.1428571 Z M16.3217944,14.9451786 L19.1657863,14.9451786 L17.7494556,10.95375 L16.3217944,14.9451786 Z"/>
      </g>
      <path fill="#E1E7F1" fill-rule="nonzero" d="M0.645846774,11.3392857 L3.61447581,3.14098214 L4.77020161,3.14098214 L7.7275,11.3392857 L6.69641129,11.3392857 L5.88060484,9.08276786 L2.50407258,9.08276786 L1.67693548,11.3392857 L0.645846774,11.3392857 Z M2.76467742,8.14160714 L5.60866935,8.14160714 L4.19233871,4.15017857 L2.76467742,8.14160714 Z M8.92854839,11.3392857 L11.8971774,3.14098214 L13.0529032,3.14098214 L16.0102016,11.3392857 L14.9791129,11.3392857 L14.1633065,9.08276786 L10.7867742,9.08276786 L9.9596371,11.3392857 L8.92854839,11.3392857 Z M11.047379,8.14160714 L13.891371,8.14160714 L12.4750403,4.15017857 L11.047379,8.14160714 Z M17.21125,11.3392857 L20.179879,3.14098214 L21.3356048,3.14098214 L24.2929032,11.3392857 L23.2618145,11.3392857 L22.4460081,9.08276786 L19.0694758,9.08276786 L18.2423387,11.3392857 L17.21125,11.3392857 Z M19.3300806,8.14160714 L22.1740726,8.14160714 L20.7577419,4.15017857 L19.3300806,8.14160714 Z" transform="translate(223.214 233.59)"/>
      <path stroke="url(#accessible-color-system--alt-a)" stroke-linecap="square" stroke-width="1.134" d="M160.328629,209.776786 L13.5967742,209.776786"/>
      <path stroke="url(#accessible-color-system--alt-b)" stroke-linecap="square" stroke-width="1.134" d="M221.558373,240.392857 L13.5967742,240.392857"/>
      <path stroke="url(#accessible-color-system--alt-c)" stroke-linecap="square" stroke-width="1.134" d="M126.903226,179.160714 L13.5967742,179.160714"/>
      <rect width="27.194" height="27.214" x="222.081" fill="#162E51" rx="2.268"/>
      <ellipse cx="13.597" cy="13.607" fill="#E1E7F1" stroke="#FFF" stroke-width="1.134" rx="3.965" ry="3.969"/>
      <ellipse cx="13.597" cy="179.161" fill="#E1E7F1" stroke="#FFF" stroke-width="1.134" rx="3.965" ry="3.969"/>
      <ellipse cx="45.323" cy="179.161" fill="#E2B9BA" stroke="#FFF" stroke-width="1.134" rx="3.965" ry="3.969"/>
      <ellipse cx="77.048" cy="179.161" fill="#E38E88" stroke="#FFF" stroke-width="1.134" rx="3.965" ry="3.969"/>
      <ellipse cx="108.774" cy="179.161" fill="#E44531" stroke="#FFF" stroke-width="1.134" rx="3.965" ry="3.969"/>
      <ellipse cx="13.597" cy="44.223" fill="#E1E7F1" stroke="#FFF" stroke-width="1.134" rx="3.965" ry="3.969"/>
      <ellipse cx="13.597" cy="209.777" fill="#E1E7F1" stroke="#FFF" stroke-width="1.134" rx="3.965" ry="3.969"/>
      <ellipse cx="45.323" cy="209.777" fill="#C7BEBF" stroke="#FFF" stroke-width="1.134" rx="3.965" ry="3.969"/>
      <ellipse cx="77.048" cy="209.777" fill="#B39F99" stroke="#FFF" stroke-width="1.134" rx="3.965" ry="3.969"/>
      <ellipse cx="108.774" cy="209.777" fill="#9E7F73" stroke="#FFF" stroke-width="1.134" rx="3.965" ry="3.969"/>
      <ellipse cx="140.5" cy="209.777" fill="#8A604C" stroke="#FFF" stroke-width="1.134" rx="3.965" ry="3.969"/>
      <ellipse cx="13.597" cy="74.839" fill="#E1E7F1" stroke="#FFF" stroke-width="1.134" rx="3.965" ry="3.969"/>
      <ellipse cx="13.597" cy="240.393" fill="#E1E7F1" stroke="#FFF" stroke-width="1.134" rx="3.965" ry="3.969"/>
      <ellipse cx="45.323" cy="240.393" fill="#C0C4CB" stroke="#FFF" stroke-width="1.134" rx="3.965" ry="3.969"/>
      <ellipse cx="77.048" cy="240.393" fill="#A7A9AE" stroke="#FFF" stroke-width="1.134" rx="3.965" ry="3.969"/>
      <ellipse cx="108.774" cy="240.393" fill="#8C8C90" stroke="#FFF" stroke-width="1.134" rx="3.965" ry="3.969"/>
      <ellipse cx="140.5" cy="240.393" fill="#727072" stroke="#FFF" stroke-width="1.134" rx="3.965" ry="3.969"/>
      <ellipse cx="172.226" cy="240.393" fill="#575453" stroke="#FFF" stroke-width="1.134" rx="3.965" ry="3.969"/>
      <ellipse cx="203.952" cy="240.393" fill="#3E3835" stroke="#FFF" stroke-width="1.134" rx="3.965" ry="3.969"/>
      <path stroke="url(#accessible-color-system--alt-d)" stroke-linecap="square" stroke-width="1.134" d="M160.328629,43.65625 L15.8629032,43.65625"/>
      <rect width="27.194" height="27.214" x="126.903" y="61.232" fill="#2672DE" rx="2.268"/>
      <path stroke="url(#accessible-color-system--alt-e)" stroke-linecap="square" stroke-width="1.134" d="M132.002016,74.2723214 L14.7298387,74.2723214"/>
      <path stroke="url(#accessible-color-system--alt-f)" stroke-linecap="square" stroke-width="1.134" d="M223.21371,13.0401786 L14.7298387,13.0401786"/>
      <path fill="#E1E7F1" fill-rule="nonzero" d="M1.24070565,15.875 L5.34919758,4.397375 L7.79208468,4.397375 L11.8847137,15.875 L9.58459274,15.875 L8.64868145,13.208 L4.52432661,13.208 L3.55668952,15.875 L1.24070565,15.875 Z M5.03193952,11.191875 L8.09347984,11.191875 L6.57064113,6.63575 L5.03193952,11.191875 Z M13.0585685,15.875 L17.1670605,4.397375 L19.6099476,4.397375 L23.7025766,15.875 L21.4024556,15.875 L20.4665444,13.208 L16.3421895,13.208 L15.3745524,15.875 L13.0585685,15.875 Z M16.8498024,11.191875 L19.9113427,11.191875 L18.388504,6.63575 L16.8498024,11.191875 Z" transform="translate(128.036 64.634)"/>
      <path fill="#E1E7F1" fill-rule="nonzero" d="M1.38800403,11.3392857 L4.35663306,3.14098214 L5.51235887,3.14098214 L8.46965726,11.3392857 L7.43856855,11.3392857 L6.6227621,9.08276786 L3.24622984,9.08276786 L2.41909274,11.3392857 L1.38800403,11.3392857 Z M3.50683468,8.14160714 L6.35082661,8.14160714 L4.93449597,4.15017857 L3.50683468,8.14160714 Z M9.67070565,11.3392857 L12.6393347,3.14098214 L13.7950605,3.14098214 L16.7523589,11.3392857 L15.7212702,11.3392857 L14.9054637,9.08276786 L11.5289315,9.08276786 L10.7017944,11.3392857 L9.67070565,11.3392857 Z M11.7895363,8.14160714 L14.6335282,8.14160714 L13.2171976,4.15017857 L11.7895363,8.14160714 Z" transform="translate(163.161 37.42)"/>
      <path fill="#E1E7F1" fill-rule="nonzero" d="M0.645846774,11.3392857 L3.61447581,3.14098214 L4.77020161,3.14098214 L7.7275,11.3392857 L6.69641129,11.3392857 L5.88060484,9.08276786 L2.50407258,9.08276786 L1.67693548,11.3392857 L0.645846774,11.3392857 Z M2.76467742,8.14160714 L5.60866935,8.14160714 L4.19233871,4.15017857 L2.76467742,8.14160714 Z M8.92854839,11.3392857 L11.8971774,3.14098214 L13.0529032,3.14098214 L16.0102016,11.3392857 L14.9791129,11.3392857 L14.1633065,9.08276786 L10.7867742,9.08276786 L9.9596371,11.3392857 L8.92854839,11.3392857 Z M11.047379,8.14160714 L13.891371,8.14160714 L12.4750403,4.15017857 L11.047379,8.14160714 Z M17.21125,11.3392857 L20.179879,3.14098214 L21.3356048,3.14098214 L24.2929032,11.3392857 L23.2618145,11.3392857 L22.4460081,9.08276786 L19.0694758,9.08276786 L18.2423387,11.3392857 L17.21125,11.3392857 Z M19.3300806,8.14160714 L22.1740726,8.14160714 L20.7577419,4.15017857 L19.3300806,8.14160714 Z" transform="translate(223.214 6.804)"/>
      <ellipse cx="45.323" cy="13.607" fill="#B7CAF0" stroke="#FFF" stroke-width="1.134" rx="3.965" ry="3.969"/>
      <ellipse cx="77.048" cy="13.607" fill="#81AEFC" stroke="#FFF" stroke-width="1.134" rx="3.965" ry="3.969"/>
      <ellipse cx="108.774" cy="13.607" fill="#5994F6" stroke="#FFF" stroke-width="1.134" rx="3.965" ry="3.969"/>
      <ellipse cx="140.5" cy="13.607" fill="#2672DE" stroke="#FFF" stroke-width="1.134" rx="3.965" ry="3.969"/>
      <ellipse cx="172.226" cy="13.607" fill="#0050D8" stroke="#FFF" stroke-width="1.134" rx="3.965" ry="3.969"/>
      <ellipse cx="205.085" cy="13.607" fill="#162E51" stroke="#FFF" stroke-width="1.134" rx="3.965" ry="3.969"/>
      <ellipse cx="45.323" cy="44.223" fill="#B7CAF0" stroke="#FFF" stroke-width="1.134" rx="3.965" ry="3.969"/>
      <ellipse cx="77.048" cy="44.223" fill="#81AEFC" stroke="#FFF" stroke-width="1.134" rx="3.965" ry="3.969"/>
      <ellipse cx="108.774" cy="44.223" fill="#5994F6" stroke="#FFF" stroke-width="1.134" rx="3.965" ry="3.969"/>
      <ellipse cx="140.5" cy="44.223" fill="#2672DE" stroke="#FFF" stroke-width="1.134" rx="3.965" ry="3.969"/>
      <ellipse cx="45.323" cy="74.839" fill="#B7CAF0" stroke="#FFF" stroke-width="1.134" rx="3.965" ry="3.969"/>
      <ellipse cx="77.048" cy="74.839" fill="#81AEFC" stroke="#FFF" stroke-width="1.134" rx="3.965" ry="3.969"/>
      <ellipse cx="108.774" cy="74.839" fill="#5994F6" stroke="#FFF" stroke-width="1.134" rx="3.965" ry="3.969"/>
      <rect width="27.194" height="27.214" y="97.518" fill="#E1E7F1" rx="2.268"/>
      <rect width="27.194" height="27.214" x="31.726" y="97.518" fill="#B7CAF0" rx="2.268"/>
      <rect width="27.194" height="27.214" x="63.452" y="97.518" fill="#81AEFC" rx="2.268"/>
      <rect width="27.194" height="27.214" x="95.177" y="97.518" fill="#5994F6" rx="2.268"/>
      <rect width="27.194" height="27.214" x="126.903" y="97.518" fill="#2672DE" rx="2.268"/>
      <rect width="27.194" height="27.214" x="158.629" y="97.518" fill="#0050D8" rx="2.268"/>
      <rect width="27.194" height="27.214" x="190.355" y="97.518" fill="#1A4480" rx="2.268"/>
      <rect width="27.194" height="27.214" x="222.081" y="97.518" fill="#162E51" rx="2.268"/>
      <rect width="27.194" height="27.214" x="253.806" y="97.518" fill="#13171F" rx="2.268"/>
      <rect width="27.194" height="27.214" x="31.726" y="129.268" fill="#F6BD9C" rx="2.268"/>
      <rect width="27.194" height="27.214" x="63.452" y="129.268" fill="#F39268" rx="2.268"/>
      <rect width="27.194" height="27.214" x="95.177" y="129.268" fill="#EE601D" rx="2.268"/>
      <rect width="27.194" height="27.214" x="126.903" y="129.268" fill="#D63E04" rx="2.268"/>
      <rect width="27.194" height="27.214" x="158.629" y="129.268" fill="#805039" rx="2.268"/>
      <rect width="27.194" height="27.214" x="190.355" y="129.268" fill="#524236" rx="2.268"/>
      <rect width="27.194" height="27.214" x="222.081" y="129.268" fill="#332D29" rx="2.268"/>
      <rect width="27.194" height="27.214" x="253.806" y="129.268" fill="#1F1C18" rx="2.268"/>
    </g>
  </g>
</svg>
