<?xml version="1.0" encoding="UTF-8"?>
<svg xmlns="http://www.w3.org/2000/svg" width="492" height="288" viewBox="0 0 492 288">
  <defs>
    <rect id="easier-incremental-adoption--alt-a" width="91.55" height="142.411" x="0" y="0" rx="2.543"/>
    <rect id="easier-incremental-adoption--alt-c" width="105.769" height="69.059" x="0" y="0"/>
    <polygon id="easier-incremental-adoption--alt-e" points="25.229 39.058 0 39.056 12.613 0"/>
    <polygon id="easier-incremental-adoption--alt-g" points="40.896 0 33.098 24.136 .069 0"/>
    <polygon id="easier-incremental-adoption--alt-i" points=".147 14.916 20.558 0 33.176 39.055"/>
    <polygon id="easier-incremental-adoption--alt-k" points="12.616 .078 33.026 14.996 0 39.136"/>
    <polygon id="easier-incremental-adoption--alt-m" points="7.795 24.139 0 .003 40.824 0"/>
    <rect id="easier-incremental-adoption--alt-o" width="66.119" height="94.728" x="0" y="0" rx="2.543"/>
    <rect id="easier-incremental-adoption--alt-q" width="123.458" height="70.57" x="0" y="0"/>
    <polygon id="easier-incremental-adoption--alt-s" points="54.313 84.909 0 84.905 27.153 0"/>
    <polygon id="easier-incremental-adoption--alt-u" points="88.041 0 71.253 52.469 .149 0"/>
    <polygon id="easier-incremental-adoption--alt-w" points=".316 32.425 44.258 0 71.421 84.902"/>
    <polygon id="easier-incremental-adoption--alt-y" points="27.16 .169 71.098 32.6 0 85.078"/>
    <polygon id="easier-incremental-adoption--alt-A" points="16.78 52.477 0 .006 87.886 0"/>
    <rect id="easier-incremental-adoption--alt-C" width="66.119" height="108.079" x="0" y="0" rx="2.543"/>
    <rect id="easier-incremental-adoption--alt-E" width="91.55" height="91.55" x="0" y="0" rx="2.543"/>
    <rect id="easier-incremental-adoption--alt-G" width="105.769" height="40.852" x="0" y="0"/>
    <polygon id="easier-incremental-adoption--alt-I" points="77.089 120.005 0 120 38.539 0"/>
    <polygon id="easier-incremental-adoption--alt-K" points="124.961 0 101.134 74.156 .212 0"/>
    <polygon id="easier-incremental-adoption--alt-M" points=".448 45.827 62.817 0 101.372 119.995"/>
    <polygon id="easier-incremental-adoption--alt-O" points="38.55 .239 100.913 46.075 0 120.244"/>
    <polygon id="easier-incremental-adoption--alt-Q" points="23.817 74.167 0 .008 124.741 0"/>
    <rect id="easier-incremental-adoption--alt-S" width="25.43" height="50.861" x="0" y="0" rx="2.543"/>
    <rect id="easier-incremental-adoption--alt-U" width="106.187" height="27.175" x="0" y="0"/>
    <polygon id="easier-incremental-adoption--alt-W" points="42.749 66.795 0 66.792 21.372 0"/>
    <polygon id="easier-incremental-adoption--alt-Y" points="69.296 0 56.083 41.275 .117 0"/>
    <polygon id="easier-incremental-adoption--alt-aa" points=".248 25.508 34.835 0 56.215 66.789"/>
    <polygon id="easier-incremental-adoption--alt-ac" points="21.377 .133 55.961 25.646 0 66.928"/>
    <polygon id="easier-incremental-adoption--alt-ae" points="13.207 41.282 0 .005 69.174 0"/>
    <path id="easier-incremental-adoption--alt-ag" d="M0.335178465,1.7636335 C-0.111726155,1.36017794 -0.111726155,0.706047229 0.335178465,0.30259167 C0.782083085,-0.10086389 1.50665864,-0.10086389 1.95356326,0.30259167 L7.3402391,5.16556291 L1.95356326,10.0285342 C1.50665864,10.4319897 0.782083085,10.4319897 0.335178465,10.0285342 C-0.111726155,9.6250786 -0.111726155,8.97094789 0.335178465,8.56749233 L4.10346951,5.16556291 L0.335178465,1.7636335 Z"/>
    <rect id="easier-incremental-adoption--alt-ai" width="144" height="236" x="0" y="0" rx="4"/>
    <rect id="easier-incremental-adoption--alt-ak" width="166.365" height="42" x="0" y="0"/>
    <rect id="easier-incremental-adoption--alt-am" width="144" height="236" x="0" y="0" rx="4"/>
    <rect id="easier-incremental-adoption--alt-ao" width="166.365" height="64" x="0" y="0"/>
    <polygon id="easier-incremental-adoption--alt-aq" points="73.169 115.056 0 115.051 36.58 0"/>
    <polygon id="easier-incremental-adoption--alt-as" points="118.607 0 95.991 71.098 .201 0"/>
    <polygon id="easier-incremental-adoption--alt-au" points=".425 43.938 59.623 0 96.217 115.046"/>
    <polygon id="easier-incremental-adoption--alt-aw" points="36.589 .229 95.781 44.175 0 115.285"/>
    <polygon id="easier-incremental-adoption--alt-ay" points="22.606 71.109 0 .008 118.398 0"/>
    <path id="easier-incremental-adoption--alt-aA" d="M2,0 L113,0 C114.104569,-2.02906125e-16 115,0.8954305 115,2 L115,2 C115,3.1045695 114.104569,4 113,4 L2,4 C0.8954305,4 1.3527075e-16,3.1045695 0,2 L0,2 C-1.3527075e-16,0.8954305 0.8954305,2.02906125e-16 2,0 Z"/>
    <filter id="easier-incremental-adoption--alt-aB" width="173%" height="2200%" x="-36.5%" y="-750%" filterUnits="objectBoundingBox">
      <feOffset dy="12" in="SourceAlpha" result="shadowOffsetOuter1"/>
      <feGaussianBlur in="shadowOffsetOuter1" result="shadowBlurOuter1" stdDeviation="12"/>
      <feColorMatrix in="shadowBlurOuter1" values="0 0 0 0 0   0 0 0 0 0   0 0 0 0 0  0 0 0 0 0"/>
    </filter>
    <path id="easier-incremental-adoption--alt-aD" d="M1,0 L15,0 C15.5522847,-1.01453063e-16 16,0.44771525 16,1 L16,1 C16,1.55228475 15.5522847,2 15,2 L1,2 C0.44771525,2 6.76353751e-17,1.55228475 0,1 L0,1 C-6.76353751e-17,0.44771525 0.44771525,1.01453063e-16 1,0 Z"/>
    <filter id="easier-incremental-adoption--alt-aE" width="625%" height="4300%" x="-262.5%" y="-1500%" filterUnits="objectBoundingBox">
      <feOffset dy="12" in="SourceAlpha" result="shadowOffsetOuter1"/>
      <feGaussianBlur in="shadowOffsetOuter1" result="shadowBlurOuter1" stdDeviation="12"/>
      <feColorMatrix in="shadowBlurOuter1" values="0 0 0 0 0   0 0 0 0 0   0 0 0 0 0  0 0 0 0 0"/>
    </filter>
    <path id="easier-incremental-adoption--alt-aG" d="M1,0 L15,0 C15.5522847,-1.01453063e-16 16,0.44771525 16,1 L16,1 C16,1.55228475 15.5522847,2 15,2 L1,2 C0.44771525,2 6.76353751e-17,1.55228475 0,1 L0,1 C-6.76353751e-17,0.44771525 0.44771525,1.01453063e-16 1,0 Z"/>
    <filter id="easier-incremental-adoption--alt-aH" width="625%" height="4300%" x="-262.5%" y="-1500%" filterUnits="objectBoundingBox">
      <feOffset dy="12" in="SourceAlpha" result="shadowOffsetOuter1"/>
      <feGaussianBlur in="shadowOffsetOuter1" result="shadowBlurOuter1" stdDeviation="12"/>
      <feColorMatrix in="shadowBlurOuter1" values="0 0 0 0 0   0 0 0 0 0   0 0 0 0 0  0 0 0 0 0"/>
    </filter>
    <path id="easier-incremental-adoption--alt-aJ" d="M0.292893219,1.70710678 C-0.0976310729,1.31658249 -0.0976310729,0.683417511 0.292893219,0.292893219 C0.683417511,-0.0976310729 1.31658249,-0.0976310729 1.70710678,0.292893219 L6.41421356,5 L1.70710678,9.70710678 C1.31658249,10.0976311 0.683417511,10.0976311 0.292893219,9.70710678 C-0.0976310729,9.31658249 -0.0976310729,8.68341751 0.292893219,8.29289322 L3.58578644,5 L0.292893219,1.70710678 Z"/>
  </defs>
  <g fill="none" fill-rule="evenodd">
    <g transform="translate(-.636)">
      <rect width="492.079" height="288" x=".636" fill="#F0F0F0"/>
      <g opacity=".1" transform="translate(289.272 61.669)">
        <mask id="easier-incremental-adoption--alt-b" fill="#fff">
          <use href="#easier-incremental-adoption--alt-a"/>
        </mask>
        <rect width="92.821" height="143.682" x="-.636" y="-.636" stroke="#171717" stroke-width="1.272" rx="2.543"/>
        <g mask="url(#easier-incremental-adoption--alt-b)">
          <g transform="translate(-5.086 11.444)">
            <mask id="easier-incremental-adoption--alt-d" fill="#fff">
              <use href="#easier-incremental-adoption--alt-c"/>
            </mask>
            <g mask="url(#easier-incremental-adoption--alt-d)">
              <g transform="translate(-19.587 34.53)">
                <g transform="translate(46.703 2.178)">
                  <mask id="easier-incremental-adoption--alt-f" fill="#fff">
                    <use href="#easier-incremental-adoption--alt-e"/>
                  </mask>
                  <g fill="#919191" mask="url(#easier-incremental-adoption--alt-f)">
                    <polygon points="0 0 25.803 0 25.803 43.74 0 43.74" transform="translate(-.31 -2.178)"/>
                  </g>
                </g>
                <g transform="translate(15.464)">
                  <mask id="easier-incremental-adoption--alt-h" fill="#fff">
                    <use href="#easier-incremental-adoption--alt-g"/>
                  </mask>
                  <g fill="#919191" mask="url(#easier-incremental-adoption--alt-h)">
                    <polygon points="0 0 44.658 0 44.658 24.413 0 24.413" transform="translate(-1.701)"/>
                  </g>
                </g>
                <g transform="translate(.928 29.712)">
                  <mask id="easier-incremental-adoption--alt-j" fill="#fff">
                    <use href="#easier-incremental-adoption--alt-i"/>
                  </mask>
                  <g fill="#919191" mask="url(#easier-incremental-adoption--alt-j)">
                    <polygon points="0 0 36.719 0 36.719 43.74 0 43.74" transform="translate(-1.701 -2.489)"/>
                  </g>
                </g>
                <g transform="translate(0 2.022)">
                  <mask id="easier-incremental-adoption--alt-l" fill="#fff">
                    <use href="#easier-incremental-adoption--alt-k"/>
                  </mask>
                  <g fill="#919191" mask="url(#easier-incremental-adoption--alt-l)">
                    <polygon points="0 0 34.734 0 34.734 45.775 0 45.775" transform="translate(-.773 -2.022)"/>
                  </g>
                </g>
                <g transform="translate(30.001 44.645)">
                  <mask id="easier-incremental-adoption--alt-n" fill="#fff">
                    <use href="#easier-incremental-adoption--alt-m"/>
                  </mask>
                  <g fill="#2E2E2E" mask="url(#easier-incremental-adoption--alt-n)">
                    <polygon points="0 0 53.59 0 53.59 39.672 0 39.672" transform="translate(-6.959 -11.511)"/>
                  </g>
                </g>
              </g>
            </g>
          </g>
        </g>
        <path fill="#171717" d="M3.81456954,2.54304636 C4.5168124,2.54304636 5.08609272,3.11232668 5.08609272,3.81456954 C5.08609272,4.5168124 4.5168124,5.08609272 3.81456954,5.08609272 C3.11232668,5.08609272 2.54304636,4.5168124 2.54304636,3.81456954 C2.54304636,3.11232668 3.11232668,2.54304636 3.81456954,2.54304636 Z M8.90066225,2.54304636 C9.60290511,2.54304636 10.1721854,3.11232668 10.1721854,3.81456954 C10.1721854,4.5168124 9.60290511,5.08609272 8.90066225,5.08609272 C8.19841939,5.08609272 7.62913907,4.5168124 7.62913907,3.81456954 C7.62913907,3.11232668 8.19841939,2.54304636 8.90066225,2.54304636 Z M13.986755,2.54304636 C14.6889978,2.54304636 15.2582781,3.11232668 15.2582781,3.81456954 C15.2582781,4.5168124 14.6889978,5.08609272 13.986755,5.08609272 C13.2845121,5.08609272 12.7152318,4.5168124 12.7152318,3.81456954 C12.7152318,3.11232668 13.2845121,2.54304636 13.986755,2.54304636 Z" mask="url(#easier-incremental-adoption--alt-b)"/>
      </g>
      <path stroke="#FFF" stroke-dasharray="3.179 1.272" stroke-width="1.272" d="M282.278146 36.2384106L105.536424 241.589404M296.264901 29.8807947L323.602649 50.8609272M288.635762 30.1986755L231.417219 30.1986755M205.986755 6.99337748C174.538146 6.99337748 157.041821 6.99337748 153.497781 6.99337748 148.181722 6.99337748 144.317881 10.9414677 144.317881 16.3966468 144.317881 20.0334329 144.317881 29.8261621 144.317881 45.7748344"/>
      <path stroke="#FFF" stroke-dasharray="3.179 1.272" stroke-width="1.272" d="M61.6688742,41.3245033 C30.2202649,41.3245033 12.7239404,41.3245033 9.17990066,41.3245033 C3.86384106,41.3245033 2.07370898e-12,45.2725935 8.97027628e-13,50.7277726 C1.12637259e-13,54.3645587 -1.8637195e-13,64.1572879 0,80.1059603" transform="matrix(-1 0 0 1 61.669 0)"/>
      <path stroke="#FFF" stroke-dasharray="3.179 1.272" stroke-width="1.272" d="M507.97351,206.622517 C476.524901,206.622517 459.028576,206.622517 455.484536,206.622517 C450.168477,206.622517 446.304636,210.570607 446.304636,216.025786 C446.304636,219.662572 446.304636,229.455301 446.304636,245.403974" transform="matrix(1 0 0 -1 0 452.026)"/>
      <g transform="translate(272.106 15.258)">
        <circle cx="15.258" cy="15.258" r="15.258" fill="#FFF"/>
        <path fill="#F0F0F0" d="M10.1721854,13.986755 C10.8744283,13.986755 11.4437086,14.5560353 11.4437086,15.2582781 C11.4437086,15.960521 10.8744283,16.5298013 10.1721854,16.5298013 C9.46994257,16.5298013 8.90066225,15.960521 8.90066225,15.2582781 C8.90066225,14.5560353 9.46994257,13.986755 10.1721854,13.986755 Z M15.2582781,13.986755 C15.960521,13.986755 16.5298013,14.5560353 16.5298013,15.2582781 C16.5298013,15.960521 15.960521,16.5298013 15.2582781,16.5298013 C14.5560353,16.5298013 13.986755,15.960521 13.986755,15.2582781 C13.986755,14.5560353 14.5560353,13.986755 15.2582781,13.986755 Z M20.3443709,13.986755 C21.0466137,13.986755 21.615894,14.5560353 21.615894,15.2582781 C21.615894,15.960521 21.0466137,16.5298013 20.3443709,16.5298013 C19.642128,16.5298013 19.0728477,15.960521 19.0728477,15.2582781 C19.0728477,14.5560353 19.642128,13.986755 20.3443709,13.986755 Z"/>
      </g>
      <g transform="translate(324.238 8.265)">
        <mask id="easier-incremental-adoption--alt-p" fill="#fff">
          <use href="#easier-incremental-adoption--alt-o"/>
        </mask>
        <rect width="67.391" height="96" x="-.636" y="-.636" stroke="#FFF" stroke-width="1.272" rx="2.543"/>
        <g mask="url(#easier-incremental-adoption--alt-p)">
          <g transform="translate(-20.138 41.985)">
            <mask id="easier-incremental-adoption--alt-r" fill="#fff">
              <use href="#easier-incremental-adoption--alt-q"/>
            </mask>
            <use fill="#F0F0F0" href="#easier-incremental-adoption--alt-q"/>
            <g mask="url(#easier-incremental-adoption--alt-r)">
              <g transform="translate(-16.1 .611)">
                <g transform="translate(100.54 4.734)">
                  <mask id="easier-incremental-adoption--alt-t" fill="#fff">
                    <use href="#easier-incremental-adoption--alt-s"/>
                  </mask>
                  <g fill="#FFF" mask="url(#easier-incremental-adoption--alt-t)">
                    <polygon points="0 0 54.582 0 54.582 94.601 0 94.601" transform="translate(-.666 -4.734)"/>
                  </g>
                </g>
                <g transform="translate(33.292)">
                  <mask id="easier-incremental-adoption--alt-v" fill="#fff">
                    <use href="#easier-incremental-adoption--alt-u"/>
                  </mask>
                  <g fill="#FFF" mask="url(#easier-incremental-adoption--alt-v)">
                    <polygon points="0 0 97.256 0 97.256 52.895 0 52.895" transform="translate(-3.662)"/>
                  </g>
                </g>
                <g transform="translate(1.997 64.59)">
                  <mask id="easier-incremental-adoption--alt-x" fill="#fff">
                    <use href="#easier-incremental-adoption--alt-w"/>
                  </mask>
                  <g fill="#D63E04" mask="url(#easier-incremental-adoption--alt-x)">
                    <polygon points="0 0 78.4 0 78.4 94.601 0 94.601" transform="translate(-3.662 -5.41)"/>
                  </g>
                </g>
                <g transform="translate(0 4.396)">
                  <mask id="easier-incremental-adoption--alt-z" fill="#fff">
                    <use href="#easier-incremental-adoption--alt-y"/>
                  </mask>
                  <g fill="#FFF" mask="url(#easier-incremental-adoption--alt-z)">
                    <polygon points="0 0 74.431 0 74.431 98.67 0 98.67" transform="translate(-1.665 -4.396)"/>
                  </g>
                </g>
                <g transform="translate(64.586 97.055)">
                  <mask id="easier-incremental-adoption--alt-B" fill="#fff">
                    <use href="#easier-incremental-adoption--alt-A"/>
                  </mask>
                  <g fill="#FFF" mask="url(#easier-incremental-adoption--alt-B)">
                    <polygon points="0 0 116.112 0 116.112 86.464 0 86.464" transform="translate(-14.981 -25.025)"/>
                  </g>
                </g>
              </g>
            </g>
          </g>
        </g>
        <rect width="38.687" height="3.815" x="2.814" y="15.258" fill="#FFF" mask="url(#easier-incremental-adoption--alt-p)" rx="1.907"/>
        <rect width="22.901" height="5.722" x="3.449" y="29.245" stroke="#FFF" stroke-width="1.272" mask="url(#easier-incremental-adoption--alt-p)" rx="1.272"/>
        <rect width="48.534" height="3.815" x="2.814" y="21.616" fill="#FFF" mask="url(#easier-incremental-adoption--alt-p)" rx="1.907"/>
      </g>
      <path fill="#FFF" d="M106.172185,6.99337748 L132.238411,6.99337748 C132.589532,6.99337748 132.874172,7.27801764 132.874172,7.62913907 L132.874172,7.63502466 C132.874172,7.98614609 132.589532,8.27078625 132.238411,8.27078625 L106.172185,8.27078625 C105.821064,8.27078625 105.536424,7.98614609 105.536424,7.63502466 L105.536424,7.62913907 C105.536424,7.27801764 105.821064,6.99337748 106.172185,6.99337748 Z M106.172185,9.54819502 L132.238411,9.54819502 C132.589532,9.54819502 132.874172,9.83283517 132.874172,10.1839566 L132.874172,10.1898422 C132.874172,10.5409636 132.589532,10.8256038 132.238411,10.8256038 L106.172185,10.8256038 C105.821064,10.8256038 105.536424,10.5409636 105.536424,10.1898422 L105.536424,10.1839566 C105.536424,9.83283517 105.821064,9.54819502 106.172185,9.54819502 Z M106.172185,12.1030125 L132.238411,12.1030125 C132.589532,12.1030125 132.874172,12.3876527 132.874172,12.7387741 L132.874172,12.7446597 C132.874172,13.0957812 132.589532,13.3804213 132.238411,13.3804213 L106.172185,13.3804213 C105.821064,13.3804213 105.536424,13.0957812 105.536424,12.7446597 L105.536424,12.7387741 C105.536424,12.3876527 105.821064,12.1030125 106.172185,12.1030125 Z M106.172185,14.6078026 L132.238411,14.6078026 C132.589532,14.6078026 132.874172,14.8924427 132.874172,15.2435642 L132.874172,15.2494498 C132.874172,15.6005712 132.589532,15.8852114 132.238411,15.8852114 L106.172185,15.8852114 C105.821064,15.8852114 105.536424,15.6005712 105.536424,15.2494498 L105.536424,15.2435642 C105.536424,14.8924427 105.821064,14.6078026 106.172185,14.6078026 Z M106.172185,17.1626201 L132.238411,17.1626201 C132.589532,17.1626201 132.874172,17.4472603 132.874172,17.7983817 L132.874172,17.8042673 C132.874172,18.1553887 132.589532,18.4400289 132.238411,18.4400289 L106.172185,18.4400289 C105.821064,18.4400289 105.536424,18.1553887 105.536424,17.8042673 L105.536424,17.7983817 C105.536424,17.4472603 105.821064,17.1626201 106.172185,17.1626201 Z M106.172185,19.7174377 L132.238411,19.7174377 C132.589532,19.7174377 132.874172,20.0020778 132.874172,20.3531992 L132.874172,20.3590848 C132.874172,20.7102063 132.589532,20.9948464 132.238411,20.9948464 L106.172185,20.9948464 C105.821064,20.9948464 105.536424,20.7102063 105.536424,20.3590848 L105.536424,20.3531992 C105.536424,20.0020778 105.821064,19.7174377 106.172185,19.7174377 Z M106.172185,22.2222277 L132.238411,22.2222277 C132.589532,22.2222277 132.874172,22.5068679 132.874172,22.8579893 L132.874172,22.8638749 C132.874172,23.2149963 132.589532,23.4996365 132.238411,23.4996365 L106.172185,23.4996365 C105.821064,23.4996365 105.536424,23.2149963 105.536424,22.8638749 L105.536424,22.8579893 C105.536424,22.5068679 105.821064,22.2222277 106.172185,22.2222277 Z M106.172185,24.7770452 L132.238411,24.7770452 C132.589532,24.7770452 132.874172,25.0616854 132.874172,25.4128068 L132.874172,25.4186924 C132.874172,25.7698138 132.589532,26.054454 132.238411,26.054454 L106.172185,26.054454 C105.821064,26.054454 105.536424,25.7698138 105.536424,25.4186924 L105.536424,25.4128068 C105.536424,25.0616854 105.821064,24.7770452 106.172185,24.7770452 Z M106.172185,27.3318628 L125.245033,27.3318628 C125.596155,27.3318628 125.880795,27.6165029 125.880795,27.9676243 L125.880795,27.9735099 C125.880795,28.3246314 125.596155,28.6092715 125.245033,28.6092715 L106.172185,28.6092715 C105.821064,28.6092715 105.536424,28.3246314 105.536424,27.9735099 L105.536424,27.9676243 C105.536424,27.6165029 105.821064,27.3318628 106.172185,27.3318628 Z"/>
      <path fill="#FFF" d="M101.721854,6.99337748 L101.721854,6.99337748 C102.424097,6.99337748 102.993377,7.5626578 102.993377,8.26490066 L102.993377,8.26490066 C102.993377,8.96714352 102.424097,9.53642384 101.721854,9.53642384 L101.721854,9.53642384 C101.019611,9.53642384 100.450331,8.96714352 100.450331,8.26490066 L100.450331,8.26490066 C100.450331,7.5626578 101.019611,6.99337748 101.721854,6.99337748 Z" transform="rotate(90 101.722 8.265)"/>
      <path fill="#FFF" d="M101.721854,12.0794702 L101.721854,12.0794702 C102.424097,12.0794702 102.993377,12.6487505 102.993377,13.3509934 L102.993377,13.3509934 C102.993377,14.0532362 102.424097,14.6225166 101.721854,14.6225166 L101.721854,14.6225166 C101.019611,14.6225166 100.450331,14.0532362 100.450331,13.3509934 L100.450331,13.3509934 C100.450331,12.6487505 101.019611,12.0794702 101.721854,12.0794702 Z" transform="rotate(90 101.722 13.351)"/>
      <path fill="#FFF" d="M101.721854,17.1655629 L101.721854,17.1655629 C102.424097,17.1655629 102.993377,17.7348432 102.993377,18.4370861 L102.993377,18.4370861 C102.993377,19.139329 102.424097,19.7086093 101.721854,19.7086093 L101.721854,19.7086093 C101.019611,19.7086093 100.450331,19.139329 100.450331,18.4370861 L100.450331,18.4370861 C100.450331,17.7348432 101.019611,17.1655629 101.721854,17.1655629 Z" transform="rotate(90 101.722 18.437)"/>
      <g transform="translate(324.238 171.02)">
        <mask id="easier-incremental-adoption--alt-D" fill="#fff">
          <use href="#easier-incremental-adoption--alt-C"/>
        </mask>
        <rect width="67.391" height="109.351" x="-.636" y="-.636" stroke="#FFF" stroke-width="1.272" rx="2.543"/>
        <rect width="34.967" height="1.272" x="2.543" y="99.179" fill="#FFF" mask="url(#easier-incremental-adoption--alt-D)" rx=".636"/>
        <rect width="40.053" height="1.272" x="2.543" y="101.722" fill="#FFF" mask="url(#easier-incremental-adoption--alt-D)" rx=".636"/>
        <rect width="18.437" height="1.272" x="2.543" y="104.265" fill="#FFF" mask="url(#easier-incremental-adoption--alt-D)" rx=".636"/>
        <g mask="url(#easier-incremental-adoption--alt-D)">
          <g transform="translate(1.955 36.122)">
            <polyline stroke="#FFF" stroke-width=".636" points="1.86 26.819 10.761 9.653 19.661 16.828 28.562 1.388 37.463 11.749 46.363 19.19 55.264 10.289"/>
            <polyline stroke="#FFF" stroke-width=".636" points="1.86 34.007 10.761 29.362 19.661 29.362 28.562 19.19 37.463 25.547 46.363 28.09 55.264 17.918"/>
            <rect width="2.543" height="2.543" x=".588" y="25.547" fill="#FFF" rx="1.272"/>
            <rect width="2.543" height="2.543" x="9.489" y="8.382" fill="#FFF" rx="1.272"/>
            <rect width="2.543" height="2.543" x="18.39" y="15.375" fill="#FFF" rx="1.272"/>
            <rect width="2.543" height="2.543" x="27.29" y=".117" fill="#FFF" rx="1.272"/>
            <rect width="2.543" height="2.543" x="36.191" y="10.289" fill="#FFF" rx="1.272"/>
            <rect width="2.543" height="2.543" x="45.092" y="17.918" fill="#FFF" rx="1.272"/>
            <rect width="2.543" height="2.543" x="53.992" y="9.017" fill="#FFF" rx="1.272"/>
            <rect width="2.543" height="2.543" x=".588" y="32.735" fill="#FFF" rx="1.272"/>
            <rect width="2.543" height="2.543" x="9.489" y="28.09" fill="#FFF" rx="1.272"/>
            <rect width="2.543" height="2.543" x="18.39" y="28.09" fill="#FFF" rx="1.272"/>
            <rect width="2.543" height="2.543" x="27.29" y="17.918" fill="#FFF" rx="1.272"/>
            <rect width="2.543" height="2.543" x="36.191" y="24.276" fill="#FFF" rx="1.272"/>
            <rect width="2.543" height="2.543" x="45.092" y="26.819" fill="#FFF" rx="1.272"/>
            <rect width="2.543" height="2.543" x="53.992" y="16.647" fill="#FFF" rx="1.272"/>
          </g>
        </g>
        <rect width="35.603" height="3.179" x="1.907" y="17.166" fill="#FFF" mask="url(#easier-incremental-adoption--alt-D)" rx="1.589"/>
        <rect width="34.331" height="6.358" x="3.179" y="81.377" stroke="#FFF" stroke-width="1.272" mask="url(#easier-incremental-adoption--alt-D)" rx="1.272"/>
        <rect width="12.079" height="6.358" x="41.325" y="81.377" stroke="#FFF" stroke-width="1.272" mask="url(#easier-incremental-adoption--alt-D)" rx="1.272"/>
        <rect width="23.523" height="3.179" x="1.907" y="22.887" fill="#FFF" mask="url(#easier-incremental-adoption--alt-D)" rx="1.589"/>
        <g fill="#FFF" mask="url(#easier-incremental-adoption--alt-D)">
          <path d="M1.60779377,0.285443979 C2.31003663,0.285443979 2.87931695,0.854724297 2.87931695,1.55696716 C2.87931695,2.25921002 2.31003663,2.82849034 1.60779377,2.82849034 C0.905550911,2.82849034 0.336270593,2.25921002 0.336270593,1.55696716 C0.336270593,0.854724297 0.905550911,0.285443979 1.60779377,0.285443979 Z M6.69388649,0.285443979 C7.39612935,0.285443979 7.96540967,0.854724297 7.96540967,1.55696716 C7.96540967,2.25921002 7.39612935,2.82849034 6.69388649,2.82849034 C5.99164363,2.82849034 5.42236331,2.25921002 5.42236331,1.55696716 C5.42236331,0.854724297 5.99164363,0.285443979 6.69388649,0.285443979 Z M11.7799792,0.285443979 C12.4822221,0.285443979 13.0515024,0.854724297 13.0515024,1.55696716 C13.0515024,2.25921002 12.4822221,2.82849034 11.7799792,2.82849034 C11.0777363,2.82849034 10.508456,2.25921002 10.508456,1.55696716 C10.508456,0.854724297 11.0777363,0.285443979 11.7799792,0.285443979 Z" transform="translate(2.207 2.258)"/>
        </g>
      </g>
      <g opacity=".099" transform="translate(106.172 141.14)">
        <mask id="easier-incremental-adoption--alt-F" fill="#fff">
          <use href="#easier-incremental-adoption--alt-E"/>
        </mask>
        <rect width="92.821" height="92.821" x="-.636" y="-.636" stroke="#171717" stroke-width="1.272" rx="2.543"/>
        <rect width="35.603" height="3.179" x="2.543" y="16.53" fill="#ADADAD" mask="url(#easier-incremental-adoption--alt-F)" rx="1.589"/>
        <path fill="#171717" d="M3.81456954,2.54304636 C4.5168124,2.54304636 5.08609272,3.11232668 5.08609272,3.81456954 C5.08609272,4.5168124 4.5168124,5.08609272 3.81456954,5.08609272 C3.11232668,5.08609272 2.54304636,4.5168124 2.54304636,3.81456954 C2.54304636,3.11232668 3.11232668,2.54304636 3.81456954,2.54304636 Z M8.90066225,2.54304636 C9.60290511,2.54304636 10.1721854,3.11232668 10.1721854,3.81456954 C10.1721854,4.5168124 9.60290511,5.08609272 8.90066225,5.08609272 C8.19841939,5.08609272 7.62913907,4.5168124 7.62913907,3.81456954 C7.62913907,3.11232668 8.19841939,2.54304636 8.90066225,2.54304636 Z M13.986755,2.54304636 C14.6889978,2.54304636 15.2582781,3.11232668 15.2582781,3.81456954 C15.2582781,4.5168124 14.6889978,5.08609272 13.986755,5.08609272 C13.2845121,5.08609272 12.7152318,4.5168124 12.7152318,3.81456954 C12.7152318,3.11232668 13.2845121,2.54304636 13.986755,2.54304636 Z" mask="url(#easier-incremental-adoption--alt-F)"/>
        <rect width="29.245" height="5.722" x="3.179" y="80.742" stroke="#979797" stroke-width="1.272" mask="url(#easier-incremental-adoption--alt-F)" rx="1.272"/>
        <rect width="12.079" height="5.722" x="35.603" y="80.742" stroke="#979797" stroke-width="1.272" mask="url(#easier-incremental-adoption--alt-F)" rx="1.272"/>
        <rect width="24.159" height="3.179" x="2.543" y="22.252" fill="#ADADAD" mask="url(#easier-incremental-adoption--alt-F)" rx="1.589"/>
        <g mask="url(#easier-incremental-adoption--alt-F)">
          <g transform="translate(-5.086 32.424)">
            <mask id="easier-incremental-adoption--alt-H" fill="#fff">
              <use href="#easier-incremental-adoption--alt-G"/>
            </mask>
            <rect width="114.437" height="40.689" x="-4.45" fill="#F0F0F0" mask="url(#easier-incremental-adoption--alt-H)"/>
            <g mask="url(#easier-incremental-adoption--alt-H)">
              <g transform="translate(-97.374 -79.187)">
                <g transform="translate(142.703 6.691)">
                  <mask id="easier-incremental-adoption--alt-J" fill="#fff">
                    <use href="#easier-incremental-adoption--alt-I"/>
                  </mask>
                  <g fill="#ADADAD" mask="url(#easier-incremental-adoption--alt-J)">
                    <polygon points="0 0 77.408 0 77.408 133.256 0 133.256" transform="translate(-.945 -6.691)"/>
                  </g>
                </g>
                <g transform="translate(47.253)">
                  <mask id="easier-incremental-adoption--alt-L" fill="#fff">
                    <use href="#easier-incremental-adoption--alt-K"/>
                  </mask>
                  <g fill="#C9C9C9" mask="url(#easier-incremental-adoption--alt-L)">
                    <polygon points="0 0 137.945 0 137.945 75.274 0 75.274" transform="translate(-5.198)"/>
                  </g>
                </g>
                <g transform="translate(2.835 91.288)">
                  <mask id="easier-incremental-adoption--alt-N" fill="#fff">
                    <use href="#easier-incremental-adoption--alt-M"/>
                  </mask>
                  <g fill="#ADADAD" mask="url(#easier-incremental-adoption--alt-N)">
                    <polygon points="0 0 111.15 0 111.15 134.273 0 134.273" transform="translate(-5.198 -7.647)"/>
                  </g>
                </g>
                <g transform="translate(0 6.213)">
                  <mask id="easier-incremental-adoption--alt-P" fill="#fff">
                    <use href="#easier-incremental-adoption--alt-O"/>
                  </mask>
                  <g fill="#2E2E2E" mask="url(#easier-incremental-adoption--alt-P)">
                    <polygon points="0 0 106.188 0 106.188 139.359 0 139.359" transform="translate(-2.363 -6.213)"/>
                  </g>
                </g>
                <g transform="translate(91.67 137.171)">
                  <mask id="easier-incremental-adoption--alt-R" fill="#fff">
                    <use href="#easier-incremental-adoption--alt-Q"/>
                  </mask>
                  <g fill="#2E2E2E" mask="url(#easier-incremental-adoption--alt-R)">
                    <polygon points="0 0 164.74 0 164.74 122.066 0 122.066" transform="translate(-21.264 -35.368)"/>
                  </g>
                </g>
              </g>
            </g>
          </g>
        </g>
      </g>
      <g opacity=".1" transform="translate(256.212 80.106)">
        <mask id="easier-incremental-adoption--alt-T" fill="#fff">
          <use href="#easier-incremental-adoption--alt-S"/>
        </mask>
        <rect width="26.702" height="52.132" x="-.636" y="-.636" stroke="#171717" stroke-width="1.272" rx="2.543"/>
        <g mask="url(#easier-incremental-adoption--alt-T)">
          <g transform="translate(-5.086 11.444)">
            <mask id="easier-incremental-adoption--alt-V" fill="#fff">
              <use href="#easier-incremental-adoption--alt-U"/>
            </mask>
            <g mask="url(#easier-incremental-adoption--alt-V)" opacity=".5">
              <g transform="translate(-16.293 -38.267)">
                <g transform="translate(79.135 3.724)">
                  <mask id="easier-incremental-adoption--alt-X" fill="#fff">
                    <use href="#easier-incremental-adoption--alt-W"/>
                  </mask>
                  <g fill="#2E2E2E" mask="url(#easier-incremental-adoption--alt-X)">
                    <polygon points="0 0 42.674 0 42.674 74.257 0 74.257" transform="translate(-.524 -3.724)"/>
                  </g>
                </g>
                <g transform="translate(26.204)">
                  <mask id="easier-incremental-adoption--alt-Z" fill="#fff">
                    <use href="#easier-incremental-adoption--alt-Y"/>
                  </mask>
                  <g fill="#2E2E2E" mask="url(#easier-incremental-adoption--alt-Z)">
                    <polygon points="0 0 76.415 0 76.415 41.706 0 41.706" transform="translate(-2.882)"/>
                  </g>
                </g>
                <g transform="translate(1.572 50.811)">
                  <mask id="easier-incremental-adoption--alt-ab" fill="#fff">
                    <use href="#easier-incremental-adoption--alt-aa"/>
                  </mask>
                  <g fill="#919191" mask="url(#easier-incremental-adoption--alt-ab)">
                    <polygon points="0 0 61.529 0 61.529 74.257 0 74.257" transform="translate(-2.882 -4.256)"/>
                  </g>
                </g>
                <g transform="translate(0 3.458)">
                  <mask id="easier-incremental-adoption--alt-ad" fill="#fff">
                    <use href="#easier-incremental-adoption--alt-ac"/>
                  </mask>
                  <g fill="#919191" mask="url(#easier-incremental-adoption--alt-ad)">
                    <polygon points="0 0 58.552 0 58.552 77.309 0 77.309" transform="translate(-1.31 -3.458)"/>
                  </g>
                </g>
                <g transform="translate(50.835 76.35)">
                  <mask id="easier-incremental-adoption--alt-af" fill="#fff">
                    <use href="#easier-incremental-adoption--alt-ae"/>
                  </mask>
                  <g fill="#919191" mask="url(#easier-incremental-adoption--alt-af)">
                    <polygon points="0 0 91.302 0 91.302 68.154 0 68.154" transform="translate(-11.792 -19.686)"/>
                  </g>
                </g>
              </g>
            </g>
          </g>
        </g>
      </g>
      <path fill="#FFF" d="M328.05298,10.807947 C328.755223,10.807947 329.324503,11.3772273 329.324503,12.0794702 C329.324503,12.7817131 328.755223,13.3509934 328.05298,13.3509934 C327.350737,13.3509934 326.781457,12.7817131 326.781457,12.0794702 C326.781457,11.3772273 327.350737,10.807947 328.05298,10.807947 Z M333.139073,10.807947 C333.841316,10.807947 334.410596,11.3772273 334.410596,12.0794702 C334.410596,12.7817131 333.841316,13.3509934 333.139073,13.3509934 C332.43683,13.3509934 331.86755,12.7817131 331.86755,12.0794702 C331.86755,11.3772273 332.43683,10.807947 333.139073,10.807947 Z M338.225166,10.807947 C338.927408,10.807947 339.496689,11.3772273 339.496689,12.0794702 C339.496689,12.7817131 338.927408,13.3509934 338.225166,13.3509934 C337.522923,13.3509934 336.953642,12.7817131 336.953642,12.0794702 C336.953642,11.3772273 337.522923,10.807947 338.225166,10.807947 Z"/>
      <circle cx="106.172" cy="232.689" r="15.258" fill="#FFF"/>
      <g transform="translate(90.914 253.033)">
        <circle cx="15.258" cy="15.258" r="14.623" stroke="#FFF" stroke-width="1.272"/>
        <g transform="rotate(-90 13.931 4.315)">
          <mask id="easier-incremental-adoption--alt-ah" fill="#fff">
            <use href="#easier-incremental-adoption--alt-ag"/>
          </mask>
          <use fill="#979797" fill-rule="nonzero" href="#easier-incremental-adoption--alt-ag"/>
          <g fill="#FFF" mask="url(#easier-incremental-adoption--alt-ah)">
            <polygon points="0 0 16.871 0 16.871 19.327 0 19.327" transform="translate(-8.01 -4.132)"/>
          </g>
        </g>
      </g>
      <path stroke="#FFF" stroke-dasharray="3.179 1.272" stroke-width="1.272" d="M66.7549669,209.801325 L94.0927152,230.781457"/>
    </g>
    <g transform="translate(86 26)">
      <mask id="easier-incremental-adoption--alt-aj" fill="#fff">
        <use href="#easier-incremental-adoption--alt-ai"/>
      </mask>
      <rect width="146" height="238" x="-1" y="-1" stroke="#171717" stroke-width="2" rx="4"/>
      <g mask="url(#easier-incremental-adoption--alt-aj)">
        <g transform="translate(3 102)">
          <rect width="30" height="10" x="1" y="1" stroke="#E6E6E6" stroke-width="2" rx="2"/>
          <rect width="30" height="10" x="37" y="1" stroke="#E6E6E6" stroke-width="2" rx="2"/>
          <rect width="56" height="8" y="82" fill="#E6E6E6" rx="4"/>
          <rect width="115" height="4" y="24" fill="#E6E6E6" rx="2"/>
          <rect width="16" height="2" x="122" y="24" fill="#E6E6E6" rx="1"/>
          <rect width="16" height="2" x="122" y="28" fill="#E6E6E6" rx="1"/>
          <rect width="16" height="2" x="122" y="32" fill="#E6E6E6" rx="1"/>
          <rect width="16" height="2" x="122" y="36" fill="#E6E6E6" rx="1"/>
          <rect width="16" height="2" x="122" y="94" fill="#E6E6E6" rx="1"/>
          <rect width="16" height="2" x="122" y="98" fill="#E6E6E6" rx="1"/>
          <rect width="16" height="2" x="122" y="102" fill="#E6E6E6" rx="1"/>
          <rect width="115" height="4" y="32" fill="#E6E6E6" rx="2"/>
          <rect width="115" height="4" y="40" fill="#E6E6E6" rx="2"/>
          <rect width="115" height="4" y="48" fill="#E6E6E6" rx="2"/>
          <rect width="115" height="4" y="56" fill="#E6E6E6" rx="2"/>
          <rect width="115" height="4" y="64" fill="#E6E6E6" rx="2"/>
          <rect width="115" height="4" y="94" fill="#E6E6E6" rx="2"/>
          <rect width="115" height="4" y="102" fill="#E6E6E6" rx="2"/>
          <rect width="115" height="4" y="110" fill="#E6E6E6" rx="2"/>
          <rect width="115" height="4" y="118" fill="#E6E6E6" rx="2"/>
          <rect width="115" height="4" y="126" fill="#E6E6E6" rx="2"/>
        </g>
      </g>
      <rect width="56" height="8" x="3" y="26" fill="#E6E6E6" mask="url(#easier-incremental-adoption--alt-aj)" rx="4"/>
      <rect width="16" height="2" x="3" y="15" fill="#E6E6E6" mask="url(#easier-incremental-adoption--alt-aj)" rx="1"/>
      <rect width="16" height="2" x="23" y="15" fill="#E6E6E6" mask="url(#easier-incremental-adoption--alt-aj)" rx="1"/>
      <rect width="16" height="2" x="42" y="15" fill="#E6E6E6" mask="url(#easier-incremental-adoption--alt-aj)" rx="1"/>
      <rect width="16" height="2" x="62" y="15" fill="#E6E6E6" mask="url(#easier-incremental-adoption--alt-aj)" rx="1"/>
      <rect width="36" height="8" x="3" y="37" fill="#E6E6E6" mask="url(#easier-incremental-adoption--alt-aj)" rx="4"/>
      <g mask="url(#easier-incremental-adoption--alt-aj)">
        <g transform="translate(-7.922 51.054)">
          <mask id="easier-incremental-adoption--alt-al" fill="#fff">
            <use href="#easier-incremental-adoption--alt-ak"/>
          </mask>
          <rect width="163" height="42" x="-1" fill="#E6E6E6" mask="url(#easier-incremental-adoption--alt-al)"/>
        </g>
      </g>
      <g fill="#E6E6E6" mask="url(#easier-incremental-adoption--alt-aj)">
        <g transform="translate(3.521 3.521)">
          <rect width="4" height="4" rx="2"/>
          <rect width="4" height="4" x="7" rx="2"/>
          <rect width="4" height="4" x="14" rx="2"/>
        </g>
      </g>
    </g>
    <g transform="translate(262 26)">
      <mask id="easier-incremental-adoption--alt-an" fill="#fff">
        <use href="#easier-incremental-adoption--alt-am"/>
      </mask>
      <rect width="146" height="238" x="-1" y="-1" stroke="#171717" stroke-width="2" rx="4"/>
      <g mask="url(#easier-incremental-adoption--alt-an)">
        <g transform="translate(-7.922 64)">
          <mask id="easier-incremental-adoption--alt-ap" fill="#fff">
            <use href="#easier-incremental-adoption--alt-ao"/>
          </mask>
          <rect width="180" height="64" x="-7" fill="#171717" mask="url(#easier-incremental-adoption--alt-ap)"/>
          <g mask="url(#easier-incremental-adoption--alt-ap)">
            <g transform="translate(-15.078 -81.054)">
              <g transform="translate(135.446 6.415)">
                <mask id="easier-incremental-adoption--alt-ar" fill="#fff">
                  <use href="#easier-incremental-adoption--alt-aq"/>
                </mask>
                <g fill="#81AEFC" mask="url(#easier-incremental-adoption--alt-ar)">
                  <polygon points="0 0 74 0 74 126 0 126" transform="translate(-.897 -6.415)"/>
                </g>
              </g>
              <g transform="translate(44.85)">
                <mask id="easier-incremental-adoption--alt-at" fill="#fff">
                  <use href="#easier-incremental-adoption--alt-as"/>
                </mask>
                <g fill="#3E76C2" mask="url(#easier-incremental-adoption--alt-at)">
                  <rect width="132" height="71" transform="translate(-4.933)"/>
                </g>
              </g>
              <g transform="translate(2.691 87.524)">
                <mask id="easier-incremental-adoption--alt-av" fill="#fff">
                  <use href="#easier-incremental-adoption--alt-au"/>
                </mask>
                <g fill="#D63E04" mask="url(#easier-incremental-adoption--alt-av)">
                  <polygon points="0 0 107 0 107 126 0 126" transform="translate(-4.933 -7.332)"/>
                </g>
              </g>
              <g transform="translate(0 5.957)">
                <mask id="easier-incremental-adoption--alt-ax" fill="#fff">
                  <use href="#easier-incremental-adoption--alt-aw"/>
                </mask>
                <g fill="#F6BD9C" mask="url(#easier-incremental-adoption--alt-ax)">
                  <polygon points="0 0 101 0 101 132 0 132" transform="translate(-2.242 -5.957)"/>
                </g>
              </g>
              <g transform="translate(87.009 131.515)">
                <mask id="easier-incremental-adoption--alt-az" fill="#fff">
                  <use href="#easier-incremental-adoption--alt-ay"/>
                </mask>
                <g fill="#2E2E2E" mask="url(#easier-incremental-adoption--alt-az)">
                  <polygon points="0 0 157 0 157 115 0 115" transform="translate(-20.182 -33.91)"/>
                </g>
              </g>
            </g>
          </g>
        </g>
      </g>
      <g stroke-width="2" mask="url(#easier-incremental-adoption--alt-an)">
        <g transform="translate(3 137.946)">
          <rect width="30" height="10" x="1" y="1" stroke="#D63E04" rx="5"/>
          <rect width="30" height="10" x="37" y="1" stroke="#2672DE" rx="5"/>
        </g>
      </g>
      <g mask="url(#easier-incremental-adoption--alt-an)">
        <g transform="translate(3 23)">
          <rect width="56" height="8" y="14" fill="#E6E6E6" rx="4"/>
          <rect width="36" height="8" x="102" fill="#171717" rx="4"/>
          <rect width="36" height="8" y="25" fill="#E6E6E6" rx="4"/>
        </g>
      </g>
      <g mask="url(#easier-incremental-adoption--alt-an)">
        <g transform="translate(3 219.946)">
          <rect width="56" height="8" fill="#E6E6E6" rx="4"/>
          <rect width="115" height="4" y="12" fill="#E6E6E6" rx="2"/>
          <g transform="translate(0 20)">
            <mask id="easier-incremental-adoption--alt-aC" fill="#fff">
              <use href="#easier-incremental-adoption--alt-aA"/>
            </mask>
            <use fill="#000" filter="url(#easier-incremental-adoption--alt-aB)" href="#easier-incremental-adoption--alt-aA"/>
            <g fill="#DCDEE0" mask="url(#easier-incremental-adoption--alt-aC)">
              <polygon points="0 0 117 0 117 6 0 6" transform="translate(-1 -1)"/>
            </g>
          </g>
          <g transform="translate(122 12)">
            <rect width="16" height="2" fill="#E6E6E6" rx="1"/>
            <g transform="translate(0 4)">
              <mask id="easier-incremental-adoption--alt-aF" fill="#fff">
                <use href="#easier-incremental-adoption--alt-aD"/>
              </mask>
              <use fill="#000" filter="url(#easier-incremental-adoption--alt-aE)" href="#easier-incremental-adoption--alt-aD"/>
              <g fill="#DCDEE0" mask="url(#easier-incremental-adoption--alt-aF)">
                <polygon points="0 0 18 0 18 4 0 4" transform="translate(-1 -1)"/>
              </g>
            </g>
            <g transform="translate(0 8)">
              <mask id="easier-incremental-adoption--alt-aI" fill="#fff">
                <use href="#easier-incremental-adoption--alt-aG"/>
              </mask>
              <use fill="#000" filter="url(#easier-incremental-adoption--alt-aH)" href="#easier-incremental-adoption--alt-aG"/>
              <g fill="#DCDEE0" mask="url(#easier-incremental-adoption--alt-aI)">
                <polygon points="0 0 18 0 18 4 0 4" transform="translate(-1 -1)"/>
              </g>
            </g>
          </g>
        </g>
      </g>
      <g mask="url(#easier-incremental-adoption--alt-an)">
        <g transform="translate(3 161.946)">
          <rect width="115" height="4" fill="#E6E6E6" rx="2"/>
          <rect width="115" height="4" y="8" fill="#E6E6E6" rx="2"/>
          <rect width="115" height="4" y="16" fill="#E6E6E6" rx="2"/>
          <rect width="115" height="4" y="24" fill="#E6E6E6" rx="2"/>
          <rect width="115" height="4" y="32" fill="#E6E6E6" rx="2"/>
          <rect width="115" height="4" y="40" fill="#E6E6E6" rx="2"/>
          <g transform="translate(122)">
            <rect width="16" height="2" fill="#E6E6E6" rx="1"/>
            <rect width="16" height="2" y="4" fill="#E6E6E6" rx="1"/>
            <rect width="16" height="2" y="8" fill="#E6E6E6" rx="1"/>
            <rect width="16" height="2" y="12" fill="#E6E6E6" rx="1"/>
          </g>
        </g>
      </g>
      <g fill="#E6E6E6" mask="url(#easier-incremental-adoption--alt-an)">
        <g transform="translate(3 26)">
          <rect width="16" height="2" rx="1"/>
          <rect width="16" height="2" x="20" rx="1"/>
          <rect width="16" height="2" x="39" rx="1"/>
          <rect width="16" height="2" x="59" rx="1"/>
        </g>
      </g>
      <rect width="205" height="6" x="-39" y="12" fill="#171717" mask="url(#easier-incremental-adoption--alt-an)"/>
      <g fill="#E6E6E6" mask="url(#easier-incremental-adoption--alt-an)">
        <g transform="translate(3.521 3.521)">
          <rect width="4" height="4" rx="2"/>
          <rect width="4" height="4" x="7" rx="2"/>
          <rect width="4" height="4" x="14" rx="2"/>
        </g>
      </g>
    </g>
    <g transform="translate(240 138)">
      <g transform="translate(5 1)">
        <mask id="easier-incremental-adoption--alt-aK" fill="#fff">
          <use href="#easier-incremental-adoption--alt-aJ"/>
        </mask>
        <use fill="#979797" fill-rule="nonzero" href="#easier-incremental-adoption--alt-aJ"/>
        <g fill="#C3512C" mask="url(#easier-incremental-adoption--alt-aK)">
          <rect width="15" height="18" transform="translate(-7 -4)"/>
        </g>
      </g>
      <rect width="10" height="2" y="5" fill="#C3512C"/>
    </g>
  </g>
</svg>
