<?xml version="1.0" encoding="UTF-8"?>
<svg xmlns="http://www.w3.org/2000/svg" width="314" height="273" viewBox="0 0 314 273">
  <path fill="#171717" d="M32.29155,27.29396 L5.72214,27.29396 L5.72214,51 L3.12513,51 L3.12513,2.85543 L5.72214,2.85543 L5.72214,24.56377 L32.29155,24.56377 L32.29155,2.85543 L34.88856,2.85543 L34.88856,51 L32.29155,51 L32.29155,27.29396 Z M51.46947,3.92087 L51.46947,7.91627 L48.27315,7.91627 L48.27315,3.92087 L51.46947,3.92087 Z M51.20311,16.57297 L51.20311,51 L48.6061,51 L48.6061,16.57297 L51.20311,16.57297 Z M66.25245,45.87257 L66.25245,51 L62.19046,51 L62.19046,45.87257 L66.25245,45.87257 Z M121.98828,27.95986 L97.28339,27.95986 L97.28339,51 L93.08822,51 L93.08822,2.85543 L97.28339,2.85543 L97.28339,24.03105 L121.98828,24.03105 L121.98828,2.85543 L126.25004,2.85543 L126.25004,51 L121.98828,51 L121.98828,27.95986 Z M140.5003,34.81863 C140.5003,42.07694 144.02957,48.07004 151.75401,48.07004 C156.68167,48.07004 159.94458,45.73939 161.34297,41.41104 L165.53814,41.41104 C163.74021,48.53617 158.14665,51.6659 151.8206,51.6659 C142.56459,51.6659 136.17195,45.20667 136.17195,34.08614 C136.17195,22.96561 141.76551,15.90707 151.35447,15.90707 C160.54389,15.90707 165.8045,22.23312 165.8045,32.75434 L165.8045,34.81863 L140.5003,34.81863 Z M140.56689,31.48913 L161.67592,31.48913 C161.67592,24.63036 158.34642,19.43634 151.35447,19.43634 C143.8298,19.43634 140.5003,25.62921 140.56689,31.48913 Z M182.71836,51.33295 C176.85844,51.33295 175.32687,47.33755 175.32687,42.60966 L175.32687,1.52363 L179.45545,1.52363 L179.45545,42.27671 C179.45545,46.3387 181.25338,48.00345 183.31767,48.07004 L185.38196,48.07004 L185.38196,50.93341 C184.4497,51.19977 183.38426,51.33295 182.71836,51.33295 Z M200.83084,51.33295 C194.97092,51.33295 193.43935,47.33755 193.43935,42.60966 L193.43935,1.52363 L197.56793,1.52363 L197.56793,42.27671 C197.56793,46.3387 199.36586,48.00345 201.43015,48.07004 L203.49444,48.07004 L203.49444,50.93341 C202.56218,51.19977 201.49674,51.33295 200.83084,51.33295 Z M225.0696,51.6659 C215.34746,51.6659 209.82049,44.47418 209.82049,34.01955 C209.82049,23.36515 215.48064,15.90707 225.13619,15.90707 C234.72515,15.90707 240.31871,23.36515 240.31871,33.88637 C240.31871,44.40759 234.72515,51.6659 225.0696,51.6659 Z M225.20278,48.13663 C232.59427,48.13663 235.99036,42.14353 235.99036,33.81978 C235.99036,25.42944 232.46109,19.50293 225.13619,19.50293 C217.7447,19.50293 214.08225,25.49603 214.08225,33.81978 C214.08225,42.07694 217.7447,48.13663 225.20278,48.13663 Z M253.30376,44.60736 L253.30376,51 L247.7102,51 L247.7102,44.60736 L253.30376,44.60736 Z M31.62565,97.95986 L6.92076,97.95986 L6.92076,121 L2.72559,121 L2.72559,72.85543 L6.92076,72.85543 L6.92076,94.03105 L31.62565,94.03105 L31.62565,72.85543 L35.88741,72.85543 L35.88741,121 L31.62565,121 L31.62565,97.95986 Z M50.13767,104.81863 C50.13767,112.07694 53.66694,118.07004 61.39138,118.07004 C66.31904,118.07004 69.58195,115.73939 70.98034,111.41104 L75.17551,111.41104 C73.37758,118.53617 67.78402,121.6659 61.45797,121.6659 C52.20196,121.6659 45.80932,115.20667 45.80932,104.08614 C45.80932,92.96561 51.40288,85.90707 60.99184,85.90707 C70.18126,85.90707 75.44187,92.23312 75.44187,102.75434 L75.44187,104.81863 L50.13767,104.81863 Z M50.20426,101.48913 L71.31329,101.48913 C71.31329,94.63036 67.98379,89.43634 60.99184,89.43634 C53.46717,89.43634 50.13767,95.62921 50.20426,101.48913 Z M86.16286,131.98735 C82.50041,131.98735 81.50156,131.32145 81.50156,131.32145 L81.50156,128.52467 L85.09742,128.52467 C89.75872,128.65785 91.29029,126.59356 92.15596,124.52927 L93.62094,120.53387 L80.16976,86.57297 L84.49811,86.57297 L95.68523,115.40644 L106.73917,86.57297 L110.86775,86.57297 L96.08477,124.92881 C93.95389,130.25601 90.5578,131.98735 86.16286,131.98735 Z M119.05832,114.60736 L119.05832,121 L113.46476,121 L113.46476,114.60736 L119.05832,114.60736 Z M174.26143,98.69235 L151.55424,98.69235 L151.55424,121 L145.62773,121 L145.62773,72.85543 L151.55424,72.85543 L151.55424,93.43174 L174.26143,93.43174 L174.26143,72.85543 L180.25453,72.85543 L180.25453,121 L174.26143,121 L174.26143,98.69235 Z M205.0926,121.6659 C195.17069,121.6659 189.44395,114.40759 189.44395,104.01955 C189.44395,93.36515 195.43705,85.90707 205.15919,85.90707 C215.01451,85.90707 220.80784,93.43174 220.80784,103.95296 C220.80784,114.341 214.94792,121.6659 205.0926,121.6659 Z M205.22578,116.93801 C211.95137,116.93801 214.88133,111.14468 214.88133,103.75319 C214.88133,96.29511 211.88478,90.63496 205.15919,90.63496 C198.4336,90.63496 195.37046,96.3617 195.37046,103.75319 C195.37046,111.14468 198.4336,116.93801 205.22578,116.93801 Z M237.98806,121.39954 C230.72975,121.39954 229.39795,117.0046 229.39795,112.21012 L229.39795,71.52363 L235.25787,71.52363 L235.25787,111.61081 C235.25787,115.20667 236.72285,116.87142 239.12009,117.0046 L241.0512,117.0046 L241.0512,120.86682 C239.98576,121.19977 238.78714,121.39954 237.98806,121.39954 Z M258.16483,121.6659 C251.50583,121.6659 246.84453,118.00345 246.84453,111.74399 C246.84453,104.08614 251.83878,100.49028 263.62521,100.22392 L269.88467,100.02415 L269.88467,97.29396 C269.88467,92.83243 266.68835,90.30201 261.89387,90.3686 C257.89847,90.3686 254.3692,92.29971 253.57012,96.22852 L248.24292,96.22852 C248.57587,90.3686 253.90307,85.90707 262.16023,85.90707 C271.0167,85.90707 275.61141,90.23542 275.61141,96.96101 L275.61141,121 L270.55057,121 L270.08444,114.74054 C267.35425,120.13433 263.15908,121.6659 258.16483,121.6659 Z M259.96276,117.33755 C264.62406,117.33755 269.81808,113.54192 269.88467,109.6797 L269.88467,103.75319 L264.69065,103.81978 C256.63326,103.95296 252.63786,106.01725 252.63786,111.14468 C252.63786,115.07349 255.701,117.33755 259.96276,117.33755 Z M291.26006,113.27556 L291.26006,121 L284.06834,121 L284.06834,113.27556 L291.26006,113.27556 Z M30.09408,169.62461 L9.91731,169.62461 L9.91731,191 L1.79333,191 L1.79333,142.85543 L9.91731,142.85543 L9.91731,162.69925 L30.09408,162.69925 L30.09408,142.85543 L38.21806,142.85543 L38.21806,191 L30.09408,191 L30.09408,169.62461 Z M62.72318,191.6659 C52.53491,191.6659 46.47522,184.40759 46.47522,174.01955 C46.47522,163.29856 52.86786,155.90707 62.78977,155.90707 C72.91145,155.90707 78.97114,163.49833 78.97114,173.95296 C78.97114,184.341 72.84486,191.6659 62.72318,191.6659 Z M62.78977,185.53962 C68.71628,185.53962 70.98034,179.94606 70.98034,173.6866 C70.98034,167.36055 68.64969,162.03335 62.78977,162.03335 C56.79667,162.03335 54.46602,167.42714 54.46602,173.6866 C54.46602,179.94606 56.79667,185.53962 62.78977,185.53962 Z M131.71042,156.57297 L120.78966,191 L113.8643,191 L106.80576,168.09304 L99.8804,191 L93.08822,191 L82.10087,156.57297 L89.42577,156.57297 L96.5509,180.27901 L96.95044,180.27901 L103.94239,156.57297 L109.8689,156.57297 L117.06062,180.21242 L117.39357,180.21242 L124.31893,156.57297 L131.71042,156.57297 Z M149.22359,191.6659 C139.76781,191.6659 134.77356,184.60736 134.77356,173.62001 C134.77356,163.29856 139.36827,155.90707 148.4911,155.90707 C154.08466,155.90707 157.74711,158.90362 159.21209,161.43404 L159.21209,141.52363 L167.26948,141.52363 L167.26948,191 L161.34297,191 L160.41071,183.94146 C159.34527,187.20437 156.54849,191.6659 149.22359,191.6659 Z M150.95493,185.6728 C155.816,185.6728 159.1455,182.01035 159.21209,177.0161 L159.21209,170.3571 C159.07891,166.82783 157.01462,161.96676 150.95493,161.96676 C145.89409,161.96676 142.76436,165.49603 142.76436,173.55342 C142.76436,182.21012 146.16045,185.6728 150.95493,185.6728 Z M180.92043,201.98735 C176.52549,201.98735 174.99392,200.9885 174.99392,200.9885 L174.99392,195.79448 L178.52319,195.86107 C184.05016,196.12743 185.04901,193.6636 185.58173,192.3318 L186.4474,189.86797 L173.06281,156.57297 L181.1202,156.57297 L190.24303,180.87832 L199.43245,156.57297 L207.29007,156.57297 L193.1064,192.26521 C189.91008,200.05624 186.04786,201.98735 180.92043,201.98735 Z M217.81129,181.6774 L217.81129,191 L208.68846,191 L208.68846,181.6774 L217.81129,181.6774 Z M28.82887,241.023 L12.38114,241.023 L12.38114,261 L0.99425,261 L0.99425,212.85543 L12.38114,212.85543 L12.38114,231.63381 L28.82887,231.63381 L28.82887,212.85543 L40.14917,212.85543 L40.14917,261 L28.82887,261 L28.82887,241.023 Z M58.26165,246.41679 C58.19506,251.07809 60.65889,253.60851 64.38793,253.60851 C67.2513,253.60851 69.44877,252.60966 70.5808,249.6797 L80.63589,249.6797 C79.43727,257.20437 72.11237,261.6659 64.65429,261.6659 C54.19966,261.6659 47.07453,254.80713 47.07453,244.21932 C47.07453,234.09764 53.40058,225.90707 64.18816,225.90707 C75.04233,225.90707 80.63589,233.29856 80.63589,243.55342 L80.63589,246.41679 L58.26165,246.41679 Z M58.19506,239.89097 L70.11467,239.89097 C70.11467,236.49488 68.11697,233.6981 64.12157,233.6981 C60.5923,233.6981 58.19506,236.69465 58.19506,239.89097 Z M91.29029,271.98735 C86.29604,271.98735 84.29834,270.65555 84.29834,270.65555 L84.29834,263.46383 L87.69443,263.6636 C94.02048,264.06314 94.5532,261.26636 94.81956,260.53387 L95.2191,259.26866 L81.83451,226.57297 L93.02163,226.57297 L100.41312,247.14928 L108.00438,226.57297 L119.05832,226.57297 L105.34078,260.06774 C101.27879,269.92306 96.95044,271.98735 91.29029,271.98735 Z M132.24314,261.6659 C125.65073,261.6659 120.45671,257.87027 120.45671,250.94491 C120.45671,243.42024 126.05027,239.22507 138.36942,239.22507 L141.89869,239.15848 L141.89869,237.42714 C141.89869,234.69695 140.23394,233.29856 137.10421,233.36515 C134.84015,233.43174 132.10996,234.364 131.11111,237.0276 L121.78851,237.0276 C122.18805,229.43634 128.91364,225.90707 137.63693,225.90707 C148.89064,225.90707 152.75286,230.30201 152.75286,236.69465 L152.75286,261 L143.29708,261 L142.36482,255.33985 C140.10076,260.20092 136.97103,261.6659 132.24314,261.6659 Z M136.10536,254.341 C139.10191,254.341 141.8321,252.01035 141.89869,249.41334 L141.89869,244.75204 L139.10191,244.75204 C135.63923,244.75204 131.1777,245.95066 131.1777,249.74629 C131.1777,252.67625 133.44176,254.341 136.10536,254.341 Z M171.46465,249.21357 L171.46465,261 L159.34527,261 L159.34527,249.21357 L171.46465,249.21357 Z M220.20853,241.6889 L205.62532,241.6889 L205.62532,261 L192.64027,261 L192.64027,212.85543 L205.62532,212.85543 L205.62532,231.10109 L220.20853,231.10109 L220.20853,212.85543 L233.19358,212.85543 L233.19358,261 L220.20853,261 L220.20853,241.6889 Z M251.50583,261.6659 C244.98001,261.6659 239.58622,257.80368 239.58622,250.67855 C239.58622,243.22047 245.37955,238.89212 257.89847,238.89212 L260.56207,238.89212 L260.56207,237.42714 C260.56207,235.22967 259.36345,234.23082 256.76644,234.29741 C254.96851,234.364 252.50468,234.96331 251.43924,237.29396 L240.91802,237.29396 C241.31756,229.16998 248.50928,225.90707 257.36575,225.90707 C269.35195,225.90707 272.94781,230.30201 272.94781,236.62806 L272.94781,261 L262.22682,261 L261.09479,255.53962 C259.0305,260.20092 256.16713,261.6659 251.50583,261.6659 Z M256.03395,253.47533 C258.56437,253.47533 260.49548,251.54422 260.56207,249.34675 L260.56207,245.0184 L258.49778,245.0184 C256.43349,245.0184 251.77219,245.95066 251.77219,249.34675 C251.77219,251.94376 253.83648,253.47533 256.03395,253.47533 Z M292.3255,211.52363 L292.3255,222.44439 L279.34045,222.44439 L279.34045,211.52363 L292.3255,211.52363 Z M292.3255,226.57297 L292.3255,261 L279.34045,261 L279.34045,226.57297 L292.3255,226.57297 Z M312.03614,247.94836 L312.03614,261 L298.38519,261 L298.38519,247.94836 L312.03614,247.94836 Z"/>
</svg>
