<?xml version="1.0" encoding="UTF-8"?>
<svg xmlns="http://www.w3.org/2000/svg" width="628" height="133" viewBox="0 0 628 133">
  <path fill="#171717" d="M32.5492244,27.678732 L5.99485383,27.678732 L5.99485383,51.3005113 L3.39931384,51.3005113 L3.39931384,3.32706625 L5.99485383,3.32706625 L5.99485383,24.9582462 L32.5492244,24.9582462 L32.5492244,3.32706625 L35.1447644,3.32706625 L35.1447644,51.3005113 L32.5492244,51.3005113 L32.5492244,27.678732 Z M51.7162889,4.38871925 L51.7162889,8.36991801 L48.5217782,8.36991801 L48.5217782,4.38871925 L51.7162889,4.38871925 Z M51.4500797,16.9958487 L51.4500797,51.3005113 L48.8545397,51.3005113 L48.8545397,16.9958487 L51.4500797,16.9958487 Z M66.4909011,46.1913062 L66.4909011,51.3005113 L62.4312104,51.3005113 L62.4312104,46.1913062 L66.4909011,46.1913062 Z M122.195182,28.3422651 L97.5042763,28.3422651 L97.5042763,51.3005113 L93.3114809,51.3005113 L93.3114809,3.32706625 L97.5042763,3.32706625 L97.5042763,24.4274197 L122.195182,24.4274197 L122.195182,3.32706625 L126.45453,3.32706625 L126.45453,51.3005113 L122.195182,51.3005113 L122.195182,28.3422651 Z M140.696724,35.1766563 C140.696724,42.4091674 144.223996,48.3809655 151.944064,48.3809655 C156.868934,48.3809655 160.129997,46.0585996 161.527596,41.7456343 L165.720391,41.7456343 C163.923479,48.8454387 158.333085,51.9640444 152.010616,51.9640444 C142.759845,51.9640444 136.370824,45.5277731 136.370824,34.4467699 C136.370824,23.3657667 141.961218,16.3323155 151.54475,16.3323155 C160.728968,16.3323155 165.9866,22.6358802 165.9866,33.1197036 L165.9866,35.1766563 L140.696724,35.1766563 Z M140.763276,31.8589907 L161.860357,31.8589907 C161.860357,25.0245995 158.532742,19.8490411 151.54475,19.8490411 C144.024339,19.8490411 140.696724,26.0198992 140.763276,31.8589907 Z M182.890886,51.6322778 C177.034283,51.6322778 175.50358,47.6510791 175.50358,42.9399939 L175.50358,2 L179.629823,2 L179.629823,42.6082273 C179.629823,46.6557794 181.426736,48.3146122 183.489857,48.3809655 L185.552979,48.3809655 L185.552979,51.234158 C184.621246,51.4995712 183.55641,51.6322778 182.890886,51.6322778 Z M200.993114,51.6322778 C195.136511,51.6322778 193.605808,47.6510791 193.605808,42.9399939 L193.605808,2 L197.732051,2 L197.732051,42.6082273 C197.732051,46.6557794 199.528963,48.3146122 201.592085,48.3809655 L203.655206,48.3809655 L203.655206,51.234158 C202.723474,51.4995712 201.658637,51.6322778 200.993114,51.6322778 Z M225.218154,51.9640444 C215.501517,51.9640444 209.977676,44.7978866 209.977676,34.3804166 C209.977676,23.7638865 215.634622,16.3323155 225.284706,16.3323155 C234.868238,16.3323155 240.458632,23.7638865 240.458632,34.2477099 C240.458632,44.7315333 234.868238,51.9640444 225.218154,51.9640444 Z M225.351258,48.4473188 C232.738565,48.4473188 236.132732,42.4755207 236.132732,34.1813566 C236.132732,25.8208392 232.60546,19.9153944 225.284706,19.9153944 C217.8974,19.9153944 214.237023,25.8871925 214.237023,34.1813566 C214.237023,42.4091674 217.8974,48.4473188 225.351258,48.4473188 Z M253.436332,44.9305933 L253.436332,51.3005113 L247.845938,51.3005113 L247.845938,44.9305933 L253.436332,44.9305933 Z M31.8837013,98.0934572 L7.19279536,98.0934572 L7.19279536,121.051703 L3,121.051703 L3,73.0782584 L7.19279536,73.0782584 L7.19279536,94.1786118 L31.8837013,94.1786118 L31.8837013,73.0782584 L36.143049,73.0782584 L36.143049,121.051703 L31.8837013,121.051703 L31.8837013,98.0934572 Z M50.3852428,104.927848 C50.3852428,112.16036 53.912515,118.132158 61.6325827,118.132158 C66.5574534,118.132158 69.8185165,115.809792 71.2161149,111.496826 L75.4089103,111.496826 C73.611998,118.596631 68.0216042,121.715237 61.699135,121.715237 C52.4483643,121.715237 46.0593428,115.278965 46.0593428,104.197962 C46.0593428,93.1169588 51.6497366,86.0835077 61.2332688,86.0835077 C70.4174872,86.0835077 75.6751195,92.3870724 75.6751195,102.870896 L75.6751195,104.927848 L50.3852428,104.927848 Z M50.4517951,101.610183 L71.5488765,101.610183 C71.5488765,94.7757916 68.2212611,89.6002332 61.2332688,89.6002332 C53.7128581,89.6002332 50.3852428,95.7710913 50.4517951,101.610183 Z M86.390041,132 C82.7296641,132 81.7313795,131.336467 81.7313795,131.336467 L81.7313795,128.549628 L85.3252041,128.549628 C89.9838656,128.682334 91.5145686,126.625382 92.3797486,124.568429 L93.8438994,120.58723 L80.4003333,86.7470408 L84.7262333,86.7470408 L95.9070209,115.478025 L106.954704,86.7470408 L111.080947,86.7470408 L96.3063348,124.966549 C94.1766609,130.274814 90.7824933,132 86.390041,132 Z M119.266881,114.681785 L119.266881,121.051703 L113.676487,121.051703 L113.676487,114.681785 L119.266881,114.681785 Z M174.438743,98.8233437 L151.744407,98.8233437 L151.744407,121.051703 L145.821251,121.051703 L145.821251,73.0782584 L151.744407,73.0782584 L151.744407,93.581432 L174.438743,93.581432 L174.438743,73.0782584 L180.428451,73.0782584 L180.428451,121.051703 L174.438743,121.051703 L174.438743,98.8233437 Z M205.252462,121.715237 C195.336168,121.715237 189.61267,114.482725 189.61267,104.131609 C189.61267,93.5150787 195.602377,86.0835077 205.319014,86.0835077 C215.168755,86.0835077 220.958806,93.581432 220.958806,104.065255 C220.958806,114.416372 215.102203,121.715237 205.252462,121.715237 Z M205.385566,117.004151 C212.107349,117.004151 215.035651,111.231413 215.035651,103.866195 C215.035651,96.4346244 212.040797,90.7945929 205.319014,90.7945929 C198.597231,90.7945929 195.535825,96.5009777 195.535825,103.866195 C195.535825,111.231413 198.597231,117.004151 205.385566,117.004151 Z M238.129301,121.449823 C230.8751,121.449823 229.544054,117.070505 229.544054,112.293066 L229.544054,71.7511921 L235.400657,71.7511921 L235.400657,111.695886 C235.400657,115.278965 236.864808,116.937798 239.260691,117.070505 L241.190708,117.070505 L241.190708,120.918997 C240.125871,121.250763 238.927929,121.449823 238.129301,121.449823 Z M258.294651,121.715237 C251.63942,121.715237 246.980758,118.065804 246.980758,111.828593 C246.980758,104.197962 251.972181,100.614883 263.75194,100.34947 L270.007857,100.15041 L270.007857,97.4299241 C270.007857,92.9842522 266.813346,90.4628263 262.02158,90.5291796 C258.028441,90.5291796 254.501169,92.4534257 253.702541,96.3682711 L248.378357,96.3682711 C248.711118,90.5291796 254.035303,86.0835077 262.287789,86.0835077 C271.139246,86.0835077 275.731355,90.396473 275.731355,97.0981576 L275.731355,121.051703 L270.67338,121.051703 L270.207514,114.814492 C267.478869,120.18911 263.286074,121.715237 258.294651,121.715237 Z M260.091563,117.402271 C264.750224,117.402271 269.941304,113.620132 270.007857,109.77164 L270.007857,103.866195 L264.816777,103.932549 C256.763948,104.065255 252.770809,106.122208 252.770809,111.231413 C252.770809,115.146259 255.832215,117.402271 260.091563,117.402271 Z M291.371147,113.354719 L291.371147,121.051703 L284.183498,121.051703 L284.183498,113.354719 L291.371147,113.354719 Z M306.434866,30.0010979 L286.269517,30.0010979 L286.269517,51.3005113 L278.150136,51.3005113 L278.150136,3.32706625 L286.269517,3.32706625 L286.269517,23.1003534 L306.434866,23.1003534 L306.434866,3.32706625 L314.554248,3.32706625 L314.554248,51.3005113 L306.434866,51.3005113 L306.434866,30.0010979 Z M339.045497,51.9640444 C328.862994,51.9640444 322.806734,44.7315333 322.806734,34.3804166 C322.806734,23.6975332 329.195755,16.3323155 339.112049,16.3323155 C349.228,16.3323155 355.28426,23.8965932 355.28426,34.3140633 C355.28426,44.66518 349.161447,51.9640444 339.045497,51.9640444 Z M339.112049,45.8595396 C345.035204,45.8595396 347.297983,40.2858614 347.297983,34.04865 C347.297983,27.7450853 344.968652,22.4368203 339.112049,22.4368203 C333.122341,22.4368203 330.793011,27.8114386 330.793011,34.04865 C330.793011,40.2858614 333.122341,45.8595396 339.112049,45.8595396 Z M407.993687,16.9958487 L397.079109,51.3005113 L390.157669,51.3005113 L383.103124,28.4749717 L376.181684,51.3005113 L369.393349,51.3005113 L358.412218,16.9958487 L365.732972,16.9958487 L372.854069,40.617628 L373.253383,40.617628 L380.241375,16.9958487 L386.16453,16.9958487 L393.352179,40.5512746 L393.684941,40.5512746 L400.606381,16.9958487 L407.993687,16.9958487 Z M425.496944,51.9640444 C416.046516,51.9640444 411.055093,44.9305933 411.055093,33.9822967 C411.055093,23.6975332 415.647202,16.3323155 424.764868,16.3323155 C430.355262,16.3323155 434.015639,19.3182146 435.47979,21.8396405 L435.47979,2 L443.532619,2 L443.532619,51.3005113 L437.609464,51.3005113 L436.677731,44.2670601 C435.612894,47.5183725 432.817698,51.9640444 425.496944,51.9640444 Z M427.227304,45.9922463 C432.085622,45.9922463 435.413238,42.3428141 435.47979,37.3663156 L435.47979,30.7309844 C435.346685,27.2142588 433.283564,22.370467 427.227304,22.370467 C422.169328,22.370467 419.04137,25.8871925 419.04137,33.9159434 C419.04137,42.541874 422.435538,45.9922463 427.227304,45.9922463 Z M457.175842,62.2488079 C452.78339,62.2488079 451.252687,61.2535082 451.252687,61.2535082 L451.252687,56.0779498 L454.779959,56.1443031 C460.3038,56.4097164 461.302085,53.9546438 461.834504,52.6275775 L462.699684,50.172505 L449.32267,16.9958487 L457.375499,16.9958487 L466.493165,41.2148078 L475.677383,16.9958487 L483.530556,16.9958487 L469.354914,52.5612242 C466.160404,60.3245618 462.30037,62.2488079 457.175842,62.2488079 Z M494.04582,42.0110475 L494.04582,51.3005113 L484.928154,51.3005113 L484.928154,42.0110475 L494.04582,42.0110475 Z M342.953037,101.14571 L326.514617,101.14571 L326.514617,121.051703 L315.134173,121.051703 L315.134173,73.0782584 L326.514617,73.0782584 L326.514617,91.7898925 L342.953037,91.7898925 L342.953037,73.0782584 L354.26693,73.0782584 L354.26693,121.051703 L342.953037,121.051703 L342.953037,101.14571 Z M372.369157,106.520328 C372.302605,111.16506 374.76504,113.686486 378.491969,113.686486 C381.353719,113.686486 383.549945,112.691186 384.681334,109.77164 L394.730732,109.77164 C393.532791,117.269565 386.212037,121.715237 378.758179,121.715237 C368.309466,121.715237 361.188369,114.880845 361.188369,104.330669 C361.188369,94.2449651 367.510839,86.0835077 378.292312,86.0835077 C389.140339,86.0835077 394.730732,93.4487254 394.730732,103.667136 L394.730732,106.520328 L372.369157,106.520328 Z M372.302605,100.017703 L384.215468,100.017703 C384.215468,96.6336844 382.218899,93.8468452 378.22576,93.8468452 C374.698488,93.8468452 372.302605,96.8327443 372.302605,100.017703 Z M405.379101,132 C400.387678,132 398.391109,130.672934 398.391109,130.672934 L398.391109,123.506776 L401.785277,123.705836 C408.107746,124.103956 408.640165,121.317117 408.906374,120.58723 L409.305688,119.326517 L395.928674,86.7470408 L407.109461,86.7470408 L414.496768,107.250214 L422.083731,86.7470408 L433.131414,86.7470408 L419.421638,120.122757 C415.361948,129.943047 411.036048,132 405.379101,132 Z M446.30877,121.715237 C439.720092,121.715237 434.529012,117.933098 434.529012,111.032353 C434.529012,103.534429 440.119406,99.3541702 452.431583,99.3541702 L455.958855,99.2878169 L455.958855,97.5626307 C455.958855,94.8421449 454.295047,93.4487254 451.167089,93.5150787 C448.90431,93.581432 446.175666,94.5103784 445.177381,97.1645109 L435.860058,97.1645109 C436.259372,89.6002332 442.981155,86.0835077 451.699507,86.0835077 C462.946847,86.0835077 466.806881,90.4628263 466.806881,96.8327443 L466.806881,121.051703 L457.356453,121.051703 L456.424721,115.411672 C454.161943,120.255464 451.033984,121.715237 446.30877,121.715237 Z M450.168804,114.416372 C453.163658,114.416372 455.892303,112.094006 455.958855,109.506227 L455.958855,104.861495 L453.163658,104.861495 C449.702938,104.861495 445.243934,106.055855 445.243934,109.837994 C445.243934,112.757539 447.506712,114.416372 450.168804,114.416372 Z M485.508079,109.307167 L485.508079,121.051703 L473.395559,121.051703 L473.395559,109.307167 L485.508079,109.307167 Z M534.224368,101.809243 L519.649413,101.809243 L519.649413,121.051703 L506.671713,121.051703 L506.671713,73.0782584 L519.649413,73.0782584 L519.649413,91.259066 L534.224368,91.259066 L534.224368,73.0782584 L547.202068,73.0782584 L547.202068,121.051703 L534.224368,121.051703 L534.224368,101.809243 Z M565.503953,121.715237 C558.981827,121.715237 553.59109,117.866744 553.59109,110.76694 C553.59109,103.335369 559.38114,99.0224036 571.892974,99.0224036 L574.555067,99.0224036 L574.555067,97.5626307 C574.555067,95.3729714 573.357125,94.3776717 570.761585,94.4440251 C568.964673,94.5103784 566.502237,95.1075582 565.4374,97.4299241 L554.922136,97.4299241 C555.32145,89.33482 562.509099,86.0835077 571.360556,86.0835077 C583.339971,86.0835077 586.933796,90.4628263 586.933796,96.766391 L586.933796,121.051703 L576.218874,121.051703 L575.087485,115.610732 C573.024363,120.255464 570.162614,121.715237 565.503953,121.715237 Z M570.02951,113.553779 C572.558497,113.553779 574.488514,111.629533 574.555067,109.439874 L574.555067,105.126908 L572.491945,105.126908 C570.428823,105.126908 565.770162,106.055855 565.770162,109.439874 C565.770162,112.027653 567.833283,113.553779 570.02951,113.553779 Z M606.300517,71.7511921 L606.300517,82.6331354 L593.322817,82.6331354 L593.322817,71.7511921 L606.300517,71.7511921 Z M606.300517,86.7470408 L606.300517,121.051703 L593.322817,121.051703 L593.322817,86.7470408 L606.300517,86.7470408 Z M626,108.046454 L626,121.051703 L612.356777,121.051703 L612.356777,108.046454 L626,108.046454 Z"/>
</svg>
