<?xml version="1.0" encoding="UTF-8"?>
<svg xmlns="http://www.w3.org/2000/svg" width="304" height="315" viewBox="0 0 304 315">
  <defs>
    <rect id="powerful-utility-classes-a" width="126" height="162" x="0" y="0" rx="4"/>
    <rect id="powerful-utility-classes-c" width="166.365" height="47" x="0" y="0"/>
    <polygon id="powerful-utility-classes-e" points="73.169 115.056 0 115.051 36.58 0"/>
    <polygon id="powerful-utility-classes-g" points="118.607 0 95.991 71.098 .201 0"/>
    <polygon id="powerful-utility-classes-i" points=".425 43.938 59.623 0 96.217 115.046"/>
    <polygon id="powerful-utility-classes-k" points="36.589 .229 95.781 44.175 0 115.285"/>
    <polygon id="powerful-utility-classes-m" points="22.606 71.109 0 .008 118.398 0"/>
    <rect id="powerful-utility-classes-o" width="126" height="161" x="0" y="0" rx="4"/>
    <path id="powerful-utility-classes-q" d="M4,0 L52,0 C54.209139,-4.05812251e-16 56,1.790861 56,4 L56,4 C56,6.209139 54.209139,8 52,8 L4,8 C1.790861,8 2.705415e-16,6.209139 0,4 L0,4 C-2.705415e-16,1.790861 1.790861,4.05812251e-16 4,0 Z"/>
    <filter id="powerful-utility-classes-r" width="250%" height="1150%" x="-75%" y="-375%" filterUnits="objectBoundingBox">
      <feOffset dy="12" in="SourceAlpha" result="shadowOffsetOuter1"/>
      <feGaussianBlur in="shadowOffsetOuter1" result="shadowBlurOuter1" stdDeviation="12"/>
      <feColorMatrix in="shadowBlurOuter1" values="0 0 0 0 0   0 0 0 0 0   0 0 0 0 0  0 0 0 0 0"/>
    </filter>
    <path id="powerful-utility-classes-t" d="M2,0 L113,0 C114.104569,-2.02906125e-16 115,0.8954305 115,2 L115,2 C115,3.1045695 114.104569,4 113,4 L2,4 C0.8954305,4 1.3527075e-16,3.1045695 0,2 L0,2 C-1.3527075e-16,0.8954305 0.8954305,2.02906125e-16 2,0 Z"/>
    <filter id="powerful-utility-classes-u" width="173%" height="2200%" x="-36.5%" y="-750%" filterUnits="objectBoundingBox">
      <feOffset dy="12" in="SourceAlpha" result="shadowOffsetOuter1"/>
      <feGaussianBlur in="shadowOffsetOuter1" result="shadowBlurOuter1" stdDeviation="12"/>
      <feColorMatrix in="shadowBlurOuter1" values="0 0 0 0 0   0 0 0 0 0   0 0 0 0 0  0 0 0 0 0"/>
    </filter>
    <path id="powerful-utility-classes-w" d="M2,0 L113,0 C114.104569,-2.02906125e-16 115,0.8954305 115,2 L115,2 C115,3.1045695 114.104569,4 113,4 L2,4 C0.8954305,4 1.3527075e-16,3.1045695 0,2 L0,2 C-1.3527075e-16,0.8954305 0.8954305,2.02906125e-16 2,0 Z"/>
    <filter id="powerful-utility-classes-x" width="173%" height="2200%" x="-36.5%" y="-750%" filterUnits="objectBoundingBox">
      <feOffset dy="12" in="SourceAlpha" result="shadowOffsetOuter1"/>
      <feGaussianBlur in="shadowOffsetOuter1" result="shadowBlurOuter1" stdDeviation="12"/>
      <feColorMatrix in="shadowBlurOuter1" values="0 0 0 0 0   0 0 0 0 0   0 0 0 0 0  0 0 0 0 0"/>
    </filter>
    <path id="powerful-utility-classes-z" d="M1,0 L15,0 C15.5522847,-1.01453063e-16 16,0.44771525 16,1 L16,1 C16,1.55228475 15.5522847,2 15,2 L1,2 C0.44771525,2 6.76353751e-17,1.55228475 0,1 L0,1 C-6.76353751e-17,0.44771525 0.44771525,1.01453063e-16 1,0 Z"/>
    <filter id="powerful-utility-classes-A" width="625%" height="4300%" x="-262.5%" y="-1500%" filterUnits="objectBoundingBox">
      <feOffset dy="12" in="SourceAlpha" result="shadowOffsetOuter1"/>
      <feGaussianBlur in="shadowOffsetOuter1" result="shadowBlurOuter1" stdDeviation="12"/>
      <feColorMatrix in="shadowBlurOuter1" values="0 0 0 0 0   0 0 0 0 0   0 0 0 0 0  0 0 0 0 0"/>
    </filter>
    <path id="powerful-utility-classes-C" d="M1,0 L15,0 C15.5522847,-1.01453063e-16 16,0.44771525 16,1 L16,1 C16,1.55228475 15.5522847,2 15,2 L1,2 C0.44771525,2 6.76353751e-17,1.55228475 0,1 L0,1 C-6.76353751e-17,0.44771525 0.44771525,1.01453063e-16 1,0 Z"/>
    <filter id="powerful-utility-classes-D" width="625%" height="4300%" x="-262.5%" y="-1500%" filterUnits="objectBoundingBox">
      <feOffset dy="12" in="SourceAlpha" result="shadowOffsetOuter1"/>
      <feGaussianBlur in="shadowOffsetOuter1" result="shadowBlurOuter1" stdDeviation="12"/>
      <feColorMatrix in="shadowBlurOuter1" values="0 0 0 0 0   0 0 0 0 0   0 0 0 0 0  0 0 0 0 0"/>
    </filter>
    <path id="powerful-utility-classes-F" d="M1,0 L15,0 C15.5522847,-1.01453063e-16 16,0.44771525 16,1 L16,1 C16,1.55228475 15.5522847,2 15,2 L1,2 C0.44771525,2 6.76353751e-17,1.55228475 0,1 L0,1 C-6.76353751e-17,0.44771525 0.44771525,1.01453063e-16 1,0 Z"/>
    <filter id="powerful-utility-classes-G" width="625%" height="4300%" x="-262.5%" y="-1500%" filterUnits="objectBoundingBox">
      <feOffset dy="12" in="SourceAlpha" result="shadowOffsetOuter1"/>
      <feGaussianBlur in="shadowOffsetOuter1" result="shadowBlurOuter1" stdDeviation="12"/>
      <feColorMatrix in="shadowBlurOuter1" values="0 0 0 0 0   0 0 0 0 0   0 0 0 0 0  0 0 0 0 0"/>
    </filter>
    <path id="powerful-utility-classes-I" d="M2,0 L94,0 C95.1045695,-2.02906125e-16 96,0.8954305 96,2 L96,2 C96,3.1045695 95.1045695,4 94,4 L2,4 C0.8954305,4 1.3527075e-16,3.1045695 0,2 L0,2 C-1.3527075e-16,0.8954305 0.8954305,2.02906125e-16 2,0 Z"/>
    <filter id="powerful-utility-classes-J" width="187.5%" height="2200%" x="-43.8%" y="-750%" filterUnits="objectBoundingBox">
      <feOffset dy="12" in="SourceAlpha" result="shadowOffsetOuter1"/>
      <feGaussianBlur in="shadowOffsetOuter1" result="shadowBlurOuter1" stdDeviation="12"/>
      <feColorMatrix in="shadowBlurOuter1" values="0 0 0 0 0   0 0 0 0 0   0 0 0 0 0  0 0 0 0 0"/>
    </filter>
    <path id="powerful-utility-classes-L" d="M2,0 L94,0 C95.1045695,-2.02906125e-16 96,0.8954305 96,2 L96,2 C96,3.1045695 95.1045695,4 94,4 L2,4 C0.8954305,4 1.3527075e-16,3.1045695 0,2 L0,2 C-1.3527075e-16,0.8954305 0.8954305,2.02906125e-16 2,0 Z"/>
    <filter id="powerful-utility-classes-M" width="187.5%" height="2200%" x="-43.8%" y="-750%" filterUnits="objectBoundingBox">
      <feOffset dy="12" in="SourceAlpha" result="shadowOffsetOuter1"/>
      <feGaussianBlur in="shadowOffsetOuter1" result="shadowBlurOuter1" stdDeviation="12"/>
      <feColorMatrix in="shadowBlurOuter1" values="0 0 0 0 0   0 0 0 0 0   0 0 0 0 0  0 0 0 0 0"/>
    </filter>
    <path id="powerful-utility-classes-O" d="M2,0 L94,0 C95.1045695,-2.02906125e-16 96,0.8954305 96,2 L96,2 C96,3.1045695 95.1045695,4 94,4 L2,4 C0.8954305,4 1.3527075e-16,3.1045695 0,2 L0,2 C-1.3527075e-16,0.8954305 0.8954305,2.02906125e-16 2,0 Z"/>
    <filter id="powerful-utility-classes-P" width="187.5%" height="2200%" x="-43.8%" y="-750%" filterUnits="objectBoundingBox">
      <feOffset dy="12" in="SourceAlpha" result="shadowOffsetOuter1"/>
      <feGaussianBlur in="shadowOffsetOuter1" result="shadowBlurOuter1" stdDeviation="12"/>
      <feColorMatrix in="shadowBlurOuter1" values="0 0 0 0 0   0 0 0 0 0   0 0 0 0 0  0 0 0 0 0"/>
    </filter>
    <path id="powerful-utility-classes-R" d="M2,0 L94,0 C95.1045695,-2.02906125e-16 96,0.8954305 96,2 L96,2 C96,3.1045695 95.1045695,4 94,4 L2,4 C0.8954305,4 1.3527075e-16,3.1045695 0,2 L0,2 C-1.3527075e-16,0.8954305 0.8954305,2.02906125e-16 2,0 Z"/>
    <filter id="powerful-utility-classes-S" width="187.5%" height="2200%" x="-43.8%" y="-750%" filterUnits="objectBoundingBox">
      <feOffset dy="12" in="SourceAlpha" result="shadowOffsetOuter1"/>
      <feGaussianBlur in="shadowOffsetOuter1" result="shadowBlurOuter1" stdDeviation="12"/>
      <feColorMatrix in="shadowBlurOuter1" values="0 0 0 0 0   0 0 0 0 0   0 0 0 0 0  0 0 0 0 0"/>
    </filter>
    <path id="powerful-utility-classes-U" d="M2,0 L94,0 C95.1045695,-2.02906125e-16 96,0.8954305 96,2 L96,2 C96,3.1045695 95.1045695,4 94,4 L2,4 C0.8954305,4 1.3527075e-16,3.1045695 0,2 L0,2 C-1.3527075e-16,0.8954305 0.8954305,2.02906125e-16 2,0 Z"/>
    <filter id="powerful-utility-classes-V" width="187.5%" height="2200%" x="-43.8%" y="-750%" filterUnits="objectBoundingBox">
      <feOffset dy="12" in="SourceAlpha" result="shadowOffsetOuter1"/>
      <feGaussianBlur in="shadowOffsetOuter1" result="shadowBlurOuter1" stdDeviation="12"/>
      <feColorMatrix in="shadowBlurOuter1" values="0 0 0 0 0   0 0 0 0 0   0 0 0 0 0  0 0 0 0 0"/>
    </filter>
    <path id="powerful-utility-classes-X" d="M2,0 L94,0 C95.1045695,-2.02906125e-16 96,0.8954305 96,2 L96,2 C96,3.1045695 95.1045695,4 94,4 L2,4 C0.8954305,4 1.3527075e-16,3.1045695 0,2 L0,2 C-1.3527075e-16,0.8954305 0.8954305,2.02906125e-16 2,0 Z"/>
    <filter id="powerful-utility-classes-Y" width="187.5%" height="2200%" x="-43.8%" y="-750%" filterUnits="objectBoundingBox">
      <feOffset dy="12" in="SourceAlpha" result="shadowOffsetOuter1"/>
      <feGaussianBlur in="shadowOffsetOuter1" result="shadowBlurOuter1" stdDeviation="12"/>
      <feColorMatrix in="shadowBlurOuter1" values="0 0 0 0 0   0 0 0 0 0   0 0 0 0 0  0 0 0 0 0"/>
    </filter>
    <path id="powerful-utility-classes-aa" d="M0.292893219,1.70710678 C-0.0976310729,1.31658249 -0.0976310729,0.683417511 0.292893219,0.292893219 C0.683417511,-0.0976310729 1.31658249,-0.0976310729 1.70710678,0.292893219 L6.41421356,5 L1.70710678,9.70710678 C1.31658249,10.0976311 0.683417511,10.0976311 0.292893219,9.70710678 C-0.0976310729,9.31658249 -0.0976310729,8.68341751 0.292893219,8.29289322 L3.58578644,5 L0.292893219,1.70710678 Z"/>
    <polygon id="powerful-utility-classes-ac" points="5.952 9.068 0 9.068 2.975 0"/>
    <polygon id="powerful-utility-classes-ae" points="9.647 0 7.808 5.604 .016 0"/>
    <polygon id="powerful-utility-classes-ag" points=".035 3.463 4.85 0 7.826 9.068"/>
    <polygon id="powerful-utility-classes-ai" points="2.976 .018 7.791 3.482 0 9.087"/>
    <polygon id="powerful-utility-classes-ak" points="1.839 5.605 0 .001 9.63 0"/>
    <path id="powerful-utility-classes-am" d="M0.292893219,1.70710678 C-0.0976310729,1.31658249 -0.0976310729,0.683417511 0.292893219,0.292893219 C0.683417511,-0.0976310729 1.31658249,-0.0976310729 1.70710678,0.292893219 L6.41421356,5 L1.70710678,9.70710678 C1.31658249,10.0976311 0.683417511,10.0976311 0.292893219,9.70710678 C-0.0976310729,9.31658249 -0.0976310729,8.68341751 0.292893219,8.29289322 L3.58578644,5 L0.292893219,1.70710678 Z"/>
    <path id="powerful-utility-classes-ao" d="M0.292893219,1.70710678 C-0.0976310729,1.31658249 -0.0976310729,0.683417511 0.292893219,0.292893219 C0.683417511,-0.0976310729 1.31658249,-0.0976310729 1.70710678,0.292893219 L6.41421356,5 L1.70710678,9.70710678 C1.31658249,10.0976311 0.683417511,10.0976311 0.292893219,9.70710678 C-0.0976310729,9.31658249 -0.0976310729,8.68341751 0.292893219,8.29289322 L3.58578644,5 L0.292893219,1.70710678 Z"/>
  </defs>
  <g fill="none" fill-rule="evenodd">
    <rect width="304" height="315" fill="#FFF"/>
    <g transform="translate(3 3)">
      <mask id="powerful-utility-classes-b" fill="#fff">
        <use href="#powerful-utility-classes-a"/>
      </mask>
      <rect width="128" height="164" x="-1" y="-1" stroke="#171717" stroke-width="2" rx="4"/>
      <g fill="#F5F5F0" mask="url(#powerful-utility-classes-b)">
        <polygon points="0 0 158 0 158 125 0 125" transform="translate(-17 118)"/>
      </g>
      <g mask="url(#powerful-utility-classes-b)">
        <g transform="translate(-7.922 82)">
          <mask id="powerful-utility-classes-d" fill="#fff">
            <use href="#powerful-utility-classes-c"/>
          </mask>
          <g mask="url(#powerful-utility-classes-d)">
            <polygon fill="#171717" points="0 0 180 0 180 64 0 64" transform="translate(-7.042)"/>
          </g>
          <g mask="url(#powerful-utility-classes-d)">
            <g transform="translate(-35.078 -38)">
              <g transform="translate(135.446 6.415)">
                <mask id="powerful-utility-classes-f" fill="#fff">
                  <use href="#powerful-utility-classes-e"/>
                </mask>
                <g fill="#2E2E2E" mask="url(#powerful-utility-classes-f)">
                  <polygon points="0 0 74 0 74 126 0 126" transform="translate(-.897 -6.415)"/>
                </g>
              </g>
              <g transform="translate(44.85)">
                <mask id="powerful-utility-classes-h" fill="#fff">
                  <use href="#powerful-utility-classes-g"/>
                </mask>
                <g fill="#2E2E2E" mask="url(#powerful-utility-classes-h)">
                  <polygon points="0 0 132 0 132 71 0 71" transform="translate(-4.933)"/>
                </g>
              </g>
              <g transform="translate(2.691 87.524)">
                <mask id="powerful-utility-classes-j" fill="#fff">
                  <use href="#powerful-utility-classes-i"/>
                </mask>
                <g fill="#3D4551" mask="url(#powerful-utility-classes-j)">
                  <polygon points="0 0 107 0 107 126 0 126" transform="translate(-4.933 -7.332)"/>
                </g>
              </g>
              <g transform="translate(0 5.957)">
                <mask id="powerful-utility-classes-l" fill="#fff">
                  <use href="#powerful-utility-classes-k"/>
                </mask>
                <g fill="#2E2E2E" mask="url(#powerful-utility-classes-l)">
                  <polygon points="0 0 101 0 101 132 0 132" transform="translate(-2.242 -5.957)"/>
                </g>
              </g>
              <g transform="translate(87.009 131.515)">
                <mask id="powerful-utility-classes-n" fill="#fff">
                  <use href="#powerful-utility-classes-m"/>
                </mask>
                <g fill="#2E2E2E" mask="url(#powerful-utility-classes-n)">
                  <polygon points="0 0 157 0 157 115 0 115" transform="translate(-20.182 -33.91)"/>
                </g>
              </g>
            </g>
          </g>
        </g>
      </g>
      <g stroke="#D63E04" stroke-width="2" mask="url(#powerful-utility-classes-b)">
        <rect width="30" height="10" x="1" y="1" rx="5" transform="translate(3 64)"/>
      </g>
      <g mask="url(#powerful-utility-classes-b)">
        <g transform="translate(3 23)">
          <rect width="56" height="8" y="14" fill="#171717" rx="4"/>
          <rect width="36" height="8" x="83" fill="#E6E6E6" rx="4"/>
          <rect width="36" height="8" y="25" fill="#171717" rx="4"/>
        </g>
      </g>
      <g mask="url(#powerful-utility-classes-b)" style="mix-blend-mode:multiply">
        <g transform="translate(6 135.946)">
          <g transform="translate(18 .054)">
            <rect width="96" height="4" fill="#E6E6E6" rx="2"/>
            <rect width="96" height="4" y="8" fill="#E6E6E6" rx="2"/>
            <rect width="96" height="4" y="16" fill="#E6E6E6" rx="2"/>
            <rect width="96" height="4" y="24" fill="#E6E6E6" rx="2"/>
          </g>
          <g transform="translate(0 .054)">
            <rect width="14" height="2" fill="#171717" rx="1"/>
            <rect width="14" height="2" y="4" fill="#171717" rx="1"/>
            <rect width="14" height="2" y="8" fill="#171717" rx="1"/>
            <rect width="14" height="2" y="12" fill="#171717" rx="1"/>
          </g>
        </g>
      </g>
      <g fill="#E6E6E6" mask="url(#powerful-utility-classes-b)">
        <g transform="translate(4 26)">
          <rect width="15" height="2" rx="1"/>
          <rect width="15" height="2" x="19" rx="1"/>
          <rect width="15" height="2" x="36" rx="1"/>
          <rect width="15" height="2" x="55" rx="1"/>
        </g>
      </g>
      <rect width="205" height="6" x="-39" y="12" fill="#171717" mask="url(#powerful-utility-classes-b)"/>
      <g fill="#F0F0F0" mask="url(#powerful-utility-classes-b)">
        <g transform="translate(3.521 3.521)">
          <rect width="4" height="4" rx="2"/>
          <rect width="4" height="4" x="7" rx="2"/>
          <rect width="4" height="4" x="14" rx="2"/>
        </g>
      </g>
    </g>
    <g transform="translate(175 3)">
      <mask id="powerful-utility-classes-p" fill="#fff">
        <use href="#powerful-utility-classes-o"/>
      </mask>
      <rect width="128" height="163" x="-1" y="-1" stroke="#171717" stroke-width="2" rx="4"/>
      <g fill="#F5F5F0" mask="url(#powerful-utility-classes-p)">
        <polygon points="0 0 158 0 158 125 0 125" transform="translate(-17 98)"/>
      </g>
      <g fill="#2672DE" mask="url(#powerful-utility-classes-p)">
        <rect width="51" height="12" rx="2" transform="translate(71 76)"/>
      </g>
      <g mask="url(#powerful-utility-classes-p)">
        <g transform="translate(3 23)">
          <g transform="translate(0 15)">
            <rect width="84" height="11.898" fill="#171717" rx="5.949"/>
            <rect width="54" height="11.898" y="17" fill="#D63E04" rx="5.949"/>
          </g>
          <rect width="36" height="8" x="83" fill="#E6E6E6" rx="4"/>
        </g>
      </g>
      <g mask="url(#powerful-utility-classes-p)" style="mix-blend-mode:multiply">
        <g transform="translate(3 219.946)">
          <mask id="powerful-utility-classes-s" fill="#fff">
            <use href="#powerful-utility-classes-q"/>
          </mask>
          <use fill="#000" filter="url(#powerful-utility-classes-r)" href="#powerful-utility-classes-q"/>
          <g fill="#E6E6E6" mask="url(#powerful-utility-classes-s)">
            <polygon points="0 0 58 0 58 10 0 10" transform="translate(-1 -1)"/>
          </g>
          <g transform="translate(0 12)">
            <mask id="powerful-utility-classes-v" fill="#fff">
              <use href="#powerful-utility-classes-t"/>
            </mask>
            <use fill="#000" filter="url(#powerful-utility-classes-u)" href="#powerful-utility-classes-t"/>
            <g fill="#E6E6E6" mask="url(#powerful-utility-classes-v)">
              <polygon points="0 0 117 0 117 6 0 6" transform="translate(-1 -1)"/>
            </g>
          </g>
          <g transform="translate(0 20)">
            <mask id="powerful-utility-classes-y" fill="#fff">
              <use href="#powerful-utility-classes-w"/>
            </mask>
            <use fill="#000" filter="url(#powerful-utility-classes-x)" href="#powerful-utility-classes-w"/>
            <g fill="#DCDEE0" mask="url(#powerful-utility-classes-y)">
              <polygon points="0 0 117 0 117 6 0 6" transform="translate(-1 -1)"/>
            </g>
          </g>
          <g transform="translate(122 12)">
            <mask id="powerful-utility-classes-B" fill="#fff">
              <use href="#powerful-utility-classes-z"/>
            </mask>
            <use fill="#000" filter="url(#powerful-utility-classes-A)" href="#powerful-utility-classes-z"/>
            <g fill="#E6E6E6" mask="url(#powerful-utility-classes-B)">
              <polygon points="0 0 18 0 18 4 0 4" transform="translate(-1 -1)"/>
            </g>
            <g transform="translate(0 4)">
              <mask id="powerful-utility-classes-E" fill="#fff">
                <use href="#powerful-utility-classes-C"/>
              </mask>
              <use fill="#000" filter="url(#powerful-utility-classes-D)" href="#powerful-utility-classes-C"/>
              <g fill="#DCDEE0" mask="url(#powerful-utility-classes-E)">
                <polygon points="0 0 18 0 18 4 0 4" transform="translate(-1 -1)"/>
              </g>
            </g>
            <g transform="translate(0 8)">
              <mask id="powerful-utility-classes-H" fill="#fff">
                <use href="#powerful-utility-classes-F"/>
              </mask>
              <use fill="#000" filter="url(#powerful-utility-classes-G)" href="#powerful-utility-classes-F"/>
              <g fill="#DCDEE0" mask="url(#powerful-utility-classes-H)">
                <polygon points="0 0 18 0 18 4 0 4" transform="translate(-1 -1)"/>
              </g>
            </g>
          </g>
        </g>
      </g>
      <g mask="url(#powerful-utility-classes-p)" style="mix-blend-mode:multiply">
        <g transform="translate(5 105)">
          <g transform="translate(0 .054)">
            <rect width="96" height="4" fill="#E6E6E6" rx="2"/>
            <rect width="96" height="4" y="8" fill="#E6E6E6" rx="2"/>
            <rect width="96" height="4" y="16" fill="#E6E6E6" rx="2"/>
            <rect width="96" height="4" y="24" fill="#E6E6E6" rx="2"/>
            <rect width="96" height="4" y="32" fill="#E6E6E6" rx="2"/>
            <rect width="96" height="4" y="40" fill="#E6E6E6" rx="2"/>
          </g>
          <g transform="translate(0 58)">
            <mask id="powerful-utility-classes-K" fill="#fff">
              <use href="#powerful-utility-classes-I"/>
            </mask>
            <use fill="#000" filter="url(#powerful-utility-classes-J)" href="#powerful-utility-classes-I"/>
            <g fill="#E6E6E6" mask="url(#powerful-utility-classes-K)">
              <polygon points="0 0 98 0 98 6 0 6" transform="translate(-1 -1)"/>
            </g>
            <g transform="translate(0 8)">
              <mask id="powerful-utility-classes-N" fill="#fff">
                <use href="#powerful-utility-classes-L"/>
              </mask>
              <use fill="#000" filter="url(#powerful-utility-classes-M)" href="#powerful-utility-classes-L"/>
              <g fill="#E6E6E6" mask="url(#powerful-utility-classes-N)">
                <polygon points="0 0 98 0 98 6 0 6" transform="translate(-1 -1)"/>
              </g>
            </g>
            <g transform="translate(0 16)">
              <mask id="powerful-utility-classes-Q" fill="#fff">
                <use href="#powerful-utility-classes-O"/>
              </mask>
              <use fill="#000" filter="url(#powerful-utility-classes-P)" href="#powerful-utility-classes-O"/>
              <g fill="#E6E6E6" mask="url(#powerful-utility-classes-Q)">
                <polygon points="0 0 98 0 98 6 0 6" transform="translate(-1 -1)"/>
              </g>
            </g>
            <g transform="translate(0 24)">
              <mask id="powerful-utility-classes-T" fill="#fff">
                <use href="#powerful-utility-classes-R"/>
              </mask>
              <use fill="#000" filter="url(#powerful-utility-classes-S)" href="#powerful-utility-classes-R"/>
              <g fill="#E6E6E6" mask="url(#powerful-utility-classes-T)">
                <polygon points="0 0 98 0 98 6 0 6" transform="translate(-1 -1)"/>
              </g>
            </g>
            <g transform="translate(0 32)">
              <mask id="powerful-utility-classes-W" fill="#fff">
                <use href="#powerful-utility-classes-U"/>
              </mask>
              <use fill="#000" filter="url(#powerful-utility-classes-V)" href="#powerful-utility-classes-U"/>
              <g fill="#E6E6E6" mask="url(#powerful-utility-classes-W)">
                <polygon points="0 0 98 0 98 6 0 6" transform="translate(-1 -1)"/>
              </g>
            </g>
            <g transform="translate(0 40)">
              <mask id="powerful-utility-classes-Z" fill="#fff">
                <use href="#powerful-utility-classes-X"/>
              </mask>
              <use fill="#000" filter="url(#powerful-utility-classes-Y)" href="#powerful-utility-classes-X"/>
              <g fill="#E6E6E6" mask="url(#powerful-utility-classes-Z)">
                <polygon points="0 0 98 0 98 6 0 6" transform="translate(-1 -1)"/>
              </g>
            </g>
          </g>
          <g transform="translate(102 1.054)">
            <rect width="14" height="2" fill="#171717" rx="1"/>
            <rect width="14" height="2" y="4" fill="#171717" rx="1"/>
            <rect width="14" height="2" y="8" fill="#171717" rx="1"/>
            <rect width="14" height="2" y="12" fill="#171717" rx="1"/>
          </g>
        </g>
      </g>
      <g fill="#E6E6E6" mask="url(#powerful-utility-classes-p)">
        <g transform="translate(4 26)">
          <rect width="15" height="2" rx="1"/>
          <rect width="15" height="2" x="19" rx="1"/>
          <rect width="15" height="2" x="36" rx="1"/>
          <rect width="15" height="2" x="55" rx="1"/>
        </g>
      </g>
      <rect width="205" height="6" x="-39" y="12" fill="#171717" mask="url(#powerful-utility-classes-p)"/>
      <g fill="#F0F0F0" mask="url(#powerful-utility-classes-p)">
        <g transform="translate(3.521 3.521)">
          <rect width="4" height="4" rx="2"/>
          <rect width="4" height="4" x="7" rx="2"/>
          <rect width="4" height="4" x="14" rx="2"/>
        </g>
      </g>
    </g>
    <g transform="translate(4 179)">
      <g transform="translate(0 56)">
        <g fill="#ADADAD" transform="translate(18 6)">
          <rect width="15" height="2" rx="1"/>
          <rect width="15" height="2" y="4" rx="1"/>
          <rect width="15" height="2" y="8" rx="1"/>
          <rect width="15" height="2" y="12" rx="1"/>
        </g>
        <path fill="#171717" fill-rule="nonzero" d="M48.5810547,17.8574219 C48.8740249,17.8574219 49.1596666,17.8105473 49.4379883,17.7167969 C49.71631,17.6230464 49.9638661,17.4926766 50.1806641,17.3256836 C50.397462,17.1586906 50.5717767,16.9624035 50.7036133,16.7368164 C50.8354499,16.5112293 50.9042968,16.2666029 50.9101562,16.0029297 L52.4482422,16.0029297 C52.4423828,16.4248068 52.3325206,16.8276348 52.1186523,17.2114258 C51.9047841,17.5952168 51.6191424,17.9321275 51.2617188,18.222168 C50.9042951,18.5122085 50.4941429,18.7436515 50.03125,18.9165039 C49.5683571,19.0893563 49.0849635,19.1757812 48.5810547,19.1757812 C47.860348,19.1757812 47.2304714,19.0468763 46.6914062,18.7890625 C46.1523411,18.5312487 45.7026385,18.1840842 45.3422852,17.7475586 C44.9819318,17.311033 44.7109384,16.8071318 44.5292969,16.2358398 C44.3476553,15.6645479 44.2568359,15.0625032 44.2568359,14.4296875 L44.2568359,14.0605469 C44.2568359,13.4335906 44.3476553,12.8330107 44.5292969,12.2587891 C44.7109384,11.6845674 44.9819318,11.1792014 45.3422852,10.7426758 C45.7026385,10.3061502 46.1523411,9.95898566 46.6914062,9.70117188 C47.2304714,9.44335809 47.860348,9.31445312 48.5810547,9.31445312 C49.1435575,9.31445312 49.6606422,9.4038077 50.1323242,9.58251953 C50.6040063,9.76123136 51.0112288,10.004393 51.3540039,10.3120117 C51.6967791,10.6196304 51.9648428,10.9843729 52.1582031,11.40625 C52.3515635,11.8281271 52.4482422,12.2792945 52.4482422,12.7597656 L50.9101562,12.7597656 C50.9042968,12.4726548 50.8413092,12.2016614 50.7211914,11.9467773 C50.6010736,11.6918933 50.4384776,11.4677744 50.2333984,11.2744141 C50.0283193,11.0810537 49.7836928,10.9287115 49.4995117,10.8173828 C49.2153306,10.7060541 48.9091813,10.6503906 48.5810547,10.6503906 C48.0771459,10.6503906 47.6538103,10.7514638 47.3110352,10.9536133 C46.96826,11.1557627 46.6914073,11.419432 46.4804688,11.7446289 C46.2695302,12.0698258 46.1186528,12.4345683 46.027832,12.8388672 C45.9370113,13.2431661 45.8916016,13.6503886 45.8916016,14.0605469 L45.8916016,14.4296875 C45.8916016,14.8457052 45.9370113,15.2573222 46.027832,15.6645508 C46.1186528,16.0717794 46.2680654,16.4379867 46.4760742,16.7631836 C46.6840831,17.0883805 46.9594709,17.3520498 47.3022461,17.5541992 C47.6450212,17.7563487 48.0712865,17.8574219 48.5810547,17.8574219 Z M55.5859375,5.5 L60.4462891,5.5 L60.4462891,17.59375 L63.5488281,17.59375 L63.5488281,19 L55.5859375,19 L55.5859375,17.59375 L58.8203125,17.59375 L58.8203125,6.91503906 L55.5859375,6.91503906 L55.5859375,5.5 Z M72.3818359,19 C72.3173825,18.8769525 72.2661135,18.7231455 72.2280273,18.5385742 C72.1899412,18.354003 72.1621095,18.1621104 72.1445312,17.9628906 C71.9804679,18.1269539 71.7973643,18.2822258 71.5952148,18.4287109 C71.3930654,18.575196 71.1704114,18.704101 70.9272461,18.8154297 C70.6840808,18.9267584 70.4248061,19.0146481 70.1494141,19.0791016 C69.8740221,19.143555 69.5810562,19.1757812 69.2705078,19.1757812 C68.766599,19.1757812 68.3110372,19.1025398 67.9038086,18.9560547 C67.49658,18.8095696 67.1508803,18.6118177 66.8666992,18.362793 C66.5825181,18.1137683 66.3627937,17.8178728 66.2075195,17.4750977 C66.0522453,17.1323225 65.9746094,16.7617207 65.9746094,16.3632812 C65.9746094,15.8417943 66.0786122,15.3847676 66.2866211,14.9921875 C66.4946299,14.5996074 66.7890606,14.2729505 67.1699219,14.012207 C67.5507832,13.7514635 68.0092747,13.5566413 68.5454102,13.4277344 C69.0815456,13.2988275 69.6806608,13.234375 70.3427734,13.234375 L72.1181641,13.234375 L72.1181641,12.4873047 C72.1181641,12.2001939 72.0654302,11.942384 71.9599609,11.7138672 C71.8544917,11.4853504 71.7050791,11.2905281 71.5117188,11.1293945 C71.3183584,10.9682609 71.0825209,10.8437504 70.8041992,10.7558594 C70.5258775,10.6679683 70.2138689,10.6240234 69.8681641,10.6240234 C69.5458968,10.6240234 69.2573255,10.6650387 69.0024414,10.7470703 C68.7475573,10.829102 68.5322274,10.9374993 68.3564453,11.0722656 C68.1806632,11.2070319 68.0444341,11.3666983 67.9477539,11.5512695 C67.8510737,11.7358408 67.8027344,11.9277334 67.8027344,12.1269531 L66.1679688,12.1269531 C66.1738282,11.7812483 66.2631827,11.4414079 66.4360352,11.1074219 C66.6088876,10.7734358 66.8579085,10.4731459 67.1831055,10.206543 C67.5083024,9.93994007 67.9038063,9.7246102 68.3696289,9.56054688 C68.8354515,9.39648355 69.3642549,9.31445312 69.9560547,9.31445312 C70.4951199,9.31445312 70.9960914,9.38037043 71.4589844,9.51220703 C71.9218773,9.64404363 72.3217757,9.84326039 72.6586914,10.1098633 C72.9956072,10.3764662 73.2607412,10.7089824 73.4541016,11.1074219 C73.6474619,11.5058614 73.7441406,11.971677 73.7441406,12.5048828 L73.7441406,16.9257812 C73.7441406,17.2421891 73.7734372,17.5776349 73.8320312,17.9321289 C73.8906253,18.2866229 73.9726557,18.5957018 74.078125,18.859375 L74.078125,19 L72.3818359,19 Z M69.5078125,17.7607422 C69.8242203,17.7607422 70.1201158,17.719727 70.3955078,17.6376953 C70.6708998,17.5556637 70.9213856,17.4472663 71.1469727,17.3125 C71.3725597,17.1777337 71.567382,17.0239266 71.7314453,16.8510742 C71.8955086,16.6782218 72.0244136,16.4980478 72.1181641,16.3105469 L72.1181641,14.3857422 L70.6064453,14.3857422 C69.6572218,14.3857422 68.9189479,14.5263658 68.3916016,14.8076172 C67.8642552,15.0888686 67.6005859,15.531247 67.6005859,16.1347656 C67.6005859,16.3691418 67.6401363,16.5859365 67.7192383,16.7851562 C67.7983402,16.984376 67.9169914,17.155761 68.0751953,17.2993164 C68.2333992,17.4428718 68.432616,17.5556637 68.6728516,17.6376953 C68.9130871,17.719727 69.1914047,17.7607422 69.5078125,17.7607422 Z M83.2539062,16.4775391 C83.2539062,16.2841787 83.2158207,16.1098641 83.1396484,15.9545898 C83.0634762,15.7993156 82.9345712,15.6572272 82.7529297,15.5283203 C82.5712882,15.3994134 82.3310562,15.2807623 82.0322266,15.1723633 C81.7333969,15.0639643 81.3613304,14.9658208 80.9160156,14.8779297 C80.371091,14.766601 79.874514,14.6318367 79.4262695,14.4736328 C78.9780251,14.3154289 78.5942399,14.1264659 78.2749023,13.9067383 C77.9555648,13.6870106 77.7080087,13.4292007 77.5322266,13.1333008 C77.3564444,12.8374009 77.2685547,12.493166 77.2685547,12.1005859 C77.2685547,11.7138653 77.3593741,11.3520525 77.5410156,11.0151367 C77.7226572,10.678221 77.9775374,10.3837903 78.3056641,10.1318359 C78.6337907,9.87988155 79.0249001,9.68066479 79.4790039,9.53417969 C79.9331077,9.38769458 80.4326145,9.31445312 80.9775391,9.31445312 C81.5634795,9.31445312 82.090818,9.39062424 82.5595703,9.54296875 C83.0283227,9.69531326 83.4267562,9.90624865 83.7548828,10.1757812 C84.0830095,10.4453138 84.3364249,10.7602521 84.5151367,11.1206055 C84.6938485,11.4809588 84.7832031,11.8691385 84.7832031,12.2851562 L83.1572266,12.2851562 C83.1572266,12.0800771 83.1044927,11.8793955 82.9990234,11.6831055 C82.8935542,11.4868154 82.7470713,11.3125008 82.5595703,11.1601562 C82.3720694,11.0078117 82.1450209,10.8847661 81.878418,10.7910156 C81.6118151,10.6972652 81.3115251,10.6503906 80.9775391,10.6503906 C80.6318342,10.6503906 80.3286146,10.6884762 80.0678711,10.7646484 C79.8071276,10.8408207 79.5903329,10.9433587 79.4174805,11.0722656 C79.244628,11.2011725 79.1142583,11.3505851 79.0263672,11.5205078 C78.9384761,11.6904305 78.8945312,11.86621 78.8945312,12.0478516 C78.8945312,12.2353525 78.9296871,12.402343 79,12.5488281 C79.0703129,12.6953132 79.1918937,12.8271479 79.3647461,12.9443359 C79.5375985,13.061524 79.7690415,13.1669917 80.059082,13.2607422 C80.3491225,13.3544927 80.7167946,13.4453121 81.1621094,13.5332031 C81.7480498,13.6562506 82.2724586,13.798339 82.7353516,13.9594727 C83.1982445,14.1206063 83.587889,14.3139637 83.9042969,14.5395508 C84.2207047,14.7651378 84.4624015,15.0273423 84.6293945,15.3261719 C84.7963876,15.6250015 84.8798828,15.9707012 84.8798828,16.3632812 C84.8798828,16.7851584 84.7846689,17.1689436 84.5942383,17.5146484 C84.4038076,17.8603533 84.1386736,18.1562488 83.7988281,18.4023438 C83.4589827,18.6484387 83.0517602,18.8388665 82.5771484,18.9736328 C82.1025367,19.1083991 81.5839872,19.1757812 81.0214844,19.1757812 C80.3769499,19.1757812 79.8027369,19.0893563 79.2988281,18.9165039 C78.7949194,18.7436515 78.3686541,18.5151381 78.0200195,18.230957 C77.671385,17.9467759 77.4047861,17.6171894 77.2202148,17.2421875 C77.0356436,16.8671856 76.9433594,16.4775411 76.9433594,16.0732422 L78.5693359,16.0732422 C78.5927736,16.4072282 78.6821281,16.6884754 78.8374023,16.9169922 C78.9926766,17.145509 79.186034,17.3300774 79.4174805,17.4707031 C79.6489269,17.6113288 79.905272,17.7109372 80.1865234,17.7695312 C80.4677748,17.8281253 80.7460924,17.8574219 81.0214844,17.8574219 C81.7070347,17.8574219 82.2490214,17.7314466 82.6474609,17.4794922 C83.0459004,17.2275378 83.2480468,16.8935568 83.2539062,16.4775391 Z M94.0556641,16.4775391 C94.0556641,16.2841787 94.0175785,16.1098641 93.9414062,15.9545898 C93.865234,15.7993156 93.736329,15.6572272 93.5546875,15.5283203 C93.373046,15.3994134 93.132814,15.2807623 92.8339844,15.1723633 C92.5351548,15.0639643 92.1630882,14.9658208 91.7177734,14.8779297 C91.1728488,14.766601 90.6762718,14.6318367 90.2280273,14.4736328 C89.7797829,14.3154289 89.3959977,14.1264659 89.0766602,13.9067383 C88.7573226,13.6870106 88.5097665,13.4292007 88.3339844,13.1333008 C88.1582022,12.8374009 88.0703125,12.493166 88.0703125,12.1005859 C88.0703125,11.7138653 88.1611319,11.3520525 88.3427734,11.0151367 C88.524415,10.678221 88.7792952,10.3837903 89.1074219,10.1318359 C89.4355485,9.87988155 89.8266579,9.68066479 90.2807617,9.53417969 C90.7348656,9.38769458 91.2343723,9.31445312 91.7792969,9.31445312 C92.3652373,9.31445312 92.8925758,9.39062424 93.3613281,9.54296875 C93.8300805,9.69531326 94.228514,9.90624865 94.5566406,10.1757812 C94.8847673,10.4453138 95.1381827,10.7602521 95.3168945,11.1206055 C95.4956064,11.4809588 95.5849609,11.8691385 95.5849609,12.2851562 L93.9589844,12.2851562 C93.9589844,12.0800771 93.9062505,11.8793955 93.8007812,11.6831055 C93.695312,11.4868154 93.5488291,11.3125008 93.3613281,11.1601562 C93.1738272,11.0078117 92.9467787,10.8847661 92.6801758,10.7910156 C92.4135729,10.6972652 92.1132829,10.6503906 91.7792969,10.6503906 C91.433592,10.6503906 91.1303724,10.6884762 90.8696289,10.7646484 C90.6088854,10.8408207 90.3920907,10.9433587 90.2192383,11.0722656 C90.0463859,11.2011725 89.9160161,11.3505851 89.828125,11.5205078 C89.7402339,11.6904305 89.6962891,11.86621 89.6962891,12.0478516 C89.6962891,12.2353525 89.731445,12.402343 89.8017578,12.5488281 C89.8720707,12.6953132 89.9936515,12.8271479 90.1665039,12.9443359 C90.3393563,13.061524 90.5707993,13.1669917 90.8608398,13.2607422 C91.1508804,13.3544927 91.5185525,13.4453121 91.9638672,13.5332031 C92.5498076,13.6562506 93.0742164,13.798339 93.5371094,13.9594727 C94.0000023,14.1206063 94.3896469,14.3139637 94.7060547,14.5395508 C95.0224625,14.7651378 95.2641593,15.0273423 95.4311523,15.3261719 C95.5981454,15.6250015 95.6816406,15.9707012 95.6816406,16.3632812 C95.6816406,16.7851584 95.5864267,17.1689436 95.3959961,17.5146484 C95.2055655,17.8603533 94.9404314,18.1562488 94.6005859,18.4023438 C94.2607405,18.6484387 93.853518,18.8388665 93.3789062,18.9736328 C92.9042945,19.1083991 92.385745,19.1757812 91.8232422,19.1757812 C91.1787077,19.1757812 90.6044947,19.0893563 90.1005859,18.9165039 C89.5966772,18.7436515 89.1704119,18.5151381 88.8217773,18.230957 C88.4731428,17.9467759 88.2065439,17.6171894 88.0219727,17.2421875 C87.8374014,16.8671856 87.7451172,16.4775411 87.7451172,16.0732422 L89.3710938,16.0732422 C89.3945314,16.4072282 89.4838859,16.6884754 89.6391602,16.9169922 C89.7944344,17.145509 89.9877918,17.3300774 90.2192383,17.4707031 C90.4506848,17.6113288 90.7070298,17.7109372 90.9882812,17.7695312 C91.2695327,17.8281253 91.5478502,17.8574219 91.8232422,17.8574219 C92.5087925,17.8574219 93.0507793,17.7314466 93.4492188,17.4794922 C93.8476582,17.2275378 94.0498047,16.8935568 94.0556641,16.4775391 Z M106.37793,12.1445312 L98.5292969,12.1445312 L98.5292969,10.7294922 L106.37793,10.7294922 L106.37793,12.1445312 Z M106.37793,15.7919922 L98.5292969,15.7919922 L98.5292969,14.3857422 L106.37793,14.3857422 L106.37793,15.7919922 Z M112.249023,6.45800781 L112.064453,9.70996094 L110.921875,9.70996094 L110.930664,6.59863281 L110.930664,5.5 L112.249023,5.5 L112.249023,6.45800781 Z M115.386719,6.45800781 L115.202148,9.70996094 L114.068359,9.70996094 L114.077148,6.59863281 L114.077148,5.5 L115.395508,5.5 L115.386719,6.45800781 Z M144.654297,6.45800781 L144.469727,9.70996094 L143.327148,9.70996094 L143.335938,6.59863281 L143.335938,5.5 L144.654297,5.5 L144.654297,6.45800781 Z M147.791992,6.45800781 L147.607422,9.70996094 L146.473633,9.70996094 L146.482422,6.59863281 L146.482422,5.5 L147.800781,5.5 L147.791992,6.45800781 Z"/>
        <polygon fill="#171717" fill-rule="nonzero" points="3.568 13.173 3.103 13.322 3.568 13.48 8.947 15.555 8.947 17.277 1.494 13.946 1.494 12.663 8.947 9.341 8.947 11.063"/>
        <polygon fill="#171717" fill-rule="nonzero" points="154.564 11.011 154.564 9.332 162.325 12.654 162.325 13.938 154.564 17.269 154.564 15.581 160.251 13.437 160.778 13.287 160.251 13.12"/>
        <g transform="translate(120 6)">
          <g transform="translate(5 1)">
            <mask id="powerful-utility-classes-ab" fill="#fff">
              <use href="#powerful-utility-classes-aa"/>
            </mask>
            <use fill="#979797" fill-rule="nonzero" href="#powerful-utility-classes-aa"/>
            <g fill="#171717" mask="url(#powerful-utility-classes-ab)">
              <polygon points="0 0 15 0 15 18 0 18" transform="translate(-7 -4)"/>
            </g>
          </g>
          <rect width="10" height="2" y="5" fill="#171717"/>
          <rect width="2" height="10" x="13" y="1" fill="#171717" rx="1"/>
        </g>
      </g>
      <g fill="#171717" fill-rule="nonzero">
        <path d="M48.5810547,17.8574219 C48.8740249,17.8574219 49.1596666,17.8105473 49.4379883,17.7167969 C49.71631,17.6230464 49.9638661,17.4926766 50.1806641,17.3256836 C50.397462,17.1586906 50.5717767,16.9624035 50.7036133,16.7368164 C50.8354499,16.5112293 50.9042968,16.2666029 50.9101562,16.0029297 L52.4482422,16.0029297 C52.4423828,16.4248068 52.3325206,16.8276348 52.1186523,17.2114258 C51.9047841,17.5952168 51.6191424,17.9321275 51.2617188,18.222168 C50.9042951,18.5122085 50.4941429,18.7436515 50.03125,18.9165039 C49.5683571,19.0893563 49.0849635,19.1757812 48.5810547,19.1757812 C47.860348,19.1757812 47.2304714,19.0468763 46.6914062,18.7890625 C46.1523411,18.5312487 45.7026385,18.1840842 45.3422852,17.7475586 C44.9819318,17.311033 44.7109384,16.8071318 44.5292969,16.2358398 C44.3476553,15.6645479 44.2568359,15.0625032 44.2568359,14.4296875 L44.2568359,14.0605469 C44.2568359,13.4335906 44.3476553,12.8330107 44.5292969,12.2587891 C44.7109384,11.6845674 44.9819318,11.1792014 45.3422852,10.7426758 C45.7026385,10.3061502 46.1523411,9.95898566 46.6914062,9.70117188 C47.2304714,9.44335809 47.860348,9.31445312 48.5810547,9.31445312 C49.1435575,9.31445312 49.6606422,9.4038077 50.1323242,9.58251953 C50.6040063,9.76123136 51.0112288,10.004393 51.3540039,10.3120117 C51.6967791,10.6196304 51.9648428,10.9843729 52.1582031,11.40625 C52.3515635,11.8281271 52.4482422,12.2792945 52.4482422,12.7597656 L50.9101562,12.7597656 C50.9042968,12.4726548 50.8413092,12.2016614 50.7211914,11.9467773 C50.6010736,11.6918933 50.4384776,11.4677744 50.2333984,11.2744141 C50.0283193,11.0810537 49.7836928,10.9287115 49.4995117,10.8173828 C49.2153306,10.7060541 48.9091813,10.6503906 48.5810547,10.6503906 C48.0771459,10.6503906 47.6538103,10.7514638 47.3110352,10.9536133 C46.96826,11.1557627 46.6914073,11.419432 46.4804688,11.7446289 C46.2695302,12.0698258 46.1186528,12.4345683 46.027832,12.8388672 C45.9370113,13.2431661 45.8916016,13.6503886 45.8916016,14.0605469 L45.8916016,14.4296875 C45.8916016,14.8457052 45.9370113,15.2573222 46.027832,15.6645508 C46.1186528,16.0717794 46.2680654,16.4379867 46.4760742,16.7631836 C46.6840831,17.0883805 46.9594709,17.3520498 47.3022461,17.5541992 C47.6450212,17.7563487 48.0712865,17.8574219 48.5810547,17.8574219 Z M55.5859375,5.5 L60.4462891,5.5 L60.4462891,17.59375 L63.5488281,17.59375 L63.5488281,19 L55.5859375,19 L55.5859375,17.59375 L58.8203125,17.59375 L58.8203125,6.91503906 L55.5859375,6.91503906 L55.5859375,5.5 Z M72.3818359,19 C72.3173825,18.8769525 72.2661135,18.7231455 72.2280273,18.5385742 C72.1899412,18.354003 72.1621095,18.1621104 72.1445312,17.9628906 C71.9804679,18.1269539 71.7973643,18.2822258 71.5952148,18.4287109 C71.3930654,18.575196 71.1704114,18.704101 70.9272461,18.8154297 C70.6840808,18.9267584 70.4248061,19.0146481 70.1494141,19.0791016 C69.8740221,19.143555 69.5810562,19.1757812 69.2705078,19.1757812 C68.766599,19.1757812 68.3110372,19.1025398 67.9038086,18.9560547 C67.49658,18.8095696 67.1508803,18.6118177 66.8666992,18.362793 C66.5825181,18.1137683 66.3627937,17.8178728 66.2075195,17.4750977 C66.0522453,17.1323225 65.9746094,16.7617207 65.9746094,16.3632812 C65.9746094,15.8417943 66.0786122,15.3847676 66.2866211,14.9921875 C66.4946299,14.5996074 66.7890606,14.2729505 67.1699219,14.012207 C67.5507832,13.7514635 68.0092747,13.5566413 68.5454102,13.4277344 C69.0815456,13.2988275 69.6806608,13.234375 70.3427734,13.234375 L72.1181641,13.234375 L72.1181641,12.4873047 C72.1181641,12.2001939 72.0654302,11.942384 71.9599609,11.7138672 C71.8544917,11.4853504 71.7050791,11.2905281 71.5117188,11.1293945 C71.3183584,10.9682609 71.0825209,10.8437504 70.8041992,10.7558594 C70.5258775,10.6679683 70.2138689,10.6240234 69.8681641,10.6240234 C69.5458968,10.6240234 69.2573255,10.6650387 69.0024414,10.7470703 C68.7475573,10.829102 68.5322274,10.9374993 68.3564453,11.0722656 C68.1806632,11.2070319 68.0444341,11.3666983 67.9477539,11.5512695 C67.8510737,11.7358408 67.8027344,11.9277334 67.8027344,12.1269531 L66.1679688,12.1269531 C66.1738282,11.7812483 66.2631827,11.4414079 66.4360352,11.1074219 C66.6088876,10.7734358 66.8579085,10.4731459 67.1831055,10.206543 C67.5083024,9.93994007 67.9038063,9.7246102 68.3696289,9.56054688 C68.8354515,9.39648355 69.3642549,9.31445312 69.9560547,9.31445312 C70.4951199,9.31445312 70.9960914,9.38037043 71.4589844,9.51220703 C71.9218773,9.64404363 72.3217757,9.84326039 72.6586914,10.1098633 C72.9956072,10.3764662 73.2607412,10.7089824 73.4541016,11.1074219 C73.6474619,11.5058614 73.7441406,11.971677 73.7441406,12.5048828 L73.7441406,16.9257812 C73.7441406,17.2421891 73.7734372,17.5776349 73.8320312,17.9321289 C73.8906253,18.2866229 73.9726557,18.5957018 74.078125,18.859375 L74.078125,19 L72.3818359,19 Z M69.5078125,17.7607422 C69.8242203,17.7607422 70.1201158,17.719727 70.3955078,17.6376953 C70.6708998,17.5556637 70.9213856,17.4472663 71.1469727,17.3125 C71.3725597,17.1777337 71.567382,17.0239266 71.7314453,16.8510742 C71.8955086,16.6782218 72.0244136,16.4980478 72.1181641,16.3105469 L72.1181641,14.3857422 L70.6064453,14.3857422 C69.6572218,14.3857422 68.9189479,14.5263658 68.3916016,14.8076172 C67.8642552,15.0888686 67.6005859,15.531247 67.6005859,16.1347656 C67.6005859,16.3691418 67.6401363,16.5859365 67.7192383,16.7851562 C67.7983402,16.984376 67.9169914,17.155761 68.0751953,17.2993164 C68.2333992,17.4428718 68.432616,17.5556637 68.6728516,17.6376953 C68.9130871,17.719727 69.1914047,17.7607422 69.5078125,17.7607422 Z M83.2539062,16.4775391 C83.2539062,16.2841787 83.2158207,16.1098641 83.1396484,15.9545898 C83.0634762,15.7993156 82.9345712,15.6572272 82.7529297,15.5283203 C82.5712882,15.3994134 82.3310562,15.2807623 82.0322266,15.1723633 C81.7333969,15.0639643 81.3613304,14.9658208 80.9160156,14.8779297 C80.371091,14.766601 79.874514,14.6318367 79.4262695,14.4736328 C78.9780251,14.3154289 78.5942399,14.1264659 78.2749023,13.9067383 C77.9555648,13.6870106 77.7080087,13.4292007 77.5322266,13.1333008 C77.3564444,12.8374009 77.2685547,12.493166 77.2685547,12.1005859 C77.2685547,11.7138653 77.3593741,11.3520525 77.5410156,11.0151367 C77.7226572,10.678221 77.9775374,10.3837903 78.3056641,10.1318359 C78.6337907,9.87988155 79.0249001,9.68066479 79.4790039,9.53417969 C79.9331077,9.38769458 80.4326145,9.31445312 80.9775391,9.31445312 C81.5634795,9.31445312 82.090818,9.39062424 82.5595703,9.54296875 C83.0283227,9.69531326 83.4267562,9.90624865 83.7548828,10.1757812 C84.0830095,10.4453138 84.3364249,10.7602521 84.5151367,11.1206055 C84.6938485,11.4809588 84.7832031,11.8691385 84.7832031,12.2851562 L83.1572266,12.2851562 C83.1572266,12.0800771 83.1044927,11.8793955 82.9990234,11.6831055 C82.8935542,11.4868154 82.7470713,11.3125008 82.5595703,11.1601562 C82.3720694,11.0078117 82.1450209,10.8847661 81.878418,10.7910156 C81.6118151,10.6972652 81.3115251,10.6503906 80.9775391,10.6503906 C80.6318342,10.6503906 80.3286146,10.6884762 80.0678711,10.7646484 C79.8071276,10.8408207 79.5903329,10.9433587 79.4174805,11.0722656 C79.244628,11.2011725 79.1142583,11.3505851 79.0263672,11.5205078 C78.9384761,11.6904305 78.8945312,11.86621 78.8945312,12.0478516 C78.8945312,12.2353525 78.9296871,12.402343 79,12.5488281 C79.0703129,12.6953132 79.1918937,12.8271479 79.3647461,12.9443359 C79.5375985,13.061524 79.7690415,13.1669917 80.059082,13.2607422 C80.3491225,13.3544927 80.7167946,13.4453121 81.1621094,13.5332031 C81.7480498,13.6562506 82.2724586,13.798339 82.7353516,13.9594727 C83.1982445,14.1206063 83.587889,14.3139637 83.9042969,14.5395508 C84.2207047,14.7651378 84.4624015,15.0273423 84.6293945,15.3261719 C84.7963876,15.6250015 84.8798828,15.9707012 84.8798828,16.3632812 C84.8798828,16.7851584 84.7846689,17.1689436 84.5942383,17.5146484 C84.4038076,17.8603533 84.1386736,18.1562488 83.7988281,18.4023438 C83.4589827,18.6484387 83.0517602,18.8388665 82.5771484,18.9736328 C82.1025367,19.1083991 81.5839872,19.1757812 81.0214844,19.1757812 C80.3769499,19.1757812 79.8027369,19.0893563 79.2988281,18.9165039 C78.7949194,18.7436515 78.3686541,18.5151381 78.0200195,18.230957 C77.671385,17.9467759 77.4047861,17.6171894 77.2202148,17.2421875 C77.0356436,16.8671856 76.9433594,16.4775411 76.9433594,16.0732422 L78.5693359,16.0732422 C78.5927736,16.4072282 78.6821281,16.6884754 78.8374023,16.9169922 C78.9926766,17.145509 79.186034,17.3300774 79.4174805,17.4707031 C79.6489269,17.6113288 79.905272,17.7109372 80.1865234,17.7695312 C80.4677748,17.8281253 80.7460924,17.8574219 81.0214844,17.8574219 C81.7070347,17.8574219 82.2490214,17.7314466 82.6474609,17.4794922 C83.0459004,17.2275378 83.2480468,16.8935568 83.2539062,16.4775391 Z M94.0556641,16.4775391 C94.0556641,16.2841787 94.0175785,16.1098641 93.9414062,15.9545898 C93.865234,15.7993156 93.736329,15.6572272 93.5546875,15.5283203 C93.373046,15.3994134 93.132814,15.2807623 92.8339844,15.1723633 C92.5351548,15.0639643 92.1630882,14.9658208 91.7177734,14.8779297 C91.1728488,14.766601 90.6762718,14.6318367 90.2280273,14.4736328 C89.7797829,14.3154289 89.3959977,14.1264659 89.0766602,13.9067383 C88.7573226,13.6870106 88.5097665,13.4292007 88.3339844,13.1333008 C88.1582022,12.8374009 88.0703125,12.493166 88.0703125,12.1005859 C88.0703125,11.7138653 88.1611319,11.3520525 88.3427734,11.0151367 C88.524415,10.678221 88.7792952,10.3837903 89.1074219,10.1318359 C89.4355485,9.87988155 89.8266579,9.68066479 90.2807617,9.53417969 C90.7348656,9.38769458 91.2343723,9.31445312 91.7792969,9.31445312 C92.3652373,9.31445312 92.8925758,9.39062424 93.3613281,9.54296875 C93.8300805,9.69531326 94.228514,9.90624865 94.5566406,10.1757812 C94.8847673,10.4453138 95.1381827,10.7602521 95.3168945,11.1206055 C95.4956064,11.4809588 95.5849609,11.8691385 95.5849609,12.2851562 L93.9589844,12.2851562 C93.9589844,12.0800771 93.9062505,11.8793955 93.8007812,11.6831055 C93.695312,11.4868154 93.5488291,11.3125008 93.3613281,11.1601562 C93.1738272,11.0078117 92.9467787,10.8847661 92.6801758,10.7910156 C92.4135729,10.6972652 92.1132829,10.6503906 91.7792969,10.6503906 C91.433592,10.6503906 91.1303724,10.6884762 90.8696289,10.7646484 C90.6088854,10.8408207 90.3920907,10.9433587 90.2192383,11.0722656 C90.0463859,11.2011725 89.9160161,11.3505851 89.828125,11.5205078 C89.7402339,11.6904305 89.6962891,11.86621 89.6962891,12.0478516 C89.6962891,12.2353525 89.731445,12.402343 89.8017578,12.5488281 C89.8720707,12.6953132 89.9936515,12.8271479 90.1665039,12.9443359 C90.3393563,13.061524 90.5707993,13.1669917 90.8608398,13.2607422 C91.1508804,13.3544927 91.5185525,13.4453121 91.9638672,13.5332031 C92.5498076,13.6562506 93.0742164,13.798339 93.5371094,13.9594727 C94.0000023,14.1206063 94.3896469,14.3139637 94.7060547,14.5395508 C95.0224625,14.7651378 95.2641593,15.0273423 95.4311523,15.3261719 C95.5981454,15.6250015 95.6816406,15.9707012 95.6816406,16.3632812 C95.6816406,16.7851584 95.5864267,17.1689436 95.3959961,17.5146484 C95.2055655,17.8603533 94.9404314,18.1562488 94.6005859,18.4023438 C94.2607405,18.6484387 93.853518,18.8388665 93.3789062,18.9736328 C92.9042945,19.1083991 92.385745,19.1757812 91.8232422,19.1757812 C91.1787077,19.1757812 90.6044947,19.0893563 90.1005859,18.9165039 C89.5966772,18.7436515 89.1704119,18.5151381 88.8217773,18.230957 C88.4731428,17.9467759 88.2065439,17.6171894 88.0219727,17.2421875 C87.8374014,16.8671856 87.7451172,16.4775411 87.7451172,16.0732422 L89.3710938,16.0732422 C89.3945314,16.4072282 89.4838859,16.6884754 89.6391602,16.9169922 C89.7944344,17.145509 89.9877918,17.3300774 90.2192383,17.4707031 C90.4506848,17.6113288 90.7070298,17.7109372 90.9882812,17.7695312 C91.2695327,17.8281253 91.5478502,17.8574219 91.8232422,17.8574219 C92.5087925,17.8574219 93.0507793,17.7314466 93.4492188,17.4794922 C93.8476582,17.2275378 94.0498047,16.8935568 94.0556641,16.4775391 Z M106.37793,12.1445312 L98.5292969,12.1445312 L98.5292969,10.7294922 L106.37793,10.7294922 L106.37793,12.1445312 Z M106.37793,15.7919922 L98.5292969,15.7919922 L98.5292969,14.3857422 L106.37793,14.3857422 L106.37793,15.7919922 Z M112.249023,6.45800781 L112.064453,9.70996094 L110.921875,9.70996094 L110.930664,6.59863281 L110.930664,5.5 L112.249023,5.5 L112.249023,6.45800781 Z M115.386719,6.45800781 L115.202148,9.70996094 L114.068359,9.70996094 L114.077148,6.59863281 L114.077148,5.5 L115.395508,5.5 L115.386719,6.45800781 Z M144.654297,6.45800781 L144.469727,9.70996094 L143.327148,9.70996094 L143.335938,6.59863281 L143.335938,5.5 L144.654297,5.5 L144.654297,6.45800781 Z M147.791992,6.45800781 L147.607422,9.70996094 L146.473633,9.70996094 L146.482422,6.59863281 L146.482422,5.5 L147.800781,5.5 L147.791992,6.45800781 Z"/>
        <polygon points="3.568 13.173 3.103 13.322 3.568 13.48 8.947 15.555 8.947 17.277 1.494 13.946 1.494 12.663 8.947 9.341 8.947 11.063"/>
        <polygon points="154.564 11.011 154.564 9.332 162.325 12.654 162.325 13.938 154.564 17.269 154.564 15.581 160.251 13.437 160.778 13.287 160.251 13.12"/>
      </g>
      <g transform="translate(0 28)">
        <g fill="#171717" fill-rule="nonzero">
          <path d="M48.5810547,17.8574219 C48.8740249,17.8574219 49.1596666,17.8105473 49.4379883,17.7167969 C49.71631,17.6230464 49.9638661,17.4926766 50.1806641,17.3256836 C50.397462,17.1586906 50.5717767,16.9624035 50.7036133,16.7368164 C50.8354499,16.5112293 50.9042968,16.2666029 50.9101562,16.0029297 L52.4482422,16.0029297 C52.4423828,16.4248068 52.3325206,16.8276348 52.1186523,17.2114258 C51.9047841,17.5952168 51.6191424,17.9321275 51.2617188,18.222168 C50.9042951,18.5122085 50.4941429,18.7436515 50.03125,18.9165039 C49.5683571,19.0893563 49.0849635,19.1757812 48.5810547,19.1757812 C47.860348,19.1757812 47.2304714,19.0468763 46.6914062,18.7890625 C46.1523411,18.5312487 45.7026385,18.1840842 45.3422852,17.7475586 C44.9819318,17.311033 44.7109384,16.8071318 44.5292969,16.2358398 C44.3476553,15.6645479 44.2568359,15.0625032 44.2568359,14.4296875 L44.2568359,14.0605469 C44.2568359,13.4335906 44.3476553,12.8330107 44.5292969,12.2587891 C44.7109384,11.6845674 44.9819318,11.1792014 45.3422852,10.7426758 C45.7026385,10.3061502 46.1523411,9.95898566 46.6914062,9.70117188 C47.2304714,9.44335809 47.860348,9.31445312 48.5810547,9.31445312 C49.1435575,9.31445312 49.6606422,9.4038077 50.1323242,9.58251953 C50.6040063,9.76123136 51.0112288,10.004393 51.3540039,10.3120117 C51.6967791,10.6196304 51.9648428,10.9843729 52.1582031,11.40625 C52.3515635,11.8281271 52.4482422,12.2792945 52.4482422,12.7597656 L50.9101562,12.7597656 C50.9042968,12.4726548 50.8413092,12.2016614 50.7211914,11.9467773 C50.6010736,11.6918933 50.4384776,11.4677744 50.2333984,11.2744141 C50.0283193,11.0810537 49.7836928,10.9287115 49.4995117,10.8173828 C49.2153306,10.7060541 48.9091813,10.6503906 48.5810547,10.6503906 C48.0771459,10.6503906 47.6538103,10.7514638 47.3110352,10.9536133 C46.96826,11.1557627 46.6914073,11.419432 46.4804688,11.7446289 C46.2695302,12.0698258 46.1186528,12.4345683 46.027832,12.8388672 C45.9370113,13.2431661 45.8916016,13.6503886 45.8916016,14.0605469 L45.8916016,14.4296875 C45.8916016,14.8457052 45.9370113,15.2573222 46.027832,15.6645508 C46.1186528,16.0717794 46.2680654,16.4379867 46.4760742,16.7631836 C46.6840831,17.0883805 46.9594709,17.3520498 47.3022461,17.5541992 C47.6450212,17.7563487 48.0712865,17.8574219 48.5810547,17.8574219 Z M55.5859375,5.5 L60.4462891,5.5 L60.4462891,17.59375 L63.5488281,17.59375 L63.5488281,19 L55.5859375,19 L55.5859375,17.59375 L58.8203125,17.59375 L58.8203125,6.91503906 L55.5859375,6.91503906 L55.5859375,5.5 Z M72.3818359,19 C72.3173825,18.8769525 72.2661135,18.7231455 72.2280273,18.5385742 C72.1899412,18.354003 72.1621095,18.1621104 72.1445312,17.9628906 C71.9804679,18.1269539 71.7973643,18.2822258 71.5952148,18.4287109 C71.3930654,18.575196 71.1704114,18.704101 70.9272461,18.8154297 C70.6840808,18.9267584 70.4248061,19.0146481 70.1494141,19.0791016 C69.8740221,19.143555 69.5810562,19.1757812 69.2705078,19.1757812 C68.766599,19.1757812 68.3110372,19.1025398 67.9038086,18.9560547 C67.49658,18.8095696 67.1508803,18.6118177 66.8666992,18.362793 C66.5825181,18.1137683 66.3627937,17.8178728 66.2075195,17.4750977 C66.0522453,17.1323225 65.9746094,16.7617207 65.9746094,16.3632812 C65.9746094,15.8417943 66.0786122,15.3847676 66.2866211,14.9921875 C66.4946299,14.5996074 66.7890606,14.2729505 67.1699219,14.012207 C67.5507832,13.7514635 68.0092747,13.5566413 68.5454102,13.4277344 C69.0815456,13.2988275 69.6806608,13.234375 70.3427734,13.234375 L72.1181641,13.234375 L72.1181641,12.4873047 C72.1181641,12.2001939 72.0654302,11.942384 71.9599609,11.7138672 C71.8544917,11.4853504 71.7050791,11.2905281 71.5117188,11.1293945 C71.3183584,10.9682609 71.0825209,10.8437504 70.8041992,10.7558594 C70.5258775,10.6679683 70.2138689,10.6240234 69.8681641,10.6240234 C69.5458968,10.6240234 69.2573255,10.6650387 69.0024414,10.7470703 C68.7475573,10.829102 68.5322274,10.9374993 68.3564453,11.0722656 C68.1806632,11.2070319 68.0444341,11.3666983 67.9477539,11.5512695 C67.8510737,11.7358408 67.8027344,11.9277334 67.8027344,12.1269531 L66.1679688,12.1269531 C66.1738282,11.7812483 66.2631827,11.4414079 66.4360352,11.1074219 C66.6088876,10.7734358 66.8579085,10.4731459 67.1831055,10.206543 C67.5083024,9.93994007 67.9038063,9.7246102 68.3696289,9.56054688 C68.8354515,9.39648355 69.3642549,9.31445312 69.9560547,9.31445312 C70.4951199,9.31445312 70.9960914,9.38037043 71.4589844,9.51220703 C71.9218773,9.64404363 72.3217757,9.84326039 72.6586914,10.1098633 C72.9956072,10.3764662 73.2607412,10.7089824 73.4541016,11.1074219 C73.6474619,11.5058614 73.7441406,11.971677 73.7441406,12.5048828 L73.7441406,16.9257812 C73.7441406,17.2421891 73.7734372,17.5776349 73.8320312,17.9321289 C73.8906253,18.2866229 73.9726557,18.5957018 74.078125,18.859375 L74.078125,19 L72.3818359,19 Z M69.5078125,17.7607422 C69.8242203,17.7607422 70.1201158,17.719727 70.3955078,17.6376953 C70.6708998,17.5556637 70.9213856,17.4472663 71.1469727,17.3125 C71.3725597,17.1777337 71.567382,17.0239266 71.7314453,16.8510742 C71.8955086,16.6782218 72.0244136,16.4980478 72.1181641,16.3105469 L72.1181641,14.3857422 L70.6064453,14.3857422 C69.6572218,14.3857422 68.9189479,14.5263658 68.3916016,14.8076172 C67.8642552,15.0888686 67.6005859,15.531247 67.6005859,16.1347656 C67.6005859,16.3691418 67.6401363,16.5859365 67.7192383,16.7851562 C67.7983402,16.984376 67.9169914,17.155761 68.0751953,17.2993164 C68.2333992,17.4428718 68.432616,17.5556637 68.6728516,17.6376953 C68.9130871,17.719727 69.1914047,17.7607422 69.5078125,17.7607422 Z M83.2539062,16.4775391 C83.2539062,16.2841787 83.2158207,16.1098641 83.1396484,15.9545898 C83.0634762,15.7993156 82.9345712,15.6572272 82.7529297,15.5283203 C82.5712882,15.3994134 82.3310562,15.2807623 82.0322266,15.1723633 C81.7333969,15.0639643 81.3613304,14.9658208 80.9160156,14.8779297 C80.371091,14.766601 79.874514,14.6318367 79.4262695,14.4736328 C78.9780251,14.3154289 78.5942399,14.1264659 78.2749023,13.9067383 C77.9555648,13.6870106 77.7080087,13.4292007 77.5322266,13.1333008 C77.3564444,12.8374009 77.2685547,12.493166 77.2685547,12.1005859 C77.2685547,11.7138653 77.3593741,11.3520525 77.5410156,11.0151367 C77.7226572,10.678221 77.9775374,10.3837903 78.3056641,10.1318359 C78.6337907,9.87988155 79.0249001,9.68066479 79.4790039,9.53417969 C79.9331077,9.38769458 80.4326145,9.31445312 80.9775391,9.31445312 C81.5634795,9.31445312 82.090818,9.39062424 82.5595703,9.54296875 C83.0283227,9.69531326 83.4267562,9.90624865 83.7548828,10.1757812 C84.0830095,10.4453138 84.3364249,10.7602521 84.5151367,11.1206055 C84.6938485,11.4809588 84.7832031,11.8691385 84.7832031,12.2851562 L83.1572266,12.2851562 C83.1572266,12.0800771 83.1044927,11.8793955 82.9990234,11.6831055 C82.8935542,11.4868154 82.7470713,11.3125008 82.5595703,11.1601562 C82.3720694,11.0078117 82.1450209,10.8847661 81.878418,10.7910156 C81.6118151,10.6972652 81.3115251,10.6503906 80.9775391,10.6503906 C80.6318342,10.6503906 80.3286146,10.6884762 80.0678711,10.7646484 C79.8071276,10.8408207 79.5903329,10.9433587 79.4174805,11.0722656 C79.244628,11.2011725 79.1142583,11.3505851 79.0263672,11.5205078 C78.9384761,11.6904305 78.8945312,11.86621 78.8945312,12.0478516 C78.8945312,12.2353525 78.9296871,12.402343 79,12.5488281 C79.0703129,12.6953132 79.1918937,12.8271479 79.3647461,12.9443359 C79.5375985,13.061524 79.7690415,13.1669917 80.059082,13.2607422 C80.3491225,13.3544927 80.7167946,13.4453121 81.1621094,13.5332031 C81.7480498,13.6562506 82.2724586,13.798339 82.7353516,13.9594727 C83.1982445,14.1206063 83.587889,14.3139637 83.9042969,14.5395508 C84.2207047,14.7651378 84.4624015,15.0273423 84.6293945,15.3261719 C84.7963876,15.6250015 84.8798828,15.9707012 84.8798828,16.3632812 C84.8798828,16.7851584 84.7846689,17.1689436 84.5942383,17.5146484 C84.4038076,17.8603533 84.1386736,18.1562488 83.7988281,18.4023438 C83.4589827,18.6484387 83.0517602,18.8388665 82.5771484,18.9736328 C82.1025367,19.1083991 81.5839872,19.1757812 81.0214844,19.1757812 C80.3769499,19.1757812 79.8027369,19.0893563 79.2988281,18.9165039 C78.7949194,18.7436515 78.3686541,18.5151381 78.0200195,18.230957 C77.671385,17.9467759 77.4047861,17.6171894 77.2202148,17.2421875 C77.0356436,16.8671856 76.9433594,16.4775411 76.9433594,16.0732422 L78.5693359,16.0732422 C78.5927736,16.4072282 78.6821281,16.6884754 78.8374023,16.9169922 C78.9926766,17.145509 79.186034,17.3300774 79.4174805,17.4707031 C79.6489269,17.6113288 79.905272,17.7109372 80.1865234,17.7695312 C80.4677748,17.8281253 80.7460924,17.8574219 81.0214844,17.8574219 C81.7070347,17.8574219 82.2490214,17.7314466 82.6474609,17.4794922 C83.0459004,17.2275378 83.2480468,16.8935568 83.2539062,16.4775391 Z M94.0556641,16.4775391 C94.0556641,16.2841787 94.0175785,16.1098641 93.9414062,15.9545898 C93.865234,15.7993156 93.736329,15.6572272 93.5546875,15.5283203 C93.373046,15.3994134 93.132814,15.2807623 92.8339844,15.1723633 C92.5351548,15.0639643 92.1630882,14.9658208 91.7177734,14.8779297 C91.1728488,14.766601 90.6762718,14.6318367 90.2280273,14.4736328 C89.7797829,14.3154289 89.3959977,14.1264659 89.0766602,13.9067383 C88.7573226,13.6870106 88.5097665,13.4292007 88.3339844,13.1333008 C88.1582022,12.8374009 88.0703125,12.493166 88.0703125,12.1005859 C88.0703125,11.7138653 88.1611319,11.3520525 88.3427734,11.0151367 C88.524415,10.678221 88.7792952,10.3837903 89.1074219,10.1318359 C89.4355485,9.87988155 89.8266579,9.68066479 90.2807617,9.53417969 C90.7348656,9.38769458 91.2343723,9.31445312 91.7792969,9.31445312 C92.3652373,9.31445312 92.8925758,9.39062424 93.3613281,9.54296875 C93.8300805,9.69531326 94.228514,9.90624865 94.5566406,10.1757812 C94.8847673,10.4453138 95.1381827,10.7602521 95.3168945,11.1206055 C95.4956064,11.4809588 95.5849609,11.8691385 95.5849609,12.2851562 L93.9589844,12.2851562 C93.9589844,12.0800771 93.9062505,11.8793955 93.8007812,11.6831055 C93.695312,11.4868154 93.5488291,11.3125008 93.3613281,11.1601562 C93.1738272,11.0078117 92.9467787,10.8847661 92.6801758,10.7910156 C92.4135729,10.6972652 92.1132829,10.6503906 91.7792969,10.6503906 C91.433592,10.6503906 91.1303724,10.6884762 90.8696289,10.7646484 C90.6088854,10.8408207 90.3920907,10.9433587 90.2192383,11.0722656 C90.0463859,11.2011725 89.9160161,11.3505851 89.828125,11.5205078 C89.7402339,11.6904305 89.6962891,11.86621 89.6962891,12.0478516 C89.6962891,12.2353525 89.731445,12.402343 89.8017578,12.5488281 C89.8720707,12.6953132 89.9936515,12.8271479 90.1665039,12.9443359 C90.3393563,13.061524 90.5707993,13.1669917 90.8608398,13.2607422 C91.1508804,13.3544927 91.5185525,13.4453121 91.9638672,13.5332031 C92.5498076,13.6562506 93.0742164,13.798339 93.5371094,13.9594727 C94.0000023,14.1206063 94.3896469,14.3139637 94.7060547,14.5395508 C95.0224625,14.7651378 95.2641593,15.0273423 95.4311523,15.3261719 C95.5981454,15.6250015 95.6816406,15.9707012 95.6816406,16.3632812 C95.6816406,16.7851584 95.5864267,17.1689436 95.3959961,17.5146484 C95.2055655,17.8603533 94.9404314,18.1562488 94.6005859,18.4023438 C94.2607405,18.6484387 93.853518,18.8388665 93.3789062,18.9736328 C92.9042945,19.1083991 92.385745,19.1757812 91.8232422,19.1757812 C91.1787077,19.1757812 90.6044947,19.0893563 90.1005859,18.9165039 C89.5966772,18.7436515 89.1704119,18.5151381 88.8217773,18.230957 C88.4731428,17.9467759 88.2065439,17.6171894 88.0219727,17.2421875 C87.8374014,16.8671856 87.7451172,16.4775411 87.7451172,16.0732422 L89.3710938,16.0732422 C89.3945314,16.4072282 89.4838859,16.6884754 89.6391602,16.9169922 C89.7944344,17.145509 89.9877918,17.3300774 90.2192383,17.4707031 C90.4506848,17.6113288 90.7070298,17.7109372 90.9882812,17.7695312 C91.2695327,17.8281253 91.5478502,17.8574219 91.8232422,17.8574219 C92.5087925,17.8574219 93.0507793,17.7314466 93.4492188,17.4794922 C93.8476582,17.2275378 94.0498047,16.8935568 94.0556641,16.4775391 Z M106.37793,12.1445312 L98.5292969,12.1445312 L98.5292969,10.7294922 L106.37793,10.7294922 L106.37793,12.1445312 Z M106.37793,15.7919922 L98.5292969,15.7919922 L98.5292969,14.3857422 L106.37793,14.3857422 L106.37793,15.7919922 Z M112.249023,6.45800781 L112.064453,9.70996094 L110.921875,9.70996094 L110.930664,6.59863281 L110.930664,5.5 L112.249023,5.5 L112.249023,6.45800781 Z M115.386719,6.45800781 L115.202148,9.70996094 L114.068359,9.70996094 L114.077148,6.59863281 L114.077148,5.5 L115.395508,5.5 L115.386719,6.45800781 Z M144.654297,6.45800781 L144.469727,9.70996094 L143.327148,9.70996094 L143.335938,6.59863281 L143.335938,5.5 L144.654297,5.5 L144.654297,6.45800781 Z M147.791992,6.45800781 L147.607422,9.70996094 L146.473633,9.70996094 L146.482422,6.59863281 L146.482422,5.5 L147.800781,5.5 L147.791992,6.45800781 Z"/>
          <polygon points="3.568 13.173 3.103 13.322 3.568 13.48 8.947 15.555 8.947 17.277 1.494 13.946 1.494 12.663 8.947 9.341 8.947 11.063"/>
          <polygon points="154.564 11.011 154.564 9.332 162.325 12.654 162.325 13.938 154.564 17.269 154.564 15.581 160.251 13.437 160.778 13.287 160.251 13.12"/>
        </g>
        <g opacity=".411" transform="translate(16.749 6)">
          <g transform="translate(11.017 .506)">
            <mask id="powerful-utility-classes-ad" fill="#fff">
              <use href="#powerful-utility-classes-ac"/>
            </mask>
            <g fill="#2E2E2E" mask="url(#powerful-utility-classes-ad)">
              <polygon points="0 0 6 0 6 10 0 10" transform="translate(-.073 -.506)"/>
            </g>
          </g>
          <g transform="translate(3.648)">
            <mask id="powerful-utility-classes-af" fill="#fff">
              <use href="#powerful-utility-classes-ae"/>
            </mask>
            <g fill="#2E2E2E" mask="url(#powerful-utility-classes-af)">
              <polygon points="0 0 11 0 11 6 0 6" transform="translate(-.401)"/>
            </g>
          </g>
          <g transform="translate(.219 6.898)">
            <mask id="powerful-utility-classes-ah" fill="#fff">
              <use href="#powerful-utility-classes-ag"/>
            </mask>
            <g fill="#3D4551" mask="url(#powerful-utility-classes-ah)">
              <polygon points="0 0 9 0 9 10 0 10" transform="translate(-.401 -.578)"/>
            </g>
          </g>
          <g transform="translate(0 .47)">
            <mask id="powerful-utility-classes-aj" fill="#fff">
              <use href="#powerful-utility-classes-ai"/>
            </mask>
            <g fill="#2E2E2E" mask="url(#powerful-utility-classes-aj)">
              <polygon points="0 0 8 0 8 10 0 10" transform="translate(-.182 -.47)"/>
            </g>
          </g>
          <g transform="translate(7.077 10.366)">
            <mask id="powerful-utility-classes-al" fill="#fff">
              <use href="#powerful-utility-classes-ak"/>
            </mask>
            <g fill="#2E2E2E" mask="url(#powerful-utility-classes-al)">
              <polygon points="0 0 13 0 13 9 0 9" transform="translate(-1.642 -2.673)"/>
            </g>
          </g>
        </g>
        <g transform="translate(120 4)">
          <path stroke="#ADADAD" stroke-width="2" d="M14.8044221,8 C12.9529048,5.30337773 10.7057989,4 8,4 C5.29420107,4 3.04709521,5.30337773 1.19557791,8 C3.04709521,10.6966223 5.29420107,12 8,12 C10.7057989,12 12.9529048,10.6966223 14.8044221,8 Z"/>
          <circle cx="8" cy="8" r="2" fill="#ADADAD"/>
          <rect width="2" height="16" x="7" fill="#171717" rx="1" transform="rotate(30 8 8)"/>
        </g>
      </g>
      <g transform="translate(1 84)">
        <path fill="#171717" fill-rule="nonzero" d="M47.5810547,17.8574219 C47.8740249,17.8574219 48.1596666,17.8105473 48.4379883,17.7167969 C48.71631,17.6230464 48.9638661,17.4926766 49.1806641,17.3256836 C49.397462,17.1586906 49.5717767,16.9624035 49.7036133,16.7368164 C49.8354499,16.5112293 49.9042968,16.2666029 49.9101562,16.0029297 L51.4482422,16.0029297 C51.4423828,16.4248068 51.3325206,16.8276348 51.1186523,17.2114258 C50.9047841,17.5952168 50.6191424,17.9321275 50.2617188,18.222168 C49.9042951,18.5122085 49.4941429,18.7436515 49.03125,18.9165039 C48.5683571,19.0893563 48.0849635,19.1757812 47.5810547,19.1757812 C46.860348,19.1757812 46.2304714,19.0468763 45.6914062,18.7890625 C45.1523411,18.5312487 44.7026385,18.1840842 44.3422852,17.7475586 C43.9819318,17.311033 43.7109384,16.8071318 43.5292969,16.2358398 C43.3476553,15.6645479 43.2568359,15.0625032 43.2568359,14.4296875 L43.2568359,14.0605469 C43.2568359,13.4335906 43.3476553,12.8330107 43.5292969,12.2587891 C43.7109384,11.6845674 43.9819318,11.1792014 44.3422852,10.7426758 C44.7026385,10.3061502 45.1523411,9.95898566 45.6914062,9.70117188 C46.2304714,9.44335809 46.860348,9.31445312 47.5810547,9.31445312 C48.1435575,9.31445312 48.6606422,9.4038077 49.1323242,9.58251953 C49.6040063,9.76123136 50.0112288,10.004393 50.3540039,10.3120117 C50.6967791,10.6196304 50.9648428,10.9843729 51.1582031,11.40625 C51.3515635,11.8281271 51.4482422,12.2792945 51.4482422,12.7597656 L49.9101562,12.7597656 C49.9042968,12.4726548 49.8413092,12.2016614 49.7211914,11.9467773 C49.6010736,11.6918933 49.4384776,11.4677744 49.2333984,11.2744141 C49.0283193,11.0810537 48.7836928,10.9287115 48.4995117,10.8173828 C48.2153306,10.7060541 47.9091813,10.6503906 47.5810547,10.6503906 C47.0771459,10.6503906 46.6538103,10.7514638 46.3110352,10.9536133 C45.96826,11.1557627 45.6914073,11.419432 45.4804688,11.7446289 C45.2695302,12.0698258 45.1186528,12.4345683 45.027832,12.8388672 C44.9370113,13.2431661 44.8916016,13.6503886 44.8916016,14.0605469 L44.8916016,14.4296875 C44.8916016,14.8457052 44.9370113,15.2573222 45.027832,15.6645508 C45.1186528,16.0717794 45.2680654,16.4379867 45.4760742,16.7631836 C45.6840831,17.0883805 45.9594709,17.3520498 46.3022461,17.5541992 C46.6450212,17.7563487 47.0712865,17.8574219 47.5810547,17.8574219 Z M54.5859375,5.5 L59.4462891,5.5 L59.4462891,17.59375 L62.5488281,17.59375 L62.5488281,19 L54.5859375,19 L54.5859375,17.59375 L57.8203125,17.59375 L57.8203125,6.91503906 L54.5859375,6.91503906 L54.5859375,5.5 Z M71.3818359,19 C71.3173825,18.8769525 71.2661135,18.7231455 71.2280273,18.5385742 C71.1899412,18.354003 71.1621095,18.1621104 71.1445312,17.9628906 C70.9804679,18.1269539 70.7973643,18.2822258 70.5952148,18.4287109 C70.3930654,18.575196 70.1704114,18.704101 69.9272461,18.8154297 C69.6840808,18.9267584 69.4248061,19.0146481 69.1494141,19.0791016 C68.8740221,19.143555 68.5810562,19.1757812 68.2705078,19.1757812 C67.766599,19.1757812 67.3110372,19.1025398 66.9038086,18.9560547 C66.49658,18.8095696 66.1508803,18.6118177 65.8666992,18.362793 C65.5825181,18.1137683 65.3627937,17.8178728 65.2075195,17.4750977 C65.0522453,17.1323225 64.9746094,16.7617207 64.9746094,16.3632812 C64.9746094,15.8417943 65.0786122,15.3847676 65.2866211,14.9921875 C65.4946299,14.5996074 65.7890606,14.2729505 66.1699219,14.012207 C66.5507832,13.7514635 67.0092747,13.5566413 67.5454102,13.4277344 C68.0815456,13.2988275 68.6806608,13.234375 69.3427734,13.234375 L71.1181641,13.234375 L71.1181641,12.4873047 C71.1181641,12.2001939 71.0654302,11.942384 70.9599609,11.7138672 C70.8544917,11.4853504 70.7050791,11.2905281 70.5117188,11.1293945 C70.3183584,10.9682609 70.0825209,10.8437504 69.8041992,10.7558594 C69.5258775,10.6679683 69.2138689,10.6240234 68.8681641,10.6240234 C68.5458968,10.6240234 68.2573255,10.6650387 68.0024414,10.7470703 C67.7475573,10.829102 67.5322274,10.9374993 67.3564453,11.0722656 C67.1806632,11.2070319 67.0444341,11.3666983 66.9477539,11.5512695 C66.8510737,11.7358408 66.8027344,11.9277334 66.8027344,12.1269531 L65.1679688,12.1269531 C65.1738282,11.7812483 65.2631827,11.4414079 65.4360352,11.1074219 C65.6088876,10.7734358 65.8579085,10.4731459 66.1831055,10.206543 C66.5083024,9.93994007 66.9038063,9.7246102 67.3696289,9.56054688 C67.8354515,9.39648355 68.3642549,9.31445312 68.9560547,9.31445312 C69.4951199,9.31445312 69.9960914,9.38037043 70.4589844,9.51220703 C70.9218773,9.64404363 71.3217757,9.84326039 71.6586914,10.1098633 C71.9956072,10.3764662 72.2607412,10.7089824 72.4541016,11.1074219 C72.6474619,11.5058614 72.7441406,11.971677 72.7441406,12.5048828 L72.7441406,16.9257812 C72.7441406,17.2421891 72.7734372,17.5776349 72.8320312,17.9321289 C72.8906253,18.2866229 72.9726557,18.5957018 73.078125,18.859375 L73.078125,19 L71.3818359,19 Z M68.5078125,17.7607422 C68.8242203,17.7607422 69.1201158,17.719727 69.3955078,17.6376953 C69.6708998,17.5556637 69.9213856,17.4472663 70.1469727,17.3125 C70.3725597,17.1777337 70.567382,17.0239266 70.7314453,16.8510742 C70.8955086,16.6782218 71.0244136,16.4980478 71.1181641,16.3105469 L71.1181641,14.3857422 L69.6064453,14.3857422 C68.6572218,14.3857422 67.9189479,14.5263658 67.3916016,14.8076172 C66.8642552,15.0888686 66.6005859,15.531247 66.6005859,16.1347656 C66.6005859,16.3691418 66.6401363,16.5859365 66.7192383,16.7851562 C66.7983402,16.984376 66.9169914,17.155761 67.0751953,17.2993164 C67.2333992,17.4428718 67.432616,17.5556637 67.6728516,17.6376953 C67.9130871,17.719727 68.1914047,17.7607422 68.5078125,17.7607422 Z M82.2539062,16.4775391 C82.2539062,16.2841787 82.2158207,16.1098641 82.1396484,15.9545898 C82.0634762,15.7993156 81.9345712,15.6572272 81.7529297,15.5283203 C81.5712882,15.3994134 81.3310562,15.2807623 81.0322266,15.1723633 C80.7333969,15.0639643 80.3613304,14.9658208 79.9160156,14.8779297 C79.371091,14.766601 78.874514,14.6318367 78.4262695,14.4736328 C77.9780251,14.3154289 77.5942399,14.1264659 77.2749023,13.9067383 C76.9555648,13.6870106 76.7080087,13.4292007 76.5322266,13.1333008 C76.3564444,12.8374009 76.2685547,12.493166 76.2685547,12.1005859 C76.2685547,11.7138653 76.3593741,11.3520525 76.5410156,11.0151367 C76.7226572,10.678221 76.9775374,10.3837903 77.3056641,10.1318359 C77.6337907,9.87988155 78.0249001,9.68066479 78.4790039,9.53417969 C78.9331077,9.38769458 79.4326145,9.31445312 79.9775391,9.31445312 C80.5634795,9.31445312 81.090818,9.39062424 81.5595703,9.54296875 C82.0283227,9.69531326 82.4267562,9.90624865 82.7548828,10.1757812 C83.0830095,10.4453138 83.3364249,10.7602521 83.5151367,11.1206055 C83.6938485,11.4809588 83.7832031,11.8691385 83.7832031,12.2851562 L82.1572266,12.2851562 C82.1572266,12.0800771 82.1044927,11.8793955 81.9990234,11.6831055 C81.8935542,11.4868154 81.7470713,11.3125008 81.5595703,11.1601562 C81.3720694,11.0078117 81.1450209,10.8847661 80.878418,10.7910156 C80.6118151,10.6972652 80.3115251,10.6503906 79.9775391,10.6503906 C79.6318342,10.6503906 79.3286146,10.6884762 79.0678711,10.7646484 C78.8071276,10.8408207 78.5903329,10.9433587 78.4174805,11.0722656 C78.244628,11.2011725 78.1142583,11.3505851 78.0263672,11.5205078 C77.9384761,11.6904305 77.8945312,11.86621 77.8945312,12.0478516 C77.8945312,12.2353525 77.9296871,12.402343 78,12.5488281 C78.0703129,12.6953132 78.1918937,12.8271479 78.3647461,12.9443359 C78.5375985,13.061524 78.7690415,13.1669917 79.059082,13.2607422 C79.3491225,13.3544927 79.7167946,13.4453121 80.1621094,13.5332031 C80.7480498,13.6562506 81.2724586,13.798339 81.7353516,13.9594727 C82.1982445,14.1206063 82.587889,14.3139637 82.9042969,14.5395508 C83.2207047,14.7651378 83.4624015,15.0273423 83.6293945,15.3261719 C83.7963876,15.6250015 83.8798828,15.9707012 83.8798828,16.3632812 C83.8798828,16.7851584 83.7846689,17.1689436 83.5942383,17.5146484 C83.4038076,17.8603533 83.1386736,18.1562488 82.7988281,18.4023438 C82.4589827,18.6484387 82.0517602,18.8388665 81.5771484,18.9736328 C81.1025367,19.1083991 80.5839872,19.1757812 80.0214844,19.1757812 C79.3769499,19.1757812 78.8027369,19.0893563 78.2988281,18.9165039 C77.7949194,18.7436515 77.3686541,18.5151381 77.0200195,18.230957 C76.671385,17.9467759 76.4047861,17.6171894 76.2202148,17.2421875 C76.0356436,16.8671856 75.9433594,16.4775411 75.9433594,16.0732422 L77.5693359,16.0732422 C77.5927736,16.4072282 77.6821281,16.6884754 77.8374023,16.9169922 C77.9926766,17.145509 78.186034,17.3300774 78.4174805,17.4707031 C78.6489269,17.6113288 78.905272,17.7109372 79.1865234,17.7695312 C79.4677748,17.8281253 79.7460924,17.8574219 80.0214844,17.8574219 C80.7070347,17.8574219 81.2490214,17.7314466 81.6474609,17.4794922 C82.0459004,17.2275378 82.2480468,16.8935568 82.2539062,16.4775391 Z M93.0556641,16.4775391 C93.0556641,16.2841787 93.0175785,16.1098641 92.9414062,15.9545898 C92.865234,15.7993156 92.736329,15.6572272 92.5546875,15.5283203 C92.373046,15.3994134 92.132814,15.2807623 91.8339844,15.1723633 C91.5351548,15.0639643 91.1630882,14.9658208 90.7177734,14.8779297 C90.1728488,14.766601 89.6762718,14.6318367 89.2280273,14.4736328 C88.7797829,14.3154289 88.3959977,14.1264659 88.0766602,13.9067383 C87.7573226,13.6870106 87.5097665,13.4292007 87.3339844,13.1333008 C87.1582022,12.8374009 87.0703125,12.493166 87.0703125,12.1005859 C87.0703125,11.7138653 87.1611319,11.3520525 87.3427734,11.0151367 C87.524415,10.678221 87.7792952,10.3837903 88.1074219,10.1318359 C88.4355485,9.87988155 88.8266579,9.68066479 89.2807617,9.53417969 C89.7348656,9.38769458 90.2343723,9.31445312 90.7792969,9.31445312 C91.3652373,9.31445312 91.8925758,9.39062424 92.3613281,9.54296875 C92.8300805,9.69531326 93.228514,9.90624865 93.5566406,10.1757812 C93.8847673,10.4453138 94.1381827,10.7602521 94.3168945,11.1206055 C94.4956064,11.4809588 94.5849609,11.8691385 94.5849609,12.2851562 L92.9589844,12.2851562 C92.9589844,12.0800771 92.9062505,11.8793955 92.8007812,11.6831055 C92.695312,11.4868154 92.5488291,11.3125008 92.3613281,11.1601562 C92.1738272,11.0078117 91.9467787,10.8847661 91.6801758,10.7910156 C91.4135729,10.6972652 91.1132829,10.6503906 90.7792969,10.6503906 C90.433592,10.6503906 90.1303724,10.6884762 89.8696289,10.7646484 C89.6088854,10.8408207 89.3920907,10.9433587 89.2192383,11.0722656 C89.0463859,11.2011725 88.9160161,11.3505851 88.828125,11.5205078 C88.7402339,11.6904305 88.6962891,11.86621 88.6962891,12.0478516 C88.6962891,12.2353525 88.731445,12.402343 88.8017578,12.5488281 C88.8720707,12.6953132 88.9936515,12.8271479 89.1665039,12.9443359 C89.3393563,13.061524 89.5707993,13.1669917 89.8608398,13.2607422 C90.1508804,13.3544927 90.5185525,13.4453121 90.9638672,13.5332031 C91.5498076,13.6562506 92.0742164,13.798339 92.5371094,13.9594727 C93.0000023,14.1206063 93.3896469,14.3139637 93.7060547,14.5395508 C94.0224625,14.7651378 94.2641593,15.0273423 94.4311523,15.3261719 C94.5981454,15.6250015 94.6816406,15.9707012 94.6816406,16.3632812 C94.6816406,16.7851584 94.5864267,17.1689436 94.3959961,17.5146484 C94.2055655,17.8603533 93.9404314,18.1562488 93.6005859,18.4023438 C93.2607405,18.6484387 92.853518,18.8388665 92.3789062,18.9736328 C91.9042945,19.1083991 91.385745,19.1757812 90.8232422,19.1757812 C90.1787077,19.1757812 89.6044947,19.0893563 89.1005859,18.9165039 C88.5966772,18.7436515 88.1704119,18.5151381 87.8217773,18.230957 C87.4731428,17.9467759 87.2065439,17.6171894 87.0219727,17.2421875 C86.8374014,16.8671856 86.7451172,16.4775411 86.7451172,16.0732422 L88.3710938,16.0732422 C88.3945314,16.4072282 88.4838859,16.6884754 88.6391602,16.9169922 C88.7944344,17.145509 88.9877918,17.3300774 89.2192383,17.4707031 C89.4506848,17.6113288 89.7070298,17.7109372 89.9882812,17.7695312 C90.2695327,17.8281253 90.5478502,17.8574219 90.8232422,17.8574219 C91.5087925,17.8574219 92.0507793,17.7314466 92.4492188,17.4794922 C92.8476582,17.2275378 93.0498047,16.8935568 93.0556641,16.4775391 Z M105.37793,12.1445312 L97.5292969,12.1445312 L97.5292969,10.7294922 L105.37793,10.7294922 L105.37793,12.1445312 Z M105.37793,15.7919922 L97.5292969,15.7919922 L97.5292969,14.3857422 L105.37793,14.3857422 L105.37793,15.7919922 Z M111.249023,6.45800781 L111.064453,9.70996094 L109.921875,9.70996094 L109.930664,6.59863281 L109.930664,5.5 L111.249023,5.5 L111.249023,6.45800781 Z M114.386719,6.45800781 L114.202148,9.70996094 L113.068359,9.70996094 L113.077148,6.59863281 L113.077148,5.5 L114.395508,5.5 L114.386719,6.45800781 Z M143.654297,6.45800781 L143.469727,9.70996094 L142.327148,9.70996094 L142.335938,6.59863281 L142.335938,5.5 L143.654297,5.5 L143.654297,6.45800781 Z M146.791992,6.45800781 L146.607422,9.70996094 L145.473633,9.70996094 L145.482422,6.59863281 L145.482422,5.5 L146.800781,5.5 L146.791992,6.45800781 Z"/>
        <polygon fill="#171717" fill-rule="nonzero" points="3.568 13.173 3.103 13.322 3.568 13.48 8.947 15.555 8.947 17.277 1.494 13.946 1.494 12.663 8.947 9.341 8.947 11.063"/>
        <polygon fill="#171717" fill-rule="nonzero" points="152.564 11.011 152.564 9.332 160.325 12.654 160.325 13.938 152.564 17.269 152.564 15.581 158.251 13.437 158.778 13.287 158.251 13.12"/>
        <rect width="20" height="8" x="15" y="9" fill="#ADADAD" rx="4"/>
        <rect width="16" height="16" x="120" y="5" fill="#D63E04" rx="2"/>
      </g>
      <g transform="translate(1 112)">
        <path fill="#171717" fill-rule="nonzero" d="M47.5810547,17.8574219 C47.8740249,17.8574219 48.1596666,17.8105473 48.4379883,17.7167969 C48.71631,17.6230464 48.9638661,17.4926766 49.1806641,17.3256836 C49.397462,17.1586906 49.5717767,16.9624035 49.7036133,16.7368164 C49.8354499,16.5112293 49.9042968,16.2666029 49.9101562,16.0029297 L51.4482422,16.0029297 C51.4423828,16.4248068 51.3325206,16.8276348 51.1186523,17.2114258 C50.9047841,17.5952168 50.6191424,17.9321275 50.2617188,18.222168 C49.9042951,18.5122085 49.4941429,18.7436515 49.03125,18.9165039 C48.5683571,19.0893563 48.0849635,19.1757812 47.5810547,19.1757812 C46.860348,19.1757812 46.2304714,19.0468763 45.6914062,18.7890625 C45.1523411,18.5312487 44.7026385,18.1840842 44.3422852,17.7475586 C43.9819318,17.311033 43.7109384,16.8071318 43.5292969,16.2358398 C43.3476553,15.6645479 43.2568359,15.0625032 43.2568359,14.4296875 L43.2568359,14.0605469 C43.2568359,13.4335906 43.3476553,12.8330107 43.5292969,12.2587891 C43.7109384,11.6845674 43.9819318,11.1792014 44.3422852,10.7426758 C44.7026385,10.3061502 45.1523411,9.95898566 45.6914062,9.70117188 C46.2304714,9.44335809 46.860348,9.31445312 47.5810547,9.31445312 C48.1435575,9.31445312 48.6606422,9.4038077 49.1323242,9.58251953 C49.6040063,9.76123136 50.0112288,10.004393 50.3540039,10.3120117 C50.6967791,10.6196304 50.9648428,10.9843729 51.1582031,11.40625 C51.3515635,11.8281271 51.4482422,12.2792945 51.4482422,12.7597656 L49.9101562,12.7597656 C49.9042968,12.4726548 49.8413092,12.2016614 49.7211914,11.9467773 C49.6010736,11.6918933 49.4384776,11.4677744 49.2333984,11.2744141 C49.0283193,11.0810537 48.7836928,10.9287115 48.4995117,10.8173828 C48.2153306,10.7060541 47.9091813,10.6503906 47.5810547,10.6503906 C47.0771459,10.6503906 46.6538103,10.7514638 46.3110352,10.9536133 C45.96826,11.1557627 45.6914073,11.419432 45.4804688,11.7446289 C45.2695302,12.0698258 45.1186528,12.4345683 45.027832,12.8388672 C44.9370113,13.2431661 44.8916016,13.6503886 44.8916016,14.0605469 L44.8916016,14.4296875 C44.8916016,14.8457052 44.9370113,15.2573222 45.027832,15.6645508 C45.1186528,16.0717794 45.2680654,16.4379867 45.4760742,16.7631836 C45.6840831,17.0883805 45.9594709,17.3520498 46.3022461,17.5541992 C46.6450212,17.7563487 47.0712865,17.8574219 47.5810547,17.8574219 Z M54.5859375,5.5 L59.4462891,5.5 L59.4462891,17.59375 L62.5488281,17.59375 L62.5488281,19 L54.5859375,19 L54.5859375,17.59375 L57.8203125,17.59375 L57.8203125,6.91503906 L54.5859375,6.91503906 L54.5859375,5.5 Z M71.3818359,19 C71.3173825,18.8769525 71.2661135,18.7231455 71.2280273,18.5385742 C71.1899412,18.354003 71.1621095,18.1621104 71.1445312,17.9628906 C70.9804679,18.1269539 70.7973643,18.2822258 70.5952148,18.4287109 C70.3930654,18.575196 70.1704114,18.704101 69.9272461,18.8154297 C69.6840808,18.9267584 69.4248061,19.0146481 69.1494141,19.0791016 C68.8740221,19.143555 68.5810562,19.1757812 68.2705078,19.1757812 C67.766599,19.1757812 67.3110372,19.1025398 66.9038086,18.9560547 C66.49658,18.8095696 66.1508803,18.6118177 65.8666992,18.362793 C65.5825181,18.1137683 65.3627937,17.8178728 65.2075195,17.4750977 C65.0522453,17.1323225 64.9746094,16.7617207 64.9746094,16.3632812 C64.9746094,15.8417943 65.0786122,15.3847676 65.2866211,14.9921875 C65.4946299,14.5996074 65.7890606,14.2729505 66.1699219,14.012207 C66.5507832,13.7514635 67.0092747,13.5566413 67.5454102,13.4277344 C68.0815456,13.2988275 68.6806608,13.234375 69.3427734,13.234375 L71.1181641,13.234375 L71.1181641,12.4873047 C71.1181641,12.2001939 71.0654302,11.942384 70.9599609,11.7138672 C70.8544917,11.4853504 70.7050791,11.2905281 70.5117188,11.1293945 C70.3183584,10.9682609 70.0825209,10.8437504 69.8041992,10.7558594 C69.5258775,10.6679683 69.2138689,10.6240234 68.8681641,10.6240234 C68.5458968,10.6240234 68.2573255,10.6650387 68.0024414,10.7470703 C67.7475573,10.829102 67.5322274,10.9374993 67.3564453,11.0722656 C67.1806632,11.2070319 67.0444341,11.3666983 66.9477539,11.5512695 C66.8510737,11.7358408 66.8027344,11.9277334 66.8027344,12.1269531 L65.1679688,12.1269531 C65.1738282,11.7812483 65.2631827,11.4414079 65.4360352,11.1074219 C65.6088876,10.7734358 65.8579085,10.4731459 66.1831055,10.206543 C66.5083024,9.93994007 66.9038063,9.7246102 67.3696289,9.56054688 C67.8354515,9.39648355 68.3642549,9.31445312 68.9560547,9.31445312 C69.4951199,9.31445312 69.9960914,9.38037043 70.4589844,9.51220703 C70.9218773,9.64404363 71.3217757,9.84326039 71.6586914,10.1098633 C71.9956072,10.3764662 72.2607412,10.7089824 72.4541016,11.1074219 C72.6474619,11.5058614 72.7441406,11.971677 72.7441406,12.5048828 L72.7441406,16.9257812 C72.7441406,17.2421891 72.7734372,17.5776349 72.8320312,17.9321289 C72.8906253,18.2866229 72.9726557,18.5957018 73.078125,18.859375 L73.078125,19 L71.3818359,19 Z M68.5078125,17.7607422 C68.8242203,17.7607422 69.1201158,17.719727 69.3955078,17.6376953 C69.6708998,17.5556637 69.9213856,17.4472663 70.1469727,17.3125 C70.3725597,17.1777337 70.567382,17.0239266 70.7314453,16.8510742 C70.8955086,16.6782218 71.0244136,16.4980478 71.1181641,16.3105469 L71.1181641,14.3857422 L69.6064453,14.3857422 C68.6572218,14.3857422 67.9189479,14.5263658 67.3916016,14.8076172 C66.8642552,15.0888686 66.6005859,15.531247 66.6005859,16.1347656 C66.6005859,16.3691418 66.6401363,16.5859365 66.7192383,16.7851562 C66.7983402,16.984376 66.9169914,17.155761 67.0751953,17.2993164 C67.2333992,17.4428718 67.432616,17.5556637 67.6728516,17.6376953 C67.9130871,17.719727 68.1914047,17.7607422 68.5078125,17.7607422 Z M82.2539062,16.4775391 C82.2539062,16.2841787 82.2158207,16.1098641 82.1396484,15.9545898 C82.0634762,15.7993156 81.9345712,15.6572272 81.7529297,15.5283203 C81.5712882,15.3994134 81.3310562,15.2807623 81.0322266,15.1723633 C80.7333969,15.0639643 80.3613304,14.9658208 79.9160156,14.8779297 C79.371091,14.766601 78.874514,14.6318367 78.4262695,14.4736328 C77.9780251,14.3154289 77.5942399,14.1264659 77.2749023,13.9067383 C76.9555648,13.6870106 76.7080087,13.4292007 76.5322266,13.1333008 C76.3564444,12.8374009 76.2685547,12.493166 76.2685547,12.1005859 C76.2685547,11.7138653 76.3593741,11.3520525 76.5410156,11.0151367 C76.7226572,10.678221 76.9775374,10.3837903 77.3056641,10.1318359 C77.6337907,9.87988155 78.0249001,9.68066479 78.4790039,9.53417969 C78.9331077,9.38769458 79.4326145,9.31445312 79.9775391,9.31445312 C80.5634795,9.31445312 81.090818,9.39062424 81.5595703,9.54296875 C82.0283227,9.69531326 82.4267562,9.90624865 82.7548828,10.1757812 C83.0830095,10.4453138 83.3364249,10.7602521 83.5151367,11.1206055 C83.6938485,11.4809588 83.7832031,11.8691385 83.7832031,12.2851562 L82.1572266,12.2851562 C82.1572266,12.0800771 82.1044927,11.8793955 81.9990234,11.6831055 C81.8935542,11.4868154 81.7470713,11.3125008 81.5595703,11.1601562 C81.3720694,11.0078117 81.1450209,10.8847661 80.878418,10.7910156 C80.6118151,10.6972652 80.3115251,10.6503906 79.9775391,10.6503906 C79.6318342,10.6503906 79.3286146,10.6884762 79.0678711,10.7646484 C78.8071276,10.8408207 78.5903329,10.9433587 78.4174805,11.0722656 C78.244628,11.2011725 78.1142583,11.3505851 78.0263672,11.5205078 C77.9384761,11.6904305 77.8945312,11.86621 77.8945312,12.0478516 C77.8945312,12.2353525 77.9296871,12.402343 78,12.5488281 C78.0703129,12.6953132 78.1918937,12.8271479 78.3647461,12.9443359 C78.5375985,13.061524 78.7690415,13.1669917 79.059082,13.2607422 C79.3491225,13.3544927 79.7167946,13.4453121 80.1621094,13.5332031 C80.7480498,13.6562506 81.2724586,13.798339 81.7353516,13.9594727 C82.1982445,14.1206063 82.587889,14.3139637 82.9042969,14.5395508 C83.2207047,14.7651378 83.4624015,15.0273423 83.6293945,15.3261719 C83.7963876,15.6250015 83.8798828,15.9707012 83.8798828,16.3632812 C83.8798828,16.7851584 83.7846689,17.1689436 83.5942383,17.5146484 C83.4038076,17.8603533 83.1386736,18.1562488 82.7988281,18.4023438 C82.4589827,18.6484387 82.0517602,18.8388665 81.5771484,18.9736328 C81.1025367,19.1083991 80.5839872,19.1757812 80.0214844,19.1757812 C79.3769499,19.1757812 78.8027369,19.0893563 78.2988281,18.9165039 C77.7949194,18.7436515 77.3686541,18.5151381 77.0200195,18.230957 C76.671385,17.9467759 76.4047861,17.6171894 76.2202148,17.2421875 C76.0356436,16.8671856 75.9433594,16.4775411 75.9433594,16.0732422 L77.5693359,16.0732422 C77.5927736,16.4072282 77.6821281,16.6884754 77.8374023,16.9169922 C77.9926766,17.145509 78.186034,17.3300774 78.4174805,17.4707031 C78.6489269,17.6113288 78.905272,17.7109372 79.1865234,17.7695312 C79.4677748,17.8281253 79.7460924,17.8574219 80.0214844,17.8574219 C80.7070347,17.8574219 81.2490214,17.7314466 81.6474609,17.4794922 C82.0459004,17.2275378 82.2480468,16.8935568 82.2539062,16.4775391 Z M93.0556641,16.4775391 C93.0556641,16.2841787 93.0175785,16.1098641 92.9414062,15.9545898 C92.865234,15.7993156 92.736329,15.6572272 92.5546875,15.5283203 C92.373046,15.3994134 92.132814,15.2807623 91.8339844,15.1723633 C91.5351548,15.0639643 91.1630882,14.9658208 90.7177734,14.8779297 C90.1728488,14.766601 89.6762718,14.6318367 89.2280273,14.4736328 C88.7797829,14.3154289 88.3959977,14.1264659 88.0766602,13.9067383 C87.7573226,13.6870106 87.5097665,13.4292007 87.3339844,13.1333008 C87.1582022,12.8374009 87.0703125,12.493166 87.0703125,12.1005859 C87.0703125,11.7138653 87.1611319,11.3520525 87.3427734,11.0151367 C87.524415,10.678221 87.7792952,10.3837903 88.1074219,10.1318359 C88.4355485,9.87988155 88.8266579,9.68066479 89.2807617,9.53417969 C89.7348656,9.38769458 90.2343723,9.31445312 90.7792969,9.31445312 C91.3652373,9.31445312 91.8925758,9.39062424 92.3613281,9.54296875 C92.8300805,9.69531326 93.228514,9.90624865 93.5566406,10.1757812 C93.8847673,10.4453138 94.1381827,10.7602521 94.3168945,11.1206055 C94.4956064,11.4809588 94.5849609,11.8691385 94.5849609,12.2851562 L92.9589844,12.2851562 C92.9589844,12.0800771 92.9062505,11.8793955 92.8007812,11.6831055 C92.695312,11.4868154 92.5488291,11.3125008 92.3613281,11.1601562 C92.1738272,11.0078117 91.9467787,10.8847661 91.6801758,10.7910156 C91.4135729,10.6972652 91.1132829,10.6503906 90.7792969,10.6503906 C90.433592,10.6503906 90.1303724,10.6884762 89.8696289,10.7646484 C89.6088854,10.8408207 89.3920907,10.9433587 89.2192383,11.0722656 C89.0463859,11.2011725 88.9160161,11.3505851 88.828125,11.5205078 C88.7402339,11.6904305 88.6962891,11.86621 88.6962891,12.0478516 C88.6962891,12.2353525 88.731445,12.402343 88.8017578,12.5488281 C88.8720707,12.6953132 88.9936515,12.8271479 89.1665039,12.9443359 C89.3393563,13.061524 89.5707993,13.1669917 89.8608398,13.2607422 C90.1508804,13.3544927 90.5185525,13.4453121 90.9638672,13.5332031 C91.5498076,13.6562506 92.0742164,13.798339 92.5371094,13.9594727 C93.0000023,14.1206063 93.3896469,14.3139637 93.7060547,14.5395508 C94.0224625,14.7651378 94.2641593,15.0273423 94.4311523,15.3261719 C94.5981454,15.6250015 94.6816406,15.9707012 94.6816406,16.3632812 C94.6816406,16.7851584 94.5864267,17.1689436 94.3959961,17.5146484 C94.2055655,17.8603533 93.9404314,18.1562488 93.6005859,18.4023438 C93.2607405,18.6484387 92.853518,18.8388665 92.3789062,18.9736328 C91.9042945,19.1083991 91.385745,19.1757812 90.8232422,19.1757812 C90.1787077,19.1757812 89.6044947,19.0893563 89.1005859,18.9165039 C88.5966772,18.7436515 88.1704119,18.5151381 87.8217773,18.230957 C87.4731428,17.9467759 87.2065439,17.6171894 87.0219727,17.2421875 C86.8374014,16.8671856 86.7451172,16.4775411 86.7451172,16.0732422 L88.3710938,16.0732422 C88.3945314,16.4072282 88.4838859,16.6884754 88.6391602,16.9169922 C88.7944344,17.145509 88.9877918,17.3300774 89.2192383,17.4707031 C89.4506848,17.6113288 89.7070298,17.7109372 89.9882812,17.7695312 C90.2695327,17.8281253 90.5478502,17.8574219 90.8232422,17.8574219 C91.5087925,17.8574219 92.0507793,17.7314466 92.4492188,17.4794922 C92.8476582,17.2275378 93.0498047,16.8935568 93.0556641,16.4775391 Z M105.37793,12.1445312 L97.5292969,12.1445312 L97.5292969,10.7294922 L105.37793,10.7294922 L105.37793,12.1445312 Z M105.37793,15.7919922 L97.5292969,15.7919922 L97.5292969,14.3857422 L105.37793,14.3857422 L105.37793,15.7919922 Z M111.249023,6.45800781 L111.064453,9.70996094 L109.921875,9.70996094 L109.930664,6.59863281 L109.930664,5.5 L111.249023,5.5 L111.249023,6.45800781 Z M114.386719,6.45800781 L114.202148,9.70996094 L113.068359,9.70996094 L113.077148,6.59863281 L113.077148,5.5 L114.395508,5.5 L114.386719,6.45800781 Z M240.870117,6.45800781 L240.685547,9.70996094 L239.542969,9.70996094 L239.551758,6.59863281 L239.551758,5.5 L240.870117,5.5 L240.870117,6.45800781 Z M244.007812,6.45800781 L243.823242,9.70996094 L242.689453,9.70996094 L242.698242,6.59863281 L242.698242,5.5 L244.016602,5.5 L244.007812,6.45800781 Z"/>
        <polygon fill="#171717" fill-rule="nonzero" points="3.568 13.173 3.103 13.322 3.568 13.48 8.947 15.555 8.947 17.277 1.494 13.946 1.494 12.663 8.947 9.341 8.947 11.063"/>
        <polygon fill="#171717" fill-rule="nonzero" points="251.564 11.011 251.564 9.332 259.325 12.654 259.325 13.938 251.564 17.269 251.564 15.581 257.251 13.437 257.778 13.287 257.251 13.12"/>
        <g transform="translate(218 7)">
          <g transform="translate(5 1)">
            <mask id="powerful-utility-classes-an" fill="#fff">
              <use href="#powerful-utility-classes-am"/>
            </mask>
            <use fill="#979797" fill-rule="nonzero" href="#powerful-utility-classes-am"/>
            <g fill="#171717" mask="url(#powerful-utility-classes-an)">
              <polygon points="0 0 15 0 15 18 0 18" transform="translate(-7 -4)"/>
            </g>
          </g>
          <rect width="10" height="2" y="5" fill="#171717"/>
          <rect width="2" height="10" x="13" y="1" fill="#171717" rx="1"/>
        </g>
        <rect width="16" height="16" x="120" y="5" fill="#2672DE" rx="2"/>
        <g transform="translate(168 5)">
          <rect width="16" height="16" fill="#E6E6E6" rx="2"/>
          <path fill="#F39268" d="M2,0 L14,0 C15.1045695,-2.02906125e-16 16,0.8954305 16,2 L16,7 L0,7 L0,2 C-1.3527075e-16,0.8954305 0.8954305,2.02906125e-16 2,0 Z"/>
        </g>
        <g transform="translate(192 5)">
          <rect width="16" height="16" fill="#E6E6E6" rx="2"/>
          <path fill="#81AEFC" d="M-4,6 L8,6 C9.1045695,6 10,6.8954305 10,8 L10,10 L-6,10 L-6,8 C-6,6.8954305 -5.1045695,6 -4,6 Z" transform="rotate(-90 2 8)"/>
          <path fill="#81AEFC" d="M8,6 L20,6 C21.1045695,6 22,6.8954305 22,8 L22,10 L6,10 L6,8 C6,6.8954305 6.8954305,6 8,6 Z" transform="rotate(90 14 8)"/>
        </g>
        <rect width="14" height="14" x="145" y="6" stroke="#171717" stroke-width="2" rx="2"/>
        <rect width="8" height="16" x="148" y="5" fill="#FFF" opacity=".899"/>
        <rect width="8" height="17" x="148" y="4" fill="#FFF" opacity=".771" transform="rotate(-90 152 12.5)"/>
        <rect width="21" height="10" x="15" y="8" stroke="#ADADAD" stroke-width="2" rx="5"/>
      </g>
    </g>
    <g transform="translate(146 72)">
      <g transform="translate(5 1)">
        <mask id="powerful-utility-classes-ap" fill="#fff">
          <use href="#powerful-utility-classes-ao"/>
        </mask>
        <use fill="#979797" fill-rule="nonzero" href="#powerful-utility-classes-ao"/>
        <g fill="#C3512C" mask="url(#powerful-utility-classes-ap)">
          <rect width="15" height="18" transform="translate(-7 -4)"/>
        </g>
      </g>
      <rect width="10" height="2" y="5" fill="#C3512C"/>
    </g>
    <g fill="#ADADAD" transform="translate(20 186)">
      <rect width="20" height="4" y="1" rx="2"/>
      <rect width="20" height="10" x="104" rx="5"/>
      <rect width="13" height="4" y="7" rx="2"/>
    </g>
  </g>
</svg>
