<?xml version="1.0" encoding="UTF-8"?>
<svg xmlns="http://www.w3.org/2000/svg" xmlns:xlink="http://www.w3.org/1999/xlink" width="279" height="281" viewBox="0 0 279 281">
  <defs>
    <path id="practical-design-tokens-a" d="M79.6604084,14.4790087 C96.2445725,18.1314327 108.653134,32.9149907 108.653134,50.5967236 L108.653134,51.545727 L14.9866392,51.545727 L14.9866392,50.5967236 C14.9866392,32.9147203 27.3955803,18.1309806 43.9801257,14.4788411 C44.4852574,16.9764811 45.7664451,19.3398998 47.8036043,21.1780307 L60.4434802,32.5830043 C61.2254506,33.2885771 62.4143227,33.2885771 63.1962931,32.5830043 L75.836169,21.1780307 C76.0529973,20.9823863 76.2628049,20.7790986 76.4651945,20.5685524 C78.1490245,18.8168619 79.2123048,16.6963947 79.6604054,14.479008 Z"/>
    <path id="practical-design-tokens-c" d="M7.36829202,3.76680313 C7.36829202,5.84715105 9.84246454,7.53360626 12.894511,7.53360626 L12.894511,7.53360626 C15.9465575,7.53360626 18.42073,5.84715105 18.42073,3.76680313"/>
    <polygon id="practical-design-tokens-d" points="0 0 123.64 0 123.64 132.554 0 132.554"/>
    <path id="practical-design-tokens-f" d="M69.772691,32.488677 L33.7709852,32.488677 L32.4563276,22.3918217 L30.6381842,32.488677 L17.398682,32.488677 C17.3601262,33.0706691 17.3405419,33.6578481 17.3405419,34.2496012 L17.3405419,52.3868708 C17.3405419,62.8564187 23.4708553,71.8941552 32.3377674,76.1063657 L32.3377674,80.1940354 C23.833633,80.8995399 15.5966433,82.0857184 10.7792558,83.3405193 C6.11489512,76.9554874 0.054165579,71.0042773 2.91125766e-13,59.3271493 C-0.0398472988,50.388014 14.2093829,13.5581376 19.2151951,7.53360626 C22.928462,3.0646626 32.1949641,0.259270678 43.5857655,0.470850391 C54.9765669,0.682430105 64.6108253,2.26580736 68.4249202,7.06275587 C74.2006752,14.3268645 87.2112993,50.388014 87.171452,59.3271493 C87.1172864,71.0042773 81.0565569,76.9554874 76.3921962,83.3405193 C71.5747987,82.0857158 63.3377849,80.899535 54.8336056,80.194031 L54.8336056,76.1063657 C63.7005177,71.8941552 69.8308311,62.8564187 69.8308311,52.3868708 L69.8308311,34.2496012 C69.8308311,33.6578481 69.8112468,33.0706691 69.772691,32.488677 Z"/>
    <path id="practical-design-tokens-h" d="M48.75,8.90788463 L48.75,12.6201923 C48.75,19.8689296 54.6262627,25.7451923 61.875,25.7451923 C69.1237373,25.7451923 75,19.8689296 75,12.6201923 L75,8.90788463 C82.4899659,8.91927586 88.0349588,9.97966164 88.1239141,15.9787958 C100.244273,21.0992136 108.75,33.0973447 108.75,47.0820948 L108.75,50.5709135 L15,50.5709135 L15,47.0820948 C15,33.0973447 23.5057268,21.0992136 35.6260859,15.9787958 C35.7150412,9.97966164 41.2600341,8.91927586 48.75,8.90788463 Z"/>
    <path id="practical-design-tokens-j" d="M7.5,3.75 C7.5,5.82106781 10.0183983,7.5 13.125,7.5 L13.125,7.5 C16.2316017,7.5 18.75,5.82106781 18.75,3.75"/>
    <polygon id="practical-design-tokens-k" points="0 0 123.75 0 123.75 130.743 0 130.743"/>
    <path id="practical-design-tokens-m" d="M39.6114533,43.9879871 C34.2155024,44.1652226 31.8084766,46.7443985 29.99575,44.12326 C28.6351996,42.1557913 29.2044817,38.8471461 30.475755,36.9856487 C32.284621,34.3365178 34.7385339,35.6178642 37.4823159,35.3156381 C38.2283826,35.2335064 38.9778274,35.0263316 39.6114533,34.6875 C40.2450792,35.0263316 40.9943631,35.2335064 41.7404299,35.3156381 C44.4843727,35.6178642 46.9381248,34.3365178 48.7471516,36.9856487 C50.0182641,38.8471461 50.5875461,42.1557913 49.2269958,44.12326 C47.4142691,46.7443985 45.0074042,43.8107515 39.6114533,43.9879871 Z M65.8083237,12.1875 C64.2030566,18.7850725 63.4654797,25.5158322 62.3015364,32.1896002 C62.0590013,33.580788 61.7934672,34.9670201 61.5115282,36.3513937 C61.4523419,36.6420827 61.3939598,37.7215193 61.1075175,37.8582686 C60.2398273,38.272698 58.4714763,36.0687578 57.9986293,35.5711639 C56.8110437,34.3215263 55.6335905,33.0605832 54.1872257,32.079953 C51.2647422,30.0985595 47.8431961,28.9269759 44.2828517,28.6489861 C42.793223,28.5325246 40.7789594,28.7355578 39.3750544,29.5830008 C37.9711493,28.7355578 35.9568857,28.5325246 34.4670962,28.6489861 C30.9067518,28.9269759 27.4852057,30.0985595 24.5627222,32.079953 C23.1163574,33.0605832 21.939065,34.3215263 20.7513186,35.5711639 C20.2784716,36.0687578 18.5101206,38.272698 17.6424304,37.8582686 C17.3559881,37.7215193 17.297606,36.6420827 17.2384197,36.3513937 C16.9564807,34.9670201 16.6909466,33.580788 16.4484115,32.1896002 C15.284629,25.5158322 14.5470522,18.7850725 12.9417851,12.1875 C12.4747281,12.1875 12.0649274,20.975539 12.0128178,21.7943312 C11.80068,25.1198323 11.5529983,28.371306 11.8695162,31.6997497 C12.4152202,37.4413614 12.984084,44.6409095 17.3590439,49.0254045 C21.3121408,52.9872622 27.0517056,53.8155078 32.0021805,56.3162471 C32.6395589,56.6382197 33.4850543,57.0357683 34.3968125,57.3614577 C35.3573029,58.0941427 37.2622006,58.59375 39.4565963,58.59375 C41.7584281,58.59375 43.741651,58.0441201 44.6503535,57.2521202 C45.4475991,56.9496611 46.180351,56.6029096 46.7477674,56.3162471 C51.6978636,53.8149586 57.4378071,52.9872622 61.390904,49.0254045 C65.7658639,44.6409095 66.3347277,37.4413614 66.8805925,31.6997497 C67.1969496,28.371306 66.9492679,25.1198323 66.737291,21.7943312 C66.6850205,20.975539 66.2752198,12.1875 65.8083237,12.1875 Z"/>
    <path id="practical-design-tokens-o" d="M38.4459126,11.3401728 L41.71875,7.44274809 L40.0119055,11.5079044 C43.4778111,11.9131364 46.0503334,12.4556003 46.875,13.0248092 C51.4237758,16.3964075 53.1856594,29.0479862 52.96875,29.7709924 C53.1221457,30.3397449 53.7436611,30.4633764 53.90625,29.7709924 C54.2433649,24.9806154 53.90625,0.127625837 27.1875,0.465171756 C0.46875,0.802717675 0.131635099,24.9806154 0.46875,29.7709924 C0.631338884,30.4633764 1.25285432,30.3397449 1.40625,29.7709924 C1.18934065,29.0479862 2.95122419,16.3964075 7.5,13.0248092 C9.19604155,11.854152 18.2851014,10.8068283 27.334038,10.8131817 C31.2456262,10.8159281 35.149717,11.0174698 38.4459126,11.3401728 Z"/>
    <path id="practical-design-tokens-q" d="M85.1508875,14.9031212 C98.8605014,19.2002171 108.807056,32.00395 108.807056,47.1308251 L108.807056,50.5974455 L15.0078697,50.5974455 L15.0078697,47.1308251 C15.0078697,31.8185152 25.199781,18.8866537 39.1699063,14.748938 C39.0096376,15.392114 38.9266621,16.0499288 38.9266621,16.7190634 C38.9266621,24.2081158 49.3205053,30.2791923 62.1419607,30.2791923 C74.963416,30.2791923 85.3572592,24.2081158 85.3572592,16.7190634 C85.3572592,16.1033011 85.2869926,15.4971249 85.1508875,14.9031212 Z"/>
    <path id="practical-design-tokens-s" d="M7.50393487,3.75196744 C7.50393487,5.82412183 10.0236544,7.50393487 13.131886,7.50393487 L13.131886,7.50393487 C16.2401176,7.50393487 18.7598372,5.82412183 18.7598372,3.75196744"/>
    <polygon id="practical-design-tokens-t" points="0 0 123.815 0 123.815 130.812 0 130.812"/>
    <path id="practical-design-tokens-v" d="M44.20377,24.2473046 C44.2614605,24.1929046 44.1182929,24.1720046 43.7742671,24.1847046 C44.1923907,24.1829046 44.3355584,24.2037046 44.20377,24.2473046 M40.3885997,16.8961863 C40.3864997,16.8765863 40.4050997,17.0472863 40.3885997,16.8961863 M90.8750223,32.9354598 C90.7511559,31.391707 90.5316677,29.857302 90.1629086,28.3489806 C89.8700473,27.1501937 89.4698877,26.0062878 88.9966705,24.8625326 C88.7109098,24.1715453 88.0434511,23.2224366 87.9650286,22.4770206 C87.8877107,21.7427617 88.4650704,20.9293477 88.5883057,20.0744714 C88.7079117,19.2425124 88.6875566,18.3677342 88.5155637,17.5433138 C88.1248716,15.6710291 86.8300332,13.9299159 84.8306552,13.4418675 C84.3842626,13.3328594 83.4406685,13.4671971 83.1252429,13.2092265 C82.7635845,12.9134122 82.511749,11.9056532 82.1843313,11.5014339 C81.2508359,10.3490848 79.7948923,9.6069858 78.2594216,9.86571028 C77.1286866,10.0561351 77.7779993,10.288173 76.9303425,9.62779232 C76.4590188,9.26066289 76.1068279,8.7000932 75.6490743,8.30265864 C74.9609449,7.70560217 74.1715132,7.19448564 73.3547836,6.77503839 C71.2176534,5.67757019 68.7802457,4.8798364 66.3930157,4.49099583 C62.0382816,3.78161433 57.3905284,4.40008041 53.1694438,5.52393368 C51.069079,6.08314643 48.9545131,6.79282946 47.0037348,7.73138415 C46.1672812,8.13379418 45.6844388,8.46760303 44.8123243,8.57299255 C43.4387479,8.73899234 42.2755078,8.73069989 40.9743578,9.30875911 C36.9708679,11.0875652 35.1676249,15.2143412 36.7255019,19.1635079 C37.0388761,19.957774 37.4631779,20.6552445 38.0481116,21.2967786 C38.7613299,22.0789829 39.0193192,21.9250449 38.4050363,22.8245497 C37.4863733,24.1695852 36.7119318,25.6038777 36.0813964,27.0932019 C34.4263197,31.0034695 34.1493953,35.4075149 34.257167,39.5777131 C34.2948792,41.0376368 34.3579959,42.5155024 34.5899496,43.9614043 C34.6901473,44.5872582 34.7182342,45.7640324 35.1912936,46.2284096 C35.4312947,46.4639152 35.7732293,46.5952375 36.1143748,46.5014574 C36.9161142,46.281029 36.6404522,45.6939235 36.6590716,45.1488833 C36.7527999,42.4105652 36.626251,39.9881141 37.2825065,37.282815 C37.7672424,35.2840327 38.5751357,33.4687398 39.6220833,31.6814905 C40.9533715,29.4083035 42.3905379,27.4119336 44.2213945,25.4654692 C44.6518502,25.0077259 44.745894,24.8136825 45.3230959,24.7805127 C45.7601788,24.7554846 46.3995506,25.0525051 46.8244835,25.1553315 C47.7614503,25.3819416 48.7001529,25.6059885 49.6541613,25.7585696 C51.4081733,26.039156 53.1449861,26.0580025 54.9147773,26.0029708 C58.3977125,25.8948674 61.8956379,25.6524263 65.2725372,24.7820204 C67.51523,24.204112 69.5035626,23.166651 71.6517383,22.4061578 C71.6900816,22.3925884 72.2284668,22.0118895 72.3228262,22.027419 C72.4545822,22.0489793 73.2500099,22.877169 73.3842906,22.9815032 C74.4280824,23.7938618 75.5730187,24.1349077 76.7002823,24.7639278 C78.0901112,25.5394981 76.7441484,24.4296667 77.5107002,25.3962649 C77.7341332,25.6777559 77.8485322,26.199728 78.0277835,26.5186105 C78.5980425,27.5345111 79.391419,28.4273819 80.340378,29.1358588 C81.2573053,29.8203629 82.6352999,30.1510056 83.1028365,31.0419163 C83.4633905,31.7292851 83.58489,32.6634674 83.8758579,33.397274 C84.6390961,35.3218765 85.6470692,37.1166644 86.6550423,38.9293942 C87.4670382,40.3902226 88.3552474,41.6663554 88.4455042,43.3357012 C88.4769048,43.9167758 87.9197424,47.4023192 89.2769085,46.3422424 C89.4780928,46.1851381 89.9118621,44.4079905 90.0010144,44.1064468 C90.3626728,42.8811241 90.491273,41.6019758 90.6550608,40.343031 C90.9807428,37.8393138 91.0877255,35.4571188 90.8750223,32.9354598"/>
    <path id="practical-design-tokens-x" d="M4,0 L51,0 C53.209139,-4.05812251e-16 55,1.790861 55,4 L55,22 C55,24.209139 53.209139,26 51,26 L4,26 C1.790861,26 2.705415e-16,24.209139 0,22 L0,4 C-2.705415e-16,1.790861 1.790861,4.05812251e-16 4,0 Z"/>
    <filter id="practical-design-tokens-y" width="252.7%" height="423.1%" x="-76.4%" y="-115.4%" filterUnits="objectBoundingBox">
      <feOffset dy="12" in="SourceAlpha" result="shadowOffsetOuter1"/>
      <feGaussianBlur in="shadowOffsetOuter1" result="shadowBlurOuter1" stdDeviation="12"/>
      <feColorMatrix in="shadowBlurOuter1" values="0 0 0 0 0   0 0 0 0 0   0 0 0 0 0  0 0 0 0 0"/>
    </filter>
    <path id="practical-design-tokens-A" d="M4,0 L51,0 C53.209139,-4.05812251e-16 55,1.790861 55,4 L55,22 C55,24.209139 53.209139,26 51,26 L4,26 C1.790861,26 2.705415e-16,24.209139 0,22 L0,4 C-2.705415e-16,1.790861 1.790861,4.05812251e-16 4,0 Z"/>
    <filter id="practical-design-tokens-B" width="252.7%" height="423.1%" x="-76.4%" y="-115.4%" filterUnits="objectBoundingBox">
      <feOffset dy="12" in="SourceAlpha" result="shadowOffsetOuter1"/>
      <feGaussianBlur in="shadowOffsetOuter1" result="shadowBlurOuter1" stdDeviation="12"/>
      <feColorMatrix in="shadowBlurOuter1" values="0 0 0 0 0   0 0 0 0 0   0 0 0 0 0  0 0 0 0 0"/>
    </filter>
    <path id="practical-design-tokens-D" d="M5,1 L52,1 C54.209139,1 56,2.790861 56,5 L56,23 C56,25.209139 54.209139,27 52,27 L5,27 C2.790861,27 1,25.209139 1,23 L1,5 C1,2.790861 2.790861,1 5,1 Z M5,3 C3.8954305,3 3,3.8954305 3,5 L3,23 C3,24.1045695 3.8954305,25 5,25 L52,25 C53.1045695,25 54,24.1045695 54,23 L54,5 C54,3.8954305 53.1045695,3 52,3 L5,3 Z"/>
    <path id="practical-design-tokens-F" d="M0.292893219,1.70710678 C-0.0976310729,1.31658249 -0.0976310729,0.683417511 0.292893219,0.292893219 C0.683417511,-0.0976310729 1.31658249,-0.0976310729 1.70710678,0.292893219 L6.41421356,5 L1.70710678,9.70710678 C1.31658249,10.0976311 0.683417511,10.0976311 0.292893219,9.70710678 C-0.0976310729,9.31658249 -0.0976310729,8.68341751 0.292893219,8.29289322 L3.58578644,5 L0.292893219,1.70710678 Z"/>
    <path id="practical-design-tokens-H" d="M0.292893219,1.70710678 C-0.0976310729,1.31658249 -0.0976310729,0.683417511 0.292893219,0.292893219 C0.683417511,-0.0976310729 1.31658249,-0.0976310729 1.70710678,0.292893219 L6.41421356,5 L1.70710678,9.70710678 C1.31658249,10.0976311 0.683417511,10.0976311 0.292893219,9.70710678 C-0.0976310729,9.31658249 -0.0976310729,8.68341751 0.292893219,8.29289322 L3.58578644,5 L0.292893219,1.70710678 Z"/>
    <path id="practical-design-tokens-J" d="M0.292893219,1.70710678 C-0.0976310729,1.31658249 -0.0976310729,0.683417511 0.292893219,0.292893219 C0.683417511,-0.0976310729 1.31658249,-0.0976310729 1.70710678,0.292893219 L6.41421356,5 L1.70710678,9.70710678 C1.31658249,10.0976311 0.683417511,10.0976311 0.292893219,9.70710678 C-0.0976310729,9.31658249 -0.0976310729,8.68341751 0.292893219,8.29289322 L3.58578644,5 L0.292893219,1.70710678 Z"/>
    <rect id="practical-design-tokens-L" width="55" height="110" x="0" y="0" rx="4"/>
    <path id="practical-design-tokens-N" d="M1,0 L43,0 C43.5522847,-1.01453063e-16 44,0.44771525 44,1 L44,1 C44,1.55228475 43.5522847,2 43,2 L1,2 C0.44771525,2 6.76353751e-17,1.55228475 0,1 L0,1 C-6.76353751e-17,0.44771525 0.44771525,1.01453063e-16 1,0 Z"/>
    <filter id="practical-design-tokens-O" width="290.9%" height="4300%" x="-95.5%" y="-1500%" filterUnits="objectBoundingBox">
      <feOffset dy="12" in="SourceAlpha" result="shadowOffsetOuter1"/>
      <feGaussianBlur in="shadowOffsetOuter1" result="shadowBlurOuter1" stdDeviation="12"/>
      <feColorMatrix in="shadowBlurOuter1" values="0 0 0 0 0   0 0 0 0 0   0 0 0 0 0  0 0 0 0 0"/>
    </filter>
    <path id="practical-design-tokens-Q" d="M1,0 L46,0 C46.5522847,-1.01453063e-16 47,0.44771525 47,1 L47,1 C47,1.55228475 46.5522847,2 46,2 L1,2 C0.44771525,2 6.76353751e-17,1.55228475 0,1 L0,1 C-6.76353751e-17,0.44771525 0.44771525,1.01453063e-16 1,0 Z"/>
    <filter id="practical-design-tokens-R" width="278.7%" height="4300%" x="-89.4%" y="-1500%" filterUnits="objectBoundingBox">
      <feOffset dy="12" in="SourceAlpha" result="shadowOffsetOuter1"/>
      <feGaussianBlur in="shadowOffsetOuter1" result="shadowBlurOuter1" stdDeviation="12"/>
      <feColorMatrix in="shadowBlurOuter1" values="0 0 0 0 0   0 0 0 0 0   0 0 0 0 0  0 0 0 0 0"/>
    </filter>
    <path id="practical-design-tokens-T" d="M1,0 L20,0 C20.5522847,-1.01453063e-16 21,0.44771525 21,1 L21,1 C21,1.55228475 20.5522847,2 20,2 L1,2 C0.44771525,2 6.76353751e-17,1.55228475 0,1 L0,1 C-6.76353751e-17,0.44771525 0.44771525,1.01453063e-16 1,0 Z"/>
    <filter id="practical-design-tokens-U" width="500%" height="4300%" x="-200%" y="-1500%" filterUnits="objectBoundingBox">
      <feOffset dy="12" in="SourceAlpha" result="shadowOffsetOuter1"/>
      <feGaussianBlur in="shadowOffsetOuter1" result="shadowBlurOuter1" stdDeviation="12"/>
      <feColorMatrix in="shadowBlurOuter1" values="0 0 0 0 0   0 0 0 0 0   0 0 0 0 0  0 0 0 0 0"/>
    </filter>
    <path id="practical-design-tokens-W" d="M1,0 L35,0 C35.5522847,-1.01453063e-16 36,0.44771525 36,1 L36,1 C36,1.55228475 35.5522847,2 35,2 L1,2 C0.44771525,2 6.76353751e-17,1.55228475 0,1 L0,1 C-6.76353751e-17,0.44771525 0.44771525,1.01453063e-16 1,0 Z"/>
    <filter id="practical-design-tokens-X" width="333.3%" height="4300%" x="-116.7%" y="-1500%" filterUnits="objectBoundingBox">
      <feOffset dy="12" in="SourceAlpha" result="shadowOffsetOuter1"/>
      <feGaussianBlur in="shadowOffsetOuter1" result="shadowBlurOuter1" stdDeviation="12"/>
      <feColorMatrix in="shadowBlurOuter1" values="0 0 0 0 0   0 0 0 0 0   0 0 0 0 0  0 0 0 0 0"/>
    </filter>
    <path id="practical-design-tokens-Z" d="M1,0 L40,0 C40.5522847,-1.01453063e-16 41,0.44771525 41,1 L41,1 C41,1.55228475 40.5522847,2 40,2 L1,2 C0.44771525,2 6.76353751e-17,1.55228475 0,1 L0,1 C-6.76353751e-17,0.44771525 0.44771525,1.01453063e-16 1,0 Z"/>
    <filter id="practical-design-tokens-aa" width="304.9%" height="4300%" x="-102.4%" y="-1500%" filterUnits="objectBoundingBox">
      <feOffset dy="12" in="SourceAlpha" result="shadowOffsetOuter1"/>
      <feGaussianBlur in="shadowOffsetOuter1" result="shadowBlurOuter1" stdDeviation="12"/>
      <feColorMatrix in="shadowBlurOuter1" values="0 0 0 0 0   0 0 0 0 0   0 0 0 0 0  0 0 0 0 0"/>
    </filter>
    <path id="practical-design-tokens-ac" d="M1,0 L44,0 C44.5522847,-1.01453063e-16 45,0.44771525 45,1 L45,1 C45,1.55228475 44.5522847,2 44,2 L1,2 C0.44771525,2 6.76353751e-17,1.55228475 0,1 L0,1 C-6.76353751e-17,0.44771525 0.44771525,1.01453063e-16 1,0 Z"/>
    <filter id="practical-design-tokens-ad" width="286.7%" height="4300%" x="-93.3%" y="-1500%" filterUnits="objectBoundingBox">
      <feOffset dy="12" in="SourceAlpha" result="shadowOffsetOuter1"/>
      <feGaussianBlur in="shadowOffsetOuter1" result="shadowBlurOuter1" stdDeviation="12"/>
      <feColorMatrix in="shadowBlurOuter1" values="0 0 0 0 0   0 0 0 0 0   0 0 0 0 0  0 0 0 0 0"/>
    </filter>
    <path id="practical-design-tokens-af" d="M1,0 L43,0 C43.5522847,-1.01453063e-16 44,0.44771525 44,1 L44,1 C44,1.55228475 43.5522847,2 43,2 L1,2 C0.44771525,2 6.76353751e-17,1.55228475 0,1 L0,1 C-6.76353751e-17,0.44771525 0.44771525,1.01453063e-16 1,0 Z"/>
    <filter id="practical-design-tokens-ag" width="290.9%" height="4300%" x="-95.5%" y="-1500%" filterUnits="objectBoundingBox">
      <feOffset dy="12" in="SourceAlpha" result="shadowOffsetOuter1"/>
      <feGaussianBlur in="shadowOffsetOuter1" result="shadowBlurOuter1" stdDeviation="12"/>
      <feColorMatrix in="shadowBlurOuter1" values="0 0 0 0 0   0 0 0 0 0   0 0 0 0 0  0 0 0 0 0"/>
    </filter>
    <path id="practical-design-tokens-ai" d="M1,0 L41,0 C41.5522847,-1.01453063e-16 42,0.44771525 42,1 L42,1 C42,1.55228475 41.5522847,2 41,2 L1,2 C0.44771525,2 6.76353751e-17,1.55228475 0,1 L0,1 C-6.76353751e-17,0.44771525 0.44771525,1.01453063e-16 1,0 Z"/>
    <filter id="practical-design-tokens-aj" width="300%" height="4300%" x="-100%" y="-1500%" filterUnits="objectBoundingBox">
      <feOffset dy="12" in="SourceAlpha" result="shadowOffsetOuter1"/>
      <feGaussianBlur in="shadowOffsetOuter1" result="shadowBlurOuter1" stdDeviation="12"/>
      <feColorMatrix in="shadowBlurOuter1" values="0 0 0 0 0   0 0 0 0 0   0 0 0 0 0  0 0 0 0 0"/>
    </filter>
  </defs>
  <g fill="none" fill-rule="evenodd">
    <g transform="translate(167 158)">
      <g transform="translate(14.987 17.454)">
        <rect width="125.567" height="132.655" fill="#F1E5CD" transform="translate(-14.987 -15.567)"/>
        <g transform="translate(0 .472)">
          <path fill="#000" fill-opacity=".08" d="M73.0598661,44.0602506 L73.0598661,47.3623183 C73.0598661,61.8468797 61.317809,73.5889368 46.8332475,73.5889368 C32.348686,73.5889368 20.6066289,61.8468797 20.6066289,47.3623183 L20.6066289,44.0602506 C20.6066289,58.5448121 32.348686,70.2868692 46.8332475,70.2868692 C61.317809,70.2868692 73.0598661,58.5448121 73.0598661,44.0602506 Z"/>
          <path stroke="#2D2E2F" stroke-width="2.055" d="M34.5659568,65.7992529 C27.1813009,61.7164713 22.2441351,54.1994753 21.5397895,45.6915847 C18.531105,45.0432424 16.3009916,42.3661302 16.3009916,39.1937859 L16.3009916,35.3385988 C16.3009916,32.1980005 18.4871502,29.5412154 21.4526488,28.8602017 L21.4526488,24.3532887 C21.4526488,10.3359711 32.8159299,-1.02730994 46.8332475,-1.02730994 C60.850565,-1.02730994 72.2138461,10.3359711 72.2138461,24.3532887 L72.2138461,28.8602017 C75.1793447,29.5412154 77.3655033,32.1980005 77.3655033,35.3385988 L77.3655033,39.1937859 C77.3655033,42.3661302 75.1353899,45.0432424 72.1267054,45.6915847 C71.4223598,54.1994758 66.4851934,61.7164723 59.1005368,65.7992536 L59.1005368,74.5241461 C79.0181898,75.7734811 94.6938049,92.3305304 94.6938049,112.458991 L94.6938049,117.543127 L-1.02730994,117.543127 L-1.02730994,112.458991 C-1.02730994,92.3305318 14.6483039,75.773481 34.5659495,74.5241464 L34.5659568,65.7992529 Z"/>
        </g>
        <path stroke="#2D2E2F" stroke-width="2.055" d="M36.439288,67.2080719 C28.0693817,63.448385 22.3053847,55.4100957 21.5397926,46.1633093 C18.5311066,45.5149682 16.3009916,42.8378552 16.3009916,39.6655099 L16.3009916,35.8103228 C16.3009916,32.6697244 18.4871502,30.0129394 21.4526488,29.3319256 L21.4526488,24.8250126 C21.4526488,10.8076951 32.8159299,-0.55558599 46.8332475,-0.55558599 C60.850565,-0.55558599 72.2138461,10.8076951 72.2138461,24.8250126 L72.2138461,29.3319256 C75.1793447,30.0129394 77.3655033,32.6697244 77.3655033,35.8103228 L77.3655033,39.6655099 C77.3655033,42.8378552 75.1353884,45.5149682 72.1267023,46.1633093 C71.3611103,55.4100957 65.5971133,63.448385 57.2272069,67.2080719 L57.2272069,76.3392302 C77.9690813,76.6301319 94.6938049,93.5348749 94.6938049,114.345886 L94.6938049,116.127955 L-1.02730994,116.127955 L-1.02730994,114.345886 C-1.02730994,93.5348749 15.6974137,76.6301319 36.439288,76.3392302 L36.439288,67.2080719 Z"/>
      </g>
      <g transform="translate(0 81.137)">
        <mask id="practical-design-tokens-b" fill="#fff">
          <use href="#practical-design-tokens-a"/>
        </mask>
        <path stroke="#2D2E2F" stroke-width="2.055" d="M79.8813635,13.4757417 C97.1680409,17.2828842 109.680444,32.6663974 109.680444,50.5967236 L109.680444,52.573037 L13.9593292,52.573037 L13.9593292,50.5967236 C13.9593292,32.6661037 26.4721374,17.2824109 43.7591919,13.4755695 L44.7798719,13.2508021 L44.9870492,14.2751973 C45.4629408,16.6282588 46.6703106,18.7717719 48.4918075,20.4153105 L61.1316834,31.8202842 C61.5226687,32.1730705 62.1171047,32.1730705 62.5080899,31.8202842 L75.1479658,20.4153105 C75.3467251,20.2359698 75.5390487,20.0496228 75.7245725,19.8566221 C77.2323689,18.2880596 78.2320581,16.3607432 78.6534539,14.2755183 L78.8605111,13.2509136 L79.8813635,13.4757417 Z"/>
        <rect width="123.64" height="51.546" fill="#FFF" mask="url(#practical-design-tokens-b)"/>
      </g>
      <g transform="translate(35.593 37.738)">
        <path fill="#2D2E2F" d="M19.0519299,7.03483984 C19.0519299,10.6610589 22.0373737,13.6006904 25.7201053,13.6006904 L25.7201053,13.6006904 C29.402837,13.6006904 32.3882808,10.6610589 32.3882808,7.03483984" transform="translate(.937 24.53)"/>
        <use fill="#000" fill-opacity=".08" transform="translate(13.113 18.869)" href="#practical-design-tokens-c"/>
        <g fill="#2D2E2F" transform="translate(0 3.774)">
          <ellipse cx="13.816" cy="10.318" rx="2.763" ry="2.814"/>
          <ellipse cx="37.762" cy="10.318" rx="2.763" ry="2.814"/>
        </g>
        <g fill="#2D2E2F">
          <path d="M11.9866902,2.92379145 C9.33363834,3.28268895 5.19985476,5.63874469 5.55112865,8.37581017 C5.56267056,8.46539346 5.69527526,8.49356485 5.75232848,8.41889269 C6.8947406,6.92022777 15.7456922,4.73247911 18.9714239,5.19925352 C19.2666479,5.24207136 19.4608934,4.9310766 19.2592349,4.73633688 C17.5313663,3.06863319 14.3633355,2.5998814 11.9866902,2.92379145" transform="rotate(5 12.436 5.645)"/>
          <path d="M39.1531228,2.92379145 C36.5000709,3.28268895 32.3662873,5.63874469 32.7175612,8.37581017 C32.7291031,8.46539346 32.8617078,8.49356485 32.918761,8.41889269 C34.0611732,6.92022777 42.9121248,4.73247911 46.1378565,5.19925352 C46.4330805,5.24207136 46.627326,4.9310766 46.4256674,4.73633688 C44.6977989,3.06863319 41.5297681,2.5998814 39.1531228,2.92379145" transform="scale(-1 1) rotate(5 0 -901.402)"/>
        </g>
      </g>
      <mask id="practical-design-tokens-e" fill="#fff">
        <use href="#practical-design-tokens-d"/>
      </mask>
      <g mask="url(#practical-design-tokens-e)">
        <g transform="translate(-.468)">
          <path fill="#000" fill-opacity=".08" d="M32.3532597,35.8848681 C38.4167432,20.3074105 44.8257201,12.5186817 51.5801905,12.5186817 C51.8326991,12.5186817 65.2901004,12.406632 74.101599,12.3488953 C83.7816012,16.7553798 90.4520161,26.0397454 90.4520161,36.7803004 L90.4520161,43.7890864 L51.5801905,43.7890864 L50.2655329,32.8749791 L48.4473894,43.7890864 L32.3377674,43.7890864 L32.3377674,36.7803004 C32.3377674,36.4806625 32.3429589,36.1821579 32.3532624,35.884861 L32.3532597,35.8848681 Z"/>
          <g transform="translate(18.747 8.946)">
            <mask id="practical-design-tokens-g" fill="#fff">
              <use href="#practical-design-tokens-f"/>
            </mask>
            <use fill="#E6E6E6" href="#practical-design-tokens-f"/>
            <g fill="#2D2E2F" mask="url(#practical-design-tokens-g)">
              <rect width="125.793" height="133.668" transform="translate(-18.747 -8.946)"/>
            </g>
          </g>
        </g>
      </g>
    </g>
    <g transform="translate(-11 156)">
      <g transform="translate(15 17.215)">
        <rect width="125.332" height="130.386" fill="#6B5947" transform="translate(-15 -15.354)"/>
        <g transform="translate(0 .465)">
          <path fill="#000" fill-opacity=".08" d="M73.125,43.0763889 L73.125,46.3333333 C73.125,60.830808 61.3724747,72.5833333 46.875,72.5833333 C32.3775253,72.5833333 20.625,60.830808 20.625,46.3333333 L20.625,43.0763889 C20.625,57.5738636 32.3775253,69.3263889 46.875,69.3263889 C61.3724747,69.3263889 73.125,57.5738636 73.125,43.0763889 Z"/>
          <path stroke="#2D2E2F" stroke-width="1.875" d="M34.6875,64.8155294 C27.3812686,60.7960414 22.4600826,53.4044317 21.6736201,45.0111264 C18.6558838,44.4077683 16.40625,41.7423876 16.40625,38.5763889 L16.40625,34.9375 C16.40625,31.8121882 18.5991872,29.1721578 21.5625,28.5259966 L21.5625,24.375 C21.5625,10.3952923 32.8952923,-0.9375 46.875,-0.9375 C60.8547077,-0.9375 72.1875,10.3952923 72.1875,24.375 L72.1875,28.5259966 C75.1508128,29.1721578 77.34375,31.8121882 77.34375,34.9375 L77.34375,38.5763889 C77.34375,41.7423876 75.0941162,44.4077683 72.0763799,45.0111264 C71.2899174,53.4044317 66.3687314,60.7960414 59.0625,64.8155294 L59.0625,73.5069444 L60,73.5069444 C79.1573773,73.5069444 94.6875,89.0370672 94.6875,108.194444 L94.6875,115.861111 L-0.9375,115.861111 L-0.9375,108.194444 C-0.9375,89.0370672 14.5926227,73.5069444 33.75,73.5069444 L34.6875,73.5069444 L34.6875,64.8155294 Z"/>
        </g>
        <path stroke="#2D2E2F" stroke-width="1.875" d="M36.5625,66.2135292 C28.2751819,62.5138448 22.5291904,54.6066366 21.6736222,45.4764046 C18.6558848,44.8730473 16.40625,42.2076661 16.40625,39.0416667 L16.40625,35.4027778 C16.40625,32.2774659 18.5991872,29.6374356 21.5625,28.9912744 L21.5625,24.8402778 C21.5625,10.86057 32.8952923,-0.472222222 46.875,-0.472222222 C60.8547077,-0.472222222 72.1875,10.86057 72.1875,24.8402778 L72.1875,28.9912744 C75.1508128,29.6374356 77.34375,32.2774659 77.34375,35.4027778 L77.34375,39.0416667 C77.34375,42.2076661 75.0941152,44.8730473 72.0763778,45.4764046 C71.2208096,54.6066366 65.4748181,62.5138448 57.1875,66.2135292 L57.1875,75.3680556 L60,75.3680556 C79.1573773,75.3680556 94.6875,90.8981783 94.6875,110.055556 L94.6875,114.465278 L-0.9375,114.465278 L-0.9375,110.055556 C-0.9375,90.8981783 14.5926227,75.3680556 33.75,75.3680556 L36.5625,75.3680556 L36.5625,66.2135292 Z"/>
      </g>
      <g transform="translate(0 80.028)">
        <mask id="practical-design-tokens-i" fill="#fff">
          <use href="#practical-design-tokens-h"/>
        </mask>
        <path stroke="#2D2E2F" stroke-width="1.875" d="M89.0362272,15.3520313 C101.472265,20.8586504 109.6875,33.2129554 109.6875,47.0820948 L109.6875,51.5084135 L14.0625,51.5084135 L14.0625,47.0820948 C14.0625,33.2129554 22.2777348,20.8586504 34.7137728,15.3520313 C35.0935,9.79600373 39.5698873,7.98434526 48.7485742,7.97038571 L49.6875,7.96895773 L49.6875,12.6201923 C49.6875,19.3511627 55.1440296,24.8076923 61.875,24.8076923 C68.6059704,24.8076923 74.0625,19.3511627 74.0625,12.6201923 L74.0625,7.96895773 L75.0014258,7.97038571 C84.1801127,7.98434526 88.6565,9.79600373 89.0362272,15.3520313 Z"/>
        <rect width="123.75" height="50.571" fill="#FFF" mask="url(#practical-design-tokens-i)"/>
        <path fill="#2D2E2F" d="M47.8125,28.3836392 L47.8125,50.5709135 L44.53125,50.5709135 L44.53125,26.7337445 C45.5642598,27.3359039 46.6625481,27.8879223 47.8125,28.3836392 Z M79.21875,26.7337445 L79.21875,45.2524038 C79.21875,46.158496 78.4842172,46.8930288 77.578125,46.8930288 C76.6720328,46.8930288 75.9375,46.158496 75.9375,45.2524038 L75.9375,28.3836392 C77.0874519,27.8879223 78.1857402,27.3359039 79.21875,26.7337445 Z" mask="url(#practical-design-tokens-i)"/>
        <path fill="#2D2E2F" fill-opacity=".304" d="M61.8702258,31.262019 C46.1863956,31.2605285 30.703125,23.9145297 30.703125,14.8529956 C30.703125,9.76610987 35.5824888,7.15862458 42.6375623,5.84983809 C38.3789435,7.39000104 35.625,9.97904552 35.625,14.2871672 C35.625,23.6609896 48.6630475,31.2601879 61.8702258,31.262019 L61.8702258,31.262019 Z M81.1124377,5.84983809 C88.1675112,7.15862458 93.046875,9.76610987 93.046875,14.8529956 C93.046875,23.9145297 77.5636044,31.2605285 61.8797742,31.262019 C75.0869525,31.2601879 88.125,23.6609896 88.125,14.2871672 C88.125,9.97904552 85.3710565,7.39000104 81.1124377,5.84983809 L81.1124377,5.84983809 Z" mask="url(#practical-design-tokens-i)"/>
      </g>
      <g transform="translate(35.625 37.222)">
        <path fill="#2D2E2F" d="M18.75,6.69642857 C18.75,10.1482083 21.6881313,12.9464286 25.3125,12.9464286 L25.3125,12.9464286 C28.9368687,12.9464286 31.875,10.1482083 31.875,6.69642857" transform="translate(.938 24.194)"/>
        <use fill="#000" fill-opacity=".08" transform="translate(13.125 18.611)" href="#practical-design-tokens-j"/>
        <g fill="#2D2E2F" transform="translate(0 3.722)">
          <ellipse cx="14.063" cy="9.821" rx="2.813" ry="2.679"/>
          <ellipse cx="38.438" cy="9.821" rx="2.813" ry="2.679"/>
        </g>
        <g fill="#2D2E2F">
          <path d="M12.205825,2.91099546 C9.50510409,3.27349789 5.29356154,5.62745996 5.64574689,8.35209897 C5.65731943,8.44127546 5.7922173,8.4690688 5.85042547,8.39460643 C7.01597069,6.90015709 16.0278737,4.70463192 19.3098128,5.1631477 C19.6101808,5.20520928 19.8084686,4.89517235 19.6036172,4.70165937 C17.8483904,3.04446294 14.6251777,2.58386637 12.205825,2.91099546" transform="rotate(5 12.656 5.625)"/>
          <path d="M39.862075,2.91099546 C37.1613541,3.27349789 32.9498115,5.62745996 33.3019969,8.35209897 C33.3135694,8.44127546 33.4484673,8.4690688 33.5066755,8.39460643 C34.6722207,6.90015709 43.6841237,4.70463192 46.9660628,5.1631477 C47.2664308,5.20520928 47.4647186,4.89517235 47.2598672,4.70165937 C45.5046404,3.04446294 42.2814277,2.58386637 39.862075,2.91099546" transform="scale(-1 1) rotate(5 0 -917.683)"/>
        </g>
      </g>
      <mask id="practical-design-tokens-l" fill="#fff">
        <use href="#practical-design-tokens-k"/>
      </mask>
      <g mask="url(#practical-design-tokens-l)">
        <g transform="translate(-.469)">
          <g transform="translate(22.969 33.492)">
            <mask id="practical-design-tokens-n" fill="#fff">
              <use href="#practical-design-tokens-m"/>
            </mask>
            <use fill="#252E32" href="#practical-design-tokens-m"/>
            <g fill="#2D2E2F" mask="url(#practical-design-tokens-n)">
              <rect width="79" height="71.763"/>
            </g>
          </g>
          <g transform="translate(35.156 15.816)">
            <mask id="practical-design-tokens-p" fill="#fff">
              <use href="#practical-design-tokens-o"/>
            </mask>
            <use fill="#28354B" href="#practical-design-tokens-o"/>
            <g fill="#2D2E2F" mask="url(#practical-design-tokens-p)">
              <rect width="124" height="131.396" transform="translate(-34.688 -15.816)"/>
            </g>
          </g>
        </g>
      </g>
    </g>
    <g transform="translate(78 160)">
      <g transform="translate(15.008 17.224)">
        <rect width="125.398" height="130.454" fill="#C7A97B" transform="translate(-15.008 -15.362)"/>
        <g transform="translate(0 .466)">
          <path fill="#000" fill-opacity=".08" d="M73.163365,43.0989889 L73.163365,46.3576421 C73.163365,60.8627229 61.4046737,72.6214141 46.8995929,72.6214141 C32.3945122,72.6214141 20.6358209,60.8627229 20.6358209,46.3576421 L20.6358209,43.0989889 C20.6358209,57.6040697 32.3945122,69.3627609 46.8995929,69.3627609 C61.4046737,69.3627609 73.163365,57.6040697 73.163365,43.0989889 Z"/>
          <path stroke="#2D2E2F" stroke-width="1.876" d="M34.7056988,64.8495348 C27.3956341,60.827938 22.4718662,53.4324503 21.6849912,45.0347415 C18.6656716,44.4310668 16.4148575,41.7642877 16.4148575,38.596628 L16.4148575,34.9558299 C16.4148575,31.8288784 18.6089452,29.1874629 21.5738128,28.5409628 L21.5738128,24.3877883 C21.5738128,10.4007462 32.9125508,-0.937991859 46.8995929,-0.937991859 C60.8866351,-0.937991859 72.2253731,10.4007462 72.2253731,24.3877883 L72.2253731,28.5409628 C75.1902407,29.1874629 77.3843284,31.8288784 77.3843284,34.9558299 L77.3843284,38.596628 C77.3843284,41.7642877 75.1335143,44.4310668 72.1141947,45.0347415 C71.3273197,53.4324503 66.4035518,60.827938 59.0934871,64.8495348 L59.0934871,73.5455098 L60.031479,73.5455098 C79.1989071,73.5455098 94.7371777,89.0837804 94.7371777,108.251209 L94.7371777,115.921898 L-0.937991859,115.921898 L-0.937991859,108.251209 C-0.937991859,89.0837804 14.6002788,73.5455098 33.7677069,73.5455098 L34.7056988,73.5455098 L34.7056988,64.8495348 Z"/>
        </g>
        <path stroke="#2D2E2F" stroke-width="1.876" d="M36.5816825,66.2482681 C28.2900164,62.5466427 22.5410104,54.635286 21.6849933,45.5002638 C18.6656726,44.8965899 16.4148575,42.2298104 16.4148575,39.0621499 L16.4148575,35.4213518 C16.4148575,32.2944003 18.6089452,29.6529848 21.5738128,29.0064846 L21.5738128,24.8533102 C21.5738128,10.866268 32.9125508,-0.472469973 46.8995929,-0.472469973 C60.8866351,-0.472469973 72.2253731,10.866268 72.2253731,24.8533102 L72.2253731,29.0064846 C75.1902407,29.6529848 77.3843284,32.2944003 77.3843284,35.4213518 L77.3843284,39.0621499 C77.3843284,42.2298104 75.1335133,44.8965899 72.1141926,45.5002638 C71.2581755,54.635286 65.5091695,62.5466427 57.2175034,66.2482681 L57.2175034,75.4075974 L60.031479,75.4075974 C79.1989071,75.4075974 94.7371777,90.945868 94.7371777,110.113296 L94.7371777,114.525332 L-0.937991859,114.525332 L-0.937991859,110.113296 C-0.937991859,90.945868 14.6002788,75.4075974 33.7677069,75.4075974 L36.5816825,75.4075974 L36.5816825,66.2482681 Z"/>
      </g>
      <g transform="translate(0 80.07)">
        <mask id="practical-design-tokens-r" fill="#fff">
          <use href="#practical-design-tokens-q"/>
        </mask>
        <path stroke="#2D2E2F" stroke-width="1.876" d="M85.4314308,14.0080658 C99.7855983,18.5071885 109.745047,31.8539733 109.745047,47.1308251 L109.745047,51.5354373 L14.0698779,51.5354373 L14.0698779,47.1308251 C14.0698779,31.6560399 24.2876416,18.1785446 38.9035273,13.8495655 L40.4768032,13.3835877 L40.0800667,14.9757348 C39.9368649,15.5504191 39.864654,16.1321317 39.864654,16.7190634 C39.864654,23.5552716 49.7703169,29.3412005 62.1419607,29.3412005 C74.5136044,29.3412005 84.4192673,23.5552716 84.4192673,16.7190634 C84.4192673,16.1786732 84.3580554,15.6427292 84.2365896,15.1126158 L83.8714684,13.5191163 L85.4314308,14.0080658 Z"/>
        <rect width="123.815" height="50.597" fill="#FFF" mask="url(#practical-design-tokens-r)"/>
      </g>
      <path fill="#2D2E2F" fill-opacity=".304" d="M14.3043758,46.2295988 C13.9158469,46.2295988 13.600882,45.9191333 13.600882,45.5361548 C13.600882,45.1531762 13.9158469,44.8427108 14.3043758,44.8427108 C14.6929048,44.8427108 15.0078697,45.1531762 15.0078697,45.5361548 C15.0078697,45.9191333 14.6929048,46.2295988 14.3043758,46.2295988 Z M17.1183514,43.4558228 C16.7298225,43.4558228 16.4148575,43.1453574 16.4148575,42.7623789 C16.4148575,42.3794003 16.7298225,42.0689349 17.1183514,42.0689349 C17.5068804,42.0689349 17.8218453,42.3794003 17.8218453,42.7623789 C17.8218453,43.1453574 17.5068804,43.4558228 17.1183514,43.4558228 Z M10.0834125,44.8427108 C9.69488353,44.8427108 9.37991859,44.5322454 9.37991859,44.1492668 C9.37991859,43.7662883 9.69488353,43.4558228 10.0834125,43.4558228 C10.4719414,43.4558228 10.7869064,43.7662883 10.7869064,44.1492668 C10.7869064,44.5322454 10.4719414,44.8427108 10.0834125,44.8427108 Z M12.8973881,42.5312309 C12.5088591,42.5312309 12.1938942,42.2207654 12.1938942,41.8377869 C12.1938942,41.4548083 12.5088591,41.1443429 12.8973881,41.1443429 C13.285917,41.1443429 13.600882,41.4548083 13.600882,41.8377869 C13.600882,42.2207654 13.285917,42.5312309 12.8973881,42.5312309 Z M36.3471845,42.5312309 C35.9586556,42.5312309 35.6436906,42.2207654 35.6436906,41.8377869 C35.6436906,41.4548083 35.9586556,41.1443429 36.3471845,41.1443429 C36.7357135,41.1443429 37.0506784,41.4548083 37.0506784,41.8377869 C37.0506784,42.2207654 36.7357135,42.5312309 36.3471845,42.5312309 Z M34.9401967,45.7673028 C34.5516678,45.7673028 34.2367028,45.4568373 34.2367028,45.0738588 C34.2367028,44.6908803 34.5516678,44.3804148 34.9401967,44.3804148 C35.3287257,44.3804148 35.6436906,44.6908803 35.6436906,45.0738588 C35.6436906,45.4568373 35.3287257,45.7673028 34.9401967,45.7673028 Z M38.6921642,44.8427108 C38.3036352,44.8427108 37.9886703,44.5322454 37.9886703,44.1492668 C37.9886703,43.7662883 38.3036352,43.4558228 38.6921642,43.4558228 C39.0806931,43.4558228 39.3956581,43.7662883 39.3956581,44.1492668 C39.3956581,44.5322454 39.0806931,44.8427108 38.6921642,44.8427108 Z M41.5061398,42.0689349 C41.1176108,42.0689349 40.8026459,41.7584694 40.8026459,41.3754909 C40.8026459,40.9925124 41.1176108,40.6820469 41.5061398,40.6820469 C41.8946687,40.6820469 42.2096336,40.9925124 42.2096336,41.3754909 C42.2096336,41.7584694 41.8946687,42.0689349 41.5061398,42.0689349 Z" transform="translate(36.113 16.759)"/>
      <g transform="translate(35.644 37.242)">
        <path fill="#2D2E2F" d="M18.7598372,6.69994185 C18.7598372,10.1535325 21.69951,12.9532209 25.3257802,12.9532209 L25.3257802,12.9532209 C28.9520504,12.9532209 31.8917232,10.1535325 31.8917232,6.69994185" transform="translate(.938 24.207)"/>
        <use fill="#000" fill-opacity=".24" transform="translate(13.132 18.62)" href="#practical-design-tokens-s"/>
        <g fill="#2D2E2F" transform="translate(0 3.724)">
          <ellipse cx="14.07" cy="9.827" rx="2.814" ry="2.68"/>
          <ellipse cx="38.458" cy="9.827" rx="2.814" ry="2.68"/>
        </g>
        <g fill="#2D2E2F" transform="translate(5.628 2.814)">
          <path d="M1.7025703,5.23332707 C3.53864698,2.6497645 8.57226995,1.20102223 12.9081875,2.26580397 C13.4112785,2.38934924 13.9192676,2.08166663 14.0428129,1.57857563 C14.1663581,1.07548463 13.8586755,0.567495561 13.3555845,0.44395029 C8.32015817,-0.792611511 2.4913531,0.884994531 0.173413421,4.14659152 C-0.126680315,4.56885653 -0.0276409278,5.154444 0.394624084,5.45453773 C0.816889095,5.75463147 1.40247656,5.65559208 1.7025703,5.23332707 Z"/>
          <path d="M28.9043342,5.23332707 C30.7404109,2.6497645 35.7740339,1.20102223 40.1099514,2.26580397 C40.6130424,2.38934924 41.1210315,2.08166663 41.2445768,1.57857563 C41.368122,1.07548463 41.0604394,0.567495561 40.5573484,0.44395029 C35.5219221,-0.792611511 29.693117,0.884994531 27.3751773,4.14659152 C27.0750836,4.56885653 27.174123,5.154444 27.596388,5.45453773 C28.018653,5.75463147 28.6042405,5.65559208 28.9043342,5.23332707 Z" transform="matrix(-1 0 0 1 68.474 0)"/>
        </g>
      </g>
      <mask id="practical-design-tokens-u" fill="#fff">
        <use href="#practical-design-tokens-t"/>
      </mask>
      <g mask="url(#practical-design-tokens-u)">
        <g transform="translate(-.469)">
          <mask id="practical-design-tokens-w" fill="#fff">
            <use href="#practical-design-tokens-v"/>
          </mask>
          <use fill="#28354B" href="#practical-design-tokens-v"/>
          <g mask="url(#practical-design-tokens-w)">
            <rect width="124.065" height="131.465" fill="#2D2E2F" transform="translate(.469)"/>
          </g>
        </g>
      </g>
    </g>
    <rect width="40" height="40" x="30" y="2" fill="#D63E04"/>
    <g transform="translate(114 4)">
      <mask id="practical-design-tokens-z" fill="#fff">
        <use href="#practical-design-tokens-x"/>
      </mask>
      <use fill="#000" filter="url(#practical-design-tokens-y)" href="#practical-design-tokens-x"/>
      <g fill="#D63E04" mask="url(#practical-design-tokens-z)">
        <polygon points="0 0 57 0 57 28 0 28"/>
      </g>
      <g transform="translate(0 34)">
        <mask id="practical-design-tokens-C" fill="#fff">
          <use href="#practical-design-tokens-A"/>
        </mask>
        <use fill="#000" filter="url(#practical-design-tokens-B)" href="#practical-design-tokens-A"/>
        <g fill="#FFF" mask="url(#practical-design-tokens-C)">
          <polygon points="0 0 57 0 57 28 0 28"/>
        </g>
        <g mask="url(#practical-design-tokens-C)">
          <g transform="translate(-1 -1)">
            <mask id="practical-design-tokens-E" fill="#fff">
              <use href="#practical-design-tokens-D"/>
            </mask>
            <g mask="url(#practical-design-tokens-E)">
              <polygon fill="#2672DE" points="0 0 59 0 59 32 0 32" transform="translate(-1 -2)"/>
            </g>
          </g>
        </g>
      </g>
      <g fill="#171717" transform="translate(1 68)">
        <rect width="46" height="4" y="8" rx="2"/>
        <rect width="21" height="6" rx="3"/>
        <rect width="40" height="4" y="14" rx="2"/>
        <rect width="44" height="4" y="20" rx="2"/>
        <rect width="30" height="8" x="1" y="33"/>
      </g>
      <rect width="55" height="26" fill="#D63E04" rx="4"/>
      <rect width="53" height="24" x="1" y="35" stroke="#2672DE" stroke-width="2" rx="4"/>
    </g>
    <rect width="32" height="32" x="34" y="50" fill="#2672DE"/>
    <rect width="24" height="24" x="38" y="90" fill="#171717"/>
    <g transform="rotate(-90 138.5 6.5)">
      <g transform="translate(5 1)">
        <mask id="practical-design-tokens-G" fill="#fff">
          <use href="#practical-design-tokens-F"/>
        </mask>
        <use fill="#979797" fill-rule="nonzero" href="#practical-design-tokens-F"/>
        <g fill="#C3512C" mask="url(#practical-design-tokens-G)">
          <rect width="15" height="18" transform="translate(-7 -4)"/>
        </g>
      </g>
      <rect width="10" height="2" y="5" fill="#C3512C"/>
    </g>
    <g transform="rotate(-90 95 50)">
      <g transform="translate(5 1)">
        <mask id="practical-design-tokens-I" fill="#fff">
          <use href="#practical-design-tokens-H"/>
        </mask>
        <use fill="#979797" fill-rule="nonzero" href="#practical-design-tokens-H"/>
        <g fill="#C3512C" mask="url(#practical-design-tokens-I)">
          <rect width="15" height="18" transform="translate(-7 -4)"/>
        </g>
      </g>
      <rect width="10" height="2" y="5" fill="#C3512C"/>
    </g>
    <g transform="rotate(-90 184 -39)">
      <g transform="translate(5 1)">
        <mask id="practical-design-tokens-K" fill="#fff">
          <use href="#practical-design-tokens-J"/>
        </mask>
        <use fill="#979797" fill-rule="nonzero" href="#practical-design-tokens-J"/>
        <g fill="#C3512C" mask="url(#practical-design-tokens-K)">
          <rect width="15" height="18" transform="translate(-7 -4)"/>
        </g>
      </g>
      <rect width="10" height="2" y="5" fill="#C3512C"/>
    </g>
    <g transform="translate(201 4)">
      <mask id="practical-design-tokens-M" fill="#fff">
        <use href="#practical-design-tokens-L"/>
      </mask>
      <rect width="57" height="112" x="-1" y="-1" stroke="#171717" stroke-width="2" rx="4"/>
      <rect width="30" height="8" x="4" y="6" fill="#171717" mask="url(#practical-design-tokens-M)"/>
      <g mask="url(#practical-design-tokens-M)">
        <g transform="translate(4 54)">
          <mask id="practical-design-tokens-P" fill="#fff">
            <use href="#practical-design-tokens-N"/>
          </mask>
          <use fill="#000" filter="url(#practical-design-tokens-O)" href="#practical-design-tokens-N"/>
          <g fill="#E6E6E6" mask="url(#practical-design-tokens-P)">
            <polygon points="0 0 46 0 46 4 0 4" transform="translate(-1 -1)"/>
          </g>
          <g transform="translate(0 3)">
            <mask id="practical-design-tokens-S" fill="#fff">
              <use href="#practical-design-tokens-Q"/>
            </mask>
            <use fill="#000" filter="url(#practical-design-tokens-R)" href="#practical-design-tokens-Q"/>
            <g fill="#E6E6E6" mask="url(#practical-design-tokens-S)">
              <polygon points="0 0 49 0 49 4 0 4" transform="translate(-1 -1)"/>
            </g>
          </g>
          <g transform="translate(0 6)">
            <mask id="practical-design-tokens-V" fill="#fff">
              <use href="#practical-design-tokens-T"/>
            </mask>
            <use fill="#000" filter="url(#practical-design-tokens-U)" href="#practical-design-tokens-T"/>
            <g fill="#E6E6E6" mask="url(#practical-design-tokens-V)">
              <polygon points="0 0 23 0 23 4 0 4" transform="translate(-1 -1)"/>
            </g>
          </g>
          <rect width="22" height="6" y="12" fill="#D63E04" rx="1"/>
          <rect width="21" height="5" x="24.5" y="12.5" stroke="#2672DE" rx="1"/>
        </g>
      </g>
      <g fill="#171717" mask="url(#practical-design-tokens-M)">
        <g transform="translate(4 86)">
          <rect width="46" height="2" y="7" rx="1"/>
          <rect width="21" height="4" rx="2"/>
          <rect width="41" height="2" y="13" rx="1"/>
          <rect width="40" height="2" y="10" rx="1"/>
          <rect width="44" height="2" y="16" rx="1"/>
        </g>
      </g>
      <g fill="#E6E6E6" mask="url(#practical-design-tokens-M)">
        <polygon points="0 0 75 0 75 28 0 28" transform="translate(-6 21)"/>
      </g>
      <g mask="url(#practical-design-tokens-M)">
        <g transform="translate(4 111)">
          <mask id="practical-design-tokens-Y" fill="#fff">
            <use href="#practical-design-tokens-W"/>
          </mask>
          <use fill="#000" filter="url(#practical-design-tokens-X)" href="#practical-design-tokens-W"/>
          <g fill="#171717" mask="url(#practical-design-tokens-Y)">
            <polygon points="0 0 38 0 38 4 0 4" transform="translate(-1 -1)"/>
          </g>
          <g transform="translate(0 6)">
            <mask id="practical-design-tokens-ab" fill="#fff">
              <use href="#practical-design-tokens-Z"/>
            </mask>
            <use fill="#000" filter="url(#practical-design-tokens-aa)" href="#practical-design-tokens-Z"/>
            <g fill="#171717" mask="url(#practical-design-tokens-ab)">
              <polygon points="0 0 43 0 43 4 0 4" transform="translate(-1 -1)"/>
            </g>
          </g>
          <g transform="translate(0 3)">
            <mask id="practical-design-tokens-ae" fill="#fff">
              <use href="#practical-design-tokens-ac"/>
            </mask>
            <use fill="#000" filter="url(#practical-design-tokens-ad)" href="#practical-design-tokens-ac"/>
            <g fill="#171717" mask="url(#practical-design-tokens-ae)">
              <polygon points="0 0 47 0 47 4 0 4" transform="translate(-1 -1)"/>
            </g>
          </g>
          <g transform="translate(0 9)">
            <mask id="practical-design-tokens-ah" fill="#fff">
              <use href="#practical-design-tokens-af"/>
            </mask>
            <use fill="#000" filter="url(#practical-design-tokens-ag)" href="#practical-design-tokens-af"/>
            <g fill="#171717" mask="url(#practical-design-tokens-ah)">
              <polygon points="0 0 46 0 46 4 0 4" transform="translate(-1 -1)"/>
            </g>
          </g>
          <g transform="translate(0 12)">
            <mask id="practical-design-tokens-ak" fill="#fff">
              <use href="#practical-design-tokens-ai"/>
            </mask>
            <use fill="#000" filter="url(#practical-design-tokens-aj)" href="#practical-design-tokens-ai"/>
            <g fill="#171717" mask="url(#practical-design-tokens-ak)">
              <polygon points="0 0 44 0 44 4 0 4" transform="translate(-1 -1)"/>
            </g>
          </g>
        </g>
      </g>
    </g>
  </g>
</svg>
