<?xml version="1.0" encoding="UTF-8"?>
<svg xmlns="http://www.w3.org/2000/svg" width="492" height="288" viewBox="0 0 492 288">
  <defs>
    <rect id="practical-design-tokens--alt-a" width="91.55" height="142.411" x="0" y="0" rx="2.543"/>
    <rect id="practical-design-tokens--alt-c" width="105.769" height="69.059" x="0" y="0"/>
    <polygon id="practical-design-tokens--alt-e" points="25.229 39.058 0 39.056 12.613 0"/>
    <polygon id="practical-design-tokens--alt-g" points="40.896 0 33.098 24.136 .069 0"/>
    <polygon id="practical-design-tokens--alt-i" points=".147 14.916 20.558 0 33.176 39.055"/>
    <polygon id="practical-design-tokens--alt-k" points="12.616 .078 33.026 14.996 0 39.136"/>
    <polygon id="practical-design-tokens--alt-m" points="7.795 24.139 0 .003 40.824 0"/>
    <rect id="practical-design-tokens--alt-o" width="66.119" height="94.728" x="0" y="0" rx="2.543"/>
    <rect id="practical-design-tokens--alt-q" width="123.458" height="70.57" x="0" y="0"/>
    <polygon id="practical-design-tokens--alt-s" points="54.313 84.909 0 84.905 27.153 0"/>
    <polygon id="practical-design-tokens--alt-u" points="88.041 0 71.253 52.469 .149 0"/>
    <polygon id="practical-design-tokens--alt-w" points=".316 32.425 44.258 0 71.421 84.902"/>
    <polygon id="practical-design-tokens--alt-y" points="27.16 .169 71.098 32.6 0 85.078"/>
    <polygon id="practical-design-tokens--alt-A" points="16.78 52.477 0 .006 87.886 0"/>
    <rect id="practical-design-tokens--alt-C" width="66.119" height="108.079" x="0" y="0" rx="2.543"/>
    <rect id="practical-design-tokens--alt-E" width="91.55" height="91.55" x="0" y="0" rx="2.543"/>
    <rect id="practical-design-tokens--alt-G" width="105.769" height="40.852" x="0" y="0"/>
    <polygon id="practical-design-tokens--alt-I" points="77.089 120.005 0 120 38.539 0"/>
    <polygon id="practical-design-tokens--alt-K" points="124.961 0 101.134 74.156 .212 0"/>
    <polygon id="practical-design-tokens--alt-M" points=".448 45.827 62.817 0 101.372 119.995"/>
    <polygon id="practical-design-tokens--alt-O" points="38.55 .239 100.913 46.075 0 120.244"/>
    <polygon id="practical-design-tokens--alt-Q" points="23.817 74.167 0 .008 124.741 0"/>
    <rect id="practical-design-tokens--alt-S" width="25.43" height="50.861" x="0" y="0" rx="2.543"/>
    <rect id="practical-design-tokens--alt-U" width="106.187" height="27.175" x="0" y="0"/>
    <polygon id="practical-design-tokens--alt-W" points="42.749 66.795 0 66.792 21.372 0"/>
    <polygon id="practical-design-tokens--alt-Y" points="69.296 0 56.083 41.275 .117 0"/>
    <polygon id="practical-design-tokens--alt-aa" points=".248 25.508 34.835 0 56.215 66.789"/>
    <polygon id="practical-design-tokens--alt-ac" points="21.377 .133 55.961 25.646 0 66.928"/>
    <polygon id="practical-design-tokens--alt-ae" points="13.207 41.282 0 .005 69.174 0"/>
    <path id="practical-design-tokens--alt-ag" d="M0.335178465,1.7636335 C-0.111726155,1.36017794 -0.111726155,0.706047229 0.335178465,0.30259167 C0.782083085,-0.10086389 1.50665864,-0.10086389 1.95356326,0.30259167 L7.3402391,5.16556291 L1.95356326,10.0285342 C1.50665864,10.4319897 0.782083085,10.4319897 0.335178465,10.0285342 C-0.111726155,9.6250786 -0.111726155,8.97094789 0.335178465,8.56749233 L4.10346951,5.16556291 L0.335178465,1.7636335 Z"/>
    <path id="practical-design-tokens--alt-ai" d="M4,0 L48,0 C50.209139,-4.05812251e-16 52,1.790861 52,4 L52,21 C52,23.209139 50.209139,25 48,25 L4,25 C1.790861,25 2.705415e-16,23.209139 0,21 L0,4 C-2.705415e-16,1.790861 1.790861,4.05812251e-16 4,0 Z"/>
    <filter id="practical-design-tokens--alt-aj" width="261.5%" height="436%" x="-80.8%" y="-120%" filterUnits="objectBoundingBox">
      <feOffset dy="12" in="SourceAlpha" result="shadowOffsetOuter1"/>
      <feGaussianBlur in="shadowOffsetOuter1" result="shadowBlurOuter1" stdDeviation="12"/>
      <feColorMatrix in="shadowBlurOuter1" values="0 0 0 0 0   0 0 0 0 0   0 0 0 0 0  0 0 0 0 0"/>
    </filter>
    <path id="practical-design-tokens--alt-al" d="M4,0 L48,0 C50.209139,-4.05812251e-16 52,1.790861 52,4 L52,21 C52,23.209139 50.209139,25 48,25 L4,25 C1.790861,25 2.705415e-16,23.209139 0,21 L0,4 C-2.705415e-16,1.790861 1.790861,4.05812251e-16 4,0 Z"/>
    <filter id="practical-design-tokens--alt-am" width="261.5%" height="436%" x="-80.8%" y="-120%" filterUnits="objectBoundingBox">
      <feOffset dy="12" in="SourceAlpha" result="shadowOffsetOuter1"/>
      <feGaussianBlur in="shadowOffsetOuter1" result="shadowBlurOuter1" stdDeviation="12"/>
      <feColorMatrix in="shadowBlurOuter1" values="0 0 0 0 0   0 0 0 0 0   0 0 0 0 0  0 0 0 0 0"/>
    </filter>
    <path id="practical-design-tokens--alt-ao" d="M5,1 L49,1 C51.209139,1 53,2.790861 53,5 L53,22 C53,24.209139 51.209139,26 49,26 L5,26 C2.790861,26 1,24.209139 1,22 L1,5 C1,2.790861 2.790861,1 5,1 Z M5,3 C3.8954305,3 3,3.8954305 3,5 L3,22 C3,23.1045695 3.8954305,24 5,24 L49,24 C50.1045695,24 51,23.1045695 51,22 L51,5 C51,3.8954305 50.1045695,3 49,3 L5,3 Z"/>
    <rect id="practical-design-tokens--alt-aq" width="52.194" height="104.388" x="0" y="0" rx="4"/>
    <path id="practical-design-tokens--alt-as" d="M1,0 L41,0 C41.5522847,-1.01453063e-16 42,0.44771525 42,1 L42,1 C42,1.55228475 41.5522847,2 41,2 L1,2 C0.44771525,2 6.76353751e-17,1.55228475 0,1 L0,1 C-6.76353751e-17,0.44771525 0.44771525,1.01453063e-16 1,0 Z"/>
    <filter id="practical-design-tokens--alt-at" width="300%" height="4300%" x="-100%" y="-1500%" filterUnits="objectBoundingBox">
      <feOffset dy="12" in="SourceAlpha" result="shadowOffsetOuter1"/>
      <feGaussianBlur in="shadowOffsetOuter1" result="shadowBlurOuter1" stdDeviation="12"/>
      <feColorMatrix in="shadowBlurOuter1" values="0 0 0 0 0   0 0 0 0 0   0 0 0 0 0  0 0 0 0 0"/>
    </filter>
    <path id="practical-design-tokens--alt-av" d="M1,0 L44,0 C44.5522847,-1.01453063e-16 45,0.44771525 45,1 L45,1 C45,1.55228475 44.5522847,2 44,2 L1,2 C0.44771525,2 6.76353751e-17,1.55228475 0,1 L0,1 C-6.76353751e-17,0.44771525 0.44771525,1.01453063e-16 1,0 Z"/>
    <filter id="practical-design-tokens--alt-aw" width="286.7%" height="4300%" x="-93.3%" y="-1500%" filterUnits="objectBoundingBox">
      <feOffset dy="12" in="SourceAlpha" result="shadowOffsetOuter1"/>
      <feGaussianBlur in="shadowOffsetOuter1" result="shadowBlurOuter1" stdDeviation="12"/>
      <feColorMatrix in="shadowBlurOuter1" values="0 0 0 0 0   0 0 0 0 0   0 0 0 0 0  0 0 0 0 0"/>
    </filter>
    <path id="practical-design-tokens--alt-ay" d="M1,0 L19,0 C19.5522847,-1.01453063e-16 20,0.44771525 20,1 L20,1 C20,1.55228475 19.5522847,2 19,2 L1,2 C0.44771525,2 6.76353751e-17,1.55228475 0,1 L0,1 C-6.76353751e-17,0.44771525 0.44771525,1.01453063e-16 1,0 Z"/>
    <filter id="practical-design-tokens--alt-az" width="520%" height="4300%" x="-210%" y="-1500%" filterUnits="objectBoundingBox">
      <feOffset dy="12" in="SourceAlpha" result="shadowOffsetOuter1"/>
      <feGaussianBlur in="shadowOffsetOuter1" result="shadowBlurOuter1" stdDeviation="12"/>
      <feColorMatrix in="shadowBlurOuter1" values="0 0 0 0 0   0 0 0 0 0   0 0 0 0 0  0 0 0 0 0"/>
    </filter>
    <path id="practical-design-tokens--alt-aB" d="M1,0 L33,0 C33.5522847,-1.01453063e-16 34,0.44771525 34,1 L34,1 C34,1.55228475 33.5522847,2 33,2 L1,2 C0.44771525,2 6.76353751e-17,1.55228475 0,1 L0,1 C-6.76353751e-17,0.44771525 0.44771525,1.01453063e-16 1,0 Z"/>
    <filter id="practical-design-tokens--alt-aC" width="347.1%" height="4300%" x="-123.5%" y="-1500%" filterUnits="objectBoundingBox">
      <feOffset dy="12" in="SourceAlpha" result="shadowOffsetOuter1"/>
      <feGaussianBlur in="shadowOffsetOuter1" result="shadowBlurOuter1" stdDeviation="12"/>
      <feColorMatrix in="shadowBlurOuter1" values="0 0 0 0 0   0 0 0 0 0   0 0 0 0 0  0 0 0 0 0"/>
    </filter>
    <path id="practical-design-tokens--alt-aE" d="M1,0 L38,0 C38.5522847,-1.01453063e-16 39,0.44771525 39,1 L39,1 C39,1.55228475 38.5522847,2 38,2 L1,2 C0.44771525,2 6.76353751e-17,1.55228475 0,1 L0,1 C-6.76353751e-17,0.44771525 0.44771525,1.01453063e-16 1,0 Z"/>
    <filter id="practical-design-tokens--alt-aF" width="315.4%" height="4300%" x="-107.7%" y="-1500%" filterUnits="objectBoundingBox">
      <feOffset dy="12" in="SourceAlpha" result="shadowOffsetOuter1"/>
      <feGaussianBlur in="shadowOffsetOuter1" result="shadowBlurOuter1" stdDeviation="12"/>
      <feColorMatrix in="shadowBlurOuter1" values="0 0 0 0 0   0 0 0 0 0   0 0 0 0 0  0 0 0 0 0"/>
    </filter>
    <path id="practical-design-tokens--alt-aH" d="M1,0 L42,0 C42.5522847,-1.01453063e-16 43,0.44771525 43,1 L43,1 C43,1.55228475 42.5522847,2 42,2 L1,2 C0.44771525,2 6.76353751e-17,1.55228475 0,1 L0,1 C-6.76353751e-17,0.44771525 0.44771525,1.01453063e-16 1,0 Z"/>
    <filter id="practical-design-tokens--alt-aI" width="295.3%" height="4300%" x="-97.7%" y="-1500%" filterUnits="objectBoundingBox">
      <feOffset dy="12" in="SourceAlpha" result="shadowOffsetOuter1"/>
      <feGaussianBlur in="shadowOffsetOuter1" result="shadowBlurOuter1" stdDeviation="12"/>
      <feColorMatrix in="shadowBlurOuter1" values="0 0 0 0 0   0 0 0 0 0   0 0 0 0 0  0 0 0 0 0"/>
    </filter>
    <path id="practical-design-tokens--alt-aK" d="M1,0 L41,0 C41.5522847,-1.01453063e-16 42,0.44771525 42,1 L42,1 C42,1.55228475 41.5522847,2 41,2 L1,2 C0.44771525,2 6.76353751e-17,1.55228475 0,1 L0,1 C-6.76353751e-17,0.44771525 0.44771525,1.01453063e-16 1,0 Z"/>
    <filter id="practical-design-tokens--alt-aL" width="300%" height="4300%" x="-100%" y="-1500%" filterUnits="objectBoundingBox">
      <feOffset dy="12" in="SourceAlpha" result="shadowOffsetOuter1"/>
      <feGaussianBlur in="shadowOffsetOuter1" result="shadowBlurOuter1" stdDeviation="12"/>
      <feColorMatrix in="shadowBlurOuter1" values="0 0 0 0 0   0 0 0 0 0   0 0 0 0 0  0 0 0 0 0"/>
    </filter>
    <path id="practical-design-tokens--alt-aN" d="M1,0 L39,0 C39.5522847,-1.01453063e-16 40,0.44771525 40,1 L40,1 C40,1.55228475 39.5522847,2 39,2 L1,2 C0.44771525,2 6.76353751e-17,1.55228475 0,1 L0,1 C-6.76353751e-17,0.44771525 0.44771525,1.01453063e-16 1,0 Z"/>
    <filter id="practical-design-tokens--alt-aO" width="310%" height="4300%" x="-105%" y="-1500%" filterUnits="objectBoundingBox">
      <feOffset dy="12" in="SourceAlpha" result="shadowOffsetOuter1"/>
      <feGaussianBlur in="shadowOffsetOuter1" result="shadowBlurOuter1" stdDeviation="12"/>
      <feColorMatrix in="shadowBlurOuter1" values="0 0 0 0 0   0 0 0 0 0   0 0 0 0 0  0 0 0 0 0"/>
    </filter>
    <path id="practical-design-tokens--alt-aQ" d="M75.590311,14.1261606 C91.5495352,18.0162449 103.395724,32.4063091 103.395724,49.5631991 L14.2614792,49.5631991 C14.2614792,32.4060722 26.1079956,18.0158475 42.0675539,14.1259994 C42.5846008,16.5591844 43.8407448,18.8593647 45.8192064,20.6631524 L57.4443372,31.2619271 C58.228659,31.977003 59.4285446,31.977003 60.2128665,31.2619271 L71.8379973,20.6631524 C72.0223794,20.4950489 72.2016155,20.3213864 72.3754578,20.1424049 C74.05391,18.4143331 75.1242399,16.3205898 75.5903072,14.1261596 Z"/>
    <path id="practical-design-tokens--alt-aS" d="M7.08489617,3.76680313 C7.08489617,5.84715105 9.46390822,7.53360626 12.3985683,7.53360626 L12.3985683,7.53360626 C15.3332284,7.53360626 17.7122404,5.84715105 17.7122404,3.76680313"/>
    <polygon id="practical-design-tokens--alt-aT" points="0 0 117.657 0 117.657 126.663 0 126.663"/>
    <path id="practical-design-tokens--alt-aV" d="M66.4276531,31.011919 L32.1499779,31.011919 L30.8984239,21.3740116 L29.1675513,31.011919 L16.559494,31.011919 C16.5254687,31.5455633 16.5081959,32.0837622 16.5081959,32.6259953 L16.5081959,50.0724552 C16.5081959,60.0394648 22.3442543,68.64339 30.7855546,72.6534144 L30.7855546,76.5488519 C22.6896186,77.2222881 14.8480044,78.3545494 10.2618515,79.5523138 C5.82138015,73.4575107 0.0515656312,67.7768101 2.82608694e-13,56.6304607 C-0.0379346285,48.0976497 13.5273325,12.9418586 18.2928658,7.19116961 C21.8278958,2.92535976 30.6496058,0.247485647 41.4936488,0.449448101 C52.3376917,0.651410555 61.5095057,2.16281612 65.140524,6.74172151 C70.6390428,13.6756434 83.025157,48.0976497 82.9872223,56.6304607 C82.9356567,67.7768101 77.1658422,73.4575107 72.7253708,79.5523138 C68.1392084,78.3545469 60.2975712,77.2222834 52.2015925,76.5488478 L52.2015925,72.6534144 C60.6428929,68.64339 66.4789512,60.0394648 66.4789512,50.0724552 L66.4789512,32.6259953 C66.4789512,32.0837622 66.4616784,31.5455633 66.4276531,31.011919 Z"/>
    <path id="practical-design-tokens--alt-aX" d="M46.391129,8.55855582 L46.391129,12.2456576 C46.391129,19.1436496 51.9830564,24.7355769 58.8810484,24.7355769 C65.7790404,24.7355769 71.3709677,19.1436496 71.3709677,12.2456576 L71.3709677,8.55855582 C78.5564681,8.56958932 83.8608871,9.6049362 83.8608871,15.493713 C83.8608871,15.6277644 83.8581384,15.7610467 83.8526813,15.8935532 C95.4432058,21.2372713 103.487903,32.9587996 103.487903,46.5592676 L103.487903,48.5877404 L14.2741935,48.5877404 L14.2741935,46.5592676 C14.2741935,32.9587996 22.318891,21.2372713 33.9094155,15.8935532 C33.9039584,15.7610467 33.9012097,15.6277644 33.9012097,15.493713 C33.9012097,9.6049362 39.2056286,8.56958932 46.391129,8.55855582 Z"/>
    <path id="practical-design-tokens--alt-aZ" d="M7.21153846,3.75 C7.21153846,5.82106781 9.63307527,7.5 12.6201923,7.5 L12.6201923,7.5 C15.6073093,7.5 18.0288462,5.82106781 18.0288462,3.75"/>
    <polygon id="practical-design-tokens--alt-ba" points="0 0 117.762 0 117.762 124.889 0 124.889"/>
    <path id="practical-design-tokens--alt-bc" d="M37.6058101,41.5097906 C32.4830719,41.6770411 30.1979209,44.1109113 28.4769778,41.6374426 C27.1853161,39.7808171 27.7257738,36.6585745 28.9326788,34.9019502 C30.6499567,32.4020661 32.9796208,33.611224 35.5844771,33.3260247 C36.2927683,33.2485201 37.0042665,33.0530171 37.6058101,32.7332746 C38.2073537,33.0530171 38.9186992,33.2485201 39.6269904,33.3260247 C42.2319994,33.611224 44.5615108,32.4020661 46.2789414,34.9019502 C47.4856937,36.6585745 48.0261514,39.7808171 46.7344896,41.6374426 C45.0135466,44.1109113 42.7285483,41.3425402 37.6058101,41.5097906 Z M62.4762566,11.5008803 C60.9522689,17.7267585 60.2520377,24.0783205 59.1470282,30.3761016 C58.9167734,31.6889126 58.6646841,32.9970471 58.3970204,34.3034278 C58.3408309,34.57774 58.2854049,35.5963633 58.013466,35.7254084 C57.1897095,36.1164896 55.5108952,34.0367151 55.0619899,33.5671546 C53.9345352,32.3879191 52.8166999,31.1980151 51.4435687,30.2726317 C48.6690591,28.402866 45.4207558,27.2972871 42.040682,27.0349587 C40.6264775,26.9250585 38.714202,27.1166532 37.3813807,27.9163528 C36.0485595,27.1166532 34.1362839,26.9250585 32.7219268,27.0349587 C29.341853,27.2972871 26.0935497,28.402866 23.31904,30.2726317 C21.9459089,31.1980151 20.8282263,32.3879191 19.7006189,33.5671546 C19.2517136,34.0367151 17.5728993,36.1164896 16.7491428,35.7254084 C16.4772039,35.5963633 16.4217778,34.57774 16.3655883,34.3034278 C16.0979247,32.9970471 15.8458354,31.6889126 15.6155805,30.3761016 C14.5107238,24.0783205 13.8104926,17.7267585 12.2865048,11.5008803 C11.8430963,11.5008803 11.454045,19.7938185 11.4045738,20.5664815 C11.2031772,23.7046305 10.9680363,26.7729226 11.268528,29.9138483 C11.7866014,35.3319889 12.326662,42.1259287 16.480105,46.2634099 C20.233045,50.0020643 25.681999,50.7836482 30.381817,53.1435008 C30.986923,53.4473341 31.7896085,53.8224856 32.6552017,54.1298263 C33.5670598,54.8212333 35.3755069,55.2926937 37.458794,55.2926937 C39.6440773,55.2926937 41.5268839,54.7740288 42.3895761,54.0266487 C43.1464549,53.7412295 43.8421054,53.4140132 44.3807918,53.1435008 C49.0802502,50.7831299 54.5295637,50.0020643 58.2825038,46.2634099 C62.4359468,42.1259287 62.9760073,35.3319889 63.4942334,29.9138483 C63.7945724,26.7729226 63.5594316,23.7046305 63.3581876,20.5664815 C63.3085637,19.7938185 62.9195125,11.5008803 62.4762566,11.5008803 Z"/>
    <path id="practical-design-tokens--alt-be" d="M36.6005088,10.8167802 L39.71625,7.09923664 L38.0913341,10.9767703 C41.3908761,11.3632993 43.8399174,11.8807265 44.625,12.4236641 C48.9554346,15.6396502 50.6327477,27.7073099 50.42625,28.3969466 C50.5722827,28.939449 51.1639654,29.0573744 51.31875,28.3969466 C51.6396834,23.8276639 51.31875,0.121735414 25.8825,0.44370229 C0.44625,0.765669166 0.125316615,23.8276639 0.44625,28.3969466 C0.601034618,29.0573744 1.19271731,28.939449 1.33875,28.3969466 C1.1322523,27.7073099 2.80956542,15.6396502 7.14,12.4236641 C8.75463155,11.3070373 17.4074166,10.3080516 26.0220042,10.3141118 C29.7458361,10.3167314 33.4625306,10.5089712 36.6005088,10.8167802 Z"/>
    <path id="practical-design-tokens--alt-bg" d="M81.1234731,14.7935744 C94.1901205,19.4553433 103.542198,31.9389149 103.542198,46.6067812 L103.542198,48.6132319 L14.2816825,48.6132319 L14.2816825,46.6067812 C14.2816825,31.7616871 23.8611226,19.153991 37.1756666,14.6280295 C37.0880726,15.099385 37.043114,15.5783032 37.043114,16.0634139 C37.043114,23.258778 46.9340293,29.091773 59.1350916,29.091773 C71.3361539,29.091773 81.2270692,23.258778 81.2270692,16.0634139 C81.2270692,15.6349896 81.1920038,15.2113952 81.1234731,14.7935744 Z"/>
    <path id="practical-design-tokens--alt-bi" d="M7.21532199,3.75196744 C7.21532199,5.82412183 9.63812926,7.50393487 12.6268135,7.50393487 L12.6268135,7.50393487 C15.6154977,7.50393487 18.038305,5.82412183 18.038305,3.75196744"/>
    <polygon id="practical-design-tokens--alt-bj" points="0 0 117.824 0 117.824 124.954 0 124.954"/>
    <path id="practical-design-tokens--alt-bl" d="M42.0819891,23.3172621 C42.1369104,23.2628621 42.0006148,23.2419621 41.6731023,23.2546621 C42.071156,23.2528621 42.2074516,23.2736621 42.0819891,23.3172621 M38.449955,16.2463942 C38.447855,16.2267942 38.466455,16.3974942 38.449955,16.2463942 M86.5130213,31.6687114 C86.3951004,30.1843337 86.1861477,28.7089442 85.835089,27.2586352 C85.556285,26.1059555 85.175333,25.0060459 84.7248303,23.9062813 C84.4527861,23.2418704 83.8173654,22.3292659 83.7427073,21.6125198 C83.6691006,20.9065017 84.218747,20.1243728 84.336067,19.3023763 C84.449932,18.5024157 84.4305539,17.6612829 84.2668167,16.8685709 C83.8948777,15.0682972 82.6621916,13.3941499 80.7587837,12.9248726 C80.333818,12.8200572 79.4355164,12.949228 79.1352313,12.7011794 C78.7909324,12.4167425 78.551185,11.4477435 78.2394834,11.0590711 C77.3507957,9.95104306 75.9647374,9.23748635 74.5029694,9.48625988 C73.4265097,9.66936068 74.0446553,9.892474 73.2376861,9.25749261 C72.7889859,8.90448355 72.4537001,8.36547423 72.0179187,7.98332562 C71.3628195,7.40923285 70.6112806,6.91777465 69.833754,6.51445999 C67.799206,5.4592021 65.4787939,4.69215038 63.206151,4.31826522 C59.0604441,3.63616763 54.635783,4.23084655 50.6173105,5.3114747 C48.6177632,5.84917926 46.6046964,6.53156679 44.7475555,7.43402322 C43.9512517,7.82095595 43.4915857,8.14192599 42.6613327,8.24326206 C41.353688,8.40287725 40.2462835,8.39490374 39.0075887,8.95072991 C35.1962663,10.6611204 33.4795789,14.6291742 34.9626778,18.4264499 C35.2610101,19.1901673 35.6649454,19.860812 36.2218022,20.4776718 C36.900786,21.2297913 37.1463919,21.0817739 36.5615946,21.9466824 C35.6870274,23.2399858 34.9497591,24.6191132 34.3494893,26.0511557 C32.7738563,29.8110284 32.5102244,34.0456874 32.612823,38.0554934 C32.648725,39.4592662 32.7088121,40.8802907 32.929632,42.270581 C33.0250203,42.8723636 33.051759,44.0038773 33.5021115,44.4503939 C33.7305926,44.6768416 34.0561143,44.803113 34.3808848,44.7129398 C35.1441407,44.5009894 34.8817105,43.9364649 34.8994362,43.4123878 C34.9886655,40.7793896 34.8681909,38.4501097 35.4929461,35.8488606 C35.9544148,33.9269546 36.7235292,32.1814806 37.7202233,30.4629716 C38.9876097,28.2772149 40.3557921,26.3576285 42.0987676,24.4860281 C42.5085614,24.0458903 42.5980911,23.8593101 43.1475873,23.8274161 C43.5636902,23.8033506 44.1723721,24.0889472 44.5769083,24.1878188 C45.4689007,24.4057131 46.3625456,24.6211428 47.2707615,24.7678554 C48.940581,25.03765 50.5940267,25.0557716 52.278868,25.0028565 C55.5946223,24.8989109 58.9246473,24.6657945 62.1394554,23.8288658 C64.2744989,23.2731846 66.1673916,22.2756259 68.2124548,21.5443825 C68.2489577,21.531335 68.7615004,21.1652783 68.8513305,21.1802106 C68.9767623,21.2009417 69.7340095,21.9972779 69.8618447,22.0975992 C70.8555345,22.8787133 71.9455138,23.206642 73.0186687,23.8114691 C74.3417859,24.5572098 73.0604292,23.4900641 73.7901866,24.4194855 C74.0028948,24.6901499 74.1118026,25.1920462 74.2824499,25.4986639 C74.8253365,26.4754914 75.5806309,27.3340211 76.4840399,28.0152488 C77.3569547,28.6734259 78.6688055,28.9913515 79.1139004,29.8479965 C79.4571477,30.508928 79.5728153,31.4071802 79.8498167,32.1127634 C80.5764195,33.9633428 81.5360099,35.6891004 82.4956003,37.4321098 C83.2686203,38.8367525 84.1141955,40.0638033 84.20012,41.6689434 C84.2300133,42.2276691 83.6995948,45.579153 84.9916168,44.5598484 C85.1831444,44.4087866 85.5960927,42.6999908 85.6809657,42.410045 C86.0252645,41.2318501 86.1476919,40.0018998 86.3036179,38.7913759 C86.6136671,36.3839556 86.7155147,34.0933835 86.5130213,31.6687114"/>
    <path id="practical-design-tokens--alt-bn" d="M0.292893219,1.70710678 C-0.0976310729,1.31658249 -0.0976310729,0.683417511 0.292893219,0.292893219 C0.683417511,-0.0976310729 1.31658249,-0.0976310729 1.70710678,0.292893219 L6.41421356,5 L1.70710678,9.70710678 C1.31658249,10.0976311 0.683417511,10.0976311 0.292893219,9.70710678 C-0.0976310729,9.31658249 -0.0976310729,8.68341751 0.292893219,8.29289322 L3.58578644,5 L0.292893219,1.70710678 Z"/>
    <path id="practical-design-tokens--alt-bp" d="M0.292893219,1.70710678 C-0.0976310729,1.31658249 -0.0976310729,0.683417511 0.292893219,0.292893219 C0.683417511,-0.0976310729 1.31658249,-0.0976310729 1.70710678,0.292893219 L6.41421356,5 L1.70710678,9.70710678 C1.31658249,10.0976311 0.683417511,10.0976311 0.292893219,9.70710678 C-0.0976310729,9.31658249 -0.0976310729,8.68341751 0.292893219,8.29289322 L3.58578644,5 L0.292893219,1.70710678 Z"/>
    <path id="practical-design-tokens--alt-br" d="M0.292893219,1.70710678 C-0.0976310729,1.31658249 -0.0976310729,0.683417511 0.292893219,0.292893219 C0.683417511,-0.0976310729 1.31658249,-0.0976310729 1.70710678,0.292893219 L6.41421356,5 L1.70710678,9.70710678 C1.31658249,10.0976311 0.683417511,10.0976311 0.292893219,9.70710678 C-0.0976310729,9.31658249 -0.0976310729,8.68341751 0.292893219,8.29289322 L3.58578644,5 L0.292893219,1.70710678 Z"/>
  </defs>
  <g fill="none" fill-rule="evenodd">
    <g transform="translate(-.636)">
      <rect width="492.079" height="288" x=".636" fill="#F0F0F0"/>
      <g opacity=".1" transform="translate(289.272 61.669)">
        <mask id="practical-design-tokens--alt-b" fill="#fff">
          <use href="#practical-design-tokens--alt-a"/>
        </mask>
        <rect width="92.821" height="143.682" x="-.636" y="-.636" stroke="#171717" stroke-width="1.272" rx="2.543"/>
        <g mask="url(#practical-design-tokens--alt-b)">
          <g transform="translate(-5.086 11.444)">
            <mask id="practical-design-tokens--alt-d" fill="#fff">
              <use href="#practical-design-tokens--alt-c"/>
            </mask>
            <g mask="url(#practical-design-tokens--alt-d)">
              <g transform="translate(-19.587 34.53)">
                <g transform="translate(46.703 2.178)">
                  <mask id="practical-design-tokens--alt-f" fill="#fff">
                    <use href="#practical-design-tokens--alt-e"/>
                  </mask>
                  <g fill="#919191" mask="url(#practical-design-tokens--alt-f)">
                    <polygon points="0 0 25.803 0 25.803 43.74 0 43.74" transform="translate(-.31 -2.178)"/>
                  </g>
                </g>
                <g transform="translate(15.464)">
                  <mask id="practical-design-tokens--alt-h" fill="#fff">
                    <use href="#practical-design-tokens--alt-g"/>
                  </mask>
                  <g fill="#919191" mask="url(#practical-design-tokens--alt-h)">
                    <polygon points="0 0 44.658 0 44.658 24.413 0 24.413" transform="translate(-1.701)"/>
                  </g>
                </g>
                <g transform="translate(.928 29.712)">
                  <mask id="practical-design-tokens--alt-j" fill="#fff">
                    <use href="#practical-design-tokens--alt-i"/>
                  </mask>
                  <g fill="#919191" mask="url(#practical-design-tokens--alt-j)">
                    <polygon points="0 0 36.719 0 36.719 43.74 0 43.74" transform="translate(-1.701 -2.489)"/>
                  </g>
                </g>
                <g transform="translate(0 2.022)">
                  <mask id="practical-design-tokens--alt-l" fill="#fff">
                    <use href="#practical-design-tokens--alt-k"/>
                  </mask>
                  <g fill="#919191" mask="url(#practical-design-tokens--alt-l)">
                    <polygon points="0 0 34.734 0 34.734 45.775 0 45.775" transform="translate(-.773 -2.022)"/>
                  </g>
                </g>
                <g transform="translate(30.001 44.645)">
                  <mask id="practical-design-tokens--alt-n" fill="#fff">
                    <use href="#practical-design-tokens--alt-m"/>
                  </mask>
                  <g fill="#2E2E2E" mask="url(#practical-design-tokens--alt-n)">
                    <polygon points="0 0 53.59 0 53.59 39.672 0 39.672" transform="translate(-6.959 -11.511)"/>
                  </g>
                </g>
              </g>
            </g>
          </g>
        </g>
        <path fill="#171717" d="M3.81456954,2.54304636 C4.5168124,2.54304636 5.08609272,3.11232668 5.08609272,3.81456954 C5.08609272,4.5168124 4.5168124,5.08609272 3.81456954,5.08609272 C3.11232668,5.08609272 2.54304636,4.5168124 2.54304636,3.81456954 C2.54304636,3.11232668 3.11232668,2.54304636 3.81456954,2.54304636 Z M8.90066225,2.54304636 C9.60290511,2.54304636 10.1721854,3.11232668 10.1721854,3.81456954 C10.1721854,4.5168124 9.60290511,5.08609272 8.90066225,5.08609272 C8.19841939,5.08609272 7.62913907,4.5168124 7.62913907,3.81456954 C7.62913907,3.11232668 8.19841939,2.54304636 8.90066225,2.54304636 Z M13.986755,2.54304636 C14.6889978,2.54304636 15.2582781,3.11232668 15.2582781,3.81456954 C15.2582781,4.5168124 14.6889978,5.08609272 13.986755,5.08609272 C13.2845121,5.08609272 12.7152318,4.5168124 12.7152318,3.81456954 C12.7152318,3.11232668 13.2845121,2.54304636 13.986755,2.54304636 Z" mask="url(#practical-design-tokens--alt-b)"/>
      </g>
      <path stroke="#FFF" stroke-dasharray="3.179 1.272" stroke-width="1.272" d="M282.278146 36.2384106L105.536424 241.589404M296.264901 29.8807947L323.602649 50.8609272M288.635762 30.1986755L231.417219 30.1986755M205.986755 6.99337748C174.538146 6.99337748 157.041821 6.99337748 153.497781 6.99337748 148.181722 6.99337748 144.317881 10.9414677 144.317881 16.3966468 144.317881 20.0334329 144.317881 29.8261621 144.317881 45.7748344"/>
      <path stroke="#FFF" stroke-dasharray="3.179 1.272" stroke-width="1.272" d="M61.6688742,41.3245033 C30.2202649,41.3245033 12.7239404,41.3245033 9.17990066,41.3245033 C3.86384106,41.3245033 2.07370898e-12,45.2725935 8.97027628e-13,50.7277726 C1.12637259e-13,54.3645587 -1.8637195e-13,64.1572879 0,80.1059603" transform="matrix(-1 0 0 1 61.669 0)"/>
      <path stroke="#FFF" stroke-dasharray="3.179 1.272" stroke-width="1.272" d="M507.97351,206.622517 C476.524901,206.622517 459.028576,206.622517 455.484536,206.622517 C450.168477,206.622517 446.304636,210.570607 446.304636,216.025786 C446.304636,219.662572 446.304636,229.455301 446.304636,245.403974" transform="matrix(1 0 0 -1 0 452.026)"/>
      <g transform="translate(272.106 15.258)">
        <circle cx="15.258" cy="15.258" r="15.258" fill="#FFF"/>
        <path fill="#F0F0F0" d="M10.1721854,13.986755 C10.8744283,13.986755 11.4437086,14.5560353 11.4437086,15.2582781 C11.4437086,15.960521 10.8744283,16.5298013 10.1721854,16.5298013 C9.46994257,16.5298013 8.90066225,15.960521 8.90066225,15.2582781 C8.90066225,14.5560353 9.46994257,13.986755 10.1721854,13.986755 Z M15.2582781,13.986755 C15.960521,13.986755 16.5298013,14.5560353 16.5298013,15.2582781 C16.5298013,15.960521 15.960521,16.5298013 15.2582781,16.5298013 C14.5560353,16.5298013 13.986755,15.960521 13.986755,15.2582781 C13.986755,14.5560353 14.5560353,13.986755 15.2582781,13.986755 Z M20.3443709,13.986755 C21.0466137,13.986755 21.615894,14.5560353 21.615894,15.2582781 C21.615894,15.960521 21.0466137,16.5298013 20.3443709,16.5298013 C19.642128,16.5298013 19.0728477,15.960521 19.0728477,15.2582781 C19.0728477,14.5560353 19.642128,13.986755 20.3443709,13.986755 Z"/>
      </g>
      <g transform="translate(324.238 8.265)">
        <mask id="practical-design-tokens--alt-p" fill="#fff">
          <use href="#practical-design-tokens--alt-o"/>
        </mask>
        <rect width="67.391" height="96" x="-.636" y="-.636" stroke="#FFF" stroke-width="1.272" rx="2.543"/>
        <g mask="url(#practical-design-tokens--alt-p)">
          <g transform="translate(-20.138 41.985)">
            <mask id="practical-design-tokens--alt-r" fill="#fff">
              <use href="#practical-design-tokens--alt-q"/>
            </mask>
            <use fill="#F0F0F0" href="#practical-design-tokens--alt-q"/>
            <g mask="url(#practical-design-tokens--alt-r)">
              <g transform="translate(-16.1 .611)">
                <g transform="translate(100.54 4.734)">
                  <mask id="practical-design-tokens--alt-t" fill="#fff">
                    <use href="#practical-design-tokens--alt-s"/>
                  </mask>
                  <g fill="#FFF" mask="url(#practical-design-tokens--alt-t)">
                    <polygon points="0 0 54.582 0 54.582 94.601 0 94.601" transform="translate(-.666 -4.734)"/>
                  </g>
                </g>
                <g transform="translate(33.292)">
                  <mask id="practical-design-tokens--alt-v" fill="#fff">
                    <use href="#practical-design-tokens--alt-u"/>
                  </mask>
                  <g fill="#FFF" mask="url(#practical-design-tokens--alt-v)">
                    <polygon points="0 0 97.256 0 97.256 52.895 0 52.895" transform="translate(-3.662)"/>
                  </g>
                </g>
                <g transform="translate(1.997 64.59)">
                  <mask id="practical-design-tokens--alt-x" fill="#fff">
                    <use href="#practical-design-tokens--alt-w"/>
                  </mask>
                  <g fill="#D63E04" mask="url(#practical-design-tokens--alt-x)">
                    <polygon points="0 0 78.4 0 78.4 94.601 0 94.601" transform="translate(-3.662 -5.41)"/>
                  </g>
                </g>
                <g transform="translate(0 4.396)">
                  <mask id="practical-design-tokens--alt-z" fill="#fff">
                    <use href="#practical-design-tokens--alt-y"/>
                  </mask>
                  <g fill="#FFF" mask="url(#practical-design-tokens--alt-z)">
                    <polygon points="0 0 74.431 0 74.431 98.67 0 98.67" transform="translate(-1.665 -4.396)"/>
                  </g>
                </g>
                <g transform="translate(64.586 97.055)">
                  <mask id="practical-design-tokens--alt-B" fill="#fff">
                    <use href="#practical-design-tokens--alt-A"/>
                  </mask>
                  <g fill="#FFF" mask="url(#practical-design-tokens--alt-B)">
                    <polygon points="0 0 116.112 0 116.112 86.464 0 86.464" transform="translate(-14.981 -25.025)"/>
                  </g>
                </g>
              </g>
            </g>
          </g>
        </g>
        <rect width="38.687" height="3.815" x="2.814" y="15.258" fill="#FFF" mask="url(#practical-design-tokens--alt-p)" rx="1.907"/>
        <rect width="22.901" height="5.722" x="3.449" y="29.245" stroke="#FFF" stroke-width="1.272" mask="url(#practical-design-tokens--alt-p)" rx="1.272"/>
        <rect width="48.534" height="3.815" x="2.814" y="21.616" fill="#FFF" mask="url(#practical-design-tokens--alt-p)" rx="1.907"/>
      </g>
      <path fill="#FFF" d="M106.172185,6.99337748 L132.238411,6.99337748 C132.589532,6.99337748 132.874172,7.27801764 132.874172,7.62913907 L132.874172,7.63502466 C132.874172,7.98614609 132.589532,8.27078625 132.238411,8.27078625 L106.172185,8.27078625 C105.821064,8.27078625 105.536424,7.98614609 105.536424,7.63502466 L105.536424,7.62913907 C105.536424,7.27801764 105.821064,6.99337748 106.172185,6.99337748 Z M106.172185,9.54819502 L132.238411,9.54819502 C132.589532,9.54819502 132.874172,9.83283517 132.874172,10.1839566 L132.874172,10.1898422 C132.874172,10.5409636 132.589532,10.8256038 132.238411,10.8256038 L106.172185,10.8256038 C105.821064,10.8256038 105.536424,10.5409636 105.536424,10.1898422 L105.536424,10.1839566 C105.536424,9.83283517 105.821064,9.54819502 106.172185,9.54819502 Z M106.172185,12.1030125 L132.238411,12.1030125 C132.589532,12.1030125 132.874172,12.3876527 132.874172,12.7387741 L132.874172,12.7446597 C132.874172,13.0957812 132.589532,13.3804213 132.238411,13.3804213 L106.172185,13.3804213 C105.821064,13.3804213 105.536424,13.0957812 105.536424,12.7446597 L105.536424,12.7387741 C105.536424,12.3876527 105.821064,12.1030125 106.172185,12.1030125 Z M106.172185,14.6078026 L132.238411,14.6078026 C132.589532,14.6078026 132.874172,14.8924427 132.874172,15.2435642 L132.874172,15.2494498 C132.874172,15.6005712 132.589532,15.8852114 132.238411,15.8852114 L106.172185,15.8852114 C105.821064,15.8852114 105.536424,15.6005712 105.536424,15.2494498 L105.536424,15.2435642 C105.536424,14.8924427 105.821064,14.6078026 106.172185,14.6078026 Z M106.172185,17.1626201 L132.238411,17.1626201 C132.589532,17.1626201 132.874172,17.4472603 132.874172,17.7983817 L132.874172,17.8042673 C132.874172,18.1553887 132.589532,18.4400289 132.238411,18.4400289 L106.172185,18.4400289 C105.821064,18.4400289 105.536424,18.1553887 105.536424,17.8042673 L105.536424,17.7983817 C105.536424,17.4472603 105.821064,17.1626201 106.172185,17.1626201 Z M106.172185,19.7174377 L132.238411,19.7174377 C132.589532,19.7174377 132.874172,20.0020778 132.874172,20.3531992 L132.874172,20.3590848 C132.874172,20.7102063 132.589532,20.9948464 132.238411,20.9948464 L106.172185,20.9948464 C105.821064,20.9948464 105.536424,20.7102063 105.536424,20.3590848 L105.536424,20.3531992 C105.536424,20.0020778 105.821064,19.7174377 106.172185,19.7174377 Z M106.172185,22.2222277 L132.238411,22.2222277 C132.589532,22.2222277 132.874172,22.5068679 132.874172,22.8579893 L132.874172,22.8638749 C132.874172,23.2149963 132.589532,23.4996365 132.238411,23.4996365 L106.172185,23.4996365 C105.821064,23.4996365 105.536424,23.2149963 105.536424,22.8638749 L105.536424,22.8579893 C105.536424,22.5068679 105.821064,22.2222277 106.172185,22.2222277 Z M106.172185,24.7770452 L132.238411,24.7770452 C132.589532,24.7770452 132.874172,25.0616854 132.874172,25.4128068 L132.874172,25.4186924 C132.874172,25.7698138 132.589532,26.054454 132.238411,26.054454 L106.172185,26.054454 C105.821064,26.054454 105.536424,25.7698138 105.536424,25.4186924 L105.536424,25.4128068 C105.536424,25.0616854 105.821064,24.7770452 106.172185,24.7770452 Z M106.172185,27.3318628 L125.245033,27.3318628 C125.596155,27.3318628 125.880795,27.6165029 125.880795,27.9676243 L125.880795,27.9735099 C125.880795,28.3246314 125.596155,28.6092715 125.245033,28.6092715 L106.172185,28.6092715 C105.821064,28.6092715 105.536424,28.3246314 105.536424,27.9735099 L105.536424,27.9676243 C105.536424,27.6165029 105.821064,27.3318628 106.172185,27.3318628 Z"/>
      <path fill="#FFF" d="M101.721854,6.99337748 L101.721854,6.99337748 C102.424097,6.99337748 102.993377,7.5626578 102.993377,8.26490066 L102.993377,8.26490066 C102.993377,8.96714352 102.424097,9.53642384 101.721854,9.53642384 L101.721854,9.53642384 C101.019611,9.53642384 100.450331,8.96714352 100.450331,8.26490066 L100.450331,8.26490066 C100.450331,7.5626578 101.019611,6.99337748 101.721854,6.99337748 Z" transform="rotate(90 101.722 8.265)"/>
      <path fill="#FFF" d="M101.721854,12.0794702 L101.721854,12.0794702 C102.424097,12.0794702 102.993377,12.6487505 102.993377,13.3509934 L102.993377,13.3509934 C102.993377,14.0532362 102.424097,14.6225166 101.721854,14.6225166 L101.721854,14.6225166 C101.019611,14.6225166 100.450331,14.0532362 100.450331,13.3509934 L100.450331,13.3509934 C100.450331,12.6487505 101.019611,12.0794702 101.721854,12.0794702 Z" transform="rotate(90 101.722 13.351)"/>
      <path fill="#FFF" d="M101.721854,17.1655629 L101.721854,17.1655629 C102.424097,17.1655629 102.993377,17.7348432 102.993377,18.4370861 L102.993377,18.4370861 C102.993377,19.139329 102.424097,19.7086093 101.721854,19.7086093 L101.721854,19.7086093 C101.019611,19.7086093 100.450331,19.139329 100.450331,18.4370861 L100.450331,18.4370861 C100.450331,17.7348432 101.019611,17.1655629 101.721854,17.1655629 Z" transform="rotate(90 101.722 18.437)"/>
      <g transform="translate(324.238 171.02)">
        <mask id="practical-design-tokens--alt-D" fill="#fff">
          <use href="#practical-design-tokens--alt-C"/>
        </mask>
        <rect width="67.391" height="109.351" x="-.636" y="-.636" stroke="#FFF" stroke-width="1.272" rx="2.543"/>
        <rect width="34.967" height="1.272" x="2.543" y="99.179" fill="#FFF" mask="url(#practical-design-tokens--alt-D)" rx=".636"/>
        <rect width="40.053" height="1.272" x="2.543" y="101.722" fill="#FFF" mask="url(#practical-design-tokens--alt-D)" rx=".636"/>
        <rect width="18.437" height="1.272" x="2.543" y="104.265" fill="#FFF" mask="url(#practical-design-tokens--alt-D)" rx=".636"/>
        <g mask="url(#practical-design-tokens--alt-D)">
          <g transform="translate(1.955 36.122)">
            <polyline stroke="#FFF" stroke-width=".636" points="1.86 26.819 10.761 9.653 19.661 16.828 28.562 1.388 37.463 11.749 46.363 19.19 55.264 10.289"/>
            <polyline stroke="#FFF" stroke-width=".636" points="1.86 34.007 10.761 29.362 19.661 29.362 28.562 19.19 37.463 25.547 46.363 28.09 55.264 17.918"/>
            <rect width="2.543" height="2.543" x=".588" y="25.547" fill="#FFF" rx="1.272"/>
            <rect width="2.543" height="2.543" x="9.489" y="8.382" fill="#FFF" rx="1.272"/>
            <rect width="2.543" height="2.543" x="18.39" y="15.375" fill="#FFF" rx="1.272"/>
            <rect width="2.543" height="2.543" x="27.29" y=".117" fill="#FFF" rx="1.272"/>
            <rect width="2.543" height="2.543" x="36.191" y="10.289" fill="#FFF" rx="1.272"/>
            <rect width="2.543" height="2.543" x="45.092" y="17.918" fill="#FFF" rx="1.272"/>
            <rect width="2.543" height="2.543" x="53.992" y="9.017" fill="#FFF" rx="1.272"/>
            <rect width="2.543" height="2.543" x=".588" y="32.735" fill="#FFF" rx="1.272"/>
            <rect width="2.543" height="2.543" x="9.489" y="28.09" fill="#FFF" rx="1.272"/>
            <rect width="2.543" height="2.543" x="18.39" y="28.09" fill="#FFF" rx="1.272"/>
            <rect width="2.543" height="2.543" x="27.29" y="17.918" fill="#FFF" rx="1.272"/>
            <rect width="2.543" height="2.543" x="36.191" y="24.276" fill="#FFF" rx="1.272"/>
            <rect width="2.543" height="2.543" x="45.092" y="26.819" fill="#FFF" rx="1.272"/>
            <rect width="2.543" height="2.543" x="53.992" y="16.647" fill="#FFF" rx="1.272"/>
          </g>
        </g>
        <rect width="35.603" height="3.179" x="1.907" y="17.166" fill="#FFF" mask="url(#practical-design-tokens--alt-D)" rx="1.589"/>
        <rect width="34.331" height="6.358" x="3.179" y="81.377" stroke="#FFF" stroke-width="1.272" mask="url(#practical-design-tokens--alt-D)" rx="1.272"/>
        <rect width="12.079" height="6.358" x="41.325" y="81.377" stroke="#FFF" stroke-width="1.272" mask="url(#practical-design-tokens--alt-D)" rx="1.272"/>
        <rect width="23.523" height="3.179" x="1.907" y="22.887" fill="#FFF" mask="url(#practical-design-tokens--alt-D)" rx="1.589"/>
        <g fill="#FFF" mask="url(#practical-design-tokens--alt-D)">
          <path d="M1.60779377,0.285443979 C2.31003663,0.285443979 2.87931695,0.854724297 2.87931695,1.55696716 C2.87931695,2.25921002 2.31003663,2.82849034 1.60779377,2.82849034 C0.905550911,2.82849034 0.336270593,2.25921002 0.336270593,1.55696716 C0.336270593,0.854724297 0.905550911,0.285443979 1.60779377,0.285443979 Z M6.69388649,0.285443979 C7.39612935,0.285443979 7.96540967,0.854724297 7.96540967,1.55696716 C7.96540967,2.25921002 7.39612935,2.82849034 6.69388649,2.82849034 C5.99164363,2.82849034 5.42236331,2.25921002 5.42236331,1.55696716 C5.42236331,0.854724297 5.99164363,0.285443979 6.69388649,0.285443979 Z M11.7799792,0.285443979 C12.4822221,0.285443979 13.0515024,0.854724297 13.0515024,1.55696716 C13.0515024,2.25921002 12.4822221,2.82849034 11.7799792,2.82849034 C11.0777363,2.82849034 10.508456,2.25921002 10.508456,1.55696716 C10.508456,0.854724297 11.0777363,0.285443979 11.7799792,0.285443979 Z" transform="translate(2.207 2.258)"/>
        </g>
      </g>
      <g opacity=".099" transform="translate(106.172 141.14)">
        <mask id="practical-design-tokens--alt-F" fill="#fff">
          <use href="#practical-design-tokens--alt-E"/>
        </mask>
        <rect width="92.821" height="92.821" x="-.636" y="-.636" stroke="#171717" stroke-width="1.272" rx="2.543"/>
        <rect width="35.603" height="3.179" x="2.543" y="16.53" fill="#ADADAD" mask="url(#practical-design-tokens--alt-F)" rx="1.589"/>
        <path fill="#171717" d="M3.81456954,2.54304636 C4.5168124,2.54304636 5.08609272,3.11232668 5.08609272,3.81456954 C5.08609272,4.5168124 4.5168124,5.08609272 3.81456954,5.08609272 C3.11232668,5.08609272 2.54304636,4.5168124 2.54304636,3.81456954 C2.54304636,3.11232668 3.11232668,2.54304636 3.81456954,2.54304636 Z M8.90066225,2.54304636 C9.60290511,2.54304636 10.1721854,3.11232668 10.1721854,3.81456954 C10.1721854,4.5168124 9.60290511,5.08609272 8.90066225,5.08609272 C8.19841939,5.08609272 7.62913907,4.5168124 7.62913907,3.81456954 C7.62913907,3.11232668 8.19841939,2.54304636 8.90066225,2.54304636 Z M13.986755,2.54304636 C14.6889978,2.54304636 15.2582781,3.11232668 15.2582781,3.81456954 C15.2582781,4.5168124 14.6889978,5.08609272 13.986755,5.08609272 C13.2845121,5.08609272 12.7152318,4.5168124 12.7152318,3.81456954 C12.7152318,3.11232668 13.2845121,2.54304636 13.986755,2.54304636 Z" mask="url(#practical-design-tokens--alt-F)"/>
        <rect width="29.245" height="5.722" x="3.179" y="80.742" stroke="#979797" stroke-width="1.272" mask="url(#practical-design-tokens--alt-F)" rx="1.272"/>
        <rect width="12.079" height="5.722" x="35.603" y="80.742" stroke="#979797" stroke-width="1.272" mask="url(#practical-design-tokens--alt-F)" rx="1.272"/>
        <rect width="24.159" height="3.179" x="2.543" y="22.252" fill="#ADADAD" mask="url(#practical-design-tokens--alt-F)" rx="1.589"/>
        <g mask="url(#practical-design-tokens--alt-F)">
          <g transform="translate(-5.086 32.424)">
            <mask id="practical-design-tokens--alt-H" fill="#fff">
              <use href="#practical-design-tokens--alt-G"/>
            </mask>
            <rect width="114.437" height="40.689" x="-4.45" fill="#F0F0F0" mask="url(#practical-design-tokens--alt-H)"/>
            <g mask="url(#practical-design-tokens--alt-H)">
              <g transform="translate(-97.374 -79.187)">
                <g transform="translate(142.703 6.691)">
                  <mask id="practical-design-tokens--alt-J" fill="#fff">
                    <use href="#practical-design-tokens--alt-I"/>
                  </mask>
                  <g fill="#ADADAD" mask="url(#practical-design-tokens--alt-J)">
                    <polygon points="0 0 77.408 0 77.408 133.256 0 133.256" transform="translate(-.945 -6.691)"/>
                  </g>
                </g>
                <g transform="translate(47.253)">
                  <mask id="practical-design-tokens--alt-L" fill="#fff">
                    <use href="#practical-design-tokens--alt-K"/>
                  </mask>
                  <g fill="#C9C9C9" mask="url(#practical-design-tokens--alt-L)">
                    <polygon points="0 0 137.945 0 137.945 75.274 0 75.274" transform="translate(-5.198)"/>
                  </g>
                </g>
                <g transform="translate(2.835 91.288)">
                  <mask id="practical-design-tokens--alt-N" fill="#fff">
                    <use href="#practical-design-tokens--alt-M"/>
                  </mask>
                  <g fill="#ADADAD" mask="url(#practical-design-tokens--alt-N)">
                    <polygon points="0 0 111.15 0 111.15 134.273 0 134.273" transform="translate(-5.198 -7.647)"/>
                  </g>
                </g>
                <g transform="translate(0 6.213)">
                  <mask id="practical-design-tokens--alt-P" fill="#fff">
                    <use href="#practical-design-tokens--alt-O"/>
                  </mask>
                  <g fill="#2E2E2E" mask="url(#practical-design-tokens--alt-P)">
                    <polygon points="0 0 106.188 0 106.188 139.359 0 139.359" transform="translate(-2.363 -6.213)"/>
                  </g>
                </g>
                <g transform="translate(91.67 137.171)">
                  <mask id="practical-design-tokens--alt-R" fill="#fff">
                    <use href="#practical-design-tokens--alt-Q"/>
                  </mask>
                  <g fill="#2E2E2E" mask="url(#practical-design-tokens--alt-R)">
                    <polygon points="0 0 164.74 0 164.74 122.066 0 122.066" transform="translate(-21.264 -35.368)"/>
                  </g>
                </g>
              </g>
            </g>
          </g>
        </g>
      </g>
      <g opacity=".1" transform="translate(256.212 80.106)">
        <mask id="practical-design-tokens--alt-T" fill="#fff">
          <use href="#practical-design-tokens--alt-S"/>
        </mask>
        <rect width="26.702" height="52.132" x="-.636" y="-.636" stroke="#171717" stroke-width="1.272" rx="2.543"/>
        <g mask="url(#practical-design-tokens--alt-T)">
          <g transform="translate(-5.086 11.444)">
            <mask id="practical-design-tokens--alt-V" fill="#fff">
              <use href="#practical-design-tokens--alt-U"/>
            </mask>
            <g mask="url(#practical-design-tokens--alt-V)" opacity=".5">
              <g transform="translate(-16.293 -38.267)">
                <g transform="translate(79.135 3.724)">
                  <mask id="practical-design-tokens--alt-X" fill="#fff">
                    <use href="#practical-design-tokens--alt-W"/>
                  </mask>
                  <g fill="#2E2E2E" mask="url(#practical-design-tokens--alt-X)">
                    <polygon points="0 0 42.674 0 42.674 74.257 0 74.257" transform="translate(-.524 -3.724)"/>
                  </g>
                </g>
                <g transform="translate(26.204)">
                  <mask id="practical-design-tokens--alt-Z" fill="#fff">
                    <use href="#practical-design-tokens--alt-Y"/>
                  </mask>
                  <g fill="#2E2E2E" mask="url(#practical-design-tokens--alt-Z)">
                    <polygon points="0 0 76.415 0 76.415 41.706 0 41.706" transform="translate(-2.882)"/>
                  </g>
                </g>
                <g transform="translate(1.572 50.811)">
                  <mask id="practical-design-tokens--alt-ab" fill="#fff">
                    <use href="#practical-design-tokens--alt-aa"/>
                  </mask>
                  <g fill="#919191" mask="url(#practical-design-tokens--alt-ab)">
                    <polygon points="0 0 61.529 0 61.529 74.257 0 74.257" transform="translate(-2.882 -4.256)"/>
                  </g>
                </g>
                <g transform="translate(0 3.458)">
                  <mask id="practical-design-tokens--alt-ad" fill="#fff">
                    <use href="#practical-design-tokens--alt-ac"/>
                  </mask>
                  <g fill="#919191" mask="url(#practical-design-tokens--alt-ad)">
                    <polygon points="0 0 58.552 0 58.552 77.309 0 77.309" transform="translate(-1.31 -3.458)"/>
                  </g>
                </g>
                <g transform="translate(50.835 76.35)">
                  <mask id="practical-design-tokens--alt-af" fill="#fff">
                    <use href="#practical-design-tokens--alt-ae"/>
                  </mask>
                  <g fill="#919191" mask="url(#practical-design-tokens--alt-af)">
                    <polygon points="0 0 91.302 0 91.302 68.154 0 68.154" transform="translate(-11.792 -19.686)"/>
                  </g>
                </g>
              </g>
            </g>
          </g>
        </g>
      </g>
      <path fill="#FFF" d="M328.05298,10.807947 C328.755223,10.807947 329.324503,11.3772273 329.324503,12.0794702 C329.324503,12.7817131 328.755223,13.3509934 328.05298,13.3509934 C327.350737,13.3509934 326.781457,12.7817131 326.781457,12.0794702 C326.781457,11.3772273 327.350737,10.807947 328.05298,10.807947 Z M333.139073,10.807947 C333.841316,10.807947 334.410596,11.3772273 334.410596,12.0794702 C334.410596,12.7817131 333.841316,13.3509934 333.139073,13.3509934 C332.43683,13.3509934 331.86755,12.7817131 331.86755,12.0794702 C331.86755,11.3772273 332.43683,10.807947 333.139073,10.807947 Z M338.225166,10.807947 C338.927408,10.807947 339.496689,11.3772273 339.496689,12.0794702 C339.496689,12.7817131 338.927408,13.3509934 338.225166,13.3509934 C337.522923,13.3509934 336.953642,12.7817131 336.953642,12.0794702 C336.953642,11.3772273 337.522923,10.807947 338.225166,10.807947 Z"/>
      <circle cx="106.172" cy="232.689" r="15.258" fill="#FFF"/>
      <g transform="translate(90.914 253.033)">
        <circle cx="15.258" cy="15.258" r="14.623" stroke="#FFF" stroke-width="1.272"/>
        <g transform="rotate(-90 13.931 4.315)">
          <mask id="practical-design-tokens--alt-ah" fill="#fff">
            <use href="#practical-design-tokens--alt-ag"/>
          </mask>
          <use fill="#979797" fill-rule="nonzero" href="#practical-design-tokens--alt-ag"/>
          <g fill="#FFF" mask="url(#practical-design-tokens--alt-ah)">
            <polygon points="0 0 16.871 0 16.871 19.327 0 19.327" transform="translate(-8.01 -4.132)"/>
          </g>
        </g>
      </g>
      <path stroke="#FFF" stroke-dasharray="3.179 1.272" stroke-width="1.272" d="M66.7549669,209.801325 L94.0927152,230.781457"/>
    </g>
    <g transform="translate(102 18)">
      <rect width="37.696" height="37.696" x="40.529" fill="#D63E04"/>
      <g transform="translate(119.787 1.933)">
        <mask id="practical-design-tokens--alt-ak" fill="#fff">
          <use href="#practical-design-tokens--alt-ai"/>
        </mask>
        <use fill="#000" filter="url(#practical-design-tokens--alt-aj)" href="#practical-design-tokens--alt-ai"/>
        <g fill="#D63E04" mask="url(#practical-design-tokens--alt-ak)">
          <polygon points="0 0 54 0 54 27 0 27"/>
        </g>
        <g transform="translate(0 32.561)">
          <mask id="practical-design-tokens--alt-an" fill="#fff">
            <use href="#practical-design-tokens--alt-al"/>
          </mask>
          <use fill="#000" filter="url(#practical-design-tokens--alt-am)" href="#practical-design-tokens--alt-al"/>
          <g fill="#FFF" mask="url(#practical-design-tokens--alt-an)">
            <polygon points="0 0 54 0 54 27 0 27"/>
          </g>
          <g mask="url(#practical-design-tokens--alt-an)">
            <g transform="translate(-1 -1)">
              <mask id="practical-design-tokens--alt-ap" fill="#fff">
                <use href="#practical-design-tokens--alt-ao"/>
              </mask>
              <g mask="url(#practical-design-tokens--alt-ap)">
                <polygon fill="#2672DE" points="0 0 56 0 56 31 0 31" transform="translate(-1 -2)"/>
              </g>
            </g>
          </g>
        </g>
        <g fill="#171717" transform="translate(.949 65.123)">
          <rect width="43.653" height="3.831" y="7.662" rx="1.915"/>
          <rect width="19.929" height="5.746" rx="2.873"/>
          <rect width="37.959" height="3.831" y="13.408" rx="1.915"/>
          <rect width="41.755" height="3.831" y="19.154" rx="1.915"/>
          <rect width="28.469" height="7.662" x=".949" y="31.604"/>
        </g>
        <rect width="52.194" height="24.9" fill="#D63E04" rx="4"/>
        <rect width="50.194" height="22.9" x="1" y="33.561" stroke="#2672DE" stroke-width="2" rx="4"/>
      </g>
      <rect width="30.93" height="30.93" x="43.429" y="45.428" fill="#2672DE"/>
      <g transform="translate(202.91 1.933)">
        <mask id="practical-design-tokens--alt-ar" fill="#fff">
          <use href="#practical-design-tokens--alt-aq"/>
        </mask>
        <rect width="54.194" height="106.388" x="-1" y="-1" stroke="#171717" stroke-width="2" rx="4"/>
        <rect width="28.469" height="7.592" x="3.796" y="5.694" fill="#171717" mask="url(#practical-design-tokens--alt-ar)"/>
        <g mask="url(#practical-design-tokens--alt-ar)">
          <g transform="translate(3.796 51.245)">
            <mask id="practical-design-tokens--alt-au" fill="#fff">
              <use href="#practical-design-tokens--alt-as"/>
            </mask>
            <use fill="#000" filter="url(#practical-design-tokens--alt-at)" href="#practical-design-tokens--alt-as"/>
            <g fill="#E6E6E6" mask="url(#practical-design-tokens--alt-au)">
              <polygon points="0 0 44 0 44 4 0 4" transform="translate(-1 -1)"/>
            </g>
            <g transform="translate(0 2.847)">
              <mask id="practical-design-tokens--alt-ax" fill="#fff">
                <use href="#practical-design-tokens--alt-av"/>
              </mask>
              <use fill="#000" filter="url(#practical-design-tokens--alt-aw)" href="#practical-design-tokens--alt-av"/>
              <g fill="#E6E6E6" mask="url(#practical-design-tokens--alt-ax)">
                <polygon points="0 0 47 0 47 4 0 4" transform="translate(-1 -1)"/>
              </g>
            </g>
            <g transform="translate(0 5.694)">
              <mask id="practical-design-tokens--alt-aA" fill="#fff">
                <use href="#practical-design-tokens--alt-ay"/>
              </mask>
              <use fill="#000" filter="url(#practical-design-tokens--alt-az)" href="#practical-design-tokens--alt-ay"/>
              <g fill="#E6E6E6" mask="url(#practical-design-tokens--alt-aA)">
                <polygon points="0 0 22 0 22 4 0 4" transform="translate(-1 -1)"/>
              </g>
            </g>
            <rect width="20.878" height="5.694" y="11.388" fill="#D63E04" rx="1"/>
            <rect width="19.878" height="4.694" x="23.276" y="11.888" stroke="#2672DE" rx="1"/>
          </g>
        </g>
        <g fill="#171717" mask="url(#practical-design-tokens--alt-ar)">
          <g transform="translate(3.796 81.612)">
            <rect width="43.653" height="1.898" y="6.643" rx=".949"/>
            <rect width="19.929" height="3.796" rx="1.898"/>
            <rect width="38.908" height="1.898" y="12.337" rx=".949"/>
            <rect width="37.959" height="1.898" y="9.49" rx=".949"/>
            <rect width="41.755" height="1.898" y="15.184" rx=".949"/>
          </g>
        </g>
        <g fill="#E6E6E6" mask="url(#practical-design-tokens--alt-ar)">
          <polygon points="0 0 71 0 71 27 0 27" transform="translate(-5.694 19.929)"/>
        </g>
        <g mask="url(#practical-design-tokens--alt-ar)">
          <g transform="translate(3.796 105.337)">
            <mask id="practical-design-tokens--alt-aD" fill="#fff">
              <use href="#practical-design-tokens--alt-aB"/>
            </mask>
            <use fill="#000" filter="url(#practical-design-tokens--alt-aC)" href="#practical-design-tokens--alt-aB"/>
            <g fill="#171717" mask="url(#practical-design-tokens--alt-aD)">
              <polygon points="0 0 36 0 36 4 0 4" transform="translate(-1 -1)"/>
            </g>
            <g transform="translate(0 5.694)">
              <mask id="practical-design-tokens--alt-aG" fill="#fff">
                <use href="#practical-design-tokens--alt-aE"/>
              </mask>
              <use fill="#000" filter="url(#practical-design-tokens--alt-aF)" href="#practical-design-tokens--alt-aE"/>
              <g fill="#171717" mask="url(#practical-design-tokens--alt-aG)">
                <polygon points="0 0 41 0 41 4 0 4" transform="translate(-1 -1)"/>
              </g>
            </g>
            <g transform="translate(0 2.847)">
              <mask id="practical-design-tokens--alt-aJ" fill="#fff">
                <use href="#practical-design-tokens--alt-aH"/>
              </mask>
              <use fill="#000" filter="url(#practical-design-tokens--alt-aI)" href="#practical-design-tokens--alt-aH"/>
              <g fill="#171717" mask="url(#practical-design-tokens--alt-aJ)">
                <polygon points="0 0 45 0 45 4 0 4" transform="translate(-1 -1)"/>
              </g>
            </g>
            <g transform="translate(0 8.54)">
              <mask id="practical-design-tokens--alt-aM" fill="#fff">
                <use href="#practical-design-tokens--alt-aK"/>
              </mask>
              <use fill="#000" filter="url(#practical-design-tokens--alt-aL)" href="#practical-design-tokens--alt-aK"/>
              <g fill="#171717" mask="url(#practical-design-tokens--alt-aM)">
                <polygon points="0 0 44 0 44 4 0 4" transform="translate(-1 -1)"/>
              </g>
            </g>
            <g transform="translate(0 11.388)">
              <mask id="practical-design-tokens--alt-aP" fill="#fff">
                <use href="#practical-design-tokens--alt-aN"/>
              </mask>
              <use fill="#000" filter="url(#practical-design-tokens--alt-aO)" href="#practical-design-tokens--alt-aN"/>
              <g fill="#171717" mask="url(#practical-design-tokens--alt-aP)">
                <polygon points="0 0 42 0 42 4 0 4" transform="translate(-1 -1)"/>
              </g>
            </g>
          </g>
        </g>
      </g>
      <g transform="translate(171.014 148.85)">
        <g transform="translate(14.261 16.678)">
          <rect width="119.491" height="126.579" fill="#F1E5CD" transform="translate(-14.261 -14.875)"/>
          <g transform="translate(0 .45)">
            <path fill="#000" fill-opacity=".08" d="M69.5247113,42.2054197 L69.5247113,45.3607288 C69.5247113,59.1444244 58.3508182,70.3183174 44.5671226,70.3183174 C30.783427,70.3183174 19.6095339,59.1444244 19.6095339,45.3607288 L19.6095339,42.2054197 C19.6095339,55.9891153 30.783427,67.1630083 44.5671226,67.1630083 C58.3508182,67.1630083 69.5247113,55.9891153 69.5247113,42.2054197 Z"/>
            <path stroke="#2D2E2F" stroke-width="2.055" d="M32.8437032,62.9125348 C25.7985855,59.0064046 21.0972354,51.8215583 20.443434,43.6964193 C17.5797305,43.0582143 15.4625254,40.5010719 15.4625254,37.4739976 L15.4625254,33.7458368 C15.4625254,30.7473376 17.5403133,28.2086854 20.3649089,27.5414454 L20.3649089,23.1749038 C20.3649089,9.80839021 31.2006091,-1.02730994 44.5671226,-1.02730994 C57.9336361,-1.02730994 68.7693363,9.80839021 68.7693363,23.1749038 L68.7693363,27.5414454 C71.5939319,28.2086854 73.6717198,30.7473376 73.6717198,33.7458368 L73.6717198,37.4739976 C73.6717198,40.5010719 71.5545147,43.0582143 68.6908112,43.6964193 C68.0370098,51.8215583 63.3356597,59.0064046 56.290542,62.9125348 L56.290542,71.316881 C75.4441039,73.3899583 90.1615551,89.620718 90.1615551,109.104509 L90.1615551,112.364646 L-1.02730994,112.364646 L-1.02730994,109.104509 C-1.02730994,89.620718 13.6901413,73.3899583 32.8437032,71.316881 L32.8437032,62.9125348 Z"/>
          </g>
          <path stroke="#2D2E2F" stroke-width="2.055" d="M34.6263881,64.2578887 C26.6424021,60.6588462 21.1539605,52.9762407 20.4434375,44.1471785 C17.5797322,43.5089748 15.4625254,40.9518315 15.4625254,37.924756 L15.4625254,34.1965952 C15.4625254,31.198096 17.5403133,28.6594439 20.3649089,27.9922038 L20.3649089,23.6256622 C20.3649089,10.2591487 31.2006091,-0.5765515 44.5671226,-0.5765515 C57.9336361,-0.5765515 68.7693363,10.2591487 68.7693363,23.6256622 L68.7693363,27.9922038 C71.5939319,28.6594439 73.6717198,31.198096 73.6717198,34.1965952 L73.6717198,37.924756 C73.6717198,40.9518315 71.554513,43.5089748 68.6908077,44.1471785 C67.9802847,52.9762407 62.4918431,60.6588462 54.5078571,64.2578887 L54.5078571,72.9242982 C74.3417703,73.6782979 90.1615551,89.9980167 90.1615551,109.985061 L90.1615551,111.012371 L-1.02730994,111.012371 L-1.02730994,109.985061 C-1.02730994,89.9980167 14.7924749,73.6782979 34.6263881,72.9242982 L34.6263881,64.2578887 Z"/>
        </g>
        <g transform="translate(0 77.53)">
          <mask id="practical-design-tokens--alt-aR" fill="#fff">
            <use href="#practical-design-tokens--alt-aQ"/>
          </mask>
          <path stroke="#2D2E2F" stroke-width="2.055" d="M75.8335962,13.1280734 C92.4953338,17.1893964 104.423034,32.1780153 104.423034,49.5631991 L104.423034,50.590509 L13.2341693,50.590509 L13.2341693,49.5631991 C13.2341693,32.1777592 25.1622178,17.1889799 41.8242875,13.1279076 L42.8524581,12.87731 L43.0724267,13.912466 C43.5593756,16.2040121 44.741837,18.2907194 46.5113387,19.9039959 L58.1364695,30.5027706 C58.5286304,30.8603086 59.1285732,30.8603086 59.5207341,30.5027706 L71.145865,19.9039959 C71.3148819,19.7499011 71.4791816,19.5907104 71.6385371,19.426644 C73.1416871,17.8790568 74.1471829,15.9760888 74.5854155,13.9127343 L74.8053012,12.877425 L75.8335962,13.1280734 Z"/>
          <rect width="117.657" height="49.563" fill="#FFF" mask="url(#practical-design-tokens--alt-aR)"/>
        </g>
        <g transform="translate(33.871 36.06)">
          <path fill="#2D2E2F" d="M17.9312281,6.69984746 C17.9312281,10.1533895 20.7410576,12.9530384 24.207158,12.9530384 L24.207158,12.9530384 C27.6732583,12.9530384 30.4830878,10.1533895 30.4830878,6.69984746" transform="translate(.891 23.44)"/>
          <use fill="#000" fill-opacity=".08" transform="translate(12.479 18.03)" href="#practical-design-tokens--alt-aS"/>
          <g fill="#2D2E2F" transform="translate(0 3.606)">
            <ellipse cx="13.284" cy="9.826" rx="2.657" ry="2.68"/>
            <ellipse cx="36.31" cy="9.826" rx="2.657" ry="2.68"/>
          </g>
          <g fill="#2D2E2F">
            <path d="M11.5172768,2.92336612 C8.96668873,3.27329919 4.99855689,5.61486228 5.34556299,8.35230114 C5.35696352,8.4418968 5.48460085,8.47050278 5.53922702,8.39604296 C6.63302936,6.90163085 15.1388399,4.74407811 18.2430062,5.22148812 C18.5271046,5.26527932 18.7128973,4.95502408 18.5182857,4.75966784 C16.8507997,3.08668136 13.8021253,2.60748724 11.5172768,2.92336612" transform="rotate(5 11.961 5.635)"/>
            <path d="M37.6315949,2.92336612 C35.0810068,3.27329919 31.112875,5.61486228 31.4598811,8.35230114 C31.4712816,8.4418968 31.598919,8.47050278 31.6535451,8.39604296 C32.7473475,6.90163085 41.253158,4.74407811 44.3573243,5.22148812 C44.6414227,5.26527932 44.8272154,4.95502408 44.6326038,4.75966784 C42.9651178,3.08668136 39.9164434,2.60748724 37.6315949,2.92336612" transform="scale(-1 1) rotate(5 0 -866.441)"/>
          </g>
        </g>
        <mask id="practical-design-tokens--alt-aU" fill="#fff">
          <use href="#practical-design-tokens--alt-aT"/>
        </mask>
        <g mask="url(#practical-design-tokens--alt-aU)">
          <g transform="translate(-.446)">
            <path fill="#000" fill-opacity=".08" d="M30.8003032,34.2537378 C36.5727395,19.3843464 42.6740856,11.9496507 49.1043413,11.9496507 C49.3447296,11.9496507 62.1561756,11.8426941 70.5447223,11.7875819 C79.7600844,15.9937716 86.1103193,24.8561206 86.1103193,35.1084685 L86.1103193,41.7986734 L49.1043413,41.7986734 L47.8527873,31.3806619 L46.1219147,41.7986734 L30.7855546,41.7986734 L30.7855546,35.1084685 C30.7855546,34.8224505 30.7904969,34.5375144 30.8003058,34.2537309 L30.8003032,34.2537378 Z"/>
            <g transform="translate(17.847 8.54)">
              <mask id="practical-design-tokens--alt-aW" fill="#fff">
                <use href="#practical-design-tokens--alt-aV"/>
              </mask>
              <use fill="#E6E6E6" href="#practical-design-tokens--alt-aV"/>
              <g fill="#2D2E2F" mask="url(#practical-design-tokens--alt-aW)">
                <rect width="119.755" height="127.592" transform="translate(-17.847 -8.54)"/>
              </g>
            </g>
          </g>
        </g>
      </g>
      <g transform="translate(.9 146.916)">
        <g transform="translate(14.274 16.444)">
          <rect width="119.268" height="124.321" fill="#6B5947" transform="translate(-14.274 -14.667)"/>
          <g transform="translate(0 .444)">
            <path fill="#000" fill-opacity=".08" d="M69.5866935,41.2423835 L69.5866935,44.3534946 C69.5866935,58.1494786 58.4028388,69.3333333 44.6068548,69.3333333 C30.8108709,69.3333333 19.6270161,58.1494786 19.6270161,44.3534946 L19.6270161,41.2423835 C19.6270161,55.0383675 30.8108709,66.2222222 44.6068548,66.2222222 C58.4028388,66.2222222 69.5866935,55.0383675 69.5866935,41.2423835 Z"/>
            <path stroke="#2D2E2F" stroke-width="1.875" d="M32.9637097,61.948032 C25.9950968,58.1042538 21.3091186,51.0420893 20.575077,43.0289395 C17.7028845,42.4347699 15.5670363,39.8895965 15.5670363,36.8693996 L15.5670363,33.3528226 C15.5670363,30.3696801 17.6514328,27.8478159 20.4737903,27.2151212 L20.4737903,23.1955645 C20.4737903,9.86724102 31.2785313,-0.9375 44.6068548,-0.9375 C57.9351783,-0.9375 68.7399194,9.86724102 68.7399194,23.1955645 L68.7399194,27.2151212 C71.5622769,27.8478159 73.6466734,30.3696801 73.6466734,33.3528226 L73.6466734,36.8693996 C73.6466734,39.8895965 71.5108251,42.4347699 68.6386327,43.0289395 C67.9045911,51.0420893 63.2186129,58.1042538 56.25,61.948032 L56.25,70.1823472 C75.0442307,70.6003597 90.1512097,85.9665234 90.1512097,104.861111 L90.1512097,110.715278 L-0.9375,110.715278 L-0.9375,104.861111 C-0.9375,85.9665234 14.169479,70.6003597 32.9637097,70.1823472 L32.9637097,61.948032 Z"/>
          </g>
          <path stroke="#2D2E2F" stroke-width="1.875" d="M34.7479839,63.2826728 C26.8445946,59.7428586 21.3734843,52.1885194 20.5750793,43.4733844 C17.7028857,42.8792157 15.5670363,40.3340418 15.5670363,37.3138441 L15.5670363,33.797267 C15.5670363,30.8141246 17.6514328,28.2922603 20.4737903,27.6595656 L20.4737903,23.640009 C20.4737903,10.3116855 31.2785313,-0.493055556 44.6068548,-0.493055556 C57.9351783,-0.493055556 68.7399194,10.3116855 68.7399194,23.640009 L68.7399194,27.6595656 C71.5622769,28.2922603 73.6466734,30.8141246 73.6466734,33.797267 L73.6466734,37.3138441 C73.6466734,40.3340418 71.510824,42.8792157 68.6386304,43.4733844 C67.8402254,52.1885194 62.369115,59.7428586 54.4657258,63.2826728 L54.4657258,71.9513889 L55.4637097,71.9513889 C74.6210869,71.9513889 90.1512097,87.4815116 90.1512097,106.638889 L90.1512097,109.381944 L-0.9375,109.381944 L-0.9375,106.638889 C-0.9375,87.4815116 14.5926227,71.9513889 33.75,71.9513889 L34.7479839,71.9513889 L34.7479839,63.2826728 Z"/>
        </g>
        <g transform="translate(0 76.444)">
          <mask id="practical-design-tokens--alt-aY" fill="#fff">
            <use href="#practical-design-tokens--alt-aX"/>
          </mask>
          <path stroke="#2D2E2F" stroke-width="1.875" d="M84.7968858,15.3024044 C96.6841972,21.0371665 104.425403,33.095585 104.425403,46.5592676 L104.425403,49.5252404 L13.3366935,49.5252404 L13.3366935,46.5592676 C13.3366935,33.095585 21.0778996,21.0371665 32.9652109,15.3024044 C33.0568058,9.51063203 37.3417938,7.63495018 46.3896895,7.62105693 L47.328629,7.61961516 L47.328629,12.2456576 C47.328629,18.6258826 52.5008234,23.7980769 58.8810484,23.7980769 C65.2612734,23.7980769 70.4334677,18.6258826 70.4334677,12.2456576 L70.4334677,7.61961516 L71.3724073,7.62105693 C80.420303,7.63495018 84.705291,9.51063203 84.7968858,15.3024044 Z"/>
          <rect width="117.762" height="48.588" fill="#FFF" mask="url(#practical-design-tokens--alt-aY)"/>
          <path fill="#2D2E2F" d="M45.4989919,27.2705553 L45.4989919,48.5877404 L42.3765121,48.5877404 L42.3765121,25.6853624 C43.3595375,26.2639077 44.4046829,26.7942782 45.4989919,27.2705553 Z M75.3855847,25.6853624 L75.3855847,43.4928466 C75.3855847,44.3550956 74.6865938,45.0540865 73.8243448,45.0540865 C72.9620958,45.0540865 72.2631048,44.3550956 72.2631048,43.4928466 L72.2631048,27.2705553 C73.3574139,26.7942782 74.4025592,26.2639077 75.3855847,25.6853624 Z" mask="url(#practical-design-tokens--alt-aY)"/>
          <path fill="#2D2E2F" fill-opacity=".304" d="M58.8765052,30.0360575 C43.95157,30.0346254 29.2174899,22.976705 29.2174899,14.2705251 C29.2174899,9.38312517 33.8607555,6.87789421 40.5744545,5.62043267 C36.5218979,7.10019707 33.9012097,9.58771041 33.9012097,13.7268861 C33.9012097,22.7331077 46.3083839,30.0342982 58.8765052,30.0360575 L58.8765052,30.0360575 Z M77.1876423,5.62043267 C83.9013413,6.87789421 88.5446069,9.38312517 88.5446069,14.2705251 C88.5446069,22.976705 73.8105268,30.0346254 58.8855915,30.0360575 C71.4537128,30.0342982 83.8608871,22.7331077 83.8608871,13.7268861 C83.8608871,9.58771041 81.2401989,7.10019707 77.1876423,5.62043267 L77.1876423,5.62043267 Z" mask="url(#practical-design-tokens--alt-aY)"/>
        </g>
        <g transform="translate(33.901 35.556)">
          <path fill="#2D2E2F" d="M17.6470588,6.69642857 C17.6470588,10.1482083 20.4123589,12.9464286 23.8235294,12.9464286 L23.8235294,12.9464286 C27.2346999,12.9464286 30,10.1482083 30,6.69642857" transform="translate(.892 23.111)"/>
          <use fill="#000" fill-opacity=".08" transform="translate(12.49 17.778)" href="#practical-design-tokens--alt-aZ"/>
          <g fill="#2D2E2F" transform="translate(0 3.556)">
            <ellipse cx="13.267" cy="9.821" rx="2.653" ry="2.679"/>
            <ellipse cx="36.262" cy="9.821" rx="2.653" ry="2.679"/>
          </g>
          <g fill="#2D2E2F">
            <path d="M11.5026387,2.91035875 C8.95540906,3.25943244 4.9920136,5.59168445 5.33780579,8.31688279 C5.34916652,8.40607782 5.47662325,8.43452217 5.5311957,8.36037789 C6.62392323,6.87229927 15.1188033,4.72200774 18.2186368,5.1964557 C18.5023387,5.23997537 18.6879642,4.93104625 18.4936691,4.73660971 C16.8288957,3.07149964 13.7844794,2.5952604 11.5026387,2.91035875" transform="rotate(5 11.945 5.611)"/>
            <path d="M37.5828087,2.91035875 C35.035579,3.25943244 31.0721836,5.59168445 31.4179757,8.31688279 C31.4293365,8.40607782 31.5567932,8.43452217 31.6113657,8.36037789 C32.7040932,6.87229927 41.1989733,4.72200774 44.2988068,5.1964557 C44.5825086,5.23997537 44.7681341,4.93104625 44.5738391,4.73660971 C42.9090656,3.07149964 39.8646494,2.5952604 37.5828087,2.91035875" transform="scale(-1 1) rotate(5 0 -865.313)"/>
          </g>
        </g>
        <mask id="practical-design-tokens--alt-bb" fill="#fff">
          <use href="#practical-design-tokens--alt-ba"/>
        </mask>
        <g mask="url(#practical-design-tokens--alt-bb)">
          <g transform="translate(-.446)">
            <g transform="translate(21.866 31.947)">
              <mask id="practical-design-tokens--alt-bd" fill="#fff">
                <use href="#practical-design-tokens--alt-bc"/>
              </mask>
              <use fill="#252E32" href="#practical-design-tokens--alt-bc"/>
              <g fill="#2D2E2F" mask="url(#practical-design-tokens--alt-bd)">
                <rect width="75" height="67.72"/>
              </g>
            </g>
            <g transform="translate(33.469 15.086)">
              <mask id="practical-design-tokens--alt-bf" fill="#fff">
                <use href="#practical-design-tokens--alt-be"/>
              </mask>
              <use fill="#28354B" href="#practical-design-tokens--alt-be"/>
              <g fill="#2D2E2F" mask="url(#practical-design-tokens--alt-bf)">
                <rect width="118" height="125.332" transform="translate(-33.023 -15.086)"/>
              </g>
            </g>
          </g>
        </g>
      </g>
      <g transform="translate(85.957 150.783)">
        <g transform="translate(14.282 16.453)">
          <rect width="119.33" height="124.387" fill="#C7A97B" transform="translate(-14.282 -14.674)"/>
          <g transform="translate(0 .445)">
            <path fill="#000" fill-opacity=".08" d="M69.6232022,41.2640213 L69.6232022,44.3767647 C69.6232022,58.1799867 58.4334798,69.369709 44.6302578,69.369709 C30.8270358,69.369709 19.6373134,58.1799867 19.6373134,44.3767647 L19.6373134,41.2640213 C19.6373134,55.0672433 30.8270358,66.2569657 44.6302578,66.2569657 C58.4334798,66.2569657 69.6232022,55.0672433 69.6232022,41.2640213 Z"/>
            <path stroke="#2D2E2F" stroke-width="1.876" d="M32.9810041,61.980533 C26.0087351,58.1347382 21.3202984,51.0688685 20.5858717,43.0515146 C17.7121723,42.4570332 15.5752035,39.9105246 15.5752035,36.8887432 L15.5752035,33.3703211 C15.5752035,30.3856136 17.6606936,27.8624262 20.4845319,27.2293996 L20.4845319,23.2077341 C20.4845319,9.87241786 31.2949416,-0.937991859 44.6302578,-0.937991859 C57.965574,-0.937991859 68.7759837,9.87241786 68.7759837,23.2077341 L68.7759837,27.2293996 C71.599822,27.8624262 73.6853121,30.3856136 73.6853121,33.3703211 L73.6853121,36.8887432 C73.6853121,39.9105246 71.5483433,42.4570332 68.6746439,43.0515146 C67.9402172,51.0688685 63.2517805,58.1347382 56.2795115,61.980533 L56.2795115,70.2191683 C75.0836026,70.6374001 90.1985075,86.0116257 90.1985075,104.916126 L90.1985075,110.773364 L-0.937991859,110.773364 L-0.937991859,104.916126 C-0.937991859,86.0116257 14.176913,70.6374001 32.9810041,70.2191683 L32.9810041,61.980533 Z"/>
          </g>
          <path stroke="#2D2E2F" stroke-width="1.876" d="M34.7662144,63.315874 C26.8586786,59.7742026 21.3846979,52.2159001 20.585874,43.4961927 C17.7121735,42.9017122 15.5752035,40.355203 15.5752035,37.3334208 L15.5752035,33.8149987 C15.5752035,30.8302912 17.6606936,28.3071039 20.4845319,27.6740772 L20.4845319,23.6524117 C20.4845319,10.3170955 31.2949416,-0.493314237 44.6302578,-0.493314237 C57.965574,-0.493314237 68.7759837,10.3170955 68.7759837,23.6524117 L68.7759837,27.6740772 C71.599822,28.3071039 73.6853121,30.8302912 73.6853121,33.8149987 L73.6853121,37.3334208 C73.6853121,40.355203 71.5483421,42.9017122 68.6746416,43.4961927 C67.8758177,52.2159001 62.401837,59.7742026 54.4943012,63.315874 L54.4943012,71.9891381 L55.4928087,71.9891381 C74.6602369,71.9891381 90.1985075,87.5274088 90.1985075,106.694837 L90.1985075,109.439332 L-0.937991859,109.439332 L-0.937991859,106.694837 C-0.937991859,87.5274088 14.6002788,71.9891381 33.7677069,71.9891381 L34.7662144,71.9891381 L34.7662144,63.315874 Z"/>
        </g>
        <g transform="translate(0 76.485)">
          <mask id="practical-design-tokens--alt-bh" fill="#fff">
            <use href="#practical-design-tokens--alt-bg"/>
          </mask>
          <path stroke="#2D2E2F" stroke-width="1.876" d="M81.4386606,13.9101235 C95.1437201,18.7996578 104.48019,31.8171298 104.48019,46.6067812 L104.48019,49.5512238 L13.3436906,49.5512238 L13.3436906,46.6067812 C13.3436906,31.6294703 22.917937,18.4839013 36.8737832,13.7399444 L38.3905694,13.2243491 L38.0978698,14.7994065 C38.0201974,15.2173719 37.9811058,15.6389405 37.9811058,16.0634139 C37.9811058,22.6085305 47.3840976,28.1537812 59.1350916,28.1537812 C70.8860855,28.1537812 80.2890773,22.6085305 80.2890773,16.0634139 C80.2890773,15.6883033 80.2585493,15.3154727 80.1978493,14.9453945 L79.9403697,13.3755804 L81.4386606,13.9101235 Z"/>
          <rect width="117.824" height="48.613" fill="#FFF" mask="url(#practical-design-tokens--alt-bh)"/>
        </g>
        <path fill="#2D2E2F" fill-opacity=".304" d="M13.7542075,44.2196162 C13.380622,44.2196162 13.0777711,43.9226493 13.0777711,43.556322 C13.0777711,43.1899947 13.380622,42.8930277 13.7542075,42.8930277 C14.1277931,42.8930277 14.430644,43.1899947 14.430644,43.556322 C14.430644,43.9226493 14.1277931,44.2196162 13.7542075,44.2196162 Z M16.4599533,41.5664392 C16.0863678,41.5664392 15.7835169,41.2694723 15.7835169,40.903145 C15.7835169,40.5368177 16.0863678,40.2398507 16.4599533,40.2398507 C16.8335388,40.2398507 17.1363897,40.5368177 17.1363897,40.903145 C17.1363897,41.2694723 16.8335388,41.5664392 16.4599533,41.5664392 Z M9.69558893,42.8930277 C9.3220034,42.8930277 9.01915249,42.5960608 9.01915249,42.2297335 C9.01915249,41.8634062 9.3220034,41.5664392 9.69558893,41.5664392 C10.0691745,41.5664392 10.3720254,41.8634062 10.3720254,42.2297335 C10.3720254,42.5960608 10.0691745,42.8930277 9.69558893,42.8930277 Z M12.4013347,40.6820469 C12.0277491,40.6820469 11.7248982,40.38508 11.7248982,40.0187527 C11.7248982,39.6524254 12.0277491,39.3554584 12.4013347,39.3554584 C12.7749202,39.3554584 13.0777711,39.6524254 13.0777711,40.0187527 C13.0777711,40.38508 12.7749202,40.6820469 12.4013347,40.6820469 Z M34.9492159,40.6820469 C34.5756304,40.6820469 34.2727795,40.38508 34.2727795,40.0187527 C34.2727795,39.6524254 34.5756304,39.3554584 34.9492159,39.3554584 C35.3228014,39.3554584 35.6256523,39.6524254 35.6256523,40.0187527 C35.6256523,40.38508 35.3228014,40.6820469 34.9492159,40.6820469 Z M33.596343,43.77742 C33.2227575,43.77742 32.9199066,43.4804531 32.9199066,43.1141258 C32.9199066,42.7477985 33.2227575,42.4508316 33.596343,42.4508316 C33.9699286,42.4508316 34.2727795,42.7477985 34.2727795,43.1141258 C34.2727795,43.4804531 33.9699286,43.77742 33.596343,43.77742 Z M37.204004,42.8930277 C36.8304185,42.8930277 36.5275676,42.5960608 36.5275676,42.2297335 C36.5275676,41.8634062 36.8304185,41.5664392 37.204004,41.5664392 C37.5775895,41.5664392 37.8804405,41.8634062 37.8804405,42.2297335 C37.8804405,42.5960608 37.5775895,42.8930277 37.204004,42.8930277 Z M39.9097498,40.2398507 C39.5361642,40.2398507 39.2333133,39.9428838 39.2333133,39.5765565 C39.2333133,39.2102292 39.5361642,38.9132623 39.9097498,38.9132623 C40.2833353,38.9132623 40.5861862,39.2102292 40.5861862,39.5765565 C40.5861862,39.9428838 40.2833353,40.2398507 39.9097498,40.2398507 Z" transform="translate(34.365 16.008)"/>
        <g transform="translate(33.919 35.574)">
          <path fill="#2D2E2F" d="M17.6563173,6.69994185 C17.6563173,10.1535325 20.4230682,12.9532209 23.8360284,12.9532209 L23.8360284,12.9532209 C27.2489886,12.9532209 30.0157395,10.1535325 30.0157395,6.69994185" transform="translate(.893 23.123)"/>
          <use fill="#000" fill-opacity=".24" transform="translate(12.496 17.787)" href="#practical-design-tokens--alt-bi"/>
          <g fill="#2D2E2F" transform="translate(0 3.557)">
            <ellipse cx="13.273" cy="9.827" rx="2.655" ry="2.68"/>
            <ellipse cx="36.281" cy="9.827" rx="2.655" ry="2.68"/>
          </g>
          <g fill="#2D2E2F" transform="translate(5.31 2.814)">
            <path d="M1.60619839,5.23332707 C3.33834621,2.6497645 8.08704712,1.20102223 12.1775354,2.26580397 C12.6521496,2.38934924 13.1313845,2.08166663 13.2479367,1.57857563 C13.3644888,1.07548463 13.0742222,0.567495561 12.599608,0.44395029 C7.84920582,-0.792611511 2.35033311,0.884994531 0.163597567,4.14659152 C-0.119509731,4.56885653 -0.026076347,5.154444 0.372286871,5.45453773 C0.77065009,5.75463147 1.3230911,5.65559208 1.60619839,5.23332707 Z"/>
            <path d="M27.2682398,5.23332707 C29.0003876,2.6497645 33.7490885,1.20102223 37.8395768,2.26580397 C38.314191,2.38934924 38.7934259,2.08166663 38.9099781,1.57857563 C39.0265302,1.07548463 38.7362636,0.567495561 38.2616495,0.44395029 C33.5112472,-0.792611511 28.0123745,0.884994531 25.825639,4.14659152 C25.5425317,4.56885653 25.6359651,5.154444 26.0343283,5.45453773 C26.4326915,5.75463147 26.9851325,5.65559208 27.2682398,5.23332707 Z" transform="matrix(-1 0 0 1 64.598 0)"/>
          </g>
        </g>
        <mask id="practical-design-tokens--alt-bk" fill="#fff">
          <use href="#practical-design-tokens--alt-bj"/>
        </mask>
        <g mask="url(#practical-design-tokens--alt-bk)">
          <g transform="translate(-.446)">
            <mask id="practical-design-tokens--alt-bm" fill="#fff">
              <use href="#practical-design-tokens--alt-bl"/>
            </mask>
            <use fill="#28354B" href="#practical-design-tokens--alt-bl"/>
            <g mask="url(#practical-design-tokens--alt-bm)">
              <rect width="118.062" height="126.409" fill="#2D2E2F" transform="translate(.446)"/>
            </g>
          </g>
        </g>
      </g>
      <rect width="23.197" height="23.197" x="47.295" y="84.09" fill="#171717"/>
      <g transform="rotate(-90 136.734 -.45)">
        <g transform="translate(4.866 1)">
          <mask id="practical-design-tokens--alt-bo" fill="#fff">
            <use href="#practical-design-tokens--alt-bn"/>
          </mask>
          <use fill="#979797" fill-rule="nonzero" href="#practical-design-tokens--alt-bn"/>
          <g fill="#C3512C" mask="url(#practical-design-tokens--alt-bo)">
            <rect width="15" height="18" transform="translate(-7 -4)"/>
          </g>
        </g>
        <rect width="9.666" height="1.933" y="4.833" fill="#C3512C"/>
      </g>
      <g transform="rotate(-90 95.173 41.112)">
        <g transform="translate(4.866 1)">
          <mask id="practical-design-tokens--alt-bq" fill="#fff">
            <use href="#practical-design-tokens--alt-bp"/>
          </mask>
          <use fill="#979797" fill-rule="nonzero" href="#practical-design-tokens--alt-bp"/>
          <g fill="#C3512C" mask="url(#practical-design-tokens--alt-bq)">
            <rect width="15" height="18" transform="translate(-7 -4)"/>
          </g>
        </g>
        <rect width="9.666" height="1.933" y="4.833" fill="#C3512C"/>
      </g>
      <g transform="rotate(-90 180.23 -43.945)">
        <g transform="translate(4.866 1)">
          <mask id="practical-design-tokens--alt-bs" fill="#fff">
            <use href="#practical-design-tokens--alt-br"/>
          </mask>
          <use fill="#979797" fill-rule="nonzero" href="#practical-design-tokens--alt-br"/>
          <g fill="#C3512C" mask="url(#practical-design-tokens--alt-bs)">
            <rect width="15" height="18" transform="translate(-7 -4)"/>
          </g>
        </g>
        <rect width="9.666" height="1.933" y="4.833" fill="#C3512C"/>
      </g>
    </g>
  </g>
</svg>
