<svg xmlns="http://www.w3.org/2000/svg" width="338" height="48" viewBox="0 0 338 48"><g fill="none" fill-rule="evenodd"><g transform="translate(6 4)"><rect width="39" height="39" x=".5" y=".5" stroke="#1B1B1B" stroke-opacity=".2" rx="4"/><text fill="#2C608A" font-family="PublicSans-Regular, Public Sans" font-size="16"><tspan x="14.24" y="24">1</tspan></text></g><g transform="translate(54 4)"><rect width="40" height="40" rx="4"/><text fill="#1B1B1B" font-family="PublicSans-Regular, Public Sans" font-size="16" opacity=".5"><tspan x="13" y="27">...</tspan></text></g><g transform="translate(102 4)"><rect width="40" height="40" fill="#1B1B1B" rx="4"/><text fill="#FFF" font-family="PublicSans-Regular, Public Sans" font-size="16"><tspan x="14" y="27">4</tspan></text></g><line x2="338" y1="36" y2="15" stroke="#E52207" stroke-linecap="square" stroke-width="4"/><g transform="translate(246 4)"><rect width="39" height="39" x=".5" y=".5" stroke="#1B1B1B" stroke-opacity=".2" rx="4"/><text fill="#2C608A" font-family="PublicSans-Regular, Public Sans" font-size="16"><tspan x="12.692" y="24">7</tspan></text></g><g transform="translate(150 4)"><rect width="39" height="39" x=".5" y=".5" stroke="#1B1B1B" stroke-opacity=".2" rx="4"/><text fill="#2C608A" font-family="PublicSans-Regular, Public Sans" font-size="16"><tspan x="12.372" y="24">5</tspan></text></g><g transform="translate(198 4)"><rect width="39" height="39" x=".5" y=".5" stroke="#1B1B1B" stroke-opacity=".2" rx="4"/><text fill="#2C608A" font-family="PublicSans-Regular, Public Sans" font-size="16"><tspan x="12.516" y="24">6</tspan></text></g><g transform="translate(294 4)"><rect width="39" height="39" x=".5" y=".5" stroke="#1B1B1B" stroke-opacity=".2" rx="4"/><text fill="#2C608A" font-family="PublicSans-Regular, Public Sans" font-size="16"><tspan x="12.316" y="24">8</tspan></text></g></g></svg>