<?xml version="1.0" encoding="UTF-8"?><svg xmlns="http://www.w3.org/2000/svg" xmlns:xlink="http://www.w3.org/1999/xlink" width="320" height="180" viewBox="0 0 320 180"><title>summary-box</title><defs><path id="summary-box-a" d="M0 82.5v-78a4 4 0 0 1 4-4h199a4 4 0 0 1 4 4v78a4 4 0 0 1-4 4H4a4 4 0 0 1-4-4z"/></defs><g fill="none" fill-rule="evenodd"><rect width="320" height="180" fill="#F6F6F6"/><g transform="translate(56 46.5)"><mask id="summary-box-b" fill="#fff"><use href="#summary-box-a"/></mask><path stroke="#162E51" d="M203 0c1.243 0 2.368.504 3.182 1.318A4.486 4.486 0 0 1 207.5 4.5h0v78a4.486 4.486 0 0 1-1.318 3.182A4.486 4.486 0 0 1 203 87h0H4a4.486 4.486 0 0 1-3.182-1.318A4.486 4.486 0 0 1-.5 82.5h0v-78c0-1.243.504-2.368 1.318-3.182A4.486 4.486 0 0 1 4 0h0z"/><rect width="244" height="123" x="-18" y="-18" fill="#FFF" mask="url(#summary-box-b)"/><rect width="66" height="8" x="8" y="8.5" fill="#162E51" mask="url(#summary-box-b)" rx="1"/><rect width="183" height="4" x="8" y="24.5" fill="#162E51" mask="url(#summary-box-b)" rx="2"/><rect width="123" height="4" x="19" y="42.5" fill="#162E51" mask="url(#summary-box-b)" rx="2"/><rect width="53" height="4" x="19" y="54.5" fill="#162E51" mask="url(#summary-box-b)" rx="2"/><rect width="153" height="4" x="19" y="66.5" fill="#162E51" mask="url(#summary-box-b)" rx="2"/><rect width="33" height="4" x="19" y="72.5" fill="#162E51" mask="url(#summary-box-b)" rx="2"/><g fill="#162E51" fill-rule="nonzero" mask="url(#summary-box-b)"><path d="M13.836 42.732L11.2 45.368l-1.436-1.432-.564.564 2 2 3.2-3.2-.564-.568zM12 40.5c-2.208 0-4 1.792-4 4s1.792 4 4 4 4-1.792 4-4-1.792-4-4-4zm0 7.2a3.2 3.2 0 1 1 0-6.4 3.2 3.2 0 1 1 0 6.4z"/></g><g fill="#162E51" fill-rule="nonzero" mask="url(#summary-box-b)"><path d="M13.836 54.732L11.2 57.368l-1.436-1.432-.564.564 2 2 3.2-3.2-.564-.568zM12 52.5c-2.208 0-4 1.792-4 4s1.792 4 4 4 4-1.792 4-4-1.792-4-4-4zm0 7.2a3.2 3.2 0 1 1 0-6.4 3.2 3.2 0 1 1 0 6.4z"/></g><g fill="#162E51" fill-rule="nonzero" mask="url(#summary-box-b)"><path d="M13.836 66.732L11.2 69.368l-1.436-1.432-.564.564 2 2 3.2-3.2-.564-.568zM12 64.5c-2.208 0-4 1.792-4 4s1.792 4 4 4 4-1.792 4-4-1.792-4-4-4zm0 7.2a3.2 3.2 0 1 1 0-6.4 3.2 3.2 0 1 1 0 6.4z"/></g><rect width="145" height="4" x="8" y="30.5" fill="#162E51" mask="url(#summary-box-b)" rx="2"/></g></g></svg>