<?xml version="1.0" encoding="UTF-8"?>
<svg xmlns="http://www.w3.org/2000/svg" width="124" height="124" viewBox="0 0 124 124">
  <path fill="#FFF" fill-rule="evenodd" d="M26.4,78.2 C26.4,85.3 20.6,91.1 13.5,91.1 C6.4,91.1 0.6,85.3 0.6,78.2 C0.6,71.1 6.4,65.3 13.5,65.3 L26.4,65.3 L26.4,78.2 Z M32.9,78.2 C32.9,71.1 38.7,65.3 45.8,65.3 C52.9,65.3 58.7,71.1 58.7,78.2 L58.7,110.5 C58.7,117.6 52.9,123.4 45.8,123.4 C38.7,123.4 32.9,117.6 32.9,110.5 C32.9,110.5 32.9,78.2 32.9,78.2 Z M45.8,26.4 C38.7,26.4 32.9,20.6 32.9,13.5 C32.9,6.4 38.7,0.6 45.8,0.6 C52.9,0.6 58.7,6.4 58.7,13.5 L58.7,26.4 L45.8,26.4 Z M45.8,32.9 C52.9,32.9 58.7,38.7 58.7,45.8 C58.7,52.9 52.9,58.7 45.8,58.7 L13.5,58.7 C6.4,58.7 0.6,52.9 0.6,45.8 C0.6,38.7 6.4,32.9 13.5,32.9 C13.5,32.9 45.8,32.9 45.8,32.9 Z M97.6,45.8 C97.6,38.7 103.4,32.9 110.5,32.9 C117.6,32.9 123.4,38.7 123.4,45.8 C123.4,52.9 117.6,58.7 110.5,58.7 L97.6,58.7 L97.6,45.8 Z M91.1,45.8 C91.1,52.9 85.3,58.7 78.2,58.7 C71.1,58.7 65.3,52.9 65.3,45.8 L65.3,13.5 C65.3,6.4 71.1,0.6 78.2,0.6 C85.3,0.6 91.1,6.4 91.1,13.5 L91.1,45.8 Z M78.2,97.6 C85.3,97.6 91.1,103.4 91.1,110.5 C91.1,117.6 85.3,123.4 78.2,123.4 C71.1,123.4 65.3,117.6 65.3,110.5 L65.3,97.6 L78.2,97.6 Z M78.2,91.1 C71.1,91.1 65.3,85.3 65.3,78.2 C65.3,71.1 71.1,65.3 78.2,65.3 L110.5,65.3 C117.6,65.3 123.4,71.1 123.4,78.2 C123.4,85.3 117.6,91.1 110.5,91.1 L78.2,91.1 Z"/>
</svg>
