<?xml version="1.0" encoding="UTF-8"?><svg xmlns="http://www.w3.org/2000/svg" width="462" height="462" viewBox="0 0 462 462"><title>Group Copy</title><g fill="none" fill-rule="evenodd" transform="translate(1 1)"><circle cx="230" cy="230" r="230" stroke="#225E9D" stroke-width="2"/><circle cx="230" cy="268" r="160" fill="#EFF6FB" stroke="#225E9D" stroke-width="4"/><circle cx="230" cy="316" r="80" fill="#D9E8F6" stroke="#225E9D" stroke-width="6"/><path fill="#225E9D" fill-rule="nonzero" d="M213.672 33v-1.328h-5.464v-10.24h-1.512L206.688 33h6.984zm5.112.16c1.6 0 3.16-.888 3.464-2.576h-1.4c-.208.936-1.04 1.432-2.096 1.432-1.608 0-2.384-1.24-2.384-2.808h5.928v-.544c0-2.512-1.288-4.096-3.624-4.096-2.408 0-3.8 1.768-3.8 4.376 0 2.64 1.592 4.216 3.912 4.216zm2.088-4.952h-4.496c-.008-1.232.736-2.52 2.288-2.52 1.496 0 2.208 1.096 2.208 2.52zM227.624 33l2.976-8.272h-1.384l-2.208 6.416h-.136l-2.2-6.416h-1.392L226.272 33h1.352zm7.856.16c1.6 0 3.16-.888 3.464-2.576h-1.4c-.208.936-1.04 1.432-2.096 1.432-1.608 0-2.384-1.24-2.384-2.808h5.928v-.544c0-2.512-1.288-4.096-3.624-4.096-2.408 0-3.8 1.768-3.8 4.376 0 2.64 1.592 4.216 3.912 4.216zm2.088-4.952h-4.496c-.008-1.232.736-2.52 2.288-2.52 1.496 0 2.208 1.096 2.208 2.52zm5.536 4.896c.208 0 .496-.048.744-.128v-.96l-.448-.008c-.584-.04-.928-.44-.928-1.28v-9.616h-1.456v9.76c0 1.16.304 2.232 2.088 2.232zm9.728-.104V21.432h-1.056c-.056.936-.632 1.392-2.704 1.392v.968h2.232V33h1.528zm-74.33 27v-6.192h3.312c3.732 0 6.18-2.016 6.18-5.472 0-3.672-2.856-5.688-6.636-5.688h-6.384V60h3.528zm3.216-8.904h-3.252v-5.76h3.204c1.692 0 3.048 1.092 3.048 2.82 0 1.668-1.248 2.94-3 2.94zM193.694 60v-6.792c0-1.668 1.056-2.772 3.816-2.532.168.012.384.024.528.084v-3.336c-.096-.048-.312-.072-.54-.072-1.956 0-3.348 1.284-3.936 3.18v-2.94h-3.372V60h3.504zm9.792-14.184V42.66h-3.408v3.156h3.408zM203.462 60V47.592h-3.348V60h3.348zm6.6 0v-7.944c0-1.212 1.164-1.824 2.316-1.824 1.14 0 2.064.672 2.064 2.016V60h3.504v-8.184c0-3.072-2.076-4.332-4.344-4.332-1.956 0-3.036.96-3.6 1.86v-1.752h-3.444V60h3.504zm16.044.24c3.036 0 5.04-2.004 5.196-4.572h-2.844c-.144.852-.84 2.088-2.256 2.088-1.764 0-2.82-1.512-2.82-3.936 0-2.556 1.116-3.804 2.748-3.804 1.44 0 2.136 1.116 2.292 2.1h2.916c-.192-2.664-2.124-4.764-5.232-4.764-3.612 0-5.988 2.64-5.988 6.492 0 3.972 2.532 6.396 5.988 6.396zm10.98-14.424V42.66h-3.408v3.156h3.408zM237.062 60V47.592h-3.348V60h3.348zm6.6 3.864V58.14c.684 1.164 1.932 2.1 3.528 2.1 2.94 0 5.124-2.04 5.124-6.54 0-4.344-2.004-6.348-4.776-6.348-1.692 0-3.096.876-3.852 2.028l-.012-1.788h-3.516v16.272h3.504zm2.688-6.192c-1.824 0-2.688-1.872-2.688-3.948 0-2.172.864-3.828 2.688-3.828 1.608 0 2.688 1.44 2.688 3.828 0 2.748-1.176 3.948-2.688 3.948zm12.252 2.544c.468 0 .984-.132 1.464-.3v-2.16l-.588-.036c-1.08-.12-1.404-.72-1.404-1.632v-13.92h-3.432V56.52c0 1.788.288 3.696 3.96 3.696zm9.384.024c2.592 0 5.172-1.524 5.592-4.176h-3.156c-.36 1.164-1.32 1.644-2.52 1.644-1.668 0-2.664-1.212-2.64-3.108h8.328v-.948c0-3.72-1.992-6.3-5.784-6.3-3.804 0-6.012 2.856-6.012 6.588 0 3.852 2.508 6.3 6.192 6.3zm2.328-7.728h-5.064c-.012-1.368.936-2.712 2.556-2.712 1.68 0 2.508 1.212 2.508 2.712zm10.584 7.728c3.108 0 5.232-1.404 5.232-3.888 0-1.128-.588-2.94-3.348-3.624l-2.016-.456c-1.356-.264-1.968-.612-1.968-1.26 0-.876.876-1.308 2.088-1.308 1.164 0 1.992.54 2.172 1.5h2.928c-.036-2.436-2.016-3.852-5.064-3.852-3.396 0-5.22 1.692-5.208 3.924.024 2.052 1.464 3.096 3.66 3.552l2.184.456c1.128.216 1.572.588 1.572 1.26 0 .888-.912 1.296-2.244 1.296-.96 0-2.208-.432-2.52-1.752h-3.036c.444 2.94 2.976 4.152 5.568 4.152zM212.16 158v-1.328h-5.464v-10.24h-1.512L205.176 158h6.984zm5.112.16c1.6 0 3.16-.888 3.464-2.576h-1.4c-.208.936-1.04 1.432-2.096 1.432-1.608 0-2.384-1.24-2.384-2.808h5.928v-.544c0-2.512-1.288-4.096-3.624-4.096-2.408 0-3.8 1.768-3.8 4.376 0 2.64 1.592 4.216 3.912 4.216zm2.088-4.952h-4.496c-.008-1.232.736-2.52 2.288-2.52 1.496 0 2.208 1.096 2.208 2.52zm6.752 4.792l2.976-8.272h-1.384l-2.208 6.416h-.136l-2.2-6.416h-1.392L224.76 158h1.352zm7.856.16c1.6 0 3.16-.888 3.464-2.576h-1.4c-.208.936-1.04 1.432-2.096 1.432-1.608 0-2.384-1.24-2.384-2.808h5.928v-.544c0-2.512-1.288-4.096-3.624-4.096-2.408 0-3.8 1.768-3.8 4.376 0 2.64 1.592 4.216 3.912 4.216zm2.088-4.952h-4.496c-.008-1.232.736-2.52 2.288-2.52 1.496 0 2.208 1.096 2.208 2.52zm5.536 4.896c.208 0 .496-.048.744-.128v-.96l-.448-.008c-.584-.04-.928-.44-.928-1.28v-9.616h-1.456v9.76c0 1.16.304 2.232 2.088 2.232zM255.56 158v-1.312h-6.104v-.232c0-3.104 6.04-2.736 6.04-6.896 0-1.968-1.48-3.288-3.808-3.288-2.688 0-4.088 1.648-4.128 3.648h1.472c.12-1.424 1.088-2.344 2.6-2.344 1.408 0 2.296.808 2.296 1.984 0 3.128-6.12 2.912-6.12 7.064V158h7.752zm-70.494 27.24c2.808 0 4.188-1.32 5.088-2.508V185h2.388v-9.06l-7.26-.036v2.424h3.588l-.132 1.056c-.18 1.236-1.368 2.772-3.42 2.772-2.172 0-4.248-1.296-4.248-5.88 0-4.236 1.788-5.904 4.104-5.904 1.908 0 3.156 1.368 3.48 3.024h3.696c-.132-3.084-2.976-5.988-7.092-5.988-4.8 0-8.004 3.444-8.004 8.964 0 5.424 3.036 8.868 7.812 8.868zm15.324 0c1.464.012 3.216-.528 3.66-2.7l.408 2.46h2.64v-12.408h-3.468v8.076c0 1.284-.876 2.028-2.244 2.028-1.452 0-2.22-.816-2.22-1.968v-8.136h-3.504v8.58c0 2.64 2.448 4.056 4.728 4.068zm13.188-14.424v-3.156h-3.408v3.156h3.408zM213.554 185v-12.408h-3.348V185h3.348zm7.632.24c2.448 0 3.528-1.416 3.972-2.784l.396 2.544h2.544v-17.832h-3.516v7.104c-.6-1.056-1.968-1.92-3.744-1.92-3.192 0-4.932 2.484-4.932 6.372 0 4.104 1.944 6.516 5.28 6.516zm.768-2.52c-1.608 0-2.628-1.284-2.628-4.044 0-2.724 1.128-3.78 2.652-3.78 1.74 0 2.592 1.248 2.604 3.78 0 2.928-.864 4.044-2.628 4.044zm12.744 2.52c1.728 0 2.988-.576 3.84-2.376l.288 2.136h2.928v-8.724c0-2.436-1.44-3.924-5.244-3.924-3.108 0-5.34 1.248-5.472 3.936h2.916c.336-1.14 1.38-1.56 2.4-1.572 1.392-.012 2.04.624 2.04 1.764v.744l-1.548.024c-4.392.048-6.336 1.488-6.336 4.2 0 2.424 1.812 3.792 4.188 3.792zm1.176-2.304c-1.152 0-2.052-.684-2.052-1.836 0-1.512 1.56-2.028 3.312-2.052l1.26-.024v1.836c-.012 1.068-1.26 2.076-2.52 2.076zM248.102 185v-7.944c0-1.212 1.164-1.824 2.316-1.824 1.14 0 2.064.672 2.064 2.016V185h3.504v-8.184c0-3.072-2.076-4.332-4.344-4.332-1.956 0-3.036.96-3.6 1.86v-1.752h-3.444V185h3.504zm16.044.24c3.036 0 5.04-2.004 5.196-4.572h-2.844c-.144.852-.84 2.088-2.256 2.088-1.764 0-2.82-1.512-2.82-3.936 0-2.556 1.116-3.804 2.748-3.804 1.44 0 2.136 1.116 2.292 2.1h2.916c-.192-2.664-2.124-4.764-5.232-4.764-3.612 0-5.988 2.64-5.988 6.492 0 3.972 2.532 6.396 5.988 6.396zm13.212 0c2.592 0 5.172-1.524 5.592-4.176h-3.156c-.36 1.164-1.32 1.644-2.52 1.644-1.668 0-2.664-1.212-2.64-3.108h8.328v-.948c0-3.72-1.992-6.3-5.784-6.3-3.804 0-6.012 2.856-6.012 6.588 0 3.852 2.508 6.3 6.192 6.3zm2.328-7.728h-5.064c-.012-1.368.936-2.712 2.556-2.712 1.68 0 2.508 1.212 2.508 2.712z"/><path fill="#225E9D" d="M211.888 308v-1.328h-5.464v-10.24h-1.512L204.904 308h6.984zm5.112.16c1.6 0 3.16-.888 3.464-2.576h-1.4c-.208.936-1.04 1.432-2.096 1.432-1.608 0-2.384-1.24-2.384-2.808h5.928v-.544c0-2.512-1.288-4.096-3.624-4.096-2.408 0-3.8 1.768-3.8 4.376 0 2.64 1.592 4.216 3.912 4.216zm2.088-4.952h-4.496c-.008-1.232.736-2.52 2.288-2.52 1.496 0 2.208 1.096 2.208 2.52zM225.84 308l2.976-8.272h-1.384l-2.208 6.416h-.136l-2.2-6.416h-1.392l2.992 8.272h1.352zm7.856.16c1.6 0 3.16-.888 3.464-2.576h-1.4c-.208.936-1.04 1.432-2.096 1.432-1.608 0-2.384-1.24-2.384-2.808h5.928v-.544c0-2.512-1.288-4.096-3.624-4.096-2.408 0-3.8 1.768-3.8 4.376 0 2.64 1.592 4.216 3.912 4.216zm2.088-4.952h-4.496c-.008-1.232.736-2.52 2.288-2.52 1.496 0 2.208 1.096 2.208 2.52zm5.536 4.896c.208 0 .496-.048.744-.128v-.96l-.448-.008c-.584-.04-.928-.44-.928-1.28v-9.616h-1.456v9.76c0 1.16.304 2.232 2.088 2.232zm10.08.072c2.568.024 4.456-1.256 4.456-3.368 0-1.504-1-2.504-2.52-2.92 1.496-.52 2.208-1.488 2.208-2.632 0-1.912-1.68-2.984-4.08-2.984-2.192 0-4 1.288-4 3.528h1.472c.048-1.6 1.28-2.296 2.52-2.296 1.584 0 2.496.84 2.496 1.8 0 1.08-1.136 1.992-2.656 2.016l-.992.024v1.256l1.04.024c1.632.016 2.912.768 2.912 2.168 0 1.256-1.096 2.112-2.8 2.112-1.432 0-2.448-.792-2.664-2.232h-1.48c.072 2.136 1.696 3.48 4.088 3.504zm-41.938 27.064c4.884 0 6.648-2.94 7.068-6.24h-3.672c-.324 1.812-1.5 3.36-3.504 3.36-2.424 0-3.9-1.812-3.9-6.132 0-4.284 1.476-5.94 3.9-5.94 2.004 0 3.18 1.296 3.504 3.108h3.672c-.348-3.408-3.156-5.988-7.068-5.988-4.884 0-7.86 3.312-7.86 8.772 0 5.46 3.012 9.06 7.86 9.06zm15.096 0c3.78 0 6-2.64 6-6.372 0-3.972-2.328-6.516-5.988-6.516-3.684 0-6.012 2.604-6.012 6.516s2.352 6.372 6 6.372zm.012-2.604c-1.968 0-2.592-1.944-2.592-3.888 0-2.112.732-3.816 2.592-3.816 1.944 0 2.568 1.848 2.568 3.816 0 2.088-.732 3.888-2.568 3.888zm12.924 2.604c2.448 0 3.528-1.416 3.972-2.784l.396 2.544h2.544v-17.832h-3.516v7.104c-.6-1.056-1.968-1.92-3.744-1.92-3.192 0-4.932 2.484-4.932 6.372 0 4.104 1.944 6.516 5.28 6.516zm.768-2.52c-1.608 0-2.628-1.284-2.628-4.044 0-2.724 1.128-3.78 2.652-3.78 1.74 0 2.592 1.248 2.604 3.78 0 2.928-.864 4.044-2.628 4.044zm14.748 2.52c2.592 0 5.172-1.524 5.592-4.176h-3.156c-.36 1.164-1.32 1.644-2.52 1.644-1.668 0-2.664-1.212-2.64-3.108h8.328v-.948c0-3.72-1.992-6.3-5.784-6.3-3.804 0-6.012 2.856-6.012 6.588 0 3.852 2.508 6.3 6.192 6.3zm2.328-7.728h-5.064c-.012-1.368.936-2.712 2.556-2.712 1.68 0 2.508 1.212 2.508 2.712z"/><path fill="#225E9D" fill-rule="nonzero" d="M231 70v13h6l-7 14-7-14h6V70h2zm0 126.625v13h6l-7 14-7-14h6v-13h2z"/></g></svg>