<?xml version="1.0" encoding="UTF-8"?><!DOCTYPE svg PUBLIC "-//W3C//DTD SVG 1.1//EN" "http://www.w3.org/Graphics/SVG/1.1/DTD/svg11.dtd"><svg xmlns="http://www.w3.org/2000/svg" xmlns:xlink="http://www.w3.org/1999/xlink"><symbol id="description" viewBox="0 0 24 24"><g fill="none" color="#ff0000" stroke="#ff0000" stroke-width=""><path d="M0 0h24v24H0z" fill="none"/><path d="M14 2H6c-1.1 0-1.99.9-1.99 2L4 20c0 1.1.89 2 1.99 2H18c1.1 0 2-.9 2-2V8l-6-6zm2 16H8v-2h8v2zm0-4H8v-2h8v2zm-3-5V3.5L18.5 9H13z"/></g></symbol><symbol id="accessibility_new" viewBox="0 0 24 24"><path d="M0 0h24v24H0z" fill="none"/><path d="M20.5 6c-2.61.7-5.67 1-8.5 1s-5.89-.3-8.5-1L3 8c1.86.5 4 .83 6 1v13h2v-6h2v6h2V9c2-.17 4.14-.5 6-1l-.5-2zM12 6c1.1 0 2-.9 2-2s-.9-2-2-2-2 .9-2 2 .9 2 2 2z"/></symbol><symbol id="accessible_forward" viewBox="0 0 24 24"><path d="M0 0h24v24H0z" fill="none"/><circle cx="17" cy="4.54" r="2"/><path d="M14 17h-2c0 1.65-1.35 3-3 3s-3-1.35-3-3 1.35-3 3-3v-2c-2.76 0-5 2.24-5 5s2.24 5 5 5 5-2.24 5-5zm3-3.5h-1.86l1.67-3.67C17.42 8.5 16.44 7 14.96 7h-5.2c-.81 0-1.54.47-1.87 1.2L7.22 10l1.92.53L9.79 9H12l-1.83 4.1c-.6 1.33.39 2.9 1.85 2.9H17v5h2v-5.5c0-1.1-.9-2-2-2z"/></symbol><symbol id="account_balance" viewBox="0 0 24 24"><g enable-background="new 0 0 24 24"><g><rect fill="none" height="24" width="24"/></g><g><g><rect height="7" width="3" x="4" y="10"/><rect height="7" width="3" x="10.5" y="10"/><rect height="3" width="20" x="2" y="19"/><rect height="7" width="3" x="17" y="10"/><polygon points="12,1 2,6 2,8 22,8 22,6"/></g></g></g></symbol><symbol id="account_box" viewBox="0 0 24 24"><path d="M0 0h24v24H0z" fill="none"/><path d="M3 5v14c0 1.1.89 2 2 2h14c1.1 0 2-.9 2-2V5c0-1.1-.9-2-2-2H5c-1.11 0-2 .9-2 2zm12 4c0 1.66-1.34 3-3 3s-3-1.34-3-3 1.34-3 3-3 3 1.34 3 3zm-9 8c0-2 4-3.1 6-3.1s6 1.1 6 3.1v1H6v-1z"/></symbol><symbol id="account_circle" viewBox="0 0 24 24"><path d="M0 0h24v24H0z" fill="none"/><path d="M12 2C6.48 2 2 6.48 2 12s4.48 10 10 10 10-4.48 10-10S17.52 2 12 2zm0 3c1.66 0 3 1.34 3 3s-1.34 3-3 3-3-1.34-3-3 1.34-3 3-3zm0 14.2c-2.5 0-4.71-1.28-6-3.22.03-1.99 4-3.08 6-3.08 1.99 0 5.97 1.09 6 3.08-1.29 1.94-3.5 3.22-6 3.22z"/></symbol><symbol id="add" viewBox="0 0 24 24"><path d="M0 0h24v24H0z" fill="none"/><path d="M19 13h-6v6h-2v-6H5v-2h6V5h2v6h6v2z"/></symbol><symbol id="add_circle" viewBox="0 0 24 24"><path d="M0 0h24v24H0z" fill="none"/><path d="M12 2C6.48 2 2 6.48 2 12s4.48 10 10 10 10-4.48 10-10S17.52 2 12 2zm5 11h-4v4h-2v-4H7v-2h4V7h2v4h4v2z"/></symbol><symbol id="add_circle_outline" viewBox="0 0 24 24"><path d="M0 0h24v24H0z" fill="none"/><path d="M13 7h-2v4H7v2h4v4h2v-4h4v-2h-4V7zm-1-5C6.48 2 2 6.48 2 12s4.48 10 10 10 10-4.48 10-10S17.52 2 12 2zm0 18c-4.41 0-8-3.59-8-8s3.59-8 8-8 8 3.59 8 8-3.59 8-8 8z"/></symbol><symbol id="alarm" viewBox="0 0 24 24"><path d="M0 0h24v24H0z" fill="none"/><path d="M22 5.72l-4.6-3.86-1.29 1.53 4.6 3.86L22 5.72zM7.88 3.39L6.6 1.86 2 5.71l1.29 1.53 4.59-3.85zM12.5 8H11v6l4.75 2.85.75-1.23-4-2.37V8zM12 4c-4.97 0-9 4.03-9 9s4.02 9 9 9c4.97 0 9-4.03 9-9s-4.03-9-9-9zm0 16c-3.87 0-7-3.13-7-7s3.13-7 7-7 7 3.13 7 7-3.13 7-7 7z"/></symbol><symbol id="alternate_email" viewBox="0 0 24 24"><path d="M0 0h24v24H0z" fill="none"/><path d="M12 2C6.48 2 2 6.48 2 12s4.48 10 10 10h5v-2h-5c-4.34 0-8-3.66-8-8s3.66-8 8-8 8 3.66 8 8v1.43c0 .79-.71 1.57-1.5 1.57s-1.5-.78-1.5-1.57V12c0-2.76-2.24-5-5-5s-5 2.24-5 5 2.24 5 5 5c1.38 0 2.64-.56 3.54-1.47.65.89 1.77 1.47 2.96 1.47 1.97 0 3.5-1.6 3.5-3.57V12c0-5.52-4.48-10-10-10zm0 13c-1.66 0-3-1.34-3-3s1.34-3 3-3 3 1.34 3 3-1.34 3-3 3z"/></symbol><symbol id="announcement" viewBox="0 0 24 24"><path d="M0 0h24v24H0z" fill="none"/><path d="M20 2H4c-1.1 0-1.99.9-1.99 2L2 22l4-4h14c1.1 0 2-.9 2-2V4c0-1.1-.9-2-2-2zm-7 9h-2V5h2v6zm0 4h-2v-2h2v2z"/></symbol><symbol id="api" viewBox="0 0 24 24"><g enable-background="new 0 0 24 24"><g><rect fill="none" height="24" width="24"/><path d="M14,12l-2,2l-2-2l2-2L14,12z M12,6l2.12,2.12l2.5-2.5L12,1L7.38,5.62l2.5,2.5L12,6z M6,12l2.12-2.12l-2.5-2.5L1,12 l4.62,4.62l2.5-2.5L6,12z M18,12l-2.12,2.12l2.5,2.5L23,12l-4.62-4.62l-2.5,2.5L18,12z M12,18l-2.12-2.12l-2.5,2.5L12,23l4.62-4.62 l-2.5-2.5L12,18z"/></g></g></symbol><symbol id="arrow_back" viewBox="0 0 24 24"><path d="M0 0h24v24H0z" fill="none"/><path d="M20 11H7.83l5.59-5.59L12 4l-8 8 8 8 1.41-1.41L7.83 13H20v-2z"/></symbol><symbol id="arrow_downward" viewBox="0 0 24 24"><path d="M0 0h24v24H0V0z" fill="none"/><path d="M20 12l-1.41-1.41L13 16.17V4h-2v12.17l-5.58-5.59L4 12l8 8 8-8z"/></symbol><symbol id="arrow_drop_down" viewBox="0 0 24 24"><path d="M0 0h24v24H0z" fill="none"/><path d="M7 10l5 5 5-5z"/></symbol><symbol id="arrow_drop_up" viewBox="0 0 24 24"><path d="M0 0h24v24H0z" fill="none"/><path d="M7 14l5-5 5 5z"/></symbol><symbol id="arrow_forward" viewBox="0 0 24 24"><path d="M0 0h24v24H0z" fill="none"/><path d="M12 4l-1.41 1.41L16.17 11H4v2h12.17l-5.58 5.59L12 20l8-8z"/></symbol><symbol id="arrow_upward" viewBox="0 0 24 24"><path d="M0 0h24v24H0V0z" fill="none"/><path d="M4 12l1.41 1.41L11 7.83V20h2V7.83l5.58 5.59L20 12l-8-8-8 8z"/></symbol><symbol id="assessment" viewBox="0 0 24 24"><path d="M0 0h24v24H0z" fill="none"/><path d="M19 3H5c-1.1 0-2 .9-2 2v14c0 1.1.9 2 2 2h14c1.1 0 2-.9 2-2V5c0-1.1-.9-2-2-2zM9 17H7v-7h2v7zm4 0h-2V7h2v10zm4 0h-2v-4h2v4z"/></symbol><symbol id="attach_file" viewBox="0 0 24 24"><path d="M0 0h24v24H0z" fill="none"/><path d="M16.5 6v11.5c0 2.21-1.79 4-4 4s-4-1.79-4-4V5c0-1.38 1.12-2.5 2.5-2.5s2.5 1.12 2.5 2.5v10.5c0 .55-.45 1-1 1s-1-.45-1-1V6H10v9.5c0 1.38 1.12 2.5 2.5 2.5s2.5-1.12 2.5-2.5V5c0-2.21-1.79-4-4-4S7 2.79 7 5v12.5c0 3.04 2.46 5.5 5.5 5.5s5.5-2.46 5.5-5.5V6h-1.5z"/></symbol><symbol id="attach_money" viewBox="0 0 24 24"><path d="M0 0h24v24H0z" fill="none"/><path d="M11.8 10.9c-2.27-.59-3-1.2-3-2.15 0-1.09 1.01-1.85 2.7-1.85 1.78 0 2.44.85 2.5 2.1h2.21c-.07-1.72-1.12-3.3-3.21-3.81V3h-3v2.16c-1.94.42-3.5 1.68-3.5 3.61 0 2.31 1.91 3.46 4.7 4.13 2.5.6 3 1.48 3 2.41 0 .69-.49 1.79-2.7 1.79-2.06 0-2.87-.92-2.98-2.1h-2.2c.12 2.19 1.76 3.42 3.68 3.83V21h3v-2.15c1.95-.37 3.5-1.5 3.5-3.55 0-2.84-2.43-3.81-4.7-4.4z"/></symbol><symbol id="autorenew" viewBox="0 0 24 24"><path d="M0 0h24v24H0z" fill="none"/><path d="M12 6v3l4-4-4-4v3c-4.42 0-8 3.58-8 8 0 1.57.46 3.03 1.24 4.26L6.7 14.8c-.45-.83-.7-1.79-.7-2.8 0-3.31 2.69-6 6-6zm6.76 1.74L17.3 9.2c.44.84.7 1.79.7 2.8 0 3.31-2.69 6-6 6v-3l-4 4 4 4v-3c4.42 0 8-3.58 8-8 0-1.57-.46-3.03-1.24-4.26z"/></symbol><symbol id="backpack" viewBox="0 0 24 24"><g enable-background="new 0 0 24 24"><g><rect fill="none" height="24" width="24" y="0"/><g><g><path d="M20,8v12c0,1.1-0.9,2-2,2H6c-1.1,0-2-0.9-2-2V8c0-1.86,1.28-3.41,3-3.86V2h3v2h4V2h3v2.14C18.72,4.59,20,6.14,20,8z M6,12v2h10v2h2v-4H6z"/></g></g></g></g></symbol><symbol id="bathtub" viewBox="0 0 24 24"><g enable-background="new 0 0 24 24"><g><rect fill="none" height="24" width="24"/></g><g><g><g><circle cx="7" cy="7" r="2"/></g><g><path d="M20,13V4.83C20,3.27,18.73,2,17.17,2c-0.75,0-1.47,0.3-2,0.83l-1.25,1.25C13.76,4.03,13.59,4,13.41,4 c-0.4,0-0.77,0.12-1.08,0.32l2.76,2.76c0.2-0.31,0.32-0.68,0.32-1.08c0-0.18-0.03-0.34-0.07-0.51l1.25-1.25 C16.74,4.09,16.95,4,17.17,4C17.63,4,18,4.37,18,4.83V13h-6.85c-0.3-0.21-0.57-0.45-0.82-0.72l-1.4-1.55 c-0.19-0.21-0.43-0.38-0.69-0.5C7.93,10.08,7.59,10,7.24,10C6,10.01,5,11.01,5,12.25V13H2v6c0,1.1,0.9,2,2,2c0,0.55,0.45,1,1,1 h14c0.55,0,1-0.45,1-1c1.1,0,2-0.9,2-2v-6H20z"/></g></g></g></g></symbol><symbol id="bedding" viewBox="0 0 24 24"><g id="Bedding"><path d="M17,10.13h0a33.86,33.86,0,0,1-10,0h0A1.92,1.92,0,0,1,5.49,8.67h0a10.42,10.42,0,0,1,0-4.84h0A1.92,1.92,0,0,1,7.06,2.37h0a33.86,33.86,0,0,1,10,0h0a1.9,1.9,0,0,1,1.56,1.46h0a10.16,10.16,0,0,1,0,4.84h0A1.9,1.9,0,0,1,17,10.13Z"/><path d="M21,22.25H7a5.25,5.25,0,0,1,0-10.5H17a3.25,3.25,0,0,1,0,6.5H7a1.25,1.25,0,0,1,0-2.5H17a.75.75,0,0,0,0-1.5H7a2.75,2.75,0,0,0,0,5.5H21a1.25,1.25,0,0,1,0,2.5Z"/></g></symbol><symbol id="bookmark" viewBox="0 0 24 24"><path d="M0 0h24v24H0z" fill="none"/><path d="M17 3H7c-1.1 0-1.99.9-1.99 2L5 21l7-3 7 3V5c0-1.1-.9-2-2-2z"/></symbol><symbol id="bug_report" viewBox="0 0 24 24"><path d="M0 0h24v24H0z" fill="none"/><path d="M20 8h-2.81c-.45-.78-1.07-1.45-1.82-1.96L17 4.41 15.59 3l-2.17 2.17C12.96 5.06 12.49 5 12 5c-.49 0-.96.06-1.41.17L8.41 3 7 4.41l1.62 1.63C7.88 6.55 7.26 7.22 6.81 8H4v2h2.09c-.05.33-.09.66-.09 1v1H4v2h2v1c0 .34.04.67.09 1H4v2h2.81c1.04 1.79 2.97 3 5.19 3s4.15-1.21 5.19-3H20v-2h-2.09c.05-.33.09-.66.09-1v-1h2v-2h-2v-1c0-.34-.04-.67-.09-1H20V8zm-6 8h-4v-2h4v2zm0-4h-4v-2h4v2z"/></symbol><symbol id="build" viewBox="0 0 24 24"><path clip-rule="evenodd" d="M0 0h24v24H0z" fill="none"/><path d="M22.7 19l-9.1-9.1c.9-2.3.4-5-1.5-6.9-2-2-5-2.4-7.4-1.3L9 6 6 9 1.6 4.7C.4 7.1.9 10.1 2.9 12.1c1.9 1.9 4.6 2.4 6.9 1.5l9.1 9.1c.4.4 1 .4 1.4 0l2.3-2.3c.5-.4.5-1.1.1-1.4z"/></symbol><symbol id="calendar_today" viewBox="0 0 24 24"><path d="M0 0h24v24H0z" fill="none"/><path d="M20 3h-1V1h-2v2H7V1H5v2H4c-1.1 0-2 .9-2 2v16c0 1.1.9 2 2 2h16c1.1 0 2-.9 2-2V5c0-1.1-.9-2-2-2zm0 18H4V8h16v13z"/></symbol><symbol id="campaign" viewBox="0 0 24 24"><path d="M0 0h24v24H0z" fill="none"/><path d="M18 11v2h4v-2h-4zm-2 6.61c.96.71 2.21 1.65 3.2 2.39.4-.53.8-1.07 1.2-1.6-.99-.74-2.24-1.68-3.2-2.4-.4.54-.8 1.08-1.2 1.61zM20.4 5.6c-.4-.53-.8-1.07-1.2-1.6-.99.74-2.24 1.68-3.2 2.4.4.53.8 1.07 1.2 1.6.96-.72 2.21-1.65 3.2-2.4zM4 9c-1.1 0-2 .9-2 2v2c0 1.1.9 2 2 2h1v4h2v-4h1l5 3V6L8 9H4zm11.5 3c0-1.33-.58-2.53-1.5-3.35v6.69c.92-.81 1.5-2.01 1.5-3.34z"/></symbol><symbol id="camping" viewBox="0 0 24 24"><g id="Camping"><path d="M20,18,12,5,4,18H2v2H22V18Zm-7.95-5,2.69,5H9.36Z"/><path d="M6.88,8.45a2.55,2.55,0,0,0,1-.93A2.6,2.6,0,0,1,5.67,3.58a2.71,2.71,0,0,0-1.31.33A2.6,2.6,0,0,0,6.88,8.45Z"/></g></symbol><symbol id="cancel" viewBox="0 0 24 24"><path d="M0 0h24v24H0z" fill="none"/><path d="M12 2C6.47 2 2 6.47 2 12s4.47 10 10 10 10-4.47 10-10S17.53 2 12 2zm5 13.59L15.59 17 12 13.41 8.41 17 7 15.59 10.59 12 7 8.41 8.41 7 12 10.59 15.59 7 17 8.41 13.41 12 17 15.59z"/></symbol><symbol id="chat" viewBox="0 0 24 24"><path d="M0 0h24v24H0z" fill="none"/><path d="M20 2H4c-1.1 0-1.99.9-1.99 2L2 22l4-4h14c1.1 0 2-.9 2-2V4c0-1.1-.9-2-2-2zM6 9h12v2H6V9zm8 5H6v-2h8v2zm4-6H6V6h12v2z"/></symbol><symbol id="check" viewBox="0 0 24 24"><path d="M0 0h24v24H0z" fill="none"/><path d="M9 16.17L4.83 12l-1.42 1.41L9 19 21 7l-1.41-1.41z"/></symbol><symbol id="check_box_outline_blank" viewBox="0 0 24 24"><path d="M0 0h24v24H0z" fill="none"/><path d="M19 5v14H5V5h14m0-2H5c-1.1 0-2 .9-2 2v14c0 1.1.9 2 2 2h14c1.1 0 2-.9 2-2V5c0-1.1-.9-2-2-2z"/></symbol><symbol id="check_circle" viewBox="0 0 24 24"><path d="M0 0h24v24H0z" fill="none"/><path d="M12 2C6.48 2 2 6.48 2 12s4.48 10 10 10 10-4.48 10-10S17.52 2 12 2zm-2 15l-5-5 1.41-1.41L10 14.17l7.59-7.59L19 8l-9 9z"/></symbol><symbol id="check_circle_outline" viewBox="0 0 24 24"><path d="M0 0h24v24H0V0zm0 0h24v24H0V0z" fill="none"/><path d="M16.59 7.58L10 14.17l-3.59-3.58L5 12l5 5 8-8zM12 2C6.48 2 2 6.48 2 12s4.48 10 10 10 10-4.48 10-10S17.52 2 12 2zm0 18c-4.42 0-8-3.58-8-8s3.58-8 8-8 8 3.58 8 8-3.58 8-8 8z"/></symbol><symbol id="checkroom" viewBox="0 0 24 24"><g enable-background="new 0 0 24 24"><g><rect fill="none" height="24" width="24"/><path d="M21.6,18.2L13,11.75v-0.91c1.65-0.49,2.8-2.17,2.43-4.05c-0.26-1.31-1.3-2.4-2.61-2.7C10.54,3.57,8.5,5.3,8.5,7.5h2 C10.5,6.67,11.17,6,12,6s1.5,0.67,1.5,1.5c0,0.84-0.69,1.52-1.53,1.5C11.43,8.99,11,9.45,11,9.99v1.76L2.4,18.2 C1.63,18.78,2.04,20,3,20h9h9C21.96,20,22.37,18.78,21.6,18.2z M6,18l6-4.5l6,4.5H6z"/></g></g></symbol><symbol id="chevron_left" viewBox="0 0 24 24"><path d="M0 0h24v24H0z" fill="none"/><path d="M15.41 7.41L14 6l-6 6 6 6 1.41-1.41L10.83 12z"/></symbol><symbol id="chevron_right" viewBox="0 0 24 24"><path d="M0 0h24v24H0z" fill="none"/><path d="M10 6L8.59 7.41 13.17 12l-4.58 4.59L10 18l6-6z"/></symbol><symbol id="clean_hands" viewBox="0 0 24 24"><g enable-background="new 0 0 24 24"><rect fill="none" height="24" width="24"/><path d="M16.99,5l0.63,1.37L18.99,7l-1.37,0.63L16.99,9l-0.63-1.37L14.99,7l1.37-0.63L16.99,5 M11,6.13V4h2 c0.57,0,1.1,0.17,1.55,0.45l1.43-1.43C15.15,2.39,14.13,2,13,2c-1.48,0-5.5,0-5.5,0v2H9v2.14C7.23,6.51,5.81,7.8,5.26,9.5h3.98 L15,11.65v-0.62C15,8.61,13.28,6.59,11,6.13z M1,22h4V11H1V22z M20,17h-7l-2.09-0.73l0.33-0.94L13,16h2.82 c0.65,0,1.18-0.53,1.18-1.18l0,0c0-0.49-0.31-0.93-0.77-1.11L8.97,11H7v9.02L14,22l8-3l0,0C21.99,17.9,21.11,17,20,17z M20,14 c1.1,0,2-0.9,2-2c0-1.1-2-4-2-4s-2,2.9-2,4C18,13.1,18.9,14,20,14z"/></g></symbol><symbol id="close" viewBox="0 0 24 24"><path d="M0 0h24v24H0z" fill="none"/><path d="M19 6.41L17.59 5 12 10.59 6.41 5 5 6.41 10.59 12 5 17.59 6.41 19 12 13.41 17.59 19 19 17.59 13.41 12z"/></symbol><symbol id="closed_caption" viewBox="0 0 24 24"><path d="M0 0h24v24H0z" fill="none"/><path d="M19 4H5c-1.11 0-2 .9-2 2v12c0 1.1.89 2 2 2h14c1.1 0 2-.9 2-2V6c0-1.1-.9-2-2-2zm-8 7H9.5v-.5h-2v3h2V13H11v1c0 .55-.45 1-1 1H7c-.55 0-1-.45-1-1v-4c0-.55.45-1 1-1h3c.55 0 1 .45 1 1v1zm7 0h-1.5v-.5h-2v3h2V13H18v1c0 .55-.45 1-1 1h-3c-.55 0-1-.45-1-1v-4c0-.55.45-1 1-1h3c.55 0 1 .45 1 1v1z"/></symbol><symbol id="clothes" viewBox="0 0 24 24"><path id="Clothes" d="M15.7,2.37,15,2.3V4A3,3,0,0,1,9,4V2.3l-.7.07a7,7,0,0,0-6.3,7V20H5V10H6.5V22h11V10H19V20h3V9.33A7,7,0,0,0,15.7,2.37Z"/></symbol><symbol id="cloud" viewBox="0 0 24 24"><path d="M0 0h24v24H0z" fill="none"/><path d="M19.35 10.04C18.67 6.59 15.64 4 12 4 9.11 4 6.6 5.64 5.35 8.04 2.34 8.36 0 10.91 0 14c0 3.31 2.69 6 6 6h13c2.76 0 5-2.24 5-5 0-2.64-2.05-4.78-4.65-4.96z"/></symbol><symbol id="code" viewBox="0 0 24 24"><path d="M0 0h24v24H0V0z" fill="none"/><path d="M9.4 16.6L4.8 12l4.6-4.6L8 6l-6 6 6 6 1.4-1.4zm5.2 0l4.6-4.6-4.6-4.6L16 6l6 6-6 6-1.4-1.4z"/></symbol><symbol id="comment" viewBox="0 0 24 24"><path d="M0 0h24v24H0z" fill="none"/><path d="M21.99 4c0-1.1-.89-2-1.99-2H4c-1.1 0-2 .9-2 2v12c0 1.1.9 2 2 2h14l4 4-.01-18zM18 14H6v-2h12v2zm0-3H6V9h12v2zm0-3H6V6h12v2z"/></symbol><symbol id="connect_without_contact" viewBox="0 0 24 24"><g enable-background="new 0 0 24 24"><rect fill="none" height="24" width="24"/><path d="M11,14H9c0-4.97,4.03-9,9-9v2C14.13,7,11,10.13,11,14z M18,11V9c-2.76,0-5,2.24-5,5h2C15,12.34,16.34,11,18,11z M7,4 c0-1.11-0.89-2-2-2S3,2.89,3,4s0.89,2,2,2S7,5.11,7,4z M11.45,4.5h-2C9.21,5.92,7.99,7,6.5,7h-3C2.67,7,2,7.67,2,8.5V11h6V8.74 C9.86,8.15,11.25,6.51,11.45,4.5z M19,17c1.11,0,2-0.89,2-2s-0.89-2-2-2s-2,0.89-2,2S17.89,17,19,17z M20.5,18h-3 c-1.49,0-2.71-1.08-2.95-2.5h-2c0.2,2.01,1.59,3.65,3.45,4.24V22h6v-2.5C22,18.67,21.33,18,20.5,18z"/></g></symbol><symbol id="construction" viewBox="0 0 24 24"><g enable-background="new 0 0 24 24"><g><rect fill="none" height="24" width="24"/></g><g><g><rect height="8.48" transform="matrix(0.7071 -0.7071 0.7071 0.7071 -6.8717 17.6255)" width="3" x="16.34" y="12.87"/><path d="M17.5,10c1.93,0,3.5-1.57,3.5-3.5c0-0.58-0.16-1.12-0.41-1.6l-2.7,2.7L16.4,6.11l2.7-2.7C18.62,3.16,18.08,3,17.5,3 C15.57,3,14,4.57,14,6.5c0,0.41,0.08,0.8,0.21,1.16l-1.85,1.85l-1.78-1.78l0.71-0.71L9.88,5.61L12,3.49 c-1.17-1.17-3.07-1.17-4.24,0L4.22,7.03l1.41,1.41H2.81L2.1,9.15l3.54,3.54l0.71-0.71V9.15l1.41,1.41l0.71-0.71l1.78,1.78 l-7.41,7.41l2.12,2.12L16.34,9.79C16.7,9.92,17.09,10,17.5,10z"/></g></g></g></symbol><symbol id="construction_worker" viewBox="0 0 24 24"><g id="Construction"><circle cx="10.5" cy="4.5" r="1.5"/><polygon points="19.59 16 18.32 16 17.68 16.71 16.41 16.71 15.14 21 16.41 21 17.05 20.29 18.95 20.29 19.59 21 20.86 21 19.59 16"/><path d="M14.38,12.72,14,14.19l-3.8-1.26-.1-.16.52-3.13c.93,1.37,2.15,2.11,4.6,2.11v-1.5c-2.44,0-3.09-.77-3.9-2.39A2.65,2.65,0,0,0,8.32,6.27L3.75,7.41v3.38l-1.51-.5-.48,1.42,4.35,1.45L5,20.86l2,.28L8,13.8l.38.13L10,16.3V21h2V15.7L11.51,15l2,.67-.37,1.27,1.91.57,1.24-4.19ZM5.25,11.29V8.59l1.57-.4-.49,3.46Z"/></g></symbol><symbol id="contact_page" viewBox="0 0 24 24"><g enable-background="new 0 0 24 24"><rect fill="none" height="24" width="24"/><path d="M14,2H6C4.9,2,4,2.9,4,4v16c0,1.1,0.9,2,2,2h12c1.1,0,2-0.9,2-2V8L14,2z M12,10c1.1,0,2,0.9,2,2c0,1.1-0.9,2-2,2s-2-0.9-2-2 C10,10.9,10.9,10,12,10z M16,18H8v-0.57c0-0.81,0.48-1.53,1.22-1.85C10.07,15.21,11.01,15,12,15c0.99,0,1.93,0.21,2.78,0.58 C15.52,15.9,16,16.62,16,17.43V18z"/></g></symbol><symbol id="content_copy" viewBox="0 0 24 24"><path d="M0 0h24v24H0z" fill="none"/><path d="M16 1H4c-1.1 0-2 .9-2 2v14h2V3h12V1zm3 4H8c-1.1 0-2 .9-2 2v14c0 1.1.9 2 2 2h11c1.1 0 2-.9 2-2V7c0-1.1-.9-2-2-2zm0 16H8V7h11v14z"/></symbol><symbol id="coronavirus" viewBox="0 0 24 24"><g enable-background="new 0 0 24 24"><rect fill="none" height="24" width="24"/><path d="M21.25,10.5c-0.41,0-0.75,0.34-0.75,0.75h-1.54c-0.15-1.37-0.69-2.63-1.52-3.65l1.09-1.09l0.01,0.01 c0.29,0.29,0.77,0.29,1.06,0s0.29-0.77,0-1.06L18.54,4.4c-0.29-0.29-0.77-0.29-1.06,0c-0.29,0.29-0.29,0.76-0.01,1.05l-1.09,1.09 c-1.02-0.82-2.27-1.36-3.64-1.51V3.5h0.01c0.41,0,0.75-0.34,0.75-0.75C13.5,2.34,13.16,2,12.75,2h-1.5c-0.41,0-0.75,0.34-0.75,0.75 c0,0.41,0.33,0.74,0.74,0.75v1.55C9.87,5.19,8.62,5.74,7.6,6.56L6.51,5.47l0.01-0.01c0.29-0.29,0.29-0.77,0-1.06 c-0.29-0.29-0.77-0.29-1.06,0L4.4,5.46c-0.29,0.29-0.29,0.77,0,1.06c0.29,0.29,0.76,0.29,1.05,0.01l1.09,1.09 c-0.82,1.02-1.36,2.26-1.5,3.63H3.5c0-0.41-0.34-0.75-0.75-0.75C2.34,10.5,2,10.84,2,11.25v1.5c0,0.41,0.34,0.75,0.75,0.75 c0.41,0,0.75-0.34,0.75-0.75h1.54c0.15,1.37,0.69,2.61,1.5,3.63l-1.09,1.09c-0.29-0.29-0.76-0.28-1.05,0.01 c-0.29,0.29-0.29,0.77,0,1.06l1.06,1.06c0.29,0.29,0.77,0.29,1.06,0c0.29-0.29,0.29-0.77,0-1.06l-0.01-0.01l1.09-1.09 c1.02,0.82,2.26,1.36,3.63,1.51v1.55c-0.41,0.01-0.74,0.34-0.74,0.75c0,0.41,0.34,0.75,0.75,0.75h1.5c0.41,0,0.75-0.34,0.75-0.75 c0-0.41-0.34-0.75-0.75-0.75h-0.01v-1.54c1.37-0.14,2.62-0.69,3.64-1.51l1.09,1.09c-0.29,0.29-0.28,0.76,0.01,1.05 c0.29,0.29,0.77,0.29,1.06,0l1.06-1.06c0.29-0.29,0.29-0.77,0-1.06c-0.29-0.29-0.77-0.29-1.06,0l-0.01,0.01l-1.09-1.09 c0.82-1.02,1.37-2.27,1.52-3.65h1.54c0,0.41,0.34,0.75,0.75,0.75c0.41,0,0.75-0.34,0.75-0.75v-1.5C22,10.84,21.66,10.5,21.25,10.5z M13.75,8c0.55,0,1,0.45,1,1s-0.45,1-1,1s-1-0.45-1-1S13.2,8,13.75,8z M12,13c-0.55,0-1-0.45-1-1c0-0.55,0.45-1,1-1s1,0.45,1,1 C13,12.55,12.55,13,12,13z M10.25,8c0.55,0,1,0.45,1,1s-0.45,1-1,1s-1-0.45-1-1S9.7,8,10.25,8z M8.5,13c-0.55,0-1-0.45-1-1 c0-0.55,0.45-1,1-1s1,0.45,1,1C9.5,12.55,9.05,13,8.5,13z M10.25,16c-0.55,0-1-0.45-1-1c0-0.55,0.45-1,1-1s1,0.45,1,1 C11.25,15.55,10.8,16,10.25,16z M13.75,16c-0.55,0-1-0.45-1-1c0-0.55,0.45-1,1-1s1,0.45,1,1C14.75,15.55,14.3,16,13.75,16z M14.5,12 c0-0.55,0.45-1,1-1s1,0.45,1,1c0,0.55-0.45,1-1,1S14.5,12.55,14.5,12z"/></g></symbol><symbol id="credit_card" viewBox="0 0 24 24"><path d="M0 0h24v24H0z" fill="none"/><path d="M20 4H4c-1.11 0-1.99.89-1.99 2L2 18c0 1.11.89 2 2 2h16c1.11 0 2-.89 2-2V6c0-1.11-.89-2-2-2zm0 14H4v-6h16v6zm0-10H4V6h16v2z"/></symbol><symbol id="deck" viewBox="0 0 24 24"><g enable-background="new 0 0 24 24"><g><rect fill="none" height="24" width="24"/></g><g><g><polygon points="22,9 12,2 2,9 11,9 11,22 13,22 13,9"/><polygon points="4.14,12 2.18,12.37 3,16.74 3,22 5,22 5.02,18 7,18 7,22 9,22 9,16 4.9,16"/><polygon points="19.1,16 15,16 15,22 17,22 17,18 18.98,18 19,22 21,22 21,16.74 21.82,12.37 19.86,12"/></g></g></g></symbol><symbol id="delete" viewBox="0 0 24 24"><path d="M0 0h24v24H0z" fill="none"/><path d="M6 19c0 1.1.9 2 2 2h8c1.1 0 2-.9 2-2V7H6v12zM19 4h-3.5l-1-1h-5l-1 1H5v2h14V4z"/></symbol><symbol id="device_thermostat" viewBox="0 0 24 24"><path d="M0 0h24v24H0z" fill="none"/><path d="M15 13V5c0-1.66-1.34-3-3-3S9 3.34 9 5v8c-1.21.91-2 2.37-2 4 0 2.76 2.24 5 5 5s5-2.24 5-5c0-1.63-.79-3.09-2-4zm-4-8c0-.55.45-1 1-1s1 .45 1 1h-1v1h1v2h-1v1h1v2h-2V5z"/></symbol><symbol id="directions" viewBox="0 0 24 24"><path d="M0 0h24v24H0z" fill="none"/><path d="M21.71 11.29l-9-9c-.39-.39-1.02-.39-1.41 0l-9 9c-.39.39-.39 1.02 0 1.41l9 9c.39.39 1.02.39 1.41 0l9-9c.39-.38.39-1.01 0-1.41zM14 14.5V12h-4v3H8v-4c0-.55.45-1 1-1h5V7.5l3.5 3.5-3.5 3.5z"/></symbol><symbol id="directions_bike" viewBox="0 0 24 24"><path d="M0 0h24v24H0z" fill="none"/><path d="M15.5 5.5c1.1 0 2-.9 2-2s-.9-2-2-2-2 .9-2 2 .9 2 2 2zM5 12c-2.8 0-5 2.2-5 5s2.2 5 5 5 5-2.2 5-5-2.2-5-5-5zm0 8.5c-1.9 0-3.5-1.6-3.5-3.5s1.6-3.5 3.5-3.5 3.5 1.6 3.5 3.5-1.6 3.5-3.5 3.5zm5.8-10l2.4-2.4.8.8c1.3 1.3 3 2.1 5.1 2.1V9c-1.5 0-2.7-.6-3.6-1.5l-1.9-1.9c-.5-.4-1-.6-1.6-.6s-1.1.2-1.4.6L7.8 8.4c-.4.4-.6.9-.6 1.4 0 .6.2 1.1.6 1.4L11 14v5h2v-6.2l-2.2-2.3zM19 12c-2.8 0-5 2.2-5 5s2.2 5 5 5 5-2.2 5-5-2.2-5-5-5zm0 8.5c-1.9 0-3.5-1.6-3.5-3.5s1.6-3.5 3.5-3.5 3.5 1.6 3.5 3.5-1.6 3.5-3.5 3.5z"/></symbol><symbol id="directions_bus" viewBox="0 0 24 24"><path d="M0 0h24v24H0z" fill="none"/><path d="M4 16c0 .88.39 1.67 1 2.22V20c0 .55.45 1 1 1h1c.55 0 1-.45 1-1v-1h8v1c0 .55.45 1 1 1h1c.55 0 1-.45 1-1v-1.78c.61-.55 1-1.34 1-2.22V6c0-3.5-3.58-4-8-4s-8 .5-8 4v10zm3.5 1c-.83 0-1.5-.67-1.5-1.5S6.67 14 7.5 14s1.5.67 1.5 1.5S8.33 17 7.5 17zm9 0c-.83 0-1.5-.67-1.5-1.5s.67-1.5 1.5-1.5 1.5.67 1.5 1.5-.67 1.5-1.5 1.5zm1.5-6H6V6h12v5z"/></symbol><symbol id="directions_car" viewBox="0 0 24 24"><path d="M0 0h24v24H0z" fill="none"/><path d="M18.92 6.01C18.72 5.42 18.16 5 17.5 5h-11c-.66 0-1.21.42-1.42 1.01L3 12v8c0 .55.45 1 1 1h1c.55 0 1-.45 1-1v-1h12v1c0 .55.45 1 1 1h1c.55 0 1-.45 1-1v-8l-2.08-5.99zM6.5 16c-.83 0-1.5-.67-1.5-1.5S5.67 13 6.5 13s1.5.67 1.5 1.5S7.33 16 6.5 16zm11 0c-.83 0-1.5-.67-1.5-1.5s.67-1.5 1.5-1.5 1.5.67 1.5 1.5-.67 1.5-1.5 1.5zM5 11l1.5-4.5h11L19 11H5z"/></symbol><symbol id="directions_walk" viewBox="0 0 24 24"><path d="M0 0h24v24H0z" fill="none"/><path d="M13.5 5.5c1.1 0 2-.9 2-2s-.9-2-2-2-2 .9-2 2 .9 2 2 2zM9.8 8.9L7 23h2.1l1.8-8 2.1 2v6h2v-7.5l-2.1-2 .6-3C14.8 12 16.8 13 19 13v-2c-1.9 0-3.5-1-4.3-2.4l-1-1.6c-.4-.6-1-1-1.7-1-.3 0-.5.1-.8.1L6 8.3V13h2V9.6l1.8-.7"/></symbol><symbol id="do_not_disturb" viewBox="0 0 24 24"><path d="M0 0h24v24H0z" fill="none"/><path d="M12 2C6.48 2 2 6.48 2 12s4.48 10 10 10 10-4.48 10-10S17.52 2 12 2zm0 18c-4.42 0-8-3.58-8-8 0-1.85.63-3.55 1.69-4.9L16.9 18.31C15.55 19.37 13.85 20 12 20zm6.31-3.1L7.1 5.69C8.45 4.63 10.15 4 12 4c4.42 0 8 3.58 8 8 0 1.85-.63 3.55-1.69 4.9z"/></symbol><symbol id="do_not_touch" viewBox="0 0 24 24"><g enable-background="new 0 0 24 24"><g><rect fill="none" height="24" width="24"/><path d="M13,10.17l-2.5-2.5V2.25C10.5,1.56,11.06,1,11.75,1S13,1.56,13,2.25V10.17z M20,12.75V11V5.25C20,4.56,19.44,4,18.75,4 S17.5,4.56,17.5,5.25V11h-1V3.25C16.5,2.56,15.94,2,15.25,2S14,2.56,14,3.25v7.92l6,6V12.75z M9.5,4.25C9.5,3.56,8.94,3,8.25,3 c-0.67,0-1.2,0.53-1.24,1.18L9.5,6.67V4.25z M13,10.17l-2.5-2.5V2.25C10.5,1.56,11.06,1,11.75,1S13,1.56,13,2.25V10.17z M20,12.75 V11V5.25C20,4.56,19.44,4,18.75,4S17.5,4.56,17.5,5.25V11h-1V3.25C16.5,2.56,15.94,2,15.25,2S14,2.56,14,3.25v7.92l6,6V12.75z M9.5,4.25C9.5,3.56,8.94,3,8.25,3c-0.67,0-1.2,0.53-1.24,1.18L9.5,6.67V4.25z M21.19,21.19L2.81,2.81L1.39,4.22l5.63,5.63L7,9.83 v4.3c-1.11-0.64-2.58-1.47-2.6-1.48c-0.17-0.09-0.34-0.14-0.54-0.14c-0.26,0-0.5,0.09-0.7,0.26C3.12,12.78,2,13.88,2,13.88 l6.8,7.18c0.57,0.6,1.35,0.94,2.18,0.94H17c0.62,0,1.18-0.19,1.65-0.52l-0.02-0.02l1.15,1.15L21.19,21.19z"/></g></g></symbol><symbol id="drag_handle" viewBox="0 0 24 24"><g enable-background="new 0 0 24 24"><g><rect fill="none" height="24" width="24"/></g><g><g><g><path d="M20,9H4v2h16V9z M4,15h16v-2H4V15z"/></g></g></g></g></symbol><symbol id="eco" viewBox="0 0 24 24"><g enable-background="new 0 0 24 24"><g><rect fill="none" height="24" width="24"/></g><g><g><path d="M6.05,8.05c-2.73,2.73-2.73,7.15-0.02,9.88c1.47-3.4,4.09-6.24,7.36-7.93c-2.77,2.34-4.71,5.61-5.39,9.32 c2.6,1.23,5.8,0.78,7.95-1.37C19.43,14.47,20,4,20,4S9.53,4.57,6.05,8.05z"/></g></g></g></symbol><symbol id="edit" viewBox="0 0 24 24"><path d="M0 0h24v24H0z" fill="none"/><path d="M3 17.25V21h3.75L17.81 9.94l-3.75-3.75L3 17.25zM20.71 7.04c.39-.39.39-1.02 0-1.41l-2.34-2.34c-.39-.39-1.02-.39-1.41 0l-1.83 1.83 3.75 3.75 1.83-1.83z"/></symbol><symbol id="electrical_services" viewBox="0 0 24 24"><g enable-background="new 0 0 24 24"><g><rect fill="none" height="24" width="24"/></g><g><g><path d="M21,14c0-0.55-0.45-1-1-1h-2v2h2C20.55,15,21,14.55,21,14z"/><path d="M20,17h-2v2h2c0.55,0,1-0.45,1-1C21,17.45,20.55,17,20,17z"/><path d="M12,14h-2v4h2c0,1.1,0.9,2,2,2h3v-8h-3C12.9,12,12,12.9,12,14z"/><path d="M5,13c0-1.1,0.9-2,2-2h1.5c1.93,0,3.5-1.57,3.5-3.5S10.43,4,8.5,4H5C4.45,4,4,4.45,4,5c0,0.55,0.45,1,1,1h3.5 C9.33,6,10,6.67,10,7.5S9.33,9,8.5,9H7c-2.21,0-4,1.79-4,4c0,2.21,1.79,4,4,4h2v-2H7C5.9,15,5,14.1,5,13z"/></g></g></g></symbol><symbol id="emoji_events" viewBox="0 0 24 24"><g enable-background="new 0 0 24 24"><rect fill="none" height="24" width="24"/><path d="M19,5h-2V3H7v2H5C3.9,5,3,5.9,3,7v1c0,2.55,1.92,4.63,4.39,4.94c0.63,1.5,1.98,2.63,3.61,2.96V19H7v2h10v-2h-4v-3.1 c1.63-0.33,2.98-1.46,3.61-2.96C19.08,12.63,21,10.55,21,8V7C21,5.9,20.1,5,19,5z M5,8V7h2v3.82C5.84,10.4,5,9.3,5,8z M19,8 c0,1.3-0.84,2.4-2,2.82V7h2V8z"/></g></symbol><symbol id="error" viewBox="0 0 24 24"><path d="M0 0h24v24H0z" fill="none"/><path d="M12 2C6.48 2 2 6.48 2 12s4.48 10 10 10 10-4.48 10-10S17.52 2 12 2zm1 15h-2v-2h2v2zm0-4h-2V7h2v6z"/></symbol><symbol id="error_outline" viewBox="0 0 24 24"><path d="M0 0h24v24H0V0z" fill="none"/><path d="M11 15h2v2h-2zm0-8h2v6h-2zm.99-5C6.47 2 2 6.48 2 12s4.47 10 9.99 10C17.52 22 22 17.52 22 12S17.52 2 11.99 2zM12 20c-4.42 0-8-3.58-8-8s3.58-8 8-8 8 3.58 8 8-3.58 8-8 8z"/></symbol><symbol id="event" viewBox="0 0 24 24"><path d="M0 0h24v24H0z" fill="none"/><path d="M17 12h-5v5h5v-5zM16 1v2H8V1H6v2H5c-1.11 0-1.99.9-1.99 2L3 19c0 1.1.89 2 2 2h14c1.1 0 2-.9 2-2V5c0-1.1-.9-2-2-2h-1V1h-2zm3 18H5V8h14v11z"/></symbol><symbol id="expand_less" viewBox="0 0 24 24"><path d="M0 0h24v24H0z" fill="none"/><path d="M12 8l-6 6 1.41 1.41L12 10.83l4.59 4.58L18 14z"/></symbol><symbol id="expand_more" viewBox="0 0 24 24"><path d="M0 0h24v24H0z" fill="none"/><path d="M16.59 8.59L12 13.17 7.41 8.59 6 10l6 6 6-6z"/></symbol><symbol id="facebook" viewBox="0 0 24 24"><g enable-background="new 0 0 24 24"><rect fill="none" height="24" width="24"/><path d="M22,12c0-5.52-4.48-10-10-10S2,6.48,2,12c0,4.84,3.44,8.87,8,9.8V15H8v-3h2V9.5C10,7.57,11.57,6,13.5,6H16v3h-2 c-0.55,0-1,0.45-1,1v2h3v3h-3v6.95C18.05,21.45,22,17.19,22,12z"/></g></symbol><symbol id="fast_forward" viewBox="0 0 24 24"><path d="M0 0h24v24H0z" fill="none"/><path d="M4 18l8.5-6L4 6v12zm9-12v12l8.5-6L13 6z"/></symbol><symbol id="fast_rewind" viewBox="0 0 24 24"><path d="M0 0h24v24H0z" fill="none"/><path d="M11 18V6l-8.5 6 8.5 6zm.5-6l8.5 6V6l-8.5 6z"/></symbol><symbol id="favorite" viewBox="0 0 24 24"><path d="M0 0h24v24H0z" fill="none"/><path d="M12 21.35l-1.45-1.32C5.4 15.36 2 12.28 2 8.5 2 5.42 4.42 3 7.5 3c1.74 0 3.41.81 4.5 2.09C13.09 3.81 14.76 3 16.5 3 19.58 3 22 5.42 22 8.5c0 3.78-3.4 6.86-8.55 11.54L12 21.35z"/></symbol><symbol id="favorite_border" viewBox="0 0 24 24"><path d="M0 0h24v24H0z" fill="none"/><path d="M16.5 3c-1.74 0-3.41.81-4.5 2.09C10.91 3.81 9.24 3 7.5 3 4.42 3 2 5.42 2 8.5c0 3.78 3.4 6.86 8.55 11.54L12 21.35l1.45-1.32C18.6 15.36 22 12.28 22 8.5 22 5.42 19.58 3 16.5 3zm-4.4 15.55l-.1.1-.1-.1C7.14 14.24 4 11.39 4 8.5 4 6.5 5.5 5 7.5 5c1.54 0 3.04.99 3.57 2.36h1.87C13.46 5.99 14.96 5 16.5 5c2 0 3.5 1.5 3.5 3.5 0 2.89-3.14 5.74-7.9 10.05z"/></symbol><symbol id="file_download" viewBox="0 0 24 24"><path d="M0 0h24v24H0z" fill="none"/><path d="M19 9h-4V3H9v6H5l7 7 7-7zM5 18v2h14v-2H5z"/></symbol><symbol id="file_present" viewBox="0 0 24 24"><path d="M0 0h24v24H0V0z" fill="none"/><path d="M15 2H6c-1.1 0-2 .9-2 2v16c0 1.1.9 2 2 2h12c1.1 0 2-.9 2-2V7l-5-5zM6 20V4h8v4h4v12H6zm10-10v5c0 2.21-1.79 4-4 4s-4-1.79-4-4V8.5c0-1.47 1.26-2.64 2.76-2.49 1.3.13 2.24 1.32 2.24 2.63V15h-2V8.5c0-.28-.22-.5-.5-.5s-.5.22-.5.5V15c0 1.1.9 2 2 2s2-.9 2-2v-5h2z"/></symbol><symbol id="file_upload" viewBox="0 0 24 24"><path d="M0 0h24v24H0z" fill="none"/><path d="M9 16h6v-6h4l-7-7-7 7h4zm-4 2h14v2H5z"/></symbol><symbol id="filter_alt" viewBox="0 0 24 24"><g enable-background="new 0 0 24 24"><g><path d="M0,0h24 M24,24H0" fill="none"/><path d="M4.25,5.61C6.27,8.2,10,13,10,13v6c0,0.55,0.45,1,1,1h2c0.55,0,1-0.45,1-1v-6c0,0,3.72-4.8,5.74-7.39 C20.25,4.95,19.78,4,18.95,4H5.04C4.21,4,3.74,4.95,4.25,5.61z"/><path d="M0,0h24v24H0V0z" fill="none"/></g></g></symbol><symbol id="filter_list" viewBox="0 0 24 24"><path d="M0 0h24v24H0z" fill="none"/><path d="M10 18h4v-2h-4v2zM3 6v2h18V6H3zm3 7h12v-2H6v2z"/></symbol><symbol id="fingerprint" viewBox="0 0 24 24"><path d="M0 0h24v24H0z" fill="none"/><path d="M17.81 4.47c-.08 0-.16-.02-.23-.06C15.66 3.42 14 3 12.01 3c-1.98 0-3.86.47-5.57 1.41-.24.13-.54.04-.68-.2-.13-.24-.04-.55.2-.68C7.82 2.52 9.86 2 12.01 2c2.13 0 3.99.47 6.03 1.52.25.13.34.43.21.67-.09.18-.26.28-.44.28zM3.5 9.72c-.1 0-.2-.03-.29-.09-.23-.16-.28-.47-.12-.7.99-1.4 2.25-2.5 3.75-3.27C9.98 4.04 14 4.03 17.15 5.65c1.5.77 2.76 1.86 3.75 3.25.16.22.11.54-.12.7-.23.16-.54.11-.7-.12-.9-1.26-2.04-2.25-3.39-2.94-2.87-1.47-6.54-1.47-9.4.01-1.36.7-2.5 1.7-3.4 2.96-.08.14-.23.21-.39.21zm6.25 12.07c-.13 0-.26-.05-.35-.15-.87-.87-1.34-1.43-2.01-2.64-.69-1.23-1.05-2.73-1.05-4.34 0-2.97 2.54-5.39 5.66-5.39s5.66 2.42 5.66 5.39c0 .28-.22.5-.5.5s-.5-.22-.5-.5c0-2.42-2.09-4.39-4.66-4.39-2.57 0-4.66 1.97-4.66 4.39 0 1.44.32 2.77.93 3.85.64 1.15 1.08 1.64 1.85 2.42.19.2.19.51 0 .71-.11.1-.24.15-.37.15zm7.17-1.85c-1.19 0-2.24-.3-3.1-.89-1.49-1.01-2.38-2.65-2.38-4.39 0-.28.22-.5.5-.5s.5.22.5.5c0 1.41.72 2.74 1.94 3.56.71.48 1.54.71 2.54.71.24 0 .64-.03 1.04-.1.27-.05.53.13.58.41.05.27-.13.53-.41.58-.57.11-1.07.12-1.21.12zM14.91 22c-.04 0-.09-.01-.13-.02-1.59-.44-2.63-1.03-3.72-2.1-1.4-1.39-2.17-3.24-2.17-5.22 0-1.62 1.38-2.94 3.08-2.94 1.7 0 3.08 1.32 3.08 2.94 0 1.07.93 1.94 2.08 1.94s2.08-.87 2.08-1.94c0-3.77-3.25-6.83-7.25-6.83-2.84 0-5.44 1.58-6.61 4.03-.39.81-.59 1.76-.59 2.8 0 .78.07 2.01.67 3.61.1.26-.03.55-.29.64-.26.1-.55-.04-.64-.29-.49-1.31-.73-2.61-.73-3.96 0-1.2.23-2.29.68-3.24 1.33-2.79 4.28-4.6 7.51-4.6 4.55 0 8.25 3.51 8.25 7.83 0 1.62-1.38 2.94-3.08 2.94s-3.08-1.32-3.08-2.94c0-1.07-.93-1.94-2.08-1.94s-2.08.87-2.08 1.94c0 1.71.66 3.31 1.87 4.51.95.94 1.86 1.46 3.27 1.85.27.07.42.35.35.61-.05.23-.26.38-.47.38z"/></symbol><symbol id="first_page" viewBox="0 0 24 24"><path d="M18.41 16.59L13.82 12l4.59-4.59L17 6l-6 6 6 6zM6 6h2v12H6z"/><path d="M24 24H0V0h24v24z" fill="none"/></symbol><symbol id="flag" viewBox="0 0 24 24"><path d="M0 0h24v24H0z" fill="none"/><path d="M14.4 6L14 4H5v17h2v-7h5.6l.4 2h7V6z"/></symbol><symbol id="flickr" viewBox="0 0 24 24"><path id="Flickr" d="M12,2A10,10,0,1,0,22,12,10,10,0,0,0,12,2ZM8.15,15.08A3.08,3.08,0,1,1,11.22,12,3.07,3.07,0,0,1,8.15,15.08Zm7.7,0A3.08,3.08,0,1,1,18.92,12,3.07,3.07,0,0,1,15.85,15.08Z"/></symbol><symbol id="flight" viewBox="0 0 24 24"><path d="M0 0h24v24H0z" fill="none"/><path d="M21 16v-2l-8-5V3.5c0-.83-.67-1.5-1.5-1.5S10 2.67 10 3.5V9l-8 5v2l8-2.5V19l-2 1.5V22l3.5-1 3.5 1v-1.5L13 19v-5.5l8 2.5z"/></symbol><symbol id="flooding" viewBox="0 0 24 24"><g id="Flooding"><path d="M17,18.16a6,6,0,0,0-2.95.8,4.08,4.08,0,0,1-2.05.6A3.81,3.81,0,0,1,10,19a5.84,5.84,0,0,0-5.9,0,4.05,4.05,0,0,1-2,.6v2a6,6,0,0,0,3-.8A4.05,4.05,0,0,1,7,20.11a3.87,3.87,0,0,1,2.05.6,5.84,5.84,0,0,0,5.9,0,4.08,4.08,0,0,1,2.05-.6,3.81,3.81,0,0,1,2.05.6,5.9,5.9,0,0,0,2.95.8v-2A3.81,3.81,0,0,1,20,19,6,6,0,0,0,17,18.16Z"/><path d="M20,14.51A6.8,6.8,0,0,0,18,13.8V10h3L12,3,3,10H6v3.8a6.8,6.8,0,0,0-1.95.71,4.15,4.15,0,0,1-2,.6v1.95a6.07,6.07,0,0,0,3-.8,3.8,3.8,0,0,1,4.1,0,5.87,5.87,0,0,0,2.95.8,6,6,0,0,0,2.95-.8,3.8,3.8,0,0,1,4.1,0,5.9,5.9,0,0,0,2.95.8V15.11A3.81,3.81,0,0,1,20,14.51Zm-9.95,0V11h4v3.54a4.19,4.19,0,0,1-2,.57A3.8,3.8,0,0,1,10,14.54Z"/></g></symbol><symbol id="folder" viewBox="0 0 24 24"><path d="M0 0h24v24H0z" fill="none"/><path d="M10 4H4c-1.1 0-1.99.9-1.99 2L2 18c0 1.1.9 2 2 2h16c1.1 0 2-.9 2-2V8c0-1.1-.9-2-2-2h-8l-2-2z"/></symbol><symbol id="folder_open" viewBox="0 0 24 24"><path d="M0 0h24v24H0z" fill="none"/><path d="M20 6h-8l-2-2H4c-1.1 0-1.99.9-1.99 2L2 18c0 1.1.9 2 2 2h16c1.1 0 2-.9 2-2V8c0-1.1-.9-2-2-2zm0 12H4V8h16v10z"/></symbol><symbol id="format_quote" viewBox="0 0 24 24"><path d="M0 0h24v24H0z" fill="none"/><path d="M6 17h3l2-4V7H5v6h3zm8 0h3l2-4V7h-6v6h3z"/></symbol><symbol id="format_size" viewBox="0 0 24 24"><path d="M0 0h24v24H0z" fill="none"/><path d="M9 4v3h5v12h3V7h5V4H9zm-6 8h3v7h3v-7h3V9H3v3z"/></symbol><symbol id="forum" viewBox="0 0 24 24"><path d="M0 0h24v24H0z" fill="none"/><path d="M21 6h-2v9H6v2c0 .55.45 1 1 1h11l4 4V7c0-.55-.45-1-1-1zm-4 6V3c0-.55-.45-1-1-1H3c-.55 0-1 .45-1 1v14l4-4h10c.55 0 1-.45 1-1z"/></symbol><symbol id="github" viewBox="0 0 24 24"><path d="M12 2a10 10 0 0 0-3.16 19.49c.5.09.68-.22.68-.48v-1.7C6.73 19.91 6.14 18 6.14 18A2.69 2.69 0 0 0 5 16.5c-.91-.62.07-.61.07-.61a2.13 2.13 0 0 1 1.53 1 2.14 2.14 0 0 0 2.91.83 2.16 2.16 0 0 1 .63-1.34c-2.14-.21-4.52-1.07-4.52-4.9a3.89 3.89 0 0 1 1-2.69 3.57 3.57 0 0 1 .1-2.64s.84-.27 2.75 1a9.63 9.63 0 0 1 5 0c1.91-1.29 2.75-1 2.75-1a3.57 3.57 0 0 1 .1 2.64 3.89 3.89 0 0 1 1 2.69c0 3.84-2.34 4.68-4.57 4.93a2.39 2.39 0 0 1 .68 1.85v2.75c0 .33.18.58.69.48A10 10 0 0 0 12 2Z" fill-rule="evenodd"/></symbol><symbol id="grid_view" viewBox="0 0 24 24"><g fill-rule="evenodd"><path d="M0 0h24v24H0z" fill="none"/><path d="M3 3v8h8V3H3zm6 6H5V5h4v4zm-6 4v8h8v-8H3zm6 6H5v-4h4v4zm4-16v8h8V3h-8zm6 6h-4V5h4v4zm-6 4v8h8v-8h-8zm6 6h-4v-4h4v4z"/></g></symbol><symbol id="group_add" viewBox="0 0 24 24"><path d="M0 0h24v24H0z" fill="none"/><path d="M8 10H5V7H3v3H0v2h3v3h2v-3h3v-2zm10 1c1.66 0 2.99-1.34 2.99-3S19.66 5 18 5c-.32 0-.63.05-.91.14.57.81.9 1.79.9 2.86s-.34 2.04-.9 2.86c.28.09.59.14.91.14zm-5 0c1.66 0 2.99-1.34 2.99-3S14.66 5 13 5c-1.66 0-3 1.34-3 3s1.34 3 3 3zm6.62 2.16c.83.73 1.38 1.66 1.38 2.84v2h3v-2c0-1.54-2.37-2.49-4.38-2.84zM13 13c-2 0-6 1-6 3v2h12v-2c0-2-4-3-6-3z"/></symbol><symbol id="groups" viewBox="0 0 24 24"><g enable-background="new 0 0 24 24"><rect fill="none" height="24" width="24"/><g><path d="M12,12.75c1.63,0,3.07,0.39,4.24,0.9c1.08,0.48,1.76,1.56,1.76,2.73L18,18H6l0-1.61c0-1.18,0.68-2.26,1.76-2.73 C8.93,13.14,10.37,12.75,12,12.75z M4,13c1.1,0,2-0.9,2-2c0-1.1-0.9-2-2-2s-2,0.9-2,2C2,12.1,2.9,13,4,13z M5.13,14.1 C4.76,14.04,4.39,14,4,14c-0.99,0-1.93,0.21-2.78,0.58C0.48,14.9,0,15.62,0,16.43V18l4.5,0v-1.61C4.5,15.56,4.73,14.78,5.13,14.1z M20,13c1.1,0,2-0.9,2-2c0-1.1-0.9-2-2-2s-2,0.9-2,2C18,12.1,18.9,13,20,13z M24,16.43c0-0.81-0.48-1.53-1.22-1.85 C21.93,14.21,20.99,14,20,14c-0.39,0-0.76,0.04-1.13,0.1c0.4,0.68,0.63,1.46,0.63,2.29V18l4.5,0V16.43z M12,6c1.66,0,3,1.34,3,3 c0,1.66-1.34,3-3,3s-3-1.34-3-3C9,7.34,10.34,6,12,6z"/></g></g></symbol><symbol id="hearing" viewBox="0 0 24 24"><path d="M0 0h24v24H0z" fill="none"/><path d="M17 20c-.29 0-.56-.06-.76-.15-.71-.37-1.21-.88-1.71-2.38-.51-1.56-1.47-2.29-2.39-3-.79-.61-1.61-1.24-2.32-2.53C9.29 10.98 9 9.93 9 9c0-2.8 2.2-5 5-5s5 2.2 5 5h2c0-3.93-3.07-7-7-7S7 5.07 7 9c0 1.26.38 2.65 1.07 3.9.91 1.65 1.98 2.48 2.85 3.15.81.62 1.39 1.07 1.71 2.05.6 1.82 1.37 2.84 2.73 3.55.51.23 1.07.35 1.64.35 2.21 0 4-1.79 4-4h-2c0 1.1-.9 2-2 2zM7.64 2.64L6.22 1.22C4.23 3.21 3 5.96 3 9s1.23 5.79 3.22 7.78l1.41-1.41C6.01 13.74 5 11.49 5 9s1.01-4.74 2.64-6.36zM11.5 9c0 1.38 1.12 2.5 2.5 2.5s2.5-1.12 2.5-2.5-1.12-2.5-2.5-2.5-2.5 1.12-2.5 2.5z"/></symbol><symbol id="help" viewBox="0 0 24 24"><path d="M0 0h24v24H0z" fill="none"/><path d="M12 2C6.48 2 2 6.48 2 12s4.48 10 10 10 10-4.48 10-10S17.52 2 12 2zm1 17h-2v-2h2v2zm2.07-7.75l-.9.92C13.45 12.9 13 13.5 13 15h-2v-.5c0-1.1.45-2.1 1.17-2.83l1.24-1.26c.37-.36.59-.86.59-1.41 0-1.1-.9-2-2-2s-2 .9-2 2H8c0-2.21 1.79-4 4-4s4 1.79 4 4c0 .88-.36 1.68-.93 2.25z"/></symbol><symbol id="help_outline" viewBox="0 0 24 24"><path d="M0 0h24v24H0z" fill="none"/><path d="M11 18h2v-2h-2v2zm1-16C6.48 2 2 6.48 2 12s4.48 10 10 10 10-4.48 10-10S17.52 2 12 2zm0 18c-4.41 0-8-3.59-8-8s3.59-8 8-8 8 3.59 8 8-3.59 8-8 8zm0-14c-2.21 0-4 1.79-4 4h2c0-1.1.9-2 2-2s2 .9 2 2c0 2-3 1.75-3 5h2c0-2.25 3-2.5 3-5 0-2.21-1.79-4-4-4z"/></symbol><symbol id="highlight_off" viewBox="0 0 24 24"><path d="M0 0h24v24H0z" fill="none"/><path d="M14.59 8L12 10.59 9.41 8 8 9.41 10.59 12 8 14.59 9.41 16 12 13.41 14.59 16 16 14.59 13.41 12 16 9.41 14.59 8zM12 2C6.47 2 2 6.47 2 12s4.47 10 10 10 10-4.47 10-10S17.53 2 12 2zm0 18c-4.41 0-8-3.59-8-8s3.59-8 8-8 8 3.59 8 8-3.59 8-8 8z"/></symbol><symbol id="history" viewBox="0 0 24 24"><path d="M0 0h24v24H0z" fill="none"/><path d="M13 3c-4.97 0-9 4.03-9 9H1l3.89 3.89.07.14L9 12H6c0-3.87 3.13-7 7-7s7 3.13 7 7-3.13 7-7 7c-1.93 0-3.68-.79-4.94-2.06l-1.42 1.42C8.27 19.99 10.51 21 13 21c4.97 0 9-4.03 9-9s-4.03-9-9-9zm-1 5v5l4.28 2.54.72-1.21-3.5-2.08V8H12z"/></symbol><symbol id="home" viewBox="0 0 24 24"><path d="M0 0h24v24H0z" fill="none"/><path d="M10 20v-6h4v6h5v-8h3L12 3 2 12h3v8z"/></symbol><symbol id="hospital" viewBox="0 0 24 24"><path id="Hospital" d="M19,3H5A2,2,0,0,0,3,5V19a2,2,0,0,0,2,2H19a2,2,0,0,0,2-2V5A2,2,0,0,0,19,3ZM16,17H14V13H10v4H8V7h2v4h4V7h2Z"/></symbol><symbol id="hotel" viewBox="0 0 24 24"><path d="M0 0h24v24H0z" fill="none"/><path d="M7 13c1.66 0 3-1.34 3-3S8.66 7 7 7s-3 1.34-3 3 1.34 3 3 3zm12-6h-8v7H3V5H1v15h2v-3h18v3h2v-9c0-2.21-1.79-4-4-4z"/></symbol><symbol id="hourglass_empty" viewBox="0 0 24 24"><path d="M0 0h24v24H0V0z" fill="none"/><path d="M6 2v6h.01L6 8.01 10 12l-4 4 .01.01H6V22h12v-5.99h-.01L18 16l-4-4 4-3.99-.01-.01H18V2H6zm10 14.5V20H8v-3.5l4-4 4 4zm-4-5l-4-4V4h8v3.5l-4 4z"/></symbol><symbol id="hurricane" viewBox="0 0 24 24"><path id="Hurricane" d="M19,12a7,7,0,0,0-6.34-7,27.32,27.32,0,0,1,2.21-2.09.44.44,0,0,0-.29-.78,10.62,10.62,0,0,0-9.17,7.5,4.26,4.26,0,0,0-.15.47l0,.06h0A7.18,7.18,0,0,0,5,12a7,7,0,0,0,6.35,7,27.71,27.71,0,0,1-2.21,2.1.44.44,0,0,0,.29.78,10.65,10.65,0,0,0,9.23-7.69c0-.05,0-.09,0-.14s.05-.13.07-.2h0A6.76,6.76,0,0,0,19,12Zm-7,3.5A3.5,3.5,0,1,1,15.5,12,3.5,3.5,0,0,1,12,15.5Z"/></symbol><symbol id="identification" viewBox="0 0 24 24"><g id="Identification"><path d="M11,14.14C11,13.38,9.33,13,8.5,13S6,13.38,6,14.14V15h5Z"/><circle cx="8.5" cy="10.5" r="1.5"/><path d="M20,4H4A2,2,0,0,0,2,6V18a2,2,0,0,0,2,2H20a2,2,0,0,0,2-2V6A2,2,0,0,0,20,4ZM13,17H4V7h9Zm7,0H15V15h5Zm0-4H15V11h5Zm0-4H15V7h5Z"/></g></symbol><symbol id="image" viewBox="0 0 24 24"><path d="M0 0h24v24H0z" fill="none"/><path d="M21 19V5c0-1.1-.9-2-2-2H5c-1.1 0-2 .9-2 2v14c0 1.1.9 2 2 2h14c1.1 0 2-.9 2-2zM8.5 13.5l2.5 3.01L14.5 12l4.5 6H5l3.5-4.5z"/></symbol><symbol id="info" viewBox="0 0 24 24"><path d="M0 0h24v24H0z" fill="none"/><path d="M12 2C6.48 2 2 6.48 2 12s4.48 10 10 10 10-4.48 10-10S17.52 2 12 2zm1 15h-2v-6h2v6zm0-8h-2V7h2v2z"/></symbol><symbol id="info_outline" viewBox="0 0 24 24"><g enable-background="new 0 0 24 24"><g><path d="M0,0h24v24H0V0z" fill="none"/><path d="M11,7h2v2h-2V7z M11,11h2v6h-2V11z M12,2C6.48,2,2,6.48,2,12s4.48,10,10,10s10-4.48,10-10S17.52,2,12,2z M12,20 c-4.41,0-8-3.59-8-8s3.59-8,8-8s8,3.59,8,8S16.41,20,12,20z"/></g></g></symbol><symbol id="insights" viewBox="0 0 24 24"><g enable-background="new 0 0 24 24"><g><rect fill="none" height="24" width="24"/></g><g><g><path d="M21,8c-1.45,0-2.26,1.44-1.93,2.51l-3.55,3.56c-0.3-0.09-0.74-0.09-1.04,0l-2.55-2.55C12.27,10.45,11.46,9,10,9 c-1.45,0-2.27,1.44-1.93,2.52l-4.56,4.55C2.44,15.74,1,16.55,1,18c0,1.1,0.9,2,2,2c1.45,0,2.26-1.44,1.93-2.51l4.55-4.56 c0.3,0.09,0.74,0.09,1.04,0l2.55,2.55C12.73,16.55,13.54,18,15,18c1.45,0,2.27-1.44,1.93-2.52l3.56-3.55 C21.56,12.26,23,11.45,23,10C23,8.9,22.1,8,21,8z"/><polygon points="15,9 15.94,6.93 18,6 15.94,5.07 15,3 14.08,5.07 12,6 14.08,6.93"/><polygon points="3.5,11 4,9 6,8.5 4,8 3.5,6 3,8 1,8.5 3,9"/></g></g></g></symbol><symbol id="instagram" viewBox="0 0 24 24"><g id="Instagram"><path d="M12,10a2,2,0,1,0,2,2A2,2,0,0,0,12,10Z"/><path d="M12,2A10,10,0,1,0,22,12,10,10,0,0,0,12,2Zm6,12.69A3.32,3.32,0,0,1,14.69,18H9.31A3.32,3.32,0,0,1,6,14.69V9.31A3.32,3.32,0,0,1,9.31,6h5.38A3.32,3.32,0,0,1,18,9.31Z"/><path d="M16.94,9.31a2.25,2.25,0,0,0-2.25-2.25H9.31A2.25,2.25,0,0,0,7.06,9.31v5.38a2.25,2.25,0,0,0,2.25,2.25h5.38a2.25,2.25,0,0,0,2.25-2.25h0ZM12,15.09A3.09,3.09,0,1,1,15.09,12,3.09,3.09,0,0,1,12,15.09Zm3.77-5.75a.79.79,0,0,1-.55.23.83.83,0,0,1-.55-.23.78.78,0,0,1,0-1.11A.82.82,0,0,1,15.22,8a.78.78,0,0,1,.55,1.33Z"/></g></symbol><symbol id="keyboard" viewBox="0 0 24 24"><path d="M20 5H4c-1.1 0-1.99.9-1.99 2L2 17c0 1.1.9 2 2 2h16c1.1 0 2-.9 2-2V7c0-1.1-.9-2-2-2zm-9 3h2v2h-2V8zm0 3h2v2h-2v-2zM8 8h2v2H8V8zm0 3h2v2H8v-2zm-1 2H5v-2h2v2zm0-3H5V8h2v2zm9 7H8v-2h8v2zm0-4h-2v-2h2v2zm0-3h-2V8h2v2zm3 3h-2v-2h2v2zm0-3h-2V8h2v2z"/><path d="M0 0h24v24H0zm0 0h24v24H0z" fill="none"/></symbol><symbol id="label" viewBox="0 0 24 24"><path d="M0 0h24v24H0z" fill="none"/><path d="M17.63 5.84C17.27 5.33 16.67 5 16 5L5 5.01C3.9 5.01 3 5.9 3 7v10c0 1.1.9 1.99 2 1.99L16 19c.67 0 1.27-.33 1.63-.84L22 12l-4.37-6.16z"/></symbol><symbol id="language" viewBox="0 0 24 24"><path d="M0 0h24v24H0z" fill="none"/><path d="M11.99 2C6.47 2 2 6.48 2 12s4.47 10 9.99 10C17.52 22 22 17.52 22 12S17.52 2 11.99 2zm6.93 6h-2.95c-.32-1.25-.78-2.45-1.38-3.56 1.84.63 3.37 1.91 4.33 3.56zM12 4.04c.83 1.2 1.48 2.53 1.91 3.96h-3.82c.43-1.43 1.08-2.76 1.91-3.96zM4.26 14C4.1 13.36 4 12.69 4 12s.1-1.36.26-2h3.38c-.08.66-.14 1.32-.14 2 0 .68.06 1.34.14 2H4.26zm.82 2h2.95c.32 1.25.78 2.45 1.38 3.56-1.84-.63-3.37-1.9-4.33-3.56zm2.95-8H5.08c.96-1.66 2.49-2.93 4.33-3.56C8.81 5.55 8.35 6.75 8.03 8zM12 19.96c-.83-1.2-1.48-2.53-1.91-3.96h3.82c-.43 1.43-1.08 2.76-1.91 3.96zM14.34 14H9.66c-.09-.66-.16-1.32-.16-2 0-.68.07-1.35.16-2h4.68c.09.65.16 1.32.16 2 0 .68-.07 1.34-.16 2zm.25 5.56c.6-1.11 1.06-2.31 1.38-3.56h2.95c-.96 1.65-2.49 2.93-4.33 3.56zM16.36 14c.08-.66.14-1.32.14-2 0-.68-.06-1.34-.14-2h3.38c.16.64.26 1.31.26 2s-.1 1.36-.26 2h-3.38z"/></symbol><symbol id="last_page" viewBox="0 0 24 24"><path d="M0 0h24v24H0V0z" fill="none"/><path d="M5.59 7.41L10.18 12l-4.59 4.59L7 18l6-6-6-6zM16 6h2v12h-2z"/></symbol><symbol id="launch" viewBox="0 0 24 24"><path d="M0 0h24v24H0z" fill="none"/><path d="M19 19H5V5h7V3H5c-1.11 0-2 .9-2 2v14c0 1.1.89 2 2 2h14c1.1 0 2-.9 2-2v-7h-2v7zM14 3v2h3.59l-9.83 9.83 1.41 1.41L19 6.41V10h2V3h-7z"/></symbol><symbol id="lightbulb" viewBox="0 0 24 24"><path d="M0 0h24v24H0z" fill="none"/><path d="M9 21c0 .5.4 1 1 1h4c.6 0 1-.5 1-1v-1H9v1zm3-19C8.1 2 5 5.1 5 9c0 2.4 1.2 4.5 3 5.7V17c0 .5.4 1 1 1h6c.6 0 1-.5 1-1v-2.3c1.8-1.3 3-3.4 3-5.7 0-3.9-3.1-7-7-7z"/></symbol><symbol id="lightbulb_outline" viewBox="0 0 24 24"><g enable-background="new 0 0 24 24"><g><rect fill="none" height="24" width="24"/></g><g><g><g><path d="M9,21c0,0.55,0.45,1,1,1h4c0.55,0,1-0.45,1-1v-1H9V21z M12,2C8.14,2,5,5.14,5,9c0,2.38,1.19,4.47,3,5.74V17 c0,0.55,0.45,1,1,1h6c0.55,0,1-0.45,1-1v-2.26c1.81-1.27,3-3.36,3-5.74C19,5.14,15.86,2,12,2z M14,13.7V16h-4v-2.3 C8.48,12.63,7,11.53,7,9c0-2.76,2.24-5,5-5s5,2.24,5,5C17,11.49,15.49,12.65,14,13.7z"/></g></g></g></g></symbol><symbol id="link" viewBox="0 0 24 24"><path d="M0 0h24v24H0z" fill="none"/><path d="M3.9 12c0-1.71 1.39-3.1 3.1-3.1h4V7H7c-2.76 0-5 2.24-5 5s2.24 5 5 5h4v-1.9H7c-1.71 0-3.1-1.39-3.1-3.1zM8 13h8v-2H8v2zm9-6h-4v1.9h4c1.71 0 3.1 1.39 3.1 3.1s-1.39 3.1-3.1 3.1h-4V17h4c2.76 0 5-2.24 5-5s-2.24-5-5-5z"/></symbol><symbol id="link_off" viewBox="0 0 24 24"><path d="M0 0h24v24H0V0z" fill="none"/><path d="M17 7h-4v1.9h4c1.71 0 3.1 1.39 3.1 3.1 0 1.43-.98 2.63-2.31 2.98l1.46 1.46C20.88 15.61 22 13.95 22 12c0-2.76-2.24-5-5-5zm-1 4h-2.19l2 2H16zM2 4.27l3.11 3.11C3.29 8.12 2 9.91 2 12c0 2.76 2.24 5 5 5h4v-1.9H7c-1.71 0-3.1-1.39-3.1-3.1 0-1.59 1.21-2.9 2.76-3.07L8.73 11H8v2h2.73L13 15.27V17h1.73l4.01 4L20 19.74 3.27 3 2 4.27z"/><path d="M0 24V0" fill="none"/></symbol><symbol id="list" viewBox="0 0 24 24"><path d="M0 0h24v24H0z" fill="none"/><path d="M3 13h2v-2H3v2zm0 4h2v-2H3v2zm0-8h2V7H3v2zm4 4h14v-2H7v2zm0 4h14v-2H7v2zM7 7v2h14V7H7z"/></symbol><symbol id="local_cafe" viewBox="0 0 24 24"><path d="M0 0h24v24H0V0z" fill="none"/><path d="M20 3H4v10c0 2.21 1.79 4 4 4h6c2.21 0 4-1.79 4-4v-3h2c1.11 0 2-.9 2-2V5c0-1.11-.89-2-2-2zm0 5h-2V5h2v3zM4 19h16v2H4z"/></symbol><symbol id="local_fire_department" viewBox="0 0 24 24"><g enable-background="new 0 0 24 24"><g><rect fill="none" height="24" width="24" y="0"/></g><g><path d="M19.48,12.35c-1.57-4.08-7.16-4.3-5.81-10.23c0.1-0.44-0.37-0.78-0.75-0.55C9.29,3.71,6.68,8,8.87,13.62 c0.18,0.46-0.36,0.89-0.75,0.59c-1.81-1.37-2-3.34-1.84-4.75c0.06-0.52-0.62-0.77-0.91-0.34C4.69,10.16,4,11.84,4,14.37 c0.38,5.6,5.11,7.32,6.81,7.54c2.43,0.31,5.06-0.14,6.95-1.87C19.84,18.11,20.6,15.03,19.48,12.35z M10.2,17.38 c1.44-0.35,2.18-1.39,2.38-2.31c0.33-1.43-0.96-2.83-0.09-5.09c0.33,1.87,3.27,3.04,3.27,5.08C15.84,17.59,13.1,19.76,10.2,17.38z"/></g></g></symbol><symbol id="local_gas_station" viewBox="0 0 24 24"><path d="M0 0h24v24H0z" fill="none"/><path d="M19.77 7.23l.01-.01-3.72-3.72L15 4.56l2.11 2.11c-.94.36-1.61 1.26-1.61 2.33 0 1.38 1.12 2.5 2.5 2.5.36 0 .69-.08 1-.21v7.21c0 .55-.45 1-1 1s-1-.45-1-1V14c0-1.1-.9-2-2-2h-1V5c0-1.1-.9-2-2-2H6c-1.1 0-2 .9-2 2v16h10v-7.5h1.5v5c0 1.38 1.12 2.5 2.5 2.5s2.5-1.12 2.5-2.5V9c0-.69-.28-1.32-.73-1.77zM12 10H6V5h6v5zm6 0c-.55 0-1-.45-1-1s.45-1 1-1 1 .45 1 1-.45 1-1 1z"/></symbol><symbol id="local_grocery_store" viewBox="0 0 24 24"><path d="M0 0h24v24H0z" fill="none"/><path d="M7 18c-1.1 0-1.99.9-1.99 2S5.9 22 7 22s2-.9 2-2-.9-2-2-2zM1 2v2h2l3.6 7.59-1.35 2.45c-.16.28-.25.61-.25.96 0 1.1.9 2 2 2h12v-2H7.42c-.14 0-.25-.11-.25-.25l.03-.12.9-1.63h7.45c.75 0 1.41-.41 1.75-1.03l3.58-6.49c.08-.14.12-.31.12-.48 0-.55-.45-1-1-1H5.21l-.94-2H1zm16 16c-1.1 0-1.99.9-1.99 2s.89 2 1.99 2 2-.9 2-2-.9-2-2-2z"/></symbol><symbol id="local_hospital" viewBox="0 0 24 24"><path d="M0 0h24v24H0z" fill="none"/><path d="M19 3H5c-1.1 0-1.99.9-1.99 2L3 19c0 1.1.9 2 2 2h14c1.1 0 2-.9 2-2V5c0-1.1-.9-2-2-2zm-1 11h-4v4h-4v-4H6v-4h4V6h4v4h4v4z"/></symbol><symbol id="local_laundry_service" viewBox="0 0 24 24"><path d="M0 0h24v24H0z" fill="none"/><path d="M9.17 16.83c1.56 1.56 4.1 1.56 5.66 0 1.56-1.56 1.56-4.1 0-5.66l-5.66 5.66zM18 2.01L6 2c-1.11 0-2 .89-2 2v16c0 1.11.89 2 2 2h12c1.11 0 2-.89 2-2V4c0-1.11-.89-1.99-2-1.99zM10 4c.55 0 1 .45 1 1s-.45 1-1 1-1-.45-1-1 .45-1 1-1zM7 4c.55 0 1 .45 1 1s-.45 1-1 1-1-.45-1-1 .45-1 1-1zm5 16c-3.31 0-6-2.69-6-6s2.69-6 6-6 6 2.69 6 6-2.69 6-6 6z"/></symbol><symbol id="local_library" viewBox="0 0 24 24"><path d="M0 0h24v24H0z" fill="none"/><path d="M12 11.55C9.64 9.35 6.48 8 3 8v11c3.48 0 6.64 1.35 9 3.55 2.36-2.19 5.52-3.55 9-3.55V8c-3.48 0-6.64 1.35-9 3.55zM12 8c1.66 0 3-1.34 3-3s-1.34-3-3-3-3 1.34-3 3 1.34 3 3 3z"/></symbol><symbol id="local_offer" viewBox="0 0 24 24"><path d="M0 0h24v24H0z" fill="none"/><path d="M21.41 11.58l-9-9C12.05 2.22 11.55 2 11 2H4c-1.1 0-2 .9-2 2v7c0 .55.22 1.05.59 1.42l9 9c.36.36.86.58 1.41.58.55 0 1.05-.22 1.41-.59l7-7c.37-.36.59-.86.59-1.41 0-.55-.23-1.06-.59-1.42zM5.5 7C4.67 7 4 6.33 4 5.5S4.67 4 5.5 4 7 4.67 7 5.5 6.33 7 5.5 7z"/></symbol><symbol id="local_parking" viewBox="0 0 24 24"><path d="M0 0h24v24H0z" fill="none"/><path d="M13 3H6v18h4v-6h3c3.31 0 6-2.69 6-6s-2.69-6-6-6zm.2 8H10V7h3.2c1.1 0 2 .9 2 2s-.9 2-2 2z"/></symbol><symbol id="local_pharmacy" viewBox="0 0 24 24"><path d="M0 0h24v24H0z" fill="none"/><path d="M21 5h-2.64l1.14-3.14L17.15 1l-1.46 4H3v2l2 6-2 6v2h18v-2l-2-6 2-6V5zm-5 9h-3v3h-2v-3H8v-2h3V9h2v3h3v2z"/></symbol><symbol id="local_police" viewBox="0 0 24 24"><g enable-background="new 0 0 24 24"><rect fill="none" height="24" width="24"/><path d="M12,1L3,5v6c0,5.55,3.84,10.74,9,12c5.16-1.26,9-6.45,9-12V5L12,1z M14.5,12.59l0.9,3.88L12,14.42l-3.4,2.05l0.9-3.87 l-3-2.59l3.96-0.34L12,6.02l1.54,3.64L17.5,10L14.5,12.59z"/></g></symbol><symbol id="local_taxi" viewBox="0 0 24 24"><path d="M0 0h24v24H0z" fill="none"/><path d="M18.92 6.01C18.72 5.42 18.16 5 17.5 5H15V3H9v2H6.5c-.66 0-1.21.42-1.42 1.01L3 12v8c0 .55.45 1 1 1h1c.55 0 1-.45 1-1v-1h12v1c0 .55.45 1 1 1h1c.55 0 1-.45 1-1v-8l-2.08-5.99zM6.5 16c-.83 0-1.5-.67-1.5-1.5S5.67 13 6.5 13s1.5.67 1.5 1.5S7.33 16 6.5 16zm11 0c-.83 0-1.5-.67-1.5-1.5s.67-1.5 1.5-1.5 1.5.67 1.5 1.5-.67 1.5-1.5 1.5zM5 11l1.5-4.5h11L19 11H5z"/></symbol><symbol id="location_city" viewBox="0 0 24 24"><path d="M0 0h24v24H0z" fill="none"/><path d="M15 11V5l-3-3-3 3v2H3v14h18V11h-6zm-8 8H5v-2h2v2zm0-4H5v-2h2v2zm0-4H5V9h2v2zm6 8h-2v-2h2v2zm0-4h-2v-2h2v2zm0-4h-2V9h2v2zm0-4h-2V5h2v2zm6 12h-2v-2h2v2zm0-4h-2v-2h2v2z"/></symbol><symbol id="location_on" viewBox="0 0 24 24"><path d="M0 0h24v24H0z" fill="none"/><path d="M12 2C8.13 2 5 5.13 5 9c0 5.25 7 13 7 13s7-7.75 7-13c0-3.87-3.13-7-7-7zm0 9.5c-1.38 0-2.5-1.12-2.5-2.5s1.12-2.5 2.5-2.5 2.5 1.12 2.5 2.5-1.12 2.5-2.5 2.5z"/></symbol><symbol id="lock" viewBox="0 0 24 24"><path d="M0 0h24v24H0z" fill="none"/><path d="M18 8h-1V6c0-2.76-2.24-5-5-5S7 3.24 7 6v2H6c-1.1 0-2 .9-2 2v10c0 1.1.9 2 2 2h12c1.1 0 2-.9 2-2V10c0-1.1-.9-2-2-2zm-6 9c-1.1 0-2-.9-2-2s.9-2 2-2 2 .9 2 2-.9 2-2 2zm3.1-9H8.9V6c0-1.71 1.39-3.1 3.1-3.1 1.71 0 3.1 1.39 3.1 3.1v2z"/></symbol><symbol id="lock_open" viewBox="0 0 24 24"><path d="M0 0h24v24H0z" fill="none"/><path d="M12 17c1.1 0 2-.9 2-2s-.9-2-2-2-2 .9-2 2 .9 2 2 2zm6-9h-1V6c0-2.76-2.24-5-5-5S7 3.24 7 6h1.9c0-1.71 1.39-3.1 3.1-3.1 1.71 0 3.1 1.39 3.1 3.1v2H6c-1.1 0-2 .9-2 2v10c0 1.1.9 2 2 2h12c1.1 0 2-.9 2-2V10c0-1.1-.9-2-2-2zm0 12H6V10h12v10z"/></symbol><symbol id="lock_outline" viewBox="0 0 24 24"><g enable-background="new 0 0 24 24"><g><rect fill="none" height="24" width="24" x="0"/></g><g><g><g><path d="M12,17c1.1,0,2-0.9,2-2s-0.9-2-2-2s-2,0.9-2,2S10.9,17,12,17z M18,8h-1V6c0-2.76-2.24-5-5-5S7,3.24,7,6v2H6 c-1.1,0-2,0.9-2,2v10c0,1.1,0.9,2,2,2h12c1.1,0,2-0.9,2-2V10C20,8.9,19.1,8,18,8z M8.9,6c0-1.71,1.39-3.1,3.1-3.1 s3.1,1.39,3.1,3.1v2H8.9V6z M18,20H6V10h12V20z"/></g></g></g></g></symbol><symbol id="login" viewBox="0 0 24 24"><g enable-background="new 0 0 24 24"><g><rect fill="none" height="24" width="24"/></g><g><path d="M11,7L9.6,8.4l2.6,2.6H2v2h10.2l-2.6,2.6L11,17l5-5L11,7z M20,19h-8v2h8c1.1,0,2-0.9,2-2V5c0-1.1-0.9-2-2-2h-8v2h8V19z"/></g></g></symbol><symbol id="logout" viewBox="0 0 24 24"><path d="M0 0h24v24H0z" fill="none"/><path d="M17 7l-1.41 1.41L18.17 11H8v2h10.17l-2.58 2.58L17 17l5-5zM4 5h8V3H4c-1.1 0-2 .9-2 2v14c0 1.1.9 2 2 2h8v-2H4V5z"/></symbol><symbol id="loop" viewBox="0 0 24 24"><path d="M0 0h24v24H0z" fill="none"/><path d="M12 4V1L8 5l4 4V6c3.31 0 6 2.69 6 6 0 1.01-.25 1.97-.7 2.8l1.46 1.46C19.54 15.03 20 13.57 20 12c0-4.42-3.58-8-8-8zm0 14c-3.31 0-6-2.69-6-6 0-1.01.25-1.97.7-2.8L5.24 7.74C4.46 8.97 4 10.43 4 12c0 4.42 3.58 8 8 8v3l4-4-4-4v3z"/></symbol><symbol id="mail" viewBox="0 0 24 24"><path d="M0 0h24v24H0z" fill="none"/><path d="M20 4H4c-1.1 0-1.99.9-1.99 2L2 18c0 1.1.9 2 2 2h16c1.1 0 2-.9 2-2V6c0-1.1-.9-2-2-2zm0 4l-8 5-8-5V6l8 5 8-5v2z"/></symbol><symbol id="mail_outline" viewBox="0 0 24 24"><path d="M0 0h24v24H0z" fill="none"/><path d="M20 4H4c-1.1 0-1.99.9-1.99 2L2 18c0 1.1.9 2 2 2h16c1.1 0 2-.9 2-2V6c0-1.1-.9-2-2-2zm0 14H4V8l8 5 8-5v10zm-8-7L4 6h16l-8 5z"/></symbol><symbol id="map" viewBox="0 0 24 24"><path d="M0 0h24v24H0z" fill="none"/><path d="M20.5 3l-.16.03L15 5.1 9 3 3.36 4.9c-.21.07-.36.25-.36.48V20.5c0 .28.22.5.5.5l.16-.03L9 18.9l6 2.1 5.64-1.9c.21-.07.36-.25.36-.48V3.5c0-.28-.22-.5-.5-.5zM15 19l-6-2.11V5l6 2.11V19z"/></symbol><symbol id="masks" viewBox="0 0 24 24"><g enable-background="new 0 0 24 24"><rect fill="none" height="24" width="24"/><path d="M19.5,6c-1.31,0-2.37,1.01-2.48,2.3C15.14,7.8,14.18,6.5,12,6.5c-2.19,0-3.14,1.3-5.02,1.8C6.87,7.02,5.81,6,4.5,6 C3.12,6,2,7.12,2,8.5V9c0,6,3.6,7.81,6.52,7.98C9.53,17.62,10.72,18,12,18s2.47-0.38,3.48-1.02C18.4,16.81,22,15,22,9V8.5 C22,7.12,20.88,6,19.5,6z M3.5,9V8.5c0-0.55,0.45-1,1-1s1,0.45,1,1v3c0,1.28,0.38,2.47,1.01,3.48C4.99,14.27,3.5,12.65,3.5,9z M20.5,9c0,3.65-1.49,5.27-3.01,5.98c0.64-1.01,1.01-2.2,1.01-3.48v-3c0-0.55,0.45-1,1-1s1,0.45,1,1V9z M10.69,10.48 c-0.44,0.26-0.96,0.56-1.69,0.76V10.2c0.48-0.17,0.84-0.38,1.18-0.58C10.72,9.3,11.23,9,12,9s1.27,0.3,1.8,0.62 c0.34,0.2,0.71,0.42,1.2,0.59v1.04c-0.75-0.21-1.26-0.51-1.71-0.78C12.83,10.2,12.49,10,12,10C11.51,10,11.16,10.2,10.69,10.48z"/></g></symbol><symbol id="medical_services" viewBox="0 0 24 24"><g enable-background="new 0 0 24 24"><g><rect fill="none" height="24" width="24"/></g><g><g><path d="M20,6h-4V4c0-1.1-0.9-2-2-2h-4C8.9,2,8,2.9,8,4v2H4C2.9,6,2,6.9,2,8v12c0,1.1,0.9,2,2,2h16c1.1,0,2-0.9,2-2V8 C22,6.9,21.1,6,20,6z M10,4h4v2h-4V4z M16,15h-3v3h-2v-3H8v-2h3v-3h2v3h3V15z"/></g></g></g></symbol><symbol id="menu" viewBox="0 0 24 24"><path d="M0 0h24v24H0z" fill="none"/><path d="M3 18h18v-2H3v2zm0-5h18v-2H3v2zm0-7v2h18V6H3z"/></symbol><symbol id="military_tech" viewBox="0 0 24 24"><g enable-background="new 0 0 24 24"><g><rect fill="none" height="24" width="24"/></g><g><path d="M17,10.43V2H7v8.43c0,0.35,0.18,0.68,0.49,0.86l4.18,2.51l-0.99,2.34l-3.41,0.29l2.59,2.24L9.07,22L12,20.23L14.93,22 l-0.78-3.33l2.59-2.24l-3.41-0.29l-0.99-2.34l4.18-2.51C16.82,11.11,17,10.79,17,10.43z M13,12.23l-1,0.6l-1-0.6V3h2V12.23z"/></g></g></symbol><symbol id="more_horiz" viewBox="0 0 24 24"><path d="M0 0h24v24H0z" fill="none"/><path d="M6 10c-1.1 0-2 .9-2 2s.9 2 2 2 2-.9 2-2-.9-2-2-2zm12 0c-1.1 0-2 .9-2 2s.9 2 2 2 2-.9 2-2-.9-2-2-2zm-6 0c-1.1 0-2 .9-2 2s.9 2 2 2 2-.9 2-2-.9-2-2-2z"/></symbol><symbol id="more_vert" viewBox="0 0 24 24"><path d="M0 0h24v24H0z" fill="none"/><path d="M12 8c1.1 0 2-.9 2-2s-.9-2-2-2-2 .9-2 2 .9 2 2 2zm0 2c-1.1 0-2 .9-2 2s.9 2 2 2 2-.9 2-2-.9-2-2-2zm0 6c-1.1 0-2 .9-2 2s.9 2 2 2 2-.9 2-2-.9-2-2-2z"/></symbol><symbol id="my_location" viewBox="0 0 24 24"><path d="M0 0h24v24H0z" fill="none"/><path d="M12 8c-2.21 0-4 1.79-4 4s1.79 4 4 4 4-1.79 4-4-1.79-4-4-4zm8.94 3c-.46-4.17-3.77-7.48-7.94-7.94V1h-2v2.06C6.83 3.52 3.52 6.83 3.06 11H1v2h2.06c.46 4.17 3.77 7.48 7.94 7.94V23h2v-2.06c4.17-.46 7.48-3.77 7.94-7.94H23v-2h-2.06zM12 19c-3.87 0-7-3.13-7-7s3.13-7 7-7 7 3.13 7 7-3.13 7-7 7z"/></symbol><symbol id="navigate_before" viewBox="0 0 24 24"><path d="M0 0h24v24H0z" fill="none"/><path d="M15.41 7.41L14 6l-6 6 6 6 1.41-1.41L10.83 12z"/></symbol><symbol id="navigate_far_before" viewBox="0 0 24 24"><g fill="none" fill-rule="evenodd"><polygon points="0 0 24 0 24 24 0 24"/><polygon fill="#000" fill-rule="nonzero" points="11.41 7.41 10 6 4 12 10 18 11.41 16.59 6.83 12"/><polygon fill="#000" fill-rule="nonzero" points="19.41 7.41 18 6 12 12 18 18 19.41 16.59 14.83 12"/></g></symbol><symbol id="navigate_far_next" viewBox="0 0 24 24"><g fill="none" fill-rule="evenodd"><polygon points="0 0 24 0 24 24 0 24"/><g fill="#000" fill-rule="nonzero" transform="translate(4.59 6)"><polygon points="9.41 0 8 1.41 12.58 6 8 10.59 9.41 12 15.41 6"/><polygon points="1.41 0 0 1.41 4.58 6 0 10.59 1.41 12 7.41 6"/></g></g></symbol><symbol id="navigate_next" viewBox="0 0 24 24"><path d="M0 0h24v24H0z" fill="none"/><path d="M10 6L8.59 7.41 13.17 12l-4.58 4.59L10 18l6-6z"/></symbol><symbol id="near_me" viewBox="0 0 24 24"><path d="M0 0h24v24H0V0z" fill="none"/><path d="M21 3L3 10.53v.98l6.84 2.65L12.48 21h.98L21 3z"/></symbol><symbol id="notifications" viewBox="0 0 24 24"><path d="M12 22c1.1 0 2-.9 2-2h-4c0 1.1.89 2 2 2zm6-6v-5c0-3.07-1.64-5.64-4.5-6.32V4c0-.83-.67-1.5-1.5-1.5s-1.5.67-1.5 1.5v.68C7.63 5.36 6 7.92 6 11v5l-2 2v1h16v-1l-2-2z"/></symbol><symbol id="notifications_active" viewBox="0 0 24 24"><path d="M0 0h24v24H0z" fill="none"/><path d="M7.58 4.08L6.15 2.65C3.75 4.48 2.17 7.3 2.03 10.5h2c.15-2.65 1.51-4.97 3.55-6.42zm12.39 6.42h2c-.15-3.2-1.73-6.02-4.12-7.85l-1.42 1.43c2.02 1.45 3.39 3.77 3.54 6.42zM18 11c0-3.07-1.64-5.64-4.5-6.32V4c0-.83-.67-1.5-1.5-1.5s-1.5.67-1.5 1.5v.68C7.63 5.36 6 7.92 6 11v5l-2 2v1h16v-1l-2-2v-5zm-6 11c.14 0 .27-.01.4-.04.65-.14 1.18-.58 1.44-1.18.1-.24.15-.5.15-.78h-4c.01 1.1.9 2 2.01 2z"/></symbol><symbol id="notifications_none" viewBox="0 0 24 24"><path d="M0 0h24v24H0z" fill="none"/><path d="M12 22c1.1 0 2-.9 2-2h-4c0 1.1.9 2 2 2zm6-6v-5c0-3.07-1.63-5.64-4.5-6.32V4c0-.83-.67-1.5-1.5-1.5s-1.5.67-1.5 1.5v.68C7.64 5.36 6 7.92 6 11v5l-2 2v1h16v-1l-2-2zm-2 1H8v-6c0-2.48 1.51-4.5 4-4.5s4 2.02 4 4.5v6z"/></symbol><symbol id="notifications_off" viewBox="0 0 24 24"><path d="M0 0h24v24H0z" fill="none"/><path d="M20 18.69L7.84 6.14 5.27 3.49 4 4.76l2.8 2.8v.01c-.52.99-.8 2.16-.8 3.42v5l-2 2v1h13.73l2 2L21 19.72l-1-1.03zM12 22c1.11 0 2-.89 2-2h-4c0 1.11.89 2 2 2zm6-7.32V11c0-3.08-1.64-5.64-4.5-6.32V4c0-.83-.67-1.5-1.5-1.5s-1.5.67-1.5 1.5v.68c-.15.03-.29.08-.42.12-.1.03-.2.07-.3.11h-.01c-.01 0-.01 0-.02.01-.23.09-.46.2-.68.31 0 0-.01 0-.01.01L18 14.68z"/></symbol><symbol id="park" viewBox="0 0 24 24"><g enable-background="new 0 0 24 24"><g><rect fill="none" height="24" width="24"/></g><g><polygon points="17,12 19,12 12,2 5.05,12 7,12 3.1,18 10.02,18 10.02,22 13.98,22 13.98,18 21,18"/></g></g></symbol><symbol id="people" viewBox="0 0 24 24"><path d="M0 0h24v24H0z" fill="none"/><path d="M16 11c1.66 0 2.99-1.34 2.99-3S17.66 5 16 5c-1.66 0-3 1.34-3 3s1.34 3 3 3zm-8 0c1.66 0 2.99-1.34 2.99-3S9.66 5 8 5C6.34 5 5 6.34 5 8s1.34 3 3 3zm0 2c-2.33 0-7 1.17-7 3.5V19h14v-2.5c0-2.33-4.67-3.5-7-3.5zm8 0c-.29 0-.62.02-.97.05 1.16.84 1.97 1.97 1.97 3.45V19h6v-2.5c0-2.33-4.67-3.5-7-3.5z"/></symbol><symbol id="person" viewBox="0 0 24 24"><path d="M0 0h24v24H0z" fill="none"/><path d="M12 12c2.21 0 4-1.79 4-4s-1.79-4-4-4-4 1.79-4 4 1.79 4 4 4zm0 2c-2.67 0-8 1.34-8 4v2h16v-2c0-2.66-5.33-4-8-4z"/></symbol><symbol id="pets" viewBox="0 0 24 24"><path d="M0 0h24v24H0z" fill="none"/><circle cx="4.5" cy="9.5" r="2.5"/><circle cx="9" cy="5.5" r="2.5"/><circle cx="15" cy="5.5" r="2.5"/><circle cx="19.5" cy="9.5" r="2.5"/><path d="M17.34 14.86c-.87-1.02-1.6-1.89-2.48-2.91-.46-.54-1.05-1.08-1.75-1.32-.11-.04-.22-.07-.33-.09-.25-.04-.52-.04-.78-.04s-.53 0-.79.05c-.11.02-.22.05-.33.09-.7.24-1.28.78-1.75 1.32-.87 1.02-1.6 1.89-2.48 2.91-1.31 1.31-2.92 2.76-2.62 4.79.29 1.02 1.02 2.03 2.33 2.32.73.15 3.06-.44 5.54-.44h.18c2.48 0 4.81.58 5.54.44 1.31-.29 2.04-1.31 2.33-2.32.31-2.04-1.3-3.49-2.61-4.8z"/></symbol><symbol id="phone" viewBox="0 0 24 24"><path d="M0 0h24v24H0z" fill="none"/><path d="M6.62 10.79c1.44 2.83 3.76 5.14 6.59 6.59l2.2-2.2c.27-.27.67-.36 1.02-.24 1.12.37 2.33.57 3.57.57.55 0 1 .45 1 1V20c0 .55-.45 1-1 1-9.39 0-17-7.61-17-17 0-.55.45-1 1-1h3.5c.55 0 1 .45 1 1 0 1.25.2 2.45.57 3.57.11.35.03.74-.25 1.02l-2.2 2.2z"/></symbol><symbol id="photo_camera" viewBox="0 0 24 24"><path d="M0 0h24v24H0z" fill="none"/><circle cx="12" cy="12" r="3.2"/><path d="M9 2L7.17 4H4c-1.1 0-2 .9-2 2v12c0 1.1.9 2 2 2h16c1.1 0 2-.9 2-2V6c0-1.1-.9-2-2-2h-3.17L15 2H9zm3 15c-2.76 0-5-2.24-5-5s2.24-5 5-5 5 2.24 5 5-2.24 5-5 5z"/></symbol><symbol id="print" viewBox="0 0 24 24"><path d="M0 0h24v24H0z" fill="none"/><path d="M19 8H5c-1.66 0-3 1.34-3 3v6h4v4h12v-4h4v-6c0-1.66-1.34-3-3-3zm-3 11H8v-5h8v5zm3-7c-.55 0-1-.45-1-1s.45-1 1-1 1 .45 1 1-.45 1-1 1zm-1-9H6v4h12V3z"/></symbol><symbol id="priority_high" viewBox="0 0 24 24"><path d="M0 0h24v24H0z" fill="none"/><circle cx="12" cy="19" r="2"/><path d="M10 3h4v12h-4z"/></symbol><symbol id="public" viewBox="0 0 24 24"><path d="M0 0h24v24H0z" fill="none"/><path d="M12 2C6.48 2 2 6.48 2 12s4.48 10 10 10 10-4.48 10-10S17.52 2 12 2zm-1 17.93c-3.95-.49-7-3.85-7-7.93 0-.62.08-1.21.21-1.79L9 15v1c0 1.1.9 2 2 2v1.93zm6.9-2.54c-.26-.81-1-1.39-1.9-1.39h-1v-3c0-.55-.45-1-1-1H8v-2h2c.55 0 1-.45 1-1V7h2c1.1 0 2-.9 2-2v-.41c2.93 1.19 5 4.06 5 7.41 0 2.08-.8 3.97-2.1 5.39z"/></symbol><symbol id="push_pin" viewBox="0 0 24 24"><g enable-background="new 0 0 24 24"><g><rect fill="none" height="24" width="24"/></g><g><path d="M16,9V4l1,0c0.55,0,1-0.45,1-1v0c0-0.55-0.45-1-1-1H7C6.45,2,6,2.45,6,3v0 c0,0.55,0.45,1,1,1l1,0v5c0,1.66-1.34,3-3,3h0v2h5.97v7l1,1l1-1v-7H19v-2h0C17.34,12,16,10.66,16,9z" fill-rule="evenodd"/></g></g></symbol><symbol id="radio_button_unchecked" viewBox="0 0 24 24"><path d="M0 0h24v24H0z" fill="none"/><path d="M12 2C6.48 2 2 6.48 2 12s4.48 10 10 10 10-4.48 10-10S17.52 2 12 2zm0 18c-4.42 0-8-3.58-8-8s3.58-8 8-8 8 3.58 8 8-3.58 8-8 8z"/></symbol><symbol id="rain" viewBox="0 0 24 24"><g id="Rain"><path d="M17.51,7A5.62,5.62,0,0,0,7,5.51a4.5,4.5,0,0,0,.49,9h9.75A3.74,3.74,0,0,0,17.51,7Z"/><rect x="3.31" y="17.65" width="5.39" height="2" transform="translate(-13.54 17.29) rotate(-68.19)"/><rect x="8.31" y="17.65" width="5.39" height="2" transform="translate(-10.4 21.93) rotate(-68.19)"/><rect x="13.31" y="17.65" width="5.39" height="2" transform="translate(-7.26 26.58) rotate(-68.19)"/></g></symbol><symbol id="reduce_capacity" viewBox="0 0 24 24"><g enable-background="new 0 0 24 24"><rect fill="none" height="24" width="24"/><path d="M16,4c0-1.1,0.9-2,2-2s2,0.9,2,2s-0.9,2-2,2S16,5.1,16,4z M20.78,7.58C19.93,7.21,18.99,7,18,7c-0.67,0-1.31,0.1-1.92,0.28 C16.66,7.83,17,8.6,17,9.43V10h5V9.43C22,8.62,21.52,7.9,20.78,7.58z M6,6c1.1,0,2-0.9,2-2S7.1,2,6,2S4,2.9,4,4S4.9,6,6,6z M7.92,7.28C7.31,7.1,6.67,7,6,7C5.01,7,4.07,7.21,3.22,7.58C2.48,7.9,2,8.62,2,9.43V10h5V9.43C7,8.6,7.34,7.83,7.92,7.28z M10,4 c0-1.1,0.9-2,2-2s2,0.9,2,2s-0.9,2-2,2S10,5.1,10,4z M16,10H8V9.43C8,8.62,8.48,7.9,9.22,7.58C10.07,7.21,11.01,7,12,7 c0.99,0,1.93,0.21,2.78,0.58C15.52,7.9,16,8.62,16,9.43V10z M15,16c0-1.1,0.9-2,2-2s2,0.9,2,2s-0.9,2-2,2S15,17.1,15,16z M21,22h-8 v-0.57c0-0.81,0.48-1.53,1.22-1.85C15.07,19.21,16.01,19,17,19c0.99,0,1.93,0.21,2.78,0.58C20.52,19.9,21,20.62,21,21.43V22z M5,16 c0-1.1,0.9-2,2-2s2,0.9,2,2s-0.9,2-2,2S5,17.1,5,16z M11,22H3v-0.57c0-0.81,0.48-1.53,1.22-1.85C5.07,19.21,6.01,19,7,19 c0.99,0,1.93,0.21,2.78,0.58C10.52,19.9,11,20.62,11,21.43V22z M12.75,13v-2h-1.5v2H9l3,3l3-3H12.75z"/></g></symbol><symbol id="remove" viewBox="0 0 24 24"><path d="M0 0h24v24H0z" fill="none"/><path d="M19 13H5v-2h14v2z"/></symbol><symbol id="report" viewBox="0 0 24 24"><path d="M0 0h24v24H0z" fill="none"/><path d="M15.73 3H8.27L3 8.27v7.46L8.27 21h7.46L21 15.73V8.27L15.73 3zM12 17.3c-.72 0-1.3-.58-1.3-1.3 0-.72.58-1.3 1.3-1.3.72 0 1.3.58 1.3 1.3 0 .72-.58 1.3-1.3 1.3zm1-4.3h-2V7h2v6z"/></symbol><symbol id="restaurant" viewBox="0 0 24 24"><path d="M0 0h24v24H0z" fill="none"/><path d="M11 9H9V2H7v7H5V2H3v7c0 2.12 1.66 3.84 3.75 3.97V22h2.5v-9.03C11.34 12.84 13 11.12 13 9V2h-2v7zm5-3v8h2.5v8H21V2c-2.76 0-5 2.24-5 4z"/></symbol><symbol id="rss_feed" viewBox="0 0 24 24"><path d="M0 0h24v24H0z" fill="none"/><circle cx="6.18" cy="17.82" r="2.18"/><path d="M4 4.44v2.83c7.03 0 12.73 5.7 12.73 12.73h2.83c0-8.59-6.97-15.56-15.56-15.56zm0 5.66v2.83c3.9 0 7.07 3.17 7.07 7.07h2.83c0-5.47-4.43-9.9-9.9-9.9z"/></symbol><symbol id="safety_divider" viewBox="0 0 24 24"><g enable-background="new 0 0 24 24"><rect fill="none" height="24" width="24"/><path d="M11,5h2v14h-2V5z M5,12c1.1,0,2-0.9,2-2c0-1.1-0.9-2-2-2s-2,0.9-2,2C3,11.1,3.9,12,5,12z M7.78,13.58 C6.93,13.21,5.99,13,5,13s-1.93,0.21-2.78,0.58C1.48,13.9,1,14.62,1,15.43L1,16h8l0-0.57C9,14.62,8.52,13.9,7.78,13.58z M19,12 c1.1,0,2-0.9,2-2c0-1.1-0.9-2-2-2s-2,0.9-2,2C17,11.1,17.9,12,19,12z M21.78,13.58C20.93,13.21,19.99,13,19,13s-1.93,0.21-2.78,0.58 C15.48,13.9,15,14.62,15,15.43L15,16h8l0-0.57C23,14.62,22.52,13.9,21.78,13.58z"/></g></symbol><symbol id="sanitizer" viewBox="0 0 24 24"><g enable-background="new 0 0 24 24"><rect fill="none" height="24" width="24"/><path d="M15.5,6.5C15.5,5.66,17,4,17,4s1.5,1.66,1.5,2.5C18.5,7.33,17.83,8,17,8S15.5,7.33,15.5,6.5z M19.5,15 c1.38,0,2.5-1.12,2.5-2.5c0-1.67-2.5-4.5-2.5-4.5S17,10.83,17,12.5C17,13.88,18.12,15,19.5,15z M13,14h-2v-2H9v2H7v2h2v2h2v-2h2V14z M16,12v10H4V12c0-2.97,2.16-5.43,5-5.91V4H7V2h6c1.13,0,2.15,0.39,2.99,1.01l-1.43,1.43C14.1,4.17,13.57,4,13,4h-2v2.09 C13.84,6.57,16,9.03,16,12z"/></g></symbol><symbol id="save_alt" viewBox="0 0 24 24"><path d="M0 0h24v24H0z" fill="none"/><path d="M19 12v7H5v-7H3v7c0 1.1.9 2 2 2h14c1.1 0 2-.9 2-2v-7h-2zm-6 .67l2.59-2.58L17 11.5l-5 5-5-5 1.41-1.41L11 12.67V3h2z"/></symbol><symbol id="schedule" viewBox="0 0 24 24"><path d="M0 0h24v24H0z" fill="none"/><path d="M11.99 2C6.47 2 2 6.48 2 12s4.47 10 9.99 10C17.52 22 22 17.52 22 12S17.52 2 11.99 2zM12 20c-4.42 0-8-3.58-8-8s3.58-8 8-8 8 3.58 8 8-3.58 8-8 8z"/><path d="M12.5 7H11v6l5.25 3.15.75-1.23-4.5-2.67z"/></symbol><symbol id="school" viewBox="0 0 24 24"><path d="M0 0h24v24H0z" fill="none"/><path d="M5 13.18v4L12 21l7-3.82v-4L12 17l-7-3.82zM12 3L1 9l11 6 9-4.91V17h2V9L12 3z"/></symbol><symbol id="science" viewBox="0 0 24 24"><g enable-background="new 0 0 24 24"><g><rect fill="none" height="24" width="24"/></g><g><path d="M19.8,18.4L14,10.67V6.5l1.35-1.69C15.61,4.48,15.38,4,14.96,4H9.04C8.62,4,8.39,4.48,8.65,4.81L10,6.5v4.17L4.2,18.4 C3.71,19.06,4.18,20,5,20h14C19.82,20,20.29,19.06,19.8,18.4z"/></g></g></symbol><symbol id="search" viewBox="0 0 24 24"><path d="M0 0h24v24H0z" fill="none"/><path d="M15.5 14h-.79l-.28-.27C15.41 12.59 16 11.11 16 9.5 16 5.91 13.09 3 9.5 3S3 5.91 3 9.5 5.91 16 9.5 16c1.61 0 3.09-.59 4.23-1.57l.27.28v.79l5 4.99L20.49 19l-4.99-5zm-6 0C7.01 14 5 11.99 5 9.5S7.01 5 9.5 5 14 7.01 14 9.5 11.99 14 9.5 14z"/></symbol><symbol id="security" viewBox="0 0 24 24"><path d="M0 0h24v24H0z" fill="none"/><path d="M12 1L3 5v6c0 5.55 3.84 10.74 9 12 5.16-1.26 9-6.45 9-12V5l-9-4zm0 10.99h7c-.53 4.12-3.28 7.79-7 8.94V12H5V6.3l7-3.11v8.8z"/></symbol><symbol id="send" viewBox="0 0 24 24"><path d="M0 0h24v24H0z" fill="none"/><path d="M2.01 21L23 12 2.01 3 2 10l15 2-15 2z"/></symbol><symbol id="sentiment_dissatisfied" viewBox="0 0 24 24"><path d="M0 0h24v24H0V0z" fill="none"/><circle cx="15.5" cy="9.5" r="1.5"/><circle cx="8.5" cy="9.5" r="1.5"/><path d="M11.99 2C6.47 2 2 6.48 2 12s4.47 10 9.99 10C17.52 22 22 17.52 22 12S17.52 2 11.99 2zM12 20c-4.42 0-8-3.58-8-8s3.58-8 8-8 8 3.58 8 8-3.58 8-8 8zm0-3.5c.73 0 1.39.19 1.97.53.12-.14.86-.98 1.01-1.14-.85-.56-1.87-.89-2.98-.89-1.11 0-2.13.33-2.99.88.97 1.09.01.02 1.01 1.14.59-.33 1.25-.52 1.98-.52z"/></symbol><symbol id="sentiment_neutral" viewBox="0 0 24 24"><path d="M0 0h24v24H0V0z" fill="none"/><path d="M9 15.5h6v1H9v-1z"/><circle cx="15.5" cy="9.5" r="1.5"/><circle cx="8.5" cy="9.5" r="1.5"/><path d="M11.99 2C6.47 2 2 6.48 2 12s4.47 10 9.99 10C17.52 22 22 17.52 22 12S17.52 2 11.99 2zM12 20c-4.42 0-8-3.58-8-8s3.58-8 8-8 8 3.58 8 8-3.58 8-8 8z"/></symbol><symbol id="sentiment_satisfied" viewBox="0 0 24 24"><path d="M0 0h24v24H0V0z" fill="none"/><circle cx="15.5" cy="9.5" r="1.5"/><circle cx="8.5" cy="9.5" r="1.5"/><path d="M11.99 2C6.47 2 2 6.48 2 12s4.47 10 9.99 10C17.52 22 22 17.52 22 12S17.52 2 11.99 2zM12 20c-4.42 0-8-3.58-8-8s3.58-8 8-8 8 3.58 8 8-3.58 8-8 8zm0-4c-.73 0-1.38-.18-1.96-.52-.12.14-.86.98-1.01 1.15.86.55 1.87.87 2.97.87 1.11 0 2.12-.33 2.98-.88-.97-1.09-.01-.02-1.01-1.15-.59.35-1.24.53-1.97.53z"/></symbol><symbol id="sentiment_satisfied_alt" viewBox="0 0 24 24"><path d="M0 0h24v24H0V0z" fill="none"/><path d="M0 0h24v24H0V0z" fill="none"/><circle cx="15.5" cy="9.5" r="1.5"/><circle cx="8.5" cy="9.5" r="1.5"/><circle cx="15.5" cy="9.5" r="1.5"/><circle cx="8.5" cy="9.5" r="1.5"/><path d="M11.99 2C6.47 2 2 6.48 2 12s4.47 10 9.99 10C17.52 22 22 17.52 22 12S17.52 2 11.99 2zM12 20c-4.42 0-8-3.58-8-8s3.58-8 8-8 8 3.58 8 8-3.58 8-8 8zm0-2.5c2.33 0 4.32-1.45 5.12-3.5h-1.67c-.69 1.19-1.97 2-3.45 2s-2.75-.81-3.45-2H6.88c.8 2.05 2.79 3.5 5.12 3.5z"/></symbol><symbol id="sentiment_very_dissatisfied" viewBox="0 0 24 24"><path d="M0 0h24v24H0V0z" fill="none"/><circle cx="15.5" cy="9.5" r="1.5"/><circle cx="8.5" cy="9.5" r="1.5"/><path d="M11.99 2C6.47 2 2 6.48 2 12s4.47 10 9.99 10C17.52 22 22 17.52 22 12S17.52 2 11.99 2zM12 20c-4.42 0-8-3.58-8-8s3.58-8 8-8 8 3.58 8 8-3.58 8-8 8zm0-6c-2.33 0-4.32 1.45-5.12 3.5h1.67c.69-1.19 1.97-2 3.45-2s2.75.81 3.45 2h1.67c-.8-2.05-2.79-3.5-5.12-3.5z"/></symbol><symbol id="settings" viewBox="0 0 24 24"><g enable-background="new 0 0 24 24"><g><path d="M0,0h24v24H0V0z" fill="none"/><path d="M19.14,12.94c0.04-0.3,0.06-0.61,0.06-0.94c0-0.32-0.02-0.64-0.07-0.94l2.03-1.58c0.18-0.14,0.23-0.41,0.12-0.61 l-1.92-3.32c-0.12-0.22-0.37-0.29-0.59-0.22l-2.39,0.96c-0.5-0.38-1.03-0.7-1.62-0.94L14.4,2.81c-0.04-0.24-0.24-0.41-0.48-0.41 h-3.84c-0.24,0-0.43,0.17-0.47,0.41L9.25,5.35C8.66,5.59,8.12,5.92,7.63,6.29L5.24,5.33c-0.22-0.08-0.47,0-0.59,0.22L2.74,8.87 C2.62,9.08,2.66,9.34,2.86,9.48l2.03,1.58C4.84,11.36,4.8,11.69,4.8,12s0.02,0.64,0.07,0.94l-2.03,1.58 c-0.18,0.14-0.23,0.41-0.12,0.61l1.92,3.32c0.12,0.22,0.37,0.29,0.59,0.22l2.39-0.96c0.5,0.38,1.03,0.7,1.62,0.94l0.36,2.54 c0.05,0.24,0.24,0.41,0.48,0.41h3.84c0.24,0,0.44-0.17,0.47-0.41l0.36-2.54c0.59-0.24,1.13-0.56,1.62-0.94l2.39,0.96 c0.22,0.08,0.47,0,0.59-0.22l1.92-3.32c0.12-0.22,0.07-0.47-0.12-0.61L19.14,12.94z M12,15.6c-1.98,0-3.6-1.62-3.6-3.6 s1.62-3.6,3.6-3.6s3.6,1.62,3.6,3.6S13.98,15.6,12,15.6z"/></g></g></symbol><symbol id="severe_weather" viewBox="0 0 24 24"><g id="Severe_Weather" data-name="Severe Weather"><path d="M4.05,17.73,12,4l8,13.85A5,5,0,0,0,19.2,8a7.49,7.49,0,0,0-14-2A6,6,0,0,0,4.05,17.73Z"/><path d="M12,7,3.34,22H20.66Zm0,13.4a1,1,0,1,1,1-1A1,1,0,0,1,12,20.4ZM11,17V12.4h2V17Z"/></g></symbol><symbol id="share" viewBox="0 0 24 24"><path d="M0 0h24v24H0z" fill="none"/><path d="M18 16.08c-.76 0-1.44.3-1.96.77L8.91 12.7c.05-.23.09-.46.09-.7s-.04-.47-.09-.7l7.05-4.11c.54.5 1.25.81 2.04.81 1.66 0 3-1.34 3-3s-1.34-3-3-3-3 1.34-3 3c0 .24.04.47.09.7L8.04 9.81C7.5 9.31 6.79 9 6 9c-1.66 0-3 1.34-3 3s1.34 3 3 3c.79 0 1.5-.31 2.04-.81l7.12 4.16c-.05.21-.08.43-.08.65 0 1.61 1.31 2.92 2.92 2.92 1.61 0 2.92-1.31 2.92-2.92s-1.31-2.92-2.92-2.92z"/></symbol><symbol id="shield" viewBox="0 0 24 24"><path d="M0 0h24v24H0z" fill="none"/><path d="M12 1L3 5v6c0 5.55 3.84 10.74 9 12 5.16-1.26 9-6.45 9-12V5l-9-4z"/></symbol><symbol id="shopping_basket" viewBox="0 0 24 24"><path d="M0 0h24v24H0z" fill="none"/><path d="M17.21 9l-4.38-6.56c-.19-.28-.51-.42-.83-.42-.32 0-.64.14-.83.43L6.79 9H2c-.55 0-1 .45-1 1 0 .09.01.18.04.27l2.54 9.27c.23.84 1 1.46 1.92 1.46h13c.92 0 1.69-.62 1.93-1.46l2.54-9.27L23 10c0-.55-.45-1-1-1h-4.79zM9 9l3-4.4L15 9H9zm3 8c-1.1 0-2-.9-2-2s.9-2 2-2 2 .9 2 2-.9 2-2 2z"/></symbol><symbol id="snow" viewBox="0 0 24 24"><polygon id="Snow" points="20.76 14.07 20.1 12.73 17.22 14.15 13.5 12 17.22 9.85 20.1 11.27 20.76 9.93 18.79 8.95 21.04 7.65 20.29 6.35 18.04 7.65 18.18 5.45 16.68 5.35 16.47 8.55 12.75 10.7 12.75 6.4 15.42 4.62 14.58 3.38 12.75 4.6 12.75 2 11.25 2 11.25 4.6 9.42 3.38 8.58 4.62 11.25 6.4 11.25 10.7 7.53 8.55 7.32 5.35 5.82 5.45 5.96 7.65 3.71 6.35 2.96 7.65 5.21 8.95 3.24 9.93 3.9 11.27 6.78 9.85 10.5 12 6.78 14.15 3.9 12.73 3.24 14.07 5.21 15.05 2.96 16.35 3.71 17.65 5.96 16.35 5.82 18.55 7.32 18.65 7.53 15.45 11.25 13.3 11.25 17.6 8.58 19.38 9.42 20.62 11.25 19.4 11.25 22 12.75 22 12.75 19.4 14.58 20.62 15.42 19.38 12.75 17.6 12.75 13.3 16.47 15.45 16.68 18.65 18.18 18.55 18.04 16.35 20.29 17.65 21.04 16.35 18.79 15.05 20.76 14.07"/></symbol><symbol id="soap" viewBox="0 0 24 24"><g enable-background="new 0 0 24 24"><g><rect fill="none" height="24" width="24"/><path d="M9.12,5l-7.18,6.79C1.34,12.35,1,13.14,1,13.97V20c0,1.66,1.34,3,3,3h6.25H12h5.75c0.69,0,1.25-0.56,1.25-1.25 s-0.56-1.25-1.25-1.25H12v-1h7.75c0.69,0,1.25-0.56,1.25-1.25S20.44,17,19.75,17H12v-1h8.75c0.69,0,1.25-0.56,1.25-1.25 s-0.56-1.25-1.25-1.25H12v-1h6.75c0.69,0,1.25-0.56,1.25-1.25S19.44,10,18.75,10H8.86c0.64-1.11,1.48-2.58,1.49-2.61 c0.09-0.16,0.14-0.33,0.14-0.53c0-0.26-0.09-0.5-0.26-0.7C10.22,6.12,9.12,5,9.12,5L9.12,5z M14,6.25c0.41,0,0.75,0.34,0.75,0.75 S14.41,7.75,14,7.75S13.25,7.41,13.25,7S13.59,6.25,14,6.25 M14,4.75c-1.24,0-2.25,1.01-2.25,2.25S12.76,9.25,14,9.25 S16.25,8.24,16.25,7S15.24,4.75,14,4.75L14,4.75z M19.75,5.5c0.28,0,0.5,0.22,0.5,0.5s-0.22,0.5-0.5,0.5s-0.5-0.22-0.5-0.5 S19.47,5.5,19.75,5.5 M19.75,4c-1.1,0-2,0.9-2,2s0.9,2,2,2s2-0.9,2-2S20.85,4,19.75,4L19.75,4z M16.5,1C15.67,1,15,1.67,15,2.5 S15.67,4,16.5,4C17.33,4,18,3.33,18,2.5S17.33,1,16.5,1z"/></g></g></symbol><symbol id="social_distance" viewBox="0 0 24 24"><g enable-background="new 0 0 24 24"><rect fill="none" height="24" width="24"/><path d="M4,5c0-1.1,0.9-2,2-2s2,0.9,2,2c0,1.1-0.9,2-2,2S4,6.1,4,5z M8.78,8.58C7.93,8.21,6.99,8,6,8S4.07,8.21,3.22,8.58 C2.48,8.9,2,9.62,2,10.43L2,11h8l0-0.57C10,9.62,9.52,8.9,8.78,8.58z M18,7c1.1,0,2-0.9,2-2c0-1.1-0.9-2-2-2s-2,0.9-2,2 C16,6.1,16.9,7,18,7z M20.78,8.58C19.93,8.21,18.99,8,18,8c-0.99,0-1.93,0.21-2.78,0.58C14.48,8.9,14,9.62,14,10.43L14,11h8l0-0.57 C22,9.62,21.52,8.9,20.78,8.58z M22,17l-4-4v3H6v-3l-4,4l4,4v-3h12v3L22,17z"/></g></symbol><symbol id="sort_arrow" viewBox="0 0 24 24"><polygon id="Sort" points="15.17 15 13 17.17 13 6.83 15.17 9 16.58 7.59 12 3 7.41 7.59 8.83 9 11 6.83 11 17.17 8.83 15 7.42 16.41 12 21 16.59 16.41 15.17 15"/></symbol><symbol id="spellcheck" viewBox="0 0 24 24"><path d="M0 0h24v24H0z" fill="none"/><path d="M12.45 16h2.09L9.43 3H7.57L2.46 16h2.09l1.12-3h5.64l1.14 3zm-6.02-5L8.5 5.48 10.57 11H6.43zm15.16.59l-8.09 8.09L9.83 16l-1.41 1.41 5.09 5.09L23 13l-1.41-1.41z"/></symbol><symbol id="star" viewBox="0 0 24 24"><path d="M0 0h24v24H0z" fill="none"/><path d="M0 0h24v24H0z" fill="none"/><path d="M12 17.27L18.18 21l-1.64-7.03L22 9.24l-7.19-.61L12 2 9.19 8.63 2 9.24l5.46 4.73L5.82 21z"/></symbol><symbol id="star_half" viewBox="0 0 24 24"><g enable-background="new 0 0 24 24"><g><rect fill="none" height="24" width="24" x="0"/></g><g><g><g><path d="M22,9.24l-7.19-0.62L12,2L9.19,8.63L2,9.24l5.46,4.73L5.82,21L12,17.27L18.18,21l-1.63-7.03L22,9.24z M12,15.4V6.1 l1.71,4.04l4.38,0.38l-3.32,2.88l1,4.28L12,15.4z"/></g></g></g></g></symbol><symbol id="star_outline" viewBox="0 0 24 24"><path d="M22 9.24l-7.19-.62L12 2 9.19 8.63 2 9.24l5.46 4.73L5.82 21 12 17.27 18.18 21l-1.63-7.03L22 9.24zM12 15.4l-3.76 2.27 1-4.28-3.32-2.88 4.38-.38L12 6.1l1.71 4.04 4.38.38-3.32 2.88 1 4.28L12 15.4z"/></symbol><symbol id="store" viewBox="0 0 24 24"><path d="M0 0h24v24H0z" fill="none"/><path d="M20 4H4v2h16V4zm1 10v-2l-1-5H4l-1 5v2h1v6h10v-6h4v6h2v-6h1zm-9 4H6v-4h6v4z"/></symbol><symbol id="support" viewBox="0 0 24 24"><g enable-background="new 0 0 24 24"><g><rect fill="none" height="24" width="24"/></g><g><path d="M12,2C6.48,2,2,6.48,2,12c0,5.52,4.48,10,10,10s10-4.48,10-10C22,6.48,17.52,2,12,2z M19.46,9.12l-2.78,1.15 c-0.51-1.36-1.58-2.44-2.95-2.94l1.15-2.78C16.98,5.35,18.65,7.02,19.46,9.12z M12,15c-1.66,0-3-1.34-3-3s1.34-3,3-3s3,1.34,3,3 S13.66,15,12,15z M9.13,4.54l1.17,2.78c-1.38,0.5-2.47,1.59-2.98,2.97L4.54,9.13C5.35,7.02,7.02,5.35,9.13,4.54z M4.54,14.87 l2.78-1.15c0.51,1.38,1.59,2.46,2.97,2.96l-1.17,2.78C7.02,18.65,5.35,16.98,4.54,14.87z M14.88,19.46l-1.15-2.78 c1.37-0.51,2.45-1.59,2.95-2.97l2.78,1.17C18.65,16.98,16.98,18.65,14.88,19.46z"/></g></g></symbol><symbol id="support_agent" viewBox="0 0 24 24"><g enable-background="new 0 0 24 24"><g><rect fill="none" height="24" width="24"/></g><g><g><path d="M21,12.22C21,6.73,16.74,3,12,3c-4.69,0-9,3.65-9,9.28C2.4,12.62,2,13.26,2,14v2c0,1.1,0.9,2,2,2h1v-6.1 c0-3.87,3.13-7,7-7s7,3.13,7,7V19h-8v2h8c1.1,0,2-0.9,2-2v-1.22c0.59-0.31,1-0.92,1-1.64v-2.3C22,13.14,21.59,12.53,21,12.22z"/><circle cx="9" cy="13" r="1"/><circle cx="15" cy="13" r="1"/><path d="M18,11.03C17.52,8.18,15.04,6,12.05,6c-3.03,0-6.29,2.51-6.03,6.45c2.47-1.01,4.33-3.21,4.86-5.89 C12.19,9.19,14.88,11,18,11.03z"/></g></g></g></symbol><symbol id="text_fields" viewBox="0 0 24 24"><g enable-background="new 0 0 24 24"><g><rect fill="none" height="24" width="24"/></g><g><g><g><path d="M2.5,4v3h5v12h3V7h5V4H2.5z M21.5,9h-9v3h3v7h3v-7h3V9z"/></g></g></g></g></symbol><symbol id="thumb_down_alt" viewBox="0 0 24 24"><path d="M24 24H0V0h24v24z" fill="none"/><path d="M22 4h-2c-.55 0-1 .45-1 1v9c0 .55.45 1 1 1h2V4zM2.17 11.12c-.11.25-.17.52-.17.8V13c0 1.1.9 2 2 2h5.5l-.92 4.65c-.05.22-.02.46.08.66.23.45.52.86.88 1.22L10 22l6.41-6.41c.38-.38.59-.89.59-1.42V6.34C17 5.05 15.95 4 14.66 4h-8.1c-.71 0-1.36.37-1.72.97l-2.67 6.15z"/></symbol><symbol id="thumb_up_alt" viewBox="0 0 24 24"><path d="M24 24H0V0h24v24z" fill="none"/><path d="M2 20h2c.55 0 1-.45 1-1v-9c0-.55-.45-1-1-1H2v11zm19.83-7.12c.11-.25.17-.52.17-.8V11c0-1.1-.9-2-2-2h-5.5l.92-4.65c.05-.22.02-.46-.08-.66-.23-.45-.52-.86-.88-1.22L14 2 7.59 8.41C7.21 8.79 7 9.3 7 9.83v7.84C7 18.95 8.05 20 9.34 20h8.11c.7 0 1.36-.37 1.72-.97l2.66-6.15z"/></symbol><symbol id="timer" viewBox="0 0 24 24"><path d="M0 0h24v24H0z" fill="none"/><path d="M15 1H9v2h6V1zm-4 13h2V8h-2v6zm8.03-6.61l1.42-1.42c-.43-.51-.9-.99-1.41-1.41l-1.42 1.42C16.07 4.74 14.12 4 12 4c-4.97 0-9 4.03-9 9s4.02 9 9 9 9-4.03 9-9c0-2.12-.74-4.07-1.97-5.61zM12 20c-3.87 0-7-3.13-7-7s3.13-7 7-7 7 3.13 7 7-3.13 7-7 7z"/></symbol><symbol id="toggle_off" viewBox="0 0 24 24"><path d="M0 0h24v24H0z" fill="none"/><path d="M17 7H7c-2.76 0-5 2.24-5 5s2.24 5 5 5h10c2.76 0 5-2.24 5-5s-2.24-5-5-5zM7 15c-1.66 0-3-1.34-3-3s1.34-3 3-3 3 1.34 3 3-1.34 3-3 3z"/></symbol><symbol id="toggle_on" viewBox="0 0 24 24"><path d="M0 0h24v24H0z" fill="none"/><path d="M17 7H7c-2.76 0-5 2.24-5 5s2.24 5 5 5h10c2.76 0 5-2.24 5-5s-2.24-5-5-5zm0 8c-1.66 0-3-1.34-3-3s1.34-3 3-3 3 1.34 3 3-1.34 3-3 3z"/></symbol><symbol id="topic" viewBox="0 0 24 24"><g enable-background="new 0 0 24 24"><g><rect fill="none" height="24" width="24"/><path d="M20,6h-8l-2-2H4C2.9,4,2.01,4.9,2.01,6L2,18c0,1.1,0.9,2,2,2h16c1.1,0,2-0.9,2-2V8C22,6.9,21.1,6,20,6z M14,16H6v-2h8V16z M18,12H6v-2h12V12z"/></g></g></symbol><symbol id="tornado" viewBox="0 0 24 24"><path id="Tornado" d="M13,16V14h2.77c.08-.32.16-.65.23-1,1.19-5.95,4-6,4-10H4a10.35,10.35,0,0,0,.48,3H8V8H5.26c.32.69.68,1.36,1,2H10v2H7.51A13.86,13.86,0,0,1,9,15a6.24,6.24,0,0,1-1,6l1,1c2.82-1.54,4.85-3.09,6.1-6Z"/></symbol><symbol id="translate" viewBox="0 0 24 24"><path d="M0 0h24v24H0z" fill="none"/><path d="M12.87 15.07l-2.54-2.51.03-.03c1.74-1.94 2.98-4.17 3.71-6.53H17V4h-7V2H8v2H1v1.99h11.17C11.5 7.92 10.44 9.75 9 11.35 8.07 10.32 7.3 9.19 6.69 8h-2c.73 1.63 1.73 3.17 2.98 4.56l-5.09 5.02L4 19l5-5 3.11 3.11.76-2.04zM18.5 10h-2L12 22h2l1.12-3h4.75L21 22h2l-4.5-12zm-2.62 7l1.62-4.33L19.12 17h-3.24z"/></symbol><symbol id="trending_down" viewBox="0 0 24 24"><path d="M0 0h24v24H0z" fill="none"/><path d="M16 18l2.29-2.29-4.88-4.88-4 4L2 7.41 3.41 6l6 6 4-4 6.3 6.29L22 12v6z"/></symbol><symbol id="trending_up" viewBox="0 0 24 24"><path d="M0 0h24v24H0z" fill="none"/><path d="M16 6l2.29 2.29-4.88 4.88-4-4L2 16.59 3.41 18l6-6 4 4 6.3-6.29L22 12V6z"/></symbol><symbol id="twitter" viewBox="0 0 24 24"><path id="Twitter" d="M12,2A10,10,0,1,0,22,12,10,10,0,0,0,12,2Zm5,8.1c0,.1,0,.21,0,.31a6.81,6.81,0,0,1-6.86,6.86,6.74,6.74,0,0,1-3.69-1.08,5.63,5.63,0,0,0,.58,0,4.79,4.79,0,0,0,3-1A2.41,2.41,0,0,1,7.8,13.51a1.75,1.75,0,0,0,.46.05,2.59,2.59,0,0,0,.63-.08A2.42,2.42,0,0,1,7,11.11v0a2.33,2.33,0,0,0,1.09.3A2.43,2.43,0,0,1,7.3,8.16a6.84,6.84,0,0,0,5,2.53,2.59,2.59,0,0,1-.07-.55,2.41,2.41,0,0,1,2.41-2.41,2.38,2.38,0,0,1,1.77.76A4.67,4.67,0,0,0,17.9,7.9a2.39,2.39,0,0,1-1.06,1.34,4.55,4.55,0,0,0,1.39-.39A5,5,0,0,1,17,10.1Z"/></symbol><symbol id="undo" viewBox="0 0 24 24"><path d="M0 0h24v24H0z" fill="none"/><path d="M12.5 8c-2.65 0-5.05.99-6.9 2.6L2 7v9h9l-3.62-3.62c1.39-1.16 3.16-1.88 5.12-1.88 3.54 0 6.55 2.31 7.6 5.5l2.37-.78C21.08 11.03 17.15 8 12.5 8z"/></symbol><symbol id="unfold_less" viewBox="0 0 24 24"><path d="M0 0h24v24H0z" fill="none"/><path d="M7.41 18.59L8.83 20 12 16.83 15.17 20l1.41-1.41L12 14l-4.59 4.59zm9.18-13.18L15.17 4 12 7.17 8.83 4 7.41 5.41 12 10l4.59-4.59z"/></symbol><symbol id="unfold_more" viewBox="0 0 24 24"><path d="M0 0h24v24H0z" fill="none"/><path d="M12 5.83L15.17 9l1.41-1.41L12 3 7.41 7.59 8.83 9 12 5.83zm0 12.34L8.83 15l-1.41 1.41L12 21l4.59-4.59L15.17 15 12 18.17z"/></symbol><symbol id="update" viewBox="0 0 24 24"><g enable-background="new 0 0 24 24"><g><rect fill="none" height="24" width="24" x="0"/></g><g><g><g><path d="M21,10.12h-6.78l2.74-2.82c-2.73-2.7-7.15-2.8-9.88-0.1c-2.73,2.71-2.73,7.08,0,9.79s7.15,2.71,9.88,0 C18.32,15.65,19,14.08,19,12.1h2c0,1.98-0.88,4.55-2.64,6.29c-3.51,3.48-9.21,3.48-12.72,0c-3.5-3.47-3.53-9.11-0.02-12.58 s9.14-3.47,12.65,0L21,3V10.12z M12.5,8v4.25l3.5,2.08l-0.72,1.21L11,13V8H12.5z"/></g></g></g></g></symbol><symbol id="upload_file" viewBox="0 0 24 24"><path d="M0 0h24v24H0V0z" fill="none"/><path d="M14 2H6c-1.1 0-1.99.9-1.99 2L4 20c0 1.1.89 2 1.99 2H18c1.1 0 2-.9 2-2V8l-6-6zm4 18H6V4h7v5h5v11zM8 15.01l1.41 1.41L11 14.84V19h2v-4.16l1.59 1.59L16 15.01 12.01 11z"/></symbol><symbol id="verified" viewBox="0 0 24 24"><g enable-background="new 0 0 24 24"><g><rect fill="none" height="24" width="24"/></g><g><path d="M23,12l-2.44-2.79l0.34-3.69l-3.61-0.82L15.4,1.5L12,2.96L8.6,1.5L6.71,4.69L3.1,5.5L3.44,9.2L1,12l2.44,2.79l-0.34,3.7 l3.61,0.82L8.6,22.5l3.4-1.47l3.4,1.46l1.89-3.19l3.61-0.82l-0.34-3.69L23,12z M10.09,16.72l-3.8-3.81l1.48-1.48l2.32,2.33 l5.85-5.87l1.48,1.48L10.09,16.72z"/></g></g></symbol><symbol id="verified_user" viewBox="0 0 24 24"><path d="M0 0h24v24H0z" fill="none"/><path d="M12 1L3 5v6c0 5.55 3.84 10.74 9 12 5.16-1.26 9-6.45 9-12V5l-9-4zm-2 16l-4-4 1.41-1.41L10 14.17l6.59-6.59L18 9l-8 8z"/></symbol><symbol id="visibility" viewBox="0 0 24 24"><path d="M0 0h24v24H0z" fill="none"/><path d="M12 4.5C7 4.5 2.73 7.61 1 12c1.73 4.39 6 7.5 11 7.5s9.27-3.11 11-7.5c-1.73-4.39-6-7.5-11-7.5zM12 17c-2.76 0-5-2.24-5-5s2.24-5 5-5 5 2.24 5 5-2.24 5-5 5zm0-8c-1.66 0-3 1.34-3 3s1.34 3 3 3 3-1.34 3-3-1.34-3-3-3z"/></symbol><symbol id="visibility_off" viewBox="0 0 24 24"><path d="M0 0h24v24H0zm0 0h24v24H0zm0 0h24v24H0zm0 0h24v24H0z" fill="none"/><path d="M12 7c2.76 0 5 2.24 5 5 0 .65-.13 1.26-.36 1.83l2.92 2.92c1.51-1.26 2.7-2.89 3.43-4.75-1.73-4.39-6-7.5-11-7.5-1.4 0-2.74.25-3.98.7l2.16 2.16C10.74 7.13 11.35 7 12 7zM2 4.27l2.28 2.28.46.46C3.08 8.3 1.78 10.02 1 12c1.73 4.39 6 7.5 11 7.5 1.55 0 3.03-.3 4.38-.84l.42.42L19.73 22 21 20.73 3.27 3 2 4.27zM7.53 9.8l1.55 1.55c-.05.21-.08.43-.08.65 0 1.66 1.34 3 3 3 .22 0 .44-.03.65-.08l1.55 1.55c-.67.33-1.41.53-2.2.53-2.76 0-5-2.24-5-5 0-.79.2-1.53.53-2.2zm4.31-.78l3.15 3.15.02-.16c0-1.66-1.34-3-3-3l-.17.01z"/></symbol><symbol id="volume_off" viewBox="0 0 24 24"><path d="M0 0h24v24H0z" fill="none"/><path d="M16.5 12c0-1.77-1.02-3.29-2.5-4.03v2.21l2.45 2.45c.03-.2.05-.41.05-.63zm2.5 0c0 .94-.2 1.82-.54 2.64l1.51 1.51C20.63 14.91 21 13.5 21 12c0-4.28-2.99-7.86-7-8.77v2.06c2.89.86 5 3.54 5 6.71zM4.27 3L3 4.27 7.73 9H3v6h4l5 5v-6.73l4.25 4.25c-.67.52-1.42.93-2.25 1.18v2.06c1.38-.31 2.63-.95 3.69-1.81L19.73 21 21 19.73l-9-9L4.27 3zM12 4L9.91 6.09 12 8.18V4z"/></symbol><symbol id="warning" viewBox="0 0 24 24"><path d="M0 0h24v24H0z" fill="none"/><path d="M1 21h22L12 2 1 21zm12-3h-2v-2h2v2zm0-4h-2v-4h2v4z"/></symbol><symbol id="wash" viewBox="0 0 24 24"><g enable-background="new 0 0 24 24"><g><rect fill="none" height="24" width="24"/><path d="M18.5,8C19.88,8,21,6.88,21,5.5C21,3.83,18.5,1,18.5,1S16,3.83,16,5.5C16,6.88,17.12,8,18.5,8z M13.5,9 C14.33,9,15,8.33,15,7.5C15,6.66,13.5,5,13.5,5S12,6.66,12,7.5C12,8.33,12.67,9,13.5,9z M9.12,5l-7.18,6.79 C1.34,12.35,1,13.14,1,13.97V20c0,1.66,1.34,3,3,3h6.25H12h5.75c0.69,0,1.25-0.56,1.25-1.25s-0.56-1.25-1.25-1.25H12v-1h7.75 c0.69,0,1.25-0.56,1.25-1.25S20.44,17,19.75,17H12v-1h8.75c0.69,0,1.25-0.56,1.25-1.25s-0.56-1.25-1.25-1.25H12v-1h6.75 c0.69,0,1.25-0.56,1.25-1.25S19.44,10,18.75,10H8.86c0.64-1.11,1.48-2.58,1.49-2.61c0.09-0.16,0.14-0.33,0.14-0.53 c0-0.26-0.09-0.5-0.26-0.7C10.22,6.12,9.12,5,9.12,5L9.12,5z"/></g></g></symbol><symbol id="wifi" viewBox="0 0 24 24"><path d="M0 0h24v24H0z" fill="none"/><path d="M1 9l2 2c4.97-4.97 13.03-4.97 18 0l2-2C16.93 2.93 7.08 2.93 1 9zm8 8l3 3 3-3c-1.65-1.66-4.34-1.66-6 0zm-4-4l2 2c2.76-2.76 7.24-2.76 10 0l2-2C15.14 9.14 8.87 9.14 5 13z"/></symbol><symbol id="work" viewBox="0 0 24 24"><path d="M0 0h24v24H0z" fill="none"/><path d="M20 6h-4V4c0-1.11-.89-2-2-2h-4c-1.11 0-2 .89-2 2v2H4c-1.11 0-1.99.89-1.99 2L2 19c0 1.11.89 2 2 2h16c1.11 0 2-.89 2-2V8c0-1.11-.89-2-2-2zm-6 0h-4V4h4v2z"/></symbol><symbol id="youtube" viewBox="0 0 24 24"><g id="YouTube"><path d="M12,2A10,10,0,1,0,22,12,10,10,0,0,0,12,2Zm5.75,12.91A1.49,1.49,0,0,1,16.69,16a34.65,34.65,0,0,1-4.69.26A34.65,34.65,0,0,1,7.31,16a1.49,1.49,0,0,1-1.06-1.06A15.88,15.88,0,0,1,6,12a15.88,15.88,0,0,1,.25-2.91A1.49,1.49,0,0,1,7.31,8,34.65,34.65,0,0,1,12,7.77,34.65,34.65,0,0,1,16.69,8a1.49,1.49,0,0,1,1.06,1.06A15.88,15.88,0,0,1,18,12,15.88,15.88,0,0,1,17.75,14.91Z"/><polygon points="10.77 13.78 13.91 12 10.77 10.22 10.77 13.78"/></g></symbol><symbol id="zoom_in" viewBox="0 0 24 24"><path d="M0 0h24v24H0V0z" fill="none"/><path d="M15.5 14h-.79l-.28-.27C15.41 12.59 16 11.11 16 9.5 16 5.91 13.09 3 9.5 3S3 5.91 3 9.5 5.91 16 9.5 16c1.61 0 3.09-.59 4.23-1.57l.27.28v.79l5 4.99L20.49 19l-4.99-5zm-6 0C7.01 14 5 11.99 5 9.5S7.01 5 9.5 5 14 7.01 14 9.5 11.99 14 9.5 14z"/><path d="M12 10h-2v2H9v-2H7V9h2V7h1v2h2v1z"/></symbol><symbol id="zoom_out" viewBox="0 0 24 24"><path d="M0 0h24v24H0V0z" fill="none"/><path d="M15.5 14h-.79l-.28-.27C15.41 12.59 16 11.11 16 9.5 16 5.91 13.09 3 9.5 3S3 5.91 3 9.5 5.91 16 9.5 16c1.61 0 3.09-.59 4.23-1.57l.27.28v.79l5 4.99L20.49 19l-4.99-5zm-6 0C7.01 14 5 11.99 5 9.5S7.01 5 9.5 5 14 7.01 14 9.5 11.99 14 9.5 14zM7 9h5v1H7z"/></symbol><symbol id="zoom_out_map" viewBox="0 0 24 24"><g enable-background="new 0 0 24 24"><g><rect fill="none" height="24" width="24"/></g><g><g><g><path d="M15,3l2.3,2.3l-2.89,2.87l1.42,1.42L18.7,6.7L21,9V3H15z M3,9l2.3-2.3l2.87,2.89l1.42-1.42L6.7,5.3L9,3H3V9z M9,21 l-2.3-2.3l2.89-2.87l-1.42-1.42L5.3,17.3L3,15v6H9z M21,15l-2.3,2.3l-2.87-2.89l-1.42,1.42l2.89,2.87L15,21h6V15z"/></g></g></g></g></symbol></svg>